<?xml version="1.0"?><svg xmlns="http://www.w3.org/2000/svg" xmlns:xlink= "http://www.w3.org/1999/xlink" style="background: white;" width="1500" height="185"> <g style="color: black; font-size: 13px; font-family: sans-serif; transform: translate(18px, 25px);"><g><circle r="3" cx="-6" cy="-5" style="fill: #B6509E" /><text>Borrow APR, variable</text></g><g style="transform: translateX(150px);"><circle r="3" cx="-6" cy="-5" style="fill: rgb(231, 198, 223)" /><text>Borrow APR, stable</text></g><g style="transform: translateX(290px);"><circle r="3" cx="-6" cy="-5" style="fill: rgb(0, 98, 210)" /><text>Utilization Rate</text></g></g><g class="visx-group" transform="translate(40, 50)"><g class="visx-group visx-rows" transform="translate(0, 0)"><line class="visx-line" x1="0" y1="115" x2="1450" y2="115" fill="transparent" shape-rendering="crispEdges" stroke="#000" stroke-width="1" stroke-dasharray="3,3" pointer-events="none"></line><line class="visx-line" x1="0" y1="57.5" x2="1450" y2="57.5" fill="transparent" shape-rendering="crispEdges" stroke="#000" stroke-width="1" stroke-dasharray="3,3" pointer-events="none"></line><line class="visx-line" x1="0" y1="0" x2="1450" y2="0" fill="transparent" shape-rendering="crispEdges" stroke="#000" stroke-width="1" stroke-dasharray="3,3" pointer-events="none"></line></g><path class="visx-linepath" d="M0,113.84999999995145C2.4166666666666665,113.84190740737908,4.833333333333334,113.83381481480673,7.25,113.82572222222223C9.666666666666666,113.81762962963772,12.083333333333334,113.80953703703703,14.5,113.80144444444444C16.916666666666668,113.79335185185185,19.333333333333332,113.78525925925925,21.75,113.77716666666666C24.166666666666668,113.76907407407407,26.583333333333332,113.76098148148148,29,113.75288888888889C31.416666666666668,113.7447962962963,33.833333333333336,113.7367037037037,36.25,113.7286111111111C38.666666666666664,113.72051851851852,41.083333333333336,113.71242592592593,43.5,113.70433333333334C45.91666666666667,113.69624074074075,48.333333333333336,113.68814814814814,50.75000000000001,113.68005555555555C53.16666666666667,113.67196296296297,55.583333333333336,113.66387037037038,58,113.65577777777779C60.416666666666664,113.6476851851852,62.833333333333336,113.63959259259259,65.25,113.6315C67.66666666666667,113.62340740740741,70.08333333333333,113.61531481481482,72.5,113.60722222222223C74.91666666666667,113.59912962962964,77.33333333333333,113.59103703703703,79.75,113.58294444444444C82.16666666666667,113.57485185185185,84.58333333333333,113.56675925925926,87,113.55866666666667C89.41666666666667,113.55057407407408,91.83333333333333,113.54248148148147,94.25,113.53438888888888C96.66666666666667,113.5262962962963,99.08333333333334,113.51820370370369,101.50000000000001,113.5101111111111C103.91666666666667,113.50201851851851,106.33333333333334,113.49392592592592,108.75,113.48583333333333C111.16666666666667,113.47774074074074,113.58333333333333,113.46964814814814,116,113.46155555555555C118.41666666666667,113.45346296296296,120.83333333333334,113.44537037037037,123.25000000000001,113.43727777777778C125.66666666666667,113.42918518518519,128.08333333333334,113.42109259259259,130.5,113.413C132.91666666666666,113.4049074074074,135.33333333333334,113.39681481481482,137.75,113.38872222222223C140.16666666666666,113.38062962962964,142.58333333333334,113.37253703703703,145,113.36444444444444C147.41666666666666,113.35635185185185,149.83333333333334,113.34825925925927,152.25,113.34016666666668C154.66666666666666,113.33207407407409,157.08333333333334,113.32398148148148,159.5,113.31588888888889C161.91666666666666,113.3077962962963,164.33333333333334,113.2997037037037,166.75,113.29161111111111C169.16666666666666,113.28351851851852,171.58333333333334,113.27542592592592,174,113.26733333333333C176.41666666666666,113.25924074074074,178.83333333333334,113.25114814814815,181.25,113.24305555555556C183.66666666666666,113.23496296296297,186.08333333333334,113.22687037037036,188.5,113.21877777777777C190.91666666666666,113.21068518518518,193.33333333333334,113.20259259259258,195.75,113.19449999999999C198.16666666666669,113.1864074074074,200.58333333333334,113.17831481481481,203.00000000000003,113.17022222222222C205.41666666666669,113.16212962962963,207.83333333333331,113.15403703703703,210.24999999999997,113.14594444444444C212.66666666666666,113.13785185185185,215.08333333333331,113.12975925925926,217.5,113.12166666666667C219.91666666666666,113.11357407407408,222.33333333333334,113.10548148148148,224.75,113.09738888888889C227.16666666666666,113.0892962962963,229.58333333333334,113.08120370370371,232,113.07311111111112C234.41666666666666,113.06501851851853,236.83333333333334,113.05692592592592,239.25,113.04883333333333C241.66666666666669,113.04074074074074,244.08333333333334,113.03264814814816,246.50000000000003,113.02455555555557C248.91666666666669,113.01646296296298,251.33333333333331,113.00837037037037,253.74999999999997,113.00027777777778C256.16666666666663,112.99218518518519,258.5833333333333,112.98409259259259,261,112.976C263.4166666666667,112.96790740740741,265.8333333333333,112.9598148148148,268.25,112.95172222222222C270.6666666666667,112.94362962962963,273.0833333333333,112.93553703703702,275.5,112.92744444444443C277.9166666666667,112.91935185185184,280.3333333333333,112.91125925925925,282.75,112.90316666666666C285.1666666666667,112.89507407407407,287.5833333333333,112.88698148148147,290,112.87888888888888C292.4166666666667,112.87079629629629,294.8333333333333,112.8627037037037,297.25,112.85461111111111C299.6666666666667,112.84651851851852,302.0833333333333,112.83842592592592,304.5,112.83033333333333C306.9166666666667,112.82224074074074,309.3333333333333,112.81414814814815,311.75,112.80605555555556C314.1666666666667,112.79796296296297,316.5833333333333,112.78987037037037,319,112.78177777777778C321.4166666666667,112.77368518518519,323.8333333333333,112.7655925925926,326.25,112.75750000000001C328.6666666666667,112.74940740740742,331.0833333333333,112.74131481481481,333.5,112.73322222222222C335.9166666666667,112.72512962962963,338.3333333333333,112.71703703703704,340.75,112.70894444444446C343.1666666666667,112.70085185185187,345.5833333333333,112.69275925925926,348,112.68466666666667C350.4166666666667,112.67657407407408,352.8333333333333,112.66848148148148,355.25,112.66038888888889C357.6666666666667,112.6522962962963,360.0833333333333,112.6442037037037,362.5,112.6361111111111C364.9166666666667,112.62801851851852,367.3333333333333,112.61992592592591,369.75,112.61183333333332C372.1666666666667,112.60374074074073,374.5833333333333,112.59564814814814,377,112.58755555555555C379.4166666666667,112.57946296296296,381.8333333333333,112.57137037037036,384.25,112.56327777777777C386.6666666666667,112.55518518518518,389.0833333333333,112.54709259259259,391.5,112.539C393.9166666666667,112.53090740740741,396.33333333333337,112.52281481481481,398.75000000000006,112.51472222222222C401.16666666666674,112.50662962962963,403.58333333333337,112.49853703703704,406.00000000000006,112.49044444444445C408.4166666666667,112.48235185185186,410.8333333333333,112.47425925925926,413.24999999999994,112.46616666666667C415.66666666666663,112.45807407407408,418.08333333333326,112.44998148148149,420.49999999999994,112.4418888888889C422.91666666666663,112.43379629629631,425.3333333333333,112.4257037037037,427.75,112.41761111111111C430.1666666666667,112.40951851851852,432.5833333333333,112.40142592592593,435,112.39333333333335C437.4166666666667,112.38524074074076,439.8333333333333,112.37714814814815,442.25,112.36905555555556C444.6666666666667,112.36096296296297,447.0833333333333,112.35287037037037,449.5,112.34477777777778C451.9166666666667,112.33668518518519,454.3333333333333,112.32859259259259,456.75,112.3205C459.1666666666667,112.3124074074074,461.5833333333333,112.3043148148148,464,112.29622222222221C466.4166666666667,112.28812962962962,468.8333333333333,112.28003703703703,471.25,112.27194444444444C473.6666666666667,112.26385185185185,476.0833333333333,112.25575925925925,478.5,112.24766666666666C480.9166666666667,112.23957407407407,483.33333333333337,112.23148148148148,485.75000000000006,112.22338888888889C488.16666666666674,112.2152962962963,490.58333333333337,112.2072037037037,493.00000000000006,112.19911111111111C495.4166666666667,112.19101851851852,497.8333333333333,112.18292592592593,500.24999999999994,112.17483333333334C502.66666666666663,112.16674074074075,505.08333333333326,112.15864814814815,507.49999999999994,112.15055555555556C509.91666666666663,112.14246296296297,512.3333333333333,112.13437037037038,514.75,112.12627777777779C517.1666666666666,112.1181851851852,519.5833333333334,112.1100925925926,522,112.102C524.4166666666666,112.09390740740741,526.8333333333334,112.08581481481481,529.25,112.07772222222222C531.6666666666666,112.06962962962963,534.0833333333334,112.06153703703704,536.5,112.05344444444445C538.9166666666666,112.04535185185186,541.3333333333334,112.03725925925926,543.75,112.02916666666667C546.1666666666666,112.02107407407408,548.5833333333334,112.01298148148148,551,112.00488888888889C553.4166666666666,111.9967962962963,555.8333333333334,111.98870370370369,558.25,111.9806111111111C560.6666666666666,111.97251851851851,563.0833333333334,111.96442592592592,565.5,111.95633333333333C567.9166666666666,111.94824074074074,570.3333333333334,111.94014814814814,572.75,111.93205555555555C575.1666666666666,111.92396296296296,577.5833333333334,111.91587037037037,580,111.90777777777778C582.4166666666666,111.89968518518519,584.8333333333334,111.89159259259259,587.25,111.8835C589.6666666666666,111.87540740740741,592.0833333333334,111.86731481481482,594.5,111.85922222222223C596.9166666666666,111.85112962962964,599.3333333333334,111.84303703703704,601.75,111.83494444444445C604.1666666666666,111.82685185185186,606.5833333333334,111.81875925925925,609,111.81066666666666C611.4166666666666,111.80257407407407,613.8333333333334,111.79448148148148,616.25,111.7863888888889C618.6666666666666,111.7782962962963,621.0833333333334,111.7702037037037,623.5,111.76211111111111C625.9166666666666,111.75401851851852,628.3333333333334,111.74592592592593,630.75,111.73783333333334C633.1666666666666,111.72974074074075,635.5833333333334,111.72164814814815,638,111.71355555555556C640.4166666666666,111.70546296296297,642.8333333333334,111.69737037037036,645.25,111.68927777777778C647.6666666666666,111.68118518518519,650.0833333333334,111.67309259259258,652.5,111.66499999999999C654.9166666666666,111.6569074074074,657.3333333333334,111.64881481481481,659.75,111.64072222222222C662.1666666666666,111.63262962962963,664.5833333333334,111.62453703703703,667,111.61644444444444C669.4166666666666,111.60835185185185,671.8333333333334,111.60025925925926,674.25,111.59216666666667C676.6666666666666,111.58407407407408,679.0833333333334,111.57598148148148,681.5,111.56788888888889C683.9166666666666,111.5597962962963,686.3333333333334,111.55170370370371,688.75,111.54361111111112C691.1666666666666,111.53551851851853,693.5833333333334,111.52742592592593,696,111.51933333333334C698.4166666666666,111.51124074074075,700.8333333333334,111.50314814814814,703.25,111.49505555555555C705.6666666666666,111.48696296296296,708.0833333333334,111.47887037037037,710.5,111.47077777777778C712.9166666666666,111.4626851851852,715.3333333333334,111.45459259259259,717.75,111.4465C720.1666666666666,111.43840740740741,722.5833333333334,111.43031481481482,725,111.42222222222223C727.4166666666666,111.41412962962964,729.8333333333334,111.40603703703704,732.25,111.39794444444445C734.6666666666666,111.38985185185186,737.0833333333334,111.38175925925925,739.5,111.37366666666667C741.9166666666666,111.36557407407408,744.3333333333334,111.35748148148147,746.75,111.34938888888888C749.1666666666666,111.34129629629629,751.5833333333334,111.3332037037037,754,111.32511111111111C756.4166666666666,111.31701851851852,758.8333333333334,111.30892592592592,761.25,111.30083333333333C763.6666666666666,111.29274074074074,766.0833333333334,111.28464814814815,768.5,111.27655555555556C770.9166666666666,111.26846296296297,773.3333333333334,111.26037037037037,775.75,111.25227777777778C778.1666666666666,111.24418518518519,780.5833333333334,111.23609259259258,783,111.228C785.4166666666667,111.2199074074074,787.8333333333334,111.21181481481482,790.2500000000001,111.20372222222223C792.6666666666667,111.19562962962964,795.0833333333335,111.18753703703703,797.5000000000001,111.17944444444444C799.9166666666667,111.17135185185185,802.3333333333335,111.16325925925926,804.7500000000001,111.15516666666667C807.1666666666667,111.14707407407408,809.5833333333335,111.13898148148148,812.0000000000001,111.13088888888889C814.4166666666667,111.1227962962963,816.8333333333333,111.11470370370371,819.2499999999999,111.10661111111112C821.6666666666665,111.09851851851853,824.0833333333333,111.09042592592591,826.4999999999999,111.08233333333332C828.9166666666665,111.07424074074073,831.3333333333333,111.06614814814814,833.7499999999999,111.05805555555555C836.1666666666665,111.04996296296297,838.5833333333333,111.04187037037036,840.9999999999999,111.03377777777777C843.4166666666666,111.02568518518518,845.8333333333333,111.01759259259259,848.25,111.0095C850.6666666666666,111.00140740740741,853.0833333333334,110.99331481481481,855.5,110.98522222222222C857.9166666666666,110.97712962962963,860.3333333333334,110.96903703703703,862.75,110.96094444444444C865.1666666666666,110.95285185185185,867.5833333333334,110.94475925925926,870,110.93666666666667C872.4166666666666,110.92857407407408,874.8333333333334,110.92048148148147,877.25,110.91238888888888C879.6666666666666,110.9042962962963,882.0833333333334,110.8962037037037,884.5,110.88811111111112C886.9166666666666,110.88001851851853,889.3333333333334,110.87192592592592,891.75,110.86383333333333C894.1666666666666,110.85574074074074,896.5833333333334,110.84764814814815,899,110.83955555555556C901.4166666666666,110.83146296296297,903.8333333333334,110.82337037037037,906.25,110.81527777777778C908.6666666666666,110.80718518518519,911.0833333333334,110.79909259259259,913.5,110.791C915.9166666666666,110.78290740740741,918.3333333333334,110.7748148148148,920.75,110.76672222222221C923.1666666666666,110.75862962962962,925.5833333333334,110.75053703703703,928,110.74244444444444C930.4166666666666,110.73435185185186,932.8333333333334,110.72625925925925,935.25,110.71816666666666C937.6666666666666,110.71007407407407,940.0833333333334,110.70198148148148,942.5,110.69388888888889C944.9166666666666,110.6857962962963,947.3333333333334,110.6777037037037,949.75,110.66961111111111C952.1666666666666,110.66151851851852,954.5833333333334,110.65342592592592,957,110.64533333333333C959.4166666666666,110.63724074074074,961.8333333333334,110.62914814814815,964.25,110.62105555555556C966.6666666666667,110.61296296296297,969.0833333333334,110.60487037037036,971.5000000000001,110.59677777777777C973.9166666666667,110.58868518518518,976.3333333333335,110.5805925925926,978.7500000000001,110.5725C981.1666666666667,110.56440740740742,983.5833333333335,110.55631481481481,986.0000000000001,110.54822222222222C988.4166666666667,110.54012962962963,990.8333333333335,110.53203703703704,993.2500000000001,110.52394444444445C995.6666666666667,110.51585185185186,998.0833333333333,110.50775925925926,1000.4999999999999,110.49966666666667C1002.9166666666665,110.49157407407408,1005.3333333333333,110.48348148148148,1007.7499999999999,110.47538888888889C1010.1666666666665,110.4672962962963,1012.5833333333333,110.4592037037037,1014.9999999999999,110.4511111111111C1017.4166666666665,110.44301851851851,1019.8333333333333,110.43492592592592,1022.2499999999999,110.42683333333333C1024.6666666666665,110.41874074074074,1027.0833333333333,110.41064814814814,1029.5,110.40255555555555C1031.9166666666667,110.39446296296296,1034.3333333333333,110.38637037037036,1036.75,110.37827777777777C1039.1666666666667,110.37018518518518,1041.5833333333333,110.36209259259259,1044,110.354C1046.4166666666667,110.34590740740741,1048.8333333333333,110.3378148148148,1051.25,110.32972222222222C1053.6666666666667,110.32162962962963,1056.0833333333333,110.31353703703704,1058.5,110.30544444444445C1060.9166666666667,110.29735185185186,1063.3333333333333,110.28925925925925,1065.75,110.28116666666666C1068.1666666666667,110.27307407407407,1070.5833333333333,110.26498148148148,1073,110.2568888888889C1075.4166666666667,110.2487962962963,1077.8333333333333,110.2407037037037,1080.25,110.23261111111111C1082.6666666666667,110.22451851851852,1085.0833333333333,110.21642592592593,1087.5,110.20833333333334C1089.9166666666667,110.20024074074075,1092.3333333333333,110.19214814814815,1094.75,110.18405555555556C1097.1666666666667,110.17596296296297,1099.5833333333333,110.16787037037037,1102,110.15977777777778C1104.4166666666667,110.15168518518519,1106.8333333333333,110.14359259259258,1109.25,110.1355C1111.6666666666667,110.1274074074074,1114.0833333333333,110.1193148148148,1116.5,110.11122222222221C1118.9166666666667,110.10312962962962,1121.3333333333333,110.09503703703703,1123.75,110.08694444444444C1126.1666666666667,110.07885185185185,1128.5833333333333,110.07075925925925,1131,110.06266666666666C1133.4166666666667,110.05457407407407,1135.8333333333333,110.04648148148148,1138.25,110.03838888888889C1140.6666666666667,110.0302962962963,1143.0833333333333,110.0222037037037,1145.5,110.0141111111111C1147.9166666666667,110.00601851851852,1150.3333333333333,109.99792592592593,1152.75,109.98983333333334C1155.1666666666667,109.98174074074075,1157.5833333333333,109.97364814814814,1160,109.96555555555555C1162.4166666666667,109.95746296296296,1164.8333333333333,109.94937037037037,1167.25,109.94127777777778C1169.6666666666667,109.9331851851852,1172.0833333333333,109.92509259259259,1174.5,109.917C1176.9166666666667,109.90890740740741,1179.3333333333333,109.90081481481482,1181.75,109.89272222222223C1184.1666666666667,109.88462962962964,1186.5833333333333,109.87653703703704,1189,109.86844444444445C1191.4166666666667,109.86035185185186,1193.8333333333333,109.85225925925926,1196.25,109.84416666666667C1198.6666666666667,109.83607407407408,1201.0833333333333,109.82798148148147,1203.5,109.81988888888888C1205.9166666666667,109.8117962962963,1208.3333333333333,109.80370370370369,1210.75,109.7956111111111C1213.1666666666667,109.78751851851851,1215.5833333333333,109.77942592592592,1218,109.77133333333333C1220.4166666666667,109.76324074074074,1222.8333333333333,109.75514814814814,1225.25,109.74705555555555C1227.6666666666667,109.73896296296296,1230.0833333333333,109.73087037037037,1232.5,109.72277777777778C1234.9166666666667,109.71468518518519,1237.3333333333333,109.70659259259259,1239.75,109.6985C1242.1666666666667,109.6904074074074,1244.5833333333333,109.68231481481482,1247,109.67422222222223C1249.4166666666667,109.66612962962964,1251.8333333333333,109.65803703703703,1254.25,109.64994444444444C1256.6666666666667,109.64185185185185,1259.0833333333333,109.63375925925926,1261.5,109.62566666666667C1263.9166666666667,109.61757407407408,1266.3333333333333,109.60948148148148,1268.75,109.60138888888889C1271.1666666666667,109.5932962962963,1273.5833333333333,109.58520370370371,1276,109.57711111111112C1278.4166666666667,109.56901851851853,1280.8333333333333,109.56092592592593,1283.25,109.55283333333334C1285.6666666666667,109.54474074074075,1288.0833333333333,109.53664814814815,1290.5,109.52855555555556C1292.9166666666667,109.52046296296297,1295.3333333333333,109.51237037037036,1297.75,109.50427777777777C1300.1666666666667,109.49618518518518,1302.5833333333333,109.49618518518518,1305,109.47999999999999C1307.4166666666667,109.4638148148148,1309.8333333333333,106.41333333333334,1312.25,104.88000000000001C1314.6666666666667,103.34666666666668,1317.0833333333333,101.81333333333333,1319.5,100.28C1321.9166666666667,98.74666666666667,1324.3333333333333,97.21333333333332,1326.75,95.67999999999999C1329.1666666666667,94.14666666666666,1331.5833333333333,92.61333333333333,1334,91.08C1336.4166666666667,89.54666666666667,1338.8333333333333,88.01333333333334,1341.25,86.48C1343.6666666666667,84.94666666666667,1346.0833333333333,83.41333333333333,1348.5,81.88C1350.9166666666667,80.34666666666666,1353.3333333333333,78.81333333333332,1355.75,77.27999999999999C1358.1666666666667,75.74666666666666,1360.5833333333333,74.21333333333334,1363,72.68C1365.4166666666667,71.14666666666668,1367.8333333333333,69.61333333333334,1370.25,68.08000000000001C1372.6666666666667,66.54666666666668,1375.0833333333333,65.01333333333332,1377.5,63.47999999999999C1379.9166666666667,61.94666666666666,1382.3333333333333,60.413333333333334,1384.75,58.88C1387.1666666666667,57.34666666666667,1389.5833333333333,55.813333333333325,1392,54.279999999999994C1394.4166666666667,52.74666666666666,1396.8333333333333,51.21333333333334,1399.25,49.68000000000001C1401.6666666666667,48.146666666666675,1404.0833333333333,46.61333333333333,1406.5,45.08C1408.9166666666667,43.54666666666667,1411.3333333333333,42.01333333333333,1413.75,40.48C1416.1666666666667,38.946666666666665,1418.5833333333333,37.41333333333334,1421,35.88000000000001C1423.4166666666667,34.34666666666668,1425.8333333333333,32.81333333333333,1428.25,31.28C1430.6666666666667,29.746666666666666,1433.0833333333333,28.213333333333335,1435.5,26.68C1437.9166666666667,25.146666666666665,1440.3333333333333,23.613333333333312,1442.75,22.07999999999998C1445.1666666666667,20.54666666666665,1447.5833333333333,19.013333333333325,1450,17.480000000000004" fill="transparent" stroke-linecap="round" stroke="#B6509E" stroke-width="2"></path><path class="visx-linepath" d="M0,110.63C2.4166666666666665,110.63,4.833333333333334,110.63,7.25,110.63C9.666666666666666,110.63,12.083333333333334,110.63,14.5,110.63C16.916666666666668,110.63,19.333333333333332,110.63,21.75,110.63C24.166666666666668,110.63,26.583333333333332,110.63,29,110.63C31.416666666666668,110.63,33.833333333333336,110.63,36.25,110.63C38.666666666666664,110.63,41.083333333333336,110.63,43.5,110.63C45.91666666666667,110.63,48.333333333333336,110.63,50.75000000000001,110.63C53.16666666666667,110.63,55.583333333333336,110.63,58,110.63C60.416666666666664,110.63,62.833333333333336,110.63,65.25,110.63C67.66666666666667,110.63,70.08333333333333,110.63,72.5,110.63C74.91666666666667,110.63,77.33333333333333,110.63,79.75,110.63C82.16666666666667,110.63,84.58333333333333,110.63,87,110.63C89.41666666666667,110.63,91.83333333333333,110.63,94.25,110.63C96.66666666666667,110.63,99.08333333333334,110.63,101.50000000000001,110.63C103.91666666666667,110.63,106.33333333333334,110.63,108.75,110.63C111.16666666666667,110.63,113.58333333333333,110.63,116,110.63C118.41666666666667,110.63,120.83333333333334,110.63,123.25000000000001,110.63C125.66666666666667,110.63,128.08333333333334,110.63,130.5,110.63C132.91666666666666,110.63,135.33333333333334,110.63,137.75,110.63C140.16666666666666,110.63,142.58333333333334,110.63,145,110.63C147.41666666666666,110.63,149.83333333333334,110.63,152.25,110.63C154.66666666666666,110.63,157.08333333333334,110.63,159.5,110.63C161.91666666666666,110.63,164.33333333333334,110.63,166.75,110.63C169.16666666666666,110.63,171.58333333333334,110.63,174,110.63C176.41666666666666,110.63,178.83333333333334,110.63,181.25,110.63C183.66666666666666,110.63,186.08333333333334,110.63,188.5,110.63C190.91666666666666,110.63,193.33333333333334,110.63,195.75,110.63C198.16666666666669,110.63,200.58333333333334,110.63,203.00000000000003,110.63C205.41666666666669,110.63,207.83333333333331,110.63,210.24999999999997,110.63C212.66666666666666,110.63,215.08333333333331,110.63,217.5,110.63C219.91666666666666,110.63,222.33333333333334,110.63,224.75,110.63C227.16666666666666,110.63,229.58333333333334,110.63,232,110.63C234.41666666666666,110.63,236.83333333333334,110.63,239.25,110.63C241.66666666666669,110.63,244.08333333333334,110.63,246.50000000000003,110.63C248.91666666666669,110.63,251.33333333333331,110.63,253.74999999999997,110.63C256.16666666666663,110.63,258.5833333333333,110.63,261,110.63C263.4166666666667,110.63,265.8333333333333,110.63,268.25,110.63C270.6666666666667,110.63,273.0833333333333,110.63,275.5,110.63C277.9166666666667,110.63,280.3333333333333,110.63,282.75,110.63C285.1666666666667,110.63,287.5833333333333,110.63,290,110.63C292.4166666666667,110.63,294.8333333333333,110.63,297.25,110.63C299.6666666666667,110.63,302.0833333333333,110.63,304.5,110.63C306.9166666666667,110.63,309.3333333333333,110.63,311.75,110.63C314.1666666666667,110.63,316.5833333333333,110.63,319,110.63C321.4166666666667,110.63,323.8333333333333,110.63,326.25,110.63C328.6666666666667,110.63,331.0833333333333,110.63,333.5,110.63C335.9166666666667,110.63,338.3333333333333,110.63,340.75,110.63C343.1666666666667,110.63,345.5833333333333,110.63,348,110.63C350.4166666666667,110.63,352.8333333333333,110.63,355.25,110.63C357.6666666666667,110.63,360.0833333333333,110.63,362.5,110.63C364.9166666666667,110.63,367.3333333333333,110.63,369.75,110.63C372.1666666666667,110.63,374.5833333333333,110.63,377,110.63C379.4166666666667,110.63,381.8333333333333,110.63,384.25,110.63C386.6666666666667,110.63,389.0833333333333,110.63,391.5,110.63C393.9166666666667,110.63,396.33333333333337,110.63,398.75000000000006,110.63C401.16666666666674,110.63,403.58333333333337,110.63,406.00000000000006,110.63C408.4166666666667,110.63,410.8333333333333,110.63,413.24999999999994,110.63C415.66666666666663,110.63,418.08333333333326,110.63,420.49999999999994,110.63C422.91666666666663,110.63,425.3333333333333,110.63,427.75,110.63C430.1666666666667,110.63,432.5833333333333,110.63,435,110.63C437.4166666666667,110.63,439.8333333333333,110.63,442.25,110.63C444.6666666666667,110.63,447.0833333333333,110.63,449.5,110.63C451.9166666666667,110.63,454.3333333333333,110.63,456.75,110.63C459.1666666666667,110.63,461.5833333333333,110.63,464,110.63C466.4166666666667,110.63,468.8333333333333,110.63,471.25,110.63C473.6666666666667,110.63,476.0833333333333,110.63,478.5,110.63C480.9166666666667,110.63,483.33333333333337,110.63,485.75000000000006,110.63C488.16666666666674,110.63,490.58333333333337,110.63,493.00000000000006,110.63C495.4166666666667,110.63,497.8333333333333,110.63,500.24999999999994,110.63C502.66666666666663,110.63,505.08333333333326,110.63,507.49999999999994,110.63C509.91666666666663,110.63,512.3333333333333,110.63,514.75,110.63C517.1666666666666,110.63,519.5833333333334,110.63,522,110.63C524.4166666666666,110.63,526.8333333333334,110.63,529.25,110.63C531.6666666666666,110.63,534.0833333333334,110.63,536.5,110.63C538.9166666666666,110.63,541.3333333333334,110.63,543.75,110.63C546.1666666666666,110.63,548.5833333333334,110.63,551,110.63C553.4166666666666,110.63,555.8333333333334,110.63,558.25,110.63C560.6666666666666,110.63,563.0833333333334,110.63,565.5,110.63C567.9166666666666,110.63,570.3333333333334,110.63,572.75,110.63C575.1666666666666,110.63,577.5833333333334,110.63,580,110.63C582.4166666666666,110.63,584.8333333333334,110.63,587.25,110.63C589.6666666666666,110.63,592.0833333333334,110.63,594.5,110.63C596.9166666666666,110.63,599.3333333333334,110.63,601.75,110.63C604.1666666666666,110.63,606.5833333333334,110.63,609,110.63C611.4166666666666,110.63,613.8333333333334,110.63,616.25,110.63C618.6666666666666,110.63,621.0833333333334,110.63,623.5,110.63C625.9166666666666,110.63,628.3333333333334,110.63,630.75,110.63C633.1666666666666,110.63,635.5833333333334,110.63,638,110.63C640.4166666666666,110.63,642.8333333333334,110.63,645.25,110.63C647.6666666666666,110.63,650.0833333333334,110.63,652.5,110.63C654.9166666666666,110.63,657.3333333333334,110.63,659.75,110.63C662.1666666666666,110.63,664.5833333333334,110.63,667,110.63C669.4166666666666,110.63,671.8333333333334,110.63,674.25,110.63C676.6666666666666,110.63,679.0833333333334,110.63,681.5,110.63C683.9166666666666,110.63,686.3333333333334,110.63,688.75,110.63C691.1666666666666,110.63,693.5833333333334,110.63,696,110.63C698.4166666666666,110.63,700.8333333333334,110.63,703.25,110.63C705.6666666666666,110.63,708.0833333333334,110.63,710.5,110.63C712.9166666666666,110.63,715.3333333333334,110.63,717.75,110.63C720.1666666666666,110.63,722.5833333333334,110.63,725,110.63C727.4166666666666,110.63,729.8333333333334,110.63,732.25,110.63C734.6666666666666,110.63,737.0833333333334,110.63,739.5,110.63C741.9166666666666,110.63,744.3333333333334,110.63,746.75,110.63C749.1666666666666,110.63,751.5833333333334,110.63,754,110.63C756.4166666666666,110.63,758.8333333333334,110.63,761.25,110.63C763.6666666666666,110.63,766.0833333333334,110.63,768.5,110.63C770.9166666666666,110.63,773.3333333333334,110.63,775.75,110.63C778.1666666666666,110.63,780.5833333333334,110.63,783,110.63C785.4166666666667,110.63,787.8333333333334,110.63,790.2500000000001,110.63C792.6666666666667,110.63,795.0833333333335,110.63,797.5000000000001,110.63C799.9166666666667,110.63,802.3333333333335,110.63,804.7500000000001,110.63C807.1666666666667,110.63,809.5833333333335,110.63,812.0000000000001,110.63C814.4166666666667,110.63,816.8333333333333,110.63,819.2499999999999,110.63C821.6666666666665,110.63,824.0833333333333,110.63,826.4999999999999,110.63C828.9166666666665,110.63,831.3333333333333,110.63,833.7499999999999,110.63C836.1666666666665,110.63,838.5833333333333,110.63,840.9999999999999,110.63C843.4166666666666,110.63,845.8333333333333,110.63,848.25,110.63C850.6666666666666,110.63,853.0833333333334,110.63,855.5,110.63C857.9166666666666,110.63,860.3333333333334,110.63,862.75,110.63C865.1666666666666,110.63,867.5833333333334,110.63,870,110.63C872.4166666666666,110.63,874.8333333333334,110.63,877.25,110.63C879.6666666666666,110.63,882.0833333333334,110.63,884.5,110.63C886.9166666666666,110.63,889.3333333333334,110.63,891.75,110.63C894.1666666666666,110.63,896.5833333333334,110.63,899,110.63C901.4166666666666,110.63,903.8333333333334,110.63,906.25,110.63C908.6666666666666,110.63,911.0833333333334,110.63,913.5,110.63C915.9166666666666,110.63,918.3333333333334,110.63,920.75,110.63C923.1666666666666,110.63,925.5833333333334,110.63,928,110.63C930.4166666666666,110.63,932.8333333333334,110.63,935.25,110.63C937.6666666666666,110.63,940.0833333333334,110.63,942.5,110.63C944.9166666666666,110.63,947.3333333333334,110.63,949.75,110.63C952.1666666666666,110.63,954.5833333333334,110.63,957,110.63C959.4166666666666,110.63,961.8333333333334,110.63,964.25,110.63C966.6666666666667,110.63,969.0833333333334,110.63,971.5000000000001,110.63C973.9166666666667,110.63,976.3333333333335,110.63,978.7500000000001,110.63C981.1666666666667,110.63,983.5833333333335,110.63,986.0000000000001,110.63C988.4166666666667,110.63,990.8333333333335,110.63,993.2500000000001,110.63C995.6666666666667,110.63,998.0833333333333,110.63,1000.4999999999999,110.63C1002.9166666666665,110.63,1005.3333333333333,110.63,1007.7499999999999,110.63C1010.1666666666665,110.63,1012.5833333333333,110.63,1014.9999999999999,110.63C1017.4166666666665,110.63,1019.8333333333333,110.63,1022.2499999999999,110.63C1024.6666666666665,110.63,1027.0833333333333,110.63,1029.5,110.63C1031.9166666666667,110.63,1034.3333333333333,110.63,1036.75,110.63C1039.1666666666667,110.63,1041.5833333333333,110.63,1044,110.63C1046.4166666666667,110.63,1048.8333333333333,110.63,1051.25,110.63C1053.6666666666667,110.63,1056.0833333333333,110.63,1058.5,110.63C1060.9166666666667,110.63,1063.3333333333333,110.63,1065.75,110.63C1068.1666666666667,110.63,1070.5833333333333,110.63,1073,110.63C1075.4166666666667,110.63,1077.8333333333333,110.63,1080.25,110.63C1082.6666666666667,110.63,1085.0833333333333,110.63,1087.5,110.63C1089.9166666666667,110.63,1092.3333333333333,110.63,1094.75,110.63C1097.1666666666667,110.63,1099.5833333333333,110.63,1102,110.63C1104.4166666666667,110.63,1106.8333333333333,110.63,1109.25,110.63C1111.6666666666667,110.63,1114.0833333333333,110.63,1116.5,110.63C1118.9166666666667,110.63,1121.3333333333333,110.63,1123.75,110.63C1126.1666666666667,110.63,1128.5833333333333,110.63,1131,110.63C1133.4166666666667,110.63,1135.8333333333333,110.63,1138.25,110.63C1140.6666666666667,110.63,1143.0833333333333,110.63,1145.5,110.63C1147.9166666666667,110.63,1150.3333333333333,110.63,1152.75,110.63C1155.1666666666667,110.63,1157.5833333333333,110.63,1160,110.63C1162.4166666666667,110.63,1164.8333333333333,110.63,1167.25,110.63C1169.6666666666667,110.63,1172.0833333333333,110.63,1174.5,110.63C1176.9166666666667,110.63,1179.3333333333333,110.63,1181.75,110.63C1184.1666666666667,110.63,1186.5833333333333,110.63,1189,110.63C1191.4166666666667,110.63,1193.8333333333333,110.63,1196.25,110.63C1198.6666666666667,110.63,1201.0833333333333,110.63,1203.5,110.63C1205.9166666666667,110.63,1208.3333333333333,110.63,1210.75,110.63C1213.1666666666667,110.63,1215.5833333333333,110.63,1218,110.63C1220.4166666666667,110.63,1222.8333333333333,110.63,1225.25,110.63C1227.6666666666667,110.63,1230.0833333333333,110.63,1232.5,110.63C1234.9166666666667,110.63,1237.3333333333333,110.63,1239.75,110.63C1242.1666666666667,110.63,1244.5833333333333,110.63,1247,110.63C1249.4166666666667,110.63,1251.8333333333333,110.63,1254.25,110.63C1256.6666666666667,110.63,1259.0833333333333,110.63,1261.5,110.63C1263.9166666666667,110.63,1266.3333333333333,110.63,1268.75,110.63C1271.1666666666667,110.63,1273.5833333333333,110.63,1276,110.63C1278.4166666666667,110.63,1280.8333333333333,110.63,1283.25,110.63C1285.6666666666667,110.63,1288.0833333333333,110.63,1290.5,110.63C1292.9166666666667,110.63,1295.3333333333333,110.63,1297.75,110.63C1300.1666666666667,110.63,1302.5833333333333,110.63,1305,110.63C1307.4166666666667,110.63,1309.8333333333333,110.63,1312.25,110.63C1314.6666666666667,110.63,1317.0833333333333,110.63,1319.5,110.63C1321.9166666666667,110.63,1324.3333333333333,110.63,1326.75,110.63C1329.1666666666667,110.63,1331.5833333333333,110.63,1334,110.63C1336.4166666666667,110.63,1338.8333333333333,110.63,1341.25,110.63C1343.6666666666667,110.63,1346.0833333333333,110.63,1348.5,110.63C1350.9166666666667,110.63,1353.3333333333333,110.63,1355.75,110.63C1358.1666666666667,110.63,1360.5833333333333,110.63,1363,110.63C1365.4166666666667,110.63,1367.8333333333333,110.63,1370.25,110.63C1372.6666666666667,110.63,1375.0833333333333,110.63,1377.5,110.63C1379.9166666666667,110.63,1382.3333333333333,110.63,1384.75,110.63C1387.1666666666667,110.63,1389.5833333333333,110.63,1392,110.63C1394.4166666666667,110.63,1396.8333333333333,110.63,1399.25,110.63C1401.6666666666667,110.63,1404.0833333333333,110.63,1406.5,110.63C1408.9166666666667,110.63,1411.3333333333333,110.63,1413.75,110.63C1416.1666666666667,110.63,1418.5833333333333,110.63,1421,110.63C1423.4166666666667,110.63,1425.8333333333333,110.63,1428.25,110.63C1430.6666666666667,110.63,1433.0833333333333,110.63,1435.5,110.63C1437.9166666666667,110.63,1440.3333333333333,110.63,1442.75,110.63C1445.1666666666667,110.63,1447.5833333333333,110.63,1450,110.63" fill="transparent" stroke-linecap="round" stroke="#E7C6DF" stroke-width="2"></path><g class="visx-group visx-axis visx-axis-bottom" transform="translate(0, 115)"><g class="visx-group visx-axis-tick" transform="translate(0, 0)"><line class="visx-line" x1="0" y1="0" x2="0" y2="8" fill="transparent" shape-rendering="crispEdges" stroke="#000" stroke-width="0" stroke-linecap="square"></line><svg x="0" y="0" font-size="10" style="overflow:visible"><text transform="" x="0" y="18" fill="#000" font-size="10" text-anchor="middle"><tspan x="0" dy="0em">0%</tspan></text></svg></g><g class="visx-group visx-axis-tick" transform="translate(0, 0)"><line class="visx-line" x1="362.5" y1="0" x2="362.5" y2="8" fill="transparent" shape-rendering="crispEdges" stroke="#000" stroke-width="0" stroke-linecap="square"></line><svg x="0" y="0" font-size="10" style="overflow:visible"><text transform="" x="362.5" y="18" fill="#000" font-size="10" text-anchor="middle"><tspan x="362.5" dy="0em">25%</tspan></text></svg></g><g class="visx-group visx-axis-tick" transform="translate(0, 0)"><line class="visx-line" x1="725" y1="0" x2="725" y2="8" fill="transparent" shape-rendering="crispEdges" stroke="#000" stroke-width="0" stroke-linecap="square"></line><svg x="0" y="0" font-size="10" style="overflow:visible"><text transform="" x="725" y="18" fill="#000" font-size="10" text-anchor="middle"><tspan x="725" dy="0em">50%</tspan></text></svg></g><g class="visx-group visx-axis-tick" transform="translate(0, 0)"><line class="visx-line" x1="1087.5" y1="0" x2="1087.5" y2="8" fill="transparent" shape-rendering="crispEdges" stroke="#000" stroke-width="0" stroke-linecap="square"></line><svg x="0" y="0" font-size="10" style="overflow:visible"><text transform="" x="1087.5" y="18" fill="#000" font-size="10" text-anchor="middle"><tspan x="1087.5" dy="0em">75%</tspan></text></svg></g><g class="visx-group visx-axis-tick" transform="translate(0, 0)"><line class="visx-line" x1="1450" y1="0" x2="1450" y2="8" fill="transparent" shape-rendering="crispEdges" stroke="#000" stroke-width="0" stroke-linecap="square"></line><svg x="0" y="0" font-size="10" style="overflow:visible"><text transform="" x="1450" y="18" fill="#000" font-size="10" text-anchor="middle"><tspan x="1450" dy="0em">100%</tspan></text></svg></g><line class="visx-line visx-axis-line" x1="0.5" y1="0" x2="1450.5" y2="0" fill="transparent" shape-rendering="crispEdges" stroke="#222" stroke-width="0"></line></g><g class="visx-group visx-axis visx-axis-left" transform="translate(0, 0)"><g class="visx-group visx-axis-tick" transform="translate(0, 0)"><line class="visx-line" x1="0" y1="115" x2="-8" y2="115" fill="transparent" shape-rendering="crispEdges" stroke="#222" stroke-width="0" stroke-linecap="square"></line><svg x="-30" y="0" font-size="8" style="overflow:visible"><text transform="" x="-8" y="115" fill="#000" font-size="8" text-anchor="start"><tspan x="-8" dy="0em">0%</tspan></text></svg></g><g class="visx-group visx-axis-tick" transform="translate(0, 0)"><line class="visx-line" x1="0" y1="57.5" x2="-8" y2="57.5" fill="transparent" shape-rendering="crispEdges" stroke="#222" stroke-width="0" stroke-linecap="square"></line><svg x="-30" y="0" font-size="8" style="overflow:visible"><text transform="" x="-8" y="57.5" fill="#000" font-size="8" text-anchor="start"><tspan x="-8" dy="0em">50%</tspan></text></svg></g><g class="visx-group visx-axis-tick" transform="translate(0, 0)"><line class="visx-line" x1="0" y1="0" x2="-8" y2="0" fill="transparent" shape-rendering="crispEdges" stroke="#222" stroke-width="0" stroke-linecap="square"></line><svg x="-30" y="0" font-size="8" style="overflow:visible"><text transform="" x="-8" y="0" fill="#000" font-size="8" text-anchor="start"><tspan x="-8" dy="0em">100%</tspan></text></svg></g><line class="visx-line visx-axis-line" x1="0" y1="115.5" x2="0" y2="0.5" fill="transparent" shape-rendering="crispEdges" stroke="#222" stroke-width="0"></line></g><rect class="visx-bar" width="1450" height="115" fill="transparent"></rect><line class="visx-line" x1="1305" y1="28" x2="1305" y2="115" fill="transparent" shape-rendering="crispEdges" stroke="#0062D2" stroke-width="1" pointer-events="none" stroke-dasharray="5,2"></line><svg x="0" y="0" font-size="10px" style="overflow:visible"><text transform="" x="1305" y="20" font-size="10px" fill="#fff" stroke="#fff" stroke-width="0.8em" text-anchor="middle"><tspan x="1305" dy="0.355em">Optimal 90%</tspan></text></svg><svg x="0" y="0" font-size="10px" style="overflow:visible"><text transform="" x="1305" y="20" font-size="10px" fill="#62677B" text-anchor="middle"><tspan x="1305" dy="0.355em">Optimal 90%</tspan></text></svg></g></svg>