<?xml version="1.0"?><svg xmlns="http://www.w3.org/2000/svg" xmlns:xlink= "http://www.w3.org/1999/xlink" style="background: white;" width="1500" height="185"> <g style="color: black; font-size: 13px; font-family: sans-serif; transform: translate(18px, 25px);"><g><circle r="3" cx="-6" cy="-5" style="fill: #B6509E" /><text>Borrow APR, variable</text></g><g style="transform: translateX(150px);"><circle r="3" cx="-6" cy="-5" style="fill: rgb(231, 198, 223)" /><text>Borrow APR, stable</text></g><g style="transform: translateX(290px);"><circle r="3" cx="-6" cy="-5" style="fill: rgb(0, 98, 210)" /><text>Utilization Rate</text></g></g><g class="visx-group" transform="translate(40, 50)"><g class="visx-group visx-rows" transform="translate(0, 0)"><line class="visx-line" x1="0" y1="115" x2="1450" y2="115" fill="transparent" shape-rendering="crispEdges" stroke="#000" stroke-width="1" stroke-dasharray="3,3" pointer-events="none"></line><line class="visx-line" x1="0" y1="82.14285714285714" x2="1450" y2="82.14285714285714" fill="transparent" shape-rendering="crispEdges" stroke="#000" stroke-width="1" stroke-dasharray="3,3" pointer-events="none"></line><line class="visx-line" x1="0" y1="49.28571428571429" x2="1450" y2="49.28571428571429" fill="transparent" shape-rendering="crispEdges" stroke="#000" stroke-width="1" stroke-dasharray="3,3" pointer-events="none"></line><line class="visx-line" x1="0" y1="16.428571428571434" x2="1450" y2="16.428571428571434" fill="transparent" shape-rendering="crispEdges" stroke="#000" stroke-width="1" stroke-dasharray="3,3" pointer-events="none"></line></g><path class="visx-linepath" d="M0,114.99999999998904C2.4166666666666665,114.99817460316821,4.833333333333334,114.99634920634739,7.25,114.99452380952381C9.666666666666666,114.99269841270024,12.083333333333334,114.990873015873,14.5,114.98904761904761C16.916666666666668,114.98722222222221,19.333333333333332,114.98539682539683,21.75,114.98357142857144C24.166666666666668,114.98174603174604,26.583333333333332,114.97992063492063,29,114.97809523809524C31.416666666666668,114.97626984126984,33.833333333333336,114.97444444444444,36.25,114.97261904761905C38.666666666666664,114.97079365079365,41.083333333333336,114.96896825396824,43.5,114.96714285714285C45.91666666666667,114.96531746031745,48.333333333333336,114.96349206349207,50.75000000000001,114.96166666666667C53.16666666666667,114.95984126984128,55.583333333333336,114.95801587301587,58,114.95619047619047C60.416666666666664,114.95436507936508,62.833333333333336,114.95253968253968,65.25,114.95071428571428C67.66666666666667,114.94888888888889,70.08333333333333,114.94706349206349,72.5,114.9452380952381C74.91666666666667,114.9434126984127,77.33333333333333,114.9415873015873,79.75,114.93976190476191C82.16666666666667,114.93793650793651,84.58333333333333,114.93611111111112,87,114.93428571428572C89.41666666666667,114.93246031746033,91.83333333333333,114.93063492063492,94.25,114.92880952380952C96.66666666666667,114.92698412698412,99.08333333333334,114.92515873015873,101.50000000000001,114.92333333333333C103.91666666666667,114.92150793650794,106.33333333333334,114.91968253968254,108.75,114.91785714285714C111.16666666666667,114.91603174603175,113.58333333333333,114.91420634920635,116,114.91238095238096C118.41666666666667,114.91055555555556,120.83333333333334,114.90873015873015,123.25000000000001,114.90690476190476C125.66666666666667,114.90507936507936,128.08333333333334,114.90325396825396,130.5,114.90142857142857C132.91666666666666,114.89960317460317,135.33333333333334,114.89777777777778,137.75,114.89595238095238C140.16666666666666,114.89412698412698,142.58333333333334,114.89230158730159,145,114.89047619047619C147.41666666666666,114.8886507936508,149.83333333333334,114.8868253968254,152.25,114.885C154.66666666666666,114.88317460317461,157.08333333333334,114.8813492063492,159.5,114.8795238095238C161.91666666666666,114.87769841269841,164.33333333333334,114.87587301587301,166.75,114.87404761904762C169.16666666666666,114.87222222222222,171.58333333333334,114.87039682539682,174,114.86857142857143C176.41666666666666,114.86674603174603,178.83333333333334,114.86492063492064,181.25,114.86309523809524C183.66666666666666,114.86126984126984,186.08333333333334,114.85944444444443,188.5,114.85761904761904C190.91666666666666,114.85579365079364,193.33333333333334,114.85396825396825,195.75,114.85214285714285C198.16666666666669,114.85031746031746,200.58333333333334,114.84849206349206,203.00000000000003,114.84666666666666C205.41666666666669,114.84484126984127,207.83333333333331,114.84301587301587,210.24999999999997,114.84119047619048C212.66666666666666,114.83936507936508,215.08333333333331,114.83753968253968,217.5,114.83571428571429C219.91666666666666,114.8338888888889,222.33333333333334,114.83206349206348,224.75,114.83023809523809C227.16666666666666,114.82841269841269,229.58333333333334,114.82658730158731,232,114.82476190476191C234.41666666666666,114.82293650793652,236.83333333333334,114.82111111111111,239.25,114.81928571428571C241.66666666666669,114.81746031746032,244.08333333333334,114.81563492063492,246.50000000000003,114.81380952380952C248.91666666666669,114.81198412698413,251.33333333333331,114.81015873015872,253.74999999999997,114.80833333333332C256.16666666666663,114.80650793650793,258.5833333333333,114.80468253968255,261,114.80285714285715C263.4166666666667,114.80103174603175,265.8333333333333,114.79920634920634,268.25,114.79738095238095C270.6666666666667,114.79555555555555,273.0833333333333,114.79373015873016,275.5,114.79190476190476C277.9166666666667,114.79007936507936,280.3333333333333,114.78825396825397,282.75,114.78642857142857C285.1666666666667,114.78460317460318,287.5833333333333,114.78277777777778,290,114.78095238095239C292.4166666666667,114.77912698412699,294.8333333333333,114.7773015873016,297.25,114.7754761904762C299.6666666666667,114.7736507936508,302.0833333333333,114.77182539682539,304.5,114.77C306.9166666666667,114.7681746031746,309.3333333333333,114.7663492063492,311.75,114.76452380952381C314.1666666666667,114.76269841269841,316.5833333333333,114.760873015873,319,114.7590476190476C321.4166666666667,114.75722222222221,323.8333333333333,114.75539682539683,326.25,114.75357142857143C328.6666666666667,114.75174603174604,331.0833333333333,114.74992063492063,333.5,114.74809523809523C335.9166666666667,114.74626984126984,338.3333333333333,114.74444444444444,340.75,114.74261904761904C343.1666666666667,114.74079365079365,345.5833333333333,114.73896825396825,348,114.73714285714286C350.4166666666667,114.73531746031746,352.8333333333333,114.73349206349206,355.25,114.73166666666667C357.6666666666667,114.72984126984127,360.0833333333333,114.72801587301588,362.5,114.72619047619048C364.9166666666667,114.72436507936509,367.3333333333333,114.72253968253968,369.75,114.72071428571428C372.1666666666667,114.71888888888888,374.5833333333333,114.71706349206349,377,114.71523809523809C379.4166666666667,114.7134126984127,381.8333333333333,114.7115873015873,384.25,114.7097619047619C386.6666666666667,114.70793650793651,389.0833333333333,114.70611111111111,391.5,114.70428571428572C393.9166666666667,114.70246031746032,396.33333333333337,114.70063492063491,398.75000000000006,114.69880952380952C401.16666666666674,114.69698412698412,403.58333333333337,114.69515873015872,406.00000000000006,114.69333333333333C408.4166666666667,114.69150793650793,410.8333333333333,114.68968253968255,413.24999999999994,114.68785714285715C415.66666666666663,114.68603174603176,418.08333333333326,114.68420634920635,420.49999999999994,114.68238095238095C422.91666666666663,114.68055555555556,425.3333333333333,114.67873015873016,427.75,114.67690476190477C430.1666666666667,114.67507936507937,432.5833333333333,114.67325396825396,435,114.67142857142856C437.4166666666667,114.66960317460317,439.8333333333333,114.66777777777779,442.25,114.66595238095239C444.6666666666667,114.664126984127,447.0833333333333,114.66230158730158,449.5,114.66047619047619C451.9166666666667,114.65865079365079,454.3333333333333,114.6568253968254,456.75,114.655C459.1666666666667,114.6531746031746,461.5833333333333,114.6513492063492,464,114.6495238095238C466.4166666666667,114.6476984126984,468.8333333333333,114.64587301587301,471.25,114.64404761904761C473.6666666666667,114.64222222222222,476.0833333333333,114.64039682539683,478.5,114.63857142857144C480.9166666666667,114.63674603174604,483.33333333333337,114.63492063492063,485.75000000000006,114.63309523809524C488.16666666666674,114.63126984126984,490.58333333333337,114.62944444444445,493.00000000000006,114.62761904761905C495.4166666666667,114.62579365079365,497.8333333333333,114.62396825396824,500.24999999999994,114.62214285714285C502.66666666666663,114.62031746031745,505.08333333333326,114.61849206349207,507.49999999999994,114.61666666666667C509.91666666666663,114.61484126984128,512.3333333333333,114.61301587301587,514.75,114.61119047619047C517.1666666666666,114.60936507936508,519.5833333333334,114.60753968253968,522,114.60571428571428C524.4166666666666,114.60388888888889,526.8333333333334,114.60206349206348,529.25,114.60023809523808C531.6666666666666,114.59841269841269,534.0833333333334,114.5965873015873,536.5,114.59476190476191C538.9166666666666,114.59293650793651,541.3333333333334,114.59111111111112,543.75,114.58928571428572C546.1666666666666,114.58746031746033,548.5833333333334,114.58563492063492,551,114.58380952380952C553.4166666666666,114.58198412698412,555.8333333333334,114.58015873015873,558.25,114.57833333333333C560.6666666666666,114.57650793650794,563.0833333333334,114.57468253968254,565.5,114.57285714285715C567.9166666666666,114.57103174603175,570.3333333333334,114.56920634920635,572.75,114.56738095238096C575.1666666666666,114.56555555555556,577.5833333333334,114.56373015873015,580,114.56190476190476C582.4166666666666,114.56007936507936,584.8333333333334,114.55825396825396,587.25,114.55642857142857C589.6666666666666,114.55460317460317,592.0833333333334,114.55277777777778,594.5,114.55095238095238C596.9166666666666,114.54912698412699,599.3333333333334,114.54730158730159,601.75,114.5454761904762C604.1666666666666,114.5436507936508,606.5833333333334,114.5418253968254,609,114.54C611.4166666666666,114.53817460317461,613.8333333333334,114.5363492063492,616.25,114.5345238095238C618.6666666666666,114.53269841269841,621.0833333333334,114.53087301587303,623.5,114.52904761904763C625.9166666666666,114.52722222222224,628.3333333333334,114.52539682539683,630.75,114.52357142857143C633.1666666666666,114.52174603174603,635.5833333333334,114.51992063492064,638,114.51809523809524C640.4166666666666,114.51626984126985,642.8333333333334,114.51444444444444,645.25,114.51261904761904C647.6666666666666,114.51079365079364,650.0833333333334,114.50896825396825,652.5,114.50714285714285C654.9166666666666,114.50531746031746,657.3333333333334,114.50349206349206,659.75,114.50166666666667C662.1666666666666,114.49984126984127,664.5833333333334,114.49801587301587,667,114.49619047619048C669.4166666666666,114.49436507936508,671.8333333333334,114.49253968253969,674.25,114.49071428571429C676.6666666666666,114.4888888888889,679.0833333333334,114.48706349206348,681.5,114.48523809523809C683.9166666666666,114.48341269841269,686.3333333333334,114.48158730158731,688.75,114.47976190476192C691.1666666666666,114.47793650793652,693.5833333333334,114.47611111111111,696,114.47428571428571C698.4166666666666,114.47246031746032,700.8333333333334,114.47063492063492,703.25,114.46880952380953C705.6666666666666,114.46698412698413,708.0833333333334,114.46515873015872,710.5,114.46333333333332C712.9166666666666,114.46150793650793,715.3333333333334,114.45968253968255,717.75,114.45785714285715C720.1666666666666,114.45603174603175,722.5833333333334,114.45420634920634,725,114.45238095238095C727.4166666666666,114.45055555555555,729.8333333333334,114.44873015873016,732.25,114.44690476190476C734.6666666666666,114.44507936507937,737.0833333333334,114.44325396825397,739.5,114.44142857142857C741.9166666666666,114.43960317460318,744.3333333333334,114.43777777777778,746.75,114.43595238095239C749.1666666666666,114.43412698412699,751.5833333333334,114.4323015873016,754,114.4304761904762C756.4166666666666,114.4286507936508,758.8333333333334,114.4268253968254,761.25,114.425C763.6666666666666,114.4231746031746,766.0833333333334,114.4213492063492,768.5,114.41952380952381C770.9166666666666,114.41769841269841,773.3333333333334,114.41587301587302,775.75,114.41404761904762C778.1666666666666,114.41222222222223,780.5833333333334,114.41039682539683,783,114.40857142857143C785.4166666666667,114.40674603174604,787.8333333333334,114.40492063492063,790.2500000000001,114.40309523809523C792.6666666666667,114.40126984126984,795.0833333333335,114.39944444444444,797.5000000000001,114.39761904761905C799.9166666666667,114.39579365079365,802.3333333333335,114.39396825396825,804.7500000000001,114.39214285714286C807.1666666666667,114.39031746031746,809.5833333333335,114.38849206349207,812.0000000000001,114.38666666666667C814.4166666666667,114.38484126984127,816.8333333333333,114.38301587301588,819.2499999999999,114.38119047619048C821.6666666666665,114.37936507936509,824.0833333333333,114.37753968253968,826.4999999999999,114.37571428571428C828.9166666666665,114.37388888888889,831.3333333333333,114.37206349206349,833.7499999999999,114.3702380952381C836.1666666666665,114.3684126984127,838.5833333333333,114.3665873015873,840.9999999999999,114.3647619047619C843.4166666666666,114.36293650793651,845.8333333333333,114.36111111111111,848.25,114.35928571428572C850.6666666666666,114.35746031746032,853.0833333333334,114.35563492063491,855.5,114.35380952380952C857.9166666666666,114.35198412698412,860.3333333333334,114.35015873015873,862.75,114.34833333333333C865.1666666666666,114.34650793650793,867.5833333333334,114.34650793650793,870,114.34285714285714C872.4166666666666,114.33920634920635,874.8333333333334,113.52142857142856,877.25,113.11071428571428C879.6666666666666,112.7,882.0833333333334,112.28928571428571,884.5,111.87857142857143C886.9166666666666,111.46785714285716,889.3333333333334,111.05714285714286,891.75,110.64642857142857C894.1666666666666,110.23571428571428,896.5833333333334,109.82499999999999,899,109.41428571428571C901.4166666666666,109.00357142857143,903.8333333333334,108.59285714285716,906.25,108.18214285714286C908.6666666666666,107.77142857142857,911.0833333333334,107.36071428571428,913.5,106.94999999999999C915.9166666666666,106.5392857142857,918.3333333333334,106.12857142857142,920.75,105.71785714285714C923.1666666666666,105.30714285714286,925.5833333333334,104.89642857142856,928,104.48571428571428C930.4166666666666,104.075,932.8333333333334,103.66428571428571,935.25,103.25357142857143C937.6666666666666,102.84285714285716,940.0833333333334,102.43214285714286,942.5,102.02142857142857C944.9166666666666,101.61071428571428,947.3333333333334,101.2,949.75,100.78928571428571C952.1666666666666,100.37857142857142,954.5833333333334,99.96785714285713,957,99.55714285714285C959.4166666666666,99.14642857142857,961.8333333333334,98.73571428571428,964.25,98.325C966.6666666666667,97.91428571428571,969.0833333333334,97.50357142857143,971.5000000000001,97.09285714285714C973.9166666666667,96.68214285714286,976.3333333333335,96.27142857142857,978.7500000000001,95.8607142857143C981.1666666666667,95.45000000000002,983.5833333333335,95.03928571428573,986.0000000000001,94.62857142857143C988.4166666666667,94.21785714285714,990.8333333333335,93.80714285714286,993.2500000000001,93.39642857142857C995.6666666666667,92.9857142857143,998.0833333333333,92.57499999999999,1000.4999999999999,92.16428571428571C1002.9166666666665,91.75357142857142,1005.3333333333333,91.34285714285713,1007.7499999999999,90.93214285714285C1010.1666666666665,90.52142857142857,1012.5833333333333,90.11071428571428,1014.9999999999999,89.7C1017.4166666666665,89.28928571428573,1019.8333333333333,88.87857142857143,1022.2499999999999,88.46785714285716C1024.6666666666665,88.05714285714286,1027.0833333333333,87.64642857142857,1029.5,87.23571428571428C1031.9166666666667,86.82499999999999,1034.3333333333333,86.4142857142857,1036.75,86.00357142857142C1039.1666666666667,85.59285714285714,1041.5833333333333,85.18214285714285,1044,84.77142857142857C1046.4166666666667,84.3607142857143,1048.8333333333333,83.94999999999999,1051.25,83.53928571428571C1053.6666666666667,83.12857142857143,1056.0833333333333,82.71785714285714,1058.5,82.30714285714286C1060.9166666666667,81.89642857142859,1063.3333333333333,81.4857142857143,1065.75,81.075C1068.1666666666667,80.66428571428571,1070.5833333333333,80.25357142857143,1073,79.84285714285714C1075.4166666666667,79.43214285714285,1077.8333333333333,79.02142857142857,1080.25,78.61071428571428C1082.6666666666667,78.19999999999999,1085.0833333333333,77.7892857142857,1087.5,77.37857142857142C1089.9166666666667,76.96785714285714,1092.3333333333333,76.55714285714285,1094.75,76.14642857142857C1097.1666666666667,75.7357142857143,1099.5833333333333,75.325,1102,74.91428571428573C1104.4166666666667,74.50357142857145,1106.8333333333333,74.09285714285716,1109.25,73.68214285714286C1111.6666666666667,73.27142857142857,1114.0833333333333,72.8607142857143,1116.5,72.45C1118.9166666666667,72.03928571428571,1121.3333333333333,71.62857142857143,1123.75,71.21785714285714C1126.1666666666667,70.80714285714285,1128.5833333333333,70.39642857142856,1131,69.98571428571428C1133.4166666666667,69.575,1135.8333333333333,69.16428571428571,1138.25,68.75357142857143C1140.6666666666667,68.34285714285716,1143.0833333333333,67.93214285714286,1145.5,67.52142857142857C1147.9166666666667,67.11071428571428,1150.3333333333333,66.69999999999999,1152.75,66.28928571428571C1155.1666666666667,65.87857142857143,1157.5833333333333,65.46785714285716,1160,65.05714285714286C1162.4166666666667,64.64642857142857,1164.8333333333333,64.23571428571428,1167.25,63.824999999999996C1169.6666666666667,63.41428571428571,1172.0833333333333,63.003571428571426,1174.5,62.59285714285714C1176.9166666666667,62.18214285714286,1179.3333333333333,61.77142857142857,1181.75,61.36071428571429C1184.1666666666667,60.95,1186.5833333333333,60.53928571428572,1189,60.12857142857143C1191.4166666666667,59.71785714285715,1193.8333333333333,59.30714285714286,1196.25,58.89642857142857C1198.6666666666667,58.48571428571429,1201.0833333333333,58.075,1203.5,57.66428571428572C1205.9166666666667,57.25357142857143,1208.3333333333333,56.84285714285715,1210.75,56.432142857142864C1213.1666666666667,56.02142857142858,1215.5833333333333,55.61071428571428,1218,55.199999999999996C1220.4166666666667,54.78928571428571,1222.8333333333333,54.378571428571426,1225.25,53.96785714285714C1227.6666666666667,53.55714285714286,1230.0833333333333,53.146428571428565,1232.5,52.73571428571428C1234.9166666666667,52.324999999999996,1237.3333333333333,51.91428571428571,1239.75,51.503571428571426C1242.1666666666667,51.09285714285714,1244.5833333333333,50.68214285714286,1247,50.27142857142857C1249.4166666666667,49.86071428571429,1251.8333333333333,49.45,1254.25,49.03928571428572C1256.6666666666667,48.62857142857143,1259.0833333333333,48.21785714285714,1261.5,47.80714285714286C1263.9166666666667,47.39642857142857,1266.3333333333333,46.98571428571429,1268.75,46.575C1271.1666666666667,46.16428571428572,1273.5833333333333,45.75357142857142,1276,45.342857142857135C1278.4166666666667,44.93214285714285,1280.8333333333333,44.52142857142856,1283.25,44.11071428571427C1285.6666666666667,43.69999999999999,1288.0833333333333,43.28928571428572,1290.5,42.87857142857143C1292.9166666666667,42.46785714285715,1295.3333333333333,42.05714285714285,1297.75,41.646428571428565C1300.1666666666667,41.23571428571428,1302.5833333333333,40.824999999999996,1305,40.41428571428571C1307.4166666666667,40.003571428571426,1309.8333333333333,39.59285714285715,1312.25,39.182142857142864C1314.6666666666667,38.77142857142858,1317.0833333333333,38.36071428571428,1319.5,37.949999999999996C1321.9166666666667,37.53928571428571,1324.3333333333333,37.12857142857144,1326.75,36.717857142857156C1329.1666666666667,36.30714285714287,1331.5833333333333,35.89642857142857,1334,35.48571428571429C1336.4166666666667,35.075,1338.8333333333333,34.66428571428571,1341.25,34.253571428571426C1343.6666666666667,33.84285714285714,1346.0833333333333,33.43214285714286,1348.5,33.02142857142857C1350.9166666666667,32.61071428571429,1353.3333333333333,32.199999999999996,1355.75,31.789285714285707C1358.1666666666667,31.37857142857142,1360.5833333333333,30.967857142857138,1363,30.557142857142853C1365.4166666666667,30.14642857142857,1367.8333333333333,29.735714285714284,1370.25,29.325C1372.6666666666667,28.914285714285715,1375.0833333333333,28.503571428571433,1377.5,28.09285714285715C1379.9166666666667,27.682142857142864,1382.3333333333333,27.271428571428565,1384.75,26.86071428571428C1387.1666666666667,26.449999999999996,1389.5833333333333,26.039285714285715,1392,25.62857142857143C1394.4166666666667,25.217857142857145,1396.8333333333333,24.807142857142864,1399.25,24.396428571428576C1401.6666666666667,23.985714285714288,1404.0833333333333,23.574999999999996,1406.5,23.16428571428571C1408.9166666666667,22.753571428571426,1411.3333333333333,22.34285714285714,1413.75,21.932142857142857C1416.1666666666667,21.521428571428572,1418.5833333333333,21.11071428571429,1421,20.700000000000006C1423.4166666666667,20.28928571428572,1425.8333333333333,19.878571428571426,1428.25,19.46785714285714C1430.6666666666667,19.057142857142857,1433.0833333333333,18.646428571428572,1435.5,18.235714285714288C1437.9166666666667,17.825000000000003,1440.3333333333333,17.414285714285718,1442.75,17.003571428571433C1445.1666666666667,16.59285714285715,1447.5833333333333,16.182142857142857,1450,15.771428571428569" fill="transparent" stroke-linecap="round" stroke="#B6509E" stroke-width="2"></path><path class="visx-linepath" d="M0,114.34285714285714C2.4166666666666665,114.34285714285714,4.833333333333334,114.34285714285714,7.25,114.34285714285714C9.666666666666666,114.34285714285714,12.083333333333334,114.34285714285714,14.5,114.34285714285714C16.916666666666668,114.34285714285714,19.333333333333332,114.34285714285714,21.75,114.34285714285714C24.166666666666668,114.34285714285714,26.583333333333332,114.34285714285714,29,114.34285714285714C31.416666666666668,114.34285714285714,33.833333333333336,114.34285714285714,36.25,114.34285714285714C38.666666666666664,114.34285714285714,41.083333333333336,114.34285714285714,43.5,114.34285714285714C45.91666666666667,114.34285714285714,48.333333333333336,114.34285714285714,50.75000000000001,114.34285714285714C53.16666666666667,114.34285714285714,55.583333333333336,114.34285714285714,58,114.34285714285714C60.416666666666664,114.34285714285714,62.833333333333336,114.34285714285714,65.25,114.34285714285714C67.66666666666667,114.34285714285714,70.08333333333333,114.34285714285714,72.5,114.34285714285714C74.91666666666667,114.34285714285714,77.33333333333333,114.34285714285714,79.75,114.34285714285714C82.16666666666667,114.34285714285714,84.58333333333333,114.34285714285714,87,114.34285714285714C89.41666666666667,114.34285714285714,91.83333333333333,114.34285714285714,94.25,114.34285714285714C96.66666666666667,114.34285714285714,99.08333333333334,114.34285714285714,101.50000000000001,114.34285714285714C103.91666666666667,114.34285714285714,106.33333333333334,114.34285714285714,108.75,114.34285714285714C111.16666666666667,114.34285714285714,113.58333333333333,114.34285714285714,116,114.34285714285714C118.41666666666667,114.34285714285714,120.83333333333334,114.34285714285714,123.25000000000001,114.34285714285714C125.66666666666667,114.34285714285714,128.08333333333334,114.34285714285714,130.5,114.34285714285714C132.91666666666666,114.34285714285714,135.33333333333334,114.34285714285714,137.75,114.34285714285714C140.16666666666666,114.34285714285714,142.58333333333334,114.34285714285714,145,114.34285714285714C147.41666666666666,114.34285714285714,149.83333333333334,114.34285714285714,152.25,114.34285714285714C154.66666666666666,114.34285714285714,157.08333333333334,114.34285714285714,159.5,114.34285714285714C161.91666666666666,114.34285714285714,164.33333333333334,114.34285714285714,166.75,114.34285714285714C169.16666666666666,114.34285714285714,171.58333333333334,114.34285714285714,174,114.34285714285714C176.41666666666666,114.34285714285714,178.83333333333334,114.34285714285714,181.25,114.34285714285714C183.66666666666666,114.34285714285714,186.08333333333334,114.34285714285714,188.5,114.34285714285714C190.91666666666666,114.34285714285714,193.33333333333334,114.34285714285714,195.75,114.34285714285714C198.16666666666669,114.34285714285714,200.58333333333334,114.34285714285714,203.00000000000003,114.34285714285714C205.41666666666669,114.34285714285714,207.83333333333331,114.34285714285714,210.24999999999997,114.34285714285714C212.66666666666666,114.34285714285714,215.08333333333331,114.34285714285714,217.5,114.34285714285714C219.91666666666666,114.34285714285714,222.33333333333334,114.34285714285714,224.75,114.34285714285714C227.16666666666666,114.34285714285714,229.58333333333334,114.34285714285714,232,114.34285714285714C234.41666666666666,114.34285714285714,236.83333333333334,114.34285714285714,239.25,114.34285714285714C241.66666666666669,114.34285714285714,244.08333333333334,114.34285714285714,246.50000000000003,114.34285714285714C248.91666666666669,114.34285714285714,251.33333333333331,114.34285714285714,253.74999999999997,114.34285714285714C256.16666666666663,114.34285714285714,258.5833333333333,114.34285714285714,261,114.34285714285714C263.4166666666667,114.34285714285714,265.8333333333333,114.34285714285714,268.25,114.34285714285714C270.6666666666667,114.34285714285714,273.0833333333333,114.34285714285714,275.5,114.34285714285714C277.9166666666667,114.34285714285714,280.3333333333333,114.34285714285714,282.75,114.34285714285714C285.1666666666667,114.34285714285714,287.5833333333333,114.34285714285714,290,114.34285714285714C292.4166666666667,114.34285714285714,294.8333333333333,114.34285714285714,297.25,114.34285714285714C299.6666666666667,114.34285714285714,302.0833333333333,114.34285714285714,304.5,114.34285714285714C306.9166666666667,114.34285714285714,309.3333333333333,114.34285714285714,311.75,114.34285714285714C314.1666666666667,114.34285714285714,316.5833333333333,114.34285714285714,319,114.34285714285714C321.4166666666667,114.34285714285714,323.8333333333333,114.34285714285714,326.25,114.34285714285714C328.6666666666667,114.34285714285714,331.0833333333333,114.34285714285714,333.5,114.34285714285714C335.9166666666667,114.34285714285714,338.3333333333333,114.34285714285714,340.75,114.34285714285714C343.1666666666667,114.34285714285714,345.5833333333333,114.34285714285714,348,114.34285714285714C350.4166666666667,114.34285714285714,352.8333333333333,114.34285714285714,355.25,114.34285714285714C357.6666666666667,114.34285714285714,360.0833333333333,114.34285714285714,362.5,114.34285714285714C364.9166666666667,114.34285714285714,367.3333333333333,114.34285714285714,369.75,114.34285714285714C372.1666666666667,114.34285714285714,374.5833333333333,114.34285714285714,377,114.34285714285714C379.4166666666667,114.34285714285714,381.8333333333333,114.34285714285714,384.25,114.34285714285714C386.6666666666667,114.34285714285714,389.0833333333333,114.34285714285714,391.5,114.34285714285714C393.9166666666667,114.34285714285714,396.33333333333337,114.34285714285714,398.75000000000006,114.34285714285714C401.16666666666674,114.34285714285714,403.58333333333337,114.34285714285714,406.00000000000006,114.34285714285714C408.4166666666667,114.34285714285714,410.8333333333333,114.34285714285714,413.24999999999994,114.34285714285714C415.66666666666663,114.34285714285714,418.08333333333326,114.34285714285714,420.49999999999994,114.34285714285714C422.91666666666663,114.34285714285714,425.3333333333333,114.34285714285714,427.75,114.34285714285714C430.1666666666667,114.34285714285714,432.5833333333333,114.34285714285714,435,114.34285714285714C437.4166666666667,114.34285714285714,439.8333333333333,114.34285714285714,442.25,114.34285714285714C444.6666666666667,114.34285714285714,447.0833333333333,114.34285714285714,449.5,114.34285714285714C451.9166666666667,114.34285714285714,454.3333333333333,114.34285714285714,456.75,114.34285714285714C459.1666666666667,114.34285714285714,461.5833333333333,114.34285714285714,464,114.34285714285714C466.4166666666667,114.34285714285714,468.8333333333333,114.34285714285714,471.25,114.34285714285714C473.6666666666667,114.34285714285714,476.0833333333333,114.34285714285714,478.5,114.34285714285714C480.9166666666667,114.34285714285714,483.33333333333337,114.34285714285714,485.75000000000006,114.34285714285714C488.16666666666674,114.34285714285714,490.58333333333337,114.34285714285714,493.00000000000006,114.34285714285714C495.4166666666667,114.34285714285714,497.8333333333333,114.34285714285714,500.24999999999994,114.34285714285714C502.66666666666663,114.34285714285714,505.08333333333326,114.34285714285714,507.49999999999994,114.34285714285714C509.91666666666663,114.34285714285714,512.3333333333333,114.34285714285714,514.75,114.34285714285714C517.1666666666666,114.34285714285714,519.5833333333334,114.34285714285714,522,114.34285714285714C524.4166666666666,114.34285714285714,526.8333333333334,114.34285714285714,529.25,114.34285714285714C531.6666666666666,114.34285714285714,534.0833333333334,114.34285714285714,536.5,114.34285714285714C538.9166666666666,114.34285714285714,541.3333333333334,114.34285714285714,543.75,114.34285714285714C546.1666666666666,114.34285714285714,548.5833333333334,114.34285714285714,551,114.34285714285714C553.4166666666666,114.34285714285714,555.8333333333334,114.34285714285714,558.25,114.34285714285714C560.6666666666666,114.34285714285714,563.0833333333334,114.34285714285714,565.5,114.34285714285714C567.9166666666666,114.34285714285714,570.3333333333334,114.34285714285714,572.75,114.34285714285714C575.1666666666666,114.34285714285714,577.5833333333334,114.34285714285714,580,114.34285714285714C582.4166666666666,114.34285714285714,584.8333333333334,114.34285714285714,587.25,114.34285714285714C589.6666666666666,114.34285714285714,592.0833333333334,114.34285714285714,594.5,114.34285714285714C596.9166666666666,114.34285714285714,599.3333333333334,114.34285714285714,601.75,114.34285714285714C604.1666666666666,114.34285714285714,606.5833333333334,114.34285714285714,609,114.34285714285714C611.4166666666666,114.34285714285714,613.8333333333334,114.34285714285714,616.25,114.34285714285714C618.6666666666666,114.34285714285714,621.0833333333334,114.34285714285714,623.5,114.34285714285714C625.9166666666666,114.34285714285714,628.3333333333334,114.34285714285714,630.75,114.34285714285714C633.1666666666666,114.34285714285714,635.5833333333334,114.34285714285714,638,114.34285714285714C640.4166666666666,114.34285714285714,642.8333333333334,114.34285714285714,645.25,114.34285714285714C647.6666666666666,114.34285714285714,650.0833333333334,114.34285714285714,652.5,114.34285714285714C654.9166666666666,114.34285714285714,657.3333333333334,114.34285714285714,659.75,114.34285714285714C662.1666666666666,114.34285714285714,664.5833333333334,114.34285714285714,667,114.34285714285714C669.4166666666666,114.34285714285714,671.8333333333334,114.34285714285714,674.25,114.34285714285714C676.6666666666666,114.34285714285714,679.0833333333334,114.34285714285714,681.5,114.34285714285714C683.9166666666666,114.34285714285714,686.3333333333334,114.34285714285714,688.75,114.34285714285714C691.1666666666666,114.34285714285714,693.5833333333334,114.34285714285714,696,114.34285714285714C698.4166666666666,114.34285714285714,700.8333333333334,114.34285714285714,703.25,114.34285714285714C705.6666666666666,114.34285714285714,708.0833333333334,114.34285714285714,710.5,114.34285714285714C712.9166666666666,114.34285714285714,715.3333333333334,114.34285714285714,717.75,114.34285714285714C720.1666666666666,114.34285714285714,722.5833333333334,114.34285714285714,725,114.34285714285714C727.4166666666666,114.34285714285714,729.8333333333334,114.34285714285714,732.25,114.34285714285714C734.6666666666666,114.34285714285714,737.0833333333334,114.34285714285714,739.5,114.34285714285714C741.9166666666666,114.34285714285714,744.3333333333334,114.34285714285714,746.75,114.34285714285714C749.1666666666666,114.34285714285714,751.5833333333334,114.34285714285714,754,114.34285714285714C756.4166666666666,114.34285714285714,758.8333333333334,114.34285714285714,761.25,114.34285714285714C763.6666666666666,114.34285714285714,766.0833333333334,114.34285714285714,768.5,114.34285714285714C770.9166666666666,114.34285714285714,773.3333333333334,114.34285714285714,775.75,114.34285714285714C778.1666666666666,114.34285714285714,780.5833333333334,114.34285714285714,783,114.34285714285714C785.4166666666667,114.34285714285714,787.8333333333334,114.34285714285714,790.2500000000001,114.34285714285714C792.6666666666667,114.34285714285714,795.0833333333335,114.34285714285714,797.5000000000001,114.34285714285714C799.9166666666667,114.34285714285714,802.3333333333335,114.34285714285714,804.7500000000001,114.34285714285714C807.1666666666667,114.34285714285714,809.5833333333335,114.34285714285714,812.0000000000001,114.34285714285714C814.4166666666667,114.34285714285714,816.8333333333333,114.34285714285714,819.2499999999999,114.34285714285714C821.6666666666665,114.34285714285714,824.0833333333333,114.34285714285714,826.4999999999999,114.34285714285714C828.9166666666665,114.34285714285714,831.3333333333333,114.34285714285714,833.7499999999999,114.34285714285714C836.1666666666665,114.34285714285714,838.5833333333333,114.34285714285714,840.9999999999999,114.34285714285714C843.4166666666666,114.34285714285714,845.8333333333333,114.34285714285714,848.25,114.34285714285714C850.6666666666666,114.34285714285714,853.0833333333334,114.34285714285714,855.5,114.34285714285714C857.9166666666666,114.34285714285714,860.3333333333334,114.34285714285714,862.75,114.34285714285714C865.1666666666666,114.34285714285714,867.5833333333334,114.34285714285714,870,114.34285714285714C872.4166666666666,114.34285714285714,874.8333333333334,114.34285714285714,877.25,114.34285714285714C879.6666666666666,114.34285714285714,882.0833333333334,114.34285714285714,884.5,114.34285714285714C886.9166666666666,114.34285714285714,889.3333333333334,114.34285714285714,891.75,114.34285714285714C894.1666666666666,114.34285714285714,896.5833333333334,114.34285714285714,899,114.34285714285714C901.4166666666666,114.34285714285714,903.8333333333334,114.34285714285714,906.25,114.34285714285714C908.6666666666666,114.34285714285714,911.0833333333334,114.34285714285714,913.5,114.34285714285714C915.9166666666666,114.34285714285714,918.3333333333334,114.34285714285714,920.75,114.34285714285714C923.1666666666666,114.34285714285714,925.5833333333334,114.34285714285714,928,114.34285714285714C930.4166666666666,114.34285714285714,932.8333333333334,114.34285714285714,935.25,114.34285714285714C937.6666666666666,114.34285714285714,940.0833333333334,114.34285714285714,942.5,114.34285714285714C944.9166666666666,114.34285714285714,947.3333333333334,114.34285714285714,949.75,114.34285714285714C952.1666666666666,114.34285714285714,954.5833333333334,114.34285714285714,957,114.34285714285714C959.4166666666666,114.34285714285714,961.8333333333334,114.34285714285714,964.25,114.34285714285714C966.6666666666667,114.34285714285714,969.0833333333334,114.34285714285714,971.5000000000001,114.34285714285714C973.9166666666667,114.34285714285714,976.3333333333335,114.34285714285714,978.7500000000001,114.34285714285714C981.1666666666667,114.34285714285714,983.5833333333335,114.34285714285714,986.0000000000001,114.34285714285714C988.4166666666667,114.34285714285714,990.8333333333335,114.34285714285714,993.2500000000001,114.34285714285714C995.6666666666667,114.34285714285714,998.0833333333333,114.34285714285714,1000.4999999999999,114.34285714285714C1002.9166666666665,114.34285714285714,1005.3333333333333,114.34285714285714,1007.7499999999999,114.34285714285714C1010.1666666666665,114.34285714285714,1012.5833333333333,114.34285714285714,1014.9999999999999,114.34285714285714C1017.4166666666665,114.34285714285714,1019.8333333333333,114.34285714285714,1022.2499999999999,114.34285714285714C1024.6666666666665,114.34285714285714,1027.0833333333333,114.34285714285714,1029.5,114.34285714285714C1031.9166666666667,114.34285714285714,1034.3333333333333,114.34285714285714,1036.75,114.34285714285714C1039.1666666666667,114.34285714285714,1041.5833333333333,114.34285714285714,1044,114.34285714285714C1046.4166666666667,114.34285714285714,1048.8333333333333,114.34285714285714,1051.25,114.34285714285714C1053.6666666666667,114.34285714285714,1056.0833333333333,114.34285714285714,1058.5,114.34285714285714C1060.9166666666667,114.34285714285714,1063.3333333333333,114.34285714285714,1065.75,114.34285714285714C1068.1666666666667,114.34285714285714,1070.5833333333333,114.34285714285714,1073,114.34285714285714C1075.4166666666667,114.34285714285714,1077.8333333333333,114.34285714285714,1080.25,114.34285714285714C1082.6666666666667,114.34285714285714,1085.0833333333333,114.34285714285714,1087.5,114.34285714285714C1089.9166666666667,114.34285714285714,1092.3333333333333,114.34285714285714,1094.75,114.34285714285714C1097.1666666666667,114.34285714285714,1099.5833333333333,114.34285714285714,1102,114.34285714285714C1104.4166666666667,114.34285714285714,1106.8333333333333,114.34285714285714,1109.25,114.34285714285714C1111.6666666666667,114.34285714285714,1114.0833333333333,114.34285714285714,1116.5,114.34285714285714C1118.9166666666667,114.34285714285714,1121.3333333333333,114.34285714285714,1123.75,114.34285714285714C1126.1666666666667,114.34285714285714,1128.5833333333333,114.34285714285714,1131,114.34285714285714C1133.4166666666667,114.34285714285714,1135.8333333333333,114.34285714285714,1138.25,114.34285714285714C1140.6666666666667,114.34285714285714,1143.0833333333333,114.34285714285714,1145.5,114.34285714285714C1147.9166666666667,114.34285714285714,1150.3333333333333,114.34285714285714,1152.75,114.34285714285714C1155.1666666666667,114.34285714285714,1157.5833333333333,114.34285714285714,1160,114.34285714285714C1162.4166666666667,114.34285714285714,1164.8333333333333,114.34285714285714,1167.25,114.34285714285714C1169.6666666666667,114.34285714285714,1172.0833333333333,114.34285714285714,1174.5,114.34285714285714C1176.9166666666667,114.34285714285714,1179.3333333333333,114.34285714285714,1181.75,114.34285714285714C1184.1666666666667,114.34285714285714,1186.5833333333333,114.34285714285714,1189,114.34285714285714C1191.4166666666667,114.34285714285714,1193.8333333333333,114.34285714285714,1196.25,114.34285714285714C1198.6666666666667,114.34285714285714,1201.0833333333333,114.34285714285714,1203.5,114.34285714285714C1205.9166666666667,114.34285714285714,1208.3333333333333,114.34285714285714,1210.75,114.34285714285714C1213.1666666666667,114.34285714285714,1215.5833333333333,114.34285714285714,1218,114.34285714285714C1220.4166666666667,114.34285714285714,1222.8333333333333,114.34285714285714,1225.25,114.34285714285714C1227.6666666666667,114.34285714285714,1230.0833333333333,114.34285714285714,1232.5,114.34285714285714C1234.9166666666667,114.34285714285714,1237.3333333333333,114.34285714285714,1239.75,114.34285714285714C1242.1666666666667,114.34285714285714,1244.5833333333333,114.34285714285714,1247,114.34285714285714C1249.4166666666667,114.34285714285714,1251.8333333333333,114.34285714285714,1254.25,114.34285714285714C1256.6666666666667,114.34285714285714,1259.0833333333333,114.34285714285714,1261.5,114.34285714285714C1263.9166666666667,114.34285714285714,1266.3333333333333,114.34285714285714,1268.75,114.34285714285714C1271.1666666666667,114.34285714285714,1273.5833333333333,114.34285714285714,1276,114.34285714285714C1278.4166666666667,114.34285714285714,1280.8333333333333,114.34285714285714,1283.25,114.34285714285714C1285.6666666666667,114.34285714285714,1288.0833333333333,114.34285714285714,1290.5,114.34285714285714C1292.9166666666667,114.34285714285714,1295.3333333333333,114.34285714285714,1297.75,114.34285714285714C1300.1666666666667,114.34285714285714,1302.5833333333333,114.34285714285714,1305,114.34285714285714C1307.4166666666667,114.34285714285714,1309.8333333333333,114.34285714285714,1312.25,114.34285714285714C1314.6666666666667,114.34285714285714,1317.0833333333333,114.34285714285714,1319.5,114.34285714285714C1321.9166666666667,114.34285714285714,1324.3333333333333,114.34285714285714,1326.75,114.34285714285714C1329.1666666666667,114.34285714285714,1331.5833333333333,114.34285714285714,1334,114.34285714285714C1336.4166666666667,114.34285714285714,1338.8333333333333,114.34285714285714,1341.25,114.34285714285714C1343.6666666666667,114.34285714285714,1346.0833333333333,114.34285714285714,1348.5,114.34285714285714C1350.9166666666667,114.34285714285714,1353.3333333333333,114.34285714285714,1355.75,114.34285714285714C1358.1666666666667,114.34285714285714,1360.5833333333333,114.34285714285714,1363,114.34285714285714C1365.4166666666667,114.34285714285714,1367.8333333333333,114.34285714285714,1370.25,114.34285714285714C1372.6666666666667,114.34285714285714,1375.0833333333333,114.34285714285714,1377.5,114.34285714285714C1379.9166666666667,114.34285714285714,1382.3333333333333,114.34285714285714,1384.75,114.34285714285714C1387.1666666666667,114.34285714285714,1389.5833333333333,114.34285714285714,1392,114.34285714285714C1394.4166666666667,114.34285714285714,1396.8333333333333,114.34285714285714,1399.25,114.34285714285714C1401.6666666666667,114.34285714285714,1404.0833333333333,114.34285714285714,1406.5,114.34285714285714C1408.9166666666667,114.34285714285714,1411.3333333333333,114.34285714285714,1413.75,114.34285714285714C1416.1666666666667,114.34285714285714,1418.5833333333333,114.34285714285714,1421,114.34285714285714C1423.4166666666667,114.34285714285714,1425.8333333333333,114.34285714285714,1428.25,114.34285714285714C1430.6666666666667,114.34285714285714,1433.0833333333333,114.34285714285714,1435.5,114.34285714285714C1437.9166666666667,114.34285714285714,1440.3333333333333,114.34285714285714,1442.75,114.34285714285714C1445.1666666666667,114.34285714285714,1447.5833333333333,114.34285714285714,1450,114.34285714285714" fill="transparent" stroke-linecap="round" stroke="#E7C6DF" stroke-width="2"></path><g class="visx-group visx-axis visx-axis-bottom" transform="translate(0, 115)"><g class="visx-group visx-axis-tick" transform="translate(0, 0)"><line class="visx-line" x1="0" y1="0" x2="0" y2="8" fill="transparent" shape-rendering="crispEdges" stroke="#000" stroke-width="0" stroke-linecap="square"></line><svg x="0" y="0" font-size="10" style="overflow:visible"><text transform="" x="0" y="18" fill="#000" font-size="10" text-anchor="middle"><tspan x="0" dy="0em">0%</tspan></text></svg></g><g class="visx-group visx-axis-tick" transform="translate(0, 0)"><line class="visx-line" x1="362.5" y1="0" x2="362.5" y2="8" fill="transparent" shape-rendering="crispEdges" stroke="#000" stroke-width="0" stroke-linecap="square"></line><svg x="0" y="0" font-size="10" style="overflow:visible"><text transform="" x="362.5" y="18" fill="#000" font-size="10" text-anchor="middle"><tspan x="362.5" dy="0em">25%</tspan></text></svg></g><g class="visx-group visx-axis-tick" transform="translate(0, 0)"><line class="visx-line" x1="725" y1="0" x2="725" y2="8" fill="transparent" shape-rendering="crispEdges" stroke="#000" stroke-width="0" stroke-linecap="square"></line><svg x="0" y="0" font-size="10" style="overflow:visible"><text transform="" x="725" y="18" fill="#000" font-size="10" text-anchor="middle"><tspan x="725" dy="0em">50%</tspan></text></svg></g><g class="visx-group visx-axis-tick" transform="translate(0, 0)"><line class="visx-line" x1="1087.5" y1="0" x2="1087.5" y2="8" fill="transparent" shape-rendering="crispEdges" stroke="#000" stroke-width="0" stroke-linecap="square"></line><svg x="0" y="0" font-size="10" style="overflow:visible"><text transform="" x="1087.5" y="18" fill="#000" font-size="10" text-anchor="middle"><tspan x="1087.5" dy="0em">75%</tspan></text></svg></g><g class="visx-group visx-axis-tick" transform="translate(0, 0)"><line class="visx-line" x1="1450" y1="0" x2="1450" y2="8" fill="transparent" shape-rendering="crispEdges" stroke="#000" stroke-width="0" stroke-linecap="square"></line><svg x="0" y="0" font-size="10" style="overflow:visible"><text transform="" x="1450" y="18" fill="#000" font-size="10" text-anchor="middle"><tspan x="1450" dy="0em">100%</tspan></text></svg></g><line class="visx-line visx-axis-line" x1="0.5" y1="0" x2="1450.5" y2="0" fill="transparent" shape-rendering="crispEdges" stroke="#222" stroke-width="0"></line></g><g class="visx-group visx-axis visx-axis-left" transform="translate(0, 0)"><g class="visx-group visx-axis-tick" transform="translate(0, 0)"><line class="visx-line" x1="0" y1="115" x2="-8" y2="115" fill="transparent" shape-rendering="crispEdges" stroke="#222" stroke-width="0" stroke-linecap="square"></line><svg x="-30" y="0" font-size="8" style="overflow:visible"><text transform="" x="-8" y="115" fill="#000" font-size="8" text-anchor="start"><tspan x="-8" dy="0em">0%</tspan></text></svg></g><g class="visx-group visx-axis-tick" transform="translate(0, 0)"><line class="visx-line" x1="0" y1="49.28571428571429" x2="-8" y2="49.28571428571429" fill="transparent" shape-rendering="crispEdges" stroke="#222" stroke-width="0" stroke-linecap="square"></line><svg x="-30" y="0" font-size="8" style="overflow:visible"><text transform="" x="-8" y="49.28571428571429" fill="#000" font-size="8" text-anchor="start"><tspan x="-8" dy="0em">200%</tspan></text></svg></g><line class="visx-line visx-axis-line" x1="0" y1="115.5" x2="0" y2="0.5" fill="transparent" shape-rendering="crispEdges" stroke="#222" stroke-width="0"></line></g><rect class="visx-bar" width="1450" height="115" fill="transparent"></rect><line class="visx-line" x1="870" y1="28" x2="870" y2="115" fill="transparent" shape-rendering="crispEdges" stroke="#0062D2" stroke-width="1" pointer-events="none" stroke-dasharray="5,2"></line><svg x="0" y="0" font-size="10px" style="overflow:visible"><text transform="" x="870" y="20" font-size="10px" fill="#fff" stroke="#fff" stroke-width="0.8em" text-anchor="middle"><tspan x="870" dy="0.355em">Optimal 60%</tspan></text></svg><svg x="0" y="0" font-size="10px" style="overflow:visible"><text transform="" x="870" y="20" font-size="10px" fill="#62677B" text-anchor="middle"><tspan x="870" dy="0.355em">Optimal 60%</tspan></text></svg></g></svg>