<?xml version="1.0"?><svg xmlns="http://www.w3.org/2000/svg" xmlns:xlink= "http://www.w3.org/1999/xlink" style="background: white;" width="1500" height="185"> <g style="color: black; font-size: 13px; font-family: sans-serif; transform: translate(18px, 25px);"><g><circle r="3" cx="-6" cy="-5" style="fill: #B6509E" /><text>Borrow APR, variable</text></g><g style="transform: translateX(150px);"><circle r="3" cx="-6" cy="-5" style="fill: rgb(231, 198, 223)" /><text>Borrow APR, stable</text></g><g style="transform: translateX(290px);"><circle r="3" cx="-6" cy="-5" style="fill: rgb(0, 98, 210)" /><text>Utilization Rate</text></g></g><g class="visx-group" transform="translate(40, 50)"><g class="visx-group visx-rows" transform="translate(0, 0)"><line class="visx-line" x1="0" y1="115" x2="1450" y2="115" fill="transparent" shape-rendering="crispEdges" stroke="#000" stroke-width="1" stroke-dasharray="3,3" pointer-events="none"></line><line class="visx-line" x1="0" y1="73.92857142857142" x2="1450" y2="73.92857142857142" fill="transparent" shape-rendering="crispEdges" stroke="#000" stroke-width="1" stroke-dasharray="3,3" pointer-events="none"></line><line class="visx-line" x1="0" y1="32.857142857142854" x2="1450" y2="32.857142857142854" fill="transparent" shape-rendering="crispEdges" stroke="#000" stroke-width="1" stroke-dasharray="3,3" pointer-events="none"></line></g><path class="visx-linepath" d="M0,114.17857142854221C2.4166666666666665,114.17370370368666,4.833333333333334,114.1688359788311,7.25,114.16396825396825C9.666666666666666,114.1591005291054,12.083333333333334,114.1542328042328,14.5,114.14936507936508C16.916666666666668,114.14449735449736,19.333333333333332,114.13962962962962,21.75,114.1347619047619C24.166666666666668,114.12989417989418,26.583333333333332,114.12502645502644,29,114.12015873015872C31.416666666666668,114.115291005291,33.833333333333336,114.11042328042328,36.25,114.10555555555555C38.666666666666664,114.10068783068783,41.083333333333336,114.09582010582011,43.5,114.09095238095239C45.91666666666667,114.08608465608467,48.333333333333336,114.08121693121693,50.75000000000001,114.0763492063492C53.16666666666667,114.07148148148148,55.583333333333336,114.06661375661376,58,114.06174603174604C60.416666666666664,114.05687830687832,62.833333333333336,114.05201058201058,65.25,114.04714285714286C67.66666666666667,114.04227513227514,70.08333333333333,114.0374074074074,72.5,114.03253968253968C74.91666666666667,114.02767195767196,77.33333333333333,114.02280423280423,79.75,114.01793650793651C82.16666666666667,114.01306878306879,84.58333333333333,114.00820105820105,87,114.00333333333333C89.41666666666667,113.99846560846561,91.83333333333333,113.99359788359789,94.25,113.98873015873016C96.66666666666667,113.98386243386244,99.08333333333334,113.9789947089947,101.50000000000001,113.97412698412698C103.91666666666667,113.96925925925926,106.33333333333334,113.96439153439152,108.75,113.9595238095238C111.16666666666667,113.95465608465608,113.58333333333333,113.94978835978836,116,113.94492063492063C118.41666666666667,113.94005291005291,120.83333333333334,113.93518518518519,123.25000000000001,113.93031746031747C125.66666666666667,113.92544973544975,128.08333333333334,113.92058201058201,130.5,113.91571428571429C132.91666666666666,113.91084656084657,135.33333333333334,113.90597883597883,137.75,113.9011111111111C140.16666666666666,113.89624338624338,142.58333333333334,113.89137566137565,145,113.88650793650793C147.41666666666666,113.8816402116402,149.83333333333334,113.87677248677248,152.25,113.87190476190476C154.66666666666666,113.86703703703704,157.08333333333334,113.86216931216931,159.5,113.85730158730159C161.91666666666666,113.85243386243387,164.33333333333334,113.84756613756613,166.75,113.84269841269841C169.16666666666666,113.83783068783069,171.58333333333334,113.83296296296297,174,113.82809523809524C176.41666666666666,113.82322751322752,178.83333333333334,113.81835978835979,181.25,113.81349206349206C183.66666666666666,113.80862433862434,186.08333333333334,113.8037566137566,188.5,113.79888888888888C190.91666666666666,113.79402116402116,193.33333333333334,113.78915343915344,195.75,113.78428571428572C198.16666666666669,113.779417989418,200.58333333333334,113.77455026455027,203.00000000000003,113.76968253968255C205.41666666666669,113.76481481481483,207.83333333333331,113.75994708994709,210.24999999999997,113.75507936507937C212.66666666666666,113.75021164021165,215.08333333333331,113.74534391534391,217.5,113.74047619047619C219.91666666666666,113.73560846560846,222.33333333333334,113.73074074074073,224.75,113.725873015873C227.16666666666666,113.72100529100528,229.58333333333334,113.71613756613756,232,113.71126984126984C234.41666666666666,113.70640211640212,236.83333333333334,113.7015343915344,239.25,113.69666666666667C241.66666666666669,113.69179894179895,244.08333333333334,113.68693121693121,246.50000000000003,113.68206349206349C248.91666666666669,113.67719576719577,251.33333333333331,113.67232804232803,253.74999999999997,113.66746031746031C256.16666666666663,113.66259259259259,258.5833333333333,113.65772486772487,261,113.65285714285714C263.4166666666667,113.64798941798942,265.8333333333333,113.64312169312169,268.25,113.63825396825396C270.6666666666667,113.63338624338624,273.0833333333333,113.62851851851852,275.5,113.6236507936508C277.9166666666667,113.61878306878307,280.3333333333333,113.61391534391535,282.75,113.60904761904763C285.1666666666667,113.60417989417991,287.5833333333333,113.59931216931217,290,113.59444444444445C292.4166666666667,113.58957671957673,294.8333333333333,113.58470899470899,297.25,113.57984126984127C299.6666666666667,113.57497354497355,302.0833333333333,113.57010582010581,304.5,113.56523809523809C306.9166666666667,113.56037037037036,309.3333333333333,113.55550264550264,311.75,113.55063492063492C314.1666666666667,113.5457671957672,316.5833333333333,113.54089947089948,319,113.53603174603175C321.4166666666667,113.53116402116403,323.8333333333333,113.5262962962963,326.25,113.52142857142857C328.6666666666667,113.51656084656085,331.0833333333333,113.51169312169311,333.5,113.50682539682539C335.9166666666667,113.50195767195767,338.3333333333333,113.49708994708995,340.75,113.49222222222222C343.1666666666667,113.4873544973545,345.5833333333333,113.48248677248677,348,113.47761904761904C350.4166666666667,113.47275132275132,352.8333333333333,113.4678835978836,355.25,113.46301587301588C357.6666666666667,113.45814814814815,360.0833333333333,113.45328042328043,362.5,113.44841269841271C364.9166666666667,113.44354497354499,367.3333333333333,113.43867724867724,369.75,113.43380952380951C372.1666666666667,113.42894179894179,374.5833333333333,113.42407407407407,377,113.41920634920635C379.4166666666667,113.41433862433863,381.8333333333333,113.40947089947089,384.25,113.40460317460317C386.6666666666667,113.39973544973545,389.0833333333333,113.39486772486772,391.5,113.39C393.9166666666667,113.38513227513228,396.33333333333337,113.38026455026456,398.75000000000006,113.37539682539683C401.16666666666674,113.37052910052911,403.58333333333337,113.36566137566138,406.00000000000006,113.36079365079365C408.4166666666667,113.35592592592593,410.8333333333333,113.3510582010582,413.24999999999994,113.34619047619047C415.66666666666663,113.34132275132275,418.08333333333326,113.33645502645503,420.49999999999994,113.3315873015873C422.91666666666663,113.32671957671958,425.3333333333333,113.32185185185185,427.75,113.31698412698412C430.1666666666667,113.3121164021164,432.5833333333333,113.30724867724868,435,113.30238095238096C437.4166666666667,113.29751322751324,439.8333333333333,113.2926455026455,442.25,113.28777777777778C444.6666666666667,113.28291005291005,447.0833333333333,113.27804232804232,449.5,113.2731746031746C451.9166666666667,113.26830687830687,454.3333333333333,113.26343915343915,456.75,113.25857142857143C459.1666666666667,113.2537037037037,461.5833333333333,113.24883597883597,464,113.24396825396825C466.4166666666667,113.23910052910053,468.8333333333333,113.2342328042328,471.25,113.22936507936508C473.6666666666667,113.22449735449736,476.0833333333333,113.21962962962964,478.5,113.21476190476191C480.9166666666667,113.20989417989419,483.33333333333337,113.20502645502644,485.75000000000006,113.20015873015872C488.16666666666674,113.195291005291,490.58333333333337,113.19042328042327,493.00000000000006,113.18555555555555C495.4166666666667,113.18068783068783,497.8333333333333,113.17582010582011,500.24999999999994,113.17095238095239C502.66666666666663,113.16608465608466,505.08333333333326,113.16121693121693,507.49999999999994,113.1563492063492C509.91666666666663,113.15148148148148,512.3333333333333,113.14661375661376,514.75,113.14174603174604C517.1666666666666,113.13687830687832,519.5833333333334,113.13201058201058,522,113.12714285714286C524.4166666666666,113.12227513227513,526.8333333333334,113.1174074074074,529.25,113.11253968253968C531.6666666666666,113.10767195767195,534.0833333333334,113.10280423280423,536.5,113.09793650793651C538.9166666666666,113.09306878306879,541.3333333333334,113.08820105820105,543.75,113.08333333333333C546.1666666666666,113.0784656084656,548.5833333333334,113.07359788359788,551,113.06873015873016C553.4166666666666,113.06386243386244,555.8333333333334,113.0589947089947,558.25,113.05412698412698C560.6666666666666,113.04925925925926,563.0833333333334,113.04439153439152,565.5,113.0395238095238C567.9166666666666,113.03465608465608,570.3333333333334,113.02978835978836,572.75,113.02492063492063C575.1666666666666,113.02005291005291,577.5833333333334,113.01518518518519,580,113.01031746031747C582.4166666666666,113.00544973544974,584.8333333333334,113.00058201058201,587.25,112.99571428571429C589.6666666666666,112.99084656084656,592.0833333333334,112.98597883597884,594.5,112.98111111111112C596.9166666666666,112.9762433862434,599.3333333333334,112.97137566137566,601.75,112.96650793650794C604.1666666666666,112.96164021164022,606.5833333333334,112.95677248677248,609,112.95190476190476C611.4166666666666,112.94703703703703,613.8333333333334,112.94216931216931,616.25,112.93730158730159C618.6666666666666,112.93243386243387,621.0833333333334,112.92756613756613,623.5,112.92269841269841C625.9166666666666,112.91783068783069,628.3333333333334,112.91296296296296,630.75,112.90809523809524C633.1666666666666,112.90322751322752,635.5833333333334,112.89835978835978,638,112.89349206349206C640.4166666666666,112.88862433862434,642.8333333333334,112.8837566137566,645.25,112.87888888888888C647.6666666666666,112.87402116402116,650.0833333333334,112.86915343915344,652.5,112.86428571428571C654.9166666666666,112.85941798941799,657.3333333333334,112.85455026455027,659.75,112.84968253968255C662.1666666666666,112.84481481481482,664.5833333333334,112.83994708994709,667,112.83507936507937C669.4166666666666,112.83021164021164,671.8333333333334,112.82534391534391,674.25,112.82047619047619C676.6666666666666,112.81560846560846,679.0833333333334,112.81074074074074,681.5,112.80587301587302C683.9166666666666,112.8010052910053,686.3333333333334,112.79613756613756,688.75,112.79126984126984C691.1666666666666,112.78640211640212,693.5833333333334,112.7815343915344,696,112.77666666666667C698.4166666666666,112.77179894179895,700.8333333333334,112.76693121693121,703.25,112.76206349206349C705.6666666666666,112.75719576719577,708.0833333333334,112.75232804232805,710.5,112.74746031746032C712.9166666666666,112.7425925925926,715.3333333333334,112.73772486772486,717.75,112.73285714285714C720.1666666666666,112.72798941798942,722.5833333333334,112.72312169312168,725,112.71825396825396C727.4166666666666,112.71338624338624,729.8333333333334,112.70851851851852,732.25,112.7036507936508C734.6666666666666,112.69878306878307,737.0833333333334,112.69391534391535,739.5,112.68904761904763C741.9166666666666,112.6841798941799,744.3333333333334,112.67931216931217,746.75,112.67444444444445C749.1666666666666,112.66957671957672,751.5833333333334,112.66470899470899,754,112.65984126984127C756.4166666666666,112.65497354497354,758.8333333333334,112.65010582010582,761.25,112.6452380952381C763.6666666666666,112.64037037037038,766.0833333333334,112.63550264550264,768.5,112.63063492063492C770.9166666666666,112.6257671957672,773.3333333333334,112.62089947089947,775.75,112.61603174603175C778.1666666666666,112.61116402116403,780.5833333333334,112.60629629629629,783,112.60142857142857C785.4166666666667,112.59656084656085,787.8333333333334,112.59169312169311,790.2500000000001,112.58682539682539C792.6666666666667,112.58195767195767,795.0833333333335,112.57708994708995,797.5000000000001,112.57222222222222C799.9166666666667,112.5673544973545,802.3333333333335,112.56248677248676,804.7500000000001,112.55761904761904C807.1666666666667,112.55275132275132,809.5833333333335,112.5478835978836,812.0000000000001,112.54301587301588C814.4166666666667,112.53814814814815,816.8333333333333,112.53328042328043,819.2499999999999,112.52841269841271C821.6666666666665,112.52354497354499,824.0833333333333,112.51867724867725,826.4999999999999,112.51380952380953C828.9166666666665,112.5089417989418,831.3333333333333,112.50407407407407,833.7499999999999,112.49920634920635C836.1666666666665,112.49433862433862,838.5833333333333,112.4894708994709,840.9999999999999,112.48460317460318C843.4166666666666,112.47973544973546,845.8333333333333,112.47486772486772,848.25,112.47C850.6666666666666,112.46513227513228,853.0833333333334,112.46026455026455,855.5,112.45539682539683C857.9166666666666,112.45052910052911,860.3333333333334,112.44566137566137,862.75,112.44079365079365C865.1666666666666,112.43592592592593,867.5833333333334,112.43105820105819,870,112.42619047619047C872.4166666666666,112.42132275132275,874.8333333333334,112.41645502645503,877.25,112.4115873015873C879.6666666666666,112.40671957671958,882.0833333333334,112.40185185185184,884.5,112.39698412698412C886.9166666666666,112.3921164021164,889.3333333333334,112.38724867724868,891.75,112.38238095238096C894.1666666666666,112.37751322751323,896.5833333333334,112.37264550264551,899,112.36777777777779C901.4166666666666,112.36291005291007,903.8333333333334,112.35804232804232,906.25,112.3531746031746C908.6666666666666,112.34830687830687,911.0833333333334,112.34343915343915,913.5,112.33857142857143C915.9166666666666,112.3337037037037,918.3333333333334,112.32883597883598,920.75,112.32396825396826C923.1666666666666,112.31910052910054,925.5833333333334,112.3142328042328,928,112.30936507936508C930.4166666666666,112.30449735449736,932.8333333333334,112.29962962962964,935.25,112.29476190476191C937.6666666666666,112.28989417989419,940.0833333333334,112.28502645502644,942.5,112.28015873015872C944.9166666666666,112.275291005291,947.3333333333334,112.27042328042327,949.75,112.26555555555555C952.1666666666666,112.26068783068783,954.5833333333334,112.2558201058201,957,112.25095238095238C959.4166666666666,112.24608465608466,961.8333333333334,112.24121693121693,964.25,112.2363492063492C966.6666666666667,112.23148148148148,969.0833333333334,112.22661375661376,971.5000000000001,112.22174603174604C973.9166666666667,112.21687830687831,976.3333333333335,112.21201058201058,978.7500000000001,112.20714285714286C981.1666666666667,112.20227513227513,983.5833333333335,112.1974074074074,986.0000000000001,112.19253968253967C988.4166666666667,112.18767195767195,990.8333333333335,112.18280423280423,993.2500000000001,112.17793650793651C995.6666666666667,112.17306878306879,998.0833333333333,112.16820105820106,1000.4999999999999,112.16333333333334C1002.9166666666665,112.15846560846562,1005.3333333333333,112.15359788359788,1007.7499999999999,112.14873015873016C1010.1666666666665,112.14386243386244,1012.5833333333333,112.13899470899472,1014.9999999999999,112.134126984127C1017.4166666666665,112.12925925925927,1019.8333333333333,112.12439153439152,1022.2499999999999,112.1195238095238C1024.6666666666665,112.11465608465608,1027.0833333333333,112.10978835978835,1029.5,112.10492063492063C1031.9166666666667,112.10005291005291,1034.3333333333333,112.09518518518519,1036.75,112.09031746031746C1039.1666666666667,112.08544973544974,1041.5833333333333,112.080582010582,1044,112.07571428571428C1046.4166666666667,112.07084656084656,1048.8333333333333,112.06597883597884,1051.25,112.06111111111112C1053.6666666666667,112.0562433862434,1056.0833333333333,112.05137566137566,1058.5,112.04650793650794C1060.9166666666667,112.04164021164021,1063.3333333333333,112.03677248677248,1065.75,112.03190476190476C1068.1666666666667,112.02703703703703,1070.5833333333333,112.02216931216931,1073,112.01730158730159C1075.4166666666667,112.01243386243387,1077.8333333333333,112.00756613756613,1080.25,112.00269841269841C1082.6666666666667,111.99783068783069,1085.0833333333333,111.99296296296296,1087.5,111.98809523809524C1089.9166666666667,111.98322751322752,1092.3333333333333,111.97835978835978,1094.75,111.97349206349206C1097.1666666666667,111.96862433862434,1099.5833333333333,111.9637566137566,1102,111.95888888888888C1104.4166666666667,111.95402116402116,1106.8333333333333,111.94915343915343,1109.25,111.94428571428571C1111.6666666666667,111.93941798941799,1114.0833333333333,111.93455026455027,1116.5,111.92968253968255C1118.9166666666667,111.92481481481482,1121.3333333333333,111.91994708994709,1123.75,111.91507936507936C1126.1666666666667,111.91021164021164,1128.5833333333333,111.90534391534392,1131,111.9004761904762C1133.4166666666667,111.89560846560848,1135.8333333333333,111.89074074074074,1138.25,111.88587301587302C1140.6666666666667,111.8810052910053,1143.0833333333333,111.87613756613756,1145.5,111.87126984126984C1147.9166666666667,111.86640211640211,1150.3333333333333,111.86153439153439,1152.75,111.85666666666667C1155.1666666666667,111.85179894179895,1157.5833333333333,111.84693121693122,1160,111.8420634920635C1162.4166666666667,111.83719576719578,1164.8333333333333,111.83232804232804,1167.25,111.82746031746032C1169.6666666666667,111.8225925925926,1172.0833333333333,111.81772486772486,1174.5,111.81285714285714C1176.9166666666667,111.80798941798942,1179.3333333333333,111.80312169312168,1181.75,111.79825396825396C1184.1666666666667,111.79338624338624,1186.5833333333333,111.78851851851852,1189,111.78365079365079C1191.4166666666667,111.77878306878307,1193.8333333333333,111.77391534391535,1196.25,111.76904761904763C1198.6666666666667,111.7641798941799,1201.0833333333333,111.75931216931217,1203.5,111.75444444444445C1205.9166666666667,111.74957671957672,1208.3333333333333,111.74470899470899,1210.75,111.73984126984126C1213.1666666666667,111.73497354497354,1215.5833333333333,111.73010582010582,1218,111.7252380952381C1220.4166666666667,111.72037037037038,1222.8333333333333,111.71550264550264,1225.25,111.71063492063492C1227.6666666666667,111.7057671957672,1230.0833333333333,111.70089947089947,1232.5,111.69603174603175C1234.9166666666667,111.69116402116403,1237.3333333333333,111.68629629629629,1239.75,111.68142857142857C1242.1666666666667,111.67656084656085,1244.5833333333333,111.67169312169311,1247,111.66682539682539C1249.4166666666667,111.66195767195767,1251.8333333333333,111.65708994708994,1254.25,111.65222222222222C1256.6666666666667,111.6473544973545,1259.0833333333333,111.64248677248676,1261.5,111.63761904761904C1263.9166666666667,111.63275132275132,1266.3333333333333,111.6278835978836,1268.75,111.62301587301587C1271.1666666666667,111.61814814814815,1273.5833333333333,111.61328042328043,1276,111.6084126984127C1278.4166666666667,111.60354497354498,1280.8333333333333,111.59867724867725,1283.25,111.59380952380953C1285.6666666666667,111.5889417989418,1288.0833333333333,111.58407407407407,1290.5,111.57920634920634C1292.9166666666667,111.57433862433862,1295.3333333333333,111.5694708994709,1297.75,111.56460317460318C1300.1666666666667,111.55973544973546,1302.5833333333333,111.55973544973546,1305,111.55C1307.4166666666667,111.54026455026454,1309.8333333333333,108.2642857142857,1312.25,106.62142857142857C1314.6666666666667,104.97857142857143,1317.0833333333333,103.33571428571429,1319.5,101.69285714285715C1321.9166666666667,100.05000000000001,1324.3333333333333,98.40714285714286,1326.75,96.76428571428572C1329.1666666666667,95.12142857142858,1331.5833333333333,93.47857142857143,1334,91.83571428571429C1336.4166666666667,90.19285714285715,1338.8333333333333,88.55,1341.25,86.90714285714286C1343.6666666666667,85.26428571428572,1346.0833333333333,83.62142857142857,1348.5,81.97857142857143C1350.9166666666667,80.33571428571429,1353.3333333333333,78.69285714285714,1355.75,77.05C1358.1666666666667,75.40714285714286,1360.5833333333333,73.7642857142857,1363,72.12142857142857C1365.4166666666667,70.47857142857143,1367.8333333333333,68.83571428571429,1370.25,67.19285714285715C1372.6666666666667,65.55000000000001,1375.0833333333333,63.907142857142844,1377.5,62.264285714285705C1379.9166666666667,60.62142857142857,1382.3333333333333,58.978571428571435,1384.75,57.335714285714296C1387.1666666666667,55.69285714285716,1389.5833333333333,54.050000000000004,1392,52.40714285714286C1394.4166666666667,50.76428571428571,1396.8333333333333,49.12142857142858,1399.25,47.478571428571435C1401.6666666666667,45.83571428571429,1404.0833333333333,44.19285714285714,1406.5,42.55C1408.9166666666667,40.90714285714285,1411.3333333333333,39.26428571428572,1413.75,37.621428571428574C1416.1666666666667,35.97857142857143,1418.5833333333333,34.33571428571428,1421,32.692857142857136C1423.4166666666667,31.049999999999994,1425.8333333333333,29.407142857142862,1428.25,27.764285714285716C1430.6666666666667,26.12142857142857,1433.0833333333333,24.47857142857141,1435.5,22.835714285714268C1437.9166666666667,21.192857142857125,1440.3333333333333,19.550000000000008,1442.75,17.90714285714287C1445.1666666666667,16.26428571428573,1447.5833333333333,14.62142857142858,1450,12.978571428571431" fill="transparent" stroke-linecap="round" stroke="#B6509E" stroke-width="2"></path><path class="visx-linepath" d="M0,112.37142857142857C2.4166666666666665,112.37142857142857,4.833333333333334,112.37142857142857,7.25,112.37142857142857C9.666666666666666,112.37142857142857,12.083333333333334,112.37142857142857,14.5,112.37142857142857C16.916666666666668,112.37142857142857,19.333333333333332,112.37142857142857,21.75,112.37142857142857C24.166666666666668,112.37142857142857,26.583333333333332,112.37142857142857,29,112.37142857142857C31.416666666666668,112.37142857142857,33.833333333333336,112.37142857142857,36.25,112.37142857142857C38.666666666666664,112.37142857142857,41.083333333333336,112.37142857142857,43.5,112.37142857142857C45.91666666666667,112.37142857142857,48.333333333333336,112.37142857142857,50.75000000000001,112.37142857142857C53.16666666666667,112.37142857142857,55.583333333333336,112.37142857142857,58,112.37142857142857C60.416666666666664,112.37142857142857,62.833333333333336,112.37142857142857,65.25,112.37142857142857C67.66666666666667,112.37142857142857,70.08333333333333,112.37142857142857,72.5,112.37142857142857C74.91666666666667,112.37142857142857,77.33333333333333,112.37142857142857,79.75,112.37142857142857C82.16666666666667,112.37142857142857,84.58333333333333,112.37142857142857,87,112.37142857142857C89.41666666666667,112.37142857142857,91.83333333333333,112.37142857142857,94.25,112.37142857142857C96.66666666666667,112.37142857142857,99.08333333333334,112.37142857142857,101.50000000000001,112.37142857142857C103.91666666666667,112.37142857142857,106.33333333333334,112.37142857142857,108.75,112.37142857142857C111.16666666666667,112.37142857142857,113.58333333333333,112.37142857142857,116,112.37142857142857C118.41666666666667,112.37142857142857,120.83333333333334,112.37142857142857,123.25000000000001,112.37142857142857C125.66666666666667,112.37142857142857,128.08333333333334,112.37142857142857,130.5,112.37142857142857C132.91666666666666,112.37142857142857,135.33333333333334,112.37142857142857,137.75,112.37142857142857C140.16666666666666,112.37142857142857,142.58333333333334,112.37142857142857,145,112.37142857142857C147.41666666666666,112.37142857142857,149.83333333333334,112.37142857142857,152.25,112.37142857142857C154.66666666666666,112.37142857142857,157.08333333333334,112.37142857142857,159.5,112.37142857142857C161.91666666666666,112.37142857142857,164.33333333333334,112.37142857142857,166.75,112.37142857142857C169.16666666666666,112.37142857142857,171.58333333333334,112.37142857142857,174,112.37142857142857C176.41666666666666,112.37142857142857,178.83333333333334,112.37142857142857,181.25,112.37142857142857C183.66666666666666,112.37142857142857,186.08333333333334,112.37142857142857,188.5,112.37142857142857C190.91666666666666,112.37142857142857,193.33333333333334,112.37142857142857,195.75,112.37142857142857C198.16666666666669,112.37142857142857,200.58333333333334,112.37142857142857,203.00000000000003,112.37142857142857C205.41666666666669,112.37142857142857,207.83333333333331,112.37142857142857,210.24999999999997,112.37142857142857C212.66666666666666,112.37142857142857,215.08333333333331,112.37142857142857,217.5,112.37142857142857C219.91666666666666,112.37142857142857,222.33333333333334,112.37142857142857,224.75,112.37142857142857C227.16666666666666,112.37142857142857,229.58333333333334,112.37142857142857,232,112.37142857142857C234.41666666666666,112.37142857142857,236.83333333333334,112.37142857142857,239.25,112.37142857142857C241.66666666666669,112.37142857142857,244.08333333333334,112.37142857142857,246.50000000000003,112.37142857142857C248.91666666666669,112.37142857142857,251.33333333333331,112.37142857142857,253.74999999999997,112.37142857142857C256.16666666666663,112.37142857142857,258.5833333333333,112.37142857142857,261,112.37142857142857C263.4166666666667,112.37142857142857,265.8333333333333,112.37142857142857,268.25,112.37142857142857C270.6666666666667,112.37142857142857,273.0833333333333,112.37142857142857,275.5,112.37142857142857C277.9166666666667,112.37142857142857,280.3333333333333,112.37142857142857,282.75,112.37142857142857C285.1666666666667,112.37142857142857,287.5833333333333,112.37142857142857,290,112.37142857142857C292.4166666666667,112.37142857142857,294.8333333333333,112.37142857142857,297.25,112.37142857142857C299.6666666666667,112.37142857142857,302.0833333333333,112.37142857142857,304.5,112.37142857142857C306.9166666666667,112.37142857142857,309.3333333333333,112.37142857142857,311.75,112.37142857142857C314.1666666666667,112.37142857142857,316.5833333333333,112.37142857142857,319,112.37142857142857C321.4166666666667,112.37142857142857,323.8333333333333,112.37142857142857,326.25,112.37142857142857C328.6666666666667,112.37142857142857,331.0833333333333,112.37142857142857,333.5,112.37142857142857C335.9166666666667,112.37142857142857,338.3333333333333,112.37142857142857,340.75,112.37142857142857C343.1666666666667,112.37142857142857,345.5833333333333,112.37142857142857,348,112.37142857142857C350.4166666666667,112.37142857142857,352.8333333333333,112.37142857142857,355.25,112.37142857142857C357.6666666666667,112.37142857142857,360.0833333333333,112.37142857142857,362.5,112.37142857142857C364.9166666666667,112.37142857142857,367.3333333333333,112.37142857142857,369.75,112.37142857142857C372.1666666666667,112.37142857142857,374.5833333333333,112.37142857142857,377,112.37142857142857C379.4166666666667,112.37142857142857,381.8333333333333,112.37142857142857,384.25,112.37142857142857C386.6666666666667,112.37142857142857,389.0833333333333,112.37142857142857,391.5,112.37142857142857C393.9166666666667,112.37142857142857,396.33333333333337,112.37142857142857,398.75000000000006,112.37142857142857C401.16666666666674,112.37142857142857,403.58333333333337,112.37142857142857,406.00000000000006,112.37142857142857C408.4166666666667,112.37142857142857,410.8333333333333,112.37142857142857,413.24999999999994,112.37142857142857C415.66666666666663,112.37142857142857,418.08333333333326,112.37142857142857,420.49999999999994,112.37142857142857C422.91666666666663,112.37142857142857,425.3333333333333,112.37142857142857,427.75,112.37142857142857C430.1666666666667,112.37142857142857,432.5833333333333,112.37142857142857,435,112.37142857142857C437.4166666666667,112.37142857142857,439.8333333333333,112.37142857142857,442.25,112.37142857142857C444.6666666666667,112.37142857142857,447.0833333333333,112.37142857142857,449.5,112.37142857142857C451.9166666666667,112.37142857142857,454.3333333333333,112.37142857142857,456.75,112.37142857142857C459.1666666666667,112.37142857142857,461.5833333333333,112.37142857142857,464,112.37142857142857C466.4166666666667,112.37142857142857,468.8333333333333,112.37142857142857,471.25,112.37142857142857C473.6666666666667,112.37142857142857,476.0833333333333,112.37142857142857,478.5,112.37142857142857C480.9166666666667,112.37142857142857,483.33333333333337,112.37142857142857,485.75000000000006,112.37142857142857C488.16666666666674,112.37142857142857,490.58333333333337,112.37142857142857,493.00000000000006,112.37142857142857C495.4166666666667,112.37142857142857,497.8333333333333,112.37142857142857,500.24999999999994,112.37142857142857C502.66666666666663,112.37142857142857,505.08333333333326,112.37142857142857,507.49999999999994,112.37142857142857C509.91666666666663,112.37142857142857,512.3333333333333,112.37142857142857,514.75,112.37142857142857C517.1666666666666,112.37142857142857,519.5833333333334,112.37142857142857,522,112.37142857142857C524.4166666666666,112.37142857142857,526.8333333333334,112.37142857142857,529.25,112.37142857142857C531.6666666666666,112.37142857142857,534.0833333333334,112.37142857142857,536.5,112.37142857142857C538.9166666666666,112.37142857142857,541.3333333333334,112.37142857142857,543.75,112.37142857142857C546.1666666666666,112.37142857142857,548.5833333333334,112.37142857142857,551,112.37142857142857C553.4166666666666,112.37142857142857,555.8333333333334,112.37142857142857,558.25,112.37142857142857C560.6666666666666,112.37142857142857,563.0833333333334,112.37142857142857,565.5,112.37142857142857C567.9166666666666,112.37142857142857,570.3333333333334,112.37142857142857,572.75,112.37142857142857C575.1666666666666,112.37142857142857,577.5833333333334,112.37142857142857,580,112.37142857142857C582.4166666666666,112.37142857142857,584.8333333333334,112.37142857142857,587.25,112.37142857142857C589.6666666666666,112.37142857142857,592.0833333333334,112.37142857142857,594.5,112.37142857142857C596.9166666666666,112.37142857142857,599.3333333333334,112.37142857142857,601.75,112.37142857142857C604.1666666666666,112.37142857142857,606.5833333333334,112.37142857142857,609,112.37142857142857C611.4166666666666,112.37142857142857,613.8333333333334,112.37142857142857,616.25,112.37142857142857C618.6666666666666,112.37142857142857,621.0833333333334,112.37142857142857,623.5,112.37142857142857C625.9166666666666,112.37142857142857,628.3333333333334,112.37142857142857,630.75,112.37142857142857C633.1666666666666,112.37142857142857,635.5833333333334,112.37142857142857,638,112.37142857142857C640.4166666666666,112.37142857142857,642.8333333333334,112.37142857142857,645.25,112.37142857142857C647.6666666666666,112.37142857142857,650.0833333333334,112.37142857142857,652.5,112.37142857142857C654.9166666666666,112.37142857142857,657.3333333333334,112.37142857142857,659.75,112.37142857142857C662.1666666666666,112.37142857142857,664.5833333333334,112.37142857142857,667,112.37142857142857C669.4166666666666,112.37142857142857,671.8333333333334,112.37142857142857,674.25,112.37142857142857C676.6666666666666,112.37142857142857,679.0833333333334,112.37142857142857,681.5,112.37142857142857C683.9166666666666,112.37142857142857,686.3333333333334,112.37142857142857,688.75,112.37142857142857C691.1666666666666,112.37142857142857,693.5833333333334,112.37142857142857,696,112.37142857142857C698.4166666666666,112.37142857142857,700.8333333333334,112.37142857142857,703.25,112.37142857142857C705.6666666666666,112.37142857142857,708.0833333333334,112.37142857142857,710.5,112.37142857142857C712.9166666666666,112.37142857142857,715.3333333333334,112.37142857142857,717.75,112.37142857142857C720.1666666666666,112.37142857142857,722.5833333333334,112.37142857142857,725,112.37142857142857C727.4166666666666,112.37142857142857,729.8333333333334,112.37142857142857,732.25,112.37142857142857C734.6666666666666,112.37142857142857,737.0833333333334,112.37142857142857,739.5,112.37142857142857C741.9166666666666,112.37142857142857,744.3333333333334,112.37142857142857,746.75,112.37142857142857C749.1666666666666,112.37142857142857,751.5833333333334,112.37142857142857,754,112.37142857142857C756.4166666666666,112.37142857142857,758.8333333333334,112.37142857142857,761.25,112.37142857142857C763.6666666666666,112.37142857142857,766.0833333333334,112.37142857142857,768.5,112.37142857142857C770.9166666666666,112.37142857142857,773.3333333333334,112.37142857142857,775.75,112.37142857142857C778.1666666666666,112.37142857142857,780.5833333333334,112.37142857142857,783,112.37142857142857C785.4166666666667,112.37142857142857,787.8333333333334,112.37142857142857,790.2500000000001,112.37142857142857C792.6666666666667,112.37142857142857,795.0833333333335,112.37142857142857,797.5000000000001,112.37142857142857C799.9166666666667,112.37142857142857,802.3333333333335,112.37142857142857,804.7500000000001,112.37142857142857C807.1666666666667,112.37142857142857,809.5833333333335,112.37142857142857,812.0000000000001,112.37142857142857C814.4166666666667,112.37142857142857,816.8333333333333,112.37142857142857,819.2499999999999,112.37142857142857C821.6666666666665,112.37142857142857,824.0833333333333,112.37142857142857,826.4999999999999,112.37142857142857C828.9166666666665,112.37142857142857,831.3333333333333,112.37142857142857,833.7499999999999,112.37142857142857C836.1666666666665,112.37142857142857,838.5833333333333,112.37142857142857,840.9999999999999,112.37142857142857C843.4166666666666,112.37142857142857,845.8333333333333,112.37142857142857,848.25,112.37142857142857C850.6666666666666,112.37142857142857,853.0833333333334,112.37142857142857,855.5,112.37142857142857C857.9166666666666,112.37142857142857,860.3333333333334,112.37142857142857,862.75,112.37142857142857C865.1666666666666,112.37142857142857,867.5833333333334,112.37142857142857,870,112.37142857142857C872.4166666666666,112.37142857142857,874.8333333333334,112.37142857142857,877.25,112.37142857142857C879.6666666666666,112.37142857142857,882.0833333333334,112.37142857142857,884.5,112.37142857142857C886.9166666666666,112.37142857142857,889.3333333333334,112.37142857142857,891.75,112.37142857142857C894.1666666666666,112.37142857142857,896.5833333333334,112.37142857142857,899,112.37142857142857C901.4166666666666,112.37142857142857,903.8333333333334,112.37142857142857,906.25,112.37142857142857C908.6666666666666,112.37142857142857,911.0833333333334,112.37142857142857,913.5,112.37142857142857C915.9166666666666,112.37142857142857,918.3333333333334,112.37142857142857,920.75,112.37142857142857C923.1666666666666,112.37142857142857,925.5833333333334,112.37142857142857,928,112.37142857142857C930.4166666666666,112.37142857142857,932.8333333333334,112.37142857142857,935.25,112.37142857142857C937.6666666666666,112.37142857142857,940.0833333333334,112.37142857142857,942.5,112.37142857142857C944.9166666666666,112.37142857142857,947.3333333333334,112.37142857142857,949.75,112.37142857142857C952.1666666666666,112.37142857142857,954.5833333333334,112.37142857142857,957,112.37142857142857C959.4166666666666,112.37142857142857,961.8333333333334,112.37142857142857,964.25,112.37142857142857C966.6666666666667,112.37142857142857,969.0833333333334,112.37142857142857,971.5000000000001,112.37142857142857C973.9166666666667,112.37142857142857,976.3333333333335,112.37142857142857,978.7500000000001,112.37142857142857C981.1666666666667,112.37142857142857,983.5833333333335,112.37142857142857,986.0000000000001,112.37142857142857C988.4166666666667,112.37142857142857,990.8333333333335,112.37142857142857,993.2500000000001,112.37142857142857C995.6666666666667,112.37142857142857,998.0833333333333,112.37142857142857,1000.4999999999999,112.37142857142857C1002.9166666666665,112.37142857142857,1005.3333333333333,112.37142857142857,1007.7499999999999,112.37142857142857C1010.1666666666665,112.37142857142857,1012.5833333333333,112.37142857142857,1014.9999999999999,112.37142857142857C1017.4166666666665,112.37142857142857,1019.8333333333333,112.37142857142857,1022.2499999999999,112.37142857142857C1024.6666666666665,112.37142857142857,1027.0833333333333,112.37142857142857,1029.5,112.37142857142857C1031.9166666666667,112.37142857142857,1034.3333333333333,112.37142857142857,1036.75,112.37142857142857C1039.1666666666667,112.37142857142857,1041.5833333333333,112.37142857142857,1044,112.37142857142857C1046.4166666666667,112.37142857142857,1048.8333333333333,112.37142857142857,1051.25,112.37142857142857C1053.6666666666667,112.37142857142857,1056.0833333333333,112.37142857142857,1058.5,112.37142857142857C1060.9166666666667,112.37142857142857,1063.3333333333333,112.37142857142857,1065.75,112.37142857142857C1068.1666666666667,112.37142857142857,1070.5833333333333,112.37142857142857,1073,112.37142857142857C1075.4166666666667,112.37142857142857,1077.8333333333333,112.37142857142857,1080.25,112.37142857142857C1082.6666666666667,112.37142857142857,1085.0833333333333,112.37142857142857,1087.5,112.37142857142857C1089.9166666666667,112.37142857142857,1092.3333333333333,112.37142857142857,1094.75,112.37142857142857C1097.1666666666667,112.37142857142857,1099.5833333333333,112.37142857142857,1102,112.37142857142857C1104.4166666666667,112.37142857142857,1106.8333333333333,112.37142857142857,1109.25,112.37142857142857C1111.6666666666667,112.37142857142857,1114.0833333333333,112.37142857142857,1116.5,112.37142857142857C1118.9166666666667,112.37142857142857,1121.3333333333333,112.37142857142857,1123.75,112.37142857142857C1126.1666666666667,112.37142857142857,1128.5833333333333,112.37142857142857,1131,112.37142857142857C1133.4166666666667,112.37142857142857,1135.8333333333333,112.37142857142857,1138.25,112.37142857142857C1140.6666666666667,112.37142857142857,1143.0833333333333,112.37142857142857,1145.5,112.37142857142857C1147.9166666666667,112.37142857142857,1150.3333333333333,112.37142857142857,1152.75,112.37142857142857C1155.1666666666667,112.37142857142857,1157.5833333333333,112.37142857142857,1160,112.37142857142857C1162.4166666666667,112.37142857142857,1164.8333333333333,112.37142857142857,1167.25,112.37142857142857C1169.6666666666667,112.37142857142857,1172.0833333333333,112.37142857142857,1174.5,112.37142857142857C1176.9166666666667,112.37142857142857,1179.3333333333333,112.37142857142857,1181.75,112.37142857142857C1184.1666666666667,112.37142857142857,1186.5833333333333,112.37142857142857,1189,112.37142857142857C1191.4166666666667,112.37142857142857,1193.8333333333333,112.37142857142857,1196.25,112.37142857142857C1198.6666666666667,112.37142857142857,1201.0833333333333,112.37142857142857,1203.5,112.37142857142857C1205.9166666666667,112.37142857142857,1208.3333333333333,112.37142857142857,1210.75,112.37142857142857C1213.1666666666667,112.37142857142857,1215.5833333333333,112.37142857142857,1218,112.37142857142857C1220.4166666666667,112.37142857142857,1222.8333333333333,112.37142857142857,1225.25,112.37142857142857C1227.6666666666667,112.37142857142857,1230.0833333333333,112.37142857142857,1232.5,112.37142857142857C1234.9166666666667,112.37142857142857,1237.3333333333333,112.37142857142857,1239.75,112.37142857142857C1242.1666666666667,112.37142857142857,1244.5833333333333,112.37142857142857,1247,112.37142857142857C1249.4166666666667,112.37142857142857,1251.8333333333333,112.37142857142857,1254.25,112.37142857142857C1256.6666666666667,112.37142857142857,1259.0833333333333,112.37142857142857,1261.5,112.37142857142857C1263.9166666666667,112.37142857142857,1266.3333333333333,112.37142857142857,1268.75,112.37142857142857C1271.1666666666667,112.37142857142857,1273.5833333333333,112.37142857142857,1276,112.37142857142857C1278.4166666666667,112.37142857142857,1280.8333333333333,112.37142857142857,1283.25,112.37142857142857C1285.6666666666667,112.37142857142857,1288.0833333333333,112.37142857142857,1290.5,112.37142857142857C1292.9166666666667,112.37142857142857,1295.3333333333333,112.37142857142857,1297.75,112.37142857142857C1300.1666666666667,112.37142857142857,1302.5833333333333,112.37142857142857,1305,112.37142857142857C1307.4166666666667,112.37142857142857,1309.8333333333333,112.37142857142857,1312.25,112.37142857142857C1314.6666666666667,112.37142857142857,1317.0833333333333,112.37142857142857,1319.5,112.37142857142857C1321.9166666666667,112.37142857142857,1324.3333333333333,112.37142857142857,1326.75,112.37142857142857C1329.1666666666667,112.37142857142857,1331.5833333333333,112.37142857142857,1334,112.37142857142857C1336.4166666666667,112.37142857142857,1338.8333333333333,112.37142857142857,1341.25,112.37142857142857C1343.6666666666667,112.37142857142857,1346.0833333333333,112.37142857142857,1348.5,112.37142857142857C1350.9166666666667,112.37142857142857,1353.3333333333333,112.37142857142857,1355.75,112.37142857142857C1358.1666666666667,112.37142857142857,1360.5833333333333,112.37142857142857,1363,112.37142857142857C1365.4166666666667,112.37142857142857,1367.8333333333333,112.37142857142857,1370.25,112.37142857142857C1372.6666666666667,112.37142857142857,1375.0833333333333,112.37142857142857,1377.5,112.37142857142857C1379.9166666666667,112.37142857142857,1382.3333333333333,112.37142857142857,1384.75,112.37142857142857C1387.1666666666667,112.37142857142857,1389.5833333333333,112.37142857142857,1392,112.37142857142857C1394.4166666666667,112.37142857142857,1396.8333333333333,112.37142857142857,1399.25,112.37142857142857C1401.6666666666667,112.37142857142857,1404.0833333333333,112.37142857142857,1406.5,112.37142857142857C1408.9166666666667,112.37142857142857,1411.3333333333333,112.37142857142857,1413.75,112.37142857142857C1416.1666666666667,112.37142857142857,1418.5833333333333,112.37142857142857,1421,112.37142857142857C1423.4166666666667,112.37142857142857,1425.8333333333333,112.37142857142857,1428.25,112.37142857142857C1430.6666666666667,112.37142857142857,1433.0833333333333,112.37142857142857,1435.5,112.37142857142857C1437.9166666666667,112.37142857142857,1440.3333333333333,112.37142857142857,1442.75,112.37142857142857C1445.1666666666667,112.37142857142857,1447.5833333333333,112.37142857142857,1450,112.37142857142857" fill="transparent" stroke-linecap="round" stroke="#E7C6DF" stroke-width="2"></path><g class="visx-group visx-axis visx-axis-bottom" transform="translate(0, 115)"><g class="visx-group visx-axis-tick" transform="translate(0, 0)"><line class="visx-line" x1="0" y1="0" x2="0" y2="8" fill="transparent" shape-rendering="crispEdges" stroke="#000" stroke-width="0" stroke-linecap="square"></line><svg x="0" y="0" font-size="10" style="overflow:visible"><text transform="" x="0" y="18" fill="#000" font-size="10" text-anchor="middle"><tspan x="0" dy="0em">0%</tspan></text></svg></g><g class="visx-group visx-axis-tick" transform="translate(0, 0)"><line class="visx-line" x1="362.5" y1="0" x2="362.5" y2="8" fill="transparent" shape-rendering="crispEdges" stroke="#000" stroke-width="0" stroke-linecap="square"></line><svg x="0" y="0" font-size="10" style="overflow:visible"><text transform="" x="362.5" y="18" fill="#000" font-size="10" text-anchor="middle"><tspan x="362.5" dy="0em">25%</tspan></text></svg></g><g class="visx-group visx-axis-tick" transform="translate(0, 0)"><line class="visx-line" x1="725" y1="0" x2="725" y2="8" fill="transparent" shape-rendering="crispEdges" stroke="#000" stroke-width="0" stroke-linecap="square"></line><svg x="0" y="0" font-size="10" style="overflow:visible"><text transform="" x="725" y="18" fill="#000" font-size="10" text-anchor="middle"><tspan x="725" dy="0em">50%</tspan></text></svg></g><g class="visx-group visx-axis-tick" transform="translate(0, 0)"><line class="visx-line" x1="1087.5" y1="0" x2="1087.5" y2="8" fill="transparent" shape-rendering="crispEdges" stroke="#000" stroke-width="0" stroke-linecap="square"></line><svg x="0" y="0" font-size="10" style="overflow:visible"><text transform="" x="1087.5" y="18" fill="#000" font-size="10" text-anchor="middle"><tspan x="1087.5" dy="0em">75%</tspan></text></svg></g><g class="visx-group visx-axis-tick" transform="translate(0, 0)"><line class="visx-line" x1="1450" y1="0" x2="1450" y2="8" fill="transparent" shape-rendering="crispEdges" stroke="#000" stroke-width="0" stroke-linecap="square"></line><svg x="0" y="0" font-size="10" style="overflow:visible"><text transform="" x="1450" y="18" fill="#000" font-size="10" text-anchor="middle"><tspan x="1450" dy="0em">100%</tspan></text></svg></g><line class="visx-line visx-axis-line" x1="0.5" y1="0" x2="1450.5" y2="0" fill="transparent" shape-rendering="crispEdges" stroke="#222" stroke-width="0"></line></g><g class="visx-group visx-axis visx-axis-left" transform="translate(0, 0)"><g class="visx-group visx-axis-tick" transform="translate(0, 0)"><line class="visx-line" x1="0" y1="115" x2="-8" y2="115" fill="transparent" shape-rendering="crispEdges" stroke="#222" stroke-width="0" stroke-linecap="square"></line><svg x="-30" y="0" font-size="8" style="overflow:visible"><text transform="" x="-8" y="115" fill="#000" font-size="8" text-anchor="start"><tspan x="-8" dy="0em">0%</tspan></text></svg></g><g class="visx-group visx-axis-tick" transform="translate(0, 0)"><line class="visx-line" x1="0" y1="73.92857142857142" x2="-8" y2="73.92857142857142" fill="transparent" shape-rendering="crispEdges" stroke="#222" stroke-width="0" stroke-linecap="square"></line><svg x="-30" y="0" font-size="8" style="overflow:visible"><text transform="" x="-8" y="73.92857142857142" fill="#000" font-size="8" text-anchor="start"><tspan x="-8" dy="0em">50%</tspan></text></svg></g><g class="visx-group visx-axis-tick" transform="translate(0, 0)"><line class="visx-line" x1="0" y1="32.857142857142854" x2="-8" y2="32.857142857142854" fill="transparent" shape-rendering="crispEdges" stroke="#222" stroke-width="0" stroke-linecap="square"></line><svg x="-30" y="0" font-size="8" style="overflow:visible"><text transform="" x="-8" y="32.857142857142854" fill="#000" font-size="8" text-anchor="start"><tspan x="-8" dy="0em">100%</tspan></text></svg></g><line class="visx-line visx-axis-line" x1="0" y1="115.5" x2="0" y2="0.5" fill="transparent" shape-rendering="crispEdges" stroke="#222" stroke-width="0"></line></g><rect class="visx-bar" width="1450" height="115" fill="transparent"></rect><line class="visx-line" x1="1305" y1="28" x2="1305" y2="115" fill="transparent" shape-rendering="crispEdges" stroke="#0062D2" stroke-width="1" pointer-events="none" stroke-dasharray="5,2"></line><svg x="0" y="0" font-size="10px" style="overflow:visible"><text transform="" x="1305" y="20" font-size="10px" fill="#fff" stroke="#fff" stroke-width="0.8em" text-anchor="middle"><tspan x="1305" dy="0.355em">Optimal 90%</tspan></text></svg><svg x="0" y="0" font-size="10px" style="overflow:visible"><text transform="" x="1305" y="20" font-size="10px" fill="#62677B" text-anchor="middle"><tspan x="1305" dy="0.355em">Optimal 90%</tspan></text></svg></g></svg>