<?xml version="1.0"?><svg xmlns="http://www.w3.org/2000/svg" xmlns:xlink= "http://www.w3.org/1999/xlink" style="background: white;" width="1500" height="185"> <g style="color: black; font-size: 13px; font-family: sans-serif; transform: translate(18px, 25px);"><g><circle r="3" cx="-6" cy="-5" style="fill: #B6509E" /><text>Borrow APR, variable</text></g><g style="transform: translateX(150px);"><circle r="3" cx="-6" cy="-5" style="fill: rgb(231, 198, 223)" /><text>Borrow APR, stable</text></g><g style="transform: translateX(290px);"><circle r="3" cx="-6" cy="-5" style="fill: rgb(0, 98, 210)" /><text>Utilization Rate</text></g></g><g class="visx-group" transform="translate(40, 50)"><g class="visx-group visx-rows" transform="translate(0, 0)"><line class="visx-line" x1="0" y1="115" x2="1450" y2="115" fill="transparent" shape-rendering="crispEdges" stroke="#000" stroke-width="1" stroke-dasharray="3,3" pointer-events="none"></line><line class="visx-line" x1="0" y1="86.25" x2="1450" y2="86.25" fill="transparent" shape-rendering="crispEdges" stroke="#000" stroke-width="1" stroke-dasharray="3,3" pointer-events="none"></line><line class="visx-line" x1="0" y1="57.5" x2="1450" y2="57.5" fill="transparent" shape-rendering="crispEdges" stroke="#000" stroke-width="1" stroke-dasharray="3,3" pointer-events="none"></line><line class="visx-line" x1="0" y1="28.75" x2="1450" y2="28.75" fill="transparent" shape-rendering="crispEdges" stroke="#000" stroke-width="1" stroke-dasharray="3,3" pointer-events="none"></line><line class="visx-line" x1="0" y1="0" x2="1450" y2="0" fill="transparent" shape-rendering="crispEdges" stroke="#000" stroke-width="1" stroke-dasharray="3,3" pointer-events="none"></line></g><path class="visx-linepath" d="M0,114.99999999964224C2.4166666666666665,114.94037268492059,4.833333333333334,114.88074537019895,7.25,114.82111805538786C9.666666666666666,114.76149074057676,12.083333333333334,114.70186342564641,14.5,114.64223611077568C16.916666666666668,114.58260879590496,19.333333333333332,114.52298148103426,21.75,114.46335416616354C24.166666666666668,114.40372685129282,26.583333333333332,114.34409953642209,29,114.28447222155137C31.416666666666668,114.22484490668064,33.833333333333336,114.16521759180993,36.25,114.10559027693922C38.666666666666664,114.04596296206851,41.083333333333336,113.9863356471978,43.5,113.92670833232708C45.91666666666667,113.86708101745636,48.333333333333336,113.80745370258563,50.75000000000001,113.74782638771491C53.16666666666667,113.68819907284418,55.583333333333336,113.62857175797348,58,113.56894444310277C60.416666666666664,113.50931712823204,62.833333333333336,113.44968981336133,65.25,113.39006249849061C67.66666666666667,113.33043518361988,70.08333333333333,113.27080786874916,72.5,113.21118055387845C74.91666666666667,113.15155323900774,77.33333333333333,113.09192592413703,79.75,113.0322986092663C82.16666666666667,112.97267129439558,84.58333333333333,112.91304397952486,87,112.85341666465413C89.41666666666667,112.79378934978341,91.83333333333333,112.7341620349127,94.25,112.67453472004199C96.66666666666667,112.61490740517127,99.08333333333334,112.55528009030056,101.50000000000001,112.49565277542983C103.91666666666667,112.43602546055911,106.33333333333334,112.37639814568838,108.75,112.31677083081767C111.16666666666667,112.25714351594695,113.58333333333333,112.19751620107625,116,112.13788888620553C118.41666666666667,112.0782615713348,120.83333333333334,112.01863425646408,123.25000000000001,111.95900694159336C125.66666666666667,111.89937962672263,128.08333333333334,111.83975231185192,130.5,111.78012499698121C132.91666666666666,111.7204976821105,135.33333333333334,111.6608703672398,137.75,111.60124305236907C140.16666666666666,111.54161573749835,142.58333333333334,111.48198842262762,145,111.4223611077569C147.41666666666666,111.36273379288617,149.83333333333334,111.30310647801548,152.25,111.24347916314476C154.66666666666666,111.18385184827403,157.08333333333334,111.12422453340332,159.5,111.0645972185326C161.91666666666666,111.00496990366187,164.33333333333334,110.94534258879116,166.75,110.88571527392044C169.16666666666666,110.82608795904972,171.58333333333334,110.76646064417902,174,110.7068333293083C176.41666666666666,110.64720601443757,178.83333333333334,110.58757869956685,181.25,110.52795138469612C183.66666666666666,110.4683240698254,186.08333333333334,110.40869675495469,188.5,110.34906944008398C190.91666666666666,110.28944212521327,193.33333333333334,110.22981481034255,195.75,110.17018749547182C198.16666666666669,110.1105601806011,200.58333333333334,110.05093286573039,203.00000000000003,109.99130555085966C205.41666666666669,109.93167823598895,207.83333333333331,109.87205092111824,210.24999999999997,109.81242360624752C212.66666666666666,109.7527962913768,215.08333333333331,109.69316897650607,217.5,109.63354166163535C219.91666666666666,109.57391434676462,222.33333333333334,109.51428703189393,224.75,109.4546597170232C227.16666666666666,109.39503240215248,229.58333333333334,109.33540508728177,232,109.27577777241105C234.41666666666666,109.21615045754032,236.83333333333334,109.1565231426696,239.25,109.09689582779889C241.66666666666669,109.03726851292816,244.08333333333334,108.97764119805747,246.50000000000003,108.91801388318675C248.91666666666669,108.85838656831604,251.33333333333331,108.79875925344531,253.74999999999997,108.73913193857459C256.16666666666663,108.67950462370386,258.5833333333333,108.61987730883315,261,108.56024999396243C263.4166666666667,108.50062267909172,265.8333333333333,108.44099536422101,268.25,108.38136804935029C270.6666666666667,108.32174073447956,273.0833333333333,108.26211341960884,275.5,108.20248610473811C277.9166666666667,108.14285878986739,280.3333333333333,108.0832314749967,282.75,108.02360416012597C285.1666666666667,107.96397684525525,287.5833333333333,107.90434953038454,290,107.84472221551381C292.4166666666667,107.78509490064309,294.8333333333333,107.72546758577238,297.25,107.66584027090165C299.6666666666667,107.60621295603093,302.0833333333333,107.54658564116023,304.5,107.48695832628951C306.9166666666667,107.42733101141879,309.3333333333333,107.36770369654806,311.75,107.30807638167734C314.1666666666667,107.24844906680661,316.5833333333333,107.1888217519359,319,107.1291944370652C321.4166666666667,107.06956712219448,323.8333333333333,107.00993980732376,326.25,106.95031249245304C328.6666666666667,106.89068517758231,331.0833333333333,106.83105786271159,333.5,106.77143054784088C335.9166666666667,106.71180323297017,338.3333333333333,106.65217591809946,340.75,106.59254860322874C343.1666666666667,106.53292128835801,345.5833333333333,106.4732939734873,348,106.41366665861658C350.4166666666667,106.35403934374585,352.8333333333333,106.29441202887514,355.25,106.23478471400442C357.6666666666667,106.1751573991337,360.0833333333333,106.11553008426299,362.5,106.05590276939226C364.9166666666667,105.99627545452154,367.3333333333333,105.93664813965083,369.75,105.8770208247801C372.1666666666667,105.81739350990938,374.5833333333333,105.75776619503868,377,105.69813888016796C379.4166666666667,105.63851156529724,381.8333333333333,105.57888425042651,384.25,105.51925693555579C386.6666666666667,105.45962962068506,389.0833333333333,105.40000230581435,391.5,105.34037499094364C393.9166666666667,105.28074767607292,396.33333333333337,105.22112036120221,398.75000000000006,105.16149304633149C401.16666666666674,105.10186573146076,403.58333333333337,105.04223841659005,406.00000000000006,104.98261110171933C408.4166666666667,104.92298378684862,410.8333333333333,104.8633564719779,413.24999999999994,104.80372915710718C415.66666666666663,104.74410184223646,418.08333333333326,104.68447452736575,420.49999999999994,104.62484721249503C422.91666666666663,104.5652198976243,425.3333333333333,104.5055925827536,427.75,104.44596526788287C430.1666666666667,104.38633795301216,432.5833333333333,104.32671063814144,435,104.26708332327073C437.4166666666667,104.20745600840002,439.8333333333333,104.14782869352929,442.25,104.08820137865857C444.6666666666667,104.02857406378784,447.0833333333333,103.96894674891713,449.5,103.90931943404641C451.9166666666667,103.84969211917569,454.3333333333333,103.79006480430498,456.75,103.73043748943425C459.1666666666667,103.67081017456353,461.5833333333333,103.6111828596928,464,103.5515555448221C466.4166666666667,103.49192822995138,468.8333333333333,103.43230091508067,471.25,103.37267360020995C473.6666666666667,103.31304628533923,476.0833333333333,103.25341897046852,478.5,103.19379165559779C480.9166666666667,103.13416434072707,483.33333333333337,103.07453702585636,485.75000000000006,103.01490971098563C488.16666666666674,102.95528239611491,490.58333333333337,102.8956550812442,493.00000000000006,102.83602776637348C495.4166666666667,102.77640045150275,497.8333333333333,102.71677313663203,500.24999999999994,102.65714582176132C502.66666666666663,102.5975185068906,505.08333333333326,102.53789119201988,507.49999999999994,102.47826387714917C509.91666666666663,102.41863656227845,512.3333333333333,102.35900924740774,514.75,102.29938193253702C517.1666666666666,102.23975461766629,519.5833333333334,102.18012730279558,522,102.12049998792486C524.4166666666666,102.06087267305413,526.8333333333334,102.00124535818343,529.25,101.9416180433127C531.6666666666666,101.88199072844198,534.0833333333334,101.82236341357125,536.5,101.76273609870054C538.9166666666666,101.70310878382983,541.3333333333334,101.64348146895912,543.75,101.5838541540884C546.1666666666666,101.52422683921768,548.5833333333334,101.46459952434697,551,101.40497220947624C553.4166666666666,101.34534489460552,555.8333333333334,101.28571757973481,558.25,101.22609026486408C560.6666666666666,101.16646294999336,563.0833333333334,101.10683563512265,565.5,101.04720832025194C567.9166666666666,100.98758100538123,570.3333333333334,100.9279536905105,572.75,100.86832637563978C575.1666666666666,100.80869906076906,577.5833333333334,100.74907174589835,580,100.68944443102762C582.4166666666666,100.6298171161569,584.8333333333334,100.57018980128619,587.25,100.51056248641547C589.6666666666666,100.45093517154474,592.0833333333334,100.39130785667402,594.5,100.33168054180331C596.9166666666666,100.2720532269326,599.3333333333334,100.21242591206189,601.75,100.15279859719116C604.1666666666666,100.09317128232044,606.5833333333334,100.03354396744973,609,99.973916652579C611.4166666666666,99.91428933770828,613.8333333333334,99.85466202283757,616.25,99.79503470796685C618.6666666666666,99.73540739309612,621.0833333333334,99.67578007822542,623.5,99.61615276335469C625.9166666666666,99.55652544848397,628.3333333333334,99.49689813361326,630.75,99.43727081874255C633.1666666666666,99.37764350387184,635.5833333333334,99.31801618900111,638,99.25838887413039C640.4166666666666,99.19876155925967,642.8333333333334,99.13913424438894,645.25,99.07950692951822C647.6666666666666,99.0198796146475,650.0833333333334,98.96025229977681,652.5,98.90062498490609C654.9166666666666,98.84099767003536,657.3333333333334,98.78137035516464,659.75,98.72174304029392C662.1666666666666,98.66211572542319,664.5833333333334,98.60248841055247,667,98.54286109568176C669.4166666666666,98.48323378081105,671.8333333333334,98.42360646594034,674.25,98.36397915106961C676.6666666666666,98.30435183619889,679.0833333333334,98.24472452132818,681.5,98.18509720645746C683.9166666666666,98.12546989158673,686.3333333333334,98.06584257671602,688.75,98.0062152618453C691.1666666666666,97.94658794697457,693.5833333333334,97.88696063210386,696,97.82733331723315C698.4166666666666,97.76770600236244,700.8333333333334,97.70807868749172,703.25,97.648451372621C705.6666666666666,97.58882405775027,708.0833333333334,97.52919674287956,710.5,97.46956942800884C712.9166666666666,97.40994211313811,715.3333333333334,97.35031479826739,717.75,97.29068748339668C720.1666666666666,97.23106016852597,722.5833333333334,97.17143285365526,725,97.11180553878454C727.4166666666666,97.05217822391381,729.8333333333334,96.9925509090431,732.25,96.93292359417238C734.6666666666666,96.87329627930166,737.0833333333334,96.81366896443092,739.5,96.75404164956021C741.9166666666666,96.6944143346895,744.3333333333334,96.63478701981879,746.75,96.57515970494808C749.1666666666666,96.51553239007737,751.5833333333334,96.45590507520663,754,96.3962777603359C756.4166666666666,96.33665044546518,758.8333333333334,96.27702313059447,761.25,96.21739581572375C763.6666666666666,96.15776850085302,766.0833333333334,96.09814118598231,768.5,96.0385138711116C770.9166666666666,95.9788865562409,773.3333333333334,95.91925924137017,775.75,95.85963192649945C778.1666666666666,95.80000461162872,780.5833333333334,95.74037729675801,783,95.68074998188729C785.4166666666667,95.62112266701656,787.8333333333334,95.56149535214585,790.2500000000001,95.50186803727513C792.6666666666667,95.44224072240442,795.0833333333335,95.38261340753371,797.5000000000001,95.32298609266299C799.9166666666667,95.26335877779226,802.3333333333335,95.20373146292155,804.7500000000001,95.14410414805083C807.1666666666667,95.0844768331801,809.5833333333335,95.0248495183094,812.0000000000001,94.96522220343867C814.4166666666667,94.90559488856796,816.8333333333333,94.84596757369725,819.2499999999999,94.78634025882653C821.6666666666665,94.7267129439558,824.0833333333333,94.66708562908508,826.4999999999999,94.60745831421436C828.9166666666665,94.54783099934363,831.3333333333333,94.48820368447291,833.7499999999999,94.4285763696022C836.1666666666665,94.36894905473149,838.5833333333333,94.30932173986078,840.9999999999999,94.24969442499007C843.4166666666666,94.19006711011934,845.8333333333333,94.13043979524862,848.25,94.0708124803779C850.6666666666666,94.01118516550717,853.0833333333334,93.95155785063645,855.5,93.89193053576574C857.9166666666666,93.83230322089503,860.3333333333334,93.77267590602432,862.75,93.7130485911536C865.1666666666666,93.65342127628287,867.5833333333334,93.59379396141216,870,93.53416664654144C872.4166666666666,93.47453933167071,874.8333333333334,93.4149120168,877.25,93.35528470192928C879.6666666666666,93.29565738705855,882.0833333333334,93.23603007218784,884.5,93.17640275731712C886.9166666666666,93.1167754424464,889.3333333333334,93.05714812757569,891.75,92.99752081270498C894.1666666666666,92.93789349783427,896.5833333333334,92.87826618296354,899,92.81863886809282C901.4166666666666,92.7590115532221,903.8333333333334,92.69938423835137,906.25,92.63975692348066C908.6666666666666,92.58012960860995,911.0833333333334,92.52050229373924,913.5,92.46087497886852C915.9166666666666,92.4012476639978,918.3333333333334,92.34162034912707,920.75,92.28199303425635C923.1666666666666,92.22236571938562,925.5833333333334,92.1627384045149,928,92.10311108964419C930.4166666666666,92.04348377477348,932.8333333333334,91.98385645990277,935.25,91.92422914503204C937.6666666666666,91.86460183016132,940.0833333333334,91.80497451529061,942.5,91.74534720041989C944.9166666666666,91.68571988554916,947.3333333333334,91.62609257067845,949.75,91.56646525580773C952.1666666666666,91.506837940937,954.5833333333334,91.4472106260663,957,91.38758331119557C959.4166666666666,91.32795599632485,961.8333333333334,91.26832868145414,964.25,91.20870136658343C966.6666666666667,91.1490740517127,969.0833333333334,91.08944673684199,971.5000000000001,91.02981942197127C973.9166666666667,90.97019210710054,976.3333333333335,90.91056479222982,978.7500000000001,90.85093747735911C981.1666666666667,90.7913101624884,983.5833333333335,90.73168284761769,986.0000000000001,90.67205553274697C988.4166666666667,90.61242821787624,990.8333333333335,90.55280090300553,993.2500000000001,90.49317358813481C995.6666666666667,90.43354627326408,998.0833333333333,90.37391895839336,1000.4999999999999,90.31429164352265C1002.9166666666665,90.25466432865193,1005.3333333333333,90.19503701378123,1007.7499999999999,90.13540969891051C1010.1666666666665,90.07578238403978,1012.5833333333333,90.01615506916906,1014.9999999999999,89.95652775429834C1017.4166666666665,89.89690043942761,1019.8333333333333,89.8372731245569,1022.2499999999999,89.77764580968619C1024.6666666666665,89.71801849481547,1027.0833333333333,89.65839117994476,1029.5,89.59876386507403C1031.9166666666667,89.53913655020331,1034.3333333333333,89.4795092353326,1036.75,89.41988192046188C1039.1666666666667,89.36025460559115,1041.5833333333333,89.30062729072044,1044,89.24099997584972C1046.4166666666667,89.181372660979,1048.8333333333333,89.12174534610827,1051.25,89.06211803123756C1053.6666666666667,89.00249071636685,1056.0833333333333,88.94286340149614,1058.5,88.88323608662542C1060.9166666666667,88.82360877175469,1063.3333333333333,88.76398145688398,1065.75,88.70435414201326C1068.1666666666667,88.64472682714253,1070.5833333333333,88.58509951227182,1073,88.5254721974011C1075.4166666666667,88.46584488253038,1077.8333333333333,88.40621756765968,1080.25,88.34659025278896C1082.6666666666667,88.28696293791823,1085.0833333333333,88.22733562304751,1087.5,88.16770830817678C1089.9166666666667,88.10808099330606,1092.3333333333333,88.04845367843535,1094.75,87.98882636356464C1097.1666666666667,87.92919904869393,1099.5833333333333,87.86957173382322,1102,87.8099444189525C1104.4166666666667,87.75031710408177,1106.8333333333333,87.69068978921105,1109.25,87.63106247434033C1111.6666666666667,87.5714351594696,1114.0833333333333,87.5118078445989,1116.5,87.45218052972818C1118.9166666666667,87.39255321485746,1121.3333333333333,87.33292589998673,1123.75,87.27329858511601C1126.1666666666667,87.21367127024529,1128.5833333333333,87.15404395537459,1131,87.09441664050387C1133.4166666666667,87.03478932563314,1135.8333333333333,86.97516201076243,1138.25,86.91553469589171C1140.6666666666667,86.85590738102098,1143.0833333333333,86.79628006615027,1145.5,86.73665275127955C1147.9166666666667,86.67702543640883,1150.3333333333333,86.61739812153812,1152.75,86.5577708066674C1155.1666666666667,86.4981434917967,1157.5833333333333,86.43851617692597,1160,86.37888886205525C1162.4166666666667,86.31926154718452,1164.8333333333333,86.2596342323138,1167.25,86.20000691744309C1169.6666666666667,86.14037960257238,1172.0833333333333,86.08075228770167,1174.5,86.02112497283095C1176.9166666666667,85.96149765796022,1179.3333333333333,85.9018703430895,1181.75,85.84224302821877C1184.1666666666667,85.78261571334805,1186.5833333333333,85.72298839847734,1189,85.66336108360663C1191.4166666666667,85.60373376873592,1193.8333333333333,85.54410645386521,1196.25,85.48447913899449C1198.6666666666667,85.42485182412376,1201.0833333333333,85.36522450925304,1203.5,85.30559719438232C1205.9166666666667,85.24596987951159,1208.3333333333333,85.1863425646409,1210.75,85.12671524977017C1213.1666666666667,85.06708793489945,1215.5833333333333,85.00746062002872,1218,84.947833305158C1220.4166666666667,84.88820599028728,1222.8333333333333,84.82857867541657,1225.25,84.76895136054586C1227.6666666666667,84.70932404567515,1230.0833333333333,84.64969673080442,1232.5,84.5900694159337C1234.9166666666667,84.53044210106297,1237.3333333333333,84.47081478619225,1239.75,84.41118747132154C1242.1666666666667,84.35156015645083,1244.5833333333333,84.29193284158012,1247,84.2323055267094C1249.4166666666667,84.17267821183867,1251.8333333333333,84.11305089696795,1254.25,84.05342358209722C1256.6666666666667,83.9937962672265,1259.0833333333333,83.93416895235579,1261.5,83.87454163748508C1263.9166666666667,83.81491432261437,1266.3333333333333,83.75528700774366,1268.75,83.69565969287294C1271.1666666666667,83.63603237800221,1273.5833333333333,83.57640506313149,1276,83.51677774826076C1278.4166666666667,83.45715043339004,1280.8333333333333,83.39752311851933,1283.25,83.33789580364862C1285.6666666666667,83.27826848877791,1288.0833333333333,83.21864117390719,1290.5,83.15901385903646C1292.9166666666667,83.09938654416574,1295.3333333333333,83.03975922929502,1297.75,82.9801319144243C1300.1666666666667,82.9205045995536,1302.5833333333333,82.86087728468289,1305,82.80124996981216C1307.4166666666667,82.74162265494144,1309.8333333333333,82.68199534007071,1312.25,82.62236802519999C1314.6666666666667,82.56274071032927,1317.0833333333333,82.50311339545857,1319.5,82.44348608058785C1321.9166666666667,82.38385876571712,1324.3333333333333,82.32423145084641,1326.75,82.26460413597569C1329.1666666666667,82.20497682110496,1331.5833333333333,82.14534950623425,1334,82.08572219136353C1336.4166666666667,82.0260948764928,1338.8333333333333,81.96646756162211,1341.25,81.90684024675139C1343.6666666666667,81.84721293188066,1346.0833333333333,81.78758561700994,1348.5,81.72795830213921C1350.9166666666667,81.66833098726849,1353.3333333333333,81.60870367239778,1355.75,81.54907635752707C1358.1666666666667,81.48944904265636,1360.5833333333333,81.42982172778565,1363,81.37019441291493C1365.4166666666667,81.3105670980442,1367.8333333333333,81.25093978317348,1370.25,81.19131246830275C1372.6666666666667,81.13168515343203,1375.0833333333333,81.13168515343204,1377.5,81.01243052369061C1379.9166666666667,80.89317589394918,1382.3333333333333,77.17909719035727,1384.75,75.2624305236906C1387.1666666666667,73.34576385702393,1389.5833333333333,71.42909719035728,1392,69.51243052369061C1394.4166666666667,67.59576385702394,1396.8333333333333,65.67909719035727,1399.25,63.762430523690604C1401.6666666666667,61.84576385702393,1404.0833333333333,59.92909719035726,1406.5,58.0124305236906C1408.9166666666667,56.09576385702393,1411.3333333333333,54.179097190357275,1413.75,52.26243052369061C1416.1666666666667,50.34576385702395,1418.5833333333333,48.42909719035727,1421,46.512430523690604C1423.4166666666667,44.59576385702394,1425.8333333333333,42.679097190357275,1428.25,40.76243052369061C1430.6666666666667,38.84576385702395,1433.0833333333333,36.929097190357275,1435.5,35.012430523690604C1437.9166666666667,33.09576385702393,1440.3333333333333,31.179097190357265,1442.75,29.2624305236906C1445.1666666666667,27.345763857023936,1447.5833333333333,25.42909719035728,1450,23.51243052369062" fill="transparent" stroke-linecap="round" stroke="#B6509E" stroke-width="2"></path><path class="visx-linepath" d="M0,81.01243052369061C2.4166666666666665,81.01243052369061,4.833333333333334,81.01243052369061,7.25,81.01243052369061C9.666666666666666,81.01243052369061,12.083333333333334,81.01243052369061,14.5,81.01243052369061C16.916666666666668,81.01243052369061,19.333333333333332,81.01243052369061,21.75,81.01243052369061C24.166666666666668,81.01243052369061,26.583333333333332,81.01243052369061,29,81.01243052369061C31.416666666666668,81.01243052369061,33.833333333333336,81.01243052369061,36.25,81.01243052369061C38.666666666666664,81.01243052369061,41.083333333333336,81.01243052369061,43.5,81.01243052369061C45.91666666666667,81.01243052369061,48.333333333333336,81.01243052369061,50.75000000000001,81.01243052369061C53.16666666666667,81.01243052369061,55.583333333333336,81.01243052369061,58,81.01243052369061C60.416666666666664,81.01243052369061,62.833333333333336,81.01243052369061,65.25,81.01243052369061C67.66666666666667,81.01243052369061,70.08333333333333,81.01243052369061,72.5,81.01243052369061C74.91666666666667,81.01243052369061,77.33333333333333,81.01243052369061,79.75,81.01243052369061C82.16666666666667,81.01243052369061,84.58333333333333,81.01243052369061,87,81.01243052369061C89.41666666666667,81.01243052369061,91.83333333333333,81.01243052369061,94.25,81.01243052369061C96.66666666666667,81.01243052369061,99.08333333333334,81.01243052369061,101.50000000000001,81.01243052369061C103.91666666666667,81.01243052369061,106.33333333333334,81.01243052369061,108.75,81.01243052369061C111.16666666666667,81.01243052369061,113.58333333333333,81.01243052369061,116,81.01243052369061C118.41666666666667,81.01243052369061,120.83333333333334,81.01243052369061,123.25000000000001,81.01243052369061C125.66666666666667,81.01243052369061,128.08333333333334,81.01243052369061,130.5,81.01243052369061C132.91666666666666,81.01243052369061,135.33333333333334,81.01243052369061,137.75,81.01243052369061C140.16666666666666,81.01243052369061,142.58333333333334,81.01243052369061,145,81.01243052369061C147.41666666666666,81.01243052369061,149.83333333333334,81.01243052369061,152.25,81.01243052369061C154.66666666666666,81.01243052369061,157.08333333333334,81.01243052369061,159.5,81.01243052369061C161.91666666666666,81.01243052369061,164.33333333333334,81.01243052369061,166.75,81.01243052369061C169.16666666666666,81.01243052369061,171.58333333333334,81.01243052369061,174,81.01243052369061C176.41666666666666,81.01243052369061,178.83333333333334,81.01243052369061,181.25,81.01243052369061C183.66666666666666,81.01243052369061,186.08333333333334,81.01243052369061,188.5,81.01243052369061C190.91666666666666,81.01243052369061,193.33333333333334,81.01243052369061,195.75,81.01243052369061C198.16666666666669,81.01243052369061,200.58333333333334,81.01243052369061,203.00000000000003,81.01243052369061C205.41666666666669,81.01243052369061,207.83333333333331,81.01243052369061,210.24999999999997,81.01243052369061C212.66666666666666,81.01243052369061,215.08333333333331,81.01243052369061,217.5,81.01243052369061C219.91666666666666,81.01243052369061,222.33333333333334,81.01243052369061,224.75,81.01243052369061C227.16666666666666,81.01243052369061,229.58333333333334,81.01243052369061,232,81.01243052369061C234.41666666666666,81.01243052369061,236.83333333333334,81.01243052369061,239.25,81.01243052369061C241.66666666666669,81.01243052369061,244.08333333333334,81.01243052369061,246.50000000000003,81.01243052369061C248.91666666666669,81.01243052369061,251.33333333333331,81.01243052369061,253.74999999999997,81.01243052369061C256.16666666666663,81.01243052369061,258.5833333333333,81.01243052369061,261,81.01243052369061C263.4166666666667,81.01243052369061,265.8333333333333,81.01243052369061,268.25,81.01243052369061C270.6666666666667,81.01243052369061,273.0833333333333,81.01243052369061,275.5,81.01243052369061C277.9166666666667,81.01243052369061,280.3333333333333,81.01243052369061,282.75,81.01243052369061C285.1666666666667,81.01243052369061,287.5833333333333,81.01243052369061,290,81.01243052369061C292.4166666666667,81.01243052369061,294.8333333333333,81.01243052369061,297.25,81.01243052369061C299.6666666666667,81.01243052369061,302.0833333333333,81.01243052369061,304.5,81.01243052369061C306.9166666666667,81.01243052369061,309.3333333333333,81.01243052369061,311.75,81.01243052369061C314.1666666666667,81.01243052369061,316.5833333333333,81.01243052369061,319,81.01243052369061C321.4166666666667,81.01243052369061,323.8333333333333,81.01243052369061,326.25,81.01243052369061C328.6666666666667,81.01243052369061,331.0833333333333,81.01243052369061,333.5,81.01243052369061C335.9166666666667,81.01243052369061,338.3333333333333,81.01243052369061,340.75,81.01243052369061C343.1666666666667,81.01243052369061,345.5833333333333,81.01243052369061,348,81.01243052369061C350.4166666666667,81.01243052369061,352.8333333333333,81.01243052369061,355.25,81.01243052369061C357.6666666666667,81.01243052369061,360.0833333333333,81.01243052369061,362.5,81.01243052369061C364.9166666666667,81.01243052369061,367.3333333333333,81.01243052369061,369.75,81.01243052369061C372.1666666666667,81.01243052369061,374.5833333333333,81.01243052369061,377,81.01243052369061C379.4166666666667,81.01243052369061,381.8333333333333,81.01243052369061,384.25,81.01243052369061C386.6666666666667,81.01243052369061,389.0833333333333,81.01243052369061,391.5,81.01243052369061C393.9166666666667,81.01243052369061,396.33333333333337,81.01243052369061,398.75000000000006,81.01243052369061C401.16666666666674,81.01243052369061,403.58333333333337,81.01243052369061,406.00000000000006,81.01243052369061C408.4166666666667,81.01243052369061,410.8333333333333,81.01243052369061,413.24999999999994,81.01243052369061C415.66666666666663,81.01243052369061,418.08333333333326,81.01243052369061,420.49999999999994,81.01243052369061C422.91666666666663,81.01243052369061,425.3333333333333,81.01243052369061,427.75,81.01243052369061C430.1666666666667,81.01243052369061,432.5833333333333,81.01243052369061,435,81.01243052369061C437.4166666666667,81.01243052369061,439.8333333333333,81.01243052369061,442.25,81.01243052369061C444.6666666666667,81.01243052369061,447.0833333333333,81.01243052369061,449.5,81.01243052369061C451.9166666666667,81.01243052369061,454.3333333333333,81.01243052369061,456.75,81.01243052369061C459.1666666666667,81.01243052369061,461.5833333333333,81.01243052369061,464,81.01243052369061C466.4166666666667,81.01243052369061,468.8333333333333,81.01243052369061,471.25,81.01243052369061C473.6666666666667,81.01243052369061,476.0833333333333,81.01243052369061,478.5,81.01243052369061C480.9166666666667,81.01243052369061,483.33333333333337,81.01243052369061,485.75000000000006,81.01243052369061C488.16666666666674,81.01243052369061,490.58333333333337,81.01243052369061,493.00000000000006,81.01243052369061C495.4166666666667,81.01243052369061,497.8333333333333,81.01243052369061,500.24999999999994,81.01243052369061C502.66666666666663,81.01243052369061,505.08333333333326,81.01243052369061,507.49999999999994,81.01243052369061C509.91666666666663,81.01243052369061,512.3333333333333,81.01243052369061,514.75,81.01243052369061C517.1666666666666,81.01243052369061,519.5833333333334,81.01243052369061,522,81.01243052369061C524.4166666666666,81.01243052369061,526.8333333333334,81.01243052369061,529.25,81.01243052369061C531.6666666666666,81.01243052369061,534.0833333333334,81.01243052369061,536.5,81.01243052369061C538.9166666666666,81.01243052369061,541.3333333333334,81.01243052369061,543.75,81.01243052369061C546.1666666666666,81.01243052369061,548.5833333333334,81.01243052369061,551,81.01243052369061C553.4166666666666,81.01243052369061,555.8333333333334,81.01243052369061,558.25,81.01243052369061C560.6666666666666,81.01243052369061,563.0833333333334,81.01243052369061,565.5,81.01243052369061C567.9166666666666,81.01243052369061,570.3333333333334,81.01243052369061,572.75,81.01243052369061C575.1666666666666,81.01243052369061,577.5833333333334,81.01243052369061,580,81.01243052369061C582.4166666666666,81.01243052369061,584.8333333333334,81.01243052369061,587.25,81.01243052369061C589.6666666666666,81.01243052369061,592.0833333333334,81.01243052369061,594.5,81.01243052369061C596.9166666666666,81.01243052369061,599.3333333333334,81.01243052369061,601.75,81.01243052369061C604.1666666666666,81.01243052369061,606.5833333333334,81.01243052369061,609,81.01243052369061C611.4166666666666,81.01243052369061,613.8333333333334,81.01243052369061,616.25,81.01243052369061C618.6666666666666,81.01243052369061,621.0833333333334,81.01243052369061,623.5,81.01243052369061C625.9166666666666,81.01243052369061,628.3333333333334,81.01243052369061,630.75,81.01243052369061C633.1666666666666,81.01243052369061,635.5833333333334,81.01243052369061,638,81.01243052369061C640.4166666666666,81.01243052369061,642.8333333333334,81.01243052369061,645.25,81.01243052369061C647.6666666666666,81.01243052369061,650.0833333333334,81.01243052369061,652.5,81.01243052369061C654.9166666666666,81.01243052369061,657.3333333333334,81.01243052369061,659.75,81.01243052369061C662.1666666666666,81.01243052369061,664.5833333333334,81.01243052369061,667,81.01243052369061C669.4166666666666,81.01243052369061,671.8333333333334,81.01243052369061,674.25,81.01243052369061C676.6666666666666,81.01243052369061,679.0833333333334,81.01243052369061,681.5,81.01243052369061C683.9166666666666,81.01243052369061,686.3333333333334,81.01243052369061,688.75,81.01243052369061C691.1666666666666,81.01243052369061,693.5833333333334,81.01243052369061,696,81.01243052369061C698.4166666666666,81.01243052369061,700.8333333333334,81.01243052369061,703.25,81.01243052369061C705.6666666666666,81.01243052369061,708.0833333333334,81.01243052369061,710.5,81.01243052369061C712.9166666666666,81.01243052369061,715.3333333333334,81.01243052369061,717.75,81.01243052369061C720.1666666666666,81.01243052369061,722.5833333333334,81.01243052369061,725,81.01243052369061C727.4166666666666,81.01243052369061,729.8333333333334,81.01243052369061,732.25,81.01243052369061C734.6666666666666,81.01243052369061,737.0833333333334,81.01243052369061,739.5,81.01243052369061C741.9166666666666,81.01243052369061,744.3333333333334,81.01243052369061,746.75,81.01243052369061C749.1666666666666,81.01243052369061,751.5833333333334,81.01243052369061,754,81.01243052369061C756.4166666666666,81.01243052369061,758.8333333333334,81.01243052369061,761.25,81.01243052369061C763.6666666666666,81.01243052369061,766.0833333333334,81.01243052369061,768.5,81.01243052369061C770.9166666666666,81.01243052369061,773.3333333333334,81.01243052369061,775.75,81.01243052369061C778.1666666666666,81.01243052369061,780.5833333333334,81.01243052369061,783,81.01243052369061C785.4166666666667,81.01243052369061,787.8333333333334,81.01243052369061,790.2500000000001,81.01243052369061C792.6666666666667,81.01243052369061,795.0833333333335,81.01243052369061,797.5000000000001,81.01243052369061C799.9166666666667,81.01243052369061,802.3333333333335,81.01243052369061,804.7500000000001,81.01243052369061C807.1666666666667,81.01243052369061,809.5833333333335,81.01243052369061,812.0000000000001,81.01243052369061C814.4166666666667,81.01243052369061,816.8333333333333,81.01243052369061,819.2499999999999,81.01243052369061C821.6666666666665,81.01243052369061,824.0833333333333,81.01243052369061,826.4999999999999,81.01243052369061C828.9166666666665,81.01243052369061,831.3333333333333,81.01243052369061,833.7499999999999,81.01243052369061C836.1666666666665,81.01243052369061,838.5833333333333,81.01243052369061,840.9999999999999,81.01243052369061C843.4166666666666,81.01243052369061,845.8333333333333,81.01243052369061,848.25,81.01243052369061C850.6666666666666,81.01243052369061,853.0833333333334,81.01243052369061,855.5,81.01243052369061C857.9166666666666,81.01243052369061,860.3333333333334,81.01243052369061,862.75,81.01243052369061C865.1666666666666,81.01243052369061,867.5833333333334,81.01243052369061,870,81.01243052369061C872.4166666666666,81.01243052369061,874.8333333333334,81.01243052369061,877.25,81.01243052369061C879.6666666666666,81.01243052369061,882.0833333333334,81.01243052369061,884.5,81.01243052369061C886.9166666666666,81.01243052369061,889.3333333333334,81.01243052369061,891.75,81.01243052369061C894.1666666666666,81.01243052369061,896.5833333333334,81.01243052369061,899,81.01243052369061C901.4166666666666,81.01243052369061,903.8333333333334,81.01243052369061,906.25,81.01243052369061C908.6666666666666,81.01243052369061,911.0833333333334,81.01243052369061,913.5,81.01243052369061C915.9166666666666,81.01243052369061,918.3333333333334,81.01243052369061,920.75,81.01243052369061C923.1666666666666,81.01243052369061,925.5833333333334,81.01243052369061,928,81.01243052369061C930.4166666666666,81.01243052369061,932.8333333333334,81.01243052369061,935.25,81.01243052369061C937.6666666666666,81.01243052369061,940.0833333333334,81.01243052369061,942.5,81.01243052369061C944.9166666666666,81.01243052369061,947.3333333333334,81.01243052369061,949.75,81.01243052369061C952.1666666666666,81.01243052369061,954.5833333333334,81.01243052369061,957,81.01243052369061C959.4166666666666,81.01243052369061,961.8333333333334,81.01243052369061,964.25,81.01243052369061C966.6666666666667,81.01243052369061,969.0833333333334,81.01243052369061,971.5000000000001,81.01243052369061C973.9166666666667,81.01243052369061,976.3333333333335,81.01243052369061,978.7500000000001,81.01243052369061C981.1666666666667,81.01243052369061,983.5833333333335,81.01243052369061,986.0000000000001,81.01243052369061C988.4166666666667,81.01243052369061,990.8333333333335,81.01243052369061,993.2500000000001,81.01243052369061C995.6666666666667,81.01243052369061,998.0833333333333,81.01243052369061,1000.4999999999999,81.01243052369061C1002.9166666666665,81.01243052369061,1005.3333333333333,81.01243052369061,1007.7499999999999,81.01243052369061C1010.1666666666665,81.01243052369061,1012.5833333333333,81.01243052369061,1014.9999999999999,81.01243052369061C1017.4166666666665,81.01243052369061,1019.8333333333333,81.01243052369061,1022.2499999999999,81.01243052369061C1024.6666666666665,81.01243052369061,1027.0833333333333,81.01243052369061,1029.5,81.01243052369061C1031.9166666666667,81.01243052369061,1034.3333333333333,81.01243052369061,1036.75,81.01243052369061C1039.1666666666667,81.01243052369061,1041.5833333333333,81.01243052369061,1044,81.01243052369061C1046.4166666666667,81.01243052369061,1048.8333333333333,81.01243052369061,1051.25,81.01243052369061C1053.6666666666667,81.01243052369061,1056.0833333333333,81.01243052369061,1058.5,81.01243052369061C1060.9166666666667,81.01243052369061,1063.3333333333333,81.01243052369061,1065.75,81.01243052369061C1068.1666666666667,81.01243052369061,1070.5833333333333,81.01243052369061,1073,81.01243052369061C1075.4166666666667,81.01243052369061,1077.8333333333333,81.01243052369061,1080.25,81.01243052369061C1082.6666666666667,81.01243052369061,1085.0833333333333,81.01243052369061,1087.5,81.01243052369061C1089.9166666666667,81.01243052369061,1092.3333333333333,81.01243052369061,1094.75,81.01243052369061C1097.1666666666667,81.01243052369061,1099.5833333333333,81.01243052369061,1102,81.01243052369061C1104.4166666666667,81.01243052369061,1106.8333333333333,81.01243052369061,1109.25,81.01243052369061C1111.6666666666667,81.01243052369061,1114.0833333333333,81.01243052369061,1116.5,81.01243052369061C1118.9166666666667,81.01243052369061,1121.3333333333333,81.01243052369061,1123.75,81.01243052369061C1126.1666666666667,81.01243052369061,1128.5833333333333,81.01243052369061,1131,81.01243052369061C1133.4166666666667,81.01243052369061,1135.8333333333333,81.01243052369061,1138.25,81.01243052369061C1140.6666666666667,81.01243052369061,1143.0833333333333,81.01243052369061,1145.5,81.01243052369061C1147.9166666666667,81.01243052369061,1150.3333333333333,81.01243052369061,1152.75,81.01243052369061C1155.1666666666667,81.01243052369061,1157.5833333333333,81.01243052369061,1160,81.01243052369061C1162.4166666666667,81.01243052369061,1164.8333333333333,81.01243052369061,1167.25,81.01243052369061C1169.6666666666667,81.01243052369061,1172.0833333333333,81.01243052369061,1174.5,81.01243052369061C1176.9166666666667,81.01243052369061,1179.3333333333333,81.01243052369061,1181.75,81.01243052369061C1184.1666666666667,81.01243052369061,1186.5833333333333,81.01243052369061,1189,81.01243052369061C1191.4166666666667,81.01243052369061,1193.8333333333333,81.01243052369061,1196.25,81.01243052369061C1198.6666666666667,81.01243052369061,1201.0833333333333,81.01243052369061,1203.5,81.01243052369061C1205.9166666666667,81.01243052369061,1208.3333333333333,81.01243052369061,1210.75,81.01243052369061C1213.1666666666667,81.01243052369061,1215.5833333333333,81.01243052369061,1218,81.01243052369061C1220.4166666666667,81.01243052369061,1222.8333333333333,81.01243052369061,1225.25,81.01243052369061C1227.6666666666667,81.01243052369061,1230.0833333333333,81.01243052369061,1232.5,81.01243052369061C1234.9166666666667,81.01243052369061,1237.3333333333333,81.01243052369061,1239.75,81.01243052369061C1242.1666666666667,81.01243052369061,1244.5833333333333,81.01243052369061,1247,81.01243052369061C1249.4166666666667,81.01243052369061,1251.8333333333333,81.01243052369061,1254.25,81.01243052369061C1256.6666666666667,81.01243052369061,1259.0833333333333,81.01243052369061,1261.5,81.01243052369061C1263.9166666666667,81.01243052369061,1266.3333333333333,81.01243052369061,1268.75,81.01243052369061C1271.1666666666667,81.01243052369061,1273.5833333333333,81.01243052369061,1276,81.01243052369061C1278.4166666666667,81.01243052369061,1280.8333333333333,81.01243052369061,1283.25,81.01243052369061C1285.6666666666667,81.01243052369061,1288.0833333333333,81.01243052369061,1290.5,81.01243052369061C1292.9166666666667,81.01243052369061,1295.3333333333333,81.01243052369061,1297.75,81.01243052369061C1300.1666666666667,81.01243052369061,1302.5833333333333,81.01243052369061,1305,81.01243052369061C1307.4166666666667,81.01243052369061,1309.8333333333333,81.01243052369061,1312.25,81.01243052369061C1314.6666666666667,81.01243052369061,1317.0833333333333,81.01243052369061,1319.5,81.01243052369061C1321.9166666666667,81.01243052369061,1324.3333333333333,81.01243052369061,1326.75,81.01243052369061C1329.1666666666667,81.01243052369061,1331.5833333333333,81.01243052369061,1334,81.01243052369061C1336.4166666666667,81.01243052369061,1338.8333333333333,81.01243052369061,1341.25,81.01243052369061C1343.6666666666667,81.01243052369061,1346.0833333333333,81.01243052369061,1348.5,81.01243052369061C1350.9166666666667,81.01243052369061,1353.3333333333333,81.01243052369061,1355.75,81.01243052369061C1358.1666666666667,81.01243052369061,1360.5833333333333,81.01243052369061,1363,81.01243052369061C1365.4166666666667,81.01243052369061,1367.8333333333333,81.01243052369061,1370.25,81.01243052369061C1372.6666666666667,81.01243052369061,1375.0833333333333,81.01243052369061,1377.5,81.01243052369061C1379.9166666666667,81.01243052369061,1382.3333333333333,81.01243052369061,1384.75,81.01243052369061C1387.1666666666667,81.01243052369061,1389.5833333333333,81.01243052369061,1392,81.01243052369061C1394.4166666666667,81.01243052369061,1396.8333333333333,81.01243052369061,1399.25,81.01243052369061C1401.6666666666667,81.01243052369061,1404.0833333333333,81.01243052369061,1406.5,81.01243052369061C1408.9166666666667,81.01243052369061,1411.3333333333333,81.01243052369061,1413.75,81.01243052369061C1416.1666666666667,81.01243052369061,1418.5833333333333,81.01243052369061,1421,81.01243052369061C1423.4166666666667,81.01243052369061,1425.8333333333333,81.01243052369061,1428.25,81.01243052369061C1430.6666666666667,81.01243052369061,1433.0833333333333,81.01243052369061,1435.5,81.01243052369061C1437.9166666666667,81.01243052369061,1440.3333333333333,81.01243052369061,1442.75,81.01243052369061C1445.1666666666667,81.01243052369061,1447.5833333333333,81.01243052369061,1450,81.01243052369061" fill="transparent" stroke-linecap="round" stroke="#E7C6DF" stroke-width="2"></path><g class="visx-group visx-axis visx-axis-bottom" transform="translate(0, 115)"><g class="visx-group visx-axis-tick" transform="translate(0, 0)"><line class="visx-line" x1="0" y1="0" x2="0" y2="8" fill="transparent" shape-rendering="crispEdges" stroke="#000" stroke-width="0" stroke-linecap="square"></line><svg x="0" y="0" font-size="10" style="overflow:visible"><text transform="" x="0" y="18" fill="#000" font-size="10" text-anchor="middle"><tspan x="0" dy="0em">0%</tspan></text></svg></g><g class="visx-group visx-axis-tick" transform="translate(0, 0)"><line class="visx-line" x1="362.5" y1="0" x2="362.5" y2="8" fill="transparent" shape-rendering="crispEdges" stroke="#000" stroke-width="0" stroke-linecap="square"></line><svg x="0" y="0" font-size="10" style="overflow:visible"><text transform="" x="362.5" y="18" fill="#000" font-size="10" text-anchor="middle"><tspan x="362.5" dy="0em">25%</tspan></text></svg></g><g class="visx-group visx-axis-tick" transform="translate(0, 0)"><line class="visx-line" x1="725" y1="0" x2="725" y2="8" fill="transparent" shape-rendering="crispEdges" stroke="#000" stroke-width="0" stroke-linecap="square"></line><svg x="0" y="0" font-size="10" style="overflow:visible"><text transform="" x="725" y="18" fill="#000" font-size="10" text-anchor="middle"><tspan x="725" dy="0em">50%</tspan></text></svg></g><g class="visx-group visx-axis-tick" transform="translate(0, 0)"><line class="visx-line" x1="1087.5" y1="0" x2="1087.5" y2="8" fill="transparent" shape-rendering="crispEdges" stroke="#000" stroke-width="0" stroke-linecap="square"></line><svg x="0" y="0" font-size="10" style="overflow:visible"><text transform="" x="1087.5" y="18" fill="#000" font-size="10" text-anchor="middle"><tspan x="1087.5" dy="0em">75%</tspan></text></svg></g><g class="visx-group visx-axis-tick" transform="translate(0, 0)"><line class="visx-line" x1="1450" y1="0" x2="1450" y2="8" fill="transparent" shape-rendering="crispEdges" stroke="#000" stroke-width="0" stroke-linecap="square"></line><svg x="0" y="0" font-size="10" style="overflow:visible"><text transform="" x="1450" y="18" fill="#000" font-size="10" text-anchor="middle"><tspan x="1450" dy="0em">100%</tspan></text></svg></g><line class="visx-line visx-axis-line" x1="0.5" y1="0" x2="1450.5" y2="0" fill="transparent" shape-rendering="crispEdges" stroke="#222" stroke-width="0"></line></g><g class="visx-group visx-axis visx-axis-left" transform="translate(0, 0)"><g class="visx-group visx-axis-tick" transform="translate(0, 0)"><line class="visx-line" x1="0" y1="115" x2="-8" y2="115" fill="transparent" shape-rendering="crispEdges" stroke="#222" stroke-width="0" stroke-linecap="square"></line><svg x="-30" y="0" font-size="8" style="overflow:visible"><text transform="" x="-8" y="115" fill="#000" font-size="8" text-anchor="start"><tspan x="-8" dy="0em">0%</tspan></text></svg></g><g class="visx-group visx-axis-tick" transform="translate(0, 0)"><line class="visx-line" x1="0" y1="57.5" x2="-8" y2="57.5" fill="transparent" shape-rendering="crispEdges" stroke="#222" stroke-width="0" stroke-linecap="square"></line><svg x="-30" y="0" font-size="8" style="overflow:visible"><text transform="" x="-8" y="57.5" fill="#000" font-size="8" text-anchor="start"><tspan x="-8" dy="0em">20%</tspan></text></svg></g><g class="visx-group visx-axis-tick" transform="translate(0, 0)"><line class="visx-line" x1="0" y1="0" x2="-8" y2="0" fill="transparent" shape-rendering="crispEdges" stroke="#222" stroke-width="0" stroke-linecap="square"></line><svg x="-30" y="0" font-size="8" style="overflow:visible"><text transform="" x="-8" y="0" fill="#000" font-size="8" text-anchor="start"><tspan x="-8" dy="0em">40%</tspan></text></svg></g><line class="visx-line visx-axis-line" x1="0" y1="115.5" x2="0" y2="0.5" fill="transparent" shape-rendering="crispEdges" stroke="#222" stroke-width="0"></line></g><rect class="visx-bar" width="1450" height="115" fill="transparent"></rect><line class="visx-line" x1="1377.5" y1="28" x2="1377.5" y2="115" fill="transparent" shape-rendering="crispEdges" stroke="#0062D2" stroke-width="1" pointer-events="none" stroke-dasharray="5,2"></line><svg x="0" y="0" font-size="10px" style="overflow:visible"><text transform="" x="1377.5" y="20" font-size="10px" fill="#fff" stroke="#fff" stroke-width="0.8em" text-anchor="middle"><tspan x="1377.5" dy="0.355em">Optimal 95%</tspan></text></svg><svg x="0" y="0" font-size="10px" style="overflow:visible"><text transform="" x="1377.5" y="20" font-size="10px" fill="#62677B" text-anchor="middle"><tspan x="1377.5" dy="0.355em">Optimal 95%</tspan></text></svg></g></svg>