<?xml version="1.0"?><svg xmlns="http://www.w3.org/2000/svg" xmlns:xlink= "http://www.w3.org/1999/xlink" style="background: white;" width="1500" height="185"> <g style="color: black; font-size: 13px; font-family: sans-serif; transform: translate(18px, 25px);"><g><circle r="3" cx="-6" cy="-5" style="fill: #B6509E" /><text>Borrow APR, variable</text></g><g style="transform: translateX(150px);"><circle r="3" cx="-6" cy="-5" style="fill: rgb(231, 198, 223)" /><text>Borrow APR, stable</text></g><g style="transform: translateX(290px);"><circle r="3" cx="-6" cy="-5" style="fill: rgb(0, 98, 210)" /><text>Utilization Rate</text></g></g><g class="visx-group" transform="translate(40, 50)"><g class="visx-group visx-rows" transform="translate(0, 0)"><line class="visx-line" x1="0" y1="115" x2="1450" y2="115" fill="transparent" shape-rendering="crispEdges" stroke="#000" stroke-width="1" stroke-dasharray="3,3" pointer-events="none"></line><line class="visx-line" x1="0" y1="67.08333333333333" x2="1450" y2="67.08333333333333" fill="transparent" shape-rendering="crispEdges" stroke="#000" stroke-width="1" stroke-dasharray="3,3" pointer-events="none"></line><line class="visx-line" x1="0" y1="19.16666666666666" x2="1450" y2="19.16666666666666" fill="transparent" shape-rendering="crispEdges" stroke="#000" stroke-width="1" stroke-dasharray="3,3" pointer-events="none"></line></g><path class="visx-linepath" d="M0,114.04166666660278C2.4166666666666665,114.03101851848125,4.833333333333334,114.02037037035973,7.25,114.00972222222222C9.666666666666666,113.99907407408472,12.083333333333334,113.98842592592594,14.5,113.97777777777779C16.916666666666668,113.96712962962964,19.333333333333332,113.95648148148149,21.75,113.94583333333334C24.166666666666668,113.93518518518519,26.583333333333332,113.92453703703704,29,113.91388888888889C31.416666666666668,113.90324074074074,33.833333333333336,113.89259259259259,36.25,113.88194444444444C38.666666666666664,113.8712962962963,41.083333333333336,113.86064814814814,43.5,113.85C45.91666666666667,113.83935185185184,48.333333333333336,113.8287037037037,50.75000000000001,113.81805555555555C53.16666666666667,113.8074074074074,55.583333333333336,113.79675925925926,58,113.78611111111111C60.416666666666664,113.77546296296296,62.833333333333336,113.76481481481481,65.25,113.75416666666666C67.66666666666667,113.74351851851851,70.08333333333333,113.73287037037038,72.5,113.72222222222223C74.91666666666667,113.71157407407408,77.33333333333333,113.70092592592593,79.75,113.69027777777778C82.16666666666667,113.67962962962963,84.58333333333333,113.66898148148148,87,113.65833333333333C89.41666666666667,113.64768518518518,91.83333333333333,113.63703703703705,94.25,113.6263888888889C96.66666666666667,113.61574074074075,99.08333333333334,113.6050925925926,101.50000000000001,113.59444444444445C103.91666666666667,113.5837962962963,106.33333333333334,113.57314814814815,108.75,113.5625C111.16666666666667,113.55185185185185,113.58333333333333,113.5412037037037,116,113.53055555555555C118.41666666666667,113.5199074074074,120.83333333333334,113.50925925925925,123.25000000000001,113.4986111111111C125.66666666666667,113.48796296296295,128.08333333333334,113.47731481481482,130.5,113.46666666666667C132.91666666666666,113.45601851851852,135.33333333333334,113.44537037037037,137.75,113.43472222222222C140.16666666666666,113.42407407407407,142.58333333333334,113.41342592592594,145,113.40277777777779C147.41666666666666,113.39212962962964,149.83333333333334,113.38148148148149,152.25,113.37083333333334C154.66666666666666,113.36018518518519,157.08333333333334,113.34953703703704,159.5,113.33888888888889C161.91666666666666,113.32824074074074,164.33333333333334,113.3175925925926,166.75,113.30694444444445C169.16666666666666,113.2962962962963,171.58333333333334,113.28564814814814,174,113.27499999999999C176.41666666666666,113.26435185185184,178.83333333333334,113.2537037037037,181.25,113.24305555555556C183.66666666666666,113.23240740740741,186.08333333333334,113.22175925925926,188.5,113.21111111111111C190.91666666666666,113.20046296296296,193.33333333333334,113.18981481481481,195.75,113.17916666666666C198.16666666666669,113.16851851851851,200.58333333333334,113.15787037037038,203.00000000000003,113.14722222222223C205.41666666666669,113.13657407407408,207.83333333333331,113.12592592592593,210.24999999999997,113.11527777777778C212.66666666666666,113.10462962962963,215.08333333333331,113.09398148148148,217.5,113.08333333333333C219.91666666666666,113.07268518518518,222.33333333333334,113.06203703703704,224.75,113.0513888888889C227.16666666666666,113.04074074074074,229.58333333333334,113.0300925925926,232,113.01944444444445C234.41666666666666,113.0087962962963,236.83333333333334,112.99814814814816,239.25,112.98750000000001C241.66666666666669,112.97685185185186,244.08333333333334,112.9662037037037,246.50000000000003,112.95555555555555C248.91666666666669,112.9449074074074,251.33333333333331,112.93425925925925,253.74999999999997,112.9236111111111C256.16666666666663,112.91296296296295,258.5833333333333,112.90231481481482,261,112.89166666666667C263.4166666666667,112.88101851851852,265.8333333333333,112.87037037037037,268.25,112.85972222222222C270.6666666666667,112.84907407407407,273.0833333333333,112.83842592592593,275.5,112.82777777777778C277.9166666666667,112.81712962962963,280.3333333333333,112.80648148148148,282.75,112.79583333333333C285.1666666666667,112.78518518518518,287.5833333333333,112.77453703703704,290,112.76388888888889C292.4166666666667,112.75324074074074,294.8333333333333,112.7425925925926,297.25,112.73194444444445C299.6666666666667,112.7212962962963,302.0833333333333,112.71064814814815,304.5,112.7C306.9166666666667,112.68935185185185,309.3333333333333,112.6787037037037,311.75,112.66805555555555C314.1666666666667,112.6574074074074,316.5833333333333,112.64675925925926,319,112.6361111111111C321.4166666666667,112.62546296296296,323.8333333333333,112.6148148148148,326.25,112.60416666666666C328.6666666666667,112.59351851851851,331.0833333333333,112.58287037037037,333.5,112.57222222222222C335.9166666666667,112.56157407407407,338.3333333333333,112.55092592592592,340.75,112.54027777777777C343.1666666666667,112.52962962962962,345.5833333333333,112.51898148148148,348,112.50833333333333C350.4166666666667,112.49768518518518,352.8333333333333,112.48703703703704,355.25,112.47638888888889C357.6666666666667,112.46574074074074,360.0833333333333,112.45509259259259,362.5,112.44444444444444C364.9166666666667,112.4337962962963,367.3333333333333,112.42314814814816,369.75,112.41250000000001C372.1666666666667,112.40185185185186,374.5833333333333,112.39120370370371,377,112.38055555555556C379.4166666666667,112.36990740740741,381.8333333333333,112.35925925925926,384.25,112.34861111111111C386.6666666666667,112.33796296296296,389.0833333333333,112.32731481481481,391.5,112.31666666666666C393.9166666666667,112.30601851851851,396.33333333333337,112.29537037037036,398.75000000000006,112.28472222222221C401.16666666666674,112.27407407407406,403.58333333333337,112.26342592592593,406.00000000000006,112.25277777777778C408.4166666666667,112.24212962962963,410.8333333333333,112.23148148148148,413.24999999999994,112.22083333333333C415.66666666666663,112.21018518518518,418.08333333333326,112.19953703703703,420.49999999999994,112.18888888888888C422.91666666666663,112.17824074074073,425.3333333333333,112.1675925925926,427.75,112.15694444444445C430.1666666666667,112.1462962962963,432.5833333333333,112.13564814814815,435,112.125C437.4166666666667,112.11435185185185,439.8333333333333,112.10370370370372,442.25,112.09305555555557C444.6666666666667,112.08240740740742,447.0833333333333,112.07175925925927,449.5,112.06111111111112C451.9166666666667,112.05046296296297,454.3333333333333,112.03981481481482,456.75,112.02916666666667C459.1666666666667,112.01851851851852,461.5833333333333,112.00787037037037,464,111.99722222222222C466.4166666666667,111.98657407407407,468.8333333333333,111.97592592592592,471.25,111.96527777777777C473.6666666666667,111.95462962962962,476.0833333333333,111.94398148148149,478.5,111.93333333333334C480.9166666666667,111.92268518518519,483.33333333333337,111.91203703703704,485.75000000000006,111.90138888888889C488.16666666666674,111.89074074074074,490.58333333333337,111.88009259259259,493.00000000000006,111.86944444444444C495.4166666666667,111.85879629629629,497.8333333333333,111.84814814814816,500.24999999999994,111.8375C502.66666666666663,111.82685185185186,505.08333333333326,111.8162037037037,507.49999999999994,111.80555555555556C509.91666666666663,111.79490740740741,512.3333333333333,111.78425925925927,514.75,111.77361111111112C517.1666666666666,111.76296296296297,519.5833333333334,111.75231481481482,522,111.74166666666667C524.4166666666666,111.73101851851852,526.8333333333334,111.72037037037036,529.25,111.70972222222221C531.6666666666666,111.69907407407406,534.0833333333334,111.68842592592593,536.5,111.67777777777778C538.9166666666666,111.66712962962963,541.3333333333334,111.65648148148148,543.75,111.64583333333333C546.1666666666666,111.63518518518518,548.5833333333334,111.62453703703703,551,111.61388888888888C553.4166666666666,111.60324074074073,555.8333333333334,111.5925925925926,558.25,111.58194444444445C560.6666666666666,111.5712962962963,563.0833333333334,111.56064814814815,565.5,111.55C567.9166666666666,111.53935185185185,570.3333333333334,111.52870370370371,572.75,111.51805555555556C575.1666666666666,111.50740740740741,577.5833333333334,111.49675925925926,580,111.48611111111111C582.4166666666666,111.47546296296296,584.8333333333334,111.46481481481482,587.25,111.45416666666667C589.6666666666666,111.44351851851852,592.0833333333334,111.43287037037038,594.5,111.42222222222223C596.9166666666666,111.41157407407408,599.3333333333334,111.40092592592592,601.75,111.39027777777777C604.1666666666666,111.37962962962962,606.5833333333334,111.36898148148148,609,111.35833333333333C611.4166666666666,111.34768518518518,613.8333333333334,111.33703703703704,616.25,111.32638888888889C618.6666666666666,111.31574074074074,621.0833333333334,111.30509259259259,623.5,111.29444444444444C625.9166666666666,111.28379629629629,628.3333333333334,111.27314814814815,630.75,111.2625C633.1666666666666,111.25185185185185,635.5833333333334,111.2412037037037,638,111.23055555555555C640.4166666666666,111.2199074074074,642.8333333333334,111.20925925925927,645.25,111.19861111111112C647.6666666666666,111.18796296296297,650.0833333333334,111.18796296296297,652.5,111.16666666666667C654.9166666666666,111.14537037037037,657.3333333333334,110.58585858585859,659.75,110.29545454545455C662.1666666666666,110.0050505050505,664.5833333333334,109.71464646464646,667,109.42424242424242C669.4166666666666,109.13383838383838,671.8333333333334,108.84343434343435,674.25,108.55303030303031C676.6666666666666,108.26262626262627,679.0833333333334,107.97222222222223,681.5,107.68181818181819C683.9166666666666,107.39141414141415,686.3333333333334,107.1010101010101,688.75,106.81060606060606C691.1666666666666,106.52020202020202,693.5833333333334,106.22979797979798,696,105.93939393939394C698.4166666666666,105.6489898989899,700.8333333333334,105.35858585858585,703.25,105.06818181818181C705.6666666666666,104.77777777777777,708.0833333333334,104.48737373737373,710.5,104.19696969696969C712.9166666666666,103.90656565656565,715.3333333333334,103.6161616161616,717.75,103.32575757575756C720.1666666666666,103.03535353535352,722.5833333333334,102.7449494949495,725,102.45454545454545C727.4166666666666,102.16414141414141,729.8333333333334,101.87373737373737,732.25,101.58333333333333C734.6666666666666,101.29292929292929,737.0833333333334,101.00252525252525,739.5,100.7121212121212C741.9166666666666,100.42171717171716,744.3333333333334,100.13131313131314,746.75,99.8409090909091C749.1666666666666,99.55050505050505,751.5833333333334,99.26010101010101,754,98.96969696969697C756.4166666666666,98.67929292929293,758.8333333333334,98.38888888888889,761.25,98.09848484848484C763.6666666666666,97.8080808080808,766.0833333333334,97.51767676767678,768.5,97.22727272727273C770.9166666666666,96.93686868686869,773.3333333333334,96.64646464646465,775.75,96.35606060606061C778.1666666666666,96.06565656565657,780.5833333333334,95.77525252525253,783,95.48484848484848C785.4166666666667,95.19444444444444,787.8333333333334,94.9040404040404,790.2500000000001,94.61363636363636C792.6666666666667,94.32323232323232,795.0833333333335,94.03282828282829,797.5000000000001,93.74242424242425C799.9166666666667,93.45202020202021,802.3333333333335,93.16161616161617,804.7500000000001,92.87121212121212C807.1666666666667,92.58080808080808,809.5833333333335,92.29040404040404,812.0000000000001,92C814.4166666666667,91.70959595959596,816.8333333333333,91.41919191919193,819.2499999999999,91.12878787878789C821.6666666666665,90.83838383838385,824.0833333333333,90.5479797979798,826.4999999999999,90.25757575757576C828.9166666666665,89.96717171717172,831.3333333333333,89.67676767676768,833.7499999999999,89.38636363636364C836.1666666666665,89.0959595959596,838.5833333333333,88.80555555555556,840.9999999999999,88.51515151515152C843.4166666666666,88.22474747474747,845.8333333333333,87.93434343434343,848.25,87.64393939393939C850.6666666666666,87.35353535353535,853.0833333333334,87.06313131313131,855.5,86.77272727272727C857.9166666666666,86.48232323232322,860.3333333333334,86.1919191919192,862.75,85.90151515151516C865.1666666666666,85.61111111111111,867.5833333333334,85.32070707070707,870,85.03030303030303C872.4166666666666,84.73989898989899,874.8333333333334,84.44949494949493,877.25,84.15909090909089C879.6666666666666,83.86868686868685,882.0833333333334,83.57828282828282,884.5,83.28787878787878C886.9166666666666,82.99747474747474,889.3333333333334,82.70707070707071,891.75,82.41666666666667C894.1666666666666,82.12626262626263,896.5833333333334,81.83585858585857,899,81.54545454545453C901.4166666666666,81.25505050505049,903.8333333333334,80.96464646464646,906.25,80.67424242424242C908.6666666666666,80.38383838383838,911.0833333333334,80.09343434343435,913.5,79.80303030303031C915.9166666666666,79.51262626262627,918.3333333333334,79.22222222222223,920.75,78.93181818181819C923.1666666666666,78.64141414141415,925.5833333333334,78.35101010101009,928,78.06060606060605C930.4166666666666,77.770202020202,932.8333333333334,77.47979797979798,935.25,77.18939393939394C937.6666666666666,76.8989898989899,940.0833333333334,76.60858585858587,942.5,76.31818181818183C944.9166666666666,76.02777777777779,947.3333333333334,75.73737373737373,949.75,75.44696969696969C952.1666666666666,75.15656565656565,954.5833333333334,74.8661616161616,957,74.57575757575756C959.4166666666666,74.28535353535352,961.8333333333334,73.9949494949495,964.25,73.70454545454545C966.6666666666667,73.41414141414141,969.0833333333334,73.12373737373737,971.5000000000001,72.83333333333333C973.9166666666667,72.54292929292929,976.3333333333335,72.25252525252525,978.7500000000001,71.9621212121212C981.1666666666667,71.67171717171716,983.5833333333335,71.38131313131314,986.0000000000001,71.0909090909091C988.4166666666667,70.80050505050505,990.8333333333335,70.51010101010101,993.2500000000001,70.21969696969697C995.6666666666667,69.92929292929293,998.0833333333333,69.63888888888889,1000.4999999999999,69.34848484848484C1002.9166666666665,69.0580808080808,1005.3333333333333,68.76767676767678,1007.7499999999999,68.47727272727273C1010.1666666666665,68.18686868686869,1012.5833333333333,67.89646464646465,1014.9999999999999,67.60606060606061C1017.4166666666665,67.31565656565657,1019.8333333333333,67.02525252525253,1022.2499999999999,66.73484848484848C1024.6666666666665,66.44444444444444,1027.0833333333333,66.1540404040404,1029.5,65.86363636363636C1031.9166666666667,65.57323232323232,1034.3333333333333,65.28282828282829,1036.75,64.99242424242425C1039.1666666666667,64.70202020202021,1041.5833333333333,64.41161616161617,1044,64.12121212121212C1046.4166666666667,63.83080808080808,1048.8333333333333,63.54040404040405,1051.25,63.25000000000001C1053.6666666666667,62.959595959595966,1056.0833333333333,62.669191919191924,1058.5,62.37878787878788C1060.9166666666667,62.08838383838384,1063.3333333333333,61.79797979797981,1065.75,61.507575757575765C1068.1666666666667,61.21717171717172,1070.5833333333333,60.92676767676768,1073,60.63636363636364C1075.4166666666667,60.3459595959596,1077.8333333333333,60.05555555555555,1080.25,59.76515151515151C1082.6666666666667,59.47474747474747,1085.0833333333333,59.18434343434343,1087.5,58.89393939393939C1089.9166666666667,58.60353535353535,1092.3333333333333,58.31313131313131,1094.75,58.022727272727266C1097.1666666666667,57.732323232323225,1099.5833333333333,57.44191919191918,1102,57.15151515151515C1104.4166666666667,56.861111111111114,1106.8333333333333,56.57070707070708,1109.25,56.28030303030304C1111.6666666666667,55.989898989899,1114.0833333333333,55.69949494949495,1116.5,55.40909090909091C1118.9166666666667,55.118686868686865,1121.3333333333333,54.82828282828283,1123.75,54.53787878787879C1126.1666666666667,54.24747474747475,1128.5833333333333,53.957070707070706,1131,53.666666666666664C1133.4166666666667,53.37626262626262,1135.8333333333333,53.08585858585859,1138.25,52.79545454545455C1140.6666666666667,52.505050505050505,1143.0833333333333,52.21464646464647,1145.5,51.92424242424243C1147.9166666666667,51.63383838383839,1150.3333333333333,51.343434343434346,1152.75,51.053030303030305C1155.1666666666667,50.76262626262626,1157.5833333333333,50.472222222222214,1160,50.18181818181817C1162.4166666666667,49.89141414141413,1164.8333333333333,49.601010101010104,1167.25,49.31060606060606C1169.6666666666667,49.02020202020202,1172.0833333333333,48.729797979797986,1174.5,48.439393939393945C1176.9166666666667,48.1489898989899,1179.3333333333333,47.85858585858587,1181.75,47.56818181818183C1184.1666666666667,47.277777777777786,1186.5833333333333,46.98737373737373,1189,46.69696969696969C1191.4166666666667,46.40656565656565,1193.8333333333333,46.11616161616161,1196.25,45.82575757575757C1198.6666666666667,45.53535353535353,1201.0833333333333,45.244949494949495,1203.5,44.95454545454545C1205.9166666666667,44.66414141414141,1208.3333333333333,44.37373737373737,1210.75,44.08333333333333C1213.1666666666667,43.79292929292929,1215.5833333333333,43.50252525252523,1218,43.2121212121212C1220.4166666666667,42.92171717171716,1222.8333333333333,42.631313131313135,1225.25,42.3409090909091C1227.6666666666667,42.050505050505066,1230.0833333333333,41.760101010101025,1232.5,41.46969696969698C1234.9166666666667,41.17929292929294,1237.3333333333333,40.88888888888889,1239.75,40.59848484848485C1242.1666666666667,40.30808080808081,1244.5833333333333,40.01767676767677,1247,39.72727272727273C1249.4166666666667,39.436868686868685,1251.8333333333333,39.14646464646465,1254.25,38.85606060606061C1256.6666666666667,38.56565656565657,1259.0833333333333,38.275252525252526,1261.5,37.984848484848484C1263.9166666666667,37.69444444444444,1266.3333333333333,37.404040404040394,1268.75,37.11363636363635C1271.1666666666667,36.82323232323231,1273.5833333333333,36.53282828282829,1276,36.24242424242425C1278.4166666666667,35.95202020202021,1280.8333333333333,35.66161616161615,1283.25,35.37121212121211C1285.6666666666667,35.08080808080807,1288.0833333333333,34.79040404040404,1290.5,34.50000000000001C1292.9166666666667,34.20959595959597,1295.3333333333333,33.919191919191924,1297.75,33.62878787878788C1300.1666666666667,33.33838383838384,1302.5833333333333,33.04797979797981,1305,32.757575757575765C1307.4166666666667,32.46717171717172,1309.8333333333333,32.176767676767675,1312.25,31.88636363636363C1314.6666666666667,31.595959595959588,1317.0833333333333,31.30555555555555,1319.5,31.015151515151512C1321.9166666666667,30.724747474747474,1324.3333333333333,30.434343434343432,1326.75,30.14393939393939C1329.1666666666667,29.85353535353535,1331.5833333333333,29.56313131313131,1334,29.27272727272727C1336.4166666666667,28.98232323232323,1338.8333333333333,28.691919191919176,1341.25,28.401515151515138C1343.6666666666667,28.1111111111111,1346.0833333333333,27.82070707070708,1348.5,27.530303030303042C1350.9166666666667,27.239898989899004,1353.3333333333333,26.94949494949495,1355.75,26.65909090909091C1358.1666666666667,26.36868686868687,1360.5833333333333,26.07828282828283,1363,25.78787878787879C1365.4166666666667,25.497474747474747,1367.8333333333333,25.20707070707071,1370.25,24.916666666666668C1372.6666666666667,24.626262626262626,1375.0833333333333,24.33585858585859,1377.5,24.045454545454547C1379.9166666666667,23.755050505050505,1382.3333333333333,23.464646464646467,1384.75,23.174242424242426C1387.1666666666667,22.883838383838384,1389.5833333333333,22.593434343434332,1392,22.303030303030294C1394.4166666666667,22.012626262626256,1396.8333333333333,21.722222222222225,1399.25,21.431818181818187C1401.6666666666667,21.14141414141415,1404.0833333333333,20.851010101010107,1406.5,20.560606060606066C1408.9166666666667,20.270202020202024,1411.3333333333333,19.979797979797986,1413.75,19.689393939393945C1416.1666666666667,19.398989898989903,1418.5833333333333,19.108585858585865,1421,18.818181818181824C1423.4166666666667,18.527777777777782,1425.8333333333333,18.237373737373744,1428.25,17.946969696969703C1430.6666666666667,17.65656565656566,1433.0833333333333,17.366161616161627,1435.5,17.075757575757585C1437.9166666666667,16.785353535353543,1440.3333333333333,16.49494949494949,1442.75,16.20454545454545C1445.1666666666667,15.914141414141408,1447.5833333333333,15.623737373737368,1450,15.33333333333333" fill="transparent" stroke-linecap="round" stroke="#B6509E" stroke-width="2"></path><path class="visx-linepath" d="M0,112.125C2.4166666666666665,112.125,4.833333333333334,112.125,7.25,112.125C9.666666666666666,112.125,12.083333333333334,112.125,14.5,112.125C16.916666666666668,112.125,19.333333333333332,112.125,21.75,112.125C24.166666666666668,112.125,26.583333333333332,112.125,29,112.125C31.416666666666668,112.125,33.833333333333336,112.125,36.25,112.125C38.666666666666664,112.125,41.083333333333336,112.125,43.5,112.125C45.91666666666667,112.125,48.333333333333336,112.125,50.75000000000001,112.125C53.16666666666667,112.125,55.583333333333336,112.125,58,112.125C60.416666666666664,112.125,62.833333333333336,112.125,65.25,112.125C67.66666666666667,112.125,70.08333333333333,112.125,72.5,112.125C74.91666666666667,112.125,77.33333333333333,112.125,79.75,112.125C82.16666666666667,112.125,84.58333333333333,112.125,87,112.125C89.41666666666667,112.125,91.83333333333333,112.125,94.25,112.125C96.66666666666667,112.125,99.08333333333334,112.125,101.50000000000001,112.125C103.91666666666667,112.125,106.33333333333334,112.125,108.75,112.125C111.16666666666667,112.125,113.58333333333333,112.125,116,112.125C118.41666666666667,112.125,120.83333333333334,112.125,123.25000000000001,112.125C125.66666666666667,112.125,128.08333333333334,112.125,130.5,112.125C132.91666666666666,112.125,135.33333333333334,112.125,137.75,112.125C140.16666666666666,112.125,142.58333333333334,112.125,145,112.125C147.41666666666666,112.125,149.83333333333334,112.125,152.25,112.125C154.66666666666666,112.125,157.08333333333334,112.125,159.5,112.125C161.91666666666666,112.125,164.33333333333334,112.125,166.75,112.125C169.16666666666666,112.125,171.58333333333334,112.125,174,112.125C176.41666666666666,112.125,178.83333333333334,112.125,181.25,112.125C183.66666666666666,112.125,186.08333333333334,112.125,188.5,112.125C190.91666666666666,112.125,193.33333333333334,112.125,195.75,112.125C198.16666666666669,112.125,200.58333333333334,112.125,203.00000000000003,112.125C205.41666666666669,112.125,207.83333333333331,112.125,210.24999999999997,112.125C212.66666666666666,112.125,215.08333333333331,112.125,217.5,112.125C219.91666666666666,112.125,222.33333333333334,112.125,224.75,112.125C227.16666666666666,112.125,229.58333333333334,112.125,232,112.125C234.41666666666666,112.125,236.83333333333334,112.125,239.25,112.125C241.66666666666669,112.125,244.08333333333334,112.125,246.50000000000003,112.125C248.91666666666669,112.125,251.33333333333331,112.125,253.74999999999997,112.125C256.16666666666663,112.125,258.5833333333333,112.125,261,112.125C263.4166666666667,112.125,265.8333333333333,112.125,268.25,112.125C270.6666666666667,112.125,273.0833333333333,112.125,275.5,112.125C277.9166666666667,112.125,280.3333333333333,112.125,282.75,112.125C285.1666666666667,112.125,287.5833333333333,112.125,290,112.125C292.4166666666667,112.125,294.8333333333333,112.125,297.25,112.125C299.6666666666667,112.125,302.0833333333333,112.125,304.5,112.125C306.9166666666667,112.125,309.3333333333333,112.125,311.75,112.125C314.1666666666667,112.125,316.5833333333333,112.125,319,112.125C321.4166666666667,112.125,323.8333333333333,112.125,326.25,112.125C328.6666666666667,112.125,331.0833333333333,112.125,333.5,112.125C335.9166666666667,112.125,338.3333333333333,112.125,340.75,112.125C343.1666666666667,112.125,345.5833333333333,112.125,348,112.125C350.4166666666667,112.125,352.8333333333333,112.125,355.25,112.125C357.6666666666667,112.125,360.0833333333333,112.125,362.5,112.125C364.9166666666667,112.125,367.3333333333333,112.125,369.75,112.125C372.1666666666667,112.125,374.5833333333333,112.125,377,112.125C379.4166666666667,112.125,381.8333333333333,112.125,384.25,112.125C386.6666666666667,112.125,389.0833333333333,112.125,391.5,112.125C393.9166666666667,112.125,396.33333333333337,112.125,398.75000000000006,112.125C401.16666666666674,112.125,403.58333333333337,112.125,406.00000000000006,112.125C408.4166666666667,112.125,410.8333333333333,112.125,413.24999999999994,112.125C415.66666666666663,112.125,418.08333333333326,112.125,420.49999999999994,112.125C422.91666666666663,112.125,425.3333333333333,112.125,427.75,112.125C430.1666666666667,112.125,432.5833333333333,112.125,435,112.125C437.4166666666667,112.125,439.8333333333333,112.125,442.25,112.125C444.6666666666667,112.125,447.0833333333333,112.125,449.5,112.125C451.9166666666667,112.125,454.3333333333333,112.125,456.75,112.125C459.1666666666667,112.125,461.5833333333333,112.125,464,112.125C466.4166666666667,112.125,468.8333333333333,112.125,471.25,112.125C473.6666666666667,112.125,476.0833333333333,112.125,478.5,112.125C480.9166666666667,112.125,483.33333333333337,112.125,485.75000000000006,112.125C488.16666666666674,112.125,490.58333333333337,112.125,493.00000000000006,112.125C495.4166666666667,112.125,497.8333333333333,112.125,500.24999999999994,112.125C502.66666666666663,112.125,505.08333333333326,112.125,507.49999999999994,112.125C509.91666666666663,112.125,512.3333333333333,112.125,514.75,112.125C517.1666666666666,112.125,519.5833333333334,112.125,522,112.125C524.4166666666666,112.125,526.8333333333334,112.125,529.25,112.125C531.6666666666666,112.125,534.0833333333334,112.125,536.5,112.125C538.9166666666666,112.125,541.3333333333334,112.125,543.75,112.125C546.1666666666666,112.125,548.5833333333334,112.125,551,112.125C553.4166666666666,112.125,555.8333333333334,112.125,558.25,112.125C560.6666666666666,112.125,563.0833333333334,112.125,565.5,112.125C567.9166666666666,112.125,570.3333333333334,112.125,572.75,112.125C575.1666666666666,112.125,577.5833333333334,112.125,580,112.125C582.4166666666666,112.125,584.8333333333334,112.125,587.25,112.125C589.6666666666666,112.125,592.0833333333334,112.125,594.5,112.125C596.9166666666666,112.125,599.3333333333334,112.125,601.75,112.125C604.1666666666666,112.125,606.5833333333334,112.125,609,112.125C611.4166666666666,112.125,613.8333333333334,112.125,616.25,112.125C618.6666666666666,112.125,621.0833333333334,112.125,623.5,112.125C625.9166666666666,112.125,628.3333333333334,112.125,630.75,112.125C633.1666666666666,112.125,635.5833333333334,112.125,638,112.125C640.4166666666666,112.125,642.8333333333334,112.125,645.25,112.125C647.6666666666666,112.125,650.0833333333334,112.125,652.5,112.125C654.9166666666666,112.125,657.3333333333334,112.125,659.75,112.125C662.1666666666666,112.125,664.5833333333334,112.125,667,112.125C669.4166666666666,112.125,671.8333333333334,112.125,674.25,112.125C676.6666666666666,112.125,679.0833333333334,112.125,681.5,112.125C683.9166666666666,112.125,686.3333333333334,112.125,688.75,112.125C691.1666666666666,112.125,693.5833333333334,112.125,696,112.125C698.4166666666666,112.125,700.8333333333334,112.125,703.25,112.125C705.6666666666666,112.125,708.0833333333334,112.125,710.5,112.125C712.9166666666666,112.125,715.3333333333334,112.125,717.75,112.125C720.1666666666666,112.125,722.5833333333334,112.125,725,112.125C727.4166666666666,112.125,729.8333333333334,112.125,732.25,112.125C734.6666666666666,112.125,737.0833333333334,112.125,739.5,112.125C741.9166666666666,112.125,744.3333333333334,112.125,746.75,112.125C749.1666666666666,112.125,751.5833333333334,112.125,754,112.125C756.4166666666666,112.125,758.8333333333334,112.125,761.25,112.125C763.6666666666666,112.125,766.0833333333334,112.125,768.5,112.125C770.9166666666666,112.125,773.3333333333334,112.125,775.75,112.125C778.1666666666666,112.125,780.5833333333334,112.125,783,112.125C785.4166666666667,112.125,787.8333333333334,112.125,790.2500000000001,112.125C792.6666666666667,112.125,795.0833333333335,112.125,797.5000000000001,112.125C799.9166666666667,112.125,802.3333333333335,112.125,804.7500000000001,112.125C807.1666666666667,112.125,809.5833333333335,112.125,812.0000000000001,112.125C814.4166666666667,112.125,816.8333333333333,112.125,819.2499999999999,112.125C821.6666666666665,112.125,824.0833333333333,112.125,826.4999999999999,112.125C828.9166666666665,112.125,831.3333333333333,112.125,833.7499999999999,112.125C836.1666666666665,112.125,838.5833333333333,112.125,840.9999999999999,112.125C843.4166666666666,112.125,845.8333333333333,112.125,848.25,112.125C850.6666666666666,112.125,853.0833333333334,112.125,855.5,112.125C857.9166666666666,112.125,860.3333333333334,112.125,862.75,112.125C865.1666666666666,112.125,867.5833333333334,112.125,870,112.125C872.4166666666666,112.125,874.8333333333334,112.125,877.25,112.125C879.6666666666666,112.125,882.0833333333334,112.125,884.5,112.125C886.9166666666666,112.125,889.3333333333334,112.125,891.75,112.125C894.1666666666666,112.125,896.5833333333334,112.125,899,112.125C901.4166666666666,112.125,903.8333333333334,112.125,906.25,112.125C908.6666666666666,112.125,911.0833333333334,112.125,913.5,112.125C915.9166666666666,112.125,918.3333333333334,112.125,920.75,112.125C923.1666666666666,112.125,925.5833333333334,112.125,928,112.125C930.4166666666666,112.125,932.8333333333334,112.125,935.25,112.125C937.6666666666666,112.125,940.0833333333334,112.125,942.5,112.125C944.9166666666666,112.125,947.3333333333334,112.125,949.75,112.125C952.1666666666666,112.125,954.5833333333334,112.125,957,112.125C959.4166666666666,112.125,961.8333333333334,112.125,964.25,112.125C966.6666666666667,112.125,969.0833333333334,112.125,971.5000000000001,112.125C973.9166666666667,112.125,976.3333333333335,112.125,978.7500000000001,112.125C981.1666666666667,112.125,983.5833333333335,112.125,986.0000000000001,112.125C988.4166666666667,112.125,990.8333333333335,112.125,993.2500000000001,112.125C995.6666666666667,112.125,998.0833333333333,112.125,1000.4999999999999,112.125C1002.9166666666665,112.125,1005.3333333333333,112.125,1007.7499999999999,112.125C1010.1666666666665,112.125,1012.5833333333333,112.125,1014.9999999999999,112.125C1017.4166666666665,112.125,1019.8333333333333,112.125,1022.2499999999999,112.125C1024.6666666666665,112.125,1027.0833333333333,112.125,1029.5,112.125C1031.9166666666667,112.125,1034.3333333333333,112.125,1036.75,112.125C1039.1666666666667,112.125,1041.5833333333333,112.125,1044,112.125C1046.4166666666667,112.125,1048.8333333333333,112.125,1051.25,112.125C1053.6666666666667,112.125,1056.0833333333333,112.125,1058.5,112.125C1060.9166666666667,112.125,1063.3333333333333,112.125,1065.75,112.125C1068.1666666666667,112.125,1070.5833333333333,112.125,1073,112.125C1075.4166666666667,112.125,1077.8333333333333,112.125,1080.25,112.125C1082.6666666666667,112.125,1085.0833333333333,112.125,1087.5,112.125C1089.9166666666667,112.125,1092.3333333333333,112.125,1094.75,112.125C1097.1666666666667,112.125,1099.5833333333333,112.125,1102,112.125C1104.4166666666667,112.125,1106.8333333333333,112.125,1109.25,112.125C1111.6666666666667,112.125,1114.0833333333333,112.125,1116.5,112.125C1118.9166666666667,112.125,1121.3333333333333,112.125,1123.75,112.125C1126.1666666666667,112.125,1128.5833333333333,112.125,1131,112.125C1133.4166666666667,112.125,1135.8333333333333,112.125,1138.25,112.125C1140.6666666666667,112.125,1143.0833333333333,112.125,1145.5,112.125C1147.9166666666667,112.125,1150.3333333333333,112.125,1152.75,112.125C1155.1666666666667,112.125,1157.5833333333333,112.125,1160,112.125C1162.4166666666667,112.125,1164.8333333333333,112.125,1167.25,112.125C1169.6666666666667,112.125,1172.0833333333333,112.125,1174.5,112.125C1176.9166666666667,112.125,1179.3333333333333,112.125,1181.75,112.125C1184.1666666666667,112.125,1186.5833333333333,112.125,1189,112.125C1191.4166666666667,112.125,1193.8333333333333,112.125,1196.25,112.125C1198.6666666666667,112.125,1201.0833333333333,112.125,1203.5,112.125C1205.9166666666667,112.125,1208.3333333333333,112.125,1210.75,112.125C1213.1666666666667,112.125,1215.5833333333333,112.125,1218,112.125C1220.4166666666667,112.125,1222.8333333333333,112.125,1225.25,112.125C1227.6666666666667,112.125,1230.0833333333333,112.125,1232.5,112.125C1234.9166666666667,112.125,1237.3333333333333,112.125,1239.75,112.125C1242.1666666666667,112.125,1244.5833333333333,112.125,1247,112.125C1249.4166666666667,112.125,1251.8333333333333,112.125,1254.25,112.125C1256.6666666666667,112.125,1259.0833333333333,112.125,1261.5,112.125C1263.9166666666667,112.125,1266.3333333333333,112.125,1268.75,112.125C1271.1666666666667,112.125,1273.5833333333333,112.125,1276,112.125C1278.4166666666667,112.125,1280.8333333333333,112.125,1283.25,112.125C1285.6666666666667,112.125,1288.0833333333333,112.125,1290.5,112.125C1292.9166666666667,112.125,1295.3333333333333,112.125,1297.75,112.125C1300.1666666666667,112.125,1302.5833333333333,112.125,1305,112.125C1307.4166666666667,112.125,1309.8333333333333,112.125,1312.25,112.125C1314.6666666666667,112.125,1317.0833333333333,112.125,1319.5,112.125C1321.9166666666667,112.125,1324.3333333333333,112.125,1326.75,112.125C1329.1666666666667,112.125,1331.5833333333333,112.125,1334,112.125C1336.4166666666667,112.125,1338.8333333333333,112.125,1341.25,112.125C1343.6666666666667,112.125,1346.0833333333333,112.125,1348.5,112.125C1350.9166666666667,112.125,1353.3333333333333,112.125,1355.75,112.125C1358.1666666666667,112.125,1360.5833333333333,112.125,1363,112.125C1365.4166666666667,112.125,1367.8333333333333,112.125,1370.25,112.125C1372.6666666666667,112.125,1375.0833333333333,112.125,1377.5,112.125C1379.9166666666667,112.125,1382.3333333333333,112.125,1384.75,112.125C1387.1666666666667,112.125,1389.5833333333333,112.125,1392,112.125C1394.4166666666667,112.125,1396.8333333333333,112.125,1399.25,112.125C1401.6666666666667,112.125,1404.0833333333333,112.125,1406.5,112.125C1408.9166666666667,112.125,1411.3333333333333,112.125,1413.75,112.125C1416.1666666666667,112.125,1418.5833333333333,112.125,1421,112.125C1423.4166666666667,112.125,1425.8333333333333,112.125,1428.25,112.125C1430.6666666666667,112.125,1433.0833333333333,112.125,1435.5,112.125C1437.9166666666667,112.125,1440.3333333333333,112.125,1442.75,112.125C1445.1666666666667,112.125,1447.5833333333333,112.125,1450,112.125" fill="transparent" stroke-linecap="round" stroke="#E7C6DF" stroke-width="2"></path><g class="visx-group visx-axis visx-axis-bottom" transform="translate(0, 115)"><g class="visx-group visx-axis-tick" transform="translate(0, 0)"><line class="visx-line" x1="0" y1="0" x2="0" y2="8" fill="transparent" shape-rendering="crispEdges" stroke="#000" stroke-width="0" stroke-linecap="square"></line><svg x="0" y="0" font-size="10" style="overflow:visible"><text transform="" x="0" y="18" fill="#000" font-size="10" text-anchor="middle"><tspan x="0" dy="0em">0%</tspan></text></svg></g><g class="visx-group visx-axis-tick" transform="translate(0, 0)"><line class="visx-line" x1="362.5" y1="0" x2="362.5" y2="8" fill="transparent" shape-rendering="crispEdges" stroke="#000" stroke-width="0" stroke-linecap="square"></line><svg x="0" y="0" font-size="10" style="overflow:visible"><text transform="" x="362.5" y="18" fill="#000" font-size="10" text-anchor="middle"><tspan x="362.5" dy="0em">25%</tspan></text></svg></g><g class="visx-group visx-axis-tick" transform="translate(0, 0)"><line class="visx-line" x1="725" y1="0" x2="725" y2="8" fill="transparent" shape-rendering="crispEdges" stroke="#000" stroke-width="0" stroke-linecap="square"></line><svg x="0" y="0" font-size="10" style="overflow:visible"><text transform="" x="725" y="18" fill="#000" font-size="10" text-anchor="middle"><tspan x="725" dy="0em">50%</tspan></text></svg></g><g class="visx-group visx-axis-tick" transform="translate(0, 0)"><line class="visx-line" x1="1087.5" y1="0" x2="1087.5" y2="8" fill="transparent" shape-rendering="crispEdges" stroke="#000" stroke-width="0" stroke-linecap="square"></line><svg x="0" y="0" font-size="10" style="overflow:visible"><text transform="" x="1087.5" y="18" fill="#000" font-size="10" text-anchor="middle"><tspan x="1087.5" dy="0em">75%</tspan></text></svg></g><g class="visx-group visx-axis-tick" transform="translate(0, 0)"><line class="visx-line" x1="1450" y1="0" x2="1450" y2="8" fill="transparent" shape-rendering="crispEdges" stroke="#000" stroke-width="0" stroke-linecap="square"></line><svg x="0" y="0" font-size="10" style="overflow:visible"><text transform="" x="1450" y="18" fill="#000" font-size="10" text-anchor="middle"><tspan x="1450" dy="0em">100%</tspan></text></svg></g><line class="visx-line visx-axis-line" x1="0.5" y1="0" x2="1450.5" y2="0" fill="transparent" shape-rendering="crispEdges" stroke="#222" stroke-width="0"></line></g><g class="visx-group visx-axis visx-axis-left" transform="translate(0, 0)"><g class="visx-group visx-axis-tick" transform="translate(0, 0)"><line class="visx-line" x1="0" y1="115" x2="-8" y2="115" fill="transparent" shape-rendering="crispEdges" stroke="#222" stroke-width="0" stroke-linecap="square"></line><svg x="-30" y="0" font-size="8" style="overflow:visible"><text transform="" x="-8" y="115" fill="#000" font-size="8" text-anchor="start"><tspan x="-8" dy="0em">0%</tspan></text></svg></g><g class="visx-group visx-axis-tick" transform="translate(0, 0)"><line class="visx-line" x1="0" y1="67.08333333333333" x2="-8" y2="67.08333333333333" fill="transparent" shape-rendering="crispEdges" stroke="#222" stroke-width="0" stroke-linecap="square"></line><svg x="-30" y="0" font-size="8" style="overflow:visible"><text transform="" x="-8" y="67.08333333333333" fill="#000" font-size="8" text-anchor="start"><tspan x="-8" dy="0em">50%</tspan></text></svg></g><g class="visx-group visx-axis-tick" transform="translate(0, 0)"><line class="visx-line" x1="0" y1="19.16666666666666" x2="-8" y2="19.16666666666666" fill="transparent" shape-rendering="crispEdges" stroke="#222" stroke-width="0" stroke-linecap="square"></line><svg x="-30" y="0" font-size="8" style="overflow:visible"><text transform="" x="-8" y="19.16666666666666" fill="#000" font-size="8" text-anchor="start"><tspan x="-8" dy="0em">100%</tspan></text></svg></g><line class="visx-line visx-axis-line" x1="0" y1="115.5" x2="0" y2="0.5" fill="transparent" shape-rendering="crispEdges" stroke="#222" stroke-width="0"></line></g><rect class="visx-bar" width="1450" height="115" fill="transparent"></rect><line class="visx-line" x1="652.5" y1="28" x2="652.5" y2="115" fill="transparent" shape-rendering="crispEdges" stroke="#0062D2" stroke-width="1" pointer-events="none" stroke-dasharray="5,2"></line><svg x="0" y="0" font-size="10px" style="overflow:visible"><text transform="" x="652.5" y="20" font-size="10px" fill="#fff" stroke="#fff" stroke-width="0.8em" text-anchor="middle"><tspan x="652.5" dy="0.355em">Optimal 45%</tspan></text></svg><svg x="0" y="0" font-size="10px" style="overflow:visible"><text transform="" x="652.5" y="20" font-size="10px" fill="#62677B" text-anchor="middle"><tspan x="652.5" dy="0.355em">Optimal 45%</tspan></text></svg></g></svg>