<?xml version="1.0"?><svg xmlns="http://www.w3.org/2000/svg" xmlns:xlink= "http://www.w3.org/1999/xlink" style="background: white;" width="1500" height="185"> <g style="color: black; font-size: 13px; font-family: sans-serif; transform: translate(18px, 25px);"><g><circle r="3" cx="-6" cy="-5" style="fill: #B6509E" /><text>Borrow APR, variable</text></g><g style="transform: translateX(150px);"><circle r="3" cx="-6" cy="-5" style="fill: rgb(231, 198, 223)" /><text>Borrow APR, stable</text></g><g style="transform: translateX(290px);"><circle r="3" cx="-6" cy="-5" style="fill: rgb(0, 98, 210)" /><text>Utilization Rate</text></g></g><g class="visx-group" transform="translate(40, 50)"><g class="visx-group visx-rows" transform="translate(0, 0)"><line class="visx-line" x1="0" y1="115" x2="1450" y2="115" fill="transparent" shape-rendering="crispEdges" stroke="#000" stroke-width="1" stroke-dasharray="3,3" pointer-events="none"></line><line class="visx-line" x1="0" y1="79.61538461538461" x2="1450" y2="79.61538461538461" fill="transparent" shape-rendering="crispEdges" stroke="#000" stroke-width="1" stroke-dasharray="3,3" pointer-events="none"></line><line class="visx-line" x1="0" y1="44.230769230769226" x2="1450" y2="44.230769230769226" fill="transparent" shape-rendering="crispEdges" stroke="#000" stroke-width="1" stroke-dasharray="3,3" pointer-events="none"></line><line class="visx-line" x1="0" y1="8.84615384615384" x2="1450" y2="8.84615384615384" fill="transparent" shape-rendering="crispEdges" stroke="#000" stroke-width="1" stroke-dasharray="3,3" pointer-events="none"></line></g><path class="visx-linepath" d="M0,106.36789402488455C2.4166666666666665,106.36789402488455,4.833333333333334,106.36789402488455,7.25,106.36789402488455C9.666666666666666,106.36789402488455,12.083333333333334,106.36789402488455,14.5,106.36789402488455C16.916666666666668,106.36789402488455,19.333333333333332,106.36789402488455,21.75,106.36789402488455C24.166666666666668,106.36789402488455,26.583333333333332,106.36789402488455,29,106.36789402488455C31.416666666666668,106.36789402488455,33.833333333333336,106.36789402488455,36.25,106.36789402488455C38.666666666666664,106.36789402488455,41.083333333333336,106.36789402488455,43.5,106.36789402488455C45.91666666666667,106.36789402488455,48.333333333333336,106.36789402488455,50.75000000000001,106.36789402488455C53.16666666666667,106.36789402488455,55.583333333333336,106.36789402488455,58,106.36789402488455C60.416666666666664,106.36789402488455,62.833333333333336,106.36789402488455,65.25,106.36789402488455C67.66666666666667,106.36789402488455,70.08333333333333,106.36789402488455,72.5,106.36789402488455C74.91666666666667,106.36789402488455,77.33333333333333,106.36789402488455,79.75,106.36789402488455C82.16666666666667,106.36789402488455,84.58333333333333,106.36789402488455,87,106.36789402488455C89.41666666666667,106.36789402488455,91.83333333333333,106.36789402488455,94.25,106.36789402488455C96.66666666666667,106.36789402488455,99.08333333333334,106.36789402488455,101.50000000000001,106.36789402488455C103.91666666666667,106.36789402488455,106.33333333333334,106.36789402488455,108.75,106.36789402488455C111.16666666666667,106.36789402488455,113.58333333333333,106.36789402488455,116,106.36789402488455C118.41666666666667,106.36789402488455,120.83333333333334,106.36789402488455,123.25000000000001,106.36789402488455C125.66666666666667,106.36789402488455,128.08333333333334,106.36789402488455,130.5,106.36789402488455C132.91666666666666,106.36789402488455,135.33333333333334,106.36789402488455,137.75,106.36789402488455C140.16666666666666,106.36789402488455,142.58333333333334,106.36789402488455,145,106.36789402488455C147.41666666666666,106.36789402488455,149.83333333333334,106.36789402488455,152.25,106.36789402488455C154.66666666666666,106.36789402488455,157.08333333333334,106.36789402488455,159.5,106.36789402488455C161.91666666666666,106.36789402488455,164.33333333333334,106.36789402488455,166.75,106.36789402488455C169.16666666666666,106.36789402488455,171.58333333333334,106.36789402488455,174,106.36789402488455C176.41666666666666,106.36789402488455,178.83333333333334,106.36789402488455,181.25,106.36789402488455C183.66666666666666,106.36789402488455,186.08333333333334,106.36789402488455,188.5,106.36789402488455C190.91666666666666,106.36789402488455,193.33333333333334,106.36789402488455,195.75,106.36789402488455C198.16666666666669,106.36789402488455,200.58333333333334,106.36789402488455,203.00000000000003,106.36789402488455C205.41666666666669,106.36789402488455,207.83333333333331,106.36789402488455,210.24999999999997,106.36789402488455C212.66666666666666,106.36789402488455,215.08333333333331,106.36789402488455,217.5,106.36789402488455C219.91666666666666,106.36789402488455,222.33333333333334,106.36789402488455,224.75,106.36789402488455C227.16666666666666,106.36789402488455,229.58333333333334,106.36789402488455,232,106.36789402488455C234.41666666666666,106.36789402488455,236.83333333333334,106.36789402488455,239.25,106.36789402488455C241.66666666666669,106.36789402488455,244.08333333333334,106.36789402488455,246.50000000000003,106.36789402488455C248.91666666666669,106.36789402488455,251.33333333333331,106.36789402488455,253.74999999999997,106.36789402488455C256.16666666666663,106.36789402488455,258.5833333333333,106.36789402488455,261,106.36789402488455C263.4166666666667,106.36789402488455,265.8333333333333,106.36789402488455,268.25,106.36789402488455C270.6666666666667,106.36789402488455,273.0833333333333,106.36789402488455,275.5,106.36789402488455C277.9166666666667,106.36789402488455,280.3333333333333,106.36789402488455,282.75,106.36789402488455C285.1666666666667,106.36789402488455,287.5833333333333,106.36789402488455,290,106.36789402488455C292.4166666666667,106.36789402488455,294.8333333333333,106.36789402488455,297.25,106.36789402488455C299.6666666666667,106.36789402488455,302.0833333333333,106.36789402488455,304.5,106.36789402488455C306.9166666666667,106.36789402488455,309.3333333333333,106.36789402488455,311.75,106.36789402488455C314.1666666666667,106.36789402488455,316.5833333333333,106.36789402488455,319,106.36789402488455C321.4166666666667,106.36789402488455,323.8333333333333,106.36789402488455,326.25,106.36789402488455C328.6666666666667,106.36789402488455,331.0833333333333,106.36789402488455,333.5,106.36789402488455C335.9166666666667,106.36789402488455,338.3333333333333,106.36789402488455,340.75,106.36789402488455C343.1666666666667,106.36789402488455,345.5833333333333,106.36789402488455,348,106.36789402488455C350.4166666666667,106.36789402488455,352.8333333333333,106.36789402488455,355.25,106.36789402488455C357.6666666666667,106.36789402488455,360.0833333333333,106.36789402488455,362.5,106.36789402488455C364.9166666666667,106.36789402488455,367.3333333333333,106.36789402488455,369.75,106.36789402488455C372.1666666666667,106.36789402488455,374.5833333333333,106.36789402488455,377,106.36789402488455C379.4166666666667,106.36789402488455,381.8333333333333,106.36789402488455,384.25,106.36789402488455C386.6666666666667,106.36789402488455,389.0833333333333,106.36789402488455,391.5,106.36789402488455C393.9166666666667,106.36789402488455,396.33333333333337,106.36789402488455,398.75000000000006,106.36789402488455C401.16666666666674,106.36789402488455,403.58333333333337,106.36789402488455,406.00000000000006,106.36789402488455C408.4166666666667,106.36789402488455,410.8333333333333,106.36789402488455,413.24999999999994,106.36789402488455C415.66666666666663,106.36789402488455,418.08333333333326,106.36789402488455,420.49999999999994,106.36789402488455C422.91666666666663,106.36789402488455,425.3333333333333,106.36789402488455,427.75,106.36789402488455C430.1666666666667,106.36789402488455,432.5833333333333,106.36789402488455,435,106.36789402488455C437.4166666666667,106.36789402488455,439.8333333333333,106.36789402488455,442.25,106.36789402488455C444.6666666666667,106.36789402488455,447.0833333333333,106.36789402488455,449.5,106.36789402488455C451.9166666666667,106.36789402488455,454.3333333333333,106.36789402488455,456.75,106.36789402488455C459.1666666666667,106.36789402488455,461.5833333333333,106.36789402488455,464,106.36789402488455C466.4166666666667,106.36789402488455,468.8333333333333,106.36789402488455,471.25,106.36789402488455C473.6666666666667,106.36789402488455,476.0833333333333,106.36789402488455,478.5,106.36789402488455C480.9166666666667,106.36789402488455,483.33333333333337,106.36789402488455,485.75000000000006,106.36789402488455C488.16666666666674,106.36789402488455,490.58333333333337,106.36789402488455,493.00000000000006,106.36789402488455C495.4166666666667,106.36789402488455,497.8333333333333,106.36789402488455,500.24999999999994,106.36789402488455C502.66666666666663,106.36789402488455,505.08333333333326,106.36789402488455,507.49999999999994,106.36789402488455C509.91666666666663,106.36789402488455,512.3333333333333,106.36789402488455,514.75,106.36789402488455C517.1666666666666,106.36789402488455,519.5833333333334,106.36789402488455,522,106.36789402488455C524.4166666666666,106.36789402488455,526.8333333333334,106.36789402488455,529.25,106.36789402488455C531.6666666666666,106.36789402488455,534.0833333333334,106.36789402488455,536.5,106.36789402488455C538.9166666666666,106.36789402488455,541.3333333333334,106.36789402488455,543.75,106.36789402488455C546.1666666666666,106.36789402488455,548.5833333333334,106.36789402488455,551,106.36789402488455C553.4166666666666,106.36789402488455,555.8333333333334,106.36789402488455,558.25,106.36789402488455C560.6666666666666,106.36789402488455,563.0833333333334,106.36789402488455,565.5,106.36789402488455C567.9166666666666,106.36789402488455,570.3333333333334,106.36789402488455,572.75,106.36789402488455C575.1666666666666,106.36789402488455,577.5833333333334,106.36789402488455,580,106.36789402488455C582.4166666666666,106.36789402488455,584.8333333333334,106.36789402488455,587.25,106.36789402488455C589.6666666666666,106.36789402488455,592.0833333333334,106.36789402488455,594.5,106.36789402488455C596.9166666666666,106.36789402488455,599.3333333333334,106.36789402488455,601.75,106.36789402488455C604.1666666666666,106.36789402488455,606.5833333333334,106.36789402488455,609,106.36789402488455C611.4166666666666,106.36789402488455,613.8333333333334,106.36789402488455,616.25,106.36789402488455C618.6666666666666,106.36789402488455,621.0833333333334,106.36789402488455,623.5,106.36789402488455C625.9166666666666,106.36789402488455,628.3333333333334,106.36789402488455,630.75,106.36789402488455C633.1666666666666,106.36789402488455,635.5833333333334,106.36789402488455,638,106.36789402488455C640.4166666666666,106.36789402488455,642.8333333333334,106.36789402488455,645.25,106.36789402488455C647.6666666666666,106.36789402488455,650.0833333333334,106.36789402488455,652.5,106.36789402488455C654.9166666666666,106.36789402488455,657.3333333333334,106.36789402488455,659.75,106.36789402488455C662.1666666666666,106.36789402488455,664.5833333333334,106.36789402488455,667,106.36789402488455C669.4166666666666,106.36789402488455,671.8333333333334,106.36789402488455,674.25,106.36789402488455C676.6666666666666,106.36789402488455,679.0833333333334,106.36789402488455,681.5,106.36789402488455C683.9166666666666,106.36789402488455,686.3333333333334,106.36789402488455,688.75,106.36789402488455C691.1666666666666,106.36789402488455,693.5833333333334,106.36789402488455,696,106.36789402488455C698.4166666666666,106.36789402488455,700.8333333333334,106.36789402488455,703.25,106.36789402488455C705.6666666666666,106.36789402488455,708.0833333333334,106.36789402488455,710.5,106.36789402488455C712.9166666666666,106.36789402488455,715.3333333333334,106.36789402488455,717.75,106.36789402488455C720.1666666666666,106.36789402488455,722.5833333333334,106.36789402488455,725,106.36789402488455C727.4166666666666,106.36789402488455,729.8333333333334,106.36789402488455,732.25,106.36789402488455C734.6666666666666,106.36789402488455,737.0833333333334,106.36789402488455,739.5,106.36789402488455C741.9166666666666,106.36789402488455,744.3333333333334,106.36789402488455,746.75,106.36789402488455C749.1666666666666,106.36789402488455,751.5833333333334,106.36789402488455,754,106.36789402488455C756.4166666666666,106.36789402488455,758.8333333333334,106.36789402488455,761.25,106.36789402488455C763.6666666666666,106.36789402488455,766.0833333333334,106.36789402488455,768.5,106.36789402488455C770.9166666666666,106.36789402488455,773.3333333333334,106.36789402488455,775.75,106.36789402488455C778.1666666666666,106.36789402488455,780.5833333333334,106.36789402488455,783,106.36789402488455C785.4166666666667,106.36789402488455,787.8333333333334,106.36789402488455,790.2500000000001,106.36789402488455C792.6666666666667,106.36789402488455,795.0833333333335,106.36789402488455,797.5000000000001,106.36789402488455C799.9166666666667,106.36789402488455,802.3333333333335,106.36789402488455,804.7500000000001,106.36789402488455C807.1666666666667,106.36789402488455,809.5833333333335,106.36789402488455,812.0000000000001,106.36789402488455C814.4166666666667,106.36789402488455,816.8333333333333,106.36789402488455,819.2499999999999,106.36789402488455C821.6666666666665,106.36789402488455,824.0833333333333,106.36789402488455,826.4999999999999,106.36789402488455C828.9166666666665,106.36789402488455,831.3333333333333,106.36789402488455,833.7499999999999,106.36789402488455C836.1666666666665,106.36789402488455,838.5833333333333,106.36789402488455,840.9999999999999,106.36789402488455C843.4166666666666,106.36789402488455,845.8333333333333,106.36789402488455,848.25,106.36789402488455C850.6666666666666,106.36789402488455,853.0833333333334,106.36789402488455,855.5,106.36789402488455C857.9166666666666,106.36789402488455,860.3333333333334,106.36789402488455,862.75,106.36789402488455C865.1666666666666,106.36789402488455,867.5833333333334,106.36789402488455,870,106.36789402488455C872.4166666666666,106.36789402488455,874.8333333333334,106.36789402488455,877.25,106.36789402488455C879.6666666666666,106.36789402488455,882.0833333333334,106.36789402488455,884.5,106.36789402488455C886.9166666666666,106.36789402488455,889.3333333333334,106.36789402488455,891.75,106.36789402488455C894.1666666666666,106.36789402488455,896.5833333333334,106.36789402488455,899,106.36789402488455C901.4166666666666,106.36789402488455,903.8333333333334,106.36789402488455,906.25,106.36789402488455C908.6666666666666,106.36789402488455,911.0833333333334,106.36789402488455,913.5,106.36789402488455C915.9166666666666,106.36789402488455,918.3333333333334,106.36789402488455,920.75,106.36789402488455C923.1666666666666,106.36789402488455,925.5833333333334,106.36789402488455,928,106.36789402488455C930.4166666666666,106.36789402488455,932.8333333333334,106.36789402488455,935.25,106.36789402488455C937.6666666666666,106.36789402488455,940.0833333333334,106.36789402488455,942.5,106.36789402488455C944.9166666666666,106.36789402488455,947.3333333333334,106.36789402488455,949.75,106.36789402488455C952.1666666666666,106.36789402488455,954.5833333333334,106.36789402488455,957,106.36789402488455C959.4166666666666,106.36789402488455,961.8333333333334,106.36789402488455,964.25,106.36789402488455C966.6666666666667,106.36789402488455,969.0833333333334,106.36789402488455,971.5000000000001,106.36789402488455C973.9166666666667,106.36789402488455,976.3333333333335,106.36789402488455,978.7500000000001,106.36789402488455C981.1666666666667,106.36789402488455,983.5833333333335,106.36789402488455,986.0000000000001,106.36789402488455C988.4166666666667,106.36789402488455,990.8333333333335,106.36789402488455,993.2500000000001,106.36789402488455C995.6666666666667,106.36789402488455,998.0833333333333,106.36789402488455,1000.4999999999999,106.36789402488455C1002.9166666666665,106.36789402488455,1005.3333333333333,106.36789402488455,1007.7499999999999,106.36789402488455C1010.1666666666665,106.36789402488455,1012.5833333333333,106.36789402488455,1014.9999999999999,106.36789402488455C1017.4166666666665,106.36789402488455,1019.8333333333333,106.36789402488455,1022.2499999999999,106.36789402488455C1024.6666666666665,106.36789402488455,1027.0833333333333,106.36789402488455,1029.5,106.36789402488455C1031.9166666666667,106.36789402488455,1034.3333333333333,106.36789402488455,1036.75,106.36789402488455C1039.1666666666667,106.36789402488455,1041.5833333333333,106.36789402488455,1044,106.36789402488455C1046.4166666666667,106.36789402488455,1048.8333333333333,106.36789402488455,1051.25,106.36789402488455C1053.6666666666667,106.36789402488455,1056.0833333333333,106.36789402488455,1058.5,106.36789402488455C1060.9166666666667,106.36789402488455,1063.3333333333333,106.36789402488455,1065.75,106.36789402488455C1068.1666666666667,106.36789402488455,1070.5833333333333,106.36789402488455,1073,106.36789402488455C1075.4166666666667,106.36789402488455,1077.8333333333333,106.36789402488455,1080.25,106.36789402488455C1082.6666666666667,106.36789402488455,1085.0833333333333,106.36789402488455,1087.5,106.36789402488455C1089.9166666666667,106.36789402488455,1092.3333333333333,106.36789402488455,1094.75,106.36789402488455C1097.1666666666667,106.36789402488455,1099.5833333333333,106.36789402488455,1102,106.36789402488455C1104.4166666666667,106.36789402488455,1106.8333333333333,106.36789402488455,1109.25,106.36789402488455C1111.6666666666667,106.36789402488455,1114.0833333333333,106.36789402488455,1116.5,106.36789402488455C1118.9166666666667,106.36789402488455,1121.3333333333333,106.36789402488455,1123.75,106.36789402488455C1126.1666666666667,106.36789402488455,1128.5833333333333,106.36789402488455,1131,106.36789402488455C1133.4166666666667,106.36789402488455,1135.8333333333333,106.36789402488455,1138.25,106.36789402488455C1140.6666666666667,106.36789402488455,1143.0833333333333,106.36789402488455,1145.5,106.36789402488455C1147.9166666666667,106.36789402488455,1150.3333333333333,106.36789402488455,1152.75,106.36789402488455C1155.1666666666667,106.36789402488455,1157.5833333333333,106.36789402488455,1160,106.36789402488455C1162.4166666666667,106.36789402488455,1164.8333333333333,106.36789402488455,1167.25,106.36789402488455C1169.6666666666667,106.36789402488455,1172.0833333333333,106.36789402488455,1174.5,106.36789402488455C1176.9166666666667,106.36789402488455,1179.3333333333333,106.36789402488455,1181.75,106.36789402488455C1184.1666666666667,106.36789402488455,1186.5833333333333,106.36789402488455,1189,106.36789402488455C1191.4166666666667,106.36789402488455,1193.8333333333333,106.36789402488455,1196.25,106.36789402488455C1198.6666666666667,106.36789402488455,1201.0833333333333,106.36789402488455,1203.5,106.36789402488455C1205.9166666666667,106.36789402488455,1208.3333333333333,106.36789402488455,1210.75,106.36789402488455C1213.1666666666667,106.36789402488455,1215.5833333333333,106.36789402488455,1218,106.36789402488455C1220.4166666666667,106.36789402488455,1222.8333333333333,106.36789402488455,1225.25,106.36789402488455C1227.6666666666667,106.36789402488455,1230.0833333333333,106.36789402488455,1232.5,106.36789402488455C1234.9166666666667,106.36789402488455,1237.3333333333333,106.36789402488455,1239.75,106.36789402488455C1242.1666666666667,106.36789402488455,1244.5833333333333,106.36789402488455,1247,106.36789402488455C1249.4166666666667,106.36789402488455,1251.8333333333333,106.36789402488455,1254.25,106.36789402488455C1256.6666666666667,106.36789402488455,1259.0833333333333,106.36789402488455,1261.5,106.36789402488455C1263.9166666666667,106.36789402488455,1266.3333333333333,106.36789402488455,1268.75,106.36789402488455C1271.1666666666667,106.36789402488455,1273.5833333333333,106.36789402488455,1276,106.36789402488455C1278.4166666666667,106.36789402488455,1280.8333333333333,106.36789402488455,1283.25,106.36789402488455C1285.6666666666667,106.36789402488455,1288.0833333333333,106.36789402488455,1290.5,106.36789402488455C1292.9166666666667,106.36789402488455,1295.3333333333333,106.36789402488455,1297.75,106.36789402488455C1300.1666666666667,106.36789402488455,1302.5833333333333,106.36789402488455,1305,106.36789402488455C1307.4166666666667,106.36789402488455,1309.8333333333333,103.41917607616661,1312.25,101.94481710180763C1314.6666666666667,100.47045812744865,1317.0833333333333,98.99609915308967,1319.5,97.5217401787307C1321.9166666666667,96.04738120437172,1324.3333333333333,94.57302223001275,1326.75,93.09866325565378C1329.1666666666667,91.6243042812948,1331.5833333333333,90.14994530693583,1334,88.67558633257686C1336.4166666666667,87.20122735821788,1338.8333333333333,85.7268683838589,1341.25,84.25250940949992C1343.6666666666667,82.77815043514094,1346.0833333333333,81.303791460782,1348.5,79.82943248642302C1350.9166666666667,78.35507351206404,1353.3333333333333,76.88071453770506,1355.75,75.40635556334608C1358.1666666666667,73.9319965889871,1360.5833333333333,72.45763761462814,1363,70.98327864026916C1365.4166666666667,69.50891966591018,1367.8333333333333,68.03456069155122,1370.25,66.56020171719224C1372.6666666666667,65.08584274283326,1375.0833333333333,63.6114837684743,1377.5,62.13712479411533C1379.9166666666667,60.66276581975636,1382.3333333333333,59.18840684539738,1384.75,57.7140478710384C1387.1666666666667,56.239688896679425,1389.5833333333333,54.76532992232045,1392,53.290970947961476C1394.4166666666667,51.816611973602505,1396.8333333333333,50.34225299924353,1399.25,48.867894024884556C1401.6666666666667,47.393535050525585,1404.0833333333333,45.919176076166615,1406.5,44.44481710180764C1408.9166666666667,42.97045812744866,1411.3333333333333,41.49609915308968,1413.75,40.0217401787307C1416.1666666666667,38.547381204371725,1418.5833333333333,37.073022230012754,1421,35.59866325565378C1423.4166666666667,34.12430428129481,1425.8333333333333,32.649945306935834,1428.25,31.17558633257686C1430.6666666666667,29.701227358217885,1433.0833333333333,28.226868383858914,1435.5,26.75250940949994C1437.9166666666667,25.278150435140965,1440.3333333333333,23.803791460781994,1442.75,22.32943248642302C1445.1666666666667,20.855073512064045,1447.5833333333333,19.380714537705064,1450,17.906355563346086" fill="transparent" stroke-linecap="round" stroke="#B6509E" stroke-width="2"></path><path class="visx-linepath" d="M0,115C2.4166666666666665,115,4.833333333333334,115,7.25,115C9.666666666666666,115,12.083333333333334,115,14.5,115C16.916666666666668,115,19.333333333333332,115,21.75,115C24.166666666666668,115,26.583333333333332,115,29,115C31.416666666666668,115,33.833333333333336,115,36.25,115C38.666666666666664,115,41.083333333333336,115,43.5,115C45.91666666666667,115,48.333333333333336,115,50.75000000000001,115C53.16666666666667,115,55.583333333333336,115,58,115C60.416666666666664,115,62.833333333333336,115,65.25,115C67.66666666666667,115,70.08333333333333,115,72.5,115C74.91666666666667,115,77.33333333333333,115,79.75,115C82.16666666666667,115,84.58333333333333,115,87,115C89.41666666666667,115,91.83333333333333,115,94.25,115C96.66666666666667,115,99.08333333333334,115,101.50000000000001,115C103.91666666666667,115,106.33333333333334,115,108.75,115C111.16666666666667,115,113.58333333333333,115,116,115C118.41666666666667,115,120.83333333333334,115,123.25000000000001,115C125.66666666666667,115,128.08333333333334,115,130.5,115C132.91666666666666,115,135.33333333333334,115,137.75,115C140.16666666666666,115,142.58333333333334,115,145,115C147.41666666666666,115,149.83333333333334,115,152.25,115C154.66666666666666,115,157.08333333333334,115,159.5,115C161.91666666666666,115,164.33333333333334,115,166.75,115C169.16666666666666,115,171.58333333333334,115,174,115C176.41666666666666,115,178.83333333333334,115,181.25,115C183.66666666666666,115,186.08333333333334,115,188.5,115C190.91666666666666,115,193.33333333333334,115,195.75,115C198.16666666666669,115,200.58333333333334,115,203.00000000000003,115C205.41666666666669,115,207.83333333333331,115,210.24999999999997,115C212.66666666666666,115,215.08333333333331,115,217.5,115C219.91666666666666,115,222.33333333333334,115,224.75,115C227.16666666666666,115,229.58333333333334,115,232,115C234.41666666666666,115,236.83333333333334,115,239.25,115C241.66666666666669,115,244.08333333333334,115,246.50000000000003,115C248.91666666666669,115,251.33333333333331,115,253.74999999999997,115C256.16666666666663,115,258.5833333333333,115,261,115C263.4166666666667,115,265.8333333333333,115,268.25,115C270.6666666666667,115,273.0833333333333,115,275.5,115C277.9166666666667,115,280.3333333333333,115,282.75,115C285.1666666666667,115,287.5833333333333,115,290,115C292.4166666666667,115,294.8333333333333,115,297.25,115C299.6666666666667,115,302.0833333333333,115,304.5,115C306.9166666666667,115,309.3333333333333,115,311.75,115C314.1666666666667,115,316.5833333333333,115,319,115C321.4166666666667,115,323.8333333333333,115,326.25,115C328.6666666666667,115,331.0833333333333,115,333.5,115C335.9166666666667,115,338.3333333333333,115,340.75,115C343.1666666666667,115,345.5833333333333,115,348,115C350.4166666666667,115,352.8333333333333,115,355.25,115C357.6666666666667,115,360.0833333333333,115,362.5,115C364.9166666666667,115,367.3333333333333,115,369.75,115C372.1666666666667,115,374.5833333333333,115,377,115C379.4166666666667,115,381.8333333333333,115,384.25,115C386.6666666666667,115,389.0833333333333,115,391.5,115C393.9166666666667,115,396.33333333333337,115,398.75000000000006,115C401.16666666666674,115,403.58333333333337,115,406.00000000000006,115C408.4166666666667,115,410.8333333333333,115,413.24999999999994,115C415.66666666666663,115,418.08333333333326,115,420.49999999999994,115C422.91666666666663,115,425.3333333333333,115,427.75,115C430.1666666666667,115,432.5833333333333,115,435,115C437.4166666666667,115,439.8333333333333,115,442.25,115C444.6666666666667,115,447.0833333333333,115,449.5,115C451.9166666666667,115,454.3333333333333,115,456.75,115C459.1666666666667,115,461.5833333333333,115,464,115C466.4166666666667,115,468.8333333333333,115,471.25,115C473.6666666666667,115,476.0833333333333,115,478.5,115C480.9166666666667,115,483.33333333333337,115,485.75000000000006,115C488.16666666666674,115,490.58333333333337,115,493.00000000000006,115C495.4166666666667,115,497.8333333333333,115,500.24999999999994,115C502.66666666666663,115,505.08333333333326,115,507.49999999999994,115C509.91666666666663,115,512.3333333333333,115,514.75,115C517.1666666666666,115,519.5833333333334,115,522,115C524.4166666666666,115,526.8333333333334,115,529.25,115C531.6666666666666,115,534.0833333333334,115,536.5,115C538.9166666666666,115,541.3333333333334,115,543.75,115C546.1666666666666,115,548.5833333333334,115,551,115C553.4166666666666,115,555.8333333333334,115,558.25,115C560.6666666666666,115,563.0833333333334,115,565.5,115C567.9166666666666,115,570.3333333333334,115,572.75,115C575.1666666666666,115,577.5833333333334,115,580,115C582.4166666666666,115,584.8333333333334,115,587.25,115C589.6666666666666,115,592.0833333333334,115,594.5,115C596.9166666666666,115,599.3333333333334,115,601.75,115C604.1666666666666,115,606.5833333333334,115,609,115C611.4166666666666,115,613.8333333333334,115,616.25,115C618.6666666666666,115,621.0833333333334,115,623.5,115C625.9166666666666,115,628.3333333333334,115,630.75,115C633.1666666666666,115,635.5833333333334,115,638,115C640.4166666666666,115,642.8333333333334,115,645.25,115C647.6666666666666,115,650.0833333333334,115,652.5,115C654.9166666666666,115,657.3333333333334,115,659.75,115C662.1666666666666,115,664.5833333333334,115,667,115C669.4166666666666,115,671.8333333333334,115,674.25,115C676.6666666666666,115,679.0833333333334,115,681.5,115C683.9166666666666,115,686.3333333333334,115,688.75,115C691.1666666666666,115,693.5833333333334,115,696,115C698.4166666666666,115,700.8333333333334,115,703.25,115C705.6666666666666,115,708.0833333333334,115,710.5,115C712.9166666666666,115,715.3333333333334,115,717.75,115C720.1666666666666,115,722.5833333333334,115,725,115C727.4166666666666,115,729.8333333333334,115,732.25,115C734.6666666666666,115,737.0833333333334,115,739.5,115C741.9166666666666,115,744.3333333333334,115,746.75,115C749.1666666666666,115,751.5833333333334,115,754,115C756.4166666666666,115,758.8333333333334,115,761.25,115C763.6666666666666,115,766.0833333333334,115,768.5,115C770.9166666666666,115,773.3333333333334,115,775.75,115C778.1666666666666,115,780.5833333333334,115,783,115C785.4166666666667,115,787.8333333333334,115,790.2500000000001,115C792.6666666666667,115,795.0833333333335,115,797.5000000000001,115C799.9166666666667,115,802.3333333333335,115,804.7500000000001,115C807.1666666666667,115,809.5833333333335,115,812.0000000000001,115C814.4166666666667,115,816.8333333333333,115,819.2499999999999,115C821.6666666666665,115,824.0833333333333,115,826.4999999999999,115C828.9166666666665,115,831.3333333333333,115,833.7499999999999,115C836.1666666666665,115,838.5833333333333,115,840.9999999999999,115C843.4166666666666,115,845.8333333333333,115,848.25,115C850.6666666666666,115,853.0833333333334,115,855.5,115C857.9166666666666,115,860.3333333333334,115,862.75,115C865.1666666666666,115,867.5833333333334,115,870,115C872.4166666666666,115,874.8333333333334,115,877.25,115C879.6666666666666,115,882.0833333333334,115,884.5,115C886.9166666666666,115,889.3333333333334,115,891.75,115C894.1666666666666,115,896.5833333333334,115,899,115C901.4166666666666,115,903.8333333333334,115,906.25,115C908.6666666666666,115,911.0833333333334,115,913.5,115C915.9166666666666,115,918.3333333333334,115,920.75,115C923.1666666666666,115,925.5833333333334,115,928,115C930.4166666666666,115,932.8333333333334,115,935.25,115C937.6666666666666,115,940.0833333333334,115,942.5,115C944.9166666666666,115,947.3333333333334,115,949.75,115C952.1666666666666,115,954.5833333333334,115,957,115C959.4166666666666,115,961.8333333333334,115,964.25,115C966.6666666666667,115,969.0833333333334,115,971.5000000000001,115C973.9166666666667,115,976.3333333333335,115,978.7500000000001,115C981.1666666666667,115,983.5833333333335,115,986.0000000000001,115C988.4166666666667,115,990.8333333333335,115,993.2500000000001,115C995.6666666666667,115,998.0833333333333,115,1000.4999999999999,115C1002.9166666666665,115,1005.3333333333333,115,1007.7499999999999,115C1010.1666666666665,115,1012.5833333333333,115,1014.9999999999999,115C1017.4166666666665,115,1019.8333333333333,115,1022.2499999999999,115C1024.6666666666665,115,1027.0833333333333,115,1029.5,115C1031.9166666666667,115,1034.3333333333333,115,1036.75,115C1039.1666666666667,115,1041.5833333333333,115,1044,115C1046.4166666666667,115,1048.8333333333333,115,1051.25,115C1053.6666666666667,115,1056.0833333333333,115,1058.5,115C1060.9166666666667,115,1063.3333333333333,115,1065.75,115C1068.1666666666667,115,1070.5833333333333,115,1073,115C1075.4166666666667,115,1077.8333333333333,115,1080.25,115C1082.6666666666667,115,1085.0833333333333,115,1087.5,115C1089.9166666666667,115,1092.3333333333333,115,1094.75,115C1097.1666666666667,115,1099.5833333333333,115,1102,115C1104.4166666666667,115,1106.8333333333333,115,1109.25,115C1111.6666666666667,115,1114.0833333333333,115,1116.5,115C1118.9166666666667,115,1121.3333333333333,115,1123.75,115C1126.1666666666667,115,1128.5833333333333,115,1131,115C1133.4166666666667,115,1135.8333333333333,115,1138.25,115C1140.6666666666667,115,1143.0833333333333,115,1145.5,115C1147.9166666666667,115,1150.3333333333333,115,1152.75,115C1155.1666666666667,115,1157.5833333333333,115,1160,115C1162.4166666666667,115,1164.8333333333333,115,1167.25,115C1169.6666666666667,115,1172.0833333333333,115,1174.5,115C1176.9166666666667,115,1179.3333333333333,115,1181.75,115C1184.1666666666667,115,1186.5833333333333,115,1189,115C1191.4166666666667,115,1193.8333333333333,115,1196.25,115C1198.6666666666667,115,1201.0833333333333,115,1203.5,115C1205.9166666666667,115,1208.3333333333333,115,1210.75,115C1213.1666666666667,115,1215.5833333333333,115,1218,115C1220.4166666666667,115,1222.8333333333333,115,1225.25,115C1227.6666666666667,115,1230.0833333333333,115,1232.5,115C1234.9166666666667,115,1237.3333333333333,115,1239.75,115C1242.1666666666667,115,1244.5833333333333,115,1247,115C1249.4166666666667,115,1251.8333333333333,115,1254.25,115C1256.6666666666667,115,1259.0833333333333,115,1261.5,115C1263.9166666666667,115,1266.3333333333333,115,1268.75,115C1271.1666666666667,115,1273.5833333333333,115,1276,115C1278.4166666666667,115,1280.8333333333333,115,1283.25,115C1285.6666666666667,115,1288.0833333333333,115,1290.5,115C1292.9166666666667,115,1295.3333333333333,115,1297.75,115C1300.1666666666667,115,1302.5833333333333,115,1305,115C1307.4166666666667,115,1309.8333333333333,115,1312.25,115C1314.6666666666667,115,1317.0833333333333,115,1319.5,115C1321.9166666666667,115,1324.3333333333333,115,1326.75,115C1329.1666666666667,115,1331.5833333333333,115,1334,115C1336.4166666666667,115,1338.8333333333333,115,1341.25,115C1343.6666666666667,115,1346.0833333333333,115,1348.5,115C1350.9166666666667,115,1353.3333333333333,115,1355.75,115C1358.1666666666667,115,1360.5833333333333,115,1363,115C1365.4166666666667,115,1367.8333333333333,115,1370.25,115C1372.6666666666667,115,1375.0833333333333,115,1377.5,115C1379.9166666666667,115,1382.3333333333333,115,1384.75,115C1387.1666666666667,115,1389.5833333333333,115,1392,115C1394.4166666666667,115,1396.8333333333333,115,1399.25,115C1401.6666666666667,115,1404.0833333333333,115,1406.5,115C1408.9166666666667,115,1411.3333333333333,115,1413.75,115C1416.1666666666667,115,1418.5833333333333,115,1421,115C1423.4166666666667,115,1425.8333333333333,115,1428.25,115C1430.6666666666667,115,1433.0833333333333,115,1435.5,115C1437.9166666666667,115,1440.3333333333333,115,1442.75,115C1445.1666666666667,115,1447.5833333333333,115,1450,115" fill="transparent" stroke-linecap="round" stroke="#E7C6DF" stroke-width="2"></path><g class="visx-group visx-axis visx-axis-bottom" transform="translate(0, 115)"><g class="visx-group visx-axis-tick" transform="translate(0, 0)"><line class="visx-line" x1="0" y1="0" x2="0" y2="8" fill="transparent" shape-rendering="crispEdges" stroke="#000" stroke-width="0" stroke-linecap="square"></line><svg x="0" y="0" font-size="10" style="overflow:visible"><text transform="" x="0" y="18" fill="#000" font-size="10" text-anchor="middle"><tspan x="0" dy="0em">0%</tspan></text></svg></g><g class="visx-group visx-axis-tick" transform="translate(0, 0)"><line class="visx-line" x1="362.5" y1="0" x2="362.5" y2="8" fill="transparent" shape-rendering="crispEdges" stroke="#000" stroke-width="0" stroke-linecap="square"></line><svg x="0" y="0" font-size="10" style="overflow:visible"><text transform="" x="362.5" y="18" fill="#000" font-size="10" text-anchor="middle"><tspan x="362.5" dy="0em">25%</tspan></text></svg></g><g class="visx-group visx-axis-tick" transform="translate(0, 0)"><line class="visx-line" x1="725" y1="0" x2="725" y2="8" fill="transparent" shape-rendering="crispEdges" stroke="#000" stroke-width="0" stroke-linecap="square"></line><svg x="0" y="0" font-size="10" style="overflow:visible"><text transform="" x="725" y="18" fill="#000" font-size="10" text-anchor="middle"><tspan x="725" dy="0em">50%</tspan></text></svg></g><g class="visx-group visx-axis-tick" transform="translate(0, 0)"><line class="visx-line" x1="1087.5" y1="0" x2="1087.5" y2="8" fill="transparent" shape-rendering="crispEdges" stroke="#000" stroke-width="0" stroke-linecap="square"></line><svg x="0" y="0" font-size="10" style="overflow:visible"><text transform="" x="1087.5" y="18" fill="#000" font-size="10" text-anchor="middle"><tspan x="1087.5" dy="0em">75%</tspan></text></svg></g><g class="visx-group visx-axis-tick" transform="translate(0, 0)"><line class="visx-line" x1="1450" y1="0" x2="1450" y2="8" fill="transparent" shape-rendering="crispEdges" stroke="#000" stroke-width="0" stroke-linecap="square"></line><svg x="0" y="0" font-size="10" style="overflow:visible"><text transform="" x="1450" y="18" fill="#000" font-size="10" text-anchor="middle"><tspan x="1450" dy="0em">100%</tspan></text></svg></g><line class="visx-line visx-axis-line" x1="0.5" y1="0" x2="1450.5" y2="0" fill="transparent" shape-rendering="crispEdges" stroke="#222" stroke-width="0"></line></g><g class="visx-group visx-axis visx-axis-left" transform="translate(0, 0)"><g class="visx-group visx-axis-tick" transform="translate(0, 0)"><line class="visx-line" x1="0" y1="115" x2="-8" y2="115" fill="transparent" shape-rendering="crispEdges" stroke="#222" stroke-width="0" stroke-linecap="square"></line><svg x="-30" y="0" font-size="8" style="overflow:visible"><text transform="" x="-8" y="115" fill="#000" font-size="8" text-anchor="start"><tspan x="-8" dy="0em">0%</tspan></text></svg></g><g class="visx-group visx-axis-tick" transform="translate(0, 0)"><line class="visx-line" x1="0" y1="26.538461538461533" x2="-8" y2="26.538461538461533" fill="transparent" shape-rendering="crispEdges" stroke="#222" stroke-width="0" stroke-linecap="square"></line><svg x="-30" y="0" font-size="8" style="overflow:visible"><text transform="" x="-8" y="26.538461538461533" fill="#000" font-size="8" text-anchor="start"><tspan x="-8" dy="0em">50%</tspan></text></svg></g><line class="visx-line visx-axis-line" x1="0" y1="115.5" x2="0" y2="0.5" fill="transparent" shape-rendering="crispEdges" stroke="#222" stroke-width="0"></line></g><rect class="visx-bar" width="1450" height="115" fill="transparent"></rect><line class="visx-line" x1="1305" y1="28" x2="1305" y2="115" fill="transparent" shape-rendering="crispEdges" stroke="#0062D2" stroke-width="1" pointer-events="none" stroke-dasharray="5,2"></line><svg x="0" y="0" font-size="10px" style="overflow:visible"><text transform="" x="1305" y="20" font-size="10px" fill="#fff" stroke="#fff" stroke-width="0.8em" text-anchor="middle"><tspan x="1305" dy="0.355em">Optimal 90%</tspan></text></svg><svg x="0" y="0" font-size="10px" style="overflow:visible"><text transform="" x="1305" y="20" font-size="10px" fill="#62677B" text-anchor="middle"><tspan x="1305" dy="0.355em">Optimal 90%</tspan></text></svg></g></svg>