<?xml version="1.0"?><svg xmlns="http://www.w3.org/2000/svg" xmlns:xlink= "http://www.w3.org/1999/xlink" style="background: white;" width="1500" height="185"> <g style="color: black; font-size: 13px; font-family: sans-serif; transform: translate(18px, 25px);"><g><circle r="3" cx="-6" cy="-5" style="fill: #B6509E" /><text>Borrow APR, variable</text></g><g style="transform: translateX(150px);"><circle r="3" cx="-6" cy="-5" style="fill: rgb(231, 198, 223)" /><text>Borrow APR, stable</text></g><g style="transform: translateX(290px);"><circle r="3" cx="-6" cy="-5" style="fill: rgb(0, 98, 210)" /><text>Utilization Rate</text></g></g><g class="visx-group" transform="translate(40, 50)"><g class="visx-group visx-rows" transform="translate(0, 0)"><line class="visx-line" x1="0" y1="115" x2="1450" y2="115" fill="transparent" shape-rendering="crispEdges" stroke="#000" stroke-width="1" stroke-dasharray="3,3" pointer-events="none"></line><line class="visx-line" x1="0" y1="86.25" x2="1450" y2="86.25" fill="transparent" shape-rendering="crispEdges" stroke="#000" stroke-width="1" stroke-dasharray="3,3" pointer-events="none"></line><line class="visx-line" x1="0" y1="57.5" x2="1450" y2="57.5" fill="transparent" shape-rendering="crispEdges" stroke="#000" stroke-width="1" stroke-dasharray="3,3" pointer-events="none"></line><line class="visx-line" x1="0" y1="28.75" x2="1450" y2="28.75" fill="transparent" shape-rendering="crispEdges" stroke="#000" stroke-width="1" stroke-dasharray="3,3" pointer-events="none"></line><line class="visx-line" x1="0" y1="0" x2="1450" y2="0" fill="transparent" shape-rendering="crispEdges" stroke="#000" stroke-width="1" stroke-dasharray="3,3" pointer-events="none"></line></g><path class="visx-linepath" d="M0,21.776727194698886C2.4166666666666665,21.776727194698886,4.833333333333334,21.776727194698886,7.25,21.776727194698886C9.666666666666666,21.776727194698886,12.083333333333334,21.776727194698886,14.5,21.776727194698886C16.916666666666668,21.776727194698886,19.333333333333332,21.776727194698886,21.75,21.776727194698886C24.166666666666668,21.776727194698886,26.583333333333332,21.776727194698886,29,21.776727194698886C31.416666666666668,21.776727194698886,33.833333333333336,21.776727194698886,36.25,21.776727194698886C38.666666666666664,21.776727194698886,41.083333333333336,21.776727194698886,43.5,21.776727194698886C45.91666666666667,21.776727194698886,48.333333333333336,21.776727194698886,50.75000000000001,21.776727194698886C53.16666666666667,21.776727194698886,55.583333333333336,21.776727194698886,58,21.776727194698886C60.416666666666664,21.776727194698886,62.833333333333336,21.776727194698886,65.25,21.776727194698886C67.66666666666667,21.776727194698886,70.08333333333333,21.776727194698886,72.5,21.776727194698886C74.91666666666667,21.776727194698886,77.33333333333333,21.776727194698886,79.75,21.776727194698886C82.16666666666667,21.776727194698886,84.58333333333333,21.776727194698886,87,21.776727194698886C89.41666666666667,21.776727194698886,91.83333333333333,21.776727194698886,94.25,21.776727194698886C96.66666666666667,21.776727194698886,99.08333333333334,21.776727194698886,101.50000000000001,21.776727194698886C103.91666666666667,21.776727194698886,106.33333333333334,21.776727194698886,108.75,21.776727194698886C111.16666666666667,21.776727194698886,113.58333333333333,21.776727194698886,116,21.776727194698886C118.41666666666667,21.776727194698886,120.83333333333334,21.776727194698886,123.25000000000001,21.776727194698886C125.66666666666667,21.776727194698886,128.08333333333334,21.776727194698886,130.5,21.776727194698886C132.91666666666666,21.776727194698886,135.33333333333334,21.776727194698886,137.75,21.776727194698886C140.16666666666666,21.776727194698886,142.58333333333334,21.776727194698886,145,21.776727194698886C147.41666666666666,21.776727194698886,149.83333333333334,21.776727194698886,152.25,21.776727194698886C154.66666666666666,21.776727194698886,157.08333333333334,21.776727194698886,159.5,21.776727194698886C161.91666666666666,21.776727194698886,164.33333333333334,21.776727194698886,166.75,21.776727194698886C169.16666666666666,21.776727194698886,171.58333333333334,21.776727194698886,174,21.776727194698886C176.41666666666666,21.776727194698886,178.83333333333334,21.776727194698886,181.25,21.776727194698886C183.66666666666666,21.776727194698886,186.08333333333334,21.776727194698886,188.5,21.776727194698886C190.91666666666666,21.776727194698886,193.33333333333334,21.776727194698886,195.75,21.776727194698886C198.16666666666669,21.776727194698886,200.58333333333334,21.776727194698886,203.00000000000003,21.776727194698886C205.41666666666669,21.776727194698886,207.83333333333331,21.776727194698886,210.24999999999997,21.776727194698886C212.66666666666666,21.776727194698886,215.08333333333331,21.776727194698886,217.5,21.776727194698886C219.91666666666666,21.776727194698886,222.33333333333334,21.776727194698886,224.75,21.776727194698886C227.16666666666666,21.776727194698886,229.58333333333334,21.776727194698886,232,21.776727194698886C234.41666666666666,21.776727194698886,236.83333333333334,21.776727194698886,239.25,21.776727194698886C241.66666666666669,21.776727194698886,244.08333333333334,21.776727194698886,246.50000000000003,21.776727194698886C248.91666666666669,21.776727194698886,251.33333333333331,21.776727194698886,253.74999999999997,21.776727194698886C256.16666666666663,21.776727194698886,258.5833333333333,21.776727194698886,261,21.776727194698886C263.4166666666667,21.776727194698886,265.8333333333333,21.776727194698886,268.25,21.776727194698886C270.6666666666667,21.776727194698886,273.0833333333333,21.776727194698886,275.5,21.776727194698886C277.9166666666667,21.776727194698886,280.3333333333333,21.776727194698886,282.75,21.776727194698886C285.1666666666667,21.776727194698886,287.5833333333333,21.776727194698886,290,21.776727194698886C292.4166666666667,21.776727194698886,294.8333333333333,21.776727194698886,297.25,21.776727194698886C299.6666666666667,21.776727194698886,302.0833333333333,21.776727194698886,304.5,21.776727194698886C306.9166666666667,21.776727194698886,309.3333333333333,21.776727194698886,311.75,21.776727194698886C314.1666666666667,21.776727194698886,316.5833333333333,21.776727194698886,319,21.776727194698886C321.4166666666667,21.776727194698886,323.8333333333333,21.776727194698886,326.25,21.776727194698886C328.6666666666667,21.776727194698886,331.0833333333333,21.776727194698886,333.5,21.776727194698886C335.9166666666667,21.776727194698886,338.3333333333333,21.776727194698886,340.75,21.776727194698886C343.1666666666667,21.776727194698886,345.5833333333333,21.776727194698886,348,21.776727194698886C350.4166666666667,21.776727194698886,352.8333333333333,21.776727194698886,355.25,21.776727194698886C357.6666666666667,21.776727194698886,360.0833333333333,21.776727194698886,362.5,21.776727194698886C364.9166666666667,21.776727194698886,367.3333333333333,21.776727194698886,369.75,21.776727194698886C372.1666666666667,21.776727194698886,374.5833333333333,21.776727194698886,377,21.776727194698886C379.4166666666667,21.776727194698886,381.8333333333333,21.776727194698886,384.25,21.776727194698886C386.6666666666667,21.776727194698886,389.0833333333333,21.776727194698886,391.5,21.776727194698886C393.9166666666667,21.776727194698886,396.33333333333337,21.776727194698886,398.75000000000006,21.776727194698886C401.16666666666674,21.776727194698886,403.58333333333337,21.776727194698886,406.00000000000006,21.776727194698886C408.4166666666667,21.776727194698886,410.8333333333333,21.776727194698886,413.24999999999994,21.776727194698886C415.66666666666663,21.776727194698886,418.08333333333326,21.776727194698886,420.49999999999994,21.776727194698886C422.91666666666663,21.776727194698886,425.3333333333333,21.776727194698886,427.75,21.776727194698886C430.1666666666667,21.776727194698886,432.5833333333333,21.776727194698886,435,21.776727194698886C437.4166666666667,21.776727194698886,439.8333333333333,21.776727194698886,442.25,21.776727194698886C444.6666666666667,21.776727194698886,447.0833333333333,21.776727194698886,449.5,21.776727194698886C451.9166666666667,21.776727194698886,454.3333333333333,21.776727194698886,456.75,21.776727194698886C459.1666666666667,21.776727194698886,461.5833333333333,21.776727194698886,464,21.776727194698886C466.4166666666667,21.776727194698886,468.8333333333333,21.776727194698886,471.25,21.776727194698886C473.6666666666667,21.776727194698886,476.0833333333333,21.776727194698886,478.5,21.776727194698886C480.9166666666667,21.776727194698886,483.33333333333337,21.776727194698886,485.75000000000006,21.776727194698886C488.16666666666674,21.776727194698886,490.58333333333337,21.776727194698886,493.00000000000006,21.776727194698886C495.4166666666667,21.776727194698886,497.8333333333333,21.776727194698886,500.24999999999994,21.776727194698886C502.66666666666663,21.776727194698886,505.08333333333326,21.776727194698886,507.49999999999994,21.776727194698886C509.91666666666663,21.776727194698886,512.3333333333333,21.776727194698886,514.75,21.776727194698886C517.1666666666666,21.776727194698886,519.5833333333334,21.776727194698886,522,21.776727194698886C524.4166666666666,21.776727194698886,526.8333333333334,21.776727194698886,529.25,21.776727194698886C531.6666666666666,21.776727194698886,534.0833333333334,21.776727194698886,536.5,21.776727194698886C538.9166666666666,21.776727194698886,541.3333333333334,21.776727194698886,543.75,21.776727194698886C546.1666666666666,21.776727194698886,548.5833333333334,21.776727194698886,551,21.776727194698886C553.4166666666666,21.776727194698886,555.8333333333334,21.776727194698886,558.25,21.776727194698886C560.6666666666666,21.776727194698886,563.0833333333334,21.776727194698886,565.5,21.776727194698886C567.9166666666666,21.776727194698886,570.3333333333334,21.776727194698886,572.75,21.776727194698886C575.1666666666666,21.776727194698886,577.5833333333334,21.776727194698886,580,21.776727194698886C582.4166666666666,21.776727194698886,584.8333333333334,21.776727194698886,587.25,21.776727194698886C589.6666666666666,21.776727194698886,592.0833333333334,21.776727194698886,594.5,21.776727194698886C596.9166666666666,21.776727194698886,599.3333333333334,21.776727194698886,601.75,21.776727194698886C604.1666666666666,21.776727194698886,606.5833333333334,21.776727194698886,609,21.776727194698886C611.4166666666666,21.776727194698886,613.8333333333334,21.776727194698886,616.25,21.776727194698886C618.6666666666666,21.776727194698886,621.0833333333334,21.776727194698886,623.5,21.776727194698886C625.9166666666666,21.776727194698886,628.3333333333334,21.776727194698886,630.75,21.776727194698886C633.1666666666666,21.776727194698886,635.5833333333334,21.776727194698886,638,21.776727194698886C640.4166666666666,21.776727194698886,642.8333333333334,21.776727194698886,645.25,21.776727194698886C647.6666666666666,21.776727194698886,650.0833333333334,21.776727194698886,652.5,21.776727194698886C654.9166666666666,21.776727194698886,657.3333333333334,21.776727194698886,659.75,21.776727194698886C662.1666666666666,21.776727194698886,664.5833333333334,21.776727194698886,667,21.776727194698886C669.4166666666666,21.776727194698886,671.8333333333334,21.776727194698886,674.25,21.776727194698886C676.6666666666666,21.776727194698886,679.0833333333334,21.776727194698886,681.5,21.776727194698886C683.9166666666666,21.776727194698886,686.3333333333334,21.776727194698886,688.75,21.776727194698886C691.1666666666666,21.776727194698886,693.5833333333334,21.776727194698886,696,21.776727194698886C698.4166666666666,21.776727194698886,700.8333333333334,21.776727194698886,703.25,21.776727194698886C705.6666666666666,21.776727194698886,708.0833333333334,21.776727194698886,710.5,21.776727194698886C712.9166666666666,21.776727194698886,715.3333333333334,21.776727194698886,717.75,21.776727194698886C720.1666666666666,21.776727194698886,722.5833333333334,21.776727194698886,725,21.776727194698886C727.4166666666666,21.776727194698886,729.8333333333334,21.776727194698886,732.25,21.776727194698886C734.6666666666666,21.776727194698886,737.0833333333334,21.776727194698886,739.5,21.776727194698886C741.9166666666666,21.776727194698886,744.3333333333334,21.776727194698886,746.75,21.776727194698886C749.1666666666666,21.776727194698886,751.5833333333334,21.776727194698886,754,21.776727194698886C756.4166666666666,21.776727194698886,758.8333333333334,21.776727194698886,761.25,21.776727194698886C763.6666666666666,21.776727194698886,766.0833333333334,21.776727194698886,768.5,21.776727194698886C770.9166666666666,21.776727194698886,773.3333333333334,21.776727194698886,775.75,21.776727194698886C778.1666666666666,21.776727194698886,780.5833333333334,21.776727194698886,783,21.776727194698886C785.4166666666667,21.776727194698886,787.8333333333334,21.776727194698886,790.2500000000001,21.776727194698886C792.6666666666667,21.776727194698886,795.0833333333335,21.776727194698886,797.5000000000001,21.776727194698886C799.9166666666667,21.776727194698886,802.3333333333335,21.776727194698886,804.7500000000001,21.776727194698886C807.1666666666667,21.776727194698886,809.5833333333335,21.776727194698886,812.0000000000001,21.776727194698886C814.4166666666667,21.776727194698886,816.8333333333333,21.776727194698886,819.2499999999999,21.776727194698886C821.6666666666665,21.776727194698886,824.0833333333333,21.776727194698886,826.4999999999999,21.776727194698886C828.9166666666665,21.776727194698886,831.3333333333333,21.776727194698886,833.7499999999999,21.776727194698886C836.1666666666665,21.776727194698886,838.5833333333333,21.776727194698886,840.9999999999999,21.776727194698886C843.4166666666666,21.776727194698886,845.8333333333333,21.776727194698886,848.25,21.776727194698886C850.6666666666666,21.776727194698886,853.0833333333334,21.776727194698886,855.5,21.776727194698886C857.9166666666666,21.776727194698886,860.3333333333334,21.776727194698886,862.75,21.776727194698886C865.1666666666666,21.776727194698886,867.5833333333334,21.776727194698886,870,21.776727194698886C872.4166666666666,21.776727194698886,874.8333333333334,21.776727194698886,877.25,21.776727194698886C879.6666666666666,21.776727194698886,882.0833333333334,21.776727194698886,884.5,21.776727194698886C886.9166666666666,21.776727194698886,889.3333333333334,21.776727194698886,891.75,21.776727194698886C894.1666666666666,21.776727194698886,896.5833333333334,21.776727194698886,899,21.776727194698886C901.4166666666666,21.776727194698886,903.8333333333334,21.776727194698886,906.25,21.776727194698886C908.6666666666666,21.776727194698886,911.0833333333334,21.776727194698886,913.5,21.776727194698886C915.9166666666666,21.776727194698886,918.3333333333334,21.776727194698886,920.75,21.776727194698886C923.1666666666666,21.776727194698886,925.5833333333334,21.776727194698886,928,21.776727194698886C930.4166666666666,21.776727194698886,932.8333333333334,21.776727194698886,935.25,21.776727194698886C937.6666666666666,21.776727194698886,940.0833333333334,21.776727194698886,942.5,21.776727194698886C944.9166666666666,21.776727194698886,947.3333333333334,21.776727194698886,949.75,21.776727194698886C952.1666666666666,21.776727194698886,954.5833333333334,21.776727194698886,957,21.776727194698886C959.4166666666666,21.776727194698886,961.8333333333334,21.776727194698886,964.25,21.776727194698886C966.6666666666667,21.776727194698886,969.0833333333334,21.776727194698886,971.5000000000001,21.776727194698886C973.9166666666667,21.776727194698886,976.3333333333335,21.776727194698886,978.7500000000001,21.776727194698886C981.1666666666667,21.776727194698886,983.5833333333335,21.776727194698886,986.0000000000001,21.776727194698886C988.4166666666667,21.776727194698886,990.8333333333335,21.776727194698886,993.2500000000001,21.776727194698886C995.6666666666667,21.776727194698886,998.0833333333333,21.776727194698886,1000.4999999999999,21.776727194698886C1002.9166666666665,21.776727194698886,1005.3333333333333,21.776727194698886,1007.7499999999999,21.776727194698886C1010.1666666666665,21.776727194698886,1012.5833333333333,21.776727194698886,1014.9999999999999,21.776727194698886C1017.4166666666665,21.776727194698886,1019.8333333333333,21.776727194698886,1022.2499999999999,21.776727194698886C1024.6666666666665,21.776727194698886,1027.0833333333333,21.776727194698886,1029.5,21.776727194698886C1031.9166666666667,21.776727194698886,1034.3333333333333,21.776727194698886,1036.75,21.776727194698886C1039.1666666666667,21.776727194698886,1041.5833333333333,21.776727194698886,1044,21.776727194698886C1046.4166666666667,21.776727194698886,1048.8333333333333,21.776727194698886,1051.25,21.776727194698886C1053.6666666666667,21.776727194698886,1056.0833333333333,21.776727194698886,1058.5,21.776727194698886C1060.9166666666667,21.776727194698886,1063.3333333333333,21.776727194698886,1065.75,21.776727194698886C1068.1666666666667,21.776727194698886,1070.5833333333333,21.776727194698886,1073,21.776727194698886C1075.4166666666667,21.776727194698886,1077.8333333333333,21.776727194698886,1080.25,21.776727194698886C1082.6666666666667,21.776727194698886,1085.0833333333333,21.776727194698886,1087.5,21.776727194698886C1089.9166666666667,21.776727194698886,1092.3333333333333,21.776727194698886,1094.75,21.776727194698886C1097.1666666666667,21.776727194698886,1099.5833333333333,21.776727194698886,1102,21.776727194698886C1104.4166666666667,21.776727194698886,1106.8333333333333,21.776727194698886,1109.25,21.776727194698886C1111.6666666666667,21.776727194698886,1114.0833333333333,21.776727194698886,1116.5,21.776727194698886C1118.9166666666667,21.776727194698886,1121.3333333333333,21.776727194698886,1123.75,21.776727194698886C1126.1666666666667,21.776727194698886,1128.5833333333333,21.776727194698886,1131,21.776727194698886C1133.4166666666667,21.776727194698886,1135.8333333333333,21.776727194698886,1138.25,21.776727194698886C1140.6666666666667,21.776727194698886,1143.0833333333333,21.776727194698886,1145.5,21.776727194698886C1147.9166666666667,21.776727194698886,1150.3333333333333,21.776727194698886,1152.75,21.776727194698886C1155.1666666666667,21.776727194698886,1157.5833333333333,21.776727194698886,1160,21.776727194698886C1162.4166666666667,21.776727194698886,1164.8333333333333,21.776727194698886,1167.25,21.776727194698886C1169.6666666666667,21.776727194698886,1172.0833333333333,21.776727194698886,1174.5,21.776727194698886C1176.9166666666667,21.776727194698886,1179.3333333333333,21.776727194698886,1181.75,21.776727194698886C1184.1666666666667,21.776727194698886,1186.5833333333333,21.776727194698886,1189,21.776727194698886C1191.4166666666667,21.776727194698886,1193.8333333333333,21.776727194698886,1196.25,21.776727194698886C1198.6666666666667,21.776727194698886,1201.0833333333333,21.776727194698886,1203.5,21.776727194698886C1205.9166666666667,21.776727194698886,1208.3333333333333,21.776727194698886,1210.75,21.776727194698886C1213.1666666666667,21.776727194698886,1215.5833333333333,21.776727194698886,1218,21.776727194698886C1220.4166666666667,21.776727194698886,1222.8333333333333,21.776727194698886,1225.25,21.776727194698886C1227.6666666666667,21.776727194698886,1230.0833333333333,21.776727194698886,1232.5,21.776727194698886C1234.9166666666667,21.776727194698886,1237.3333333333333,21.776727194698886,1239.75,21.776727194698886C1242.1666666666667,21.776727194698886,1244.5833333333333,21.776727194698886,1247,21.776727194698886C1249.4166666666667,21.776727194698886,1251.8333333333333,21.776727194698886,1254.25,21.776727194698886C1256.6666666666667,21.776727194698886,1259.0833333333333,21.776727194698886,1261.5,21.776727194698886C1263.9166666666667,21.776727194698886,1266.3333333333333,21.776727194698886,1268.75,21.776727194698886C1271.1666666666667,21.776727194698886,1273.5833333333333,21.776727194698886,1276,21.776727194698886C1278.4166666666667,21.776727194698886,1280.8333333333333,21.776727194698886,1283.25,21.776727194698886C1285.6666666666667,21.776727194698886,1288.0833333333333,21.776727194698886,1290.5,21.776727194698886C1292.9166666666667,21.776727194698886,1295.3333333333333,21.776727194698886,1297.75,21.776727194698886C1300.1666666666667,21.776727194698886,1302.5833333333333,21.776727194698886,1305,21.776727194698886C1307.4166666666667,21.776727194698886,1309.8333333333333,21.776727194698886,1312.25,21.776727194698886C1314.6666666666667,21.776727194698886,1317.0833333333333,21.776727194698886,1319.5,21.776727194698886C1321.9166666666667,21.776727194698886,1324.3333333333333,21.776727194698886,1326.75,21.776727194698886C1329.1666666666667,21.776727194698886,1331.5833333333333,21.776727194698886,1334,21.776727194698886C1336.4166666666667,21.776727194698886,1338.8333333333333,21.776727194698886,1341.25,21.776727194698886C1343.6666666666667,21.776727194698886,1346.0833333333333,21.776727194698886,1348.5,21.776727194698886C1350.9166666666667,21.776727194698886,1353.3333333333333,21.776727194698886,1355.75,21.776727194698886C1358.1666666666667,21.776727194698886,1360.5833333333333,21.776727194698886,1363,21.776727194698886C1365.4166666666667,21.776727194698886,1367.8333333333333,21.776727194698886,1370.25,21.776727194698886C1372.6666666666667,21.776727194698886,1375.0833333333333,21.776727194698886,1377.5,21.776727194698886C1379.9166666666667,21.776727194698886,1382.3333333333333,21.776727194698886,1384.75,21.776727194698886C1387.1666666666667,21.776727194698886,1389.5833333333333,21.776727194698886,1392,21.776727194698886C1394.4166666666667,21.776727194698886,1396.8333333333333,21.776727194698886,1399.25,21.776727194698886C1401.6666666666667,21.776727194698886,1404.0833333333333,21.776727194698886,1406.5,21.776727194698886C1408.9166666666667,21.776727194698886,1411.3333333333333,21.776727194698886,1413.75,21.776727194698886C1416.1666666666667,21.776727194698886,1418.5833333333333,21.776727194698886,1421,21.776727194698886C1423.4166666666667,21.776727194698886,1425.8333333333333,21.776727194698886,1428.25,21.776727194698886C1430.6666666666667,21.776727194698886,1433.0833333333333,21.776727194698886,1435.5,21.776727194698886C1437.9166666666667,21.776727194698886,1440.3333333333333,21.776727194698886,1442.75,21.776727194698886C1445.1666666666667,21.776727194698886,1447.5833333333333,10.888363597349443,1450,0" fill="transparent" stroke-linecap="round" stroke="#B6509E" stroke-width="2"></path><path class="visx-linepath" d="M0,115C2.4166666666666665,115,4.833333333333334,115,7.25,115C9.666666666666666,115,12.083333333333334,115,14.5,115C16.916666666666668,115,19.333333333333332,115,21.75,115C24.166666666666668,115,26.583333333333332,115,29,115C31.416666666666668,115,33.833333333333336,115,36.25,115C38.666666666666664,115,41.083333333333336,115,43.5,115C45.91666666666667,115,48.333333333333336,115,50.75000000000001,115C53.16666666666667,115,55.583333333333336,115,58,115C60.416666666666664,115,62.833333333333336,115,65.25,115C67.66666666666667,115,70.08333333333333,115,72.5,115C74.91666666666667,115,77.33333333333333,115,79.75,115C82.16666666666667,115,84.58333333333333,115,87,115C89.41666666666667,115,91.83333333333333,115,94.25,115C96.66666666666667,115,99.08333333333334,115,101.50000000000001,115C103.91666666666667,115,106.33333333333334,115,108.75,115C111.16666666666667,115,113.58333333333333,115,116,115C118.41666666666667,115,120.83333333333334,115,123.25000000000001,115C125.66666666666667,115,128.08333333333334,115,130.5,115C132.91666666666666,115,135.33333333333334,115,137.75,115C140.16666666666666,115,142.58333333333334,115,145,115C147.41666666666666,115,149.83333333333334,115,152.25,115C154.66666666666666,115,157.08333333333334,115,159.5,115C161.91666666666666,115,164.33333333333334,115,166.75,115C169.16666666666666,115,171.58333333333334,115,174,115C176.41666666666666,115,178.83333333333334,115,181.25,115C183.66666666666666,115,186.08333333333334,115,188.5,115C190.91666666666666,115,193.33333333333334,115,195.75,115C198.16666666666669,115,200.58333333333334,115,203.00000000000003,115C205.41666666666669,115,207.83333333333331,115,210.24999999999997,115C212.66666666666666,115,215.08333333333331,115,217.5,115C219.91666666666666,115,222.33333333333334,115,224.75,115C227.16666666666666,115,229.58333333333334,115,232,115C234.41666666666666,115,236.83333333333334,115,239.25,115C241.66666666666669,115,244.08333333333334,115,246.50000000000003,115C248.91666666666669,115,251.33333333333331,115,253.74999999999997,115C256.16666666666663,115,258.5833333333333,115,261,115C263.4166666666667,115,265.8333333333333,115,268.25,115C270.6666666666667,115,273.0833333333333,115,275.5,115C277.9166666666667,115,280.3333333333333,115,282.75,115C285.1666666666667,115,287.5833333333333,115,290,115C292.4166666666667,115,294.8333333333333,115,297.25,115C299.6666666666667,115,302.0833333333333,115,304.5,115C306.9166666666667,115,309.3333333333333,115,311.75,115C314.1666666666667,115,316.5833333333333,115,319,115C321.4166666666667,115,323.8333333333333,115,326.25,115C328.6666666666667,115,331.0833333333333,115,333.5,115C335.9166666666667,115,338.3333333333333,115,340.75,115C343.1666666666667,115,345.5833333333333,115,348,115C350.4166666666667,115,352.8333333333333,115,355.25,115C357.6666666666667,115,360.0833333333333,115,362.5,115C364.9166666666667,115,367.3333333333333,115,369.75,115C372.1666666666667,115,374.5833333333333,115,377,115C379.4166666666667,115,381.8333333333333,115,384.25,115C386.6666666666667,115,389.0833333333333,115,391.5,115C393.9166666666667,115,396.33333333333337,115,398.75000000000006,115C401.16666666666674,115,403.58333333333337,115,406.00000000000006,115C408.4166666666667,115,410.8333333333333,115,413.24999999999994,115C415.66666666666663,115,418.08333333333326,115,420.49999999999994,115C422.91666666666663,115,425.3333333333333,115,427.75,115C430.1666666666667,115,432.5833333333333,115,435,115C437.4166666666667,115,439.8333333333333,115,442.25,115C444.6666666666667,115,447.0833333333333,115,449.5,115C451.9166666666667,115,454.3333333333333,115,456.75,115C459.1666666666667,115,461.5833333333333,115,464,115C466.4166666666667,115,468.8333333333333,115,471.25,115C473.6666666666667,115,476.0833333333333,115,478.5,115C480.9166666666667,115,483.33333333333337,115,485.75000000000006,115C488.16666666666674,115,490.58333333333337,115,493.00000000000006,115C495.4166666666667,115,497.8333333333333,115,500.24999999999994,115C502.66666666666663,115,505.08333333333326,115,507.49999999999994,115C509.91666666666663,115,512.3333333333333,115,514.75,115C517.1666666666666,115,519.5833333333334,115,522,115C524.4166666666666,115,526.8333333333334,115,529.25,115C531.6666666666666,115,534.0833333333334,115,536.5,115C538.9166666666666,115,541.3333333333334,115,543.75,115C546.1666666666666,115,548.5833333333334,115,551,115C553.4166666666666,115,555.8333333333334,115,558.25,115C560.6666666666666,115,563.0833333333334,115,565.5,115C567.9166666666666,115,570.3333333333334,115,572.75,115C575.1666666666666,115,577.5833333333334,115,580,115C582.4166666666666,115,584.8333333333334,115,587.25,115C589.6666666666666,115,592.0833333333334,115,594.5,115C596.9166666666666,115,599.3333333333334,115,601.75,115C604.1666666666666,115,606.5833333333334,115,609,115C611.4166666666666,115,613.8333333333334,115,616.25,115C618.6666666666666,115,621.0833333333334,115,623.5,115C625.9166666666666,115,628.3333333333334,115,630.75,115C633.1666666666666,115,635.5833333333334,115,638,115C640.4166666666666,115,642.8333333333334,115,645.25,115C647.6666666666666,115,650.0833333333334,115,652.5,115C654.9166666666666,115,657.3333333333334,115,659.75,115C662.1666666666666,115,664.5833333333334,115,667,115C669.4166666666666,115,671.8333333333334,115,674.25,115C676.6666666666666,115,679.0833333333334,115,681.5,115C683.9166666666666,115,686.3333333333334,115,688.75,115C691.1666666666666,115,693.5833333333334,115,696,115C698.4166666666666,115,700.8333333333334,115,703.25,115C705.6666666666666,115,708.0833333333334,115,710.5,115C712.9166666666666,115,715.3333333333334,115,717.75,115C720.1666666666666,115,722.5833333333334,115,725,115C727.4166666666666,115,729.8333333333334,115,732.25,115C734.6666666666666,115,737.0833333333334,115,739.5,115C741.9166666666666,115,744.3333333333334,115,746.75,115C749.1666666666666,115,751.5833333333334,115,754,115C756.4166666666666,115,758.8333333333334,115,761.25,115C763.6666666666666,115,766.0833333333334,115,768.5,115C770.9166666666666,115,773.3333333333334,115,775.75,115C778.1666666666666,115,780.5833333333334,115,783,115C785.4166666666667,115,787.8333333333334,115,790.2500000000001,115C792.6666666666667,115,795.0833333333335,115,797.5000000000001,115C799.9166666666667,115,802.3333333333335,115,804.7500000000001,115C807.1666666666667,115,809.5833333333335,115,812.0000000000001,115C814.4166666666667,115,816.8333333333333,115,819.2499999999999,115C821.6666666666665,115,824.0833333333333,115,826.4999999999999,115C828.9166666666665,115,831.3333333333333,115,833.7499999999999,115C836.1666666666665,115,838.5833333333333,115,840.9999999999999,115C843.4166666666666,115,845.8333333333333,115,848.25,115C850.6666666666666,115,853.0833333333334,115,855.5,115C857.9166666666666,115,860.3333333333334,115,862.75,115C865.1666666666666,115,867.5833333333334,115,870,115C872.4166666666666,115,874.8333333333334,115,877.25,115C879.6666666666666,115,882.0833333333334,115,884.5,115C886.9166666666666,115,889.3333333333334,115,891.75,115C894.1666666666666,115,896.5833333333334,115,899,115C901.4166666666666,115,903.8333333333334,115,906.25,115C908.6666666666666,115,911.0833333333334,115,913.5,115C915.9166666666666,115,918.3333333333334,115,920.75,115C923.1666666666666,115,925.5833333333334,115,928,115C930.4166666666666,115,932.8333333333334,115,935.25,115C937.6666666666666,115,940.0833333333334,115,942.5,115C944.9166666666666,115,947.3333333333334,115,949.75,115C952.1666666666666,115,954.5833333333334,115,957,115C959.4166666666666,115,961.8333333333334,115,964.25,115C966.6666666666667,115,969.0833333333334,115,971.5000000000001,115C973.9166666666667,115,976.3333333333335,115,978.7500000000001,115C981.1666666666667,115,983.5833333333335,115,986.0000000000001,115C988.4166666666667,115,990.8333333333335,115,993.2500000000001,115C995.6666666666667,115,998.0833333333333,115,1000.4999999999999,115C1002.9166666666665,115,1005.3333333333333,115,1007.7499999999999,115C1010.1666666666665,115,1012.5833333333333,115,1014.9999999999999,115C1017.4166666666665,115,1019.8333333333333,115,1022.2499999999999,115C1024.6666666666665,115,1027.0833333333333,115,1029.5,115C1031.9166666666667,115,1034.3333333333333,115,1036.75,115C1039.1666666666667,115,1041.5833333333333,115,1044,115C1046.4166666666667,115,1048.8333333333333,115,1051.25,115C1053.6666666666667,115,1056.0833333333333,115,1058.5,115C1060.9166666666667,115,1063.3333333333333,115,1065.75,115C1068.1666666666667,115,1070.5833333333333,115,1073,115C1075.4166666666667,115,1077.8333333333333,115,1080.25,115C1082.6666666666667,115,1085.0833333333333,115,1087.5,115C1089.9166666666667,115,1092.3333333333333,115,1094.75,115C1097.1666666666667,115,1099.5833333333333,115,1102,115C1104.4166666666667,115,1106.8333333333333,115,1109.25,115C1111.6666666666667,115,1114.0833333333333,115,1116.5,115C1118.9166666666667,115,1121.3333333333333,115,1123.75,115C1126.1666666666667,115,1128.5833333333333,115,1131,115C1133.4166666666667,115,1135.8333333333333,115,1138.25,115C1140.6666666666667,115,1143.0833333333333,115,1145.5,115C1147.9166666666667,115,1150.3333333333333,115,1152.75,115C1155.1666666666667,115,1157.5833333333333,115,1160,115C1162.4166666666667,115,1164.8333333333333,115,1167.25,115C1169.6666666666667,115,1172.0833333333333,115,1174.5,115C1176.9166666666667,115,1179.3333333333333,115,1181.75,115C1184.1666666666667,115,1186.5833333333333,115,1189,115C1191.4166666666667,115,1193.8333333333333,115,1196.25,115C1198.6666666666667,115,1201.0833333333333,115,1203.5,115C1205.9166666666667,115,1208.3333333333333,115,1210.75,115C1213.1666666666667,115,1215.5833333333333,115,1218,115C1220.4166666666667,115,1222.8333333333333,115,1225.25,115C1227.6666666666667,115,1230.0833333333333,115,1232.5,115C1234.9166666666667,115,1237.3333333333333,115,1239.75,115C1242.1666666666667,115,1244.5833333333333,115,1247,115C1249.4166666666667,115,1251.8333333333333,115,1254.25,115C1256.6666666666667,115,1259.0833333333333,115,1261.5,115C1263.9166666666667,115,1266.3333333333333,115,1268.75,115C1271.1666666666667,115,1273.5833333333333,115,1276,115C1278.4166666666667,115,1280.8333333333333,115,1283.25,115C1285.6666666666667,115,1288.0833333333333,115,1290.5,115C1292.9166666666667,115,1295.3333333333333,115,1297.75,115C1300.1666666666667,115,1302.5833333333333,115,1305,115C1307.4166666666667,115,1309.8333333333333,115,1312.25,115C1314.6666666666667,115,1317.0833333333333,115,1319.5,115C1321.9166666666667,115,1324.3333333333333,115,1326.75,115C1329.1666666666667,115,1331.5833333333333,115,1334,115C1336.4166666666667,115,1338.8333333333333,115,1341.25,115C1343.6666666666667,115,1346.0833333333333,115,1348.5,115C1350.9166666666667,115,1353.3333333333333,115,1355.75,115C1358.1666666666667,115,1360.5833333333333,115,1363,115C1365.4166666666667,115,1367.8333333333333,115,1370.25,115C1372.6666666666667,115,1375.0833333333333,115,1377.5,115C1379.9166666666667,115,1382.3333333333333,115,1384.75,115C1387.1666666666667,115,1389.5833333333333,115,1392,115C1394.4166666666667,115,1396.8333333333333,115,1399.25,115C1401.6666666666667,115,1404.0833333333333,115,1406.5,115C1408.9166666666667,115,1411.3333333333333,115,1413.75,115C1416.1666666666667,115,1418.5833333333333,115,1421,115C1423.4166666666667,115,1425.8333333333333,115,1428.25,115C1430.6666666666667,115,1433.0833333333333,115,1435.5,115C1437.9166666666667,115,1440.3333333333333,115,1442.75,115C1445.1666666666667,115,1447.5833333333333,57.49999999999999,1450,0" fill="transparent" stroke-linecap="round" stroke="#E7C6DF" stroke-width="2"></path><g class="visx-group visx-axis visx-axis-bottom" transform="translate(0, 115)"><g class="visx-group visx-axis-tick" transform="translate(0, 0)"><line class="visx-line" x1="0" y1="0" x2="0" y2="8" fill="transparent" shape-rendering="crispEdges" stroke="#000" stroke-width="0" stroke-linecap="square"></line><svg x="0" y="0" font-size="10" style="overflow:visible"><text transform="" x="0" y="18" fill="#000" font-size="10" text-anchor="middle"><tspan x="0" dy="0em">0%</tspan></text></svg></g><g class="visx-group visx-axis-tick" transform="translate(0, 0)"><line class="visx-line" x1="362.5" y1="0" x2="362.5" y2="8" fill="transparent" shape-rendering="crispEdges" stroke="#000" stroke-width="0" stroke-linecap="square"></line><svg x="0" y="0" font-size="10" style="overflow:visible"><text transform="" x="362.5" y="18" fill="#000" font-size="10" text-anchor="middle"><tspan x="362.5" dy="0em">25%</tspan></text></svg></g><g class="visx-group visx-axis-tick" transform="translate(0, 0)"><line class="visx-line" x1="725" y1="0" x2="725" y2="8" fill="transparent" shape-rendering="crispEdges" stroke="#000" stroke-width="0" stroke-linecap="square"></line><svg x="0" y="0" font-size="10" style="overflow:visible"><text transform="" x="725" y="18" fill="#000" font-size="10" text-anchor="middle"><tspan x="725" dy="0em">50%</tspan></text></svg></g><g class="visx-group visx-axis-tick" transform="translate(0, 0)"><line class="visx-line" x1="1087.5" y1="0" x2="1087.5" y2="8" fill="transparent" shape-rendering="crispEdges" stroke="#000" stroke-width="0" stroke-linecap="square"></line><svg x="0" y="0" font-size="10" style="overflow:visible"><text transform="" x="1087.5" y="18" fill="#000" font-size="10" text-anchor="middle"><tspan x="1087.5" dy="0em">75%</tspan></text></svg></g><g class="visx-group visx-axis-tick" transform="translate(0, 0)"><line class="visx-line" x1="1450" y1="0" x2="1450" y2="8" fill="transparent" shape-rendering="crispEdges" stroke="#000" stroke-width="0" stroke-linecap="square"></line><svg x="0" y="0" font-size="10" style="overflow:visible"><text transform="" x="1450" y="18" fill="#000" font-size="10" text-anchor="middle"><tspan x="1450" dy="0em">100%</tspan></text></svg></g><line class="visx-line visx-axis-line" x1="0.5" y1="0" x2="1450.5" y2="0" fill="transparent" shape-rendering="crispEdges" stroke="#222" stroke-width="0"></line></g><g class="visx-group visx-axis visx-axis-left" transform="translate(0, 0)"><g class="visx-group visx-axis-tick" transform="translate(0, 0)"><line class="visx-line" x1="0" y1="115" x2="-8" y2="115" fill="transparent" shape-rendering="crispEdges" stroke="#222" stroke-width="0" stroke-linecap="square"></line><svg x="-30" y="0" font-size="8" style="overflow:visible"><text transform="" x="-8" y="115" fill="#000" font-size="8" text-anchor="start"><tspan x="-8" dy="0em">0%</tspan></text></svg></g><g class="visx-group visx-axis-tick" transform="translate(0, 0)"><line class="visx-line" x1="0" y1="43.125" x2="-8" y2="43.125" fill="transparent" shape-rendering="crispEdges" stroke="#222" stroke-width="0" stroke-linecap="square"></line><svg x="-30" y="0" font-size="8" style="overflow:visible"><text transform="" x="-8" y="43.125" fill="#000" font-size="8" text-anchor="start"><tspan x="-8" dy="0em">5%</tspan></text></svg></g><line class="visx-line visx-axis-line" x1="0" y1="115.5" x2="0" y2="0.5" fill="transparent" shape-rendering="crispEdges" stroke="#222" stroke-width="0"></line></g><rect class="visx-bar" width="1450" height="115" fill="transparent"></rect><line class="visx-line" x1="1450" y1="28" x2="1450" y2="115" fill="transparent" shape-rendering="crispEdges" stroke="#0062D2" stroke-width="1" pointer-events="none" stroke-dasharray="5,2"></line><svg x="0" y="0" font-size="10px" style="overflow:visible"><text transform="" x="1450" y="20" font-size="10px" fill="#fff" stroke="#fff" stroke-width="0.8em" text-anchor="middle"><tspan x="1450" dy="0.355em">Optimal 100%</tspan></text></svg><svg x="0" y="0" font-size="10px" style="overflow:visible"><text transform="" x="1450" y="20" font-size="10px" fill="#62677B" text-anchor="middle"><tspan x="1450" dy="0.355em">Optimal 100%</tspan></text></svg></g></svg>