<?xml version="1.0"?><svg xmlns="http://www.w3.org/2000/svg" xmlns:xlink= "http://www.w3.org/1999/xlink" style="background: white;" width="1500" height="185"> <g style="color: black; font-size: 13px; font-family: sans-serif; transform: translate(18px, 25px);"><g><circle r="3" cx="-6" cy="-5" style="fill: #B6509E" /><text>Borrow APR, variable</text></g><g style="transform: translateX(150px);"><circle r="3" cx="-6" cy="-5" style="fill: rgb(231, 198, 223)" /><text>Borrow APR, stable</text></g><g style="transform: translateX(290px);"><circle r="3" cx="-6" cy="-5" style="fill: rgb(0, 98, 210)" /><text>Utilization Rate</text></g></g><g class="visx-group" transform="translate(40, 50)"><g class="visx-group visx-rows" transform="translate(0, 0)"><line class="visx-line" x1="0" y1="115" x2="1450" y2="115" fill="transparent" shape-rendering="crispEdges" stroke="#000" stroke-width="1" stroke-dasharray="3,3" pointer-events="none"></line><line class="visx-line" x1="0" y1="73.92857142857142" x2="1450" y2="73.92857142857142" fill="transparent" shape-rendering="crispEdges" stroke="#000" stroke-width="1" stroke-dasharray="3,3" pointer-events="none"></line><line class="visx-line" x1="0" y1="32.857142857142854" x2="1450" y2="32.857142857142854" fill="transparent" shape-rendering="crispEdges" stroke="#000" stroke-width="1" stroke-dasharray="3,3" pointer-events="none"></line></g><path class="visx-linepath" d="M0,114.99999999997078C2.4166666666666665,114.99513227511524,4.833333333333334,114.99026455025968,7.25,114.98539682539683C9.666666666666666,114.98052910053399,12.083333333333334,114.97566137566137,14.5,114.97079365079365C16.916666666666668,114.96592592592593,19.333333333333332,114.9610582010582,21.75,114.95619047619047C24.166666666666668,114.95132275132275,26.583333333333332,114.94645502645503,29,114.9415873015873C31.416666666666668,114.93671957671958,33.833333333333336,114.93185185185185,36.25,114.92698412698412C38.666666666666664,114.9221164021164,41.083333333333336,114.91724867724868,43.5,114.91238095238096C45.91666666666667,114.90751322751323,48.333333333333336,114.9026455026455,50.75000000000001,114.89777777777778C53.16666666666667,114.89291005291005,55.583333333333336,114.88804232804232,58,114.8831746031746C60.416666666666664,114.87830687830687,62.833333333333336,114.87343915343915,65.25,114.86857142857143C67.66666666666667,114.8637037037037,70.08333333333333,114.85883597883597,72.5,114.85396825396825C74.91666666666667,114.84910052910053,77.33333333333333,114.8442328042328,79.75,114.83936507936508C82.16666666666667,114.83449735449736,84.58333333333333,114.82962962962964,87,114.82476190476191C89.41666666666667,114.81989417989419,91.83333333333333,114.81502645502646,94.25,114.81015873015873C96.66666666666667,114.80529100529101,99.08333333333334,114.80042328042327,101.50000000000001,114.79555555555555C103.91666666666667,114.79068783068783,106.33333333333334,114.78582010582011,108.75,114.78095238095239C111.16666666666667,114.77608465608466,113.58333333333333,114.77121693121693,116,114.7663492063492C118.41666666666667,114.76148148148148,120.83333333333334,114.75661375661376,123.25000000000001,114.75174603174604C125.66666666666667,114.74687830687832,128.08333333333334,114.74201058201058,130.5,114.73714285714286C132.91666666666666,114.73227513227513,135.33333333333334,114.7274074074074,137.75,114.72253968253968C140.16666666666666,114.71767195767195,142.58333333333334,114.71280423280423,145,114.70793650793651C147.41666666666666,114.70306878306879,149.83333333333334,114.69820105820105,152.25,114.69333333333333C154.66666666666666,114.6884656084656,157.08333333333334,114.68359788359788,159.5,114.67873015873016C161.91666666666666,114.67386243386244,164.33333333333334,114.66899470899472,166.75,114.664126984127C169.16666666666666,114.65925925925927,171.58333333333334,114.65439153439152,174,114.6495238095238C176.41666666666666,114.64465608465608,178.83333333333334,114.63978835978835,181.25,114.63492063492063C183.66666666666666,114.63005291005291,186.08333333333334,114.62518518518519,188.5,114.62031746031747C190.91666666666666,114.61544973544974,193.33333333333334,114.61058201058201,195.75,114.60571428571428C198.16666666666669,114.60084656084656,200.58333333333334,114.59597883597884,203.00000000000003,114.59111111111112C205.41666666666669,114.5862433862434,207.83333333333331,114.58137566137566,210.24999999999997,114.57650793650794C212.66666666666666,114.57164021164022,215.08333333333331,114.56677248677248,217.5,114.56190476190476C219.91666666666666,114.55703703703703,222.33333333333334,114.55216931216931,224.75,114.54730158730159C227.16666666666666,114.54243386243387,229.58333333333334,114.53756613756613,232,114.53269841269841C234.41666666666666,114.52783068783069,236.83333333333334,114.52296296296296,239.25,114.51809523809524C241.66666666666669,114.51322751322752,244.08333333333334,114.5083597883598,246.50000000000003,114.50349206349208C248.91666666666669,114.49862433862435,251.33333333333331,114.4937566137566,253.74999999999997,114.48888888888888C256.16666666666663,114.48402116402116,258.5833333333333,114.47915343915344,261,114.47428571428571C263.4166666666667,114.46941798941799,265.8333333333333,114.46455026455027,268.25,114.45968253968255C270.6666666666667,114.45481481481482,273.0833333333333,114.44994708994709,275.5,114.44507936507937C277.9166666666667,114.44021164021164,280.3333333333333,114.43534391534392,282.75,114.4304761904762C285.1666666666667,114.42560846560848,287.5833333333333,114.42074074074073,290,114.415873015873C292.4166666666667,114.41100529100528,294.8333333333333,114.40613756613756,297.25,114.40126984126984C299.6666666666667,114.39640211640211,302.0833333333333,114.39153439153439,304.5,114.38666666666667C306.9166666666667,114.38179894179895,309.3333333333333,114.37693121693121,311.75,114.37206349206349C314.1666666666667,114.36719576719577,316.5833333333333,114.36232804232804,319,114.35746031746032C321.4166666666667,114.3525925925926,323.8333333333333,114.34772486772486,326.25,114.34285714285714C328.6666666666667,114.33798941798942,331.0833333333333,114.33312169312168,333.5,114.32825396825396C335.9166666666667,114.32338624338624,338.3333333333333,114.31851851851852,340.75,114.3136507936508C343.1666666666667,114.30878306878307,345.5833333333333,114.30391534391535,348,114.29904761904763C350.4166666666667,114.2941798941799,352.8333333333333,114.28931216931217,355.25,114.28444444444445C357.6666666666667,114.27957671957672,360.0833333333333,114.27470899470899,362.5,114.26984126984127C364.9166666666667,114.26497354497354,367.3333333333333,114.2601058201058,369.75,114.25523809523808C372.1666666666667,114.25037037037036,374.5833333333333,114.24550264550264,377,114.24063492063492C379.4166666666667,114.2357671957672,381.8333333333333,114.23089947089947,384.25,114.22603174603175C386.6666666666667,114.22116402116403,389.0833333333333,114.21629629629629,391.5,114.21142857142857C393.9166666666667,114.20656084656085,396.33333333333337,114.20169312169313,398.75000000000006,114.1968253968254C401.16666666666674,114.19195767195768,403.58333333333337,114.18708994708994,406.00000000000006,114.18222222222222C408.4166666666667,114.1773544973545,410.8333333333333,114.17248677248676,413.24999999999994,114.16761904761904C415.66666666666663,114.16275132275132,418.08333333333326,114.1578835978836,420.49999999999994,114.15301587301587C422.91666666666663,114.14814814814815,425.3333333333333,114.14328042328043,427.75,114.13841269841271C430.1666666666667,114.13354497354499,432.5833333333333,114.12867724867725,435,114.12380952380953C437.4166666666667,114.1189417989418,439.8333333333333,114.11407407407407,442.25,114.10920634920635C444.6666666666667,114.10433862433862,447.0833333333333,114.09947089947089,449.5,114.09460317460317C451.9166666666667,114.08973544973544,454.3333333333333,114.08486772486772,456.75,114.08C459.1666666666667,114.07513227513228,461.5833333333333,114.07026455026455,464,114.06539682539683C466.4166666666667,114.06052910052911,468.8333333333333,114.05566137566137,471.25,114.05079365079365C473.6666666666667,114.04592592592593,476.0833333333333,114.04105820105819,478.5,114.03619047619047C480.9166666666667,114.03132275132275,483.33333333333337,114.02645502645503,485.75000000000006,114.0215873015873C488.16666666666674,114.01671957671958,490.58333333333337,114.01185185185184,493.00000000000006,114.00698412698412C495.4166666666667,114.0021164021164,497.8333333333333,113.99724867724868,500.24999999999994,113.99238095238096C502.66666666666663,113.98751322751323,505.08333333333326,113.98264550264551,507.49999999999994,113.97777777777779C509.91666666666663,113.97291005291007,512.3333333333333,113.96804232804233,514.75,113.96317460317461C517.1666666666666,113.95830687830689,519.5833333333334,113.95343915343915,522,113.94857142857143C524.4166666666666,113.9437037037037,526.8333333333334,113.93883597883597,529.25,113.93396825396825C531.6666666666666,113.92910052910052,534.0833333333334,113.9242328042328,536.5,113.91936507936508C538.9166666666666,113.91449735449736,541.3333333333334,113.90962962962963,543.75,113.90476190476191C546.1666666666666,113.89989417989419,548.5833333333334,113.89502645502645,551,113.89015873015873C553.4166666666666,113.88529100529101,555.8333333333334,113.88042328042327,558.25,113.87555555555555C560.6666666666666,113.87068783068783,563.0833333333334,113.8658201058201,565.5,113.86095238095238C567.9166666666666,113.85608465608466,570.3333333333334,113.85121693121692,572.75,113.8463492063492C575.1666666666666,113.84148148148148,577.5833333333334,113.83661375661376,580,113.83174603174604C582.4166666666666,113.82687830687831,584.8333333333334,113.82201058201059,587.25,113.81714285714287C589.6666666666666,113.81227513227515,592.0833333333334,113.8074074074074,594.5,113.80253968253967C596.9166666666666,113.79767195767195,599.3333333333334,113.79280423280423,601.75,113.78793650793651C604.1666666666666,113.78306878306879,606.5833333333334,113.77820105820105,609,113.77333333333333C611.4166666666666,113.7684656084656,613.8333333333334,113.76359788359788,616.25,113.75873015873016C618.6666666666666,113.75386243386244,621.0833333333334,113.74899470899472,623.5,113.74412698412699C625.9166666666666,113.73925925925927,628.3333333333334,113.73439153439153,630.75,113.72952380952381C633.1666666666666,113.72465608465609,635.5833333333334,113.71978835978835,638,113.71492063492063C640.4166666666666,113.71005291005291,642.8333333333334,113.70518518518519,645.25,113.70031746031746C647.6666666666666,113.69544973544974,650.0833333333334,113.690582010582,652.5,113.68571428571428C654.9166666666666,113.68084656084656,657.3333333333334,113.67597883597884,659.75,113.67111111111112C662.1666666666666,113.6662433862434,664.5833333333334,113.66137566137566,667,113.65650793650794C669.4166666666666,113.65164021164021,671.8333333333334,113.64677248677248,674.25,113.64190476190475C676.6666666666666,113.63703703703703,679.0833333333334,113.63216931216931,681.5,113.62730158730159C683.9166666666666,113.62243386243387,686.3333333333334,113.61756613756613,688.75,113.6126984126984C691.1666666666666,113.60783068783068,693.5833333333334,113.60296296296296,696,113.59809523809524C698.4166666666666,113.59322751322752,700.8333333333334,113.5883597883598,703.25,113.58349206349207C705.6666666666666,113.57862433862435,708.0833333333334,113.5737566137566,710.5,113.56888888888888C712.9166666666666,113.56402116402116,715.3333333333334,113.55915343915343,717.75,113.55428571428571C720.1666666666666,113.54941798941799,722.5833333333334,113.54455026455027,725,113.53968253968254C727.4166666666666,113.53481481481482,729.8333333333334,113.52994708994709,732.25,113.52507936507936C734.6666666666666,113.52021164021164,737.0833333333334,113.51534391534392,739.5,113.5104761904762C741.9166666666666,113.50560846560847,744.3333333333334,113.50074074074074,746.75,113.49587301587302C749.1666666666666,113.4910052910053,751.5833333333334,113.48613756613756,754,113.48126984126984C756.4166666666666,113.47640211640211,758.8333333333334,113.47153439153439,761.25,113.46666666666667C763.6666666666666,113.46179894179895,766.0833333333334,113.45693121693121,768.5,113.45206349206349C770.9166666666666,113.44719576719577,773.3333333333334,113.44232804232804,775.75,113.43746031746032C778.1666666666666,113.4325925925926,780.5833333333334,113.42772486772486,783,113.42285714285714C785.4166666666667,113.41798941798942,787.8333333333334,113.41312169312168,790.2500000000001,113.40825396825396C792.6666666666667,113.40338624338624,795.0833333333335,113.39851851851851,797.5000000000001,113.39365079365079C799.9166666666667,113.38878306878307,802.3333333333335,113.38391534391535,804.7500000000001,113.37904761904763C807.1666666666667,113.3741798941799,809.5833333333335,113.36931216931217,812.0000000000001,113.36444444444444C814.4166666666667,113.35957671957672,816.8333333333333,113.354708994709,819.2499999999999,113.34984126984128C821.6666666666665,113.34497354497356,824.0833333333333,113.34010582010582,826.4999999999999,113.3352380952381C828.9166666666665,113.33037037037037,831.3333333333333,113.32550264550264,833.7499999999999,113.32063492063492C836.1666666666665,113.3157671957672,838.5833333333333,113.31089947089947,840.9999999999999,113.30603174603175C843.4166666666666,113.30116402116403,845.8333333333333,113.29629629629629,848.25,113.29142857142857C850.6666666666666,113.28656084656085,853.0833333333334,113.28169312169312,855.5,113.2768253968254C857.9166666666666,113.27195767195768,860.3333333333334,113.26708994708994,862.75,113.26222222222222C865.1666666666666,113.2573544973545,867.5833333333334,113.25248677248676,870,113.24761904761904C872.4166666666666,113.24275132275132,874.8333333333334,113.2378835978836,877.25,113.23301587301587C879.6666666666666,113.22814814814815,882.0833333333334,113.22328042328043,884.5,113.2184126984127C886.9166666666666,113.21354497354498,889.3333333333334,113.20867724867725,891.75,113.20380952380953C894.1666666666666,113.1989417989418,896.5833333333334,113.19407407407407,899,113.18920634920634C901.4166666666666,113.18433862433862,903.8333333333334,113.1794708994709,906.25,113.17460317460318C908.6666666666666,113.16973544973546,911.0833333333334,113.16486772486772,913.5,113.16C915.9166666666666,113.15513227513227,918.3333333333334,113.15026455026455,920.75,113.14539682539683C923.1666666666666,113.14052910052911,925.5833333333334,113.13566137566137,928,113.13079365079365C930.4166666666666,113.12592592592593,932.8333333333334,113.1210582010582,935.25,113.11619047619048C937.6666666666666,113.11132275132276,940.0833333333334,113.10645502645502,942.5,113.1015873015873C944.9166666666666,113.09671957671958,947.3333333333334,113.09185185185184,949.75,113.08698412698412C952.1666666666666,113.0821164021164,954.5833333333334,113.07724867724868,957,113.07238095238095C959.4166666666666,113.06751322751323,961.8333333333334,113.06264550264551,964.25,113.05777777777779C966.6666666666667,113.05291005291006,969.0833333333334,113.04804232804233,971.5000000000001,113.0431746031746C973.9166666666667,113.03830687830688,976.3333333333335,113.03343915343915,978.7500000000001,113.02857142857142C981.1666666666667,113.0237037037037,983.5833333333335,113.01883597883597,986.0000000000001,113.01396825396824C988.4166666666667,113.00910052910052,990.8333333333335,113.0042328042328,993.2500000000001,112.99936507936508C995.6666666666667,112.99449735449735,998.0833333333333,112.98962962962963,1000.4999999999999,112.98476190476191C1002.9166666666665,112.97989417989419,1005.3333333333333,112.97502645502645,1007.7499999999999,112.97015873015873C1010.1666666666665,112.96529100529101,1012.5833333333333,112.96042328042327,1014.9999999999999,112.95555555555555C1017.4166666666665,112.95068783068783,1019.8333333333333,112.9458201058201,1022.2499999999999,112.94095238095238C1024.6666666666665,112.93608465608466,1027.0833333333333,112.93121693121692,1029.5,112.9263492063492C1031.9166666666667,112.92148148148148,1034.3333333333333,112.91661375661376,1036.75,112.91174603174603C1039.1666666666667,112.90687830687831,1041.5833333333333,112.90201058201059,1044,112.89714285714287C1046.4166666666667,112.89227513227515,1048.8333333333333,112.88740740740741,1051.25,112.88253968253969C1053.6666666666667,112.87767195767196,1056.0833333333333,112.87280423280423,1058.5,112.8679365079365C1060.9166666666667,112.86306878306878,1063.3333333333333,112.85820105820106,1065.75,112.85333333333334C1068.1666666666667,112.84846560846562,1070.5833333333333,112.84359788359788,1073,112.83873015873016C1075.4166666666667,112.83386243386244,1077.8333333333333,112.82899470899471,1080.25,112.82412698412699C1082.6666666666667,112.81925925925927,1085.0833333333333,112.81439153439153,1087.5,112.80952380952381C1089.9166666666667,112.80465608465609,1092.3333333333333,112.79978835978835,1094.75,112.79492063492063C1097.1666666666667,112.7900529100529,1099.5833333333333,112.78518518518518,1102,112.78031746031746C1104.4166666666667,112.77544973544974,1106.8333333333333,112.770582010582,1109.25,112.76571428571428C1111.6666666666667,112.76084656084656,1114.0833333333333,112.75597883597884,1116.5,112.75111111111111C1118.9166666666667,112.74624338624339,1121.3333333333333,112.74137566137567,1123.75,112.73650793650795C1126.1666666666667,112.73164021164023,1128.5833333333333,112.72677248677248,1131,112.72190476190475C1133.4166666666667,112.71703703703703,1135.8333333333333,112.71216931216931,1138.25,112.70730158730159C1140.6666666666667,112.70243386243386,1143.0833333333333,112.69756613756613,1145.5,112.6926984126984C1147.9166666666667,112.68783068783068,1150.3333333333333,112.68296296296296,1152.75,112.67809523809524C1155.1666666666667,112.67322751322752,1157.5833333333333,112.6683597883598,1160,112.66349206349207C1162.4166666666667,112.65862433862435,1164.8333333333333,112.65375661375661,1167.25,112.64888888888889C1169.6666666666667,112.64402116402117,1172.0833333333333,112.63915343915343,1174.5,112.63428571428571C1176.9166666666667,112.62941798941799,1179.3333333333333,112.62455026455027,1181.75,112.61968253968254C1184.1666666666667,112.61481481481482,1186.5833333333333,112.60994708994708,1189,112.60507936507936C1191.4166666666667,112.60021164021164,1193.8333333333333,112.59534391534392,1196.25,112.5904761904762C1198.6666666666667,112.58560846560847,1201.0833333333333,112.58074074074074,1203.5,112.57587301587301C1205.9166666666667,112.57100529100529,1208.3333333333333,112.56613756613756,1210.75,112.56126984126983C1213.1666666666667,112.55640211640211,1215.5833333333333,112.55153439153439,1218,112.54666666666667C1220.4166666666667,112.54179894179894,1222.8333333333333,112.53693121693122,1225.25,112.5320634920635C1227.6666666666667,112.52719576719578,1230.0833333333333,112.52232804232804,1232.5,112.51746031746032C1234.9166666666667,112.5125925925926,1237.3333333333333,112.50772486772487,1239.75,112.50285714285715C1242.1666666666667,112.49798941798943,1244.5833333333333,112.49312169312168,1247,112.48825396825396C1249.4166666666667,112.48338624338624,1251.8333333333333,112.47851851851851,1254.25,112.47365079365079C1256.6666666666667,112.46878306878307,1259.0833333333333,112.46391534391535,1261.5,112.45904761904762C1263.9166666666667,112.4541798941799,1266.3333333333333,112.44931216931217,1268.75,112.44444444444444C1271.1666666666667,112.43957671957672,1273.5833333333333,112.434708994709,1276,112.42984126984128C1278.4166666666667,112.42497354497355,1280.8333333333333,112.42010582010582,1283.25,112.4152380952381C1285.6666666666667,112.41037037037037,1288.0833333333333,112.40550264550264,1290.5,112.40063492063491C1292.9166666666667,112.39576719576719,1295.3333333333333,112.39089947089947,1297.75,112.38603174603175C1300.1666666666667,112.38116402116403,1302.5833333333333,112.38116402116403,1305,112.37142857142857C1307.4166666666667,112.36169312169311,1309.8333333333333,109.08571428571427,1312.25,107.44285714285714C1314.6666666666667,105.8,1317.0833333333333,104.15714285714286,1319.5,102.51428571428572C1321.9166666666667,100.87142857142858,1324.3333333333333,99.22857142857141,1326.75,97.58571428571427C1329.1666666666667,95.94285714285714,1331.5833333333333,94.3,1334,92.65714285714286C1336.4166666666667,91.01428571428572,1338.8333333333333,89.37142857142857,1341.25,87.72857142857143C1343.6666666666667,86.08571428571429,1346.0833333333333,84.44285714285714,1348.5,82.8C1350.9166666666667,81.15714285714286,1353.3333333333333,79.5142857142857,1355.75,77.87142857142857C1358.1666666666667,76.22857142857143,1360.5833333333333,74.58571428571429,1363,72.94285714285715C1365.4166666666667,71.30000000000001,1367.8333333333333,69.65714285714287,1370.25,68.01428571428572C1372.6666666666667,66.37142857142857,1375.0833333333333,64.72857142857141,1377.5,63.085714285714275C1379.9166666666667,61.442857142857136,1382.3333333333333,59.800000000000004,1384.75,58.157142857142865C1387.1666666666667,56.51428571428573,1389.5833333333333,54.871428571428574,1392,53.22857142857143C1394.4166666666667,51.58571428571428,1396.8333333333333,49.942857142857136,1399.25,48.29999999999999C1401.6666666666667,46.657142857142844,1404.0833333333333,45.014285714285705,1406.5,43.37142857142857C1408.9166666666667,41.72857142857143,1411.3333333333333,40.08571428571429,1413.75,38.44285714285714C1416.1666666666667,36.8,1418.5833333333333,35.15714285714285,1421,33.514285714285705C1423.4166666666667,31.871428571428563,1425.8333333333333,30.228571428571428,1428.25,28.585714285714285C1430.6666666666667,26.942857142857143,1433.0833333333333,25.29999999999999,1435.5,23.657142857142848C1437.9166666666667,22.014285714285705,1440.3333333333333,20.371428571428577,1442.75,18.728571428571435C1445.1666666666667,17.085714285714293,1447.5833333333333,15.442857142857147,1450,13.799999999999999" fill="transparent" stroke-linecap="round" stroke="#B6509E" stroke-width="2"></path><path class="visx-linepath" d="M0,112.37142857142857C2.4166666666666665,112.37142857142857,4.833333333333334,112.37142857142857,7.25,112.37142857142857C9.666666666666666,112.37142857142857,12.083333333333334,112.37142857142857,14.5,112.37142857142857C16.916666666666668,112.37142857142857,19.333333333333332,112.37142857142857,21.75,112.37142857142857C24.166666666666668,112.37142857142857,26.583333333333332,112.37142857142857,29,112.37142857142857C31.416666666666668,112.37142857142857,33.833333333333336,112.37142857142857,36.25,112.37142857142857C38.666666666666664,112.37142857142857,41.083333333333336,112.37142857142857,43.5,112.37142857142857C45.91666666666667,112.37142857142857,48.333333333333336,112.37142857142857,50.75000000000001,112.37142857142857C53.16666666666667,112.37142857142857,55.583333333333336,112.37142857142857,58,112.37142857142857C60.416666666666664,112.37142857142857,62.833333333333336,112.37142857142857,65.25,112.37142857142857C67.66666666666667,112.37142857142857,70.08333333333333,112.37142857142857,72.5,112.37142857142857C74.91666666666667,112.37142857142857,77.33333333333333,112.37142857142857,79.75,112.37142857142857C82.16666666666667,112.37142857142857,84.58333333333333,112.37142857142857,87,112.37142857142857C89.41666666666667,112.37142857142857,91.83333333333333,112.37142857142857,94.25,112.37142857142857C96.66666666666667,112.37142857142857,99.08333333333334,112.37142857142857,101.50000000000001,112.37142857142857C103.91666666666667,112.37142857142857,106.33333333333334,112.37142857142857,108.75,112.37142857142857C111.16666666666667,112.37142857142857,113.58333333333333,112.37142857142857,116,112.37142857142857C118.41666666666667,112.37142857142857,120.83333333333334,112.37142857142857,123.25000000000001,112.37142857142857C125.66666666666667,112.37142857142857,128.08333333333334,112.37142857142857,130.5,112.37142857142857C132.91666666666666,112.37142857142857,135.33333333333334,112.37142857142857,137.75,112.37142857142857C140.16666666666666,112.37142857142857,142.58333333333334,112.37142857142857,145,112.37142857142857C147.41666666666666,112.37142857142857,149.83333333333334,112.37142857142857,152.25,112.37142857142857C154.66666666666666,112.37142857142857,157.08333333333334,112.37142857142857,159.5,112.37142857142857C161.91666666666666,112.37142857142857,164.33333333333334,112.37142857142857,166.75,112.37142857142857C169.16666666666666,112.37142857142857,171.58333333333334,112.37142857142857,174,112.37142857142857C176.41666666666666,112.37142857142857,178.83333333333334,112.37142857142857,181.25,112.37142857142857C183.66666666666666,112.37142857142857,186.08333333333334,112.37142857142857,188.5,112.37142857142857C190.91666666666666,112.37142857142857,193.33333333333334,112.37142857142857,195.75,112.37142857142857C198.16666666666669,112.37142857142857,200.58333333333334,112.37142857142857,203.00000000000003,112.37142857142857C205.41666666666669,112.37142857142857,207.83333333333331,112.37142857142857,210.24999999999997,112.37142857142857C212.66666666666666,112.37142857142857,215.08333333333331,112.37142857142857,217.5,112.37142857142857C219.91666666666666,112.37142857142857,222.33333333333334,112.37142857142857,224.75,112.37142857142857C227.16666666666666,112.37142857142857,229.58333333333334,112.37142857142857,232,112.37142857142857C234.41666666666666,112.37142857142857,236.83333333333334,112.37142857142857,239.25,112.37142857142857C241.66666666666669,112.37142857142857,244.08333333333334,112.37142857142857,246.50000000000003,112.37142857142857C248.91666666666669,112.37142857142857,251.33333333333331,112.37142857142857,253.74999999999997,112.37142857142857C256.16666666666663,112.37142857142857,258.5833333333333,112.37142857142857,261,112.37142857142857C263.4166666666667,112.37142857142857,265.8333333333333,112.37142857142857,268.25,112.37142857142857C270.6666666666667,112.37142857142857,273.0833333333333,112.37142857142857,275.5,112.37142857142857C277.9166666666667,112.37142857142857,280.3333333333333,112.37142857142857,282.75,112.37142857142857C285.1666666666667,112.37142857142857,287.5833333333333,112.37142857142857,290,112.37142857142857C292.4166666666667,112.37142857142857,294.8333333333333,112.37142857142857,297.25,112.37142857142857C299.6666666666667,112.37142857142857,302.0833333333333,112.37142857142857,304.5,112.37142857142857C306.9166666666667,112.37142857142857,309.3333333333333,112.37142857142857,311.75,112.37142857142857C314.1666666666667,112.37142857142857,316.5833333333333,112.37142857142857,319,112.37142857142857C321.4166666666667,112.37142857142857,323.8333333333333,112.37142857142857,326.25,112.37142857142857C328.6666666666667,112.37142857142857,331.0833333333333,112.37142857142857,333.5,112.37142857142857C335.9166666666667,112.37142857142857,338.3333333333333,112.37142857142857,340.75,112.37142857142857C343.1666666666667,112.37142857142857,345.5833333333333,112.37142857142857,348,112.37142857142857C350.4166666666667,112.37142857142857,352.8333333333333,112.37142857142857,355.25,112.37142857142857C357.6666666666667,112.37142857142857,360.0833333333333,112.37142857142857,362.5,112.37142857142857C364.9166666666667,112.37142857142857,367.3333333333333,112.37142857142857,369.75,112.37142857142857C372.1666666666667,112.37142857142857,374.5833333333333,112.37142857142857,377,112.37142857142857C379.4166666666667,112.37142857142857,381.8333333333333,112.37142857142857,384.25,112.37142857142857C386.6666666666667,112.37142857142857,389.0833333333333,112.37142857142857,391.5,112.37142857142857C393.9166666666667,112.37142857142857,396.33333333333337,112.37142857142857,398.75000000000006,112.37142857142857C401.16666666666674,112.37142857142857,403.58333333333337,112.37142857142857,406.00000000000006,112.37142857142857C408.4166666666667,112.37142857142857,410.8333333333333,112.37142857142857,413.24999999999994,112.37142857142857C415.66666666666663,112.37142857142857,418.08333333333326,112.37142857142857,420.49999999999994,112.37142857142857C422.91666666666663,112.37142857142857,425.3333333333333,112.37142857142857,427.75,112.37142857142857C430.1666666666667,112.37142857142857,432.5833333333333,112.37142857142857,435,112.37142857142857C437.4166666666667,112.37142857142857,439.8333333333333,112.37142857142857,442.25,112.37142857142857C444.6666666666667,112.37142857142857,447.0833333333333,112.37142857142857,449.5,112.37142857142857C451.9166666666667,112.37142857142857,454.3333333333333,112.37142857142857,456.75,112.37142857142857C459.1666666666667,112.37142857142857,461.5833333333333,112.37142857142857,464,112.37142857142857C466.4166666666667,112.37142857142857,468.8333333333333,112.37142857142857,471.25,112.37142857142857C473.6666666666667,112.37142857142857,476.0833333333333,112.37142857142857,478.5,112.37142857142857C480.9166666666667,112.37142857142857,483.33333333333337,112.37142857142857,485.75000000000006,112.37142857142857C488.16666666666674,112.37142857142857,490.58333333333337,112.37142857142857,493.00000000000006,112.37142857142857C495.4166666666667,112.37142857142857,497.8333333333333,112.37142857142857,500.24999999999994,112.37142857142857C502.66666666666663,112.37142857142857,505.08333333333326,112.37142857142857,507.49999999999994,112.37142857142857C509.91666666666663,112.37142857142857,512.3333333333333,112.37142857142857,514.75,112.37142857142857C517.1666666666666,112.37142857142857,519.5833333333334,112.37142857142857,522,112.37142857142857C524.4166666666666,112.37142857142857,526.8333333333334,112.37142857142857,529.25,112.37142857142857C531.6666666666666,112.37142857142857,534.0833333333334,112.37142857142857,536.5,112.37142857142857C538.9166666666666,112.37142857142857,541.3333333333334,112.37142857142857,543.75,112.37142857142857C546.1666666666666,112.37142857142857,548.5833333333334,112.37142857142857,551,112.37142857142857C553.4166666666666,112.37142857142857,555.8333333333334,112.37142857142857,558.25,112.37142857142857C560.6666666666666,112.37142857142857,563.0833333333334,112.37142857142857,565.5,112.37142857142857C567.9166666666666,112.37142857142857,570.3333333333334,112.37142857142857,572.75,112.37142857142857C575.1666666666666,112.37142857142857,577.5833333333334,112.37142857142857,580,112.37142857142857C582.4166666666666,112.37142857142857,584.8333333333334,112.37142857142857,587.25,112.37142857142857C589.6666666666666,112.37142857142857,592.0833333333334,112.37142857142857,594.5,112.37142857142857C596.9166666666666,112.37142857142857,599.3333333333334,112.37142857142857,601.75,112.37142857142857C604.1666666666666,112.37142857142857,606.5833333333334,112.37142857142857,609,112.37142857142857C611.4166666666666,112.37142857142857,613.8333333333334,112.37142857142857,616.25,112.37142857142857C618.6666666666666,112.37142857142857,621.0833333333334,112.37142857142857,623.5,112.37142857142857C625.9166666666666,112.37142857142857,628.3333333333334,112.37142857142857,630.75,112.37142857142857C633.1666666666666,112.37142857142857,635.5833333333334,112.37142857142857,638,112.37142857142857C640.4166666666666,112.37142857142857,642.8333333333334,112.37142857142857,645.25,112.37142857142857C647.6666666666666,112.37142857142857,650.0833333333334,112.37142857142857,652.5,112.37142857142857C654.9166666666666,112.37142857142857,657.3333333333334,112.37142857142857,659.75,112.37142857142857C662.1666666666666,112.37142857142857,664.5833333333334,112.37142857142857,667,112.37142857142857C669.4166666666666,112.37142857142857,671.8333333333334,112.37142857142857,674.25,112.37142857142857C676.6666666666666,112.37142857142857,679.0833333333334,112.37142857142857,681.5,112.37142857142857C683.9166666666666,112.37142857142857,686.3333333333334,112.37142857142857,688.75,112.37142857142857C691.1666666666666,112.37142857142857,693.5833333333334,112.37142857142857,696,112.37142857142857C698.4166666666666,112.37142857142857,700.8333333333334,112.37142857142857,703.25,112.37142857142857C705.6666666666666,112.37142857142857,708.0833333333334,112.37142857142857,710.5,112.37142857142857C712.9166666666666,112.37142857142857,715.3333333333334,112.37142857142857,717.75,112.37142857142857C720.1666666666666,112.37142857142857,722.5833333333334,112.37142857142857,725,112.37142857142857C727.4166666666666,112.37142857142857,729.8333333333334,112.37142857142857,732.25,112.37142857142857C734.6666666666666,112.37142857142857,737.0833333333334,112.37142857142857,739.5,112.37142857142857C741.9166666666666,112.37142857142857,744.3333333333334,112.37142857142857,746.75,112.37142857142857C749.1666666666666,112.37142857142857,751.5833333333334,112.37142857142857,754,112.37142857142857C756.4166666666666,112.37142857142857,758.8333333333334,112.37142857142857,761.25,112.37142857142857C763.6666666666666,112.37142857142857,766.0833333333334,112.37142857142857,768.5,112.37142857142857C770.9166666666666,112.37142857142857,773.3333333333334,112.37142857142857,775.75,112.37142857142857C778.1666666666666,112.37142857142857,780.5833333333334,112.37142857142857,783,112.37142857142857C785.4166666666667,112.37142857142857,787.8333333333334,112.37142857142857,790.2500000000001,112.37142857142857C792.6666666666667,112.37142857142857,795.0833333333335,112.37142857142857,797.5000000000001,112.37142857142857C799.9166666666667,112.37142857142857,802.3333333333335,112.37142857142857,804.7500000000001,112.37142857142857C807.1666666666667,112.37142857142857,809.5833333333335,112.37142857142857,812.0000000000001,112.37142857142857C814.4166666666667,112.37142857142857,816.8333333333333,112.37142857142857,819.2499999999999,112.37142857142857C821.6666666666665,112.37142857142857,824.0833333333333,112.37142857142857,826.4999999999999,112.37142857142857C828.9166666666665,112.37142857142857,831.3333333333333,112.37142857142857,833.7499999999999,112.37142857142857C836.1666666666665,112.37142857142857,838.5833333333333,112.37142857142857,840.9999999999999,112.37142857142857C843.4166666666666,112.37142857142857,845.8333333333333,112.37142857142857,848.25,112.37142857142857C850.6666666666666,112.37142857142857,853.0833333333334,112.37142857142857,855.5,112.37142857142857C857.9166666666666,112.37142857142857,860.3333333333334,112.37142857142857,862.75,112.37142857142857C865.1666666666666,112.37142857142857,867.5833333333334,112.37142857142857,870,112.37142857142857C872.4166666666666,112.37142857142857,874.8333333333334,112.37142857142857,877.25,112.37142857142857C879.6666666666666,112.37142857142857,882.0833333333334,112.37142857142857,884.5,112.37142857142857C886.9166666666666,112.37142857142857,889.3333333333334,112.37142857142857,891.75,112.37142857142857C894.1666666666666,112.37142857142857,896.5833333333334,112.37142857142857,899,112.37142857142857C901.4166666666666,112.37142857142857,903.8333333333334,112.37142857142857,906.25,112.37142857142857C908.6666666666666,112.37142857142857,911.0833333333334,112.37142857142857,913.5,112.37142857142857C915.9166666666666,112.37142857142857,918.3333333333334,112.37142857142857,920.75,112.37142857142857C923.1666666666666,112.37142857142857,925.5833333333334,112.37142857142857,928,112.37142857142857C930.4166666666666,112.37142857142857,932.8333333333334,112.37142857142857,935.25,112.37142857142857C937.6666666666666,112.37142857142857,940.0833333333334,112.37142857142857,942.5,112.37142857142857C944.9166666666666,112.37142857142857,947.3333333333334,112.37142857142857,949.75,112.37142857142857C952.1666666666666,112.37142857142857,954.5833333333334,112.37142857142857,957,112.37142857142857C959.4166666666666,112.37142857142857,961.8333333333334,112.37142857142857,964.25,112.37142857142857C966.6666666666667,112.37142857142857,969.0833333333334,112.37142857142857,971.5000000000001,112.37142857142857C973.9166666666667,112.37142857142857,976.3333333333335,112.37142857142857,978.7500000000001,112.37142857142857C981.1666666666667,112.37142857142857,983.5833333333335,112.37142857142857,986.0000000000001,112.37142857142857C988.4166666666667,112.37142857142857,990.8333333333335,112.37142857142857,993.2500000000001,112.37142857142857C995.6666666666667,112.37142857142857,998.0833333333333,112.37142857142857,1000.4999999999999,112.37142857142857C1002.9166666666665,112.37142857142857,1005.3333333333333,112.37142857142857,1007.7499999999999,112.37142857142857C1010.1666666666665,112.37142857142857,1012.5833333333333,112.37142857142857,1014.9999999999999,112.37142857142857C1017.4166666666665,112.37142857142857,1019.8333333333333,112.37142857142857,1022.2499999999999,112.37142857142857C1024.6666666666665,112.37142857142857,1027.0833333333333,112.37142857142857,1029.5,112.37142857142857C1031.9166666666667,112.37142857142857,1034.3333333333333,112.37142857142857,1036.75,112.37142857142857C1039.1666666666667,112.37142857142857,1041.5833333333333,112.37142857142857,1044,112.37142857142857C1046.4166666666667,112.37142857142857,1048.8333333333333,112.37142857142857,1051.25,112.37142857142857C1053.6666666666667,112.37142857142857,1056.0833333333333,112.37142857142857,1058.5,112.37142857142857C1060.9166666666667,112.37142857142857,1063.3333333333333,112.37142857142857,1065.75,112.37142857142857C1068.1666666666667,112.37142857142857,1070.5833333333333,112.37142857142857,1073,112.37142857142857C1075.4166666666667,112.37142857142857,1077.8333333333333,112.37142857142857,1080.25,112.37142857142857C1082.6666666666667,112.37142857142857,1085.0833333333333,112.37142857142857,1087.5,112.37142857142857C1089.9166666666667,112.37142857142857,1092.3333333333333,112.37142857142857,1094.75,112.37142857142857C1097.1666666666667,112.37142857142857,1099.5833333333333,112.37142857142857,1102,112.37142857142857C1104.4166666666667,112.37142857142857,1106.8333333333333,112.37142857142857,1109.25,112.37142857142857C1111.6666666666667,112.37142857142857,1114.0833333333333,112.37142857142857,1116.5,112.37142857142857C1118.9166666666667,112.37142857142857,1121.3333333333333,112.37142857142857,1123.75,112.37142857142857C1126.1666666666667,112.37142857142857,1128.5833333333333,112.37142857142857,1131,112.37142857142857C1133.4166666666667,112.37142857142857,1135.8333333333333,112.37142857142857,1138.25,112.37142857142857C1140.6666666666667,112.37142857142857,1143.0833333333333,112.37142857142857,1145.5,112.37142857142857C1147.9166666666667,112.37142857142857,1150.3333333333333,112.37142857142857,1152.75,112.37142857142857C1155.1666666666667,112.37142857142857,1157.5833333333333,112.37142857142857,1160,112.37142857142857C1162.4166666666667,112.37142857142857,1164.8333333333333,112.37142857142857,1167.25,112.37142857142857C1169.6666666666667,112.37142857142857,1172.0833333333333,112.37142857142857,1174.5,112.37142857142857C1176.9166666666667,112.37142857142857,1179.3333333333333,112.37142857142857,1181.75,112.37142857142857C1184.1666666666667,112.37142857142857,1186.5833333333333,112.37142857142857,1189,112.37142857142857C1191.4166666666667,112.37142857142857,1193.8333333333333,112.37142857142857,1196.25,112.37142857142857C1198.6666666666667,112.37142857142857,1201.0833333333333,112.37142857142857,1203.5,112.37142857142857C1205.9166666666667,112.37142857142857,1208.3333333333333,112.37142857142857,1210.75,112.37142857142857C1213.1666666666667,112.37142857142857,1215.5833333333333,112.37142857142857,1218,112.37142857142857C1220.4166666666667,112.37142857142857,1222.8333333333333,112.37142857142857,1225.25,112.37142857142857C1227.6666666666667,112.37142857142857,1230.0833333333333,112.37142857142857,1232.5,112.37142857142857C1234.9166666666667,112.37142857142857,1237.3333333333333,112.37142857142857,1239.75,112.37142857142857C1242.1666666666667,112.37142857142857,1244.5833333333333,112.37142857142857,1247,112.37142857142857C1249.4166666666667,112.37142857142857,1251.8333333333333,112.37142857142857,1254.25,112.37142857142857C1256.6666666666667,112.37142857142857,1259.0833333333333,112.37142857142857,1261.5,112.37142857142857C1263.9166666666667,112.37142857142857,1266.3333333333333,112.37142857142857,1268.75,112.37142857142857C1271.1666666666667,112.37142857142857,1273.5833333333333,112.37142857142857,1276,112.37142857142857C1278.4166666666667,112.37142857142857,1280.8333333333333,112.37142857142857,1283.25,112.37142857142857C1285.6666666666667,112.37142857142857,1288.0833333333333,112.37142857142857,1290.5,112.37142857142857C1292.9166666666667,112.37142857142857,1295.3333333333333,112.37142857142857,1297.75,112.37142857142857C1300.1666666666667,112.37142857142857,1302.5833333333333,112.37142857142857,1305,112.37142857142857C1307.4166666666667,112.37142857142857,1309.8333333333333,112.37142857142857,1312.25,112.37142857142857C1314.6666666666667,112.37142857142857,1317.0833333333333,112.37142857142857,1319.5,112.37142857142857C1321.9166666666667,112.37142857142857,1324.3333333333333,112.37142857142857,1326.75,112.37142857142857C1329.1666666666667,112.37142857142857,1331.5833333333333,112.37142857142857,1334,112.37142857142857C1336.4166666666667,112.37142857142857,1338.8333333333333,112.37142857142857,1341.25,112.37142857142857C1343.6666666666667,112.37142857142857,1346.0833333333333,112.37142857142857,1348.5,112.37142857142857C1350.9166666666667,112.37142857142857,1353.3333333333333,112.37142857142857,1355.75,112.37142857142857C1358.1666666666667,112.37142857142857,1360.5833333333333,112.37142857142857,1363,112.37142857142857C1365.4166666666667,112.37142857142857,1367.8333333333333,112.37142857142857,1370.25,112.37142857142857C1372.6666666666667,112.37142857142857,1375.0833333333333,112.37142857142857,1377.5,112.37142857142857C1379.9166666666667,112.37142857142857,1382.3333333333333,112.37142857142857,1384.75,112.37142857142857C1387.1666666666667,112.37142857142857,1389.5833333333333,112.37142857142857,1392,112.37142857142857C1394.4166666666667,112.37142857142857,1396.8333333333333,112.37142857142857,1399.25,112.37142857142857C1401.6666666666667,112.37142857142857,1404.0833333333333,112.37142857142857,1406.5,112.37142857142857C1408.9166666666667,112.37142857142857,1411.3333333333333,112.37142857142857,1413.75,112.37142857142857C1416.1666666666667,112.37142857142857,1418.5833333333333,112.37142857142857,1421,112.37142857142857C1423.4166666666667,112.37142857142857,1425.8333333333333,112.37142857142857,1428.25,112.37142857142857C1430.6666666666667,112.37142857142857,1433.0833333333333,112.37142857142857,1435.5,112.37142857142857C1437.9166666666667,112.37142857142857,1440.3333333333333,112.37142857142857,1442.75,112.37142857142857C1445.1666666666667,112.37142857142857,1447.5833333333333,112.37142857142857,1450,112.37142857142857" fill="transparent" stroke-linecap="round" stroke="#E7C6DF" stroke-width="2"></path><g class="visx-group visx-axis visx-axis-bottom" transform="translate(0, 115)"><g class="visx-group visx-axis-tick" transform="translate(0, 0)"><line class="visx-line" x1="0" y1="0" x2="0" y2="8" fill="transparent" shape-rendering="crispEdges" stroke="#000" stroke-width="0" stroke-linecap="square"></line><svg x="0" y="0" font-size="10" style="overflow:visible"><text transform="" x="0" y="18" fill="#000" font-size="10" text-anchor="middle"><tspan x="0" dy="0em">0%</tspan></text></svg></g><g class="visx-group visx-axis-tick" transform="translate(0, 0)"><line class="visx-line" x1="362.5" y1="0" x2="362.5" y2="8" fill="transparent" shape-rendering="crispEdges" stroke="#000" stroke-width="0" stroke-linecap="square"></line><svg x="0" y="0" font-size="10" style="overflow:visible"><text transform="" x="362.5" y="18" fill="#000" font-size="10" text-anchor="middle"><tspan x="362.5" dy="0em">25%</tspan></text></svg></g><g class="visx-group visx-axis-tick" transform="translate(0, 0)"><line class="visx-line" x1="725" y1="0" x2="725" y2="8" fill="transparent" shape-rendering="crispEdges" stroke="#000" stroke-width="0" stroke-linecap="square"></line><svg x="0" y="0" font-size="10" style="overflow:visible"><text transform="" x="725" y="18" fill="#000" font-size="10" text-anchor="middle"><tspan x="725" dy="0em">50%</tspan></text></svg></g><g class="visx-group visx-axis-tick" transform="translate(0, 0)"><line class="visx-line" x1="1087.5" y1="0" x2="1087.5" y2="8" fill="transparent" shape-rendering="crispEdges" stroke="#000" stroke-width="0" stroke-linecap="square"></line><svg x="0" y="0" font-size="10" style="overflow:visible"><text transform="" x="1087.5" y="18" fill="#000" font-size="10" text-anchor="middle"><tspan x="1087.5" dy="0em">75%</tspan></text></svg></g><g class="visx-group visx-axis-tick" transform="translate(0, 0)"><line class="visx-line" x1="1450" y1="0" x2="1450" y2="8" fill="transparent" shape-rendering="crispEdges" stroke="#000" stroke-width="0" stroke-linecap="square"></line><svg x="0" y="0" font-size="10" style="overflow:visible"><text transform="" x="1450" y="18" fill="#000" font-size="10" text-anchor="middle"><tspan x="1450" dy="0em">100%</tspan></text></svg></g><line class="visx-line visx-axis-line" x1="0.5" y1="0" x2="1450.5" y2="0" fill="transparent" shape-rendering="crispEdges" stroke="#222" stroke-width="0"></line></g><g class="visx-group visx-axis visx-axis-left" transform="translate(0, 0)"><g class="visx-group visx-axis-tick" transform="translate(0, 0)"><line class="visx-line" x1="0" y1="115" x2="-8" y2="115" fill="transparent" shape-rendering="crispEdges" stroke="#222" stroke-width="0" stroke-linecap="square"></line><svg x="-30" y="0" font-size="8" style="overflow:visible"><text transform="" x="-8" y="115" fill="#000" font-size="8" text-anchor="start"><tspan x="-8" dy="0em">0%</tspan></text></svg></g><g class="visx-group visx-axis-tick" transform="translate(0, 0)"><line class="visx-line" x1="0" y1="73.92857142857142" x2="-8" y2="73.92857142857142" fill="transparent" shape-rendering="crispEdges" stroke="#222" stroke-width="0" stroke-linecap="square"></line><svg x="-30" y="0" font-size="8" style="overflow:visible"><text transform="" x="-8" y="73.92857142857142" fill="#000" font-size="8" text-anchor="start"><tspan x="-8" dy="0em">50%</tspan></text></svg></g><g class="visx-group visx-axis-tick" transform="translate(0, 0)"><line class="visx-line" x1="0" y1="32.857142857142854" x2="-8" y2="32.857142857142854" fill="transparent" shape-rendering="crispEdges" stroke="#222" stroke-width="0" stroke-linecap="square"></line><svg x="-30" y="0" font-size="8" style="overflow:visible"><text transform="" x="-8" y="32.857142857142854" fill="#000" font-size="8" text-anchor="start"><tspan x="-8" dy="0em">100%</tspan></text></svg></g><line class="visx-line visx-axis-line" x1="0" y1="115.5" x2="0" y2="0.5" fill="transparent" shape-rendering="crispEdges" stroke="#222" stroke-width="0"></line></g><rect class="visx-bar" width="1450" height="115" fill="transparent"></rect><line class="visx-line" x1="1305" y1="28" x2="1305" y2="115" fill="transparent" shape-rendering="crispEdges" stroke="#0062D2" stroke-width="1" pointer-events="none" stroke-dasharray="5,2"></line><svg x="0" y="0" font-size="10px" style="overflow:visible"><text transform="" x="1305" y="20" font-size="10px" fill="#fff" stroke="#fff" stroke-width="0.8em" text-anchor="middle"><tspan x="1305" dy="0.355em">Optimal 90%</tspan></text></svg><svg x="0" y="0" font-size="10px" style="overflow:visible"><text transform="" x="1305" y="20" font-size="10px" fill="#62677B" text-anchor="middle"><tspan x="1305" dy="0.355em">Optimal 90%</tspan></text></svg></g></svg>