<?xml version="1.0"?><svg xmlns="http://www.w3.org/2000/svg" xmlns:xlink= "http://www.w3.org/1999/xlink" style="background: white;" width="1500" height="185"> <g style="color: black; font-size: 13px; font-family: sans-serif; transform: translate(18px, 25px);"><g><circle r="3" cx="-6" cy="-5" style="fill: #B6509E" /><text>Borrow APR, variable</text></g><g style="transform: translateX(150px);"><circle r="3" cx="-6" cy="-5" style="fill: rgb(231, 198, 223)" /><text>Borrow APR, stable</text></g><g style="transform: translateX(290px);"><circle r="3" cx="-6" cy="-5" style="fill: rgb(0, 98, 210)" /><text>Utilization Rate</text></g></g><g class="visx-group" transform="translate(40, 50)"><g class="visx-group visx-rows" transform="translate(0, 0)"><line class="visx-line" x1="0" y1="115" x2="1450" y2="115" fill="transparent" shape-rendering="crispEdges" stroke="#000" stroke-width="1" stroke-dasharray="3,3" pointer-events="none"></line><line class="visx-line" x1="0" y1="57.5" x2="1450" y2="57.5" fill="transparent" shape-rendering="crispEdges" stroke="#000" stroke-width="1" stroke-dasharray="3,3" pointer-events="none"></line><line class="visx-line" x1="0" y1="0" x2="1450" y2="0" fill="transparent" shape-rendering="crispEdges" stroke="#000" stroke-width="1" stroke-dasharray="3,3" pointer-events="none"></line></g><path class="visx-linepath" d="M0,113.84999999994609C2.4166666666666665,113.84101562496855,4.833333333333334,113.83203124999102,7.25,113.823046875C9.666666666666666,113.81406250000899,12.083333333333334,113.805078125,14.5,113.79609375C16.916666666666668,113.787109375,19.333333333333332,113.77812499999999,21.75,113.76914062499999C24.166666666666668,113.76015625,26.583333333333332,113.751171875,29,113.7421875C31.416666666666668,113.733203125,33.833333333333336,113.72421874999999,36.25,113.715234375C38.666666666666664,113.70625,41.083333333333336,113.697265625,43.5,113.68828125C45.91666666666667,113.679296875,48.333333333333336,113.67031250000001,50.75000000000001,113.66132812500001C53.16666666666667,113.65234375000001,55.583333333333336,113.643359375,58,113.634375C60.416666666666664,113.62539062500001,62.833333333333336,113.61640625,65.25,113.607421875C67.66666666666667,113.5984375,70.08333333333333,113.589453125,72.5,113.58046875000001C74.91666666666667,113.57148437500001,77.33333333333333,113.5625,79.75,113.553515625C82.16666666666667,113.54453125,84.58333333333333,113.535546875,87,113.5265625C89.41666666666667,113.517578125,91.83333333333333,113.50859374999999,94.25,113.49960937499999C96.66666666666667,113.490625,99.08333333333334,113.481640625,101.50000000000001,113.47265625C103.91666666666667,113.463671875,106.33333333333334,113.45468749999999,108.75,113.445703125C111.16666666666667,113.43671875,113.58333333333333,113.42773437499999,116,113.41874999999999C118.41666666666667,113.40976562499999,120.83333333333334,113.40078125,123.25000000000001,113.391796875C125.66666666666667,113.3828125,128.08333333333334,113.373828125,130.5,113.36484375C132.91666666666666,113.35585937500001,135.33333333333334,113.346875,137.75,113.337890625C140.16666666666666,113.32890625,142.58333333333334,113.319921875,145,113.31093750000001C147.41666666666666,113.30195312500001,149.83333333333334,113.29296875,152.25,113.283984375C154.66666666666666,113.275,157.08333333333334,113.266015625,159.5,113.25703125C161.91666666666666,113.248046875,164.33333333333334,113.2390625,166.75,113.230078125C169.16666666666666,113.22109375000001,171.58333333333334,113.212109375,174,113.203125C176.41666666666666,113.194140625,178.83333333333334,113.18515624999999,181.25,113.176171875C183.66666666666666,113.1671875,186.08333333333334,113.158203125,188.5,113.14921875C190.91666666666666,113.140234375,193.33333333333334,113.13125,195.75,113.122265625C198.16666666666669,113.11328125,200.58333333333334,113.10429687499999,203.00000000000003,113.09531249999999C205.41666666666669,113.086328125,207.83333333333331,113.07734375,210.24999999999997,113.068359375C212.66666666666666,113.059375,215.08333333333331,113.05039062499999,217.5,113.04140625C219.91666666666666,113.032421875,222.33333333333334,113.0234375,224.75,113.014453125C227.16666666666666,113.00546875,229.58333333333334,112.99648437500001,232,112.98750000000001C234.41666666666666,112.97851562500001,236.83333333333334,112.96953125,239.25,112.960546875C241.66666666666669,112.95156250000001,244.08333333333334,112.942578125,246.50000000000003,112.93359375C248.91666666666669,112.924609375,251.33333333333331,112.915625,253.74999999999997,112.90664062500001C256.16666666666663,112.89765625000001,258.5833333333333,112.888671875,261,112.8796875C263.4166666666667,112.870703125,265.8333333333333,112.86171875,268.25,112.852734375C270.6666666666667,112.84375,273.0833333333333,112.83476562499999,275.5,112.82578124999999C277.9166666666667,112.816796875,280.3333333333333,112.8078125,282.75,112.798828125C285.1666666666667,112.78984375,287.5833333333333,112.78085937499999,290,112.771875C292.4166666666667,112.762890625,294.8333333333333,112.75390624999999,297.25,112.74492187499999C299.6666666666667,112.73593749999999,302.0833333333333,112.726953125,304.5,112.71796875C306.9166666666667,112.708984375,309.3333333333333,112.7,311.75,112.691015625C314.1666666666667,112.68203125000001,316.5833333333333,112.673046875,319,112.6640625C321.4166666666667,112.655078125,323.8333333333333,112.64609375,326.25,112.63710937500001C328.6666666666667,112.62812500000001,331.0833333333333,112.619140625,333.5,112.61015625C335.9166666666667,112.601171875,338.3333333333333,112.5921875,340.75,112.583203125C343.1666666666667,112.57421875,345.5833333333333,112.565234375,348,112.55625C350.4166666666667,112.54726562500001,352.8333333333333,112.53828125,355.25,112.529296875C357.6666666666667,112.5203125,360.0833333333333,112.51132812499999,362.5,112.50234375C364.9166666666667,112.493359375,367.3333333333333,112.484375,369.75,112.475390625C372.1666666666667,112.46640625,374.5833333333333,112.457421875,377,112.4484375C379.4166666666667,112.439453125,381.8333333333333,112.43046874999999,384.25,112.42148437499999C386.6666666666667,112.4125,389.0833333333333,112.403515625,391.5,112.39453125C393.9166666666667,112.385546875,396.33333333333337,112.37656249999999,398.75000000000006,112.367578125C401.16666666666674,112.35859375,403.58333333333337,112.349609375,406.00000000000006,112.340625C408.4166666666667,112.331640625,410.8333333333333,112.32265625000001,413.24999999999994,112.31367187500001C415.66666666666663,112.30468750000001,418.08333333333326,112.295703125,420.49999999999994,112.28671875C422.91666666666663,112.27773437500001,425.3333333333333,112.26875,427.75,112.259765625C430.1666666666667,112.25078125,432.5833333333333,112.241796875,435,112.23281250000001C437.4166666666667,112.22382812500001,439.8333333333333,112.21484375,442.25,112.205859375C444.6666666666667,112.196875,447.0833333333333,112.187890625,449.5,112.17890625C451.9166666666667,112.169921875,454.3333333333333,112.16093749999999,456.75,112.15195312499999C459.1666666666667,112.14296875,461.5833333333333,112.133984375,464,112.125C466.4166666666667,112.116015625,468.8333333333333,112.10703124999999,471.25,112.098046875C473.6666666666667,112.0890625,476.0833333333333,112.08007812499999,478.5,112.07109374999999C480.9166666666667,112.06210937499999,483.33333333333337,112.053125,485.75000000000006,112.044140625C488.16666666666674,112.03515625,490.58333333333337,112.026171875,493.00000000000006,112.0171875C495.4166666666667,112.00820312500001,497.8333333333333,111.99921875,500.24999999999994,111.990234375C502.66666666666663,111.98125,505.08333333333326,111.972265625,507.49999999999994,111.96328125000001C509.91666666666663,111.95429687500001,512.3333333333333,111.9453125,514.75,111.936328125C517.1666666666666,111.92734375,519.5833333333334,111.918359375,522,111.909375C524.4166666666666,111.900390625,526.8333333333334,111.89140625,529.25,111.882421875C531.6666666666666,111.87343750000001,534.0833333333334,111.864453125,536.5,111.85546875C538.9166666666666,111.846484375,541.3333333333334,111.83749999999999,543.75,111.828515625C546.1666666666666,111.81953125,548.5833333333334,111.810546875,551,111.8015625C553.4166666666666,111.792578125,555.8333333333334,111.78359375,558.25,111.774609375C560.6666666666666,111.765625,563.0833333333334,111.75664062499999,565.5,111.74765624999999C567.9166666666666,111.738671875,570.3333333333334,111.7296875,572.75,111.720703125C575.1666666666666,111.71171875,577.5833333333334,111.70273437499999,580,111.69375C582.4166666666666,111.684765625,584.8333333333334,111.67578125,587.25,111.666796875C589.6666666666666,111.6578125,592.0833333333334,111.64882812500001,594.5,111.63984375000001C596.9166666666666,111.63085937500001,599.3333333333334,111.621875,601.75,111.612890625C604.1666666666666,111.60390625000001,606.5833333333334,111.594921875,609,111.5859375C611.4166666666666,111.576953125,613.8333333333334,111.56796875,616.25,111.55898437500001C618.6666666666666,111.55000000000001,621.0833333333334,111.541015625,623.5,111.53203125C625.9166666666666,111.523046875,628.3333333333334,111.5140625,630.75,111.505078125C633.1666666666666,111.49609375,635.5833333333334,111.48710937499999,638,111.47812499999999C640.4166666666666,111.469140625,642.8333333333334,111.46015625,645.25,111.451171875C647.6666666666666,111.4421875,650.0833333333334,111.43320312499999,652.5,111.42421875C654.9166666666666,111.415234375,657.3333333333334,111.40624999999999,659.75,111.39726562499999C662.1666666666666,111.38828124999999,664.5833333333334,111.379296875,667,111.3703125C669.4166666666666,111.361328125,671.8333333333334,111.35234375,674.25,111.343359375C676.6666666666666,111.33437500000001,679.0833333333334,111.325390625,681.5,111.31640625C683.9166666666666,111.307421875,686.3333333333334,111.2984375,688.75,111.28945312500001C691.1666666666666,111.28046875000001,693.5833333333334,111.271484375,696,111.2625C698.4166666666666,111.253515625,700.8333333333334,111.24453125,703.25,111.235546875C705.6666666666666,111.2265625,708.0833333333334,111.217578125,710.5,111.20859375C712.9166666666666,111.19960937500001,715.3333333333334,111.190625,717.75,111.181640625C720.1666666666666,111.17265625,722.5833333333334,111.16367187499999,725,111.1546875C727.4166666666666,111.145703125,729.8333333333334,111.13671875,732.25,111.127734375C734.6666666666666,111.11875,737.0833333333334,111.109765625,739.5,111.10078125C741.9166666666666,111.091796875,744.3333333333334,111.08281249999999,746.75,111.07382812499999C749.1666666666666,111.06484375,751.5833333333334,111.055859375,754,111.046875C756.4166666666666,111.037890625,758.8333333333334,111.02890624999999,761.25,111.019921875C763.6666666666666,111.0109375,766.0833333333334,111.001953125,768.5,110.99296875C770.9166666666666,110.983984375,773.3333333333334,110.97500000000001,775.75,110.96601562500001C778.1666666666666,110.95703125000001,780.5833333333334,110.948046875,783,110.9390625C785.4166666666667,110.93007812500001,787.8333333333334,110.92109375,790.2500000000001,110.912109375C792.6666666666667,110.903125,795.0833333333335,110.894140625,797.5000000000001,110.88515625000001C799.9166666666667,110.87617187500001,802.3333333333335,110.8671875,804.7500000000001,110.858203125C807.1666666666667,110.84921875,809.5833333333335,110.840234375,812.0000000000001,110.83125C814.4166666666667,110.822265625,816.8333333333333,110.81328124999999,819.2499999999999,110.80429687499999C821.6666666666665,110.7953125,824.0833333333333,110.786328125,826.4999999999999,110.77734375C828.9166666666665,110.768359375,831.3333333333333,110.75937499999999,833.7499999999999,110.750390625C836.1666666666665,110.74140625,838.5833333333333,110.73242187499999,840.9999999999999,110.72343749999999C843.4166666666666,110.71445312499999,845.8333333333333,110.70546875,848.25,110.696484375C850.6666666666666,110.6875,853.0833333333334,110.678515625,855.5,110.66953125C857.9166666666666,110.66054687500001,860.3333333333334,110.6515625,862.75,110.642578125C865.1666666666666,110.63359375,867.5833333333334,110.624609375,870,110.61562500000001C872.4166666666666,110.60664062500001,874.8333333333334,110.59765625,877.25,110.588671875C879.6666666666666,110.5796875,882.0833333333334,110.570703125,884.5,110.56171875C886.9166666666666,110.552734375,889.3333333333334,110.54375,891.75,110.534765625C894.1666666666666,110.52578125000001,896.5833333333334,110.516796875,899,110.5078125C901.4166666666666,110.498828125,903.8333333333334,110.48984374999999,906.25,110.480859375C908.6666666666666,110.471875,911.0833333333334,110.462890625,913.5,110.45390625C915.9166666666666,110.444921875,918.3333333333334,110.4359375,920.75,110.426953125C923.1666666666666,110.41796875,925.5833333333334,110.40898437499999,928,110.39999999999999C930.4166666666666,110.391015625,932.8333333333334,110.38203125,935.25,110.373046875C937.6666666666666,110.3640625,940.0833333333334,110.35507812499999,942.5,110.34609375C944.9166666666666,110.337109375,947.3333333333334,110.328125,949.75,110.319140625C952.1666666666666,110.31015625,954.5833333333334,110.30117187500001,957,110.29218750000001C959.4166666666666,110.28320312500001,961.8333333333334,110.27421875,964.25,110.265234375C966.6666666666667,110.25625000000001,969.0833333333334,110.247265625,971.5000000000001,110.23828125C973.9166666666667,110.229296875,976.3333333333335,110.2203125,978.7500000000001,110.21132812500001C981.1666666666667,110.20234375000001,983.5833333333335,110.193359375,986.0000000000001,110.184375C988.4166666666667,110.175390625,990.8333333333335,110.16640625,993.2500000000001,110.157421875C995.6666666666667,110.1484375,998.0833333333333,110.13945312499999,1000.4999999999999,110.13046874999999C1002.9166666666665,110.121484375,1005.3333333333333,110.1125,1007.7499999999999,110.103515625C1010.1666666666665,110.09453125,1012.5833333333333,110.08554687499999,1014.9999999999999,110.0765625C1017.4166666666665,110.067578125,1019.8333333333333,110.05859374999999,1022.2499999999999,110.04960937499999C1024.6666666666665,110.04062499999999,1027.0833333333333,110.031640625,1029.5,110.02265625C1031.9166666666667,110.013671875,1034.3333333333333,110.0046875,1036.75,109.995703125C1039.1666666666667,109.98671875000001,1041.5833333333333,109.977734375,1044,109.96875C1046.4166666666667,109.959765625,1048.8333333333333,109.95078125,1051.25,109.94179687500001C1053.6666666666667,109.93281250000001,1056.0833333333333,109.923828125,1058.5,109.91484375C1060.9166666666667,109.905859375,1063.3333333333333,109.896875,1065.75,109.887890625C1068.1666666666667,109.87890625,1070.5833333333333,109.869921875,1073,109.8609375C1075.4166666666667,109.85195312500001,1077.8333333333333,109.84296875,1080.25,109.833984375C1082.6666666666667,109.825,1085.0833333333333,109.81601562499999,1087.5,109.80703125C1089.9166666666667,109.798046875,1092.3333333333333,109.7890625,1094.75,109.780078125C1097.1666666666667,109.77109375,1099.5833333333333,109.762109375,1102,109.753125C1104.4166666666667,109.744140625,1106.8333333333333,109.73515624999999,1109.25,109.72617187499999C1111.6666666666667,109.7171875,1114.0833333333333,109.708203125,1116.5,109.69921875C1118.9166666666667,109.690234375,1121.3333333333333,109.68124999999999,1123.75,109.672265625C1126.1666666666667,109.66328125,1128.5833333333333,109.654296875,1131,109.6453125C1133.4166666666667,109.636328125,1135.8333333333333,109.62734375000001,1138.25,109.61835937500001C1140.6666666666667,109.60937500000001,1143.0833333333333,109.600390625,1145.5,109.59140625C1147.9166666666667,109.58242187500001,1150.3333333333333,109.5734375,1152.75,109.564453125C1155.1666666666667,109.55546875,1157.5833333333333,109.55546875,1160,109.53750000000001C1162.4166666666667,109.51953125000001,1164.8333333333333,108.00416666666666,1167.25,107.2375C1169.6666666666667,106.47083333333333,1172.0833333333333,105.70416666666667,1174.5,104.9375C1176.9166666666667,104.17083333333333,1179.3333333333333,103.40416666666665,1181.75,102.63749999999999C1184.1666666666667,101.87083333333332,1186.5833333333333,101.10416666666667,1189,100.3375C1191.4166666666667,99.57083333333334,1193.8333333333333,98.80416666666667,1196.25,98.03750000000001C1198.6666666666667,97.27083333333334,1201.0833333333333,96.50416666666666,1203.5,95.7375C1205.9166666666667,94.97083333333333,1208.3333333333333,94.20416666666667,1210.75,93.4375C1213.1666666666667,92.67083333333333,1215.5833333333333,91.90416666666667,1218,91.1375C1220.4166666666667,90.37083333333334,1222.8333333333333,89.60416666666666,1225.25,88.83749999999999C1227.6666666666667,88.07083333333333,1230.0833333333333,87.30416666666666,1232.5,86.5375C1234.9166666666667,85.77083333333333,1237.3333333333333,85.00416666666666,1239.75,84.2375C1242.1666666666667,83.47083333333333,1244.5833333333333,82.70416666666667,1247,81.9375C1249.4166666666667,81.17083333333333,1251.8333333333333,80.40416666666667,1254.25,79.6375C1256.6666666666667,78.87083333333334,1259.0833333333333,78.10416666666666,1261.5,77.33749999999999C1263.9166666666667,76.57083333333333,1266.3333333333333,75.80416666666667,1268.75,75.03750000000001C1271.1666666666667,74.27083333333334,1273.5833333333333,73.50416666666668,1276,72.73750000000001C1278.4166666666667,71.97083333333335,1280.8333333333333,71.20416666666667,1283.25,70.4375C1285.6666666666667,69.67083333333333,1288.0833333333333,68.90416666666667,1290.5,68.1375C1292.9166666666667,67.37083333333334,1295.3333333333333,66.60416666666667,1297.75,65.8375C1300.1666666666667,65.07083333333334,1302.5833333333333,64.30416666666667,1305,63.5375C1307.4166666666667,62.770833333333336,1309.8333333333333,62.00416666666666,1312.25,61.2375C1314.6666666666667,60.47083333333333,1317.0833333333333,59.70416666666666,1319.5,58.93749999999999C1321.9166666666667,58.17083333333333,1324.3333333333333,57.40416666666667,1326.75,56.6375C1329.1666666666667,55.87083333333334,1331.5833333333333,55.10416666666667,1334,54.337500000000006C1336.4166666666667,53.57083333333334,1338.8333333333333,52.80416666666667,1341.25,52.0375C1343.6666666666667,51.270833333333336,1346.0833333333333,50.50416666666666,1348.5,49.7375C1350.9166666666667,48.97083333333333,1353.3333333333333,48.204166666666666,1355.75,47.4375C1358.1666666666667,46.670833333333334,1360.5833333333333,45.90416666666666,1363,45.137499999999996C1365.4166666666667,44.37083333333333,1367.8333333333333,43.60416666666667,1370.25,42.837500000000006C1372.6666666666667,42.07083333333334,1375.0833333333333,41.30416666666667,1377.5,40.5375C1379.9166666666667,39.770833333333336,1382.3333333333333,39.00416666666667,1384.75,38.237500000000004C1387.1666666666667,37.47083333333334,1389.5833333333333,36.704166666666666,1392,35.9375C1394.4166666666667,35.170833333333334,1396.8333333333333,34.40416666666666,1399.25,33.637499999999996C1401.6666666666667,32.87083333333333,1404.0833333333333,32.104166666666664,1406.5,31.337499999999995C1408.9166666666667,30.57083333333333,1411.3333333333333,29.80416666666666,1413.75,29.037499999999994C1416.1666666666667,28.27083333333333,1418.5833333333333,27.50416666666667,1421,26.737500000000004C1423.4166666666667,25.97083333333334,1425.8333333333333,25.204166666666673,1428.25,24.437500000000004C1430.6666666666667,23.670833333333334,1433.0833333333333,22.90416666666667,1435.5,22.1375C1437.9166666666667,21.37083333333333,1440.3333333333333,20.604166666666664,1442.75,19.8375C1445.1666666666667,19.070833333333333,1447.5833333333333,18.304166666666664,1450,17.537499999999998" fill="transparent" stroke-linecap="round" stroke="#B6509E" stroke-width="2"></path><path class="visx-linepath" d="M0,110.6875C2.4166666666666665,110.6875,4.833333333333334,110.6875,7.25,110.6875C9.666666666666666,110.6875,12.083333333333334,110.6875,14.5,110.6875C16.916666666666668,110.6875,19.333333333333332,110.6875,21.75,110.6875C24.166666666666668,110.6875,26.583333333333332,110.6875,29,110.6875C31.416666666666668,110.6875,33.833333333333336,110.6875,36.25,110.6875C38.666666666666664,110.6875,41.083333333333336,110.6875,43.5,110.6875C45.91666666666667,110.6875,48.333333333333336,110.6875,50.75000000000001,110.6875C53.16666666666667,110.6875,55.583333333333336,110.6875,58,110.6875C60.416666666666664,110.6875,62.833333333333336,110.6875,65.25,110.6875C67.66666666666667,110.6875,70.08333333333333,110.6875,72.5,110.6875C74.91666666666667,110.6875,77.33333333333333,110.6875,79.75,110.6875C82.16666666666667,110.6875,84.58333333333333,110.6875,87,110.6875C89.41666666666667,110.6875,91.83333333333333,110.6875,94.25,110.6875C96.66666666666667,110.6875,99.08333333333334,110.6875,101.50000000000001,110.6875C103.91666666666667,110.6875,106.33333333333334,110.6875,108.75,110.6875C111.16666666666667,110.6875,113.58333333333333,110.6875,116,110.6875C118.41666666666667,110.6875,120.83333333333334,110.6875,123.25000000000001,110.6875C125.66666666666667,110.6875,128.08333333333334,110.6875,130.5,110.6875C132.91666666666666,110.6875,135.33333333333334,110.6875,137.75,110.6875C140.16666666666666,110.6875,142.58333333333334,110.6875,145,110.6875C147.41666666666666,110.6875,149.83333333333334,110.6875,152.25,110.6875C154.66666666666666,110.6875,157.08333333333334,110.6875,159.5,110.6875C161.91666666666666,110.6875,164.33333333333334,110.6875,166.75,110.6875C169.16666666666666,110.6875,171.58333333333334,110.6875,174,110.6875C176.41666666666666,110.6875,178.83333333333334,110.6875,181.25,110.6875C183.66666666666666,110.6875,186.08333333333334,110.6875,188.5,110.6875C190.91666666666666,110.6875,193.33333333333334,110.6875,195.75,110.6875C198.16666666666669,110.6875,200.58333333333334,110.6875,203.00000000000003,110.6875C205.41666666666669,110.6875,207.83333333333331,110.6875,210.24999999999997,110.6875C212.66666666666666,110.6875,215.08333333333331,110.6875,217.5,110.6875C219.91666666666666,110.6875,222.33333333333334,110.6875,224.75,110.6875C227.16666666666666,110.6875,229.58333333333334,110.6875,232,110.6875C234.41666666666666,110.6875,236.83333333333334,110.6875,239.25,110.6875C241.66666666666669,110.6875,244.08333333333334,110.6875,246.50000000000003,110.6875C248.91666666666669,110.6875,251.33333333333331,110.6875,253.74999999999997,110.6875C256.16666666666663,110.6875,258.5833333333333,110.6875,261,110.6875C263.4166666666667,110.6875,265.8333333333333,110.6875,268.25,110.6875C270.6666666666667,110.6875,273.0833333333333,110.6875,275.5,110.6875C277.9166666666667,110.6875,280.3333333333333,110.6875,282.75,110.6875C285.1666666666667,110.6875,287.5833333333333,110.6875,290,110.6875C292.4166666666667,110.6875,294.8333333333333,110.6875,297.25,110.6875C299.6666666666667,110.6875,302.0833333333333,110.6875,304.5,110.6875C306.9166666666667,110.6875,309.3333333333333,110.6875,311.75,110.6875C314.1666666666667,110.6875,316.5833333333333,110.6875,319,110.6875C321.4166666666667,110.6875,323.8333333333333,110.6875,326.25,110.6875C328.6666666666667,110.6875,331.0833333333333,110.6875,333.5,110.6875C335.9166666666667,110.6875,338.3333333333333,110.6875,340.75,110.6875C343.1666666666667,110.6875,345.5833333333333,110.6875,348,110.6875C350.4166666666667,110.6875,352.8333333333333,110.6875,355.25,110.6875C357.6666666666667,110.6875,360.0833333333333,110.6875,362.5,110.6875C364.9166666666667,110.6875,367.3333333333333,110.6875,369.75,110.6875C372.1666666666667,110.6875,374.5833333333333,110.6875,377,110.6875C379.4166666666667,110.6875,381.8333333333333,110.6875,384.25,110.6875C386.6666666666667,110.6875,389.0833333333333,110.6875,391.5,110.6875C393.9166666666667,110.6875,396.33333333333337,110.6875,398.75000000000006,110.6875C401.16666666666674,110.6875,403.58333333333337,110.6875,406.00000000000006,110.6875C408.4166666666667,110.6875,410.8333333333333,110.6875,413.24999999999994,110.6875C415.66666666666663,110.6875,418.08333333333326,110.6875,420.49999999999994,110.6875C422.91666666666663,110.6875,425.3333333333333,110.6875,427.75,110.6875C430.1666666666667,110.6875,432.5833333333333,110.6875,435,110.6875C437.4166666666667,110.6875,439.8333333333333,110.6875,442.25,110.6875C444.6666666666667,110.6875,447.0833333333333,110.6875,449.5,110.6875C451.9166666666667,110.6875,454.3333333333333,110.6875,456.75,110.6875C459.1666666666667,110.6875,461.5833333333333,110.6875,464,110.6875C466.4166666666667,110.6875,468.8333333333333,110.6875,471.25,110.6875C473.6666666666667,110.6875,476.0833333333333,110.6875,478.5,110.6875C480.9166666666667,110.6875,483.33333333333337,110.6875,485.75000000000006,110.6875C488.16666666666674,110.6875,490.58333333333337,110.6875,493.00000000000006,110.6875C495.4166666666667,110.6875,497.8333333333333,110.6875,500.24999999999994,110.6875C502.66666666666663,110.6875,505.08333333333326,110.6875,507.49999999999994,110.6875C509.91666666666663,110.6875,512.3333333333333,110.6875,514.75,110.6875C517.1666666666666,110.6875,519.5833333333334,110.6875,522,110.6875C524.4166666666666,110.6875,526.8333333333334,110.6875,529.25,110.6875C531.6666666666666,110.6875,534.0833333333334,110.6875,536.5,110.6875C538.9166666666666,110.6875,541.3333333333334,110.6875,543.75,110.6875C546.1666666666666,110.6875,548.5833333333334,110.6875,551,110.6875C553.4166666666666,110.6875,555.8333333333334,110.6875,558.25,110.6875C560.6666666666666,110.6875,563.0833333333334,110.6875,565.5,110.6875C567.9166666666666,110.6875,570.3333333333334,110.6875,572.75,110.6875C575.1666666666666,110.6875,577.5833333333334,110.6875,580,110.6875C582.4166666666666,110.6875,584.8333333333334,110.6875,587.25,110.6875C589.6666666666666,110.6875,592.0833333333334,110.6875,594.5,110.6875C596.9166666666666,110.6875,599.3333333333334,110.6875,601.75,110.6875C604.1666666666666,110.6875,606.5833333333334,110.6875,609,110.6875C611.4166666666666,110.6875,613.8333333333334,110.6875,616.25,110.6875C618.6666666666666,110.6875,621.0833333333334,110.6875,623.5,110.6875C625.9166666666666,110.6875,628.3333333333334,110.6875,630.75,110.6875C633.1666666666666,110.6875,635.5833333333334,110.6875,638,110.6875C640.4166666666666,110.6875,642.8333333333334,110.6875,645.25,110.6875C647.6666666666666,110.6875,650.0833333333334,110.6875,652.5,110.6875C654.9166666666666,110.6875,657.3333333333334,110.6875,659.75,110.6875C662.1666666666666,110.6875,664.5833333333334,110.6875,667,110.6875C669.4166666666666,110.6875,671.8333333333334,110.6875,674.25,110.6875C676.6666666666666,110.6875,679.0833333333334,110.6875,681.5,110.6875C683.9166666666666,110.6875,686.3333333333334,110.6875,688.75,110.6875C691.1666666666666,110.6875,693.5833333333334,110.6875,696,110.6875C698.4166666666666,110.6875,700.8333333333334,110.6875,703.25,110.6875C705.6666666666666,110.6875,708.0833333333334,110.6875,710.5,110.6875C712.9166666666666,110.6875,715.3333333333334,110.6875,717.75,110.6875C720.1666666666666,110.6875,722.5833333333334,110.6875,725,110.6875C727.4166666666666,110.6875,729.8333333333334,110.6875,732.25,110.6875C734.6666666666666,110.6875,737.0833333333334,110.6875,739.5,110.6875C741.9166666666666,110.6875,744.3333333333334,110.6875,746.75,110.6875C749.1666666666666,110.6875,751.5833333333334,110.6875,754,110.6875C756.4166666666666,110.6875,758.8333333333334,110.6875,761.25,110.6875C763.6666666666666,110.6875,766.0833333333334,110.6875,768.5,110.6875C770.9166666666666,110.6875,773.3333333333334,110.6875,775.75,110.6875C778.1666666666666,110.6875,780.5833333333334,110.6875,783,110.6875C785.4166666666667,110.6875,787.8333333333334,110.6875,790.2500000000001,110.6875C792.6666666666667,110.6875,795.0833333333335,110.6875,797.5000000000001,110.6875C799.9166666666667,110.6875,802.3333333333335,110.6875,804.7500000000001,110.6875C807.1666666666667,110.6875,809.5833333333335,110.6875,812.0000000000001,110.6875C814.4166666666667,110.6875,816.8333333333333,110.6875,819.2499999999999,110.6875C821.6666666666665,110.6875,824.0833333333333,110.6875,826.4999999999999,110.6875C828.9166666666665,110.6875,831.3333333333333,110.6875,833.7499999999999,110.6875C836.1666666666665,110.6875,838.5833333333333,110.6875,840.9999999999999,110.6875C843.4166666666666,110.6875,845.8333333333333,110.6875,848.25,110.6875C850.6666666666666,110.6875,853.0833333333334,110.6875,855.5,110.6875C857.9166666666666,110.6875,860.3333333333334,110.6875,862.75,110.6875C865.1666666666666,110.6875,867.5833333333334,110.6875,870,110.6875C872.4166666666666,110.6875,874.8333333333334,110.6875,877.25,110.6875C879.6666666666666,110.6875,882.0833333333334,110.6875,884.5,110.6875C886.9166666666666,110.6875,889.3333333333334,110.6875,891.75,110.6875C894.1666666666666,110.6875,896.5833333333334,110.6875,899,110.6875C901.4166666666666,110.6875,903.8333333333334,110.6875,906.25,110.6875C908.6666666666666,110.6875,911.0833333333334,110.6875,913.5,110.6875C915.9166666666666,110.6875,918.3333333333334,110.6875,920.75,110.6875C923.1666666666666,110.6875,925.5833333333334,110.6875,928,110.6875C930.4166666666666,110.6875,932.8333333333334,110.6875,935.25,110.6875C937.6666666666666,110.6875,940.0833333333334,110.6875,942.5,110.6875C944.9166666666666,110.6875,947.3333333333334,110.6875,949.75,110.6875C952.1666666666666,110.6875,954.5833333333334,110.6875,957,110.6875C959.4166666666666,110.6875,961.8333333333334,110.6875,964.25,110.6875C966.6666666666667,110.6875,969.0833333333334,110.6875,971.5000000000001,110.6875C973.9166666666667,110.6875,976.3333333333335,110.6875,978.7500000000001,110.6875C981.1666666666667,110.6875,983.5833333333335,110.6875,986.0000000000001,110.6875C988.4166666666667,110.6875,990.8333333333335,110.6875,993.2500000000001,110.6875C995.6666666666667,110.6875,998.0833333333333,110.6875,1000.4999999999999,110.6875C1002.9166666666665,110.6875,1005.3333333333333,110.6875,1007.7499999999999,110.6875C1010.1666666666665,110.6875,1012.5833333333333,110.6875,1014.9999999999999,110.6875C1017.4166666666665,110.6875,1019.8333333333333,110.6875,1022.2499999999999,110.6875C1024.6666666666665,110.6875,1027.0833333333333,110.6875,1029.5,110.6875C1031.9166666666667,110.6875,1034.3333333333333,110.6875,1036.75,110.6875C1039.1666666666667,110.6875,1041.5833333333333,110.6875,1044,110.6875C1046.4166666666667,110.6875,1048.8333333333333,110.6875,1051.25,110.6875C1053.6666666666667,110.6875,1056.0833333333333,110.6875,1058.5,110.6875C1060.9166666666667,110.6875,1063.3333333333333,110.6875,1065.75,110.6875C1068.1666666666667,110.6875,1070.5833333333333,110.6875,1073,110.6875C1075.4166666666667,110.6875,1077.8333333333333,110.6875,1080.25,110.6875C1082.6666666666667,110.6875,1085.0833333333333,110.6875,1087.5,110.6875C1089.9166666666667,110.6875,1092.3333333333333,110.6875,1094.75,110.6875C1097.1666666666667,110.6875,1099.5833333333333,110.6875,1102,110.6875C1104.4166666666667,110.6875,1106.8333333333333,110.6875,1109.25,110.6875C1111.6666666666667,110.6875,1114.0833333333333,110.6875,1116.5,110.6875C1118.9166666666667,110.6875,1121.3333333333333,110.6875,1123.75,110.6875C1126.1666666666667,110.6875,1128.5833333333333,110.6875,1131,110.6875C1133.4166666666667,110.6875,1135.8333333333333,110.6875,1138.25,110.6875C1140.6666666666667,110.6875,1143.0833333333333,110.6875,1145.5,110.6875C1147.9166666666667,110.6875,1150.3333333333333,110.6875,1152.75,110.6875C1155.1666666666667,110.6875,1157.5833333333333,110.6875,1160,110.6875C1162.4166666666667,110.6875,1164.8333333333333,110.6875,1167.25,110.6875C1169.6666666666667,110.6875,1172.0833333333333,110.6875,1174.5,110.6875C1176.9166666666667,110.6875,1179.3333333333333,110.6875,1181.75,110.6875C1184.1666666666667,110.6875,1186.5833333333333,110.6875,1189,110.6875C1191.4166666666667,110.6875,1193.8333333333333,110.6875,1196.25,110.6875C1198.6666666666667,110.6875,1201.0833333333333,110.6875,1203.5,110.6875C1205.9166666666667,110.6875,1208.3333333333333,110.6875,1210.75,110.6875C1213.1666666666667,110.6875,1215.5833333333333,110.6875,1218,110.6875C1220.4166666666667,110.6875,1222.8333333333333,110.6875,1225.25,110.6875C1227.6666666666667,110.6875,1230.0833333333333,110.6875,1232.5,110.6875C1234.9166666666667,110.6875,1237.3333333333333,110.6875,1239.75,110.6875C1242.1666666666667,110.6875,1244.5833333333333,110.6875,1247,110.6875C1249.4166666666667,110.6875,1251.8333333333333,110.6875,1254.25,110.6875C1256.6666666666667,110.6875,1259.0833333333333,110.6875,1261.5,110.6875C1263.9166666666667,110.6875,1266.3333333333333,110.6875,1268.75,110.6875C1271.1666666666667,110.6875,1273.5833333333333,110.6875,1276,110.6875C1278.4166666666667,110.6875,1280.8333333333333,110.6875,1283.25,110.6875C1285.6666666666667,110.6875,1288.0833333333333,110.6875,1290.5,110.6875C1292.9166666666667,110.6875,1295.3333333333333,110.6875,1297.75,110.6875C1300.1666666666667,110.6875,1302.5833333333333,110.6875,1305,110.6875C1307.4166666666667,110.6875,1309.8333333333333,110.6875,1312.25,110.6875C1314.6666666666667,110.6875,1317.0833333333333,110.6875,1319.5,110.6875C1321.9166666666667,110.6875,1324.3333333333333,110.6875,1326.75,110.6875C1329.1666666666667,110.6875,1331.5833333333333,110.6875,1334,110.6875C1336.4166666666667,110.6875,1338.8333333333333,110.6875,1341.25,110.6875C1343.6666666666667,110.6875,1346.0833333333333,110.6875,1348.5,110.6875C1350.9166666666667,110.6875,1353.3333333333333,110.6875,1355.75,110.6875C1358.1666666666667,110.6875,1360.5833333333333,110.6875,1363,110.6875C1365.4166666666667,110.6875,1367.8333333333333,110.6875,1370.25,110.6875C1372.6666666666667,110.6875,1375.0833333333333,110.6875,1377.5,110.6875C1379.9166666666667,110.6875,1382.3333333333333,110.6875,1384.75,110.6875C1387.1666666666667,110.6875,1389.5833333333333,110.6875,1392,110.6875C1394.4166666666667,110.6875,1396.8333333333333,110.6875,1399.25,110.6875C1401.6666666666667,110.6875,1404.0833333333333,110.6875,1406.5,110.6875C1408.9166666666667,110.6875,1411.3333333333333,110.6875,1413.75,110.6875C1416.1666666666667,110.6875,1418.5833333333333,110.6875,1421,110.6875C1423.4166666666667,110.6875,1425.8333333333333,110.6875,1428.25,110.6875C1430.6666666666667,110.6875,1433.0833333333333,110.6875,1435.5,110.6875C1437.9166666666667,110.6875,1440.3333333333333,110.6875,1442.75,110.6875C1445.1666666666667,110.6875,1447.5833333333333,110.6875,1450,110.6875" fill="transparent" stroke-linecap="round" stroke="#E7C6DF" stroke-width="2"></path><g class="visx-group visx-axis visx-axis-bottom" transform="translate(0, 115)"><g class="visx-group visx-axis-tick" transform="translate(0, 0)"><line class="visx-line" x1="0" y1="0" x2="0" y2="8" fill="transparent" shape-rendering="crispEdges" stroke="#000" stroke-width="0" stroke-linecap="square"></line><svg x="0" y="0" font-size="10" style="overflow:visible"><text transform="" x="0" y="18" fill="#000" font-size="10" text-anchor="middle"><tspan x="0" dy="0em">0%</tspan></text></svg></g><g class="visx-group visx-axis-tick" transform="translate(0, 0)"><line class="visx-line" x1="362.5" y1="0" x2="362.5" y2="8" fill="transparent" shape-rendering="crispEdges" stroke="#000" stroke-width="0" stroke-linecap="square"></line><svg x="0" y="0" font-size="10" style="overflow:visible"><text transform="" x="362.5" y="18" fill="#000" font-size="10" text-anchor="middle"><tspan x="362.5" dy="0em">25%</tspan></text></svg></g><g class="visx-group visx-axis-tick" transform="translate(0, 0)"><line class="visx-line" x1="725" y1="0" x2="725" y2="8" fill="transparent" shape-rendering="crispEdges" stroke="#000" stroke-width="0" stroke-linecap="square"></line><svg x="0" y="0" font-size="10" style="overflow:visible"><text transform="" x="725" y="18" fill="#000" font-size="10" text-anchor="middle"><tspan x="725" dy="0em">50%</tspan></text></svg></g><g class="visx-group visx-axis-tick" transform="translate(0, 0)"><line class="visx-line" x1="1087.5" y1="0" x2="1087.5" y2="8" fill="transparent" shape-rendering="crispEdges" stroke="#000" stroke-width="0" stroke-linecap="square"></line><svg x="0" y="0" font-size="10" style="overflow:visible"><text transform="" x="1087.5" y="18" fill="#000" font-size="10" text-anchor="middle"><tspan x="1087.5" dy="0em">75%</tspan></text></svg></g><g class="visx-group visx-axis-tick" transform="translate(0, 0)"><line class="visx-line" x1="1450" y1="0" x2="1450" y2="8" fill="transparent" shape-rendering="crispEdges" stroke="#000" stroke-width="0" stroke-linecap="square"></line><svg x="0" y="0" font-size="10" style="overflow:visible"><text transform="" x="1450" y="18" fill="#000" font-size="10" text-anchor="middle"><tspan x="1450" dy="0em">100%</tspan></text></svg></g><line class="visx-line visx-axis-line" x1="0.5" y1="0" x2="1450.5" y2="0" fill="transparent" shape-rendering="crispEdges" stroke="#222" stroke-width="0"></line></g><g class="visx-group visx-axis visx-axis-left" transform="translate(0, 0)"><g class="visx-group visx-axis-tick" transform="translate(0, 0)"><line class="visx-line" x1="0" y1="115" x2="-8" y2="115" fill="transparent" shape-rendering="crispEdges" stroke="#222" stroke-width="0" stroke-linecap="square"></line><svg x="-30" y="0" font-size="8" style="overflow:visible"><text transform="" x="-8" y="115" fill="#000" font-size="8" text-anchor="start"><tspan x="-8" dy="0em">0%</tspan></text></svg></g><g class="visx-group visx-axis-tick" transform="translate(0, 0)"><line class="visx-line" x1="0" y1="57.5" x2="-8" y2="57.5" fill="transparent" shape-rendering="crispEdges" stroke="#222" stroke-width="0" stroke-linecap="square"></line><svg x="-30" y="0" font-size="8" style="overflow:visible"><text transform="" x="-8" y="57.5" fill="#000" font-size="8" text-anchor="start"><tspan x="-8" dy="0em">50%</tspan></text></svg></g><g class="visx-group visx-axis-tick" transform="translate(0, 0)"><line class="visx-line" x1="0" y1="0" x2="-8" y2="0" fill="transparent" shape-rendering="crispEdges" stroke="#222" stroke-width="0" stroke-linecap="square"></line><svg x="-30" y="0" font-size="8" style="overflow:visible"><text transform="" x="-8" y="0" fill="#000" font-size="8" text-anchor="start"><tspan x="-8" dy="0em">100%</tspan></text></svg></g><line class="visx-line visx-axis-line" x1="0" y1="115.5" x2="0" y2="0.5" fill="transparent" shape-rendering="crispEdges" stroke="#222" stroke-width="0"></line></g><rect class="visx-bar" width="1450" height="115" fill="transparent"></rect><line class="visx-line" x1="1160" y1="28" x2="1160" y2="115" fill="transparent" shape-rendering="crispEdges" stroke="#0062D2" stroke-width="1" pointer-events="none" stroke-dasharray="5,2"></line><svg x="0" y="0" font-size="10px" style="overflow:visible"><text transform="" x="1160" y="20" font-size="10px" fill="#fff" stroke="#fff" stroke-width="0.8em" text-anchor="middle"><tspan x="1160" dy="0.355em">Optimal 80%</tspan></text></svg><svg x="0" y="0" font-size="10px" style="overflow:visible"><text transform="" x="1160" y="20" font-size="10px" fill="#62677B" text-anchor="middle"><tspan x="1160" dy="0.355em">Optimal 80%</tspan></text></svg></g></svg>