<?xml version="1.0"?><svg xmlns="http://www.w3.org/2000/svg" xmlns:xlink= "http://www.w3.org/1999/xlink" style="background: white;" width="1500" height="185"> <g style="color: black; font-size: 13px; font-family: sans-serif; transform: translate(18px, 25px);"><g><circle r="3" cx="-6" cy="-5" style="fill: #B6509E" /><text>Borrow APR, variable</text></g><g style="transform: translateX(150px);"><circle r="3" cx="-6" cy="-5" style="fill: rgb(231, 198, 223)" /><text>Borrow APR, stable</text></g><g style="transform: translateX(290px);"><circle r="3" cx="-6" cy="-5" style="fill: rgb(0, 98, 210)" /><text>Utilization Rate</text></g></g><g class="visx-group" transform="translate(40, 50)"><g class="visx-group visx-rows" transform="translate(0, 0)"><line class="visx-line" x1="0" y1="115" x2="1450" y2="115" fill="transparent" shape-rendering="crispEdges" stroke="#000" stroke-width="1" stroke-dasharray="3,3" pointer-events="none"></line><line class="visx-line" x1="0" y1="73.92857142857142" x2="1450" y2="73.92857142857142" fill="transparent" shape-rendering="crispEdges" stroke="#000" stroke-width="1" stroke-dasharray="3,3" pointer-events="none"></line><line class="visx-line" x1="0" y1="32.857142857142854" x2="1450" y2="32.857142857142854" fill="transparent" shape-rendering="crispEdges" stroke="#000" stroke-width="1" stroke-dasharray="3,3" pointer-events="none"></line></g><path class="visx-linepath" d="M0,114.99999999997443C2.4166666666666665,114.99574074072584,4.833333333333334,114.99148148147722,7.25,114.98722222222223C9.666666666666666,114.98296296296724,12.083333333333334,114.9787037037037,14.5,114.97444444444444C16.916666666666668,114.97018518518519,19.333333333333332,114.96592592592593,21.75,114.96166666666667C24.166666666666668,114.95740740740742,26.583333333333332,114.95314814814814,29,114.94888888888889C31.416666666666668,114.94462962962963,33.833333333333336,114.94037037037037,36.25,114.93611111111112C38.666666666666664,114.93185185185186,41.083333333333336,114.92759259259259,43.5,114.92333333333333C45.91666666666667,114.91907407407408,48.333333333333336,114.91481481481482,50.75000000000001,114.91055555555556C53.16666666666667,114.9062962962963,55.583333333333336,114.90203703703703,58,114.89777777777778C60.416666666666664,114.89351851851852,62.833333333333336,114.88925925925926,65.25,114.885C67.66666666666667,114.88074074074075,70.08333333333333,114.87648148148149,72.5,114.87222222222223C74.91666666666667,114.86796296296298,77.33333333333333,114.8637037037037,79.75,114.85944444444445C82.16666666666667,114.85518518518519,84.58333333333333,114.85092592592592,87,114.84666666666666C89.41666666666667,114.8424074074074,91.83333333333333,114.83814814814814,94.25,114.83388888888888C96.66666666666667,114.82962962962962,99.08333333333334,114.82537037037036,101.50000000000001,114.82111111111111C103.91666666666667,114.81685185185185,106.33333333333334,114.81259259259258,108.75,114.80833333333332C111.16666666666667,114.80407407407407,113.58333333333333,114.79981481481481,116,114.79555555555555C118.41666666666667,114.7912962962963,120.83333333333334,114.78703703703702,123.25000000000001,114.78277777777777C125.66666666666667,114.77851851851851,128.08333333333334,114.77425925925925,130.5,114.77C132.91666666666666,114.76574074074074,135.33333333333334,114.76148148148148,137.75,114.75722222222223C140.16666666666666,114.75296296296297,142.58333333333334,114.7487037037037,145,114.74444444444444C147.41666666666666,114.74018518518518,149.83333333333334,114.73592592592593,152.25,114.73166666666667C154.66666666666666,114.72740740740741,157.08333333333334,114.72314814814814,159.5,114.71888888888888C161.91666666666666,114.71462962962963,164.33333333333334,114.71037037037037,166.75,114.70611111111111C169.16666666666666,114.70185185185186,171.58333333333334,114.69759259259258,174,114.69333333333333C176.41666666666666,114.68907407407407,178.83333333333334,114.68481481481481,181.25,114.68055555555556C183.66666666666666,114.6762962962963,186.08333333333334,114.67203703703703,188.5,114.66777777777777C190.91666666666666,114.66351851851852,193.33333333333334,114.65925925925926,195.75,114.655C198.16666666666669,114.65074074074074,200.58333333333334,114.64648148148149,203.00000000000003,114.64222222222223C205.41666666666669,114.63796296296297,207.83333333333331,114.6337037037037,210.24999999999997,114.62944444444445C212.66666666666666,114.62518518518519,215.08333333333331,114.62092592592593,217.5,114.61666666666667C219.91666666666666,114.61240740740742,222.33333333333334,114.60814814814815,224.75,114.60388888888889C227.16666666666666,114.59962962962963,229.58333333333334,114.59537037037038,232,114.59111111111112C234.41666666666666,114.58685185185186,236.83333333333334,114.58259259259259,239.25,114.57833333333333C241.66666666666669,114.57407407407408,244.08333333333334,114.56981481481482,246.50000000000003,114.56555555555556C248.91666666666669,114.5612962962963,251.33333333333331,114.55703703703703,253.74999999999997,114.55277777777778C256.16666666666663,114.54851851851852,258.5833333333333,114.54425925925926,261,114.54C263.4166666666667,114.53574074074075,265.8333333333333,114.53148148148148,268.25,114.52722222222222C270.6666666666667,114.52296296296296,273.0833333333333,114.5187037037037,275.5,114.51444444444444C277.9166666666667,114.51018518518518,280.3333333333333,114.50592592592592,282.75,114.50166666666667C285.1666666666667,114.49740740740741,287.5833333333333,114.49314814814814,290,114.48888888888888C292.4166666666667,114.48462962962962,294.8333333333333,114.48037037037037,297.25,114.47611111111111C299.6666666666667,114.47185185185185,302.0833333333333,114.46759259259258,304.5,114.46333333333332C306.9166666666667,114.45907407407407,309.3333333333333,114.45481481481481,311.75,114.45055555555555C314.1666666666667,114.4462962962963,316.5833333333333,114.44203703703703,319,114.43777777777777C321.4166666666667,114.43351851851851,323.8333333333333,114.42925925925925,326.25,114.425C328.6666666666667,114.42074074074074,331.0833333333333,114.41648148148148,333.5,114.41222222222223C335.9166666666667,114.40796296296297,338.3333333333333,114.4037037037037,340.75,114.39944444444444C343.1666666666667,114.39518518518518,345.5833333333333,114.39092592592593,348,114.38666666666667C350.4166666666667,114.38240740740741,352.8333333333333,114.37814814814814,355.25,114.37388888888889C357.6666666666667,114.36962962962963,360.0833333333333,114.36537037037037,362.5,114.36111111111111C364.9166666666667,114.35685185185186,367.3333333333333,114.35259259259259,369.75,114.34833333333333C372.1666666666667,114.34407407407407,374.5833333333333,114.33981481481482,377,114.33555555555556C379.4166666666667,114.3312962962963,381.8333333333333,114.32703703703703,384.25,114.32277777777777C386.6666666666667,114.31851851851852,389.0833333333333,114.31425925925926,391.5,114.31C393.9166666666667,114.30574074074075,396.33333333333337,114.30148148148149,398.75000000000006,114.29722222222223C401.16666666666674,114.29296296296297,403.58333333333337,114.2887037037037,406.00000000000006,114.28444444444445C408.4166666666667,114.28018518518519,410.8333333333333,114.27592592592593,413.24999999999994,114.27166666666668C415.66666666666663,114.26740740740742,418.08333333333326,114.26314814814815,420.49999999999994,114.25888888888889C422.91666666666663,114.25462962962963,425.3333333333333,114.25037037037038,427.75,114.24611111111112C430.1666666666667,114.24185185185186,432.5833333333333,114.23759259259259,435,114.23333333333333C437.4166666666667,114.22907407407408,439.8333333333333,114.22481481481482,442.25,114.22055555555556C444.6666666666667,114.2162962962963,447.0833333333333,114.21203703703704,449.5,114.20777777777778C451.9166666666667,114.20351851851852,454.3333333333333,114.19925925925925,456.75,114.195C459.1666666666667,114.19074074074074,461.5833333333333,114.18648148148148,464,114.18222222222222C466.4166666666667,114.17796296296297,468.8333333333333,114.1737037037037,471.25,114.16944444444444C473.6666666666667,114.16518518518518,476.0833333333333,114.16092592592592,478.5,114.15666666666667C480.9166666666667,114.15240740740741,483.33333333333337,114.14814814814814,485.75000000000006,114.14388888888888C488.16666666666674,114.13962962962962,490.58333333333337,114.13537037037037,493.00000000000006,114.13111111111111C495.4166666666667,114.12685185185185,497.8333333333333,114.12259259259258,500.24999999999994,114.11833333333333C502.66666666666663,114.11407407407407,505.08333333333326,114.10981481481481,507.49999999999994,114.10555555555555C509.91666666666663,114.1012962962963,512.3333333333333,114.09703703703704,514.75,114.09277777777778C517.1666666666666,114.08851851851853,519.5833333333334,114.08425925925926,522,114.08C524.4166666666666,114.07574074074074,526.8333333333334,114.07148148148148,529.25,114.06722222222223C531.6666666666666,114.06296296296297,534.0833333333334,114.0587037037037,536.5,114.05444444444444C538.9166666666666,114.05018518518519,541.3333333333334,114.04592592592593,543.75,114.04166666666667C546.1666666666666,114.03740740740741,548.5833333333334,114.03314814814814,551,114.02888888888889C553.4166666666666,114.02462962962963,555.8333333333334,114.02037037037037,558.25,114.01611111111112C560.6666666666666,114.01185185185186,563.0833333333334,114.00759259259259,565.5,114.00333333333333C567.9166666666666,113.99907407407407,570.3333333333334,113.99481481481482,572.75,113.99055555555556C575.1666666666666,113.9862962962963,577.5833333333334,113.98203703703705,580,113.97777777777779C582.4166666666666,113.97351851851853,584.8333333333334,113.96925925925926,587.25,113.965C589.6666666666666,113.96074074074075,592.0833333333334,113.95648148148149,594.5,113.95222222222223C596.9166666666666,113.94796296296298,599.3333333333334,113.9437037037037,601.75,113.93944444444445C604.1666666666666,113.93518518518519,606.5833333333334,113.93092592592593,609,113.92666666666668C611.4166666666666,113.92240740740742,613.8333333333334,113.91814814814815,616.25,113.91388888888889C618.6666666666666,113.90962962962963,621.0833333333334,113.90537037037036,623.5,113.9011111111111C625.9166666666666,113.89685185185185,628.3333333333334,113.89259259259258,630.75,113.88833333333332C633.1666666666666,113.88407407407406,635.5833333333334,113.87981481481481,638,113.87555555555555C640.4166666666666,113.8712962962963,642.8333333333334,113.86703703703704,645.25,113.86277777777778C647.6666666666666,113.85851851851852,650.0833333333334,113.85425925925925,652.5,113.85C654.9166666666666,113.84574074074074,657.3333333333334,113.84148148148148,659.75,113.83722222222222C662.1666666666666,113.83296296296297,664.5833333333334,113.8287037037037,667,113.82444444444444C669.4166666666666,113.82018518518518,671.8333333333334,113.81592592592592,674.25,113.81166666666667C676.6666666666666,113.80740740740741,679.0833333333334,113.80314814814814,681.5,113.79888888888888C683.9166666666666,113.79462962962963,686.3333333333334,113.79037037037037,688.75,113.78611111111111C691.1666666666666,113.78185185185185,693.5833333333334,113.77759259259258,696,113.77333333333333C698.4166666666666,113.76907407407407,700.8333333333334,113.76481481481481,703.25,113.76055555555556C705.6666666666666,113.7562962962963,708.0833333333334,113.75203703703704,710.5,113.74777777777778C712.9166666666666,113.74351851851853,715.3333333333334,113.73925925925926,717.75,113.735C720.1666666666666,113.73074074074074,722.5833333333334,113.72648148148149,725,113.72222222222223C727.4166666666666,113.71796296296297,729.8333333333334,113.7137037037037,732.25,113.70944444444444C734.6666666666666,113.70518518518519,737.0833333333334,113.70092592592593,739.5,113.69666666666667C741.9166666666666,113.69240740740742,744.3333333333334,113.68814814814814,746.75,113.68388888888889C749.1666666666666,113.67962962962963,751.5833333333334,113.67537037037037,754,113.67111111111112C756.4166666666666,113.66685185185186,758.8333333333334,113.66259259259259,761.25,113.65833333333333C763.6666666666666,113.65407407407407,766.0833333333334,113.64981481481482,768.5,113.64555555555556C770.9166666666666,113.6412962962963,773.3333333333334,113.63703703703705,775.75,113.63277777777779C778.1666666666666,113.62851851851853,780.5833333333334,113.62425925925926,783,113.62C785.4166666666667,113.61574074074075,787.8333333333334,113.61148148148149,790.2500000000001,113.60722222222223C792.6666666666667,113.60296296296298,795.0833333333335,113.5987037037037,797.5000000000001,113.59444444444445C799.9166666666667,113.59018518518519,802.3333333333335,113.58592592592592,804.7500000000001,113.58166666666666C807.1666666666667,113.5774074074074,809.5833333333335,113.57314814814814,812.0000000000001,113.56888888888888C814.4166666666667,113.56462962962962,816.8333333333333,113.56037037037036,819.2499999999999,113.55611111111111C821.6666666666665,113.55185185185185,824.0833333333333,113.54759259259258,826.4999999999999,113.54333333333332C828.9166666666665,113.53907407407407,831.3333333333333,113.53481481481481,833.7499999999999,113.53055555555555C836.1666666666665,113.5262962962963,838.5833333333333,113.52203703703704,840.9999999999999,113.51777777777778C843.4166666666666,113.51351851851852,845.8333333333333,113.50925925925925,848.25,113.505C850.6666666666666,113.50074074074074,853.0833333333334,113.49648148148148,855.5,113.49222222222222C857.9166666666666,113.48796296296297,860.3333333333334,113.4837037037037,862.75,113.47944444444444C865.1666666666666,113.47518518518518,867.5833333333334,113.47092592592593,870,113.46666666666667C872.4166666666666,113.46240740740741,874.8333333333334,113.45814814814814,877.25,113.45388888888888C879.6666666666666,113.44962962962963,882.0833333333334,113.44537037037037,884.5,113.44111111111111C886.9166666666666,113.43685185185186,889.3333333333334,113.43259259259258,891.75,113.42833333333333C894.1666666666666,113.42407407407407,896.5833333333334,113.41981481481481,899,113.41555555555556C901.4166666666666,113.4112962962963,903.8333333333334,113.40703703703704,906.25,113.40277777777779C908.6666666666666,113.39851851851853,911.0833333333334,113.39425925925926,913.5,113.39C915.9166666666666,113.38574074074074,918.3333333333334,113.38148148148149,920.75,113.37722222222223C923.1666666666666,113.37296296296297,925.5833333333334,113.3687037037037,928,113.36444444444444C930.4166666666666,113.36018518518519,932.8333333333334,113.35592592592593,935.25,113.35166666666667C937.6666666666666,113.34740740740742,940.0833333333334,113.34314814814815,942.5,113.33888888888889C944.9166666666666,113.33462962962963,947.3333333333334,113.33037037037037,949.75,113.32611111111112C952.1666666666666,113.32185185185186,954.5833333333334,113.31759259259259,957,113.31333333333333C959.4166666666666,113.30907407407408,961.8333333333334,113.30481481481482,964.25,113.30055555555556C966.6666666666667,113.2962962962963,969.0833333333334,113.29203703703703,971.5000000000001,113.28777777777778C973.9166666666667,113.28351851851852,976.3333333333335,113.27925925925925,978.7500000000001,113.27499999999999C981.1666666666667,113.27074074074073,983.5833333333335,113.26648148148148,986.0000000000001,113.26222222222222C988.4166666666667,113.25796296296296,990.8333333333335,113.25370370370369,993.2500000000001,113.24944444444444C995.6666666666667,113.24518518518518,998.0833333333333,113.24092592592592,1000.4999999999999,113.23666666666666C1002.9166666666665,113.23240740740741,1005.3333333333333,113.22814814814814,1007.7499999999999,113.22388888888888C1010.1666666666665,113.21962962962962,1012.5833333333333,113.21537037037037,1014.9999999999999,113.21111111111111C1017.4166666666665,113.20685185185185,1019.8333333333333,113.20259259259258,1022.2499999999999,113.19833333333332C1024.6666666666665,113.19407407407407,1027.0833333333333,113.18981481481481,1029.5,113.18555555555555C1031.9166666666667,113.1812962962963,1034.3333333333333,113.17703703703704,1036.75,113.17277777777778C1039.1666666666667,113.16851851851852,1041.5833333333333,113.16425925925925,1044,113.16C1046.4166666666667,113.15574074074074,1048.8333333333333,113.15148148148148,1051.25,113.14722222222223C1053.6666666666667,113.14296296296297,1056.0833333333333,113.1387037037037,1058.5,113.13444444444444C1060.9166666666667,113.13018518518518,1063.3333333333333,113.12592592592593,1065.75,113.12166666666667C1068.1666666666667,113.11740740740741,1070.5833333333333,113.11314814814814,1073,113.10888888888888C1075.4166666666667,113.10462962962963,1077.8333333333333,113.10037037037037,1080.25,113.09611111111111C1082.6666666666667,113.09185185185186,1085.0833333333333,113.08759259259259,1087.5,113.08333333333333C1089.9166666666667,113.07907407407407,1092.3333333333333,113.07481481481481,1094.75,113.07055555555556C1097.1666666666667,113.0662962962963,1099.5833333333333,113.06203703703704,1102,113.05777777777779C1104.4166666666667,113.05351851851853,1106.8333333333333,113.04925925925926,1109.25,113.045C1111.6666666666667,113.04074074074074,1114.0833333333333,113.03648148148149,1116.5,113.03222222222223C1118.9166666666667,113.02796296296297,1121.3333333333333,113.0237037037037,1123.75,113.01944444444445C1126.1666666666667,113.01518518518519,1128.5833333333333,113.01092592592593,1131,113.00666666666667C1133.4166666666667,113.00240740740742,1135.8333333333333,112.99814814814815,1138.25,112.99388888888889C1140.6666666666667,112.98962962962963,1143.0833333333333,112.98537037037038,1145.5,112.98111111111112C1147.9166666666667,112.97685185185186,1150.3333333333333,112.97259259259259,1152.75,112.96833333333333C1155.1666666666667,112.96407407407408,1157.5833333333333,112.9598148148148,1160,112.95555555555555C1162.4166666666667,112.95129629629629,1164.8333333333333,112.94703703703703,1167.25,112.94277777777778C1169.6666666666667,112.93851851851852,1172.0833333333333,112.93425925925925,1174.5,112.92999999999999C1176.9166666666667,112.92574074074074,1179.3333333333333,112.92148148148148,1181.75,112.91722222222222C1184.1666666666667,112.91296296296296,1186.5833333333333,112.9087037037037,1189,112.90444444444444C1191.4166666666667,112.90018518518518,1193.8333333333333,112.89592592592592,1196.25,112.89166666666667C1198.6666666666667,112.88740740740741,1201.0833333333333,112.88314814814814,1203.5,112.87888888888888C1205.9166666666667,112.87462962962962,1208.3333333333333,112.87037037037037,1210.75,112.86611111111111C1213.1666666666667,112.86185185185185,1215.5833333333333,112.8575925925926,1218,112.85333333333334C1220.4166666666667,112.84907407407408,1222.8333333333333,112.84481481481481,1225.25,112.84055555555555C1227.6666666666667,112.8362962962963,1230.0833333333333,112.83203703703704,1232.5,112.82777777777778C1234.9166666666667,112.82351851851853,1237.3333333333333,112.81925925925925,1239.75,112.815C1242.1666666666667,112.81074074074074,1244.5833333333333,112.80648148148148,1247,112.80222222222223C1249.4166666666667,112.79796296296297,1251.8333333333333,112.7937037037037,1254.25,112.78944444444444C1256.6666666666667,112.78518518518518,1259.0833333333333,112.78092592592593,1261.5,112.77666666666667C1263.9166666666667,112.77240740740741,1266.3333333333333,112.76814814814814,1268.75,112.76388888888889C1271.1666666666667,112.75962962962963,1273.5833333333333,112.75537037037037,1276,112.75111111111111C1278.4166666666667,112.74685185185186,1280.8333333333333,112.74259259259259,1283.25,112.73833333333333C1285.6666666666667,112.73407407407407,1288.0833333333333,112.72981481481482,1290.5,112.72555555555556C1292.9166666666667,112.7212962962963,1295.3333333333333,112.71703703703704,1297.75,112.71277777777779C1300.1666666666667,112.70851851851853,1302.5833333333333,112.70851851851853,1305,112.7C1307.4166666666667,112.69148148148147,1309.8333333333333,109.41428571428571,1312.25,107.77142857142857C1314.6666666666667,106.12857142857143,1317.0833333333333,104.4857142857143,1319.5,102.84285714285716C1321.9166666666667,101.20000000000002,1324.3333333333333,99.55714285714285,1326.75,97.91428571428571C1329.1666666666667,96.27142857142857,1331.5833333333333,94.62857142857143,1334,92.9857142857143C1336.4166666666667,91.34285714285716,1338.8333333333333,89.69999999999999,1341.25,88.05714285714285C1343.6666666666667,86.41428571428571,1346.0833333333333,84.77142857142857,1348.5,83.12857142857143C1350.9166666666667,81.4857142857143,1353.3333333333333,79.84285714285713,1355.75,78.19999999999999C1358.1666666666667,76.55714285714285,1360.5833333333333,74.91428571428573,1363,73.27142857142859C1365.4166666666667,71.62857142857145,1367.8333333333333,69.9857142857143,1370.25,68.34285714285714C1372.6666666666667,66.69999999999999,1375.0833333333333,65.05714285714285,1377.5,63.41428571428571C1379.9166666666667,61.77142857142857,1382.3333333333333,60.12857142857143,1384.75,58.485714285714295C1387.1666666666667,56.842857142857156,1389.5833333333333,55.20000000000001,1392,53.557142857142864C1394.4166666666667,51.91428571428572,1396.8333333333333,50.27142857142857,1399.25,48.628571428571426C1401.6666666666667,46.98571428571428,1404.0833333333333,45.34285714285715,1406.5,43.7C1408.9166666666667,42.05714285714286,1411.3333333333333,40.41428571428571,1413.75,38.771428571428565C1416.1666666666667,37.12857142857142,1418.5833333333333,35.48571428571429,1421,33.84285714285714C1423.4166666666667,32.199999999999996,1425.8333333333333,30.557142857142846,1428.25,28.914285714285704C1430.6666666666667,27.27142857142856,1433.0833333333333,25.628571428571423,1435.5,23.98571428571428C1437.9166666666667,22.342857142857138,1440.3333333333333,20.7,1442.75,19.057142857142857C1445.1666666666667,17.414285714285715,1447.5833333333333,15.771428571428574,1450,14.128571428571432" fill="transparent" stroke-linecap="round" stroke="#B6509E" stroke-width="2"></path><path class="visx-linepath" d="M0,112.7C2.4166666666666665,112.7,4.833333333333334,112.7,7.25,112.7C9.666666666666666,112.7,12.083333333333334,112.7,14.5,112.7C16.916666666666668,112.7,19.333333333333332,112.7,21.75,112.7C24.166666666666668,112.7,26.583333333333332,112.7,29,112.7C31.416666666666668,112.7,33.833333333333336,112.7,36.25,112.7C38.666666666666664,112.7,41.083333333333336,112.7,43.5,112.7C45.91666666666667,112.7,48.333333333333336,112.7,50.75000000000001,112.7C53.16666666666667,112.7,55.583333333333336,112.7,58,112.7C60.416666666666664,112.7,62.833333333333336,112.7,65.25,112.7C67.66666666666667,112.7,70.08333333333333,112.7,72.5,112.7C74.91666666666667,112.7,77.33333333333333,112.7,79.75,112.7C82.16666666666667,112.7,84.58333333333333,112.7,87,112.7C89.41666666666667,112.7,91.83333333333333,112.7,94.25,112.7C96.66666666666667,112.7,99.08333333333334,112.7,101.50000000000001,112.7C103.91666666666667,112.7,106.33333333333334,112.7,108.75,112.7C111.16666666666667,112.7,113.58333333333333,112.7,116,112.7C118.41666666666667,112.7,120.83333333333334,112.7,123.25000000000001,112.7C125.66666666666667,112.7,128.08333333333334,112.7,130.5,112.7C132.91666666666666,112.7,135.33333333333334,112.7,137.75,112.7C140.16666666666666,112.7,142.58333333333334,112.7,145,112.7C147.41666666666666,112.7,149.83333333333334,112.7,152.25,112.7C154.66666666666666,112.7,157.08333333333334,112.7,159.5,112.7C161.91666666666666,112.7,164.33333333333334,112.7,166.75,112.7C169.16666666666666,112.7,171.58333333333334,112.7,174,112.7C176.41666666666666,112.7,178.83333333333334,112.7,181.25,112.7C183.66666666666666,112.7,186.08333333333334,112.7,188.5,112.7C190.91666666666666,112.7,193.33333333333334,112.7,195.75,112.7C198.16666666666669,112.7,200.58333333333334,112.7,203.00000000000003,112.7C205.41666666666669,112.7,207.83333333333331,112.7,210.24999999999997,112.7C212.66666666666666,112.7,215.08333333333331,112.7,217.5,112.7C219.91666666666666,112.7,222.33333333333334,112.7,224.75,112.7C227.16666666666666,112.7,229.58333333333334,112.7,232,112.7C234.41666666666666,112.7,236.83333333333334,112.7,239.25,112.7C241.66666666666669,112.7,244.08333333333334,112.7,246.50000000000003,112.7C248.91666666666669,112.7,251.33333333333331,112.7,253.74999999999997,112.7C256.16666666666663,112.7,258.5833333333333,112.7,261,112.7C263.4166666666667,112.7,265.8333333333333,112.7,268.25,112.7C270.6666666666667,112.7,273.0833333333333,112.7,275.5,112.7C277.9166666666667,112.7,280.3333333333333,112.7,282.75,112.7C285.1666666666667,112.7,287.5833333333333,112.7,290,112.7C292.4166666666667,112.7,294.8333333333333,112.7,297.25,112.7C299.6666666666667,112.7,302.0833333333333,112.7,304.5,112.7C306.9166666666667,112.7,309.3333333333333,112.7,311.75,112.7C314.1666666666667,112.7,316.5833333333333,112.7,319,112.7C321.4166666666667,112.7,323.8333333333333,112.7,326.25,112.7C328.6666666666667,112.7,331.0833333333333,112.7,333.5,112.7C335.9166666666667,112.7,338.3333333333333,112.7,340.75,112.7C343.1666666666667,112.7,345.5833333333333,112.7,348,112.7C350.4166666666667,112.7,352.8333333333333,112.7,355.25,112.7C357.6666666666667,112.7,360.0833333333333,112.7,362.5,112.7C364.9166666666667,112.7,367.3333333333333,112.7,369.75,112.7C372.1666666666667,112.7,374.5833333333333,112.7,377,112.7C379.4166666666667,112.7,381.8333333333333,112.7,384.25,112.7C386.6666666666667,112.7,389.0833333333333,112.7,391.5,112.7C393.9166666666667,112.7,396.33333333333337,112.7,398.75000000000006,112.7C401.16666666666674,112.7,403.58333333333337,112.7,406.00000000000006,112.7C408.4166666666667,112.7,410.8333333333333,112.7,413.24999999999994,112.7C415.66666666666663,112.7,418.08333333333326,112.7,420.49999999999994,112.7C422.91666666666663,112.7,425.3333333333333,112.7,427.75,112.7C430.1666666666667,112.7,432.5833333333333,112.7,435,112.7C437.4166666666667,112.7,439.8333333333333,112.7,442.25,112.7C444.6666666666667,112.7,447.0833333333333,112.7,449.5,112.7C451.9166666666667,112.7,454.3333333333333,112.7,456.75,112.7C459.1666666666667,112.7,461.5833333333333,112.7,464,112.7C466.4166666666667,112.7,468.8333333333333,112.7,471.25,112.7C473.6666666666667,112.7,476.0833333333333,112.7,478.5,112.7C480.9166666666667,112.7,483.33333333333337,112.7,485.75000000000006,112.7C488.16666666666674,112.7,490.58333333333337,112.7,493.00000000000006,112.7C495.4166666666667,112.7,497.8333333333333,112.7,500.24999999999994,112.7C502.66666666666663,112.7,505.08333333333326,112.7,507.49999999999994,112.7C509.91666666666663,112.7,512.3333333333333,112.7,514.75,112.7C517.1666666666666,112.7,519.5833333333334,112.7,522,112.7C524.4166666666666,112.7,526.8333333333334,112.7,529.25,112.7C531.6666666666666,112.7,534.0833333333334,112.7,536.5,112.7C538.9166666666666,112.7,541.3333333333334,112.7,543.75,112.7C546.1666666666666,112.7,548.5833333333334,112.7,551,112.7C553.4166666666666,112.7,555.8333333333334,112.7,558.25,112.7C560.6666666666666,112.7,563.0833333333334,112.7,565.5,112.7C567.9166666666666,112.7,570.3333333333334,112.7,572.75,112.7C575.1666666666666,112.7,577.5833333333334,112.7,580,112.7C582.4166666666666,112.7,584.8333333333334,112.7,587.25,112.7C589.6666666666666,112.7,592.0833333333334,112.7,594.5,112.7C596.9166666666666,112.7,599.3333333333334,112.7,601.75,112.7C604.1666666666666,112.7,606.5833333333334,112.7,609,112.7C611.4166666666666,112.7,613.8333333333334,112.7,616.25,112.7C618.6666666666666,112.7,621.0833333333334,112.7,623.5,112.7C625.9166666666666,112.7,628.3333333333334,112.7,630.75,112.7C633.1666666666666,112.7,635.5833333333334,112.7,638,112.7C640.4166666666666,112.7,642.8333333333334,112.7,645.25,112.7C647.6666666666666,112.7,650.0833333333334,112.7,652.5,112.7C654.9166666666666,112.7,657.3333333333334,112.7,659.75,112.7C662.1666666666666,112.7,664.5833333333334,112.7,667,112.7C669.4166666666666,112.7,671.8333333333334,112.7,674.25,112.7C676.6666666666666,112.7,679.0833333333334,112.7,681.5,112.7C683.9166666666666,112.7,686.3333333333334,112.7,688.75,112.7C691.1666666666666,112.7,693.5833333333334,112.7,696,112.7C698.4166666666666,112.7,700.8333333333334,112.7,703.25,112.7C705.6666666666666,112.7,708.0833333333334,112.7,710.5,112.7C712.9166666666666,112.7,715.3333333333334,112.7,717.75,112.7C720.1666666666666,112.7,722.5833333333334,112.7,725,112.7C727.4166666666666,112.7,729.8333333333334,112.7,732.25,112.7C734.6666666666666,112.7,737.0833333333334,112.7,739.5,112.7C741.9166666666666,112.7,744.3333333333334,112.7,746.75,112.7C749.1666666666666,112.7,751.5833333333334,112.7,754,112.7C756.4166666666666,112.7,758.8333333333334,112.7,761.25,112.7C763.6666666666666,112.7,766.0833333333334,112.7,768.5,112.7C770.9166666666666,112.7,773.3333333333334,112.7,775.75,112.7C778.1666666666666,112.7,780.5833333333334,112.7,783,112.7C785.4166666666667,112.7,787.8333333333334,112.7,790.2500000000001,112.7C792.6666666666667,112.7,795.0833333333335,112.7,797.5000000000001,112.7C799.9166666666667,112.7,802.3333333333335,112.7,804.7500000000001,112.7C807.1666666666667,112.7,809.5833333333335,112.7,812.0000000000001,112.7C814.4166666666667,112.7,816.8333333333333,112.7,819.2499999999999,112.7C821.6666666666665,112.7,824.0833333333333,112.7,826.4999999999999,112.7C828.9166666666665,112.7,831.3333333333333,112.7,833.7499999999999,112.7C836.1666666666665,112.7,838.5833333333333,112.7,840.9999999999999,112.7C843.4166666666666,112.7,845.8333333333333,112.7,848.25,112.7C850.6666666666666,112.7,853.0833333333334,112.7,855.5,112.7C857.9166666666666,112.7,860.3333333333334,112.7,862.75,112.7C865.1666666666666,112.7,867.5833333333334,112.7,870,112.7C872.4166666666666,112.7,874.8333333333334,112.7,877.25,112.7C879.6666666666666,112.7,882.0833333333334,112.7,884.5,112.7C886.9166666666666,112.7,889.3333333333334,112.7,891.75,112.7C894.1666666666666,112.7,896.5833333333334,112.7,899,112.7C901.4166666666666,112.7,903.8333333333334,112.7,906.25,112.7C908.6666666666666,112.7,911.0833333333334,112.7,913.5,112.7C915.9166666666666,112.7,918.3333333333334,112.7,920.75,112.7C923.1666666666666,112.7,925.5833333333334,112.7,928,112.7C930.4166666666666,112.7,932.8333333333334,112.7,935.25,112.7C937.6666666666666,112.7,940.0833333333334,112.7,942.5,112.7C944.9166666666666,112.7,947.3333333333334,112.7,949.75,112.7C952.1666666666666,112.7,954.5833333333334,112.7,957,112.7C959.4166666666666,112.7,961.8333333333334,112.7,964.25,112.7C966.6666666666667,112.7,969.0833333333334,112.7,971.5000000000001,112.7C973.9166666666667,112.7,976.3333333333335,112.7,978.7500000000001,112.7C981.1666666666667,112.7,983.5833333333335,112.7,986.0000000000001,112.7C988.4166666666667,112.7,990.8333333333335,112.7,993.2500000000001,112.7C995.6666666666667,112.7,998.0833333333333,112.7,1000.4999999999999,112.7C1002.9166666666665,112.7,1005.3333333333333,112.7,1007.7499999999999,112.7C1010.1666666666665,112.7,1012.5833333333333,112.7,1014.9999999999999,112.7C1017.4166666666665,112.7,1019.8333333333333,112.7,1022.2499999999999,112.7C1024.6666666666665,112.7,1027.0833333333333,112.7,1029.5,112.7C1031.9166666666667,112.7,1034.3333333333333,112.7,1036.75,112.7C1039.1666666666667,112.7,1041.5833333333333,112.7,1044,112.7C1046.4166666666667,112.7,1048.8333333333333,112.7,1051.25,112.7C1053.6666666666667,112.7,1056.0833333333333,112.7,1058.5,112.7C1060.9166666666667,112.7,1063.3333333333333,112.7,1065.75,112.7C1068.1666666666667,112.7,1070.5833333333333,112.7,1073,112.7C1075.4166666666667,112.7,1077.8333333333333,112.7,1080.25,112.7C1082.6666666666667,112.7,1085.0833333333333,112.7,1087.5,112.7C1089.9166666666667,112.7,1092.3333333333333,112.7,1094.75,112.7C1097.1666666666667,112.7,1099.5833333333333,112.7,1102,112.7C1104.4166666666667,112.7,1106.8333333333333,112.7,1109.25,112.7C1111.6666666666667,112.7,1114.0833333333333,112.7,1116.5,112.7C1118.9166666666667,112.7,1121.3333333333333,112.7,1123.75,112.7C1126.1666666666667,112.7,1128.5833333333333,112.7,1131,112.7C1133.4166666666667,112.7,1135.8333333333333,112.7,1138.25,112.7C1140.6666666666667,112.7,1143.0833333333333,112.7,1145.5,112.7C1147.9166666666667,112.7,1150.3333333333333,112.7,1152.75,112.7C1155.1666666666667,112.7,1157.5833333333333,112.7,1160,112.7C1162.4166666666667,112.7,1164.8333333333333,112.7,1167.25,112.7C1169.6666666666667,112.7,1172.0833333333333,112.7,1174.5,112.7C1176.9166666666667,112.7,1179.3333333333333,112.7,1181.75,112.7C1184.1666666666667,112.7,1186.5833333333333,112.7,1189,112.7C1191.4166666666667,112.7,1193.8333333333333,112.7,1196.25,112.7C1198.6666666666667,112.7,1201.0833333333333,112.7,1203.5,112.7C1205.9166666666667,112.7,1208.3333333333333,112.7,1210.75,112.7C1213.1666666666667,112.7,1215.5833333333333,112.7,1218,112.7C1220.4166666666667,112.7,1222.8333333333333,112.7,1225.25,112.7C1227.6666666666667,112.7,1230.0833333333333,112.7,1232.5,112.7C1234.9166666666667,112.7,1237.3333333333333,112.7,1239.75,112.7C1242.1666666666667,112.7,1244.5833333333333,112.7,1247,112.7C1249.4166666666667,112.7,1251.8333333333333,112.7,1254.25,112.7C1256.6666666666667,112.7,1259.0833333333333,112.7,1261.5,112.7C1263.9166666666667,112.7,1266.3333333333333,112.7,1268.75,112.7C1271.1666666666667,112.7,1273.5833333333333,112.7,1276,112.7C1278.4166666666667,112.7,1280.8333333333333,112.7,1283.25,112.7C1285.6666666666667,112.7,1288.0833333333333,112.7,1290.5,112.7C1292.9166666666667,112.7,1295.3333333333333,112.7,1297.75,112.7C1300.1666666666667,112.7,1302.5833333333333,112.7,1305,112.7C1307.4166666666667,112.7,1309.8333333333333,112.7,1312.25,112.7C1314.6666666666667,112.7,1317.0833333333333,112.7,1319.5,112.7C1321.9166666666667,112.7,1324.3333333333333,112.7,1326.75,112.7C1329.1666666666667,112.7,1331.5833333333333,112.7,1334,112.7C1336.4166666666667,112.7,1338.8333333333333,112.7,1341.25,112.7C1343.6666666666667,112.7,1346.0833333333333,112.7,1348.5,112.7C1350.9166666666667,112.7,1353.3333333333333,112.7,1355.75,112.7C1358.1666666666667,112.7,1360.5833333333333,112.7,1363,112.7C1365.4166666666667,112.7,1367.8333333333333,112.7,1370.25,112.7C1372.6666666666667,112.7,1375.0833333333333,112.7,1377.5,112.7C1379.9166666666667,112.7,1382.3333333333333,112.7,1384.75,112.7C1387.1666666666667,112.7,1389.5833333333333,112.7,1392,112.7C1394.4166666666667,112.7,1396.8333333333333,112.7,1399.25,112.7C1401.6666666666667,112.7,1404.0833333333333,112.7,1406.5,112.7C1408.9166666666667,112.7,1411.3333333333333,112.7,1413.75,112.7C1416.1666666666667,112.7,1418.5833333333333,112.7,1421,112.7C1423.4166666666667,112.7,1425.8333333333333,112.7,1428.25,112.7C1430.6666666666667,112.7,1433.0833333333333,112.7,1435.5,112.7C1437.9166666666667,112.7,1440.3333333333333,112.7,1442.75,112.7C1445.1666666666667,112.7,1447.5833333333333,112.7,1450,112.7" fill="transparent" stroke-linecap="round" stroke="#E7C6DF" stroke-width="2"></path><g class="visx-group visx-axis visx-axis-bottom" transform="translate(0, 115)"><g class="visx-group visx-axis-tick" transform="translate(0, 0)"><line class="visx-line" x1="0" y1="0" x2="0" y2="8" fill="transparent" shape-rendering="crispEdges" stroke="#000" stroke-width="0" stroke-linecap="square"></line><svg x="0" y="0" font-size="10" style="overflow:visible"><text transform="" x="0" y="18" fill="#000" font-size="10" text-anchor="middle"><tspan x="0" dy="0em">0%</tspan></text></svg></g><g class="visx-group visx-axis-tick" transform="translate(0, 0)"><line class="visx-line" x1="362.5" y1="0" x2="362.5" y2="8" fill="transparent" shape-rendering="crispEdges" stroke="#000" stroke-width="0" stroke-linecap="square"></line><svg x="0" y="0" font-size="10" style="overflow:visible"><text transform="" x="362.5" y="18" fill="#000" font-size="10" text-anchor="middle"><tspan x="362.5" dy="0em">25%</tspan></text></svg></g><g class="visx-group visx-axis-tick" transform="translate(0, 0)"><line class="visx-line" x1="725" y1="0" x2="725" y2="8" fill="transparent" shape-rendering="crispEdges" stroke="#000" stroke-width="0" stroke-linecap="square"></line><svg x="0" y="0" font-size="10" style="overflow:visible"><text transform="" x="725" y="18" fill="#000" font-size="10" text-anchor="middle"><tspan x="725" dy="0em">50%</tspan></text></svg></g><g class="visx-group visx-axis-tick" transform="translate(0, 0)"><line class="visx-line" x1="1087.5" y1="0" x2="1087.5" y2="8" fill="transparent" shape-rendering="crispEdges" stroke="#000" stroke-width="0" stroke-linecap="square"></line><svg x="0" y="0" font-size="10" style="overflow:visible"><text transform="" x="1087.5" y="18" fill="#000" font-size="10" text-anchor="middle"><tspan x="1087.5" dy="0em">75%</tspan></text></svg></g><g class="visx-group visx-axis-tick" transform="translate(0, 0)"><line class="visx-line" x1="1450" y1="0" x2="1450" y2="8" fill="transparent" shape-rendering="crispEdges" stroke="#000" stroke-width="0" stroke-linecap="square"></line><svg x="0" y="0" font-size="10" style="overflow:visible"><text transform="" x="1450" y="18" fill="#000" font-size="10" text-anchor="middle"><tspan x="1450" dy="0em">100%</tspan></text></svg></g><line class="visx-line visx-axis-line" x1="0.5" y1="0" x2="1450.5" y2="0" fill="transparent" shape-rendering="crispEdges" stroke="#222" stroke-width="0"></line></g><g class="visx-group visx-axis visx-axis-left" transform="translate(0, 0)"><g class="visx-group visx-axis-tick" transform="translate(0, 0)"><line class="visx-line" x1="0" y1="115" x2="-8" y2="115" fill="transparent" shape-rendering="crispEdges" stroke="#222" stroke-width="0" stroke-linecap="square"></line><svg x="-30" y="0" font-size="8" style="overflow:visible"><text transform="" x="-8" y="115" fill="#000" font-size="8" text-anchor="start"><tspan x="-8" dy="0em">0%</tspan></text></svg></g><g class="visx-group visx-axis-tick" transform="translate(0, 0)"><line class="visx-line" x1="0" y1="73.92857142857142" x2="-8" y2="73.92857142857142" fill="transparent" shape-rendering="crispEdges" stroke="#222" stroke-width="0" stroke-linecap="square"></line><svg x="-30" y="0" font-size="8" style="overflow:visible"><text transform="" x="-8" y="73.92857142857142" fill="#000" font-size="8" text-anchor="start"><tspan x="-8" dy="0em">50%</tspan></text></svg></g><g class="visx-group visx-axis-tick" transform="translate(0, 0)"><line class="visx-line" x1="0" y1="32.857142857142854" x2="-8" y2="32.857142857142854" fill="transparent" shape-rendering="crispEdges" stroke="#222" stroke-width="0" stroke-linecap="square"></line><svg x="-30" y="0" font-size="8" style="overflow:visible"><text transform="" x="-8" y="32.857142857142854" fill="#000" font-size="8" text-anchor="start"><tspan x="-8" dy="0em">100%</tspan></text></svg></g><line class="visx-line visx-axis-line" x1="0" y1="115.5" x2="0" y2="0.5" fill="transparent" shape-rendering="crispEdges" stroke="#222" stroke-width="0"></line></g><rect class="visx-bar" width="1450" height="115" fill="transparent"></rect><line class="visx-line" x1="1305" y1="28" x2="1305" y2="115" fill="transparent" shape-rendering="crispEdges" stroke="#0062D2" stroke-width="1" pointer-events="none" stroke-dasharray="5,2"></line><svg x="0" y="0" font-size="10px" style="overflow:visible"><text transform="" x="1305" y="20" font-size="10px" fill="#fff" stroke="#fff" stroke-width="0.8em" text-anchor="middle"><tspan x="1305" dy="0.355em">Optimal 90%</tspan></text></svg><svg x="0" y="0" font-size="10px" style="overflow:visible"><text transform="" x="1305" y="20" font-size="10px" fill="#62677B" text-anchor="middle"><tspan x="1305" dy="0.355em">Optimal 90%</tspan></text></svg></g></svg>