<?xml version="1.0"?><svg xmlns="http://www.w3.org/2000/svg" xmlns:xlink= "http://www.w3.org/1999/xlink" style="background: white;" width="1500" height="185"> <g style="color: black; font-size: 13px; font-family: sans-serif; transform: translate(18px, 25px);"><g><circle r="3" cx="-6" cy="-5" style="fill: #B6509E" /><text>Borrow APR, variable</text></g><g style="transform: translateX(150px);"><circle r="3" cx="-6" cy="-5" style="fill: rgb(231, 198, 223)" /><text>Borrow APR, stable</text></g><g style="transform: translateX(290px);"><circle r="3" cx="-6" cy="-5" style="fill: rgb(0, 98, 210)" /><text>Utilization Rate</text></g></g><g class="visx-group" transform="translate(40, 50)"><g class="visx-group visx-rows" transform="translate(0, 0)"><line class="visx-line" x1="0" y1="115" x2="1450" y2="115" fill="transparent" shape-rendering="crispEdges" stroke="#000" stroke-width="1" stroke-dasharray="3,3" pointer-events="none"></line><line class="visx-line" x1="0" y1="57.5" x2="1450" y2="57.5" fill="transparent" shape-rendering="crispEdges" stroke="#000" stroke-width="1" stroke-dasharray="3,3" pointer-events="none"></line><line class="visx-line" x1="0" y1="0" x2="1450" y2="0" fill="transparent" shape-rendering="crispEdges" stroke="#000" stroke-width="1" stroke-dasharray="3,3" pointer-events="none"></line></g><path class="visx-linepath" d="M0,113.84999999996423C2.4166666666666665,113.84403703701616,4.833333333333334,113.8380740740681,7.25,113.8321111111111C9.666666666666666,113.8261481481541,12.083333333333334,113.82018518518518,14.5,113.81422222222221C16.916666666666668,113.80825925925924,19.333333333333332,113.8022962962963,21.75,113.79633333333334C24.166666666666668,113.79037037037037,26.583333333333332,113.78440740740741,29,113.77844444444445C31.416666666666668,113.77248148148148,33.833333333333336,113.76651851851852,36.25,113.76055555555556C38.666666666666664,113.75459259259259,41.083333333333336,113.74862962962963,43.5,113.74266666666666C45.91666666666667,113.7367037037037,48.333333333333336,113.73074074074074,50.75000000000001,113.72477777777777C53.16666666666667,113.71881481481482,55.583333333333336,113.71285185185185,58,113.7068888888889C60.416666666666664,113.70092592592593,62.833333333333336,113.69496296296298,65.25,113.68900000000001C67.66666666666667,113.68303703703704,70.08333333333333,113.67707407407408,72.5,113.67111111111112C74.91666666666667,113.66514814814815,77.33333333333333,113.6591851851852,79.75,113.65322222222223C82.16666666666667,113.64725925925926,84.58333333333333,113.6412962962963,87,113.63533333333334C89.41666666666667,113.62937037037037,91.83333333333333,113.62340740740741,94.25,113.61744444444444C96.66666666666667,113.61148148148148,99.08333333333334,113.60551851851852,101.50000000000001,113.59955555555555C103.91666666666667,113.59359259259259,106.33333333333334,113.58762962962963,108.75,113.58166666666666C111.16666666666667,113.5757037037037,113.58333333333333,113.56974074074074,116,113.56377777777777C118.41666666666667,113.5578148148148,120.83333333333334,113.55185185185185,123.25000000000001,113.54588888888888C125.66666666666667,113.53992592592591,128.08333333333334,113.53396296296296,130.5,113.52799999999999C132.91666666666666,113.52203703703702,135.33333333333334,113.51607407407406,137.75,113.5101111111111C140.16666666666666,113.50414814814815,142.58333333333334,113.49818518518518,145,113.49222222222222C147.41666666666666,113.48625925925927,149.83333333333334,113.4802962962963,152.25,113.47433333333333C154.66666666666666,113.46837037037037,157.08333333333334,113.46240740740741,159.5,113.45644444444444C161.91666666666666,113.45048148148148,164.33333333333334,113.44451851851852,166.75,113.43855555555555C169.16666666666666,113.43259259259258,171.58333333333334,113.42662962962962,174,113.42066666666666C176.41666666666666,113.41470370370371,178.83333333333334,113.40874074074074,181.25,113.40277777777779C183.66666666666666,113.39681481481483,186.08333333333334,113.39085185185186,188.5,113.3848888888889C190.91666666666666,113.37892592592593,193.33333333333334,113.37296296296297,195.75,113.367C198.16666666666669,113.36103703703704,200.58333333333334,113.35507407407408,203.00000000000003,113.34911111111111C205.41666666666669,113.34314814814815,207.83333333333331,113.33718518518519,210.24999999999997,113.33122222222222C212.66666666666666,113.32525925925925,215.08333333333331,113.3192962962963,217.5,113.31333333333333C219.91666666666666,113.30737037037038,222.33333333333334,113.30140740740742,224.75,113.29544444444446C227.16666666666666,113.28948148148149,229.58333333333334,113.28351851851852,232,113.27755555555555C234.41666666666666,113.27159259259258,236.83333333333334,113.26562962962963,239.25,113.25966666666666C241.66666666666669,113.25370370370369,244.08333333333334,113.24774074074074,246.50000000000003,113.24177777777777C248.91666666666669,113.2358148148148,251.33333333333331,113.22985185185183,253.74999999999997,113.22388888888888C256.16666666666663,113.21792592592591,258.5833333333333,113.21196296296297,261,113.206C263.4166666666667,113.20003703703705,265.8333333333333,113.19407407407408,268.25,113.18811111111111C270.6666666666667,113.18214814814814,273.0833333333333,113.17618518518519,275.5,113.17022222222222C277.9166666666667,113.16425925925925,280.3333333333333,113.1582962962963,282.75,113.15233333333333C285.1666666666667,113.14637037037036,287.5833333333333,113.14040740740741,290,113.13444444444444C292.4166666666667,113.12848148148147,294.8333333333333,113.12251851851852,297.25,113.11655555555555C299.6666666666667,113.11059259259258,302.0833333333333,113.10462962962964,304.5,113.09866666666667C306.9166666666667,113.0927037037037,309.3333333333333,113.08674074074075,311.75,113.08077777777778C314.1666666666667,113.07481481481481,316.5833333333333,113.06885185185186,319,113.06288888888889C321.4166666666667,113.05692592592592,323.8333333333333,113.05096296296297,326.25,113.045C328.6666666666667,113.03903703703703,331.0833333333333,113.03307407407408,333.5,113.02711111111111C335.9166666666667,113.02114814814814,338.3333333333333,113.0151851851852,340.75,113.00922222222223C343.1666666666667,113.00325925925927,345.5833333333333,112.99729629629631,348,112.99133333333334C350.4166666666667,112.98537037037038,352.8333333333333,112.97940740740742,355.25,112.97344444444445C357.6666666666667,112.96748148148149,360.0833333333333,112.96151851851852,362.5,112.95555555555555C364.9166666666667,112.94959259259258,367.3333333333333,112.94362962962963,369.75,112.93766666666666C372.1666666666667,112.93170370370369,374.5833333333333,112.92574074074074,377,112.91977777777777C379.4166666666667,112.9138148148148,381.8333333333333,112.90785185185186,384.25,112.90188888888889C386.6666666666667,112.89592592592592,389.0833333333333,112.88996296296297,391.5,112.884C393.9166666666667,112.87803703703703,396.33333333333337,112.87207407407408,398.75000000000006,112.86611111111111C401.16666666666674,112.86014814814814,403.58333333333337,112.85418518518519,406.00000000000006,112.84822222222222C408.4166666666667,112.84225925925925,410.8333333333333,112.8362962962963,413.24999999999994,112.83033333333333C415.66666666666663,112.82437037037036,418.08333333333326,112.81840740740739,420.49999999999994,112.81244444444444C422.91666666666663,112.80648148148147,425.3333333333333,112.80051851851853,427.75,112.79455555555556C430.1666666666667,112.78859259259261,432.5833333333333,112.78262962962964,435,112.77666666666667C437.4166666666667,112.7707037037037,439.8333333333333,112.76474074074075,442.25,112.75877777777778C444.6666666666667,112.75281481481481,447.0833333333333,112.74685185185186,449.5,112.74088888888889C451.9166666666667,112.73492592592592,454.3333333333333,112.72896296296295,456.75,112.723C459.1666666666667,112.71703703703704,461.5833333333333,112.71107407407408,464,112.70511111111112C466.4166666666667,112.69914814814817,468.8333333333333,112.6931851851852,471.25,112.68722222222223C473.6666666666667,112.68125925925926,476.0833333333333,112.67529629629631,478.5,112.66933333333334C480.9166666666667,112.66337037037037,483.33333333333337,112.6574074074074,485.75000000000006,112.65144444444444C488.16666666666674,112.64548148148147,490.58333333333337,112.63951851851851,493.00000000000006,112.63355555555555C495.4166666666667,112.62759259259258,497.8333333333333,112.62162962962961,500.24999999999994,112.61566666666666C502.66666666666663,112.60970370370369,505.08333333333326,112.60374074074073,507.49999999999994,112.59777777777778C509.91666666666663,112.59181481481481,512.3333333333333,112.58585185185186,514.75,112.57988888888889C517.1666666666666,112.57392592592592,519.5833333333334,112.56796296296297,522,112.562C524.4166666666666,112.55603703703703,526.8333333333334,112.55007407407408,529.25,112.5441111111111C531.6666666666666,112.53814814814814,534.0833333333334,112.53218518518518,536.5,112.52622222222222C538.9166666666666,112.52025925925925,541.3333333333334,112.5142962962963,543.75,112.50833333333333C546.1666666666666,112.50237037037036,548.5833333333334,112.49640740740742,551,112.49044444444445C553.4166666666666,112.48448148148148,555.8333333333334,112.47851851851853,558.25,112.47255555555556C560.6666666666666,112.46659259259259,563.0833333333334,112.46062962962964,565.5,112.45466666666667C567.9166666666666,112.4487037037037,570.3333333333334,112.44274074074075,572.75,112.43677777777778C575.1666666666666,112.43081481481481,577.5833333333334,112.42485185185186,580,112.41888888888889C582.4166666666666,112.41292592592592,584.8333333333334,112.40696296296298,587.25,112.40100000000001C589.6666666666666,112.39503703703704,592.0833333333334,112.38907407407409,594.5,112.38311111111112C596.9166666666666,112.37714814814815,599.3333333333334,112.3711851851852,601.75,112.36522222222223C604.1666666666666,112.35925925925926,606.5833333333334,112.3532962962963,609,112.34733333333334C611.4166666666666,112.34137037037037,613.8333333333334,112.3354074074074,616.25,112.32944444444443C618.6666666666666,112.32348148148147,621.0833333333334,112.31751851851851,623.5,112.31155555555554C625.9166666666666,112.30559259259257,628.3333333333334,112.29962962962964,630.75,112.29366666666667C633.1666666666666,112.2877037037037,635.5833333333334,112.28174074074074,638,112.27577777777778C640.4166666666666,112.26981481481481,642.8333333333334,112.26385185185185,645.25,112.25788888888889C647.6666666666666,112.25192592592592,650.0833333333334,112.24596296296296,652.5,112.24C654.9166666666666,112.23403703703703,657.3333333333334,112.22807407407407,659.75,112.2221111111111C662.1666666666666,112.21614814814814,664.5833333333334,112.2101851851852,667,112.20422222222223C669.4166666666666,112.19825925925926,671.8333333333334,112.1922962962963,674.25,112.18633333333334C676.6666666666666,112.18037037037037,679.0833333333334,112.17440740740741,681.5,112.16844444444445C683.9166666666666,112.16248148148148,686.3333333333334,112.15651851851852,688.75,112.15055555555556C691.1666666666666,112.14459259259259,693.5833333333334,112.13862962962963,696,112.13266666666667C698.4166666666666,112.1267037037037,700.8333333333334,112.12074074074073,703.25,112.11477777777777C705.6666666666666,112.10881481481482,708.0833333333334,112.10285185185185,710.5,112.0968888888889C712.9166666666666,112.09092592592594,715.3333333333334,112.08496296296298,717.75,112.07900000000001C720.1666666666666,112.07303703703704,722.5833333333334,112.06707407407409,725,112.06111111111112C727.4166666666666,112.05514814814815,729.8333333333334,112.0491851851852,732.25,112.04322222222223C734.6666666666666,112.03725925925926,737.0833333333334,112.0312962962963,739.5,112.02533333333334C741.9166666666666,112.01937037037037,744.3333333333334,112.01340740740741,746.75,112.00744444444445C749.1666666666666,112.00148148148148,751.5833333333334,111.99551851851852,754,111.98955555555555C756.4166666666666,111.98359259259259,758.8333333333334,111.97762962962963,761.25,111.97166666666666C763.6666666666666,111.9657037037037,766.0833333333334,111.95974074074074,768.5,111.95377777777777C770.9166666666666,111.9478148148148,773.3333333333334,111.94185185185185,775.75,111.93588888888888C778.1666666666666,111.92992592592591,780.5833333333334,111.92396296296295,783,111.91799999999999C785.4166666666667,111.91203703703702,787.8333333333334,111.90607407407408,790.2500000000001,111.90011111111112C792.6666666666667,111.89414814814816,795.0833333333335,111.8881851851852,797.5000000000001,111.88222222222223C799.9166666666667,111.87625925925926,802.3333333333335,111.8702962962963,804.7500000000001,111.86433333333333C807.1666666666667,111.85837037037037,809.5833333333335,111.85240740740741,812.0000000000001,111.84644444444444C814.4166666666667,111.84048148148148,816.8333333333333,111.83451851851852,819.2499999999999,111.82855555555555C821.6666666666665,111.82259259259258,824.0833333333333,111.81662962962963,826.4999999999999,111.81066666666666C828.9166666666665,111.8047037037037,831.3333333333333,111.79874074074075,833.7499999999999,111.79277777777779C836.1666666666665,111.78681481481482,838.5833333333333,111.78085185185186,840.9999999999999,111.7748888888889C843.4166666666666,111.76892592592593,845.8333333333333,111.76296296296297,848.25,111.757C850.6666666666666,111.75103703703704,853.0833333333334,111.74507407407408,855.5,111.73911111111111C857.9166666666666,111.73314814814815,860.3333333333334,111.72718518518519,862.75,111.72122222222222C865.1666666666666,111.71525925925926,867.5833333333334,111.7092962962963,870,111.70333333333333C872.4166666666666,111.69737037037036,874.8333333333334,111.69140740740741,877.25,111.68544444444444C879.6666666666666,111.67948148148147,882.0833333333334,111.67351851851852,884.5,111.66755555555555C886.9166666666666,111.66159259259258,889.3333333333334,111.65562962962963,891.75,111.64966666666666C894.1666666666666,111.6437037037037,896.5833333333334,111.63774074074074,899,111.63177777777777C901.4166666666666,111.6258148148148,903.8333333333334,111.61985185185185,906.25,111.61388888888888C908.6666666666666,111.60792592592591,911.0833333333334,111.60196296296297,913.5,111.596C915.9166666666666,111.59003703703704,918.3333333333334,111.58407407407408,920.75,111.57811111111111C923.1666666666666,111.57214814814814,925.5833333333334,111.56618518518519,928,111.56022222222222C930.4166666666666,111.55425925925925,932.8333333333334,111.5482962962963,935.25,111.54233333333333C937.6666666666666,111.53637037037036,940.0833333333334,111.53040740740741,942.5,111.52444444444444C944.9166666666666,111.51848148148147,947.3333333333334,111.51251851851853,949.75,111.50655555555556C952.1666666666666,111.5005925925926,954.5833333333334,111.49462962962964,957,111.48866666666667C959.4166666666666,111.4827037037037,961.8333333333334,111.47674074074075,964.25,111.47077777777778C966.6666666666667,111.46481481481482,969.0833333333334,111.45885185185186,971.5000000000001,111.45288888888889C973.9166666666667,111.44692592592592,976.3333333333335,111.44096296296297,978.7500000000001,111.435C981.1666666666667,111.42903703703703,983.5833333333335,111.42307407407408,986.0000000000001,111.41711111111111C988.4166666666667,111.41114814814814,990.8333333333335,111.40518518518519,993.2500000000001,111.39922222222222C995.6666666666667,111.39325925925925,998.0833333333333,111.3872962962963,1000.4999999999999,111.38133333333333C1002.9166666666665,111.37537037037036,1005.3333333333333,111.36940740740741,1007.7499999999999,111.36344444444444C1010.1666666666665,111.35748148148147,1012.5833333333333,111.35151851851852,1014.9999999999999,111.34555555555555C1017.4166666666665,111.33959259259258,1019.8333333333333,111.33362962962961,1022.2499999999999,111.32766666666666C1024.6666666666665,111.32170370370369,1027.0833333333333,111.31574074074075,1029.5,111.30977777777778C1031.9166666666667,111.30381481481483,1034.3333333333333,111.29785185185186,1036.75,111.29188888888889C1039.1666666666667,111.28592592592592,1041.5833333333333,111.27996296296297,1044,111.274C1046.4166666666667,111.26803703703703,1048.8333333333333,111.26207407407408,1051.25,111.25611111111111C1053.6666666666667,111.25014814814814,1056.0833333333333,111.24418518518519,1058.5,111.23822222222222C1060.9166666666667,111.23225925925925,1063.3333333333333,111.22629629629628,1065.75,111.22033333333333C1068.1666666666667,111.21437037037037,1070.5833333333333,111.2084074074074,1073,111.20244444444445C1075.4166666666667,111.1964814814815,1077.8333333333333,111.19051851851853,1080.25,111.18455555555556C1082.6666666666667,111.1785925925926,1085.0833333333333,111.17262962962964,1087.5,111.16666666666667C1089.9166666666667,111.1607037037037,1092.3333333333333,111.15474074074075,1094.75,111.14877777777778C1097.1666666666667,111.14281481481481,1099.5833333333333,111.13685185185186,1102,111.13088888888889C1104.4166666666667,111.12492592592592,1106.8333333333333,111.11896296296297,1109.25,111.113C1111.6666666666667,111.10703703703703,1114.0833333333333,111.10107407407408,1116.5,111.09511111111111C1118.9166666666667,111.08914814814814,1121.3333333333333,111.08318518518519,1123.75,111.07722222222222C1126.1666666666667,111.07125925925925,1128.5833333333333,111.0652962962963,1131,111.05933333333333C1133.4166666666667,111.05337037037036,1135.8333333333333,111.0474074074074,1138.25,111.04144444444444C1140.6666666666667,111.03548148148147,1143.0833333333333,111.0295185185185,1145.5,111.02355555555555C1147.9166666666667,111.01759259259259,1150.3333333333333,111.01162962962962,1152.75,111.00566666666667C1155.1666666666667,110.99970370370372,1157.5833333333333,110.99374074074075,1160,110.98777777777778C1162.4166666666667,110.98181481481481,1164.8333333333333,110.97585185185186,1167.25,110.96988888888889C1169.6666666666667,110.96392592592592,1172.0833333333333,110.95796296296297,1174.5,110.952C1176.9166666666667,110.94603703703703,1179.3333333333333,110.94007407407408,1181.75,110.93411111111111C1184.1666666666667,110.92814814814814,1186.5833333333333,110.92218518518519,1189,110.91622222222222C1191.4166666666667,110.91025925925925,1193.8333333333333,110.90429629629631,1196.25,110.89833333333334C1198.6666666666667,110.89237037037037,1201.0833333333333,110.88640740740742,1203.5,110.88044444444445C1205.9166666666667,110.87448148148148,1208.3333333333333,110.86851851851853,1210.75,110.86255555555556C1213.1666666666667,110.85659259259259,1215.5833333333333,110.85062962962964,1218,110.84466666666667C1220.4166666666667,110.8387037037037,1222.8333333333333,110.83274074074075,1225.25,110.82677777777778C1227.6666666666667,110.82081481481481,1230.0833333333333,110.81485185185186,1232.5,110.80888888888889C1234.9166666666667,110.80292592592592,1237.3333333333333,110.79696296296297,1239.75,110.791C1242.1666666666667,110.78503703703703,1244.5833333333333,110.77907407407407,1247,110.7731111111111C1249.4166666666667,110.76714814814814,1251.8333333333333,110.76118518518518,1254.25,110.75522222222222C1256.6666666666667,110.74925925925925,1259.0833333333333,110.7432962962963,1261.5,110.73733333333332C1263.9166666666667,110.73137037037036,1266.3333333333333,110.7254074074074,1268.75,110.71944444444443C1271.1666666666667,110.71348148148147,1273.5833333333333,110.70751851851853,1276,110.70155555555556C1278.4166666666667,110.69559259259259,1280.8333333333333,110.68962962962964,1283.25,110.68366666666667C1285.6666666666667,110.6777037037037,1288.0833333333333,110.67174074074074,1290.5,110.66577777777778C1292.9166666666667,110.65981481481481,1295.3333333333333,110.65385185185185,1297.75,110.64788888888889C1300.1666666666667,110.64192592592592,1302.5833333333333,110.64192592592592,1305,110.63C1307.4166666666667,110.61807407407407,1309.8333333333333,107.56333333333333,1312.25,106.03C1314.6666666666667,104.49666666666667,1317.0833333333333,102.96333333333334,1319.5,101.43C1321.9166666666667,99.89666666666668,1324.3333333333333,98.36333333333333,1326.75,96.83C1329.1666666666667,95.29666666666667,1331.5833333333333,93.76333333333334,1334,92.23C1336.4166666666667,90.69666666666667,1338.8333333333333,89.16333333333333,1341.25,87.63C1343.6666666666667,86.09666666666666,1346.0833333333333,84.56333333333333,1348.5,83.03C1350.9166666666667,81.49666666666667,1353.3333333333333,79.96333333333332,1355.75,78.42999999999999C1358.1666666666667,76.89666666666666,1360.5833333333333,75.36333333333333,1363,73.83C1365.4166666666667,72.29666666666667,1367.8333333333333,70.76333333333334,1370.25,69.23C1372.6666666666667,67.69666666666667,1375.0833333333333,66.16333333333334,1377.5,64.63000000000001C1379.9166666666667,63.09666666666668,1382.3333333333333,61.56333333333333,1384.75,60.03C1387.1666666666667,58.49666666666667,1389.5833333333333,56.96333333333334,1392,55.43C1394.4166666666667,53.89666666666666,1396.8333333333333,52.36333333333332,1399.25,50.82999999999999C1401.6666666666667,49.29666666666666,1404.0833333333333,47.763333333333335,1406.5,46.230000000000004C1408.9166666666667,44.69666666666667,1411.3333333333333,43.163333333333334,1413.75,41.629999999999995C1416.1666666666667,40.09666666666666,1418.5833333333333,38.56333333333331,1421,37.02999999999998C1423.4166666666667,35.49666666666665,1425.8333333333333,33.96333333333334,1428.25,32.43000000000001C1430.6666666666667,30.896666666666675,1433.0833333333333,29.363333333333337,1435.5,27.83C1437.9166666666667,26.29666666666666,1440.3333333333333,24.763333333333314,1442.75,23.229999999999983C1445.1666666666667,21.69666666666665,1447.5833333333333,20.163333333333327,1450,18.630000000000003" fill="transparent" stroke-linecap="round" stroke="#B6509E" stroke-width="2"></path><path class="visx-linepath" d="M0,111.78C2.4166666666666665,111.78,4.833333333333334,111.78,7.25,111.78C9.666666666666666,111.78,12.083333333333334,111.78,14.5,111.78C16.916666666666668,111.78,19.333333333333332,111.78,21.75,111.78C24.166666666666668,111.78,26.583333333333332,111.78,29,111.78C31.416666666666668,111.78,33.833333333333336,111.78,36.25,111.78C38.666666666666664,111.78,41.083333333333336,111.78,43.5,111.78C45.91666666666667,111.78,48.333333333333336,111.78,50.75000000000001,111.78C53.16666666666667,111.78,55.583333333333336,111.78,58,111.78C60.416666666666664,111.78,62.833333333333336,111.78,65.25,111.78C67.66666666666667,111.78,70.08333333333333,111.78,72.5,111.78C74.91666666666667,111.78,77.33333333333333,111.78,79.75,111.78C82.16666666666667,111.78,84.58333333333333,111.78,87,111.78C89.41666666666667,111.78,91.83333333333333,111.78,94.25,111.78C96.66666666666667,111.78,99.08333333333334,111.78,101.50000000000001,111.78C103.91666666666667,111.78,106.33333333333334,111.78,108.75,111.78C111.16666666666667,111.78,113.58333333333333,111.78,116,111.78C118.41666666666667,111.78,120.83333333333334,111.78,123.25000000000001,111.78C125.66666666666667,111.78,128.08333333333334,111.78,130.5,111.78C132.91666666666666,111.78,135.33333333333334,111.78,137.75,111.78C140.16666666666666,111.78,142.58333333333334,111.78,145,111.78C147.41666666666666,111.78,149.83333333333334,111.78,152.25,111.78C154.66666666666666,111.78,157.08333333333334,111.78,159.5,111.78C161.91666666666666,111.78,164.33333333333334,111.78,166.75,111.78C169.16666666666666,111.78,171.58333333333334,111.78,174,111.78C176.41666666666666,111.78,178.83333333333334,111.78,181.25,111.78C183.66666666666666,111.78,186.08333333333334,111.78,188.5,111.78C190.91666666666666,111.78,193.33333333333334,111.78,195.75,111.78C198.16666666666669,111.78,200.58333333333334,111.78,203.00000000000003,111.78C205.41666666666669,111.78,207.83333333333331,111.78,210.24999999999997,111.78C212.66666666666666,111.78,215.08333333333331,111.78,217.5,111.78C219.91666666666666,111.78,222.33333333333334,111.78,224.75,111.78C227.16666666666666,111.78,229.58333333333334,111.78,232,111.78C234.41666666666666,111.78,236.83333333333334,111.78,239.25,111.78C241.66666666666669,111.78,244.08333333333334,111.78,246.50000000000003,111.78C248.91666666666669,111.78,251.33333333333331,111.78,253.74999999999997,111.78C256.16666666666663,111.78,258.5833333333333,111.78,261,111.78C263.4166666666667,111.78,265.8333333333333,111.78,268.25,111.78C270.6666666666667,111.78,273.0833333333333,111.78,275.5,111.78C277.9166666666667,111.78,280.3333333333333,111.78,282.75,111.78C285.1666666666667,111.78,287.5833333333333,111.78,290,111.78C292.4166666666667,111.78,294.8333333333333,111.78,297.25,111.78C299.6666666666667,111.78,302.0833333333333,111.78,304.5,111.78C306.9166666666667,111.78,309.3333333333333,111.78,311.75,111.78C314.1666666666667,111.78,316.5833333333333,111.78,319,111.78C321.4166666666667,111.78,323.8333333333333,111.78,326.25,111.78C328.6666666666667,111.78,331.0833333333333,111.78,333.5,111.78C335.9166666666667,111.78,338.3333333333333,111.78,340.75,111.78C343.1666666666667,111.78,345.5833333333333,111.78,348,111.78C350.4166666666667,111.78,352.8333333333333,111.78,355.25,111.78C357.6666666666667,111.78,360.0833333333333,111.78,362.5,111.78C364.9166666666667,111.78,367.3333333333333,111.78,369.75,111.78C372.1666666666667,111.78,374.5833333333333,111.78,377,111.78C379.4166666666667,111.78,381.8333333333333,111.78,384.25,111.78C386.6666666666667,111.78,389.0833333333333,111.78,391.5,111.78C393.9166666666667,111.78,396.33333333333337,111.78,398.75000000000006,111.78C401.16666666666674,111.78,403.58333333333337,111.78,406.00000000000006,111.78C408.4166666666667,111.78,410.8333333333333,111.78,413.24999999999994,111.78C415.66666666666663,111.78,418.08333333333326,111.78,420.49999999999994,111.78C422.91666666666663,111.78,425.3333333333333,111.78,427.75,111.78C430.1666666666667,111.78,432.5833333333333,111.78,435,111.78C437.4166666666667,111.78,439.8333333333333,111.78,442.25,111.78C444.6666666666667,111.78,447.0833333333333,111.78,449.5,111.78C451.9166666666667,111.78,454.3333333333333,111.78,456.75,111.78C459.1666666666667,111.78,461.5833333333333,111.78,464,111.78C466.4166666666667,111.78,468.8333333333333,111.78,471.25,111.78C473.6666666666667,111.78,476.0833333333333,111.78,478.5,111.78C480.9166666666667,111.78,483.33333333333337,111.78,485.75000000000006,111.78C488.16666666666674,111.78,490.58333333333337,111.78,493.00000000000006,111.78C495.4166666666667,111.78,497.8333333333333,111.78,500.24999999999994,111.78C502.66666666666663,111.78,505.08333333333326,111.78,507.49999999999994,111.78C509.91666666666663,111.78,512.3333333333333,111.78,514.75,111.78C517.1666666666666,111.78,519.5833333333334,111.78,522,111.78C524.4166666666666,111.78,526.8333333333334,111.78,529.25,111.78C531.6666666666666,111.78,534.0833333333334,111.78,536.5,111.78C538.9166666666666,111.78,541.3333333333334,111.78,543.75,111.78C546.1666666666666,111.78,548.5833333333334,111.78,551,111.78C553.4166666666666,111.78,555.8333333333334,111.78,558.25,111.78C560.6666666666666,111.78,563.0833333333334,111.78,565.5,111.78C567.9166666666666,111.78,570.3333333333334,111.78,572.75,111.78C575.1666666666666,111.78,577.5833333333334,111.78,580,111.78C582.4166666666666,111.78,584.8333333333334,111.78,587.25,111.78C589.6666666666666,111.78,592.0833333333334,111.78,594.5,111.78C596.9166666666666,111.78,599.3333333333334,111.78,601.75,111.78C604.1666666666666,111.78,606.5833333333334,111.78,609,111.78C611.4166666666666,111.78,613.8333333333334,111.78,616.25,111.78C618.6666666666666,111.78,621.0833333333334,111.78,623.5,111.78C625.9166666666666,111.78,628.3333333333334,111.78,630.75,111.78C633.1666666666666,111.78,635.5833333333334,111.78,638,111.78C640.4166666666666,111.78,642.8333333333334,111.78,645.25,111.78C647.6666666666666,111.78,650.0833333333334,111.78,652.5,111.78C654.9166666666666,111.78,657.3333333333334,111.78,659.75,111.78C662.1666666666666,111.78,664.5833333333334,111.78,667,111.78C669.4166666666666,111.78,671.8333333333334,111.78,674.25,111.78C676.6666666666666,111.78,679.0833333333334,111.78,681.5,111.78C683.9166666666666,111.78,686.3333333333334,111.78,688.75,111.78C691.1666666666666,111.78,693.5833333333334,111.78,696,111.78C698.4166666666666,111.78,700.8333333333334,111.78,703.25,111.78C705.6666666666666,111.78,708.0833333333334,111.78,710.5,111.78C712.9166666666666,111.78,715.3333333333334,111.78,717.75,111.78C720.1666666666666,111.78,722.5833333333334,111.78,725,111.78C727.4166666666666,111.78,729.8333333333334,111.78,732.25,111.78C734.6666666666666,111.78,737.0833333333334,111.78,739.5,111.78C741.9166666666666,111.78,744.3333333333334,111.78,746.75,111.78C749.1666666666666,111.78,751.5833333333334,111.78,754,111.78C756.4166666666666,111.78,758.8333333333334,111.78,761.25,111.78C763.6666666666666,111.78,766.0833333333334,111.78,768.5,111.78C770.9166666666666,111.78,773.3333333333334,111.78,775.75,111.78C778.1666666666666,111.78,780.5833333333334,111.78,783,111.78C785.4166666666667,111.78,787.8333333333334,111.78,790.2500000000001,111.78C792.6666666666667,111.78,795.0833333333335,111.78,797.5000000000001,111.78C799.9166666666667,111.78,802.3333333333335,111.78,804.7500000000001,111.78C807.1666666666667,111.78,809.5833333333335,111.78,812.0000000000001,111.78C814.4166666666667,111.78,816.8333333333333,111.78,819.2499999999999,111.78C821.6666666666665,111.78,824.0833333333333,111.78,826.4999999999999,111.78C828.9166666666665,111.78,831.3333333333333,111.78,833.7499999999999,111.78C836.1666666666665,111.78,838.5833333333333,111.78,840.9999999999999,111.78C843.4166666666666,111.78,845.8333333333333,111.78,848.25,111.78C850.6666666666666,111.78,853.0833333333334,111.78,855.5,111.78C857.9166666666666,111.78,860.3333333333334,111.78,862.75,111.78C865.1666666666666,111.78,867.5833333333334,111.78,870,111.78C872.4166666666666,111.78,874.8333333333334,111.78,877.25,111.78C879.6666666666666,111.78,882.0833333333334,111.78,884.5,111.78C886.9166666666666,111.78,889.3333333333334,111.78,891.75,111.78C894.1666666666666,111.78,896.5833333333334,111.78,899,111.78C901.4166666666666,111.78,903.8333333333334,111.78,906.25,111.78C908.6666666666666,111.78,911.0833333333334,111.78,913.5,111.78C915.9166666666666,111.78,918.3333333333334,111.78,920.75,111.78C923.1666666666666,111.78,925.5833333333334,111.78,928,111.78C930.4166666666666,111.78,932.8333333333334,111.78,935.25,111.78C937.6666666666666,111.78,940.0833333333334,111.78,942.5,111.78C944.9166666666666,111.78,947.3333333333334,111.78,949.75,111.78C952.1666666666666,111.78,954.5833333333334,111.78,957,111.78C959.4166666666666,111.78,961.8333333333334,111.78,964.25,111.78C966.6666666666667,111.78,969.0833333333334,111.78,971.5000000000001,111.78C973.9166666666667,111.78,976.3333333333335,111.78,978.7500000000001,111.78C981.1666666666667,111.78,983.5833333333335,111.78,986.0000000000001,111.78C988.4166666666667,111.78,990.8333333333335,111.78,993.2500000000001,111.78C995.6666666666667,111.78,998.0833333333333,111.78,1000.4999999999999,111.78C1002.9166666666665,111.78,1005.3333333333333,111.78,1007.7499999999999,111.78C1010.1666666666665,111.78,1012.5833333333333,111.78,1014.9999999999999,111.78C1017.4166666666665,111.78,1019.8333333333333,111.78,1022.2499999999999,111.78C1024.6666666666665,111.78,1027.0833333333333,111.78,1029.5,111.78C1031.9166666666667,111.78,1034.3333333333333,111.78,1036.75,111.78C1039.1666666666667,111.78,1041.5833333333333,111.78,1044,111.78C1046.4166666666667,111.78,1048.8333333333333,111.78,1051.25,111.78C1053.6666666666667,111.78,1056.0833333333333,111.78,1058.5,111.78C1060.9166666666667,111.78,1063.3333333333333,111.78,1065.75,111.78C1068.1666666666667,111.78,1070.5833333333333,111.78,1073,111.78C1075.4166666666667,111.78,1077.8333333333333,111.78,1080.25,111.78C1082.6666666666667,111.78,1085.0833333333333,111.78,1087.5,111.78C1089.9166666666667,111.78,1092.3333333333333,111.78,1094.75,111.78C1097.1666666666667,111.78,1099.5833333333333,111.78,1102,111.78C1104.4166666666667,111.78,1106.8333333333333,111.78,1109.25,111.78C1111.6666666666667,111.78,1114.0833333333333,111.78,1116.5,111.78C1118.9166666666667,111.78,1121.3333333333333,111.78,1123.75,111.78C1126.1666666666667,111.78,1128.5833333333333,111.78,1131,111.78C1133.4166666666667,111.78,1135.8333333333333,111.78,1138.25,111.78C1140.6666666666667,111.78,1143.0833333333333,111.78,1145.5,111.78C1147.9166666666667,111.78,1150.3333333333333,111.78,1152.75,111.78C1155.1666666666667,111.78,1157.5833333333333,111.78,1160,111.78C1162.4166666666667,111.78,1164.8333333333333,111.78,1167.25,111.78C1169.6666666666667,111.78,1172.0833333333333,111.78,1174.5,111.78C1176.9166666666667,111.78,1179.3333333333333,111.78,1181.75,111.78C1184.1666666666667,111.78,1186.5833333333333,111.78,1189,111.78C1191.4166666666667,111.78,1193.8333333333333,111.78,1196.25,111.78C1198.6666666666667,111.78,1201.0833333333333,111.78,1203.5,111.78C1205.9166666666667,111.78,1208.3333333333333,111.78,1210.75,111.78C1213.1666666666667,111.78,1215.5833333333333,111.78,1218,111.78C1220.4166666666667,111.78,1222.8333333333333,111.78,1225.25,111.78C1227.6666666666667,111.78,1230.0833333333333,111.78,1232.5,111.78C1234.9166666666667,111.78,1237.3333333333333,111.78,1239.75,111.78C1242.1666666666667,111.78,1244.5833333333333,111.78,1247,111.78C1249.4166666666667,111.78,1251.8333333333333,111.78,1254.25,111.78C1256.6666666666667,111.78,1259.0833333333333,111.78,1261.5,111.78C1263.9166666666667,111.78,1266.3333333333333,111.78,1268.75,111.78C1271.1666666666667,111.78,1273.5833333333333,111.78,1276,111.78C1278.4166666666667,111.78,1280.8333333333333,111.78,1283.25,111.78C1285.6666666666667,111.78,1288.0833333333333,111.78,1290.5,111.78C1292.9166666666667,111.78,1295.3333333333333,111.78,1297.75,111.78C1300.1666666666667,111.78,1302.5833333333333,111.78,1305,111.78C1307.4166666666667,111.78,1309.8333333333333,111.78,1312.25,111.78C1314.6666666666667,111.78,1317.0833333333333,111.78,1319.5,111.78C1321.9166666666667,111.78,1324.3333333333333,111.78,1326.75,111.78C1329.1666666666667,111.78,1331.5833333333333,111.78,1334,111.78C1336.4166666666667,111.78,1338.8333333333333,111.78,1341.25,111.78C1343.6666666666667,111.78,1346.0833333333333,111.78,1348.5,111.78C1350.9166666666667,111.78,1353.3333333333333,111.78,1355.75,111.78C1358.1666666666667,111.78,1360.5833333333333,111.78,1363,111.78C1365.4166666666667,111.78,1367.8333333333333,111.78,1370.25,111.78C1372.6666666666667,111.78,1375.0833333333333,111.78,1377.5,111.78C1379.9166666666667,111.78,1382.3333333333333,111.78,1384.75,111.78C1387.1666666666667,111.78,1389.5833333333333,111.78,1392,111.78C1394.4166666666667,111.78,1396.8333333333333,111.78,1399.25,111.78C1401.6666666666667,111.78,1404.0833333333333,111.78,1406.5,111.78C1408.9166666666667,111.78,1411.3333333333333,111.78,1413.75,111.78C1416.1666666666667,111.78,1418.5833333333333,111.78,1421,111.78C1423.4166666666667,111.78,1425.8333333333333,111.78,1428.25,111.78C1430.6666666666667,111.78,1433.0833333333333,111.78,1435.5,111.78C1437.9166666666667,111.78,1440.3333333333333,111.78,1442.75,111.78C1445.1666666666667,111.78,1447.5833333333333,111.78,1450,111.78" fill="transparent" stroke-linecap="round" stroke="#E7C6DF" stroke-width="2"></path><g class="visx-group visx-axis visx-axis-bottom" transform="translate(0, 115)"><g class="visx-group visx-axis-tick" transform="translate(0, 0)"><line class="visx-line" x1="0" y1="0" x2="0" y2="8" fill="transparent" shape-rendering="crispEdges" stroke="#000" stroke-width="0" stroke-linecap="square"></line><svg x="0" y="0" font-size="10" style="overflow:visible"><text transform="" x="0" y="18" fill="#000" font-size="10" text-anchor="middle"><tspan x="0" dy="0em">0%</tspan></text></svg></g><g class="visx-group visx-axis-tick" transform="translate(0, 0)"><line class="visx-line" x1="362.5" y1="0" x2="362.5" y2="8" fill="transparent" shape-rendering="crispEdges" stroke="#000" stroke-width="0" stroke-linecap="square"></line><svg x="0" y="0" font-size="10" style="overflow:visible"><text transform="" x="362.5" y="18" fill="#000" font-size="10" text-anchor="middle"><tspan x="362.5" dy="0em">25%</tspan></text></svg></g><g class="visx-group visx-axis-tick" transform="translate(0, 0)"><line class="visx-line" x1="725" y1="0" x2="725" y2="8" fill="transparent" shape-rendering="crispEdges" stroke="#000" stroke-width="0" stroke-linecap="square"></line><svg x="0" y="0" font-size="10" style="overflow:visible"><text transform="" x="725" y="18" fill="#000" font-size="10" text-anchor="middle"><tspan x="725" dy="0em">50%</tspan></text></svg></g><g class="visx-group visx-axis-tick" transform="translate(0, 0)"><line class="visx-line" x1="1087.5" y1="0" x2="1087.5" y2="8" fill="transparent" shape-rendering="crispEdges" stroke="#000" stroke-width="0" stroke-linecap="square"></line><svg x="0" y="0" font-size="10" style="overflow:visible"><text transform="" x="1087.5" y="18" fill="#000" font-size="10" text-anchor="middle"><tspan x="1087.5" dy="0em">75%</tspan></text></svg></g><g class="visx-group visx-axis-tick" transform="translate(0, 0)"><line class="visx-line" x1="1450" y1="0" x2="1450" y2="8" fill="transparent" shape-rendering="crispEdges" stroke="#000" stroke-width="0" stroke-linecap="square"></line><svg x="0" y="0" font-size="10" style="overflow:visible"><text transform="" x="1450" y="18" fill="#000" font-size="10" text-anchor="middle"><tspan x="1450" dy="0em">100%</tspan></text></svg></g><line class="visx-line visx-axis-line" x1="0.5" y1="0" x2="1450.5" y2="0" fill="transparent" shape-rendering="crispEdges" stroke="#222" stroke-width="0"></line></g><g class="visx-group visx-axis visx-axis-left" transform="translate(0, 0)"><g class="visx-group visx-axis-tick" transform="translate(0, 0)"><line class="visx-line" x1="0" y1="115" x2="-8" y2="115" fill="transparent" shape-rendering="crispEdges" stroke="#222" stroke-width="0" stroke-linecap="square"></line><svg x="-30" y="0" font-size="8" style="overflow:visible"><text transform="" x="-8" y="115" fill="#000" font-size="8" text-anchor="start"><tspan x="-8" dy="0em">0%</tspan></text></svg></g><g class="visx-group visx-axis-tick" transform="translate(0, 0)"><line class="visx-line" x1="0" y1="57.5" x2="-8" y2="57.5" fill="transparent" shape-rendering="crispEdges" stroke="#222" stroke-width="0" stroke-linecap="square"></line><svg x="-30" y="0" font-size="8" style="overflow:visible"><text transform="" x="-8" y="57.5" fill="#000" font-size="8" text-anchor="start"><tspan x="-8" dy="0em">50%</tspan></text></svg></g><g class="visx-group visx-axis-tick" transform="translate(0, 0)"><line class="visx-line" x1="0" y1="0" x2="-8" y2="0" fill="transparent" shape-rendering="crispEdges" stroke="#222" stroke-width="0" stroke-linecap="square"></line><svg x="-30" y="0" font-size="8" style="overflow:visible"><text transform="" x="-8" y="0" fill="#000" font-size="8" text-anchor="start"><tspan x="-8" dy="0em">100%</tspan></text></svg></g><line class="visx-line visx-axis-line" x1="0" y1="115.5" x2="0" y2="0.5" fill="transparent" shape-rendering="crispEdges" stroke="#222" stroke-width="0"></line></g><rect class="visx-bar" width="1450" height="115" fill="transparent"></rect><line class="visx-line" x1="1305" y1="28" x2="1305" y2="115" fill="transparent" shape-rendering="crispEdges" stroke="#0062D2" stroke-width="1" pointer-events="none" stroke-dasharray="5,2"></line><svg x="0" y="0" font-size="10px" style="overflow:visible"><text transform="" x="1305" y="20" font-size="10px" fill="#fff" stroke="#fff" stroke-width="0.8em" text-anchor="middle"><tspan x="1305" dy="0.355em">Optimal 90%</tspan></text></svg><svg x="0" y="0" font-size="10px" style="overflow:visible"><text transform="" x="1305" y="20" font-size="10px" fill="#62677B" text-anchor="middle"><tspan x="1305" dy="0.355em">Optimal 90%</tspan></text></svg></g></svg>