<?xml version="1.0"?><svg xmlns="http://www.w3.org/2000/svg" xmlns:xlink= "http://www.w3.org/1999/xlink" style="background: white;" width="1500" height="185"> <g style="color: black; font-size: 13px; font-family: sans-serif; transform: translate(18px, 25px);"><g><circle r="3" cx="-6" cy="-5" style="fill: #B6509E" /><text>Borrow APR, variable</text></g><g style="transform: translateX(150px);"><circle r="3" cx="-6" cy="-5" style="fill: rgb(231, 198, 223)" /><text>Borrow APR, stable</text></g><g style="transform: translateX(290px);"><circle r="3" cx="-6" cy="-5" style="fill: rgb(0, 98, 210)" /><text>Utilization Rate</text></g></g><g class="visx-group" transform="translate(40, 50)"><g class="visx-group visx-rows" transform="translate(0, 0)"><line class="visx-line" x1="0" y1="57.5" x2="1450" y2="57.5" fill="transparent" shape-rendering="crispEdges" stroke="#000" stroke-width="1" stroke-dasharray="3,3" pointer-events="none"></line></g><path class="visx-linepath" d="M0,0C2.4166666666666665,28.749999999999996,4.833333333333334,57.5,7.25,57.5C9.666666666666666,57.5,12.083333333333334,57.5,14.5,57.5C16.916666666666668,57.5,19.333333333333332,57.5,21.75,57.5C24.166666666666668,57.5,26.583333333333332,57.5,29,57.5C31.416666666666668,57.5,33.833333333333336,57.5,36.25,57.5C38.666666666666664,57.5,41.083333333333336,57.5,43.5,57.5C45.91666666666667,57.5,48.333333333333336,57.5,50.75000000000001,57.5C53.16666666666667,57.5,55.583333333333336,57.5,58,57.5C60.416666666666664,57.5,62.833333333333336,57.5,65.25,57.5C67.66666666666667,57.5,70.08333333333333,57.5,72.5,57.5C74.91666666666667,57.5,77.33333333333333,57.5,79.75,57.5C82.16666666666667,57.5,84.58333333333333,57.5,87,57.5C89.41666666666667,57.5,91.83333333333333,57.5,94.25,57.5C96.66666666666667,57.5,99.08333333333334,57.5,101.50000000000001,57.5C103.91666666666667,57.5,106.33333333333334,57.5,108.75,57.5C111.16666666666667,57.5,113.58333333333333,57.5,116,57.5C118.41666666666667,57.5,120.83333333333334,57.5,123.25000000000001,57.5C125.66666666666667,57.5,128.08333333333334,57.5,130.5,57.5C132.91666666666666,57.5,135.33333333333334,57.5,137.75,57.5C140.16666666666666,57.5,142.58333333333334,57.5,145,57.5C147.41666666666666,57.5,149.83333333333334,57.5,152.25,57.5C154.66666666666666,57.5,157.08333333333334,57.5,159.5,57.5C161.91666666666666,57.5,164.33333333333334,57.5,166.75,57.5C169.16666666666666,57.5,171.58333333333334,57.5,174,57.5C176.41666666666666,57.5,178.83333333333334,57.5,181.25,57.5C183.66666666666666,57.5,186.08333333333334,57.5,188.5,57.5C190.91666666666666,57.5,193.33333333333334,57.5,195.75,57.5C198.16666666666669,57.5,200.58333333333334,57.5,203.00000000000003,57.5C205.41666666666669,57.5,207.83333333333331,57.5,210.24999999999997,57.5C212.66666666666666,57.5,215.08333333333331,57.5,217.5,57.5C219.91666666666666,57.5,222.33333333333334,57.5,224.75,57.5C227.16666666666666,57.5,229.58333333333334,57.5,232,57.5C234.41666666666666,57.5,236.83333333333334,57.5,239.25,57.5C241.66666666666669,57.5,244.08333333333334,57.5,246.50000000000003,57.5C248.91666666666669,57.5,251.33333333333331,57.5,253.74999999999997,57.5C256.16666666666663,57.5,258.5833333333333,57.5,261,57.5C263.4166666666667,57.5,265.8333333333333,57.5,268.25,57.5C270.6666666666667,57.5,273.0833333333333,57.5,275.5,57.5C277.9166666666667,57.5,280.3333333333333,57.5,282.75,57.5C285.1666666666667,57.5,287.5833333333333,57.5,290,57.5C292.4166666666667,57.5,294.8333333333333,57.5,297.25,57.5C299.6666666666667,57.5,302.0833333333333,57.5,304.5,57.5C306.9166666666667,57.5,309.3333333333333,57.5,311.75,57.5C314.1666666666667,57.5,316.5833333333333,57.5,319,57.5C321.4166666666667,57.5,323.8333333333333,57.5,326.25,57.5C328.6666666666667,57.5,331.0833333333333,57.5,333.5,57.5C335.9166666666667,57.5,338.3333333333333,57.5,340.75,57.5C343.1666666666667,57.5,345.5833333333333,57.5,348,57.5C350.4166666666667,57.5,352.8333333333333,57.5,355.25,57.5C357.6666666666667,57.5,360.0833333333333,57.5,362.5,57.5C364.9166666666667,57.5,367.3333333333333,57.5,369.75,57.5C372.1666666666667,57.5,374.5833333333333,57.5,377,57.5C379.4166666666667,57.5,381.8333333333333,57.5,384.25,57.5C386.6666666666667,57.5,389.0833333333333,57.5,391.5,57.5C393.9166666666667,57.5,396.33333333333337,57.5,398.75000000000006,57.5C401.16666666666674,57.5,403.58333333333337,57.5,406.00000000000006,57.5C408.4166666666667,57.5,410.8333333333333,57.5,413.24999999999994,57.5C415.66666666666663,57.5,418.08333333333326,57.5,420.49999999999994,57.5C422.91666666666663,57.5,425.3333333333333,57.5,427.75,57.5C430.1666666666667,57.5,432.5833333333333,57.5,435,57.5C437.4166666666667,57.5,439.8333333333333,57.5,442.25,57.5C444.6666666666667,57.5,447.0833333333333,57.5,449.5,57.5C451.9166666666667,57.5,454.3333333333333,57.5,456.75,57.5C459.1666666666667,57.5,461.5833333333333,57.5,464,57.5C466.4166666666667,57.5,468.8333333333333,57.5,471.25,57.5C473.6666666666667,57.5,476.0833333333333,57.5,478.5,57.5C480.9166666666667,57.5,483.33333333333337,57.5,485.75000000000006,57.5C488.16666666666674,57.5,490.58333333333337,57.5,493.00000000000006,57.5C495.4166666666667,57.5,497.8333333333333,57.5,500.24999999999994,57.5C502.66666666666663,57.5,505.08333333333326,57.5,507.49999999999994,57.5C509.91666666666663,57.5,512.3333333333333,57.5,514.75,57.5C517.1666666666666,57.5,519.5833333333334,57.5,522,57.5C524.4166666666666,57.5,526.8333333333334,57.5,529.25,57.5C531.6666666666666,57.5,534.0833333333334,57.5,536.5,57.5C538.9166666666666,57.5,541.3333333333334,57.5,543.75,57.5C546.1666666666666,57.5,548.5833333333334,57.5,551,57.5C553.4166666666666,57.5,555.8333333333334,57.5,558.25,57.5C560.6666666666666,57.5,563.0833333333334,57.5,565.5,57.5C567.9166666666666,57.5,570.3333333333334,57.5,572.75,57.5C575.1666666666666,57.5,577.5833333333334,57.5,580,57.5C582.4166666666666,57.5,584.8333333333334,57.5,587.25,57.5C589.6666666666666,57.5,592.0833333333334,57.5,594.5,57.5C596.9166666666666,57.5,599.3333333333334,57.5,601.75,57.5C604.1666666666666,57.5,606.5833333333334,57.5,609,57.5C611.4166666666666,57.5,613.8333333333334,57.5,616.25,57.5C618.6666666666666,57.5,621.0833333333334,57.5,623.5,57.5C625.9166666666666,57.5,628.3333333333334,57.5,630.75,57.5C633.1666666666666,57.5,635.5833333333334,57.5,638,57.5C640.4166666666666,57.5,642.8333333333334,57.5,645.25,57.5C647.6666666666666,57.5,650.0833333333334,57.5,652.5,57.5C654.9166666666666,57.5,657.3333333333334,57.5,659.75,57.5C662.1666666666666,57.5,664.5833333333334,57.5,667,57.5C669.4166666666666,57.5,671.8333333333334,57.5,674.25,57.5C676.6666666666666,57.5,679.0833333333334,57.5,681.5,57.5C683.9166666666666,57.5,686.3333333333334,57.5,688.75,57.5C691.1666666666666,57.5,693.5833333333334,57.5,696,57.5C698.4166666666666,57.5,700.8333333333334,57.5,703.25,57.5C705.6666666666666,57.5,708.0833333333334,57.5,710.5,57.5C712.9166666666666,57.5,715.3333333333334,57.5,717.75,57.5C720.1666666666666,57.5,722.5833333333334,57.5,725,57.5C727.4166666666666,57.5,729.8333333333334,57.5,732.25,57.5C734.6666666666666,57.5,737.0833333333334,57.5,739.5,57.5C741.9166666666666,57.5,744.3333333333334,57.5,746.75,57.5C749.1666666666666,57.5,751.5833333333334,57.5,754,57.5C756.4166666666666,57.5,758.8333333333334,57.5,761.25,57.5C763.6666666666666,57.5,766.0833333333334,57.5,768.5,57.5C770.9166666666666,57.5,773.3333333333334,57.5,775.75,57.5C778.1666666666666,57.5,780.5833333333334,57.5,783,57.5C785.4166666666667,57.5,787.8333333333334,57.5,790.2500000000001,57.5C792.6666666666667,57.5,795.0833333333335,57.5,797.5000000000001,57.5C799.9166666666667,57.5,802.3333333333335,57.5,804.7500000000001,57.5C807.1666666666667,57.5,809.5833333333335,57.5,812.0000000000001,57.5C814.4166666666667,57.5,816.8333333333333,57.5,819.2499999999999,57.5C821.6666666666665,57.5,824.0833333333333,57.5,826.4999999999999,57.5C828.9166666666665,57.5,831.3333333333333,57.5,833.7499999999999,57.5C836.1666666666665,57.5,838.5833333333333,57.5,840.9999999999999,57.5C843.4166666666666,57.5,845.8333333333333,57.5,848.25,57.5C850.6666666666666,57.5,853.0833333333334,57.5,855.5,57.5C857.9166666666666,57.5,860.3333333333334,57.5,862.75,57.5C865.1666666666666,57.5,867.5833333333334,57.5,870,57.5C872.4166666666666,57.5,874.8333333333334,57.5,877.25,57.5C879.6666666666666,57.5,882.0833333333334,57.5,884.5,57.5C886.9166666666666,57.5,889.3333333333334,57.5,891.75,57.5C894.1666666666666,57.5,896.5833333333334,57.5,899,57.5C901.4166666666666,57.5,903.8333333333334,57.5,906.25,57.5C908.6666666666666,57.5,911.0833333333334,57.5,913.5,57.5C915.9166666666666,57.5,918.3333333333334,57.5,920.75,57.5C923.1666666666666,57.5,925.5833333333334,57.5,928,57.5C930.4166666666666,57.5,932.8333333333334,57.5,935.25,57.5C937.6666666666666,57.5,940.0833333333334,57.5,942.5,57.5C944.9166666666666,57.5,947.3333333333334,57.5,949.75,57.5C952.1666666666666,57.5,954.5833333333334,57.5,957,57.5C959.4166666666666,57.5,961.8333333333334,57.5,964.25,57.5C966.6666666666667,57.5,969.0833333333334,57.5,971.5000000000001,57.5C973.9166666666667,57.5,976.3333333333335,57.5,978.7500000000001,57.5C981.1666666666667,57.5,983.5833333333335,57.5,986.0000000000001,57.5C988.4166666666667,57.5,990.8333333333335,57.5,993.2500000000001,57.5C995.6666666666667,57.5,998.0833333333333,57.5,1000.4999999999999,57.5C1002.9166666666665,57.5,1005.3333333333333,57.5,1007.7499999999999,57.5C1010.1666666666665,57.5,1012.5833333333333,57.5,1014.9999999999999,57.5C1017.4166666666665,57.5,1019.8333333333333,57.5,1022.2499999999999,57.5C1024.6666666666665,57.5,1027.0833333333333,57.5,1029.5,57.5C1031.9166666666667,57.5,1034.3333333333333,57.5,1036.75,57.5C1039.1666666666667,57.5,1041.5833333333333,57.5,1044,57.5C1046.4166666666667,57.5,1048.8333333333333,57.5,1051.25,57.5C1053.6666666666667,57.5,1056.0833333333333,57.5,1058.5,57.5C1060.9166666666667,57.5,1063.3333333333333,57.5,1065.75,57.5C1068.1666666666667,57.5,1070.5833333333333,57.5,1073,57.5C1075.4166666666667,57.5,1077.8333333333333,57.5,1080.25,57.5C1082.6666666666667,57.5,1085.0833333333333,57.5,1087.5,57.5C1089.9166666666667,57.5,1092.3333333333333,57.5,1094.75,57.5C1097.1666666666667,57.5,1099.5833333333333,57.5,1102,57.5C1104.4166666666667,57.5,1106.8333333333333,57.5,1109.25,57.5C1111.6666666666667,57.5,1114.0833333333333,57.5,1116.5,57.5C1118.9166666666667,57.5,1121.3333333333333,57.5,1123.75,57.5C1126.1666666666667,57.5,1128.5833333333333,57.5,1131,57.5C1133.4166666666667,57.5,1135.8333333333333,57.5,1138.25,57.5C1140.6666666666667,57.5,1143.0833333333333,57.5,1145.5,57.5C1147.9166666666667,57.5,1150.3333333333333,57.5,1152.75,57.5C1155.1666666666667,57.5,1157.5833333333333,57.5,1160,57.5C1162.4166666666667,57.5,1164.8333333333333,57.5,1167.25,57.5C1169.6666666666667,57.5,1172.0833333333333,57.5,1174.5,57.5C1176.9166666666667,57.5,1179.3333333333333,57.5,1181.75,57.5C1184.1666666666667,57.5,1186.5833333333333,57.5,1189,57.5C1191.4166666666667,57.5,1193.8333333333333,57.5,1196.25,57.5C1198.6666666666667,57.5,1201.0833333333333,57.5,1203.5,57.5C1205.9166666666667,57.5,1208.3333333333333,57.5,1210.75,57.5C1213.1666666666667,57.5,1215.5833333333333,57.5,1218,57.5C1220.4166666666667,57.5,1222.8333333333333,57.5,1225.25,57.5C1227.6666666666667,57.5,1230.0833333333333,57.5,1232.5,57.5C1234.9166666666667,57.5,1237.3333333333333,57.5,1239.75,57.5C1242.1666666666667,57.5,1244.5833333333333,57.5,1247,57.5C1249.4166666666667,57.5,1251.8333333333333,57.5,1254.25,57.5C1256.6666666666667,57.5,1259.0833333333333,57.5,1261.5,57.5C1263.9166666666667,57.5,1266.3333333333333,57.5,1268.75,57.5C1271.1666666666667,57.5,1273.5833333333333,57.5,1276,57.5C1278.4166666666667,57.5,1280.8333333333333,57.5,1283.25,57.5C1285.6666666666667,57.5,1288.0833333333333,57.5,1290.5,57.5C1292.9166666666667,57.5,1295.3333333333333,57.5,1297.75,57.5C1300.1666666666667,57.5,1302.5833333333333,57.5,1305,57.5C1307.4166666666667,57.5,1309.8333333333333,57.5,1312.25,57.5C1314.6666666666667,57.5,1317.0833333333333,57.5,1319.5,57.5C1321.9166666666667,57.5,1324.3333333333333,57.5,1326.75,57.5C1329.1666666666667,57.5,1331.5833333333333,57.5,1334,57.5C1336.4166666666667,57.5,1338.8333333333333,57.5,1341.25,57.5C1343.6666666666667,57.5,1346.0833333333333,57.5,1348.5,57.5C1350.9166666666667,57.5,1353.3333333333333,57.5,1355.75,57.5C1358.1666666666667,57.5,1360.5833333333333,57.5,1363,57.5C1365.4166666666667,57.5,1367.8333333333333,57.5,1370.25,57.5C1372.6666666666667,57.5,1375.0833333333333,57.5,1377.5,57.5C1379.9166666666667,57.5,1382.3333333333333,57.5,1384.75,57.5C1387.1666666666667,57.5,1389.5833333333333,57.5,1392,57.5C1394.4166666666667,57.5,1396.8333333333333,57.5,1399.25,57.5C1401.6666666666667,57.5,1404.0833333333333,57.5,1406.5,57.5C1408.9166666666667,57.5,1411.3333333333333,57.5,1413.75,57.5C1416.1666666666667,57.5,1418.5833333333333,57.5,1421,57.5C1423.4166666666667,57.5,1425.8333333333333,57.5,1428.25,57.5C1430.6666666666667,57.5,1433.0833333333333,57.5,1435.5,57.5C1437.9166666666667,57.5,1440.3333333333333,57.5,1442.75,57.5C1445.1666666666667,57.5,1447.5833333333333,57.5,1450,57.5" fill="transparent" stroke-linecap="round" stroke="#B6509E" stroke-width="2"></path><path class="visx-linepath" d="M0,0C2.4166666666666665,28.749999999999996,4.833333333333334,57.5,7.25,57.5C9.666666666666666,57.5,12.083333333333334,57.5,14.5,57.5C16.916666666666668,57.5,19.333333333333332,57.5,21.75,57.5C24.166666666666668,57.5,26.583333333333332,57.5,29,57.5C31.416666666666668,57.5,33.833333333333336,57.5,36.25,57.5C38.666666666666664,57.5,41.083333333333336,57.5,43.5,57.5C45.91666666666667,57.5,48.333333333333336,57.5,50.75000000000001,57.5C53.16666666666667,57.5,55.583333333333336,57.5,58,57.5C60.416666666666664,57.5,62.833333333333336,57.5,65.25,57.5C67.66666666666667,57.5,70.08333333333333,57.5,72.5,57.5C74.91666666666667,57.5,77.33333333333333,57.5,79.75,57.5C82.16666666666667,57.5,84.58333333333333,57.5,87,57.5C89.41666666666667,57.5,91.83333333333333,57.5,94.25,57.5C96.66666666666667,57.5,99.08333333333334,57.5,101.50000000000001,57.5C103.91666666666667,57.5,106.33333333333334,57.5,108.75,57.5C111.16666666666667,57.5,113.58333333333333,57.5,116,57.5C118.41666666666667,57.5,120.83333333333334,57.5,123.25000000000001,57.5C125.66666666666667,57.5,128.08333333333334,57.5,130.5,57.5C132.91666666666666,57.5,135.33333333333334,57.5,137.75,57.5C140.16666666666666,57.5,142.58333333333334,57.5,145,57.5C147.41666666666666,57.5,149.83333333333334,57.5,152.25,57.5C154.66666666666666,57.5,157.08333333333334,57.5,159.5,57.5C161.91666666666666,57.5,164.33333333333334,57.5,166.75,57.5C169.16666666666666,57.5,171.58333333333334,57.5,174,57.5C176.41666666666666,57.5,178.83333333333334,57.5,181.25,57.5C183.66666666666666,57.5,186.08333333333334,57.5,188.5,57.5C190.91666666666666,57.5,193.33333333333334,57.5,195.75,57.5C198.16666666666669,57.5,200.58333333333334,57.5,203.00000000000003,57.5C205.41666666666669,57.5,207.83333333333331,57.5,210.24999999999997,57.5C212.66666666666666,57.5,215.08333333333331,57.5,217.5,57.5C219.91666666666666,57.5,222.33333333333334,57.5,224.75,57.5C227.16666666666666,57.5,229.58333333333334,57.5,232,57.5C234.41666666666666,57.5,236.83333333333334,57.5,239.25,57.5C241.66666666666669,57.5,244.08333333333334,57.5,246.50000000000003,57.5C248.91666666666669,57.5,251.33333333333331,57.5,253.74999999999997,57.5C256.16666666666663,57.5,258.5833333333333,57.5,261,57.5C263.4166666666667,57.5,265.8333333333333,57.5,268.25,57.5C270.6666666666667,57.5,273.0833333333333,57.5,275.5,57.5C277.9166666666667,57.5,280.3333333333333,57.5,282.75,57.5C285.1666666666667,57.5,287.5833333333333,57.5,290,57.5C292.4166666666667,57.5,294.8333333333333,57.5,297.25,57.5C299.6666666666667,57.5,302.0833333333333,57.5,304.5,57.5C306.9166666666667,57.5,309.3333333333333,57.5,311.75,57.5C314.1666666666667,57.5,316.5833333333333,57.5,319,57.5C321.4166666666667,57.5,323.8333333333333,57.5,326.25,57.5C328.6666666666667,57.5,331.0833333333333,57.5,333.5,57.5C335.9166666666667,57.5,338.3333333333333,57.5,340.75,57.5C343.1666666666667,57.5,345.5833333333333,57.5,348,57.5C350.4166666666667,57.5,352.8333333333333,57.5,355.25,57.5C357.6666666666667,57.5,360.0833333333333,57.5,362.5,57.5C364.9166666666667,57.5,367.3333333333333,57.5,369.75,57.5C372.1666666666667,57.5,374.5833333333333,57.5,377,57.5C379.4166666666667,57.5,381.8333333333333,57.5,384.25,57.5C386.6666666666667,57.5,389.0833333333333,57.5,391.5,57.5C393.9166666666667,57.5,396.33333333333337,57.5,398.75000000000006,57.5C401.16666666666674,57.5,403.58333333333337,57.5,406.00000000000006,57.5C408.4166666666667,57.5,410.8333333333333,57.5,413.24999999999994,57.5C415.66666666666663,57.5,418.08333333333326,57.5,420.49999999999994,57.5C422.91666666666663,57.5,425.3333333333333,57.5,427.75,57.5C430.1666666666667,57.5,432.5833333333333,57.5,435,57.5C437.4166666666667,57.5,439.8333333333333,57.5,442.25,57.5C444.6666666666667,57.5,447.0833333333333,57.5,449.5,57.5C451.9166666666667,57.5,454.3333333333333,57.5,456.75,57.5C459.1666666666667,57.5,461.5833333333333,57.5,464,57.5C466.4166666666667,57.5,468.8333333333333,57.5,471.25,57.5C473.6666666666667,57.5,476.0833333333333,57.5,478.5,57.5C480.9166666666667,57.5,483.33333333333337,57.5,485.75000000000006,57.5C488.16666666666674,57.5,490.58333333333337,57.5,493.00000000000006,57.5C495.4166666666667,57.5,497.8333333333333,57.5,500.24999999999994,57.5C502.66666666666663,57.5,505.08333333333326,57.5,507.49999999999994,57.5C509.91666666666663,57.5,512.3333333333333,57.5,514.75,57.5C517.1666666666666,57.5,519.5833333333334,57.5,522,57.5C524.4166666666666,57.5,526.8333333333334,57.5,529.25,57.5C531.6666666666666,57.5,534.0833333333334,57.5,536.5,57.5C538.9166666666666,57.5,541.3333333333334,57.5,543.75,57.5C546.1666666666666,57.5,548.5833333333334,57.5,551,57.5C553.4166666666666,57.5,555.8333333333334,57.5,558.25,57.5C560.6666666666666,57.5,563.0833333333334,57.5,565.5,57.5C567.9166666666666,57.5,570.3333333333334,57.5,572.75,57.5C575.1666666666666,57.5,577.5833333333334,57.5,580,57.5C582.4166666666666,57.5,584.8333333333334,57.5,587.25,57.5C589.6666666666666,57.5,592.0833333333334,57.5,594.5,57.5C596.9166666666666,57.5,599.3333333333334,57.5,601.75,57.5C604.1666666666666,57.5,606.5833333333334,57.5,609,57.5C611.4166666666666,57.5,613.8333333333334,57.5,616.25,57.5C618.6666666666666,57.5,621.0833333333334,57.5,623.5,57.5C625.9166666666666,57.5,628.3333333333334,57.5,630.75,57.5C633.1666666666666,57.5,635.5833333333334,57.5,638,57.5C640.4166666666666,57.5,642.8333333333334,57.5,645.25,57.5C647.6666666666666,57.5,650.0833333333334,57.5,652.5,57.5C654.9166666666666,57.5,657.3333333333334,57.5,659.75,57.5C662.1666666666666,57.5,664.5833333333334,57.5,667,57.5C669.4166666666666,57.5,671.8333333333334,57.5,674.25,57.5C676.6666666666666,57.5,679.0833333333334,57.5,681.5,57.5C683.9166666666666,57.5,686.3333333333334,57.5,688.75,57.5C691.1666666666666,57.5,693.5833333333334,57.5,696,57.5C698.4166666666666,57.5,700.8333333333334,57.5,703.25,57.5C705.6666666666666,57.5,708.0833333333334,57.5,710.5,57.5C712.9166666666666,57.5,715.3333333333334,57.5,717.75,57.5C720.1666666666666,57.5,722.5833333333334,57.5,725,57.5C727.4166666666666,57.5,729.8333333333334,57.5,732.25,57.5C734.6666666666666,57.5,737.0833333333334,57.5,739.5,57.5C741.9166666666666,57.5,744.3333333333334,57.5,746.75,57.5C749.1666666666666,57.5,751.5833333333334,57.5,754,57.5C756.4166666666666,57.5,758.8333333333334,57.5,761.25,57.5C763.6666666666666,57.5,766.0833333333334,57.5,768.5,57.5C770.9166666666666,57.5,773.3333333333334,57.5,775.75,57.5C778.1666666666666,57.5,780.5833333333334,57.5,783,57.5C785.4166666666667,57.5,787.8333333333334,57.5,790.2500000000001,57.5C792.6666666666667,57.5,795.0833333333335,57.5,797.5000000000001,57.5C799.9166666666667,57.5,802.3333333333335,57.5,804.7500000000001,57.5C807.1666666666667,57.5,809.5833333333335,57.5,812.0000000000001,57.5C814.4166666666667,57.5,816.8333333333333,57.5,819.2499999999999,57.5C821.6666666666665,57.5,824.0833333333333,57.5,826.4999999999999,57.5C828.9166666666665,57.5,831.3333333333333,57.5,833.7499999999999,57.5C836.1666666666665,57.5,838.5833333333333,57.5,840.9999999999999,57.5C843.4166666666666,57.5,845.8333333333333,57.5,848.25,57.5C850.6666666666666,57.5,853.0833333333334,57.5,855.5,57.5C857.9166666666666,57.5,860.3333333333334,57.5,862.75,57.5C865.1666666666666,57.5,867.5833333333334,57.5,870,57.5C872.4166666666666,57.5,874.8333333333334,57.5,877.25,57.5C879.6666666666666,57.5,882.0833333333334,57.5,884.5,57.5C886.9166666666666,57.5,889.3333333333334,57.5,891.75,57.5C894.1666666666666,57.5,896.5833333333334,57.5,899,57.5C901.4166666666666,57.5,903.8333333333334,57.5,906.25,57.5C908.6666666666666,57.5,911.0833333333334,57.5,913.5,57.5C915.9166666666666,57.5,918.3333333333334,57.5,920.75,57.5C923.1666666666666,57.5,925.5833333333334,57.5,928,57.5C930.4166666666666,57.5,932.8333333333334,57.5,935.25,57.5C937.6666666666666,57.5,940.0833333333334,57.5,942.5,57.5C944.9166666666666,57.5,947.3333333333334,57.5,949.75,57.5C952.1666666666666,57.5,954.5833333333334,57.5,957,57.5C959.4166666666666,57.5,961.8333333333334,57.5,964.25,57.5C966.6666666666667,57.5,969.0833333333334,57.5,971.5000000000001,57.5C973.9166666666667,57.5,976.3333333333335,57.5,978.7500000000001,57.5C981.1666666666667,57.5,983.5833333333335,57.5,986.0000000000001,57.5C988.4166666666667,57.5,990.8333333333335,57.5,993.2500000000001,57.5C995.6666666666667,57.5,998.0833333333333,57.5,1000.4999999999999,57.5C1002.9166666666665,57.5,1005.3333333333333,57.5,1007.7499999999999,57.5C1010.1666666666665,57.5,1012.5833333333333,57.5,1014.9999999999999,57.5C1017.4166666666665,57.5,1019.8333333333333,57.5,1022.2499999999999,57.5C1024.6666666666665,57.5,1027.0833333333333,57.5,1029.5,57.5C1031.9166666666667,57.5,1034.3333333333333,57.5,1036.75,57.5C1039.1666666666667,57.5,1041.5833333333333,57.5,1044,57.5C1046.4166666666667,57.5,1048.8333333333333,57.5,1051.25,57.5C1053.6666666666667,57.5,1056.0833333333333,57.5,1058.5,57.5C1060.9166666666667,57.5,1063.3333333333333,57.5,1065.75,57.5C1068.1666666666667,57.5,1070.5833333333333,57.5,1073,57.5C1075.4166666666667,57.5,1077.8333333333333,57.5,1080.25,57.5C1082.6666666666667,57.5,1085.0833333333333,57.5,1087.5,57.5C1089.9166666666667,57.5,1092.3333333333333,57.5,1094.75,57.5C1097.1666666666667,57.5,1099.5833333333333,57.5,1102,57.5C1104.4166666666667,57.5,1106.8333333333333,57.5,1109.25,57.5C1111.6666666666667,57.5,1114.0833333333333,57.5,1116.5,57.5C1118.9166666666667,57.5,1121.3333333333333,57.5,1123.75,57.5C1126.1666666666667,57.5,1128.5833333333333,57.5,1131,57.5C1133.4166666666667,57.5,1135.8333333333333,57.5,1138.25,57.5C1140.6666666666667,57.5,1143.0833333333333,57.5,1145.5,57.5C1147.9166666666667,57.5,1150.3333333333333,57.5,1152.75,57.5C1155.1666666666667,57.5,1157.5833333333333,57.5,1160,57.5C1162.4166666666667,57.5,1164.8333333333333,57.5,1167.25,57.5C1169.6666666666667,57.5,1172.0833333333333,57.5,1174.5,57.5C1176.9166666666667,57.5,1179.3333333333333,57.5,1181.75,57.5C1184.1666666666667,57.5,1186.5833333333333,57.5,1189,57.5C1191.4166666666667,57.5,1193.8333333333333,57.5,1196.25,57.5C1198.6666666666667,57.5,1201.0833333333333,57.5,1203.5,57.5C1205.9166666666667,57.5,1208.3333333333333,57.5,1210.75,57.5C1213.1666666666667,57.5,1215.5833333333333,57.5,1218,57.5C1220.4166666666667,57.5,1222.8333333333333,57.5,1225.25,57.5C1227.6666666666667,57.5,1230.0833333333333,57.5,1232.5,57.5C1234.9166666666667,57.5,1237.3333333333333,57.5,1239.75,57.5C1242.1666666666667,57.5,1244.5833333333333,57.5,1247,57.5C1249.4166666666667,57.5,1251.8333333333333,57.5,1254.25,57.5C1256.6666666666667,57.5,1259.0833333333333,57.5,1261.5,57.5C1263.9166666666667,57.5,1266.3333333333333,57.5,1268.75,57.5C1271.1666666666667,57.5,1273.5833333333333,57.5,1276,57.5C1278.4166666666667,57.5,1280.8333333333333,57.5,1283.25,57.5C1285.6666666666667,57.5,1288.0833333333333,57.5,1290.5,57.5C1292.9166666666667,57.5,1295.3333333333333,57.5,1297.75,57.5C1300.1666666666667,57.5,1302.5833333333333,57.5,1305,57.5C1307.4166666666667,57.5,1309.8333333333333,57.5,1312.25,57.5C1314.6666666666667,57.5,1317.0833333333333,57.5,1319.5,57.5C1321.9166666666667,57.5,1324.3333333333333,57.5,1326.75,57.5C1329.1666666666667,57.5,1331.5833333333333,57.5,1334,57.5C1336.4166666666667,57.5,1338.8333333333333,57.5,1341.25,57.5C1343.6666666666667,57.5,1346.0833333333333,57.5,1348.5,57.5C1350.9166666666667,57.5,1353.3333333333333,57.5,1355.75,57.5C1358.1666666666667,57.5,1360.5833333333333,57.5,1363,57.5C1365.4166666666667,57.5,1367.8333333333333,57.5,1370.25,57.5C1372.6666666666667,57.5,1375.0833333333333,57.5,1377.5,57.5C1379.9166666666667,57.5,1382.3333333333333,57.5,1384.75,57.5C1387.1666666666667,57.5,1389.5833333333333,57.5,1392,57.5C1394.4166666666667,57.5,1396.8333333333333,57.5,1399.25,57.5C1401.6666666666667,57.5,1404.0833333333333,57.5,1406.5,57.5C1408.9166666666667,57.5,1411.3333333333333,57.5,1413.75,57.5C1416.1666666666667,57.5,1418.5833333333333,57.5,1421,57.5C1423.4166666666667,57.5,1425.8333333333333,57.5,1428.25,57.5C1430.6666666666667,57.5,1433.0833333333333,57.5,1435.5,57.5C1437.9166666666667,57.5,1440.3333333333333,57.5,1442.75,57.5C1445.1666666666667,57.5,1447.5833333333333,57.5,1450,57.5" fill="transparent" stroke-linecap="round" stroke="#E7C6DF" stroke-width="2"></path><g class="visx-group visx-axis visx-axis-bottom" transform="translate(0, 115)"><g class="visx-group visx-axis-tick" transform="translate(0, 0)"><line class="visx-line" x1="0" y1="0" x2="0" y2="8" fill="transparent" shape-rendering="crispEdges" stroke="#000" stroke-width="0" stroke-linecap="square"></line><svg x="0" y="0" font-size="10" style="overflow:visible"><text transform="" x="0" y="18" fill="#000" font-size="10" text-anchor="middle"><tspan x="0" dy="0em">0%</tspan></text></svg></g><g class="visx-group visx-axis-tick" transform="translate(0, 0)"><line class="visx-line" x1="362.5" y1="0" x2="362.5" y2="8" fill="transparent" shape-rendering="crispEdges" stroke="#000" stroke-width="0" stroke-linecap="square"></line><svg x="0" y="0" font-size="10" style="overflow:visible"><text transform="" x="362.5" y="18" fill="#000" font-size="10" text-anchor="middle"><tspan x="362.5" dy="0em">25%</tspan></text></svg></g><g class="visx-group visx-axis-tick" transform="translate(0, 0)"><line class="visx-line" x1="725" y1="0" x2="725" y2="8" fill="transparent" shape-rendering="crispEdges" stroke="#000" stroke-width="0" stroke-linecap="square"></line><svg x="0" y="0" font-size="10" style="overflow:visible"><text transform="" x="725" y="18" fill="#000" font-size="10" text-anchor="middle"><tspan x="725" dy="0em">50%</tspan></text></svg></g><g class="visx-group visx-axis-tick" transform="translate(0, 0)"><line class="visx-line" x1="1087.5" y1="0" x2="1087.5" y2="8" fill="transparent" shape-rendering="crispEdges" stroke="#000" stroke-width="0" stroke-linecap="square"></line><svg x="0" y="0" font-size="10" style="overflow:visible"><text transform="" x="1087.5" y="18" fill="#000" font-size="10" text-anchor="middle"><tspan x="1087.5" dy="0em">75%</tspan></text></svg></g><g class="visx-group visx-axis-tick" transform="translate(0, 0)"><line class="visx-line" x1="1450" y1="0" x2="1450" y2="8" fill="transparent" shape-rendering="crispEdges" stroke="#000" stroke-width="0" stroke-linecap="square"></line><svg x="0" y="0" font-size="10" style="overflow:visible"><text transform="" x="1450" y="18" fill="#000" font-size="10" text-anchor="middle"><tspan x="1450" dy="0em">100%</tspan></text></svg></g><line class="visx-line visx-axis-line" x1="0.5" y1="0" x2="1450.5" y2="0" fill="transparent" shape-rendering="crispEdges" stroke="#222" stroke-width="0"></line></g><g class="visx-group visx-axis visx-axis-left" transform="translate(0, 0)"><g class="visx-group visx-axis-tick" transform="translate(0, 0)"><line class="visx-line" x1="0" y1="57.5" x2="-8" y2="57.5" fill="transparent" shape-rendering="crispEdges" stroke="#222" stroke-width="0" stroke-linecap="square"></line><svg x="-30" y="0" font-size="8" style="overflow:visible"><text transform="" x="-8" y="57.5" fill="#000" font-size="8" text-anchor="start"><tspan x="-8" dy="0em">0%</tspan></text></svg></g><line class="visx-line visx-axis-line" x1="0" y1="115.5" x2="0" y2="0.5" fill="transparent" shape-rendering="crispEdges" stroke="#222" stroke-width="0"></line></g><rect class="visx-bar" width="1450" height="115" fill="transparent"></rect><line class="visx-line" x1="0" y1="28" x2="0" y2="115" fill="transparent" shape-rendering="crispEdges" stroke="#0062D2" stroke-width="1" pointer-events="none" stroke-dasharray="5,2"></line><svg x="0" y="0" font-size="10px" style="overflow:visible"><text transform="" x="0" y="20" font-size="10px" fill="#fff" stroke="#fff" stroke-width="0.8em" text-anchor="middle"><tspan x="0" dy="0.355em">Optimal 0%</tspan></text></svg><svg x="0" y="0" font-size="10px" style="overflow:visible"><text transform="" x="0" y="20" font-size="10px" fill="#62677B" text-anchor="middle"><tspan x="0" dy="0.355em">Optimal 0%</tspan></text></svg></g></svg>