<?xml version="1.0"?><svg xmlns="http://www.w3.org/2000/svg" xmlns:xlink= "http://www.w3.org/1999/xlink" style="background: white;" width="1500" height="185"> <g style="color: black; font-size: 13px; font-family: sans-serif; transform: translate(18px, 25px);"><g><circle r="3" cx="-6" cy="-5" style="fill: #B6509E" /><text>Borrow APR, variable</text></g><g style="transform: translateX(150px);"><circle r="3" cx="-6" cy="-5" style="fill: rgb(231, 198, 223)" /><text>Borrow APR, stable</text></g><g style="transform: translateX(290px);"><circle r="3" cx="-6" cy="-5" style="fill: rgb(0, 98, 210)" /><text>Utilization Rate</text></g></g><g class="visx-group" transform="translate(40, 50)"><g class="visx-group visx-rows" transform="translate(0, 0)"><line class="visx-line" x1="0" y1="115" x2="1450" y2="115" fill="transparent" shape-rendering="crispEdges" stroke="#000" stroke-width="1" stroke-dasharray="3,3" pointer-events="none"></line><line class="visx-line" x1="0" y1="79.0625" x2="1450" y2="79.0625" fill="transparent" shape-rendering="crispEdges" stroke="#000" stroke-width="1" stroke-dasharray="3,3" pointer-events="none"></line><line class="visx-line" x1="0" y1="43.125" x2="1450" y2="43.125" fill="transparent" shape-rendering="crispEdges" stroke="#000" stroke-width="1" stroke-dasharray="3,3" pointer-events="none"></line><line class="visx-line" x1="0" y1="7.1875" x2="1450" y2="7.1875" fill="transparent" shape-rendering="crispEdges" stroke="#000" stroke-width="1" stroke-dasharray="3,3" pointer-events="none"></line></g><path class="visx-linepath" d="M0,20.823436199750955C2.4166666666666665,20.823436199750955,4.833333333333334,20.823436199750955,7.25,20.823436199750955C9.666666666666666,20.823436199750955,12.083333333333334,20.823436199750955,14.5,20.823436199750955C16.916666666666668,20.823436199750955,19.333333333333332,20.823436199750955,21.75,20.823436199750955C24.166666666666668,20.823436199750955,26.583333333333332,20.823436199750955,29,20.823436199750955C31.416666666666668,20.823436199750955,33.833333333333336,20.823436199750955,36.25,20.823436199750955C38.666666666666664,20.823436199750955,41.083333333333336,20.823436199750955,43.5,20.823436199750955C45.91666666666667,20.823436199750955,48.333333333333336,20.823436199750955,50.75000000000001,20.823436199750955C53.16666666666667,20.823436199750955,55.583333333333336,20.823436199750955,58,20.823436199750955C60.416666666666664,20.823436199750955,62.833333333333336,20.823436199750955,65.25,20.823436199750955C67.66666666666667,20.823436199750955,70.08333333333333,20.823436199750955,72.5,20.823436199750955C74.91666666666667,20.823436199750955,77.33333333333333,20.823436199750955,79.75,20.823436199750955C82.16666666666667,20.823436199750955,84.58333333333333,20.823436199750955,87,20.823436199750955C89.41666666666667,20.823436199750955,91.83333333333333,20.823436199750955,94.25,20.823436199750955C96.66666666666667,20.823436199750955,99.08333333333334,20.823436199750955,101.50000000000001,20.823436199750955C103.91666666666667,20.823436199750955,106.33333333333334,20.823436199750955,108.75,20.823436199750955C111.16666666666667,20.823436199750955,113.58333333333333,20.823436199750955,116,20.823436199750955C118.41666666666667,20.823436199750955,120.83333333333334,20.823436199750955,123.25000000000001,20.823436199750955C125.66666666666667,20.823436199750955,128.08333333333334,20.823436199750955,130.5,20.823436199750955C132.91666666666666,20.823436199750955,135.33333333333334,20.823436199750955,137.75,20.823436199750955C140.16666666666666,20.823436199750955,142.58333333333334,20.823436199750955,145,20.823436199750955C147.41666666666666,20.823436199750955,149.83333333333334,20.823436199750955,152.25,20.823436199750955C154.66666666666666,20.823436199750955,157.08333333333334,20.823436199750955,159.5,20.823436199750955C161.91666666666666,20.823436199750955,164.33333333333334,20.823436199750955,166.75,20.823436199750955C169.16666666666666,20.823436199750955,171.58333333333334,20.823436199750955,174,20.823436199750955C176.41666666666666,20.823436199750955,178.83333333333334,20.823436199750955,181.25,20.823436199750955C183.66666666666666,20.823436199750955,186.08333333333334,20.823436199750955,188.5,20.823436199750955C190.91666666666666,20.823436199750955,193.33333333333334,20.823436199750955,195.75,20.823436199750955C198.16666666666669,20.823436199750955,200.58333333333334,20.823436199750955,203.00000000000003,20.823436199750955C205.41666666666669,20.823436199750955,207.83333333333331,20.823436199750955,210.24999999999997,20.823436199750955C212.66666666666666,20.823436199750955,215.08333333333331,20.823436199750955,217.5,20.823436199750955C219.91666666666666,20.823436199750955,222.33333333333334,20.823436199750955,224.75,20.823436199750955C227.16666666666666,20.823436199750955,229.58333333333334,20.823436199750955,232,20.823436199750955C234.41666666666666,20.823436199750955,236.83333333333334,20.823436199750955,239.25,20.823436199750955C241.66666666666669,20.823436199750955,244.08333333333334,20.823436199750955,246.50000000000003,20.823436199750955C248.91666666666669,20.823436199750955,251.33333333333331,20.823436199750955,253.74999999999997,20.823436199750955C256.16666666666663,20.823436199750955,258.5833333333333,20.823436199750955,261,20.823436199750955C263.4166666666667,20.823436199750955,265.8333333333333,20.823436199750955,268.25,20.823436199750955C270.6666666666667,20.823436199750955,273.0833333333333,20.823436199750955,275.5,20.823436199750955C277.9166666666667,20.823436199750955,280.3333333333333,20.823436199750955,282.75,20.823436199750955C285.1666666666667,20.823436199750955,287.5833333333333,20.823436199750955,290,20.823436199750955C292.4166666666667,20.823436199750955,294.8333333333333,20.823436199750955,297.25,20.823436199750955C299.6666666666667,20.823436199750955,302.0833333333333,20.823436199750955,304.5,20.823436199750955C306.9166666666667,20.823436199750955,309.3333333333333,20.823436199750955,311.75,20.823436199750955C314.1666666666667,20.823436199750955,316.5833333333333,20.823436199750955,319,20.823436199750955C321.4166666666667,20.823436199750955,323.8333333333333,20.823436199750955,326.25,20.823436199750955C328.6666666666667,20.823436199750955,331.0833333333333,20.823436199750955,333.5,20.823436199750955C335.9166666666667,20.823436199750955,338.3333333333333,20.823436199750955,340.75,20.823436199750955C343.1666666666667,20.823436199750955,345.5833333333333,20.823436199750955,348,20.823436199750955C350.4166666666667,20.823436199750955,352.8333333333333,20.823436199750955,355.25,20.823436199750955C357.6666666666667,20.823436199750955,360.0833333333333,20.823436199750955,362.5,20.823436199750955C364.9166666666667,20.823436199750955,367.3333333333333,20.823436199750955,369.75,20.823436199750955C372.1666666666667,20.823436199750955,374.5833333333333,20.823436199750955,377,20.823436199750955C379.4166666666667,20.823436199750955,381.8333333333333,20.823436199750955,384.25,20.823436199750955C386.6666666666667,20.823436199750955,389.0833333333333,20.823436199750955,391.5,20.823436199750955C393.9166666666667,20.823436199750955,396.33333333333337,20.823436199750955,398.75000000000006,20.823436199750955C401.16666666666674,20.823436199750955,403.58333333333337,20.823436199750955,406.00000000000006,20.823436199750955C408.4166666666667,20.823436199750955,410.8333333333333,20.823436199750955,413.24999999999994,20.823436199750955C415.66666666666663,20.823436199750955,418.08333333333326,20.823436199750955,420.49999999999994,20.823436199750955C422.91666666666663,20.823436199750955,425.3333333333333,20.823436199750955,427.75,20.823436199750955C430.1666666666667,20.823436199750955,432.5833333333333,20.823436199750955,435,20.823436199750955C437.4166666666667,20.823436199750955,439.8333333333333,20.823436199750955,442.25,20.823436199750955C444.6666666666667,20.823436199750955,447.0833333333333,20.823436199750955,449.5,20.823436199750955C451.9166666666667,20.823436199750955,454.3333333333333,20.823436199750955,456.75,20.823436199750955C459.1666666666667,20.823436199750955,461.5833333333333,20.823436199750955,464,20.823436199750955C466.4166666666667,20.823436199750955,468.8333333333333,20.823436199750955,471.25,20.823436199750955C473.6666666666667,20.823436199750955,476.0833333333333,20.823436199750955,478.5,20.823436199750955C480.9166666666667,20.823436199750955,483.33333333333337,20.823436199750955,485.75000000000006,20.823436199750955C488.16666666666674,20.823436199750955,490.58333333333337,20.823436199750955,493.00000000000006,20.823436199750955C495.4166666666667,20.823436199750955,497.8333333333333,20.823436199750955,500.24999999999994,20.823436199750955C502.66666666666663,20.823436199750955,505.08333333333326,20.823436199750955,507.49999999999994,20.823436199750955C509.91666666666663,20.823436199750955,512.3333333333333,20.823436199750955,514.75,20.823436199750955C517.1666666666666,20.823436199750955,519.5833333333334,20.823436199750955,522,20.823436199750955C524.4166666666666,20.823436199750955,526.8333333333334,20.823436199750955,529.25,20.823436199750955C531.6666666666666,20.823436199750955,534.0833333333334,20.823436199750955,536.5,20.823436199750955C538.9166666666666,20.823436199750955,541.3333333333334,20.823436199750955,543.75,20.823436199750955C546.1666666666666,20.823436199750955,548.5833333333334,20.823436199750955,551,20.823436199750955C553.4166666666666,20.823436199750955,555.8333333333334,20.823436199750955,558.25,20.823436199750955C560.6666666666666,20.823436199750955,563.0833333333334,20.823436199750955,565.5,20.823436199750955C567.9166666666666,20.823436199750955,570.3333333333334,20.823436199750955,572.75,20.823436199750955C575.1666666666666,20.823436199750955,577.5833333333334,20.823436199750955,580,20.823436199750955C582.4166666666666,20.823436199750955,584.8333333333334,20.823436199750955,587.25,20.823436199750955C589.6666666666666,20.823436199750955,592.0833333333334,20.823436199750955,594.5,20.823436199750955C596.9166666666666,20.823436199750955,599.3333333333334,20.823436199750955,601.75,20.823436199750955C604.1666666666666,20.823436199750955,606.5833333333334,20.823436199750955,609,20.823436199750955C611.4166666666666,20.823436199750955,613.8333333333334,20.823436199750955,616.25,20.823436199750955C618.6666666666666,20.823436199750955,621.0833333333334,20.823436199750955,623.5,20.823436199750955C625.9166666666666,20.823436199750955,628.3333333333334,20.823436199750955,630.75,20.823436199750955C633.1666666666666,20.823436199750955,635.5833333333334,20.823436199750955,638,20.823436199750955C640.4166666666666,20.823436199750955,642.8333333333334,20.823436199750955,645.25,20.823436199750955C647.6666666666666,20.823436199750955,650.0833333333334,20.823436199750955,652.5,20.823436199750955C654.9166666666666,20.823436199750955,657.3333333333334,20.823436199750955,659.75,20.823436199750955C662.1666666666666,20.823436199750955,664.5833333333334,20.823436199750955,667,20.823436199750955C669.4166666666666,20.823436199750955,671.8333333333334,20.823436199750955,674.25,20.823436199750955C676.6666666666666,20.823436199750955,679.0833333333334,20.823436199750955,681.5,20.823436199750955C683.9166666666666,20.823436199750955,686.3333333333334,20.823436199750955,688.75,20.823436199750955C691.1666666666666,20.823436199750955,693.5833333333334,20.823436199750955,696,20.823436199750955C698.4166666666666,20.823436199750955,700.8333333333334,20.823436199750955,703.25,20.823436199750955C705.6666666666666,20.823436199750955,708.0833333333334,20.823436199750955,710.5,20.823436199750955C712.9166666666666,20.823436199750955,715.3333333333334,20.823436199750955,717.75,20.823436199750955C720.1666666666666,20.823436199750955,722.5833333333334,20.823436199750955,725,20.823436199750955C727.4166666666666,20.823436199750955,729.8333333333334,20.823436199750955,732.25,20.823436199750955C734.6666666666666,20.823436199750955,737.0833333333334,20.823436199750955,739.5,20.823436199750955C741.9166666666666,20.823436199750955,744.3333333333334,20.823436199750955,746.75,20.823436199750955C749.1666666666666,20.823436199750955,751.5833333333334,20.823436199750955,754,20.823436199750955C756.4166666666666,20.823436199750955,758.8333333333334,20.823436199750955,761.25,20.823436199750955C763.6666666666666,20.823436199750955,766.0833333333334,20.823436199750955,768.5,20.823436199750955C770.9166666666666,20.823436199750955,773.3333333333334,20.823436199750955,775.75,20.823436199750955C778.1666666666666,20.823436199750955,780.5833333333334,20.823436199750955,783,20.823436199750955C785.4166666666667,20.823436199750955,787.8333333333334,20.823436199750955,790.2500000000001,20.823436199750955C792.6666666666667,20.823436199750955,795.0833333333335,20.823436199750955,797.5000000000001,20.823436199750955C799.9166666666667,20.823436199750955,802.3333333333335,20.823436199750955,804.7500000000001,20.823436199750955C807.1666666666667,20.823436199750955,809.5833333333335,20.823436199750955,812.0000000000001,20.823436199750955C814.4166666666667,20.823436199750955,816.8333333333333,20.823436199750955,819.2499999999999,20.823436199750955C821.6666666666665,20.823436199750955,824.0833333333333,20.823436199750955,826.4999999999999,20.823436199750955C828.9166666666665,20.823436199750955,831.3333333333333,20.823436199750955,833.7499999999999,20.823436199750955C836.1666666666665,20.823436199750955,838.5833333333333,20.823436199750955,840.9999999999999,20.823436199750955C843.4166666666666,20.823436199750955,845.8333333333333,20.823436199750955,848.25,20.823436199750955C850.6666666666666,20.823436199750955,853.0833333333334,20.823436199750955,855.5,20.823436199750955C857.9166666666666,20.823436199750955,860.3333333333334,20.823436199750955,862.75,20.823436199750955C865.1666666666666,20.823436199750955,867.5833333333334,20.823436199750955,870,20.823436199750955C872.4166666666666,20.823436199750955,874.8333333333334,20.823436199750955,877.25,20.823436199750955C879.6666666666666,20.823436199750955,882.0833333333334,20.823436199750955,884.5,20.823436199750955C886.9166666666666,20.823436199750955,889.3333333333334,20.823436199750955,891.75,20.823436199750955C894.1666666666666,20.823436199750955,896.5833333333334,20.823436199750955,899,20.823436199750955C901.4166666666666,20.823436199750955,903.8333333333334,20.823436199750955,906.25,20.823436199750955C908.6666666666666,20.823436199750955,911.0833333333334,20.823436199750955,913.5,20.823436199750955C915.9166666666666,20.823436199750955,918.3333333333334,20.823436199750955,920.75,20.823436199750955C923.1666666666666,20.823436199750955,925.5833333333334,20.823436199750955,928,20.823436199750955C930.4166666666666,20.823436199750955,932.8333333333334,20.823436199750955,935.25,20.823436199750955C937.6666666666666,20.823436199750955,940.0833333333334,20.823436199750955,942.5,20.823436199750955C944.9166666666666,20.823436199750955,947.3333333333334,20.823436199750955,949.75,20.823436199750955C952.1666666666666,20.823436199750955,954.5833333333334,20.823436199750955,957,20.823436199750955C959.4166666666666,20.823436199750955,961.8333333333334,20.823436199750955,964.25,20.823436199750955C966.6666666666667,20.823436199750955,969.0833333333334,20.823436199750955,971.5000000000001,20.823436199750955C973.9166666666667,20.823436199750955,976.3333333333335,20.823436199750955,978.7500000000001,20.823436199750955C981.1666666666667,20.823436199750955,983.5833333333335,20.823436199750955,986.0000000000001,20.823436199750955C988.4166666666667,20.823436199750955,990.8333333333335,20.823436199750955,993.2500000000001,20.823436199750955C995.6666666666667,20.823436199750955,998.0833333333333,20.823436199750955,1000.4999999999999,20.823436199750955C1002.9166666666665,20.823436199750955,1005.3333333333333,20.823436199750955,1007.7499999999999,20.823436199750955C1010.1666666666665,20.823436199750955,1012.5833333333333,20.823436199750955,1014.9999999999999,20.823436199750955C1017.4166666666665,20.823436199750955,1019.8333333333333,20.823436199750955,1022.2499999999999,20.823436199750955C1024.6666666666665,20.823436199750955,1027.0833333333333,20.823436199750955,1029.5,20.823436199750955C1031.9166666666667,20.823436199750955,1034.3333333333333,20.823436199750955,1036.75,20.823436199750955C1039.1666666666667,20.823436199750955,1041.5833333333333,20.823436199750955,1044,20.823436199750955C1046.4166666666667,20.823436199750955,1048.8333333333333,20.823436199750955,1051.25,20.823436199750955C1053.6666666666667,20.823436199750955,1056.0833333333333,20.823436199750955,1058.5,20.823436199750955C1060.9166666666667,20.823436199750955,1063.3333333333333,20.823436199750955,1065.75,20.823436199750955C1068.1666666666667,20.823436199750955,1070.5833333333333,20.823436199750955,1073,20.823436199750955C1075.4166666666667,20.823436199750955,1077.8333333333333,20.823436199750955,1080.25,20.823436199750955C1082.6666666666667,20.823436199750955,1085.0833333333333,20.823436199750955,1087.5,20.823436199750955C1089.9166666666667,20.823436199750955,1092.3333333333333,20.823436199750955,1094.75,20.823436199750955C1097.1666666666667,20.823436199750955,1099.5833333333333,20.823436199750955,1102,20.823436199750955C1104.4166666666667,20.823436199750955,1106.8333333333333,20.823436199750955,1109.25,20.823436199750955C1111.6666666666667,20.823436199750955,1114.0833333333333,20.823436199750955,1116.5,20.823436199750955C1118.9166666666667,20.823436199750955,1121.3333333333333,20.823436199750955,1123.75,20.823436199750955C1126.1666666666667,20.823436199750955,1128.5833333333333,20.823436199750955,1131,20.823436199750955C1133.4166666666667,20.823436199750955,1135.8333333333333,20.823436199750955,1138.25,20.823436199750955C1140.6666666666667,20.823436199750955,1143.0833333333333,20.823436199750955,1145.5,20.823436199750955C1147.9166666666667,20.823436199750955,1150.3333333333333,20.823436199750955,1152.75,20.823436199750955C1155.1666666666667,20.823436199750955,1157.5833333333333,20.823436199750955,1160,20.823436199750955C1162.4166666666667,20.823436199750955,1164.8333333333333,20.823436199750955,1167.25,20.823436199750955C1169.6666666666667,20.823436199750955,1172.0833333333333,20.823436199750955,1174.5,20.823436199750955C1176.9166666666667,20.823436199750955,1179.3333333333333,20.823436199750955,1181.75,20.823436199750955C1184.1666666666667,20.823436199750955,1186.5833333333333,20.823436199750955,1189,20.823436199750955C1191.4166666666667,20.823436199750955,1193.8333333333333,20.823436199750955,1196.25,20.823436199750955C1198.6666666666667,20.823436199750955,1201.0833333333333,20.823436199750955,1203.5,20.823436199750955C1205.9166666666667,20.823436199750955,1208.3333333333333,20.823436199750955,1210.75,20.823436199750955C1213.1666666666667,20.823436199750955,1215.5833333333333,20.823436199750955,1218,20.823436199750955C1220.4166666666667,20.823436199750955,1222.8333333333333,20.823436199750955,1225.25,20.823436199750955C1227.6666666666667,20.823436199750955,1230.0833333333333,20.823436199750955,1232.5,20.823436199750955C1234.9166666666667,20.823436199750955,1237.3333333333333,20.823436199750955,1239.75,20.823436199750955C1242.1666666666667,20.823436199750955,1244.5833333333333,20.823436199750955,1247,20.823436199750955C1249.4166666666667,20.823436199750955,1251.8333333333333,20.823436199750955,1254.25,20.823436199750955C1256.6666666666667,20.823436199750955,1259.0833333333333,20.823436199750955,1261.5,20.823436199750955C1263.9166666666667,20.823436199750955,1266.3333333333333,20.823436199750955,1268.75,20.823436199750955C1271.1666666666667,20.823436199750955,1273.5833333333333,20.823436199750955,1276,20.823436199750955C1278.4166666666667,20.823436199750955,1280.8333333333333,20.823436199750955,1283.25,20.823436199750955C1285.6666666666667,20.823436199750955,1288.0833333333333,20.823436199750955,1290.5,20.823436199750955C1292.9166666666667,20.823436199750955,1295.3333333333333,20.823436199750955,1297.75,20.823436199750955C1300.1666666666667,20.823436199750955,1302.5833333333333,20.823436199750955,1305,20.823436199750955C1307.4166666666667,20.823436199750955,1309.8333333333333,20.823436199750955,1312.25,20.823436199750955C1314.6666666666667,20.823436199750955,1317.0833333333333,20.823436199750955,1319.5,20.823436199750955C1321.9166666666667,20.823436199750955,1324.3333333333333,20.823436199750955,1326.75,20.823436199750955C1329.1666666666667,20.823436199750955,1331.5833333333333,20.823436199750955,1334,20.823436199750955C1336.4166666666667,20.823436199750955,1338.8333333333333,20.823436199750955,1341.25,20.823436199750955C1343.6666666666667,20.823436199750955,1346.0833333333333,20.823436199750955,1348.5,20.823436199750955C1350.9166666666667,20.823436199750955,1353.3333333333333,20.823436199750955,1355.75,20.823436199750955C1358.1666666666667,20.823436199750955,1360.5833333333333,20.823436199750955,1363,20.823436199750955C1365.4166666666667,20.823436199750955,1367.8333333333333,20.823436199750955,1370.25,20.823436199750955C1372.6666666666667,20.823436199750955,1375.0833333333333,20.823436199750955,1377.5,20.823436199750955C1379.9166666666667,20.823436199750955,1382.3333333333333,20.823436199750955,1384.75,20.823436199750955C1387.1666666666667,20.823436199750955,1389.5833333333333,20.823436199750955,1392,20.823436199750955C1394.4166666666667,20.823436199750955,1396.8333333333333,20.823436199750955,1399.25,20.823436199750955C1401.6666666666667,20.823436199750955,1404.0833333333333,20.823436199750955,1406.5,20.823436199750955C1408.9166666666667,20.823436199750955,1411.3333333333333,20.823436199750955,1413.75,20.823436199750955C1416.1666666666667,20.823436199750955,1418.5833333333333,20.823436199750955,1421,20.823436199750955C1423.4166666666667,20.823436199750955,1425.8333333333333,20.823436199750955,1428.25,20.823436199750955C1430.6666666666667,20.823436199750955,1433.0833333333333,20.823436199750955,1435.5,20.823436199750955C1437.9166666666667,20.823436199750955,1440.3333333333333,20.823436199750955,1442.75,20.823436199750955C1445.1666666666667,20.823436199750955,1447.5833333333333,10.411718099875475,1450,0" fill="transparent" stroke-linecap="round" stroke="#B6509E" stroke-width="2"></path><path class="visx-linepath" d="M0,115C2.4166666666666665,115,4.833333333333334,115,7.25,115C9.666666666666666,115,12.083333333333334,115,14.5,115C16.916666666666668,115,19.333333333333332,115,21.75,115C24.166666666666668,115,26.583333333333332,115,29,115C31.416666666666668,115,33.833333333333336,115,36.25,115C38.666666666666664,115,41.083333333333336,115,43.5,115C45.91666666666667,115,48.333333333333336,115,50.75000000000001,115C53.16666666666667,115,55.583333333333336,115,58,115C60.416666666666664,115,62.833333333333336,115,65.25,115C67.66666666666667,115,70.08333333333333,115,72.5,115C74.91666666666667,115,77.33333333333333,115,79.75,115C82.16666666666667,115,84.58333333333333,115,87,115C89.41666666666667,115,91.83333333333333,115,94.25,115C96.66666666666667,115,99.08333333333334,115,101.50000000000001,115C103.91666666666667,115,106.33333333333334,115,108.75,115C111.16666666666667,115,113.58333333333333,115,116,115C118.41666666666667,115,120.83333333333334,115,123.25000000000001,115C125.66666666666667,115,128.08333333333334,115,130.5,115C132.91666666666666,115,135.33333333333334,115,137.75,115C140.16666666666666,115,142.58333333333334,115,145,115C147.41666666666666,115,149.83333333333334,115,152.25,115C154.66666666666666,115,157.08333333333334,115,159.5,115C161.91666666666666,115,164.33333333333334,115,166.75,115C169.16666666666666,115,171.58333333333334,115,174,115C176.41666666666666,115,178.83333333333334,115,181.25,115C183.66666666666666,115,186.08333333333334,115,188.5,115C190.91666666666666,115,193.33333333333334,115,195.75,115C198.16666666666669,115,200.58333333333334,115,203.00000000000003,115C205.41666666666669,115,207.83333333333331,115,210.24999999999997,115C212.66666666666666,115,215.08333333333331,115,217.5,115C219.91666666666666,115,222.33333333333334,115,224.75,115C227.16666666666666,115,229.58333333333334,115,232,115C234.41666666666666,115,236.83333333333334,115,239.25,115C241.66666666666669,115,244.08333333333334,115,246.50000000000003,115C248.91666666666669,115,251.33333333333331,115,253.74999999999997,115C256.16666666666663,115,258.5833333333333,115,261,115C263.4166666666667,115,265.8333333333333,115,268.25,115C270.6666666666667,115,273.0833333333333,115,275.5,115C277.9166666666667,115,280.3333333333333,115,282.75,115C285.1666666666667,115,287.5833333333333,115,290,115C292.4166666666667,115,294.8333333333333,115,297.25,115C299.6666666666667,115,302.0833333333333,115,304.5,115C306.9166666666667,115,309.3333333333333,115,311.75,115C314.1666666666667,115,316.5833333333333,115,319,115C321.4166666666667,115,323.8333333333333,115,326.25,115C328.6666666666667,115,331.0833333333333,115,333.5,115C335.9166666666667,115,338.3333333333333,115,340.75,115C343.1666666666667,115,345.5833333333333,115,348,115C350.4166666666667,115,352.8333333333333,115,355.25,115C357.6666666666667,115,360.0833333333333,115,362.5,115C364.9166666666667,115,367.3333333333333,115,369.75,115C372.1666666666667,115,374.5833333333333,115,377,115C379.4166666666667,115,381.8333333333333,115,384.25,115C386.6666666666667,115,389.0833333333333,115,391.5,115C393.9166666666667,115,396.33333333333337,115,398.75000000000006,115C401.16666666666674,115,403.58333333333337,115,406.00000000000006,115C408.4166666666667,115,410.8333333333333,115,413.24999999999994,115C415.66666666666663,115,418.08333333333326,115,420.49999999999994,115C422.91666666666663,115,425.3333333333333,115,427.75,115C430.1666666666667,115,432.5833333333333,115,435,115C437.4166666666667,115,439.8333333333333,115,442.25,115C444.6666666666667,115,447.0833333333333,115,449.5,115C451.9166666666667,115,454.3333333333333,115,456.75,115C459.1666666666667,115,461.5833333333333,115,464,115C466.4166666666667,115,468.8333333333333,115,471.25,115C473.6666666666667,115,476.0833333333333,115,478.5,115C480.9166666666667,115,483.33333333333337,115,485.75000000000006,115C488.16666666666674,115,490.58333333333337,115,493.00000000000006,115C495.4166666666667,115,497.8333333333333,115,500.24999999999994,115C502.66666666666663,115,505.08333333333326,115,507.49999999999994,115C509.91666666666663,115,512.3333333333333,115,514.75,115C517.1666666666666,115,519.5833333333334,115,522,115C524.4166666666666,115,526.8333333333334,115,529.25,115C531.6666666666666,115,534.0833333333334,115,536.5,115C538.9166666666666,115,541.3333333333334,115,543.75,115C546.1666666666666,115,548.5833333333334,115,551,115C553.4166666666666,115,555.8333333333334,115,558.25,115C560.6666666666666,115,563.0833333333334,115,565.5,115C567.9166666666666,115,570.3333333333334,115,572.75,115C575.1666666666666,115,577.5833333333334,115,580,115C582.4166666666666,115,584.8333333333334,115,587.25,115C589.6666666666666,115,592.0833333333334,115,594.5,115C596.9166666666666,115,599.3333333333334,115,601.75,115C604.1666666666666,115,606.5833333333334,115,609,115C611.4166666666666,115,613.8333333333334,115,616.25,115C618.6666666666666,115,621.0833333333334,115,623.5,115C625.9166666666666,115,628.3333333333334,115,630.75,115C633.1666666666666,115,635.5833333333334,115,638,115C640.4166666666666,115,642.8333333333334,115,645.25,115C647.6666666666666,115,650.0833333333334,115,652.5,115C654.9166666666666,115,657.3333333333334,115,659.75,115C662.1666666666666,115,664.5833333333334,115,667,115C669.4166666666666,115,671.8333333333334,115,674.25,115C676.6666666666666,115,679.0833333333334,115,681.5,115C683.9166666666666,115,686.3333333333334,115,688.75,115C691.1666666666666,115,693.5833333333334,115,696,115C698.4166666666666,115,700.8333333333334,115,703.25,115C705.6666666666666,115,708.0833333333334,115,710.5,115C712.9166666666666,115,715.3333333333334,115,717.75,115C720.1666666666666,115,722.5833333333334,115,725,115C727.4166666666666,115,729.8333333333334,115,732.25,115C734.6666666666666,115,737.0833333333334,115,739.5,115C741.9166666666666,115,744.3333333333334,115,746.75,115C749.1666666666666,115,751.5833333333334,115,754,115C756.4166666666666,115,758.8333333333334,115,761.25,115C763.6666666666666,115,766.0833333333334,115,768.5,115C770.9166666666666,115,773.3333333333334,115,775.75,115C778.1666666666666,115,780.5833333333334,115,783,115C785.4166666666667,115,787.8333333333334,115,790.2500000000001,115C792.6666666666667,115,795.0833333333335,115,797.5000000000001,115C799.9166666666667,115,802.3333333333335,115,804.7500000000001,115C807.1666666666667,115,809.5833333333335,115,812.0000000000001,115C814.4166666666667,115,816.8333333333333,115,819.2499999999999,115C821.6666666666665,115,824.0833333333333,115,826.4999999999999,115C828.9166666666665,115,831.3333333333333,115,833.7499999999999,115C836.1666666666665,115,838.5833333333333,115,840.9999999999999,115C843.4166666666666,115,845.8333333333333,115,848.25,115C850.6666666666666,115,853.0833333333334,115,855.5,115C857.9166666666666,115,860.3333333333334,115,862.75,115C865.1666666666666,115,867.5833333333334,115,870,115C872.4166666666666,115,874.8333333333334,115,877.25,115C879.6666666666666,115,882.0833333333334,115,884.5,115C886.9166666666666,115,889.3333333333334,115,891.75,115C894.1666666666666,115,896.5833333333334,115,899,115C901.4166666666666,115,903.8333333333334,115,906.25,115C908.6666666666666,115,911.0833333333334,115,913.5,115C915.9166666666666,115,918.3333333333334,115,920.75,115C923.1666666666666,115,925.5833333333334,115,928,115C930.4166666666666,115,932.8333333333334,115,935.25,115C937.6666666666666,115,940.0833333333334,115,942.5,115C944.9166666666666,115,947.3333333333334,115,949.75,115C952.1666666666666,115,954.5833333333334,115,957,115C959.4166666666666,115,961.8333333333334,115,964.25,115C966.6666666666667,115,969.0833333333334,115,971.5000000000001,115C973.9166666666667,115,976.3333333333335,115,978.7500000000001,115C981.1666666666667,115,983.5833333333335,115,986.0000000000001,115C988.4166666666667,115,990.8333333333335,115,993.2500000000001,115C995.6666666666667,115,998.0833333333333,115,1000.4999999999999,115C1002.9166666666665,115,1005.3333333333333,115,1007.7499999999999,115C1010.1666666666665,115,1012.5833333333333,115,1014.9999999999999,115C1017.4166666666665,115,1019.8333333333333,115,1022.2499999999999,115C1024.6666666666665,115,1027.0833333333333,115,1029.5,115C1031.9166666666667,115,1034.3333333333333,115,1036.75,115C1039.1666666666667,115,1041.5833333333333,115,1044,115C1046.4166666666667,115,1048.8333333333333,115,1051.25,115C1053.6666666666667,115,1056.0833333333333,115,1058.5,115C1060.9166666666667,115,1063.3333333333333,115,1065.75,115C1068.1666666666667,115,1070.5833333333333,115,1073,115C1075.4166666666667,115,1077.8333333333333,115,1080.25,115C1082.6666666666667,115,1085.0833333333333,115,1087.5,115C1089.9166666666667,115,1092.3333333333333,115,1094.75,115C1097.1666666666667,115,1099.5833333333333,115,1102,115C1104.4166666666667,115,1106.8333333333333,115,1109.25,115C1111.6666666666667,115,1114.0833333333333,115,1116.5,115C1118.9166666666667,115,1121.3333333333333,115,1123.75,115C1126.1666666666667,115,1128.5833333333333,115,1131,115C1133.4166666666667,115,1135.8333333333333,115,1138.25,115C1140.6666666666667,115,1143.0833333333333,115,1145.5,115C1147.9166666666667,115,1150.3333333333333,115,1152.75,115C1155.1666666666667,115,1157.5833333333333,115,1160,115C1162.4166666666667,115,1164.8333333333333,115,1167.25,115C1169.6666666666667,115,1172.0833333333333,115,1174.5,115C1176.9166666666667,115,1179.3333333333333,115,1181.75,115C1184.1666666666667,115,1186.5833333333333,115,1189,115C1191.4166666666667,115,1193.8333333333333,115,1196.25,115C1198.6666666666667,115,1201.0833333333333,115,1203.5,115C1205.9166666666667,115,1208.3333333333333,115,1210.75,115C1213.1666666666667,115,1215.5833333333333,115,1218,115C1220.4166666666667,115,1222.8333333333333,115,1225.25,115C1227.6666666666667,115,1230.0833333333333,115,1232.5,115C1234.9166666666667,115,1237.3333333333333,115,1239.75,115C1242.1666666666667,115,1244.5833333333333,115,1247,115C1249.4166666666667,115,1251.8333333333333,115,1254.25,115C1256.6666666666667,115,1259.0833333333333,115,1261.5,115C1263.9166666666667,115,1266.3333333333333,115,1268.75,115C1271.1666666666667,115,1273.5833333333333,115,1276,115C1278.4166666666667,115,1280.8333333333333,115,1283.25,115C1285.6666666666667,115,1288.0833333333333,115,1290.5,115C1292.9166666666667,115,1295.3333333333333,115,1297.75,115C1300.1666666666667,115,1302.5833333333333,115,1305,115C1307.4166666666667,115,1309.8333333333333,115,1312.25,115C1314.6666666666667,115,1317.0833333333333,115,1319.5,115C1321.9166666666667,115,1324.3333333333333,115,1326.75,115C1329.1666666666667,115,1331.5833333333333,115,1334,115C1336.4166666666667,115,1338.8333333333333,115,1341.25,115C1343.6666666666667,115,1346.0833333333333,115,1348.5,115C1350.9166666666667,115,1353.3333333333333,115,1355.75,115C1358.1666666666667,115,1360.5833333333333,115,1363,115C1365.4166666666667,115,1367.8333333333333,115,1370.25,115C1372.6666666666667,115,1375.0833333333333,115,1377.5,115C1379.9166666666667,115,1382.3333333333333,115,1384.75,115C1387.1666666666667,115,1389.5833333333333,115,1392,115C1394.4166666666667,115,1396.8333333333333,115,1399.25,115C1401.6666666666667,115,1404.0833333333333,115,1406.5,115C1408.9166666666667,115,1411.3333333333333,115,1413.75,115C1416.1666666666667,115,1418.5833333333333,115,1421,115C1423.4166666666667,115,1425.8333333333333,115,1428.25,115C1430.6666666666667,115,1433.0833333333333,115,1435.5,115C1437.9166666666667,115,1440.3333333333333,115,1442.75,115C1445.1666666666667,115,1447.5833333333333,57.49999999999999,1450,0" fill="transparent" stroke-linecap="round" stroke="#E7C6DF" stroke-width="2"></path><g class="visx-group visx-axis visx-axis-bottom" transform="translate(0, 115)"><g class="visx-group visx-axis-tick" transform="translate(0, 0)"><line class="visx-line" x1="0" y1="0" x2="0" y2="8" fill="transparent" shape-rendering="crispEdges" stroke="#000" stroke-width="0" stroke-linecap="square"></line><svg x="0" y="0" font-size="10" style="overflow:visible"><text transform="" x="0" y="18" fill="#000" font-size="10" text-anchor="middle"><tspan x="0" dy="0em">0%</tspan></text></svg></g><g class="visx-group visx-axis-tick" transform="translate(0, 0)"><line class="visx-line" x1="362.5" y1="0" x2="362.5" y2="8" fill="transparent" shape-rendering="crispEdges" stroke="#000" stroke-width="0" stroke-linecap="square"></line><svg x="0" y="0" font-size="10" style="overflow:visible"><text transform="" x="362.5" y="18" fill="#000" font-size="10" text-anchor="middle"><tspan x="362.5" dy="0em">25%</tspan></text></svg></g><g class="visx-group visx-axis-tick" transform="translate(0, 0)"><line class="visx-line" x1="725" y1="0" x2="725" y2="8" fill="transparent" shape-rendering="crispEdges" stroke="#000" stroke-width="0" stroke-linecap="square"></line><svg x="0" y="0" font-size="10" style="overflow:visible"><text transform="" x="725" y="18" fill="#000" font-size="10" text-anchor="middle"><tspan x="725" dy="0em">50%</tspan></text></svg></g><g class="visx-group visx-axis-tick" transform="translate(0, 0)"><line class="visx-line" x1="1087.5" y1="0" x2="1087.5" y2="8" fill="transparent" shape-rendering="crispEdges" stroke="#000" stroke-width="0" stroke-linecap="square"></line><svg x="0" y="0" font-size="10" style="overflow:visible"><text transform="" x="1087.5" y="18" fill="#000" font-size="10" text-anchor="middle"><tspan x="1087.5" dy="0em">75%</tspan></text></svg></g><g class="visx-group visx-axis-tick" transform="translate(0, 0)"><line class="visx-line" x1="1450" y1="0" x2="1450" y2="8" fill="transparent" shape-rendering="crispEdges" stroke="#000" stroke-width="0" stroke-linecap="square"></line><svg x="0" y="0" font-size="10" style="overflow:visible"><text transform="" x="1450" y="18" fill="#000" font-size="10" text-anchor="middle"><tspan x="1450" dy="0em">100%</tspan></text></svg></g><line class="visx-line visx-axis-line" x1="0.5" y1="0" x2="1450.5" y2="0" fill="transparent" shape-rendering="crispEdges" stroke="#222" stroke-width="0"></line></g><g class="visx-group visx-axis visx-axis-left" transform="translate(0, 0)"><g class="visx-group visx-axis-tick" transform="translate(0, 0)"><line class="visx-line" x1="0" y1="115" x2="-8" y2="115" fill="transparent" shape-rendering="crispEdges" stroke="#222" stroke-width="0" stroke-linecap="square"></line><svg x="-30" y="0" font-size="8" style="overflow:visible"><text transform="" x="-8" y="115" fill="#000" font-size="8" text-anchor="start"><tspan x="-8" dy="0em">0%</tspan></text></svg></g><g class="visx-group visx-axis-tick" transform="translate(0, 0)"><line class="visx-line" x1="0" y1="43.125" x2="-8" y2="43.125" fill="transparent" shape-rendering="crispEdges" stroke="#222" stroke-width="0" stroke-linecap="square"></line><svg x="-30" y="0" font-size="8" style="overflow:visible"><text transform="" x="-8" y="43.125" fill="#000" font-size="8" text-anchor="start"><tspan x="-8" dy="0em">10%</tspan></text></svg></g><line class="visx-line visx-axis-line" x1="0" y1="115.5" x2="0" y2="0.5" fill="transparent" shape-rendering="crispEdges" stroke="#222" stroke-width="0"></line></g><rect class="visx-bar" width="1450" height="115" fill="transparent"></rect><line class="visx-line" x1="1450" y1="28" x2="1450" y2="115" fill="transparent" shape-rendering="crispEdges" stroke="#0062D2" stroke-width="1" pointer-events="none" stroke-dasharray="5,2"></line><svg x="0" y="0" font-size="10px" style="overflow:visible"><text transform="" x="1450" y="20" font-size="10px" fill="#fff" stroke="#fff" stroke-width="0.8em" text-anchor="middle"><tspan x="1450" dy="0.355em">Optimal 100%</tspan></text></svg><svg x="0" y="0" font-size="10px" style="overflow:visible"><text transform="" x="1450" y="20" font-size="10px" fill="#62677B" text-anchor="middle"><tspan x="1450" dy="0.355em">Optimal 100%</tspan></text></svg></g></svg>