<?xml version="1.0"?><svg xmlns="http://www.w3.org/2000/svg" xmlns:xlink= "http://www.w3.org/1999/xlink" style="background: white;" width="1500" height="185"> <g style="color: black; font-size: 13px; font-family: sans-serif; transform: translate(18px, 25px);"><g><circle r="3" cx="-6" cy="-5" style="fill: #B6509E" /><text>Borrow APR, variable</text></g><g style="transform: translateX(150px);"><circle r="3" cx="-6" cy="-5" style="fill: rgb(231, 198, 223)" /><text>Borrow APR, stable</text></g><g style="transform: translateX(290px);"><circle r="3" cx="-6" cy="-5" style="fill: rgb(0, 98, 210)" /><text>Utilization Rate</text></g></g><g class="visx-group" transform="translate(40, 50)"><g class="visx-group visx-rows" transform="translate(0, 0)"><line class="visx-line" x1="0" y1="115" x2="1450" y2="115" fill="transparent" shape-rendering="crispEdges" stroke="#000" stroke-width="1" stroke-dasharray="3,3" pointer-events="none"></line><line class="visx-line" x1="0" y1="82.14285714285714" x2="1450" y2="82.14285714285714" fill="transparent" shape-rendering="crispEdges" stroke="#000" stroke-width="1" stroke-dasharray="3,3" pointer-events="none"></line><line class="visx-line" x1="0" y1="49.28571428571429" x2="1450" y2="49.28571428571429" fill="transparent" shape-rendering="crispEdges" stroke="#000" stroke-width="1" stroke-dasharray="3,3" pointer-events="none"></line><line class="visx-line" x1="0" y1="16.428571428571434" x2="1450" y2="16.428571428571434" fill="transparent" shape-rendering="crispEdges" stroke="#000" stroke-width="1" stroke-dasharray="3,3" pointer-events="none"></line></g><path class="visx-linepath" d="M0,12.158552726503897C2.4166666666666665,12.158552726503897,4.833333333333334,12.158552726503897,7.25,12.158552726503897C9.666666666666666,12.158552726503897,12.083333333333334,12.158552726503897,14.5,12.158552726503897C16.916666666666668,12.158552726503897,19.333333333333332,12.158552726503897,21.75,12.158552726503897C24.166666666666668,12.158552726503897,26.583333333333332,12.158552726503897,29,12.158552726503897C31.416666666666668,12.158552726503897,33.833333333333336,12.158552726503897,36.25,12.158552726503897C38.666666666666664,12.158552726503897,41.083333333333336,12.158552726503897,43.5,12.158552726503897C45.91666666666667,12.158552726503897,48.333333333333336,12.158552726503897,50.75000000000001,12.158552726503897C53.16666666666667,12.158552726503897,55.583333333333336,12.158552726503897,58,12.158552726503897C60.416666666666664,12.158552726503897,62.833333333333336,12.158552726503897,65.25,12.158552726503897C67.66666666666667,12.158552726503897,70.08333333333333,12.158552726503897,72.5,12.158552726503897C74.91666666666667,12.158552726503897,77.33333333333333,12.158552726503897,79.75,12.158552726503897C82.16666666666667,12.158552726503897,84.58333333333333,12.158552726503897,87,12.158552726503897C89.41666666666667,12.158552726503897,91.83333333333333,12.158552726503897,94.25,12.158552726503897C96.66666666666667,12.158552726503897,99.08333333333334,12.158552726503897,101.50000000000001,12.158552726503897C103.91666666666667,12.158552726503897,106.33333333333334,12.158552726503897,108.75,12.158552726503897C111.16666666666667,12.158552726503897,113.58333333333333,12.158552726503897,116,12.158552726503897C118.41666666666667,12.158552726503897,120.83333333333334,12.158552726503897,123.25000000000001,12.158552726503897C125.66666666666667,12.158552726503897,128.08333333333334,12.158552726503897,130.5,12.158552726503897C132.91666666666666,12.158552726503897,135.33333333333334,12.158552726503897,137.75,12.158552726503897C140.16666666666666,12.158552726503897,142.58333333333334,12.158552726503897,145,12.158552726503897C147.41666666666666,12.158552726503897,149.83333333333334,12.158552726503897,152.25,12.158552726503897C154.66666666666666,12.158552726503897,157.08333333333334,12.158552726503897,159.5,12.158552726503897C161.91666666666666,12.158552726503897,164.33333333333334,12.158552726503897,166.75,12.158552726503897C169.16666666666666,12.158552726503897,171.58333333333334,12.158552726503897,174,12.158552726503897C176.41666666666666,12.158552726503897,178.83333333333334,12.158552726503897,181.25,12.158552726503897C183.66666666666666,12.158552726503897,186.08333333333334,12.158552726503897,188.5,12.158552726503897C190.91666666666666,12.158552726503897,193.33333333333334,12.158552726503897,195.75,12.158552726503897C198.16666666666669,12.158552726503897,200.58333333333334,12.158552726503897,203.00000000000003,12.158552726503897C205.41666666666669,12.158552726503897,207.83333333333331,12.158552726503897,210.24999999999997,12.158552726503897C212.66666666666666,12.158552726503897,215.08333333333331,12.158552726503897,217.5,12.158552726503897C219.91666666666666,12.158552726503897,222.33333333333334,12.158552726503897,224.75,12.158552726503897C227.16666666666666,12.158552726503897,229.58333333333334,12.158552726503897,232,12.158552726503897C234.41666666666666,12.158552726503897,236.83333333333334,12.158552726503897,239.25,12.158552726503897C241.66666666666669,12.158552726503897,244.08333333333334,12.158552726503897,246.50000000000003,12.158552726503897C248.91666666666669,12.158552726503897,251.33333333333331,12.158552726503897,253.74999999999997,12.158552726503897C256.16666666666663,12.158552726503897,258.5833333333333,12.158552726503897,261,12.158552726503897C263.4166666666667,12.158552726503897,265.8333333333333,12.158552726503897,268.25,12.158552726503897C270.6666666666667,12.158552726503897,273.0833333333333,12.158552726503897,275.5,12.158552726503897C277.9166666666667,12.158552726503897,280.3333333333333,12.158552726503897,282.75,12.158552726503897C285.1666666666667,12.158552726503897,287.5833333333333,12.158552726503897,290,12.158552726503897C292.4166666666667,12.158552726503897,294.8333333333333,12.158552726503897,297.25,12.158552726503897C299.6666666666667,12.158552726503897,302.0833333333333,12.158552726503897,304.5,12.158552726503897C306.9166666666667,12.158552726503897,309.3333333333333,12.158552726503897,311.75,12.158552726503897C314.1666666666667,12.158552726503897,316.5833333333333,12.158552726503897,319,12.158552726503897C321.4166666666667,12.158552726503897,323.8333333333333,12.158552726503897,326.25,12.158552726503897C328.6666666666667,12.158552726503897,331.0833333333333,12.158552726503897,333.5,12.158552726503897C335.9166666666667,12.158552726503897,338.3333333333333,12.158552726503897,340.75,12.158552726503897C343.1666666666667,12.158552726503897,345.5833333333333,12.158552726503897,348,12.158552726503897C350.4166666666667,12.158552726503897,352.8333333333333,12.158552726503897,355.25,12.158552726503897C357.6666666666667,12.158552726503897,360.0833333333333,12.158552726503897,362.5,12.158552726503897C364.9166666666667,12.158552726503897,367.3333333333333,12.158552726503897,369.75,12.158552726503897C372.1666666666667,12.158552726503897,374.5833333333333,12.158552726503897,377,12.158552726503897C379.4166666666667,12.158552726503897,381.8333333333333,12.158552726503897,384.25,12.158552726503897C386.6666666666667,12.158552726503897,389.0833333333333,12.158552726503897,391.5,12.158552726503897C393.9166666666667,12.158552726503897,396.33333333333337,12.158552726503897,398.75000000000006,12.158552726503897C401.16666666666674,12.158552726503897,403.58333333333337,12.158552726503897,406.00000000000006,12.158552726503897C408.4166666666667,12.158552726503897,410.8333333333333,12.158552726503897,413.24999999999994,12.158552726503897C415.66666666666663,12.158552726503897,418.08333333333326,12.158552726503897,420.49999999999994,12.158552726503897C422.91666666666663,12.158552726503897,425.3333333333333,12.158552726503897,427.75,12.158552726503897C430.1666666666667,12.158552726503897,432.5833333333333,12.158552726503897,435,12.158552726503897C437.4166666666667,12.158552726503897,439.8333333333333,12.158552726503897,442.25,12.158552726503897C444.6666666666667,12.158552726503897,447.0833333333333,12.158552726503897,449.5,12.158552726503897C451.9166666666667,12.158552726503897,454.3333333333333,12.158552726503897,456.75,12.158552726503897C459.1666666666667,12.158552726503897,461.5833333333333,12.158552726503897,464,12.158552726503897C466.4166666666667,12.158552726503897,468.8333333333333,12.158552726503897,471.25,12.158552726503897C473.6666666666667,12.158552726503897,476.0833333333333,12.158552726503897,478.5,12.158552726503897C480.9166666666667,12.158552726503897,483.33333333333337,12.158552726503897,485.75000000000006,12.158552726503897C488.16666666666674,12.158552726503897,490.58333333333337,12.158552726503897,493.00000000000006,12.158552726503897C495.4166666666667,12.158552726503897,497.8333333333333,12.158552726503897,500.24999999999994,12.158552726503897C502.66666666666663,12.158552726503897,505.08333333333326,12.158552726503897,507.49999999999994,12.158552726503897C509.91666666666663,12.158552726503897,512.3333333333333,12.158552726503897,514.75,12.158552726503897C517.1666666666666,12.158552726503897,519.5833333333334,12.158552726503897,522,12.158552726503897C524.4166666666666,12.158552726503897,526.8333333333334,12.158552726503897,529.25,12.158552726503897C531.6666666666666,12.158552726503897,534.0833333333334,12.158552726503897,536.5,12.158552726503897C538.9166666666666,12.158552726503897,541.3333333333334,12.158552726503897,543.75,12.158552726503897C546.1666666666666,12.158552726503897,548.5833333333334,12.158552726503897,551,12.158552726503897C553.4166666666666,12.158552726503897,555.8333333333334,12.158552726503897,558.25,12.158552726503897C560.6666666666666,12.158552726503897,563.0833333333334,12.158552726503897,565.5,12.158552726503897C567.9166666666666,12.158552726503897,570.3333333333334,12.158552726503897,572.75,12.158552726503897C575.1666666666666,12.158552726503897,577.5833333333334,12.158552726503897,580,12.158552726503897C582.4166666666666,12.158552726503897,584.8333333333334,12.158552726503897,587.25,12.158552726503897C589.6666666666666,12.158552726503897,592.0833333333334,12.158552726503897,594.5,12.158552726503897C596.9166666666666,12.158552726503897,599.3333333333334,12.158552726503897,601.75,12.158552726503897C604.1666666666666,12.158552726503897,606.5833333333334,12.158552726503897,609,12.158552726503897C611.4166666666666,12.158552726503897,613.8333333333334,12.158552726503897,616.25,12.158552726503897C618.6666666666666,12.158552726503897,621.0833333333334,12.158552726503897,623.5,12.158552726503897C625.9166666666666,12.158552726503897,628.3333333333334,12.158552726503897,630.75,12.158552726503897C633.1666666666666,12.158552726503897,635.5833333333334,12.158552726503897,638,12.158552726503897C640.4166666666666,12.158552726503897,642.8333333333334,12.158552726503897,645.25,12.158552726503897C647.6666666666666,12.158552726503897,650.0833333333334,12.158552726503897,652.5,12.158552726503897C654.9166666666666,12.158552726503897,657.3333333333334,12.158552726503897,659.75,12.158552726503897C662.1666666666666,12.158552726503897,664.5833333333334,12.158552726503897,667,12.158552726503897C669.4166666666666,12.158552726503897,671.8333333333334,12.158552726503897,674.25,12.158552726503897C676.6666666666666,12.158552726503897,679.0833333333334,12.158552726503897,681.5,12.158552726503897C683.9166666666666,12.158552726503897,686.3333333333334,12.158552726503897,688.75,12.158552726503897C691.1666666666666,12.158552726503897,693.5833333333334,12.158552726503897,696,12.158552726503897C698.4166666666666,12.158552726503897,700.8333333333334,12.158552726503897,703.25,12.158552726503897C705.6666666666666,12.158552726503897,708.0833333333334,12.158552726503897,710.5,12.158552726503897C712.9166666666666,12.158552726503897,715.3333333333334,12.158552726503897,717.75,12.158552726503897C720.1666666666666,12.158552726503897,722.5833333333334,12.158552726503897,725,12.158552726503897C727.4166666666666,12.158552726503897,729.8333333333334,12.158552726503897,732.25,12.158552726503897C734.6666666666666,12.158552726503897,737.0833333333334,12.158552726503897,739.5,12.158552726503897C741.9166666666666,12.158552726503897,744.3333333333334,12.158552726503897,746.75,12.158552726503897C749.1666666666666,12.158552726503897,751.5833333333334,12.158552726503897,754,12.158552726503897C756.4166666666666,12.158552726503897,758.8333333333334,12.158552726503897,761.25,12.158552726503897C763.6666666666666,12.158552726503897,766.0833333333334,12.158552726503897,768.5,12.158552726503897C770.9166666666666,12.158552726503897,773.3333333333334,12.158552726503897,775.75,12.158552726503897C778.1666666666666,12.158552726503897,780.5833333333334,12.158552726503897,783,12.158552726503897C785.4166666666667,12.158552726503897,787.8333333333334,12.158552726503897,790.2500000000001,12.158552726503897C792.6666666666667,12.158552726503897,795.0833333333335,12.158552726503897,797.5000000000001,12.158552726503897C799.9166666666667,12.158552726503897,802.3333333333335,12.158552726503897,804.7500000000001,12.158552726503897C807.1666666666667,12.158552726503897,809.5833333333335,12.158552726503897,812.0000000000001,12.158552726503897C814.4166666666667,12.158552726503897,816.8333333333333,12.158552726503897,819.2499999999999,12.158552726503897C821.6666666666665,12.158552726503897,824.0833333333333,12.158552726503897,826.4999999999999,12.158552726503897C828.9166666666665,12.158552726503897,831.3333333333333,12.158552726503897,833.7499999999999,12.158552726503897C836.1666666666665,12.158552726503897,838.5833333333333,12.158552726503897,840.9999999999999,12.158552726503897C843.4166666666666,12.158552726503897,845.8333333333333,12.158552726503897,848.25,12.158552726503897C850.6666666666666,12.158552726503897,853.0833333333334,12.158552726503897,855.5,12.158552726503897C857.9166666666666,12.158552726503897,860.3333333333334,12.158552726503897,862.75,12.158552726503897C865.1666666666666,12.158552726503897,867.5833333333334,12.158552726503897,870,12.158552726503897C872.4166666666666,12.158552726503897,874.8333333333334,12.158552726503897,877.25,12.158552726503897C879.6666666666666,12.158552726503897,882.0833333333334,12.158552726503897,884.5,12.158552726503897C886.9166666666666,12.158552726503897,889.3333333333334,12.158552726503897,891.75,12.158552726503897C894.1666666666666,12.158552726503897,896.5833333333334,12.158552726503897,899,12.158552726503897C901.4166666666666,12.158552726503897,903.8333333333334,12.158552726503897,906.25,12.158552726503897C908.6666666666666,12.158552726503897,911.0833333333334,12.158552726503897,913.5,12.158552726503897C915.9166666666666,12.158552726503897,918.3333333333334,12.158552726503897,920.75,12.158552726503897C923.1666666666666,12.158552726503897,925.5833333333334,12.158552726503897,928,12.158552726503897C930.4166666666666,12.158552726503897,932.8333333333334,12.158552726503897,935.25,12.158552726503897C937.6666666666666,12.158552726503897,940.0833333333334,12.158552726503897,942.5,12.158552726503897C944.9166666666666,12.158552726503897,947.3333333333334,12.158552726503897,949.75,12.158552726503897C952.1666666666666,12.158552726503897,954.5833333333334,12.158552726503897,957,12.158552726503897C959.4166666666666,12.158552726503897,961.8333333333334,12.158552726503897,964.25,12.158552726503897C966.6666666666667,12.158552726503897,969.0833333333334,12.158552726503897,971.5000000000001,12.158552726503897C973.9166666666667,12.158552726503897,976.3333333333335,12.158552726503897,978.7500000000001,12.158552726503897C981.1666666666667,12.158552726503897,983.5833333333335,12.158552726503897,986.0000000000001,12.158552726503897C988.4166666666667,12.158552726503897,990.8333333333335,12.158552726503897,993.2500000000001,12.158552726503897C995.6666666666667,12.158552726503897,998.0833333333333,12.158552726503897,1000.4999999999999,12.158552726503897C1002.9166666666665,12.158552726503897,1005.3333333333333,12.158552726503897,1007.7499999999999,12.158552726503897C1010.1666666666665,12.158552726503897,1012.5833333333333,12.158552726503897,1014.9999999999999,12.158552726503897C1017.4166666666665,12.158552726503897,1019.8333333333333,12.158552726503897,1022.2499999999999,12.158552726503897C1024.6666666666665,12.158552726503897,1027.0833333333333,12.158552726503897,1029.5,12.158552726503897C1031.9166666666667,12.158552726503897,1034.3333333333333,12.158552726503897,1036.75,12.158552726503897C1039.1666666666667,12.158552726503897,1041.5833333333333,12.158552726503897,1044,12.158552726503897C1046.4166666666667,12.158552726503897,1048.8333333333333,12.158552726503897,1051.25,12.158552726503897C1053.6666666666667,12.158552726503897,1056.0833333333333,12.158552726503897,1058.5,12.158552726503897C1060.9166666666667,12.158552726503897,1063.3333333333333,12.158552726503897,1065.75,12.158552726503897C1068.1666666666667,12.158552726503897,1070.5833333333333,12.158552726503897,1073,12.158552726503897C1075.4166666666667,12.158552726503897,1077.8333333333333,12.158552726503897,1080.25,12.158552726503897C1082.6666666666667,12.158552726503897,1085.0833333333333,12.158552726503897,1087.5,12.158552726503897C1089.9166666666667,12.158552726503897,1092.3333333333333,12.158552726503897,1094.75,12.158552726503897C1097.1666666666667,12.158552726503897,1099.5833333333333,12.158552726503897,1102,12.158552726503897C1104.4166666666667,12.158552726503897,1106.8333333333333,12.158552726503897,1109.25,12.158552726503897C1111.6666666666667,12.158552726503897,1114.0833333333333,12.158552726503897,1116.5,12.158552726503897C1118.9166666666667,12.158552726503897,1121.3333333333333,12.158552726503897,1123.75,12.158552726503897C1126.1666666666667,12.158552726503897,1128.5833333333333,12.158552726503897,1131,12.158552726503897C1133.4166666666667,12.158552726503897,1135.8333333333333,12.158552726503897,1138.25,12.158552726503897C1140.6666666666667,12.158552726503897,1143.0833333333333,12.158552726503897,1145.5,12.158552726503897C1147.9166666666667,12.158552726503897,1150.3333333333333,12.158552726503897,1152.75,12.158552726503897C1155.1666666666667,12.158552726503897,1157.5833333333333,12.158552726503897,1160,12.158552726503897C1162.4166666666667,12.158552726503897,1164.8333333333333,12.158552726503897,1167.25,12.158552726503897C1169.6666666666667,12.158552726503897,1172.0833333333333,12.158552726503897,1174.5,12.158552726503897C1176.9166666666667,12.158552726503897,1179.3333333333333,12.158552726503897,1181.75,12.158552726503897C1184.1666666666667,12.158552726503897,1186.5833333333333,12.158552726503897,1189,12.158552726503897C1191.4166666666667,12.158552726503897,1193.8333333333333,12.158552726503897,1196.25,12.158552726503897C1198.6666666666667,12.158552726503897,1201.0833333333333,12.158552726503897,1203.5,12.158552726503897C1205.9166666666667,12.158552726503897,1208.3333333333333,12.158552726503897,1210.75,12.158552726503897C1213.1666666666667,12.158552726503897,1215.5833333333333,12.158552726503897,1218,12.158552726503897C1220.4166666666667,12.158552726503897,1222.8333333333333,12.158552726503897,1225.25,12.158552726503897C1227.6666666666667,12.158552726503897,1230.0833333333333,12.158552726503897,1232.5,12.158552726503897C1234.9166666666667,12.158552726503897,1237.3333333333333,12.158552726503897,1239.75,12.158552726503897C1242.1666666666667,12.158552726503897,1244.5833333333333,12.158552726503897,1247,12.158552726503897C1249.4166666666667,12.158552726503897,1251.8333333333333,12.158552726503897,1254.25,12.158552726503897C1256.6666666666667,12.158552726503897,1259.0833333333333,12.158552726503897,1261.5,12.158552726503897C1263.9166666666667,12.158552726503897,1266.3333333333333,12.158552726503897,1268.75,12.158552726503897C1271.1666666666667,12.158552726503897,1273.5833333333333,12.158552726503897,1276,12.158552726503897C1278.4166666666667,12.158552726503897,1280.8333333333333,12.158552726503897,1283.25,12.158552726503897C1285.6666666666667,12.158552726503897,1288.0833333333333,12.158552726503897,1290.5,12.158552726503897C1292.9166666666667,12.158552726503897,1295.3333333333333,12.158552726503897,1297.75,12.158552726503897C1300.1666666666667,12.158552726503897,1302.5833333333333,12.158552726503897,1305,12.158552726503897C1307.4166666666667,12.158552726503897,1309.8333333333333,12.158552726503897,1312.25,12.158552726503897C1314.6666666666667,12.158552726503897,1317.0833333333333,12.158552726503897,1319.5,12.158552726503897C1321.9166666666667,12.158552726503897,1324.3333333333333,12.158552726503897,1326.75,12.158552726503897C1329.1666666666667,12.158552726503897,1331.5833333333333,12.158552726503897,1334,12.158552726503897C1336.4166666666667,12.158552726503897,1338.8333333333333,12.158552726503897,1341.25,12.158552726503897C1343.6666666666667,12.158552726503897,1346.0833333333333,12.158552726503897,1348.5,12.158552726503897C1350.9166666666667,12.158552726503897,1353.3333333333333,12.158552726503897,1355.75,12.158552726503897C1358.1666666666667,12.158552726503897,1360.5833333333333,12.158552726503897,1363,12.158552726503897C1365.4166666666667,12.158552726503897,1367.8333333333333,12.158552726503897,1370.25,12.158552726503897C1372.6666666666667,12.158552726503897,1375.0833333333333,12.158552726503897,1377.5,12.158552726503897C1379.9166666666667,12.158552726503897,1382.3333333333333,12.158552726503897,1384.75,12.158552726503897C1387.1666666666667,12.158552726503897,1389.5833333333333,12.158552726503897,1392,12.158552726503897C1394.4166666666667,12.158552726503897,1396.8333333333333,12.158552726503897,1399.25,12.158552726503897C1401.6666666666667,12.158552726503897,1404.0833333333333,12.158552726503897,1406.5,12.158552726503897C1408.9166666666667,12.158552726503897,1411.3333333333333,12.158552726503897,1413.75,12.158552726503897C1416.1666666666667,12.158552726503897,1418.5833333333333,12.158552726503897,1421,12.158552726503897C1423.4166666666667,12.158552726503897,1425.8333333333333,12.158552726503897,1428.25,12.158552726503897C1430.6666666666667,12.158552726503897,1433.0833333333333,12.158552726503897,1435.5,12.158552726503897C1437.9166666666667,12.158552726503897,1440.3333333333333,12.158552726503897,1442.75,12.158552726503897C1445.1666666666667,12.158552726503897,1447.5833333333333,6.079276363251948,1450,0" fill="transparent" stroke-linecap="round" stroke="#B6509E" stroke-width="2"></path><path class="visx-linepath" d="M0,115C2.4166666666666665,115,4.833333333333334,115,7.25,115C9.666666666666666,115,12.083333333333334,115,14.5,115C16.916666666666668,115,19.333333333333332,115,21.75,115C24.166666666666668,115,26.583333333333332,115,29,115C31.416666666666668,115,33.833333333333336,115,36.25,115C38.666666666666664,115,41.083333333333336,115,43.5,115C45.91666666666667,115,48.333333333333336,115,50.75000000000001,115C53.16666666666667,115,55.583333333333336,115,58,115C60.416666666666664,115,62.833333333333336,115,65.25,115C67.66666666666667,115,70.08333333333333,115,72.5,115C74.91666666666667,115,77.33333333333333,115,79.75,115C82.16666666666667,115,84.58333333333333,115,87,115C89.41666666666667,115,91.83333333333333,115,94.25,115C96.66666666666667,115,99.08333333333334,115,101.50000000000001,115C103.91666666666667,115,106.33333333333334,115,108.75,115C111.16666666666667,115,113.58333333333333,115,116,115C118.41666666666667,115,120.83333333333334,115,123.25000000000001,115C125.66666666666667,115,128.08333333333334,115,130.5,115C132.91666666666666,115,135.33333333333334,115,137.75,115C140.16666666666666,115,142.58333333333334,115,145,115C147.41666666666666,115,149.83333333333334,115,152.25,115C154.66666666666666,115,157.08333333333334,115,159.5,115C161.91666666666666,115,164.33333333333334,115,166.75,115C169.16666666666666,115,171.58333333333334,115,174,115C176.41666666666666,115,178.83333333333334,115,181.25,115C183.66666666666666,115,186.08333333333334,115,188.5,115C190.91666666666666,115,193.33333333333334,115,195.75,115C198.16666666666669,115,200.58333333333334,115,203.00000000000003,115C205.41666666666669,115,207.83333333333331,115,210.24999999999997,115C212.66666666666666,115,215.08333333333331,115,217.5,115C219.91666666666666,115,222.33333333333334,115,224.75,115C227.16666666666666,115,229.58333333333334,115,232,115C234.41666666666666,115,236.83333333333334,115,239.25,115C241.66666666666669,115,244.08333333333334,115,246.50000000000003,115C248.91666666666669,115,251.33333333333331,115,253.74999999999997,115C256.16666666666663,115,258.5833333333333,115,261,115C263.4166666666667,115,265.8333333333333,115,268.25,115C270.6666666666667,115,273.0833333333333,115,275.5,115C277.9166666666667,115,280.3333333333333,115,282.75,115C285.1666666666667,115,287.5833333333333,115,290,115C292.4166666666667,115,294.8333333333333,115,297.25,115C299.6666666666667,115,302.0833333333333,115,304.5,115C306.9166666666667,115,309.3333333333333,115,311.75,115C314.1666666666667,115,316.5833333333333,115,319,115C321.4166666666667,115,323.8333333333333,115,326.25,115C328.6666666666667,115,331.0833333333333,115,333.5,115C335.9166666666667,115,338.3333333333333,115,340.75,115C343.1666666666667,115,345.5833333333333,115,348,115C350.4166666666667,115,352.8333333333333,115,355.25,115C357.6666666666667,115,360.0833333333333,115,362.5,115C364.9166666666667,115,367.3333333333333,115,369.75,115C372.1666666666667,115,374.5833333333333,115,377,115C379.4166666666667,115,381.8333333333333,115,384.25,115C386.6666666666667,115,389.0833333333333,115,391.5,115C393.9166666666667,115,396.33333333333337,115,398.75000000000006,115C401.16666666666674,115,403.58333333333337,115,406.00000000000006,115C408.4166666666667,115,410.8333333333333,115,413.24999999999994,115C415.66666666666663,115,418.08333333333326,115,420.49999999999994,115C422.91666666666663,115,425.3333333333333,115,427.75,115C430.1666666666667,115,432.5833333333333,115,435,115C437.4166666666667,115,439.8333333333333,115,442.25,115C444.6666666666667,115,447.0833333333333,115,449.5,115C451.9166666666667,115,454.3333333333333,115,456.75,115C459.1666666666667,115,461.5833333333333,115,464,115C466.4166666666667,115,468.8333333333333,115,471.25,115C473.6666666666667,115,476.0833333333333,115,478.5,115C480.9166666666667,115,483.33333333333337,115,485.75000000000006,115C488.16666666666674,115,490.58333333333337,115,493.00000000000006,115C495.4166666666667,115,497.8333333333333,115,500.24999999999994,115C502.66666666666663,115,505.08333333333326,115,507.49999999999994,115C509.91666666666663,115,512.3333333333333,115,514.75,115C517.1666666666666,115,519.5833333333334,115,522,115C524.4166666666666,115,526.8333333333334,115,529.25,115C531.6666666666666,115,534.0833333333334,115,536.5,115C538.9166666666666,115,541.3333333333334,115,543.75,115C546.1666666666666,115,548.5833333333334,115,551,115C553.4166666666666,115,555.8333333333334,115,558.25,115C560.6666666666666,115,563.0833333333334,115,565.5,115C567.9166666666666,115,570.3333333333334,115,572.75,115C575.1666666666666,115,577.5833333333334,115,580,115C582.4166666666666,115,584.8333333333334,115,587.25,115C589.6666666666666,115,592.0833333333334,115,594.5,115C596.9166666666666,115,599.3333333333334,115,601.75,115C604.1666666666666,115,606.5833333333334,115,609,115C611.4166666666666,115,613.8333333333334,115,616.25,115C618.6666666666666,115,621.0833333333334,115,623.5,115C625.9166666666666,115,628.3333333333334,115,630.75,115C633.1666666666666,115,635.5833333333334,115,638,115C640.4166666666666,115,642.8333333333334,115,645.25,115C647.6666666666666,115,650.0833333333334,115,652.5,115C654.9166666666666,115,657.3333333333334,115,659.75,115C662.1666666666666,115,664.5833333333334,115,667,115C669.4166666666666,115,671.8333333333334,115,674.25,115C676.6666666666666,115,679.0833333333334,115,681.5,115C683.9166666666666,115,686.3333333333334,115,688.75,115C691.1666666666666,115,693.5833333333334,115,696,115C698.4166666666666,115,700.8333333333334,115,703.25,115C705.6666666666666,115,708.0833333333334,115,710.5,115C712.9166666666666,115,715.3333333333334,115,717.75,115C720.1666666666666,115,722.5833333333334,115,725,115C727.4166666666666,115,729.8333333333334,115,732.25,115C734.6666666666666,115,737.0833333333334,115,739.5,115C741.9166666666666,115,744.3333333333334,115,746.75,115C749.1666666666666,115,751.5833333333334,115,754,115C756.4166666666666,115,758.8333333333334,115,761.25,115C763.6666666666666,115,766.0833333333334,115,768.5,115C770.9166666666666,115,773.3333333333334,115,775.75,115C778.1666666666666,115,780.5833333333334,115,783,115C785.4166666666667,115,787.8333333333334,115,790.2500000000001,115C792.6666666666667,115,795.0833333333335,115,797.5000000000001,115C799.9166666666667,115,802.3333333333335,115,804.7500000000001,115C807.1666666666667,115,809.5833333333335,115,812.0000000000001,115C814.4166666666667,115,816.8333333333333,115,819.2499999999999,115C821.6666666666665,115,824.0833333333333,115,826.4999999999999,115C828.9166666666665,115,831.3333333333333,115,833.7499999999999,115C836.1666666666665,115,838.5833333333333,115,840.9999999999999,115C843.4166666666666,115,845.8333333333333,115,848.25,115C850.6666666666666,115,853.0833333333334,115,855.5,115C857.9166666666666,115,860.3333333333334,115,862.75,115C865.1666666666666,115,867.5833333333334,115,870,115C872.4166666666666,115,874.8333333333334,115,877.25,115C879.6666666666666,115,882.0833333333334,115,884.5,115C886.9166666666666,115,889.3333333333334,115,891.75,115C894.1666666666666,115,896.5833333333334,115,899,115C901.4166666666666,115,903.8333333333334,115,906.25,115C908.6666666666666,115,911.0833333333334,115,913.5,115C915.9166666666666,115,918.3333333333334,115,920.75,115C923.1666666666666,115,925.5833333333334,115,928,115C930.4166666666666,115,932.8333333333334,115,935.25,115C937.6666666666666,115,940.0833333333334,115,942.5,115C944.9166666666666,115,947.3333333333334,115,949.75,115C952.1666666666666,115,954.5833333333334,115,957,115C959.4166666666666,115,961.8333333333334,115,964.25,115C966.6666666666667,115,969.0833333333334,115,971.5000000000001,115C973.9166666666667,115,976.3333333333335,115,978.7500000000001,115C981.1666666666667,115,983.5833333333335,115,986.0000000000001,115C988.4166666666667,115,990.8333333333335,115,993.2500000000001,115C995.6666666666667,115,998.0833333333333,115,1000.4999999999999,115C1002.9166666666665,115,1005.3333333333333,115,1007.7499999999999,115C1010.1666666666665,115,1012.5833333333333,115,1014.9999999999999,115C1017.4166666666665,115,1019.8333333333333,115,1022.2499999999999,115C1024.6666666666665,115,1027.0833333333333,115,1029.5,115C1031.9166666666667,115,1034.3333333333333,115,1036.75,115C1039.1666666666667,115,1041.5833333333333,115,1044,115C1046.4166666666667,115,1048.8333333333333,115,1051.25,115C1053.6666666666667,115,1056.0833333333333,115,1058.5,115C1060.9166666666667,115,1063.3333333333333,115,1065.75,115C1068.1666666666667,115,1070.5833333333333,115,1073,115C1075.4166666666667,115,1077.8333333333333,115,1080.25,115C1082.6666666666667,115,1085.0833333333333,115,1087.5,115C1089.9166666666667,115,1092.3333333333333,115,1094.75,115C1097.1666666666667,115,1099.5833333333333,115,1102,115C1104.4166666666667,115,1106.8333333333333,115,1109.25,115C1111.6666666666667,115,1114.0833333333333,115,1116.5,115C1118.9166666666667,115,1121.3333333333333,115,1123.75,115C1126.1666666666667,115,1128.5833333333333,115,1131,115C1133.4166666666667,115,1135.8333333333333,115,1138.25,115C1140.6666666666667,115,1143.0833333333333,115,1145.5,115C1147.9166666666667,115,1150.3333333333333,115,1152.75,115C1155.1666666666667,115,1157.5833333333333,115,1160,115C1162.4166666666667,115,1164.8333333333333,115,1167.25,115C1169.6666666666667,115,1172.0833333333333,115,1174.5,115C1176.9166666666667,115,1179.3333333333333,115,1181.75,115C1184.1666666666667,115,1186.5833333333333,115,1189,115C1191.4166666666667,115,1193.8333333333333,115,1196.25,115C1198.6666666666667,115,1201.0833333333333,115,1203.5,115C1205.9166666666667,115,1208.3333333333333,115,1210.75,115C1213.1666666666667,115,1215.5833333333333,115,1218,115C1220.4166666666667,115,1222.8333333333333,115,1225.25,115C1227.6666666666667,115,1230.0833333333333,115,1232.5,115C1234.9166666666667,115,1237.3333333333333,115,1239.75,115C1242.1666666666667,115,1244.5833333333333,115,1247,115C1249.4166666666667,115,1251.8333333333333,115,1254.25,115C1256.6666666666667,115,1259.0833333333333,115,1261.5,115C1263.9166666666667,115,1266.3333333333333,115,1268.75,115C1271.1666666666667,115,1273.5833333333333,115,1276,115C1278.4166666666667,115,1280.8333333333333,115,1283.25,115C1285.6666666666667,115,1288.0833333333333,115,1290.5,115C1292.9166666666667,115,1295.3333333333333,115,1297.75,115C1300.1666666666667,115,1302.5833333333333,115,1305,115C1307.4166666666667,115,1309.8333333333333,115,1312.25,115C1314.6666666666667,115,1317.0833333333333,115,1319.5,115C1321.9166666666667,115,1324.3333333333333,115,1326.75,115C1329.1666666666667,115,1331.5833333333333,115,1334,115C1336.4166666666667,115,1338.8333333333333,115,1341.25,115C1343.6666666666667,115,1346.0833333333333,115,1348.5,115C1350.9166666666667,115,1353.3333333333333,115,1355.75,115C1358.1666666666667,115,1360.5833333333333,115,1363,115C1365.4166666666667,115,1367.8333333333333,115,1370.25,115C1372.6666666666667,115,1375.0833333333333,115,1377.5,115C1379.9166666666667,115,1382.3333333333333,115,1384.75,115C1387.1666666666667,115,1389.5833333333333,115,1392,115C1394.4166666666667,115,1396.8333333333333,115,1399.25,115C1401.6666666666667,115,1404.0833333333333,115,1406.5,115C1408.9166666666667,115,1411.3333333333333,115,1413.75,115C1416.1666666666667,115,1418.5833333333333,115,1421,115C1423.4166666666667,115,1425.8333333333333,115,1428.25,115C1430.6666666666667,115,1433.0833333333333,115,1435.5,115C1437.9166666666667,115,1440.3333333333333,115,1442.75,115C1445.1666666666667,115,1447.5833333333333,57.49999999999999,1450,0" fill="transparent" stroke-linecap="round" stroke="#E7C6DF" stroke-width="2"></path><g class="visx-group visx-axis visx-axis-bottom" transform="translate(0, 115)"><g class="visx-group visx-axis-tick" transform="translate(0, 0)"><line class="visx-line" x1="0" y1="0" x2="0" y2="8" fill="transparent" shape-rendering="crispEdges" stroke="#000" stroke-width="0" stroke-linecap="square"></line><svg x="0" y="0" font-size="10" style="overflow:visible"><text transform="" x="0" y="18" fill="#000" font-size="10" text-anchor="middle"><tspan x="0" dy="0em">0%</tspan></text></svg></g><g class="visx-group visx-axis-tick" transform="translate(0, 0)"><line class="visx-line" x1="362.5" y1="0" x2="362.5" y2="8" fill="transparent" shape-rendering="crispEdges" stroke="#000" stroke-width="0" stroke-linecap="square"></line><svg x="0" y="0" font-size="10" style="overflow:visible"><text transform="" x="362.5" y="18" fill="#000" font-size="10" text-anchor="middle"><tspan x="362.5" dy="0em">25%</tspan></text></svg></g><g class="visx-group visx-axis-tick" transform="translate(0, 0)"><line class="visx-line" x1="725" y1="0" x2="725" y2="8" fill="transparent" shape-rendering="crispEdges" stroke="#000" stroke-width="0" stroke-linecap="square"></line><svg x="0" y="0" font-size="10" style="overflow:visible"><text transform="" x="725" y="18" fill="#000" font-size="10" text-anchor="middle"><tspan x="725" dy="0em">50%</tspan></text></svg></g><g class="visx-group visx-axis-tick" transform="translate(0, 0)"><line class="visx-line" x1="1087.5" y1="0" x2="1087.5" y2="8" fill="transparent" shape-rendering="crispEdges" stroke="#000" stroke-width="0" stroke-linecap="square"></line><svg x="0" y="0" font-size="10" style="overflow:visible"><text transform="" x="1087.5" y="18" fill="#000" font-size="10" text-anchor="middle"><tspan x="1087.5" dy="0em">75%</tspan></text></svg></g><g class="visx-group visx-axis-tick" transform="translate(0, 0)"><line class="visx-line" x1="1450" y1="0" x2="1450" y2="8" fill="transparent" shape-rendering="crispEdges" stroke="#000" stroke-width="0" stroke-linecap="square"></line><svg x="0" y="0" font-size="10" style="overflow:visible"><text transform="" x="1450" y="18" fill="#000" font-size="10" text-anchor="middle"><tspan x="1450" dy="0em">100%</tspan></text></svg></g><line class="visx-line visx-axis-line" x1="0.5" y1="0" x2="1450.5" y2="0" fill="transparent" shape-rendering="crispEdges" stroke="#222" stroke-width="0"></line></g><g class="visx-group visx-axis visx-axis-left" transform="translate(0, 0)"><g class="visx-group visx-axis-tick" transform="translate(0, 0)"><line class="visx-line" x1="0" y1="115" x2="-8" y2="115" fill="transparent" shape-rendering="crispEdges" stroke="#222" stroke-width="0" stroke-linecap="square"></line><svg x="-30" y="0" font-size="8" style="overflow:visible"><text transform="" x="-8" y="115" fill="#000" font-size="8" text-anchor="start"><tspan x="-8" dy="0em">0%</tspan></text></svg></g><g class="visx-group visx-axis-tick" transform="translate(0, 0)"><line class="visx-line" x1="0" y1="32.857142857142854" x2="-8" y2="32.857142857142854" fill="transparent" shape-rendering="crispEdges" stroke="#222" stroke-width="0" stroke-linecap="square"></line><svg x="-30" y="0" font-size="8" style="overflow:visible"><text transform="" x="-8" y="32.857142857142854" fill="#000" font-size="8" text-anchor="start"><tspan x="-8" dy="0em">5%</tspan></text></svg></g><line class="visx-line visx-axis-line" x1="0" y1="115.5" x2="0" y2="0.5" fill="transparent" shape-rendering="crispEdges" stroke="#222" stroke-width="0"></line></g><rect class="visx-bar" width="1450" height="115" fill="transparent"></rect><line class="visx-line" x1="1450" y1="28" x2="1450" y2="115" fill="transparent" shape-rendering="crispEdges" stroke="#0062D2" stroke-width="1" pointer-events="none" stroke-dasharray="5,2"></line><svg x="0" y="0" font-size="10px" style="overflow:visible"><text transform="" x="1450" y="20" font-size="10px" fill="#fff" stroke="#fff" stroke-width="0.8em" text-anchor="middle"><tspan x="1450" dy="0.355em">Optimal 100%</tspan></text></svg><svg x="0" y="0" font-size="10px" style="overflow:visible"><text transform="" x="1450" y="20" font-size="10px" fill="#62677B" text-anchor="middle"><tspan x="1450" dy="0.355em">Optimal 100%</tspan></text></svg></g></svg>