<?xml version="1.0"?><svg xmlns="http://www.w3.org/2000/svg" xmlns:xlink= "http://www.w3.org/1999/xlink" style="background: white;" width="1500" height="185"> <g style="color: black; font-size: 13px; font-family: sans-serif; transform: translate(18px, 25px);"><g><circle r="3" cx="-6" cy="-5" style="fill: #B6509E" /><text>Borrow APR, variable</text></g><g style="transform: translateX(150px);"><circle r="3" cx="-6" cy="-5" style="fill: rgb(231, 198, 223)" /><text>Borrow APR, stable</text></g><g style="transform: translateX(290px);"><circle r="3" cx="-6" cy="-5" style="fill: rgb(0, 98, 210)" /><text>Utilization Rate</text></g></g><g class="visx-group" transform="translate(40, 50)"><g class="visx-group visx-rows" transform="translate(0, 0)"><line class="visx-line" x1="0" y1="115" x2="1450" y2="115" fill="transparent" shape-rendering="crispEdges" stroke="#000" stroke-width="1" stroke-dasharray="3,3" pointer-events="none"></line><line class="visx-line" x1="0" y1="57.5" x2="1450" y2="57.5" fill="transparent" shape-rendering="crispEdges" stroke="#000" stroke-width="1" stroke-dasharray="3,3" pointer-events="none"></line><line class="visx-line" x1="0" y1="0" x2="1450" y2="0" fill="transparent" shape-rendering="crispEdges" stroke="#000" stroke-width="1" stroke-dasharray="3,3" pointer-events="none"></line></g><path class="visx-linepath" d="M0,113.84999999995686C2.4166666666666665,113.84281249997484,4.833333333333334,113.8356249999928,7.25,113.82843749999999C9.666666666666666,113.82125000000718,12.083333333333334,113.81406249999999,14.5,113.80687499999999C16.916666666666668,113.79968749999999,19.333333333333332,113.7925,21.75,113.7853125C24.166666666666668,113.778125,26.583333333333332,113.7709375,29,113.76375C31.416666666666668,113.7565625,33.833333333333336,113.749375,36.25,113.7421875C38.666666666666664,113.735,41.083333333333336,113.7278125,43.5,113.720625C45.91666666666667,113.7134375,48.333333333333336,113.70625000000001,50.75000000000001,113.69906250000001C53.16666666666667,113.69187500000001,55.583333333333336,113.68468750000001,58,113.67750000000001C60.416666666666664,113.67031250000001,62.833333333333336,113.66312500000001,65.25,113.65593750000001C67.66666666666667,113.64875,70.08333333333333,113.6415625,72.5,113.634375C74.91666666666667,113.6271875,77.33333333333333,113.62,79.75,113.6128125C82.16666666666667,113.605625,84.58333333333333,113.5984375,87,113.59125C89.41666666666667,113.5840625,91.83333333333333,113.576875,94.25,113.5696875C96.66666666666667,113.5625,99.08333333333334,113.5553125,101.50000000000001,113.548125C103.91666666666667,113.5409375,106.33333333333334,113.53375,108.75,113.5265625C111.16666666666667,113.519375,113.58333333333333,113.5121875,116,113.505C118.41666666666667,113.4978125,120.83333333333334,113.490625,123.25000000000001,113.4834375C125.66666666666667,113.47625,128.08333333333334,113.46906249999999,130.5,113.46187499999999C132.91666666666666,113.45468749999999,135.33333333333334,113.44749999999999,137.75,113.44031249999999C140.16666666666666,113.43312499999999,142.58333333333334,113.42593749999999,145,113.41874999999999C147.41666666666666,113.41156249999999,149.83333333333334,113.404375,152.25,113.3971875C154.66666666666666,113.39,157.08333333333334,113.3828125,159.5,113.375625C161.91666666666666,113.3684375,164.33333333333334,113.36125000000001,166.75,113.35406250000001C169.16666666666666,113.34687500000001,171.58333333333334,113.33968750000001,174,113.33250000000001C176.41666666666666,113.32531250000001,178.83333333333334,113.31812500000001,181.25,113.31093750000001C183.66666666666666,113.30375000000001,186.08333333333334,113.29656250000001,188.5,113.289375C190.91666666666666,113.2821875,193.33333333333334,113.275,195.75,113.2678125C198.16666666666669,113.260625,200.58333333333334,113.2534375,203.00000000000003,113.24625C205.41666666666669,113.2390625,207.83333333333331,113.231875,210.24999999999997,113.2246875C212.66666666666666,113.2175,215.08333333333331,113.2103125,217.5,113.203125C219.91666666666666,113.1959375,222.33333333333334,113.18875,224.75,113.1815625C227.16666666666666,113.174375,229.58333333333334,113.1671875,232,113.16C234.41666666666666,113.1528125,236.83333333333334,113.145625,239.25,113.1384375C241.66666666666669,113.13125,244.08333333333334,113.1240625,246.50000000000003,113.116875C248.91666666666669,113.10968749999999,251.33333333333331,113.10249999999999,253.74999999999997,113.09531249999999C256.16666666666663,113.08812499999999,258.5833333333333,113.08093749999999,261,113.07374999999999C263.4166666666667,113.06656249999999,265.8333333333333,113.05937499999999,268.25,113.05218749999999C270.6666666666667,113.04499999999999,273.0833333333333,113.03781249999999,275.5,113.03062499999999C277.9166666666667,113.02343749999999,280.3333333333333,113.01625,282.75,113.0090625C285.1666666666667,113.001875,287.5833333333333,112.99468750000001,290,112.98750000000001C292.4166666666667,112.98031250000001,294.8333333333333,112.97312500000001,297.25,112.96593750000001C299.6666666666667,112.95875000000001,302.0833333333333,112.95156250000001,304.5,112.94437500000001C306.9166666666667,112.93718750000001,309.3333333333333,112.93,311.75,112.9228125C314.1666666666667,112.915625,316.5833333333333,112.9084375,319,112.90125C321.4166666666667,112.8940625,323.8333333333333,112.886875,326.25,112.8796875C328.6666666666667,112.8725,331.0833333333333,112.8653125,333.5,112.858125C335.9166666666667,112.8509375,338.3333333333333,112.84375,340.75,112.8365625C343.1666666666667,112.829375,345.5833333333333,112.8221875,348,112.815C350.4166666666667,112.8078125,352.8333333333333,112.800625,355.25,112.7934375C357.6666666666667,112.78625,360.0833333333333,112.7790625,362.5,112.771875C364.9166666666667,112.7646875,367.3333333333333,112.7575,369.75,112.75031249999999C372.1666666666667,112.74312499999999,374.5833333333333,112.73593749999999,377,112.72874999999999C379.4166666666667,112.72156249999999,381.8333333333333,112.71437499999999,384.25,112.70718749999999C386.6666666666667,112.69999999999999,389.0833333333333,112.6928125,391.5,112.685625C393.9166666666667,112.6784375,396.33333333333337,112.67125,398.75000000000006,112.6640625C401.16666666666674,112.656875,403.58333333333337,112.6496875,406.00000000000006,112.6425C408.4166666666667,112.6353125,410.8333333333333,112.628125,413.24999999999994,112.6209375C415.66666666666663,112.61375,418.08333333333326,112.60656250000001,420.49999999999994,112.59937500000001C422.91666666666663,112.59218750000001,425.3333333333333,112.58500000000001,427.75,112.57781250000001C430.1666666666667,112.570625,432.5833333333333,112.5634375,435,112.55625C437.4166666666667,112.5490625,439.8333333333333,112.541875,442.25,112.5346875C444.6666666666667,112.5275,447.0833333333333,112.5203125,449.5,112.513125C451.9166666666667,112.5059375,454.3333333333333,112.49875,456.75,112.4915625C459.1666666666667,112.484375,461.5833333333333,112.4771875,464,112.47C466.4166666666667,112.4628125,468.8333333333333,112.455625,471.25,112.4484375C473.6666666666667,112.44125,476.0833333333333,112.4340625,478.5,112.426875C480.9166666666667,112.4196875,483.33333333333337,112.4125,485.75000000000006,112.4053125C488.16666666666674,112.398125,490.58333333333337,112.39093749999999,493.00000000000006,112.38374999999999C495.4166666666667,112.37656249999999,497.8333333333333,112.36937499999999,500.24999999999994,112.36218749999999C502.66666666666663,112.35499999999999,505.08333333333326,112.3478125,507.49999999999994,112.340625C509.91666666666663,112.3334375,512.3333333333333,112.32625,514.75,112.3190625C517.1666666666666,112.311875,519.5833333333334,112.3046875,522,112.2975C524.4166666666666,112.2903125,526.8333333333334,112.283125,529.25,112.2759375C531.6666666666666,112.26875,534.0833333333334,112.2615625,536.5,112.254375C538.9166666666666,112.2471875,541.3333333333334,112.24000000000001,543.75,112.23281250000001C546.1666666666666,112.22562500000001,548.5833333333334,112.21843750000001,551,112.21125C553.4166666666666,112.2040625,555.8333333333334,112.196875,558.25,112.1896875C560.6666666666666,112.1825,563.0833333333334,112.1753125,565.5,112.168125C567.9166666666666,112.1609375,570.3333333333334,112.15375,572.75,112.1465625C575.1666666666666,112.139375,577.5833333333334,112.1321875,580,112.125C582.4166666666666,112.1178125,584.8333333333334,112.110625,587.25,112.1034375C589.6666666666666,112.09625,592.0833333333334,112.0890625,594.5,112.081875C596.9166666666666,112.0746875,599.3333333333334,112.0675,601.75,112.0603125C604.1666666666666,112.053125,606.5833333333334,112.0459375,609,112.03875C611.4166666666666,112.03156249999999,613.8333333333334,112.024375,616.25,112.0171875C618.6666666666666,112.01,621.0833333333334,112.0028125,623.5,111.995625C625.9166666666666,111.9884375,628.3333333333334,111.98125,630.75,111.9740625C633.1666666666666,111.966875,635.5833333333334,111.9596875,638,111.9525C640.4166666666666,111.9453125,642.8333333333334,111.938125,645.25,111.9309375C647.6666666666666,111.92375,650.0833333333334,111.9165625,652.5,111.909375C654.9166666666666,111.9021875,657.3333333333334,111.895,659.75,111.8878125C662.1666666666666,111.880625,664.5833333333334,111.8734375,667,111.86625C669.4166666666666,111.8590625,671.8333333333334,111.851875,674.25,111.8446875C676.6666666666666,111.8375,679.0833333333334,111.8303125,681.5,111.823125C683.9166666666666,111.8159375,686.3333333333334,111.80875,688.75,111.8015625C691.1666666666666,111.794375,693.5833333333334,111.7871875,696,111.78C698.4166666666666,111.7728125,700.8333333333334,111.765625,703.25,111.7584375C705.6666666666666,111.75125,708.0833333333334,111.7440625,710.5,111.736875C712.9166666666666,111.7296875,715.3333333333334,111.7225,717.75,111.7153125C720.1666666666666,111.708125,722.5833333333334,111.7009375,725,111.69375C727.4166666666666,111.6865625,729.8333333333334,111.67937500000001,732.25,111.6721875C734.6666666666666,111.665,737.0833333333334,111.6578125,739.5,111.650625C741.9166666666666,111.6434375,744.3333333333334,111.63625,746.75,111.6290625C749.1666666666666,111.621875,751.5833333333334,111.6146875,754,111.6075C756.4166666666666,111.6003125,758.8333333333334,111.593125,761.25,111.5859375C763.6666666666666,111.57875,766.0833333333334,111.5715625,768.5,111.564375C770.9166666666666,111.5571875,773.3333333333334,111.55,775.75,111.5428125C778.1666666666666,111.535625,780.5833333333334,111.5284375,783,111.52125C785.4166666666667,111.5140625,787.8333333333334,111.506875,790.2500000000001,111.4996875C792.6666666666667,111.49249999999999,795.0833333333335,111.48531249999999,797.5000000000001,111.47812499999999C799.9166666666667,111.47093749999999,802.3333333333335,111.46375,804.7500000000001,111.4565625C807.1666666666667,111.449375,809.5833333333335,111.4421875,812.0000000000001,111.435C814.4166666666667,111.4278125,816.8333333333333,111.420625,819.2499999999999,111.4134375C821.6666666666665,111.40625,824.0833333333333,111.3990625,826.4999999999999,111.391875C828.9166666666665,111.3846875,831.3333333333333,111.3775,833.7499999999999,111.3703125C836.1666666666665,111.363125,838.5833333333333,111.35593750000001,840.9999999999999,111.34875000000001C843.4166666666666,111.34156250000001,845.8333333333333,111.33437500000001,848.25,111.32718750000001C850.6666666666666,111.32000000000001,853.0833333333334,111.3128125,855.5,111.305625C857.9166666666666,111.2984375,860.3333333333334,111.29125,862.75,111.2840625C865.1666666666666,111.276875,867.5833333333334,111.2696875,870,111.2625C872.4166666666666,111.2553125,874.8333333333334,111.248125,877.25,111.2409375C879.6666666666666,111.23375,882.0833333333334,111.2265625,884.5,111.219375C886.9166666666666,111.2121875,889.3333333333334,111.205,891.75,111.1978125C894.1666666666666,111.190625,896.5833333333334,111.1834375,899,111.17625C901.4166666666666,111.1690625,903.8333333333334,111.161875,906.25,111.1546875C908.6666666666666,111.1475,911.0833333333334,111.1403125,913.5,111.13312499999999C915.9166666666666,111.12593749999999,918.3333333333334,111.11874999999999,920.75,111.11156249999999C923.1666666666666,111.10437499999999,925.5833333333334,111.0971875,928,111.09C930.4166666666666,111.0828125,932.8333333333334,111.075625,935.25,111.0684375C937.6666666666666,111.06125,940.0833333333334,111.0540625,942.5,111.046875C944.9166666666666,111.0396875,947.3333333333334,111.0325,949.75,111.0253125C952.1666666666666,111.018125,954.5833333333334,111.0109375,957,111.00375C959.4166666666666,110.9965625,961.8333333333334,110.98937500000001,964.25,110.98218750000001C966.6666666666667,110.97500000000001,969.0833333333334,110.96781250000001,971.5000000000001,110.96062500000001C973.9166666666667,110.9534375,976.3333333333335,110.94625,978.7500000000001,110.9390625C981.1666666666667,110.931875,983.5833333333335,110.9246875,986.0000000000001,110.9175C988.4166666666667,110.9103125,990.8333333333335,110.903125,993.2500000000001,110.8959375C995.6666666666667,110.88875,998.0833333333333,110.8815625,1000.4999999999999,110.874375C1002.9166666666665,110.8671875,1005.3333333333333,110.86,1007.7499999999999,110.8528125C1010.1666666666665,110.845625,1012.5833333333333,110.8384375,1014.9999999999999,110.83125C1017.4166666666665,110.8240625,1019.8333333333333,110.816875,1022.2499999999999,110.8096875C1024.6666666666665,110.8025,1027.0833333333333,110.7953125,1029.5,110.788125C1031.9166666666667,110.7809375,1034.3333333333333,110.77374999999999,1036.75,110.76656249999999C1039.1666666666667,110.75937499999999,1041.5833333333333,110.75218749999999,1044,110.74499999999999C1046.4166666666667,110.73781249999999,1048.8333333333333,110.73062499999999,1051.25,110.72343749999999C1053.6666666666667,110.71624999999999,1056.0833333333333,110.7090625,1058.5,110.701875C1060.9166666666667,110.6946875,1063.3333333333333,110.68750000000001,1065.75,110.68031250000001C1068.1666666666667,110.67312500000001,1070.5833333333333,110.66593750000001,1073,110.65875000000001C1075.4166666666667,110.65156250000001,1077.8333333333333,110.64437500000001,1080.25,110.63718750000001C1082.6666666666667,110.63000000000001,1085.0833333333333,110.62281250000001,1087.5,110.61562500000001C1089.9166666666667,110.60843750000001,1092.3333333333333,110.60125000000001,1094.75,110.5940625C1097.1666666666667,110.586875,1099.5833333333333,110.5796875,1102,110.5725C1104.4166666666667,110.5653125,1106.8333333333333,110.558125,1109.25,110.5509375C1111.6666666666667,110.54375,1114.0833333333333,110.5365625,1116.5,110.529375C1118.9166666666667,110.5221875,1121.3333333333333,110.515,1123.75,110.5078125C1126.1666666666667,110.500625,1128.5833333333333,110.4934375,1131,110.48625C1133.4166666666667,110.4790625,1135.8333333333333,110.471875,1138.25,110.4646875C1140.6666666666667,110.4575,1143.0833333333333,110.4503125,1145.5,110.443125C1147.9166666666667,110.4359375,1150.3333333333333,110.42875,1152.75,110.4215625C1155.1666666666667,110.41437499999999,1157.5833333333333,110.41437499999999,1160,110.39999999999999C1162.4166666666667,110.38562499999999,1164.8333333333333,108.86666666666666,1167.25,108.1C1169.6666666666667,107.33333333333333,1172.0833333333333,106.56666666666668,1174.5,105.80000000000001C1176.9166666666667,105.03333333333335,1179.3333333333333,104.26666666666667,1181.75,103.5C1184.1666666666667,102.73333333333333,1186.5833333333333,101.96666666666667,1189,101.2C1191.4166666666667,100.43333333333334,1193.8333333333333,99.66666666666666,1196.25,98.89999999999999C1198.6666666666667,98.13333333333333,1201.0833333333333,97.36666666666666,1203.5,96.6C1205.9166666666667,95.83333333333333,1208.3333333333333,95.06666666666668,1210.75,94.30000000000001C1213.1666666666667,93.53333333333335,1215.5833333333333,92.76666666666667,1218,92C1220.4166666666667,91.23333333333333,1222.8333333333333,90.46666666666667,1225.25,89.7C1227.6666666666667,88.93333333333334,1230.0833333333333,88.16666666666667,1232.5,87.4C1234.9166666666667,86.63333333333334,1237.3333333333333,85.86666666666666,1239.75,85.1C1242.1666666666667,84.33333333333333,1244.5833333333333,83.56666666666666,1247,82.8C1249.4166666666667,82.03333333333333,1251.8333333333333,81.26666666666667,1254.25,80.5C1256.6666666666667,79.73333333333333,1259.0833333333333,78.96666666666665,1261.5,78.19999999999999C1263.9166666666667,77.43333333333332,1266.3333333333333,76.66666666666666,1268.75,75.89999999999999C1271.1666666666667,75.13333333333333,1273.5833333333333,74.36666666666667,1276,73.60000000000001C1278.4166666666667,72.83333333333334,1280.8333333333333,72.06666666666666,1283.25,71.3C1285.6666666666667,70.53333333333333,1288.0833333333333,69.76666666666667,1290.5,69C1292.9166666666667,68.23333333333333,1295.3333333333333,67.46666666666667,1297.75,66.7C1300.1666666666667,65.93333333333334,1302.5833333333333,65.16666666666667,1305,64.4C1307.4166666666667,63.63333333333334,1309.8333333333333,62.86666666666667,1312.25,62.1C1314.6666666666667,61.333333333333336,1317.0833333333333,60.56666666666667,1319.5,59.800000000000004C1321.9166666666667,59.03333333333334,1324.3333333333333,58.266666666666666,1326.75,57.5C1329.1666666666667,56.733333333333334,1331.5833333333333,55.96666666666666,1334,55.199999999999996C1336.4166666666667,54.43333333333333,1338.8333333333333,53.666666666666664,1341.25,52.9C1343.6666666666667,52.13333333333333,1346.0833333333333,51.36666666666666,1348.5,50.599999999999994C1350.9166666666667,49.83333333333333,1353.3333333333333,49.06666666666667,1355.75,48.300000000000004C1358.1666666666667,47.53333333333334,1360.5833333333333,46.766666666666666,1363,46C1365.4166666666667,45.233333333333334,1367.8333333333333,44.46666666666667,1370.25,43.7C1372.6666666666667,42.93333333333334,1375.0833333333333,42.166666666666664,1377.5,41.4C1379.9166666666667,40.63333333333333,1382.3333333333333,39.86666666666666,1384.75,39.099999999999994C1387.1666666666667,38.33333333333333,1389.5833333333333,37.56666666666666,1392,36.8C1394.4166666666667,36.03333333333333,1396.8333333333333,35.26666666666667,1399.25,34.50000000000001C1401.6666666666667,33.73333333333334,1404.0833333333333,32.96666666666667,1406.5,32.2C1408.9166666666667,31.433333333333337,1411.3333333333333,30.66666666666667,1413.75,29.900000000000002C1416.1666666666667,29.133333333333333,1418.5833333333333,28.366666666666667,1421,27.599999999999998C1423.4166666666667,26.83333333333333,1425.8333333333333,26.066666666666663,1428.25,25.299999999999997C1430.6666666666667,24.53333333333333,1433.0833333333333,23.766666666666662,1435.5,22.999999999999996C1437.9166666666667,22.23333333333333,1440.3333333333333,21.466666666666672,1442.75,20.700000000000006C1445.1666666666667,19.93333333333334,1447.5833333333333,19.16666666666667,1450,18.400000000000002" fill="transparent" stroke-linecap="round" stroke="#B6509E" stroke-width="2"></path><path class="visx-linepath" d="M0,111.55C2.4166666666666665,111.55,4.833333333333334,111.55,7.25,111.55C9.666666666666666,111.55,12.083333333333334,111.55,14.5,111.55C16.916666666666668,111.55,19.333333333333332,111.55,21.75,111.55C24.166666666666668,111.55,26.583333333333332,111.55,29,111.55C31.416666666666668,111.55,33.833333333333336,111.55,36.25,111.55C38.666666666666664,111.55,41.083333333333336,111.55,43.5,111.55C45.91666666666667,111.55,48.333333333333336,111.55,50.75000000000001,111.55C53.16666666666667,111.55,55.583333333333336,111.55,58,111.55C60.416666666666664,111.55,62.833333333333336,111.55,65.25,111.55C67.66666666666667,111.55,70.08333333333333,111.55,72.5,111.55C74.91666666666667,111.55,77.33333333333333,111.55,79.75,111.55C82.16666666666667,111.55,84.58333333333333,111.55,87,111.55C89.41666666666667,111.55,91.83333333333333,111.55,94.25,111.55C96.66666666666667,111.55,99.08333333333334,111.55,101.50000000000001,111.55C103.91666666666667,111.55,106.33333333333334,111.55,108.75,111.55C111.16666666666667,111.55,113.58333333333333,111.55,116,111.55C118.41666666666667,111.55,120.83333333333334,111.55,123.25000000000001,111.55C125.66666666666667,111.55,128.08333333333334,111.55,130.5,111.55C132.91666666666666,111.55,135.33333333333334,111.55,137.75,111.55C140.16666666666666,111.55,142.58333333333334,111.55,145,111.55C147.41666666666666,111.55,149.83333333333334,111.55,152.25,111.55C154.66666666666666,111.55,157.08333333333334,111.55,159.5,111.55C161.91666666666666,111.55,164.33333333333334,111.55,166.75,111.55C169.16666666666666,111.55,171.58333333333334,111.55,174,111.55C176.41666666666666,111.55,178.83333333333334,111.55,181.25,111.55C183.66666666666666,111.55,186.08333333333334,111.55,188.5,111.55C190.91666666666666,111.55,193.33333333333334,111.55,195.75,111.55C198.16666666666669,111.55,200.58333333333334,111.55,203.00000000000003,111.55C205.41666666666669,111.55,207.83333333333331,111.55,210.24999999999997,111.55C212.66666666666666,111.55,215.08333333333331,111.55,217.5,111.55C219.91666666666666,111.55,222.33333333333334,111.55,224.75,111.55C227.16666666666666,111.55,229.58333333333334,111.55,232,111.55C234.41666666666666,111.55,236.83333333333334,111.55,239.25,111.55C241.66666666666669,111.55,244.08333333333334,111.55,246.50000000000003,111.55C248.91666666666669,111.55,251.33333333333331,111.55,253.74999999999997,111.55C256.16666666666663,111.55,258.5833333333333,111.55,261,111.55C263.4166666666667,111.55,265.8333333333333,111.55,268.25,111.55C270.6666666666667,111.55,273.0833333333333,111.55,275.5,111.55C277.9166666666667,111.55,280.3333333333333,111.55,282.75,111.55C285.1666666666667,111.55,287.5833333333333,111.55,290,111.55C292.4166666666667,111.55,294.8333333333333,111.55,297.25,111.55C299.6666666666667,111.55,302.0833333333333,111.55,304.5,111.55C306.9166666666667,111.55,309.3333333333333,111.55,311.75,111.55C314.1666666666667,111.55,316.5833333333333,111.55,319,111.55C321.4166666666667,111.55,323.8333333333333,111.55,326.25,111.55C328.6666666666667,111.55,331.0833333333333,111.55,333.5,111.55C335.9166666666667,111.55,338.3333333333333,111.55,340.75,111.55C343.1666666666667,111.55,345.5833333333333,111.55,348,111.55C350.4166666666667,111.55,352.8333333333333,111.55,355.25,111.55C357.6666666666667,111.55,360.0833333333333,111.55,362.5,111.55C364.9166666666667,111.55,367.3333333333333,111.55,369.75,111.55C372.1666666666667,111.55,374.5833333333333,111.55,377,111.55C379.4166666666667,111.55,381.8333333333333,111.55,384.25,111.55C386.6666666666667,111.55,389.0833333333333,111.55,391.5,111.55C393.9166666666667,111.55,396.33333333333337,111.55,398.75000000000006,111.55C401.16666666666674,111.55,403.58333333333337,111.55,406.00000000000006,111.55C408.4166666666667,111.55,410.8333333333333,111.55,413.24999999999994,111.55C415.66666666666663,111.55,418.08333333333326,111.55,420.49999999999994,111.55C422.91666666666663,111.55,425.3333333333333,111.55,427.75,111.55C430.1666666666667,111.55,432.5833333333333,111.55,435,111.55C437.4166666666667,111.55,439.8333333333333,111.55,442.25,111.55C444.6666666666667,111.55,447.0833333333333,111.55,449.5,111.55C451.9166666666667,111.55,454.3333333333333,111.55,456.75,111.55C459.1666666666667,111.55,461.5833333333333,111.55,464,111.55C466.4166666666667,111.55,468.8333333333333,111.55,471.25,111.55C473.6666666666667,111.55,476.0833333333333,111.55,478.5,111.55C480.9166666666667,111.55,483.33333333333337,111.55,485.75000000000006,111.55C488.16666666666674,111.55,490.58333333333337,111.55,493.00000000000006,111.55C495.4166666666667,111.55,497.8333333333333,111.55,500.24999999999994,111.55C502.66666666666663,111.55,505.08333333333326,111.55,507.49999999999994,111.55C509.91666666666663,111.55,512.3333333333333,111.55,514.75,111.55C517.1666666666666,111.55,519.5833333333334,111.55,522,111.55C524.4166666666666,111.55,526.8333333333334,111.55,529.25,111.55C531.6666666666666,111.55,534.0833333333334,111.55,536.5,111.55C538.9166666666666,111.55,541.3333333333334,111.55,543.75,111.55C546.1666666666666,111.55,548.5833333333334,111.55,551,111.55C553.4166666666666,111.55,555.8333333333334,111.55,558.25,111.55C560.6666666666666,111.55,563.0833333333334,111.55,565.5,111.55C567.9166666666666,111.55,570.3333333333334,111.55,572.75,111.55C575.1666666666666,111.55,577.5833333333334,111.55,580,111.55C582.4166666666666,111.55,584.8333333333334,111.55,587.25,111.55C589.6666666666666,111.55,592.0833333333334,111.55,594.5,111.55C596.9166666666666,111.55,599.3333333333334,111.55,601.75,111.55C604.1666666666666,111.55,606.5833333333334,111.55,609,111.55C611.4166666666666,111.55,613.8333333333334,111.55,616.25,111.55C618.6666666666666,111.55,621.0833333333334,111.55,623.5,111.55C625.9166666666666,111.55,628.3333333333334,111.55,630.75,111.55C633.1666666666666,111.55,635.5833333333334,111.55,638,111.55C640.4166666666666,111.55,642.8333333333334,111.55,645.25,111.55C647.6666666666666,111.55,650.0833333333334,111.55,652.5,111.55C654.9166666666666,111.55,657.3333333333334,111.55,659.75,111.55C662.1666666666666,111.55,664.5833333333334,111.55,667,111.55C669.4166666666666,111.55,671.8333333333334,111.55,674.25,111.55C676.6666666666666,111.55,679.0833333333334,111.55,681.5,111.55C683.9166666666666,111.55,686.3333333333334,111.55,688.75,111.55C691.1666666666666,111.55,693.5833333333334,111.55,696,111.55C698.4166666666666,111.55,700.8333333333334,111.55,703.25,111.55C705.6666666666666,111.55,708.0833333333334,111.55,710.5,111.55C712.9166666666666,111.55,715.3333333333334,111.55,717.75,111.55C720.1666666666666,111.55,722.5833333333334,111.55,725,111.55C727.4166666666666,111.55,729.8333333333334,111.55,732.25,111.55C734.6666666666666,111.55,737.0833333333334,111.55,739.5,111.55C741.9166666666666,111.55,744.3333333333334,111.55,746.75,111.55C749.1666666666666,111.55,751.5833333333334,111.55,754,111.55C756.4166666666666,111.55,758.8333333333334,111.55,761.25,111.55C763.6666666666666,111.55,766.0833333333334,111.55,768.5,111.55C770.9166666666666,111.55,773.3333333333334,111.55,775.75,111.55C778.1666666666666,111.55,780.5833333333334,111.55,783,111.55C785.4166666666667,111.55,787.8333333333334,111.55,790.2500000000001,111.55C792.6666666666667,111.55,795.0833333333335,111.55,797.5000000000001,111.55C799.9166666666667,111.55,802.3333333333335,111.55,804.7500000000001,111.55C807.1666666666667,111.55,809.5833333333335,111.55,812.0000000000001,111.55C814.4166666666667,111.55,816.8333333333333,111.55,819.2499999999999,111.55C821.6666666666665,111.55,824.0833333333333,111.55,826.4999999999999,111.55C828.9166666666665,111.55,831.3333333333333,111.55,833.7499999999999,111.55C836.1666666666665,111.55,838.5833333333333,111.55,840.9999999999999,111.55C843.4166666666666,111.55,845.8333333333333,111.55,848.25,111.55C850.6666666666666,111.55,853.0833333333334,111.55,855.5,111.55C857.9166666666666,111.55,860.3333333333334,111.55,862.75,111.55C865.1666666666666,111.55,867.5833333333334,111.55,870,111.55C872.4166666666666,111.55,874.8333333333334,111.55,877.25,111.55C879.6666666666666,111.55,882.0833333333334,111.55,884.5,111.55C886.9166666666666,111.55,889.3333333333334,111.55,891.75,111.55C894.1666666666666,111.55,896.5833333333334,111.55,899,111.55C901.4166666666666,111.55,903.8333333333334,111.55,906.25,111.55C908.6666666666666,111.55,911.0833333333334,111.55,913.5,111.55C915.9166666666666,111.55,918.3333333333334,111.55,920.75,111.55C923.1666666666666,111.55,925.5833333333334,111.55,928,111.55C930.4166666666666,111.55,932.8333333333334,111.55,935.25,111.55C937.6666666666666,111.55,940.0833333333334,111.55,942.5,111.55C944.9166666666666,111.55,947.3333333333334,111.55,949.75,111.55C952.1666666666666,111.55,954.5833333333334,111.55,957,111.55C959.4166666666666,111.55,961.8333333333334,111.55,964.25,111.55C966.6666666666667,111.55,969.0833333333334,111.55,971.5000000000001,111.55C973.9166666666667,111.55,976.3333333333335,111.55,978.7500000000001,111.55C981.1666666666667,111.55,983.5833333333335,111.55,986.0000000000001,111.55C988.4166666666667,111.55,990.8333333333335,111.55,993.2500000000001,111.55C995.6666666666667,111.55,998.0833333333333,111.55,1000.4999999999999,111.55C1002.9166666666665,111.55,1005.3333333333333,111.55,1007.7499999999999,111.55C1010.1666666666665,111.55,1012.5833333333333,111.55,1014.9999999999999,111.55C1017.4166666666665,111.55,1019.8333333333333,111.55,1022.2499999999999,111.55C1024.6666666666665,111.55,1027.0833333333333,111.55,1029.5,111.55C1031.9166666666667,111.55,1034.3333333333333,111.55,1036.75,111.55C1039.1666666666667,111.55,1041.5833333333333,111.55,1044,111.55C1046.4166666666667,111.55,1048.8333333333333,111.55,1051.25,111.55C1053.6666666666667,111.55,1056.0833333333333,111.55,1058.5,111.55C1060.9166666666667,111.55,1063.3333333333333,111.55,1065.75,111.55C1068.1666666666667,111.55,1070.5833333333333,111.55,1073,111.55C1075.4166666666667,111.55,1077.8333333333333,111.55,1080.25,111.55C1082.6666666666667,111.55,1085.0833333333333,111.55,1087.5,111.55C1089.9166666666667,111.55,1092.3333333333333,111.55,1094.75,111.55C1097.1666666666667,111.55,1099.5833333333333,111.55,1102,111.55C1104.4166666666667,111.55,1106.8333333333333,111.55,1109.25,111.55C1111.6666666666667,111.55,1114.0833333333333,111.55,1116.5,111.55C1118.9166666666667,111.55,1121.3333333333333,111.55,1123.75,111.55C1126.1666666666667,111.55,1128.5833333333333,111.55,1131,111.55C1133.4166666666667,111.55,1135.8333333333333,111.55,1138.25,111.55C1140.6666666666667,111.55,1143.0833333333333,111.55,1145.5,111.55C1147.9166666666667,111.55,1150.3333333333333,111.55,1152.75,111.55C1155.1666666666667,111.55,1157.5833333333333,111.55,1160,111.55C1162.4166666666667,111.55,1164.8333333333333,111.55,1167.25,111.55C1169.6666666666667,111.55,1172.0833333333333,111.55,1174.5,111.55C1176.9166666666667,111.55,1179.3333333333333,111.55,1181.75,111.55C1184.1666666666667,111.55,1186.5833333333333,111.55,1189,111.55C1191.4166666666667,111.55,1193.8333333333333,111.55,1196.25,111.55C1198.6666666666667,111.55,1201.0833333333333,111.55,1203.5,111.55C1205.9166666666667,111.55,1208.3333333333333,111.55,1210.75,111.55C1213.1666666666667,111.55,1215.5833333333333,111.55,1218,111.55C1220.4166666666667,111.55,1222.8333333333333,111.55,1225.25,111.55C1227.6666666666667,111.55,1230.0833333333333,111.55,1232.5,111.55C1234.9166666666667,111.55,1237.3333333333333,111.55,1239.75,111.55C1242.1666666666667,111.55,1244.5833333333333,111.55,1247,111.55C1249.4166666666667,111.55,1251.8333333333333,111.55,1254.25,111.55C1256.6666666666667,111.55,1259.0833333333333,111.55,1261.5,111.55C1263.9166666666667,111.55,1266.3333333333333,111.55,1268.75,111.55C1271.1666666666667,111.55,1273.5833333333333,111.55,1276,111.55C1278.4166666666667,111.55,1280.8333333333333,111.55,1283.25,111.55C1285.6666666666667,111.55,1288.0833333333333,111.55,1290.5,111.55C1292.9166666666667,111.55,1295.3333333333333,111.55,1297.75,111.55C1300.1666666666667,111.55,1302.5833333333333,111.55,1305,111.55C1307.4166666666667,111.55,1309.8333333333333,111.55,1312.25,111.55C1314.6666666666667,111.55,1317.0833333333333,111.55,1319.5,111.55C1321.9166666666667,111.55,1324.3333333333333,111.55,1326.75,111.55C1329.1666666666667,111.55,1331.5833333333333,111.55,1334,111.55C1336.4166666666667,111.55,1338.8333333333333,111.55,1341.25,111.55C1343.6666666666667,111.55,1346.0833333333333,111.55,1348.5,111.55C1350.9166666666667,111.55,1353.3333333333333,111.55,1355.75,111.55C1358.1666666666667,111.55,1360.5833333333333,111.55,1363,111.55C1365.4166666666667,111.55,1367.8333333333333,111.55,1370.25,111.55C1372.6666666666667,111.55,1375.0833333333333,111.55,1377.5,111.55C1379.9166666666667,111.55,1382.3333333333333,111.55,1384.75,111.55C1387.1666666666667,111.55,1389.5833333333333,111.55,1392,111.55C1394.4166666666667,111.55,1396.8333333333333,111.55,1399.25,111.55C1401.6666666666667,111.55,1404.0833333333333,111.55,1406.5,111.55C1408.9166666666667,111.55,1411.3333333333333,111.55,1413.75,111.55C1416.1666666666667,111.55,1418.5833333333333,111.55,1421,111.55C1423.4166666666667,111.55,1425.8333333333333,111.55,1428.25,111.55C1430.6666666666667,111.55,1433.0833333333333,111.55,1435.5,111.55C1437.9166666666667,111.55,1440.3333333333333,111.55,1442.75,111.55C1445.1666666666667,111.55,1447.5833333333333,111.55,1450,111.55" fill="transparent" stroke-linecap="round" stroke="#E7C6DF" stroke-width="2"></path><g class="visx-group visx-axis visx-axis-bottom" transform="translate(0, 115)"><g class="visx-group visx-axis-tick" transform="translate(0, 0)"><line class="visx-line" x1="0" y1="0" x2="0" y2="8" fill="transparent" shape-rendering="crispEdges" stroke="#000" stroke-width="0" stroke-linecap="square"></line><svg x="0" y="0" font-size="10" style="overflow:visible"><text transform="" x="0" y="18" fill="#000" font-size="10" text-anchor="middle"><tspan x="0" dy="0em">0%</tspan></text></svg></g><g class="visx-group visx-axis-tick" transform="translate(0, 0)"><line class="visx-line" x1="362.5" y1="0" x2="362.5" y2="8" fill="transparent" shape-rendering="crispEdges" stroke="#000" stroke-width="0" stroke-linecap="square"></line><svg x="0" y="0" font-size="10" style="overflow:visible"><text transform="" x="362.5" y="18" fill="#000" font-size="10" text-anchor="middle"><tspan x="362.5" dy="0em">25%</tspan></text></svg></g><g class="visx-group visx-axis-tick" transform="translate(0, 0)"><line class="visx-line" x1="725" y1="0" x2="725" y2="8" fill="transparent" shape-rendering="crispEdges" stroke="#000" stroke-width="0" stroke-linecap="square"></line><svg x="0" y="0" font-size="10" style="overflow:visible"><text transform="" x="725" y="18" fill="#000" font-size="10" text-anchor="middle"><tspan x="725" dy="0em">50%</tspan></text></svg></g><g class="visx-group visx-axis-tick" transform="translate(0, 0)"><line class="visx-line" x1="1087.5" y1="0" x2="1087.5" y2="8" fill="transparent" shape-rendering="crispEdges" stroke="#000" stroke-width="0" stroke-linecap="square"></line><svg x="0" y="0" font-size="10" style="overflow:visible"><text transform="" x="1087.5" y="18" fill="#000" font-size="10" text-anchor="middle"><tspan x="1087.5" dy="0em">75%</tspan></text></svg></g><g class="visx-group visx-axis-tick" transform="translate(0, 0)"><line class="visx-line" x1="1450" y1="0" x2="1450" y2="8" fill="transparent" shape-rendering="crispEdges" stroke="#000" stroke-width="0" stroke-linecap="square"></line><svg x="0" y="0" font-size="10" style="overflow:visible"><text transform="" x="1450" y="18" fill="#000" font-size="10" text-anchor="middle"><tspan x="1450" dy="0em">100%</tspan></text></svg></g><line class="visx-line visx-axis-line" x1="0.5" y1="0" x2="1450.5" y2="0" fill="transparent" shape-rendering="crispEdges" stroke="#222" stroke-width="0"></line></g><g class="visx-group visx-axis visx-axis-left" transform="translate(0, 0)"><g class="visx-group visx-axis-tick" transform="translate(0, 0)"><line class="visx-line" x1="0" y1="115" x2="-8" y2="115" fill="transparent" shape-rendering="crispEdges" stroke="#222" stroke-width="0" stroke-linecap="square"></line><svg x="-30" y="0" font-size="8" style="overflow:visible"><text transform="" x="-8" y="115" fill="#000" font-size="8" text-anchor="start"><tspan x="-8" dy="0em">0%</tspan></text></svg></g><g class="visx-group visx-axis-tick" transform="translate(0, 0)"><line class="visx-line" x1="0" y1="57.5" x2="-8" y2="57.5" fill="transparent" shape-rendering="crispEdges" stroke="#222" stroke-width="0" stroke-linecap="square"></line><svg x="-30" y="0" font-size="8" style="overflow:visible"><text transform="" x="-8" y="57.5" fill="#000" font-size="8" text-anchor="start"><tspan x="-8" dy="0em">50%</tspan></text></svg></g><g class="visx-group visx-axis-tick" transform="translate(0, 0)"><line class="visx-line" x1="0" y1="0" x2="-8" y2="0" fill="transparent" shape-rendering="crispEdges" stroke="#222" stroke-width="0" stroke-linecap="square"></line><svg x="-30" y="0" font-size="8" style="overflow:visible"><text transform="" x="-8" y="0" fill="#000" font-size="8" text-anchor="start"><tspan x="-8" dy="0em">100%</tspan></text></svg></g><line class="visx-line visx-axis-line" x1="0" y1="115.5" x2="0" y2="0.5" fill="transparent" shape-rendering="crispEdges" stroke="#222" stroke-width="0"></line></g><rect class="visx-bar" width="1450" height="115" fill="transparent"></rect><line class="visx-line" x1="1160" y1="28" x2="1160" y2="115" fill="transparent" shape-rendering="crispEdges" stroke="#0062D2" stroke-width="1" pointer-events="none" stroke-dasharray="5,2"></line><svg x="0" y="0" font-size="10px" style="overflow:visible"><text transform="" x="1160" y="20" font-size="10px" fill="#fff" stroke="#fff" stroke-width="0.8em" text-anchor="middle"><tspan x="1160" dy="0.355em">Optimal 80%</tspan></text></svg><svg x="0" y="0" font-size="10px" style="overflow:visible"><text transform="" x="1160" y="20" font-size="10px" fill="#62677B" text-anchor="middle"><tspan x="1160" dy="0.355em">Optimal 80%</tspan></text></svg></g></svg>