<?xml version="1.0"?><svg xmlns="http://www.w3.org/2000/svg" xmlns:xlink= "http://www.w3.org/1999/xlink" style="background: white;" width="1500" height="185"> <g style="color: black; font-size: 13px; font-family: sans-serif; transform: translate(18px, 25px);"><g><circle r="3" cx="-6" cy="-5" style="fill: #B6509E" /><text>Borrow APR, variable</text></g><g style="transform: translateX(150px);"><circle r="3" cx="-6" cy="-5" style="fill: rgb(231, 198, 223)" /><text>Borrow APR, stable</text></g><g style="transform: translateX(290px);"><circle r="3" cx="-6" cy="-5" style="fill: rgb(0, 98, 210)" /><text>Utilization Rate</text></g></g><g class="visx-group" transform="translate(40, 50)"><g class="visx-group visx-rows" transform="translate(0, 0)"><line class="visx-line" x1="0" y1="115" x2="1450" y2="115" fill="transparent" shape-rendering="crispEdges" stroke="#000" stroke-width="1" stroke-dasharray="3,3" pointer-events="none"></line><line class="visx-line" x1="0" y1="82.14285714285714" x2="1450" y2="82.14285714285714" fill="transparent" shape-rendering="crispEdges" stroke="#000" stroke-width="1" stroke-dasharray="3,3" pointer-events="none"></line><line class="visx-line" x1="0" y1="49.28571428571429" x2="1450" y2="49.28571428571429" fill="transparent" shape-rendering="crispEdges" stroke="#000" stroke-width="1" stroke-dasharray="3,3" pointer-events="none"></line><line class="visx-line" x1="0" y1="16.428571428571434" x2="1450" y2="16.428571428571434" fill="transparent" shape-rendering="crispEdges" stroke="#000" stroke-width="1" stroke-dasharray="3,3" pointer-events="none"></line></g><path class="visx-linepath" d="M0,114.91785714280603C2.4166666666666665,114.9093386243088,4.833333333333334,114.90082010581159,7.25,114.89230158730159C9.666666666666666,114.88378306879159,12.083333333333334,114.87526455026455,14.5,114.86674603174603C16.916666666666668,114.85822751322752,19.333333333333332,114.84970899470899,21.75,114.84119047619048C24.166666666666668,114.83267195767196,26.583333333333332,114.82415343915343,29,114.81563492063492C31.416666666666668,114.8071164021164,33.833333333333336,114.79859788359788,36.25,114.79007936507936C38.666666666666664,114.78156084656085,41.083333333333336,114.77304232804232,43.5,114.76452380952381C45.91666666666667,114.7560052910053,48.333333333333336,114.74748677248677,50.75000000000001,114.73896825396825C53.16666666666667,114.73044973544974,55.583333333333336,114.72193121693121,58,114.7134126984127C60.416666666666664,114.70489417989418,62.833333333333336,114.69637566137567,65.25,114.68785714285715C67.66666666666667,114.67933862433864,70.08333333333333,114.6708201058201,72.5,114.66230158730158C74.91666666666667,114.65378306878307,77.33333333333333,114.64526455026454,79.75,114.63674603174603C82.16666666666667,114.62822751322751,84.58333333333333,114.61970899470899,87,114.61119047619047C89.41666666666667,114.60267195767196,91.83333333333333,114.59415343915343,94.25,114.58563492063492C96.66666666666667,114.5771164021164,99.08333333333334,114.56859788359787,101.50000000000001,114.56007936507936C103.91666666666667,114.55156084656085,106.33333333333334,114.54304232804232,108.75,114.5345238095238C111.16666666666667,114.52600529100529,113.58333333333333,114.51748677248676,116,114.50896825396825C118.41666666666667,114.50044973544973,120.83333333333334,114.4919312169312,123.25000000000001,114.48341269841269C125.66666666666667,114.47489417989418,128.08333333333334,114.46637566137566,130.5,114.45785714285715C132.91666666666666,114.44933862433864,135.33333333333334,114.44082010582011,137.75,114.4323015873016C140.16666666666666,114.42378306878308,142.58333333333334,114.41526455026455,145,114.40674603174604C147.41666666666666,114.39822751322752,149.83333333333334,114.389708994709,152.25,114.38119047619048C154.66666666666666,114.37267195767197,157.08333333333334,114.36415343915345,159.5,114.35563492063493C161.91666666666666,114.3471164021164,164.33333333333334,114.33859788359788,166.75,114.33007936507936C169.16666666666666,114.32156084656083,171.58333333333334,114.31304232804231,174,114.3045238095238C176.41666666666666,114.29600529100529,178.83333333333334,114.28748677248676,181.25,114.27896825396824C183.66666666666666,114.27044973544973,186.08333333333334,114.26193121693122,188.5,114.2534126984127C190.91666666666666,114.24489417989419,193.33333333333334,114.23637566137566,195.75,114.22785714285715C198.16666666666669,114.21933862433863,200.58333333333334,114.2108201058201,203.00000000000003,114.20230158730159C205.41666666666669,114.19378306878308,207.83333333333331,114.18526455026455,210.24999999999997,114.17674603174603C212.66666666666666,114.16822751322752,215.08333333333331,114.15970899470899,217.5,114.15119047619048C219.91666666666666,114.14267195767196,222.33333333333334,114.13415343915344,224.75,114.12563492063492C227.16666666666666,114.11711640211641,229.58333333333334,114.10859788359788,232,114.10007936507937C234.41666666666666,114.09156084656085,236.83333333333334,114.08304232804232,239.25,114.07452380952381C241.66666666666669,114.0660052910053,244.08333333333334,114.05748677248677,246.50000000000003,114.04896825396825C248.91666666666669,114.04044973544974,251.33333333333331,114.03193121693121,253.74999999999997,114.0234126984127C256.16666666666663,114.01489417989418,258.5833333333333,114.00637566137566,261,113.99785714285714C263.4166666666667,113.98933862433863,265.8333333333333,113.9808201058201,268.25,113.97230158730159C270.6666666666667,113.96378306878307,273.0833333333333,113.95526455026454,275.5,113.94674603174603C277.9166666666667,113.93822751322752,280.3333333333333,113.92970899470899,282.75,113.92119047619047C285.1666666666667,113.91267195767196,287.5833333333333,113.90415343915343,290,113.89563492063492C292.4166666666667,113.8871164021164,294.8333333333333,113.87859788359788,297.25,113.87007936507936C299.6666666666667,113.86156084656085,302.0833333333333,113.85304232804232,304.5,113.8445238095238C306.9166666666667,113.83600529100529,309.3333333333333,113.82748677248676,311.75,113.81896825396825C314.1666666666667,113.81044973544974,316.5833333333333,113.80193121693122,319,113.79341269841271C321.4166666666667,113.7848941798942,323.8333333333333,113.77637566137567,326.25,113.76785714285715C328.6666666666667,113.75933862433864,331.0833333333333,113.75082010582011,333.5,113.7423015873016C335.9166666666667,113.73378306878308,338.3333333333333,113.72526455026454,340.75,113.71674603174603C343.1666666666667,113.70822751322751,345.5833333333333,113.69970899470898,348,113.69119047619047C350.4166666666667,113.68267195767196,352.8333333333333,113.67415343915343,355.25,113.66563492063491C357.6666666666667,113.6571164021164,360.0833333333333,113.64859788359787,362.5,113.64007936507936C364.9166666666667,113.63156084656084,367.3333333333333,113.62304232804232,369.75,113.6145238095238C372.1666666666667,113.60600529100529,374.5833333333333,113.59748677248676,377,113.58896825396825C379.4166666666667,113.58044973544973,381.8333333333333,113.57193121693122,384.25,113.5634126984127C386.6666666666667,113.55489417989419,389.0833333333333,113.54637566137566,391.5,113.53785714285715C393.9166666666667,113.52933862433864,396.33333333333337,113.5208201058201,398.75000000000006,113.5123015873016C401.16666666666674,113.50378306878308,403.58333333333337,113.49526455026455,406.00000000000006,113.48674603174604C408.4166666666667,113.47822751322752,410.8333333333333,113.469708994709,413.24999999999994,113.46119047619048C415.66666666666663,113.45267195767197,418.08333333333326,113.44415343915344,420.49999999999994,113.43563492063493C422.91666666666663,113.42711640211641,425.3333333333333,113.4185978835979,427.75,113.41007936507937C430.1666666666667,113.40156084656086,432.5833333333333,113.39304232804233,435,113.3845238095238C437.4166666666667,113.37600529100527,439.8333333333333,113.36748677248676,442.25,113.35896825396824C444.6666666666667,113.35044973544973,447.0833333333333,113.34193121693121,449.5,113.3334126984127C451.9166666666667,113.32489417989419,454.3333333333333,113.31637566137566,456.75,113.30785714285715C459.1666666666667,113.29933862433863,461.5833333333333,113.2908201058201,464,113.28230158730159C466.4166666666667,113.27378306878308,468.8333333333333,113.26526455026455,471.25,113.25674603174603C473.6666666666667,113.24822751322752,476.0833333333333,113.23970899470899,478.5,113.23119047619048C480.9166666666667,113.22267195767196,483.33333333333337,113.21415343915343,485.75000000000006,113.20563492063492C488.16666666666674,113.19711640211641,490.58333333333337,113.18859788359788,493.00000000000006,113.18007936507937C495.4166666666667,113.17156084656085,497.8333333333333,113.16304232804232,500.24999999999994,113.15452380952381C502.66666666666663,113.1460052910053,505.08333333333326,113.13748677248677,507.49999999999994,113.12896825396825C509.91666666666663,113.12044973544974,512.3333333333333,113.11193121693121,514.75,113.1034126984127C517.1666666666666,113.09489417989418,519.5833333333334,113.08637566137565,522,113.07785714285714C524.4166666666666,113.06933862433863,526.8333333333334,113.0608201058201,529.25,113.05230158730159C531.6666666666666,113.04378306878307,534.0833333333334,113.03526455026454,536.5,113.02674603174603C538.9166666666666,113.01822751322752,541.3333333333334,113.00970899470899,543.75,113.00119047619047C546.1666666666666,112.99267195767196,548.5833333333334,112.98415343915343,551,112.97563492063492C553.4166666666666,112.9671164021164,555.8333333333334,112.95859788359788,558.25,112.95007936507936C560.6666666666666,112.94156084656085,563.0833333333334,112.93304232804232,565.5,112.9245238095238C567.9166666666666,112.91600529100529,570.3333333333334,112.90748677248678,572.75,112.89896825396826C575.1666666666666,112.89044973544975,577.5833333333334,112.88193121693122,580,112.87341269841271C582.4166666666666,112.8648941798942,584.8333333333334,112.85637566137567,587.25,112.84785714285715C589.6666666666666,112.83933862433864,592.0833333333334,112.83082010582011,594.5,112.8223015873016C596.9166666666666,112.81378306878308,599.3333333333334,112.80526455026455,601.75,112.79674603174604C604.1666666666666,112.78822751322753,606.5833333333334,112.77970899470898,609,112.77119047619047C611.4166666666666,112.76267195767196,613.8333333333334,112.75415343915343,616.25,112.74563492063491C618.6666666666666,112.7371164021164,621.0833333333334,112.72859788359787,623.5,112.72007936507936C625.9166666666666,112.71156084656084,628.3333333333334,112.70304232804232,630.75,112.6945238095238C633.1666666666666,112.68600529100529,635.5833333333334,112.67748677248677,638,112.66896825396826C640.4166666666666,112.66044973544975,642.8333333333334,112.65193121693122,645.25,112.6434126984127C647.6666666666666,112.63489417989419,650.0833333333334,112.63489417989419,652.5,112.61785714285715C654.9166666666666,112.6008201058201,657.3333333333334,112.02045454545456,659.75,111.72175324675325C662.1666666666666,111.42305194805195,664.5833333333334,111.12435064935066,667,110.82564935064936C669.4166666666666,110.52694805194805,671.8333333333334,110.22824675324676,674.25,109.92954545454546C676.6666666666666,109.63084415584416,679.0833333333334,109.33214285714287,681.5,109.03344155844157C683.9166666666666,108.73474025974026,686.3333333333334,108.43603896103896,688.75,108.13733766233766C691.1666666666666,107.83863636363635,693.5833333333334,107.53993506493507,696,107.24123376623376C698.4166666666666,106.94253246753246,700.8333333333334,106.64383116883117,703.25,106.34512987012987C705.6666666666666,106.04642857142856,708.0833333333334,105.74772727272727,710.5,105.44902597402597C712.9166666666666,105.15032467532467,715.3333333333334,104.85162337662338,717.75,104.55292207792208C720.1666666666666,104.25422077922077,722.5833333333334,103.95551948051948,725,103.65681818181818C727.4166666666666,103.35811688311688,729.8333333333334,103.05941558441559,732.25,102.76071428571429C734.6666666666666,102.46201298701298,737.0833333333334,102.1633116883117,739.5,101.86461038961039C741.9166666666666,101.56590909090909,744.3333333333334,101.2672077922078,746.75,100.9685064935065C749.1666666666666,100.66980519480519,751.5833333333334,100.3711038961039,754,100.0724025974026C756.4166666666666,99.7737012987013,758.8333333333334,99.47500000000001,761.25,99.1762987012987C763.6666666666666,98.8775974025974,766.0833333333334,98.57889610389611,768.5,98.28019480519481C770.9166666666666,97.9814935064935,773.3333333333334,97.6827922077922,775.75,97.3840909090909C778.1666666666666,97.0853896103896,780.5833333333334,96.7866883116883,783,96.487987012987C785.4166666666667,96.1892857142857,787.8333333333334,95.89058441558441,790.2500000000001,95.59188311688311C792.6666666666667,95.29318181818181,795.0833333333335,94.99448051948052,797.5000000000001,94.69577922077922C799.9166666666667,94.39707792207791,802.3333333333335,94.09837662337662,804.7500000000001,93.79967532467532C807.1666666666667,93.50097402597402,809.5833333333335,93.20227272727273,812.0000000000001,92.90357142857142C814.4166666666667,92.60487012987014,816.8333333333333,92.30616883116882,819.2499999999999,92.00746753246753C821.6666666666665,91.70876623376623,824.0833333333333,91.41006493506492,826.4999999999999,91.11136363636363C828.9166666666665,90.81266233766235,831.3333333333333,90.51396103896106,833.7499999999999,90.21525974025975C836.1666666666665,89.91655844155845,838.5833333333333,89.61785714285715,840.9999999999999,89.31915584415584C843.4166666666666,89.02045454545454,845.8333333333333,88.72175324675325,848.25,88.42305194805195C850.6666666666666,88.12435064935065,853.0833333333334,87.82564935064936,855.5,87.52694805194805C857.9166666666666,87.22824675324675,860.3333333333334,86.92954545454545,862.75,86.63084415584414C865.1666666666666,86.33214285714284,867.5833333333334,86.03344155844154,870,85.73474025974025C872.4166666666666,85.43603896103896,874.8333333333334,85.13733766233767,877.25,84.83863636363637C879.6666666666666,84.53993506493507,882.0833333333334,84.24123376623376,884.5,83.94253246753246C886.9166666666666,83.64383116883116,889.3333333333334,83.34512987012988,891.75,83.04642857142858C894.1666666666666,82.74772727272727,896.5833333333334,82.44902597402597,899,82.15032467532467C901.4166666666666,81.85162337662337,903.8333333333334,81.55292207792208,906.25,81.25422077922079C908.6666666666666,80.9555194805195,911.0833333333334,80.6568181818182,913.5,80.35811688311689C915.9166666666666,80.05941558441559,918.3333333333334,79.7607142857143,920.75,79.462012987013C923.1666666666666,79.1633116883117,925.5833333333334,78.86461038961039,928,78.56590909090909C930.4166666666666,78.26720779220778,932.8333333333334,77.9685064935065,935.25,77.66980519480519C937.6666666666666,77.37110389610389,940.0833333333334,77.0724025974026,942.5,76.7737012987013C944.9166666666666,76.475,947.3333333333334,76.1762987012987,949.75,75.8775974025974C952.1666666666666,75.5788961038961,954.5833333333334,75.2801948051948,957,74.98149350649349C959.4166666666666,74.68279220779219,961.8333333333334,74.3840909090909,964.25,74.08538961038961C966.6666666666667,73.78668831168831,969.0833333333334,73.48798701298702,971.5000000000001,73.18928571428572C973.9166666666667,72.89058441558441,976.3333333333335,72.59188311688312,978.7500000000001,72.29318181818182C981.1666666666667,71.99448051948052,983.5833333333335,71.69577922077922,986.0000000000001,71.39707792207791C988.4166666666667,71.09837662337661,990.8333333333335,70.79967532467533,993.2500000000001,70.50097402597403C995.6666666666667,70.20227272727274,998.0833333333333,69.90357142857142,1000.4999999999999,69.60487012987014C1002.9166666666665,69.30616883116883,1005.3333333333333,69.00746753246754,1007.7499999999999,68.70876623376624C1010.1666666666665,68.41006493506494,1012.5833333333333,68.11136363636365,1014.9999999999999,67.81266233766235C1017.4166666666665,67.51396103896104,1019.8333333333333,67.21525974025974,1022.2499999999999,66.91655844155844C1024.6666666666665,66.61785714285713,1027.0833333333333,66.31915584415584,1029.5,66.02045454545454C1031.9166666666667,65.72175324675325,1034.3333333333333,65.42305194805195,1036.75,65.12435064935065C1039.1666666666667,64.82564935064934,1041.5833333333333,64.52694805194805,1044,64.22824675324675C1046.4166666666667,63.929545454545455,1048.8333333333333,63.63084415584416,1051.25,63.332142857142856C1053.6666666666667,63.03344155844155,1056.0833333333333,62.73474025974024,1058.5,62.436038961038946C1060.9166666666667,62.13733766233765,1063.3333333333333,61.83863636363636,1065.75,61.539935064935065C1068.1666666666667,61.24123376623377,1070.5833333333333,60.942532467532466,1073,60.64383116883117C1075.4166666666667,60.345129870129874,1077.8333333333333,60.04642857142858,1080.25,59.747727272727275C1082.6666666666667,59.44902597402597,1085.0833333333333,59.15032467532466,1087.5,58.851623376623365C1089.9166666666667,58.55292207792207,1092.3333333333333,58.25422077922077,1094.75,57.95551948051948C1097.1666666666667,57.65681818181818,1099.5833333333333,57.35811688311688,1102,57.05941558441558C1104.4166666666667,56.760714285714286,1106.8333333333333,56.46201298701298,1109.25,56.16331168831169C1111.6666666666667,55.86461038961039,1114.0833333333333,55.565909090909095,1116.5,55.2672077922078C1118.9166666666667,54.9685064935065,1121.3333333333333,54.66980519480519,1123.75,54.37110389610389C1126.1666666666667,54.072402597402586,1128.5833333333333,53.77370129870129,1131,53.474999999999994C1133.4166666666667,53.1762987012987,1135.8333333333333,52.87759740259741,1138.25,52.57889610389611C1140.6666666666667,52.28019480519482,1143.0833333333333,51.98149350649352,1145.5,51.68279220779222C1147.9166666666667,51.384090909090915,1150.3333333333333,51.08538961038961,1152.75,50.78668831168831C1155.1666666666667,50.487987012987006,1157.5833333333333,50.18928571428571,1160,49.890584415584414C1162.4166666666667,49.59188311688312,1164.8333333333333,49.29318181818182,1167.25,48.994480519480526C1169.6666666666667,48.69577922077923,1172.0833333333333,48.39707792207792,1174.5,48.098376623376616C1176.9166666666667,47.79967532467531,1179.3333333333333,47.50097402597402,1181.75,47.20227272727272C1184.1666666666667,46.903571428571425,1186.5833333333333,46.60487012987012,1189,46.306168831168826C1191.4166666666667,46.00746753246753,1193.8333333333333,45.70876623376623,1196.25,45.41006493506493C1198.6666666666667,45.111363636363635,1201.0833333333333,44.81266233766234,1203.5,44.51396103896104C1205.9166666666667,44.21525974025975,1208.3333333333333,43.91655844155844,1210.75,43.61785714285715C1213.1666666666667,43.31915584415585,1215.5833333333333,43.020454545454555,1218,42.72175324675325C1220.4166666666667,42.42305194805195,1222.8333333333333,42.124350649350646,1225.25,41.82564935064934C1227.6666666666667,41.52694805194804,1230.0833333333333,41.228246753246744,1232.5,40.92954545454545C1234.9166666666667,40.63084415584415,1237.3333333333333,40.33214285714285,1239.75,40.03344155844155C1242.1666666666667,39.734740259740256,1244.5833333333333,39.43603896103895,1247,39.13733766233766C1249.4166666666667,38.83863636363636,1251.8333333333333,38.539935064935065,1254.25,38.24123376623377C1256.6666666666667,37.94253246753247,1259.0833333333333,37.64383116883117,1261.5,37.345129870129874C1263.9166666666667,37.04642857142858,1266.3333333333333,36.74772727272728,1268.75,36.44902597402598C1271.1666666666667,36.150324675324676,1273.5833333333333,35.851623376623365,1276,35.55292207792207C1278.4166666666667,35.25422077922077,1280.8333333333333,34.95551948051948,1283.25,34.65681818181818C1285.6666666666667,34.358116883116885,1288.0833333333333,34.05941558441559,1290.5,33.760714285714286C1292.9166666666667,33.46201298701298,1295.3333333333333,33.16331168831167,1297.75,32.86461038961038C1300.1666666666667,32.56590909090908,1302.5833333333333,32.26720779220779,1305,31.968506493506496C1307.4166666666667,31.6698051948052,1309.8333333333333,31.371103896103897,1312.25,31.0724025974026C1314.6666666666667,30.773701298701305,1317.0833333333333,30.475000000000016,1319.5,30.176298701298716C1321.9166666666667,29.877597402597416,1324.3333333333333,29.578896103896106,1326.75,29.280194805194807C1329.1666666666667,28.981493506493507,1331.5833333333333,28.68279220779221,1334,28.38409090909091C1336.4166666666667,28.085389610389612,1338.8333333333333,27.7866883116883,1341.25,27.487987012987002C1343.6666666666667,27.189285714285703,1346.0833333333333,26.890584415584414,1348.5,26.591883116883118C1350.9166666666667,26.29318181818182,1353.3333333333333,25.99448051948053,1355.75,25.695779220779233C1358.1666666666667,25.397077922077937,1360.5833333333333,25.098376623376637,1363,24.799675324675338C1365.4166666666667,24.50097402597404,1367.8333333333333,24.202272727272728,1370.25,23.90357142857143C1372.6666666666667,23.60487012987013,1375.0833333333333,23.30616883116883,1377.5,23.00746753246753C1379.9166666666667,22.70876623376623,1382.3333333333333,22.410064935064934,1384.75,22.111363636363635C1387.1666666666667,21.812662337662335,1389.5833333333333,21.513961038961035,1392,21.21525974025974C1394.4166666666667,20.916558441558443,1396.8333333333333,20.617857142857154,1399.25,20.319155844155855C1401.6666666666667,20.020454545454555,1404.0833333333333,19.721753246753245,1406.5,19.423051948051945C1408.9166666666667,19.124350649350646,1411.3333333333333,18.825649350649346,1413.75,18.52694805194805C1416.1666666666667,18.228246753246754,1418.5833333333333,17.929545454545465,1421,17.630844155844166C1423.4166666666667,17.332142857142866,1425.8333333333333,17.033441558441556,1428.25,16.734740259740256C1430.6666666666667,16.436038961038957,1433.0833333333333,16.13733766233766,1435.5,15.838636363636361C1437.9166666666667,15.53993506493506,1440.3333333333333,15.241233766233751,1442.75,14.942532467532452C1445.1666666666667,14.643831168831152,1447.5833333333333,14.34512987012986,1450,14.046428571428567" fill="transparent" stroke-linecap="round" stroke="#B6509E" stroke-width="2"></path><path class="visx-linepath" d="M0,112.7C2.4166666666666665,112.7,4.833333333333334,112.7,7.25,112.7C9.666666666666666,112.7,12.083333333333334,112.7,14.5,112.7C16.916666666666668,112.7,19.333333333333332,112.7,21.75,112.7C24.166666666666668,112.7,26.583333333333332,112.7,29,112.7C31.416666666666668,112.7,33.833333333333336,112.7,36.25,112.7C38.666666666666664,112.7,41.083333333333336,112.7,43.5,112.7C45.91666666666667,112.7,48.333333333333336,112.7,50.75000000000001,112.7C53.16666666666667,112.7,55.583333333333336,112.7,58,112.7C60.416666666666664,112.7,62.833333333333336,112.7,65.25,112.7C67.66666666666667,112.7,70.08333333333333,112.7,72.5,112.7C74.91666666666667,112.7,77.33333333333333,112.7,79.75,112.7C82.16666666666667,112.7,84.58333333333333,112.7,87,112.7C89.41666666666667,112.7,91.83333333333333,112.7,94.25,112.7C96.66666666666667,112.7,99.08333333333334,112.7,101.50000000000001,112.7C103.91666666666667,112.7,106.33333333333334,112.7,108.75,112.7C111.16666666666667,112.7,113.58333333333333,112.7,116,112.7C118.41666666666667,112.7,120.83333333333334,112.7,123.25000000000001,112.7C125.66666666666667,112.7,128.08333333333334,112.7,130.5,112.7C132.91666666666666,112.7,135.33333333333334,112.7,137.75,112.7C140.16666666666666,112.7,142.58333333333334,112.7,145,112.7C147.41666666666666,112.7,149.83333333333334,112.7,152.25,112.7C154.66666666666666,112.7,157.08333333333334,112.7,159.5,112.7C161.91666666666666,112.7,164.33333333333334,112.7,166.75,112.7C169.16666666666666,112.7,171.58333333333334,112.7,174,112.7C176.41666666666666,112.7,178.83333333333334,112.7,181.25,112.7C183.66666666666666,112.7,186.08333333333334,112.7,188.5,112.7C190.91666666666666,112.7,193.33333333333334,112.7,195.75,112.7C198.16666666666669,112.7,200.58333333333334,112.7,203.00000000000003,112.7C205.41666666666669,112.7,207.83333333333331,112.7,210.24999999999997,112.7C212.66666666666666,112.7,215.08333333333331,112.7,217.5,112.7C219.91666666666666,112.7,222.33333333333334,112.7,224.75,112.7C227.16666666666666,112.7,229.58333333333334,112.7,232,112.7C234.41666666666666,112.7,236.83333333333334,112.7,239.25,112.7C241.66666666666669,112.7,244.08333333333334,112.7,246.50000000000003,112.7C248.91666666666669,112.7,251.33333333333331,112.7,253.74999999999997,112.7C256.16666666666663,112.7,258.5833333333333,112.7,261,112.7C263.4166666666667,112.7,265.8333333333333,112.7,268.25,112.7C270.6666666666667,112.7,273.0833333333333,112.7,275.5,112.7C277.9166666666667,112.7,280.3333333333333,112.7,282.75,112.7C285.1666666666667,112.7,287.5833333333333,112.7,290,112.7C292.4166666666667,112.7,294.8333333333333,112.7,297.25,112.7C299.6666666666667,112.7,302.0833333333333,112.7,304.5,112.7C306.9166666666667,112.7,309.3333333333333,112.7,311.75,112.7C314.1666666666667,112.7,316.5833333333333,112.7,319,112.7C321.4166666666667,112.7,323.8333333333333,112.7,326.25,112.7C328.6666666666667,112.7,331.0833333333333,112.7,333.5,112.7C335.9166666666667,112.7,338.3333333333333,112.7,340.75,112.7C343.1666666666667,112.7,345.5833333333333,112.7,348,112.7C350.4166666666667,112.7,352.8333333333333,112.7,355.25,112.7C357.6666666666667,112.7,360.0833333333333,112.7,362.5,112.7C364.9166666666667,112.7,367.3333333333333,112.7,369.75,112.7C372.1666666666667,112.7,374.5833333333333,112.7,377,112.7C379.4166666666667,112.7,381.8333333333333,112.7,384.25,112.7C386.6666666666667,112.7,389.0833333333333,112.7,391.5,112.7C393.9166666666667,112.7,396.33333333333337,112.7,398.75000000000006,112.7C401.16666666666674,112.7,403.58333333333337,112.7,406.00000000000006,112.7C408.4166666666667,112.7,410.8333333333333,112.7,413.24999999999994,112.7C415.66666666666663,112.7,418.08333333333326,112.7,420.49999999999994,112.7C422.91666666666663,112.7,425.3333333333333,112.7,427.75,112.7C430.1666666666667,112.7,432.5833333333333,112.7,435,112.7C437.4166666666667,112.7,439.8333333333333,112.7,442.25,112.7C444.6666666666667,112.7,447.0833333333333,112.7,449.5,112.7C451.9166666666667,112.7,454.3333333333333,112.7,456.75,112.7C459.1666666666667,112.7,461.5833333333333,112.7,464,112.7C466.4166666666667,112.7,468.8333333333333,112.7,471.25,112.7C473.6666666666667,112.7,476.0833333333333,112.7,478.5,112.7C480.9166666666667,112.7,483.33333333333337,112.7,485.75000000000006,112.7C488.16666666666674,112.7,490.58333333333337,112.7,493.00000000000006,112.7C495.4166666666667,112.7,497.8333333333333,112.7,500.24999999999994,112.7C502.66666666666663,112.7,505.08333333333326,112.7,507.49999999999994,112.7C509.91666666666663,112.7,512.3333333333333,112.7,514.75,112.7C517.1666666666666,112.7,519.5833333333334,112.7,522,112.7C524.4166666666666,112.7,526.8333333333334,112.7,529.25,112.7C531.6666666666666,112.7,534.0833333333334,112.7,536.5,112.7C538.9166666666666,112.7,541.3333333333334,112.7,543.75,112.7C546.1666666666666,112.7,548.5833333333334,112.7,551,112.7C553.4166666666666,112.7,555.8333333333334,112.7,558.25,112.7C560.6666666666666,112.7,563.0833333333334,112.7,565.5,112.7C567.9166666666666,112.7,570.3333333333334,112.7,572.75,112.7C575.1666666666666,112.7,577.5833333333334,112.7,580,112.7C582.4166666666666,112.7,584.8333333333334,112.7,587.25,112.7C589.6666666666666,112.7,592.0833333333334,112.7,594.5,112.7C596.9166666666666,112.7,599.3333333333334,112.7,601.75,112.7C604.1666666666666,112.7,606.5833333333334,112.7,609,112.7C611.4166666666666,112.7,613.8333333333334,112.7,616.25,112.7C618.6666666666666,112.7,621.0833333333334,112.7,623.5,112.7C625.9166666666666,112.7,628.3333333333334,112.7,630.75,112.7C633.1666666666666,112.7,635.5833333333334,112.7,638,112.7C640.4166666666666,112.7,642.8333333333334,112.7,645.25,112.7C647.6666666666666,112.7,650.0833333333334,112.7,652.5,112.7C654.9166666666666,112.7,657.3333333333334,112.7,659.75,112.7C662.1666666666666,112.7,664.5833333333334,112.7,667,112.7C669.4166666666666,112.7,671.8333333333334,112.7,674.25,112.7C676.6666666666666,112.7,679.0833333333334,112.7,681.5,112.7C683.9166666666666,112.7,686.3333333333334,112.7,688.75,112.7C691.1666666666666,112.7,693.5833333333334,112.7,696,112.7C698.4166666666666,112.7,700.8333333333334,112.7,703.25,112.7C705.6666666666666,112.7,708.0833333333334,112.7,710.5,112.7C712.9166666666666,112.7,715.3333333333334,112.7,717.75,112.7C720.1666666666666,112.7,722.5833333333334,112.7,725,112.7C727.4166666666666,112.7,729.8333333333334,112.7,732.25,112.7C734.6666666666666,112.7,737.0833333333334,112.7,739.5,112.7C741.9166666666666,112.7,744.3333333333334,112.7,746.75,112.7C749.1666666666666,112.7,751.5833333333334,112.7,754,112.7C756.4166666666666,112.7,758.8333333333334,112.7,761.25,112.7C763.6666666666666,112.7,766.0833333333334,112.7,768.5,112.7C770.9166666666666,112.7,773.3333333333334,112.7,775.75,112.7C778.1666666666666,112.7,780.5833333333334,112.7,783,112.7C785.4166666666667,112.7,787.8333333333334,112.7,790.2500000000001,112.7C792.6666666666667,112.7,795.0833333333335,112.7,797.5000000000001,112.7C799.9166666666667,112.7,802.3333333333335,112.7,804.7500000000001,112.7C807.1666666666667,112.7,809.5833333333335,112.7,812.0000000000001,112.7C814.4166666666667,112.7,816.8333333333333,112.7,819.2499999999999,112.7C821.6666666666665,112.7,824.0833333333333,112.7,826.4999999999999,112.7C828.9166666666665,112.7,831.3333333333333,112.7,833.7499999999999,112.7C836.1666666666665,112.7,838.5833333333333,112.7,840.9999999999999,112.7C843.4166666666666,112.7,845.8333333333333,112.7,848.25,112.7C850.6666666666666,112.7,853.0833333333334,112.7,855.5,112.7C857.9166666666666,112.7,860.3333333333334,112.7,862.75,112.7C865.1666666666666,112.7,867.5833333333334,112.7,870,112.7C872.4166666666666,112.7,874.8333333333334,112.7,877.25,112.7C879.6666666666666,112.7,882.0833333333334,112.7,884.5,112.7C886.9166666666666,112.7,889.3333333333334,112.7,891.75,112.7C894.1666666666666,112.7,896.5833333333334,112.7,899,112.7C901.4166666666666,112.7,903.8333333333334,112.7,906.25,112.7C908.6666666666666,112.7,911.0833333333334,112.7,913.5,112.7C915.9166666666666,112.7,918.3333333333334,112.7,920.75,112.7C923.1666666666666,112.7,925.5833333333334,112.7,928,112.7C930.4166666666666,112.7,932.8333333333334,112.7,935.25,112.7C937.6666666666666,112.7,940.0833333333334,112.7,942.5,112.7C944.9166666666666,112.7,947.3333333333334,112.7,949.75,112.7C952.1666666666666,112.7,954.5833333333334,112.7,957,112.7C959.4166666666666,112.7,961.8333333333334,112.7,964.25,112.7C966.6666666666667,112.7,969.0833333333334,112.7,971.5000000000001,112.7C973.9166666666667,112.7,976.3333333333335,112.7,978.7500000000001,112.7C981.1666666666667,112.7,983.5833333333335,112.7,986.0000000000001,112.7C988.4166666666667,112.7,990.8333333333335,112.7,993.2500000000001,112.7C995.6666666666667,112.7,998.0833333333333,112.7,1000.4999999999999,112.7C1002.9166666666665,112.7,1005.3333333333333,112.7,1007.7499999999999,112.7C1010.1666666666665,112.7,1012.5833333333333,112.7,1014.9999999999999,112.7C1017.4166666666665,112.7,1019.8333333333333,112.7,1022.2499999999999,112.7C1024.6666666666665,112.7,1027.0833333333333,112.7,1029.5,112.7C1031.9166666666667,112.7,1034.3333333333333,112.7,1036.75,112.7C1039.1666666666667,112.7,1041.5833333333333,112.7,1044,112.7C1046.4166666666667,112.7,1048.8333333333333,112.7,1051.25,112.7C1053.6666666666667,112.7,1056.0833333333333,112.7,1058.5,112.7C1060.9166666666667,112.7,1063.3333333333333,112.7,1065.75,112.7C1068.1666666666667,112.7,1070.5833333333333,112.7,1073,112.7C1075.4166666666667,112.7,1077.8333333333333,112.7,1080.25,112.7C1082.6666666666667,112.7,1085.0833333333333,112.7,1087.5,112.7C1089.9166666666667,112.7,1092.3333333333333,112.7,1094.75,112.7C1097.1666666666667,112.7,1099.5833333333333,112.7,1102,112.7C1104.4166666666667,112.7,1106.8333333333333,112.7,1109.25,112.7C1111.6666666666667,112.7,1114.0833333333333,112.7,1116.5,112.7C1118.9166666666667,112.7,1121.3333333333333,112.7,1123.75,112.7C1126.1666666666667,112.7,1128.5833333333333,112.7,1131,112.7C1133.4166666666667,112.7,1135.8333333333333,112.7,1138.25,112.7C1140.6666666666667,112.7,1143.0833333333333,112.7,1145.5,112.7C1147.9166666666667,112.7,1150.3333333333333,112.7,1152.75,112.7C1155.1666666666667,112.7,1157.5833333333333,112.7,1160,112.7C1162.4166666666667,112.7,1164.8333333333333,112.7,1167.25,112.7C1169.6666666666667,112.7,1172.0833333333333,112.7,1174.5,112.7C1176.9166666666667,112.7,1179.3333333333333,112.7,1181.75,112.7C1184.1666666666667,112.7,1186.5833333333333,112.7,1189,112.7C1191.4166666666667,112.7,1193.8333333333333,112.7,1196.25,112.7C1198.6666666666667,112.7,1201.0833333333333,112.7,1203.5,112.7C1205.9166666666667,112.7,1208.3333333333333,112.7,1210.75,112.7C1213.1666666666667,112.7,1215.5833333333333,112.7,1218,112.7C1220.4166666666667,112.7,1222.8333333333333,112.7,1225.25,112.7C1227.6666666666667,112.7,1230.0833333333333,112.7,1232.5,112.7C1234.9166666666667,112.7,1237.3333333333333,112.7,1239.75,112.7C1242.1666666666667,112.7,1244.5833333333333,112.7,1247,112.7C1249.4166666666667,112.7,1251.8333333333333,112.7,1254.25,112.7C1256.6666666666667,112.7,1259.0833333333333,112.7,1261.5,112.7C1263.9166666666667,112.7,1266.3333333333333,112.7,1268.75,112.7C1271.1666666666667,112.7,1273.5833333333333,112.7,1276,112.7C1278.4166666666667,112.7,1280.8333333333333,112.7,1283.25,112.7C1285.6666666666667,112.7,1288.0833333333333,112.7,1290.5,112.7C1292.9166666666667,112.7,1295.3333333333333,112.7,1297.75,112.7C1300.1666666666667,112.7,1302.5833333333333,112.7,1305,112.7C1307.4166666666667,112.7,1309.8333333333333,112.7,1312.25,112.7C1314.6666666666667,112.7,1317.0833333333333,112.7,1319.5,112.7C1321.9166666666667,112.7,1324.3333333333333,112.7,1326.75,112.7C1329.1666666666667,112.7,1331.5833333333333,112.7,1334,112.7C1336.4166666666667,112.7,1338.8333333333333,112.7,1341.25,112.7C1343.6666666666667,112.7,1346.0833333333333,112.7,1348.5,112.7C1350.9166666666667,112.7,1353.3333333333333,112.7,1355.75,112.7C1358.1666666666667,112.7,1360.5833333333333,112.7,1363,112.7C1365.4166666666667,112.7,1367.8333333333333,112.7,1370.25,112.7C1372.6666666666667,112.7,1375.0833333333333,112.7,1377.5,112.7C1379.9166666666667,112.7,1382.3333333333333,112.7,1384.75,112.7C1387.1666666666667,112.7,1389.5833333333333,112.7,1392,112.7C1394.4166666666667,112.7,1396.8333333333333,112.7,1399.25,112.7C1401.6666666666667,112.7,1404.0833333333333,112.7,1406.5,112.7C1408.9166666666667,112.7,1411.3333333333333,112.7,1413.75,112.7C1416.1666666666667,112.7,1418.5833333333333,112.7,1421,112.7C1423.4166666666667,112.7,1425.8333333333333,112.7,1428.25,112.7C1430.6666666666667,112.7,1433.0833333333333,112.7,1435.5,112.7C1437.9166666666667,112.7,1440.3333333333333,112.7,1442.75,112.7C1445.1666666666667,112.7,1447.5833333333333,112.7,1450,112.7" fill="transparent" stroke-linecap="round" stroke="#E7C6DF" stroke-width="2"></path><g class="visx-group visx-axis visx-axis-bottom" transform="translate(0, 115)"><g class="visx-group visx-axis-tick" transform="translate(0, 0)"><line class="visx-line" x1="0" y1="0" x2="0" y2="8" fill="transparent" shape-rendering="crispEdges" stroke="#000" stroke-width="0" stroke-linecap="square"></line><svg x="0" y="0" font-size="10" style="overflow:visible"><text transform="" x="0" y="18" fill="#000" font-size="10" text-anchor="middle"><tspan x="0" dy="0em">0%</tspan></text></svg></g><g class="visx-group visx-axis-tick" transform="translate(0, 0)"><line class="visx-line" x1="362.5" y1="0" x2="362.5" y2="8" fill="transparent" shape-rendering="crispEdges" stroke="#000" stroke-width="0" stroke-linecap="square"></line><svg x="0" y="0" font-size="10" style="overflow:visible"><text transform="" x="362.5" y="18" fill="#000" font-size="10" text-anchor="middle"><tspan x="362.5" dy="0em">25%</tspan></text></svg></g><g class="visx-group visx-axis-tick" transform="translate(0, 0)"><line class="visx-line" x1="725" y1="0" x2="725" y2="8" fill="transparent" shape-rendering="crispEdges" stroke="#000" stroke-width="0" stroke-linecap="square"></line><svg x="0" y="0" font-size="10" style="overflow:visible"><text transform="" x="725" y="18" fill="#000" font-size="10" text-anchor="middle"><tspan x="725" dy="0em">50%</tspan></text></svg></g><g class="visx-group visx-axis-tick" transform="translate(0, 0)"><line class="visx-line" x1="1087.5" y1="0" x2="1087.5" y2="8" fill="transparent" shape-rendering="crispEdges" stroke="#000" stroke-width="0" stroke-linecap="square"></line><svg x="0" y="0" font-size="10" style="overflow:visible"><text transform="" x="1087.5" y="18" fill="#000" font-size="10" text-anchor="middle"><tspan x="1087.5" dy="0em">75%</tspan></text></svg></g><g class="visx-group visx-axis-tick" transform="translate(0, 0)"><line class="visx-line" x1="1450" y1="0" x2="1450" y2="8" fill="transparent" shape-rendering="crispEdges" stroke="#000" stroke-width="0" stroke-linecap="square"></line><svg x="0" y="0" font-size="10" style="overflow:visible"><text transform="" x="1450" y="18" fill="#000" font-size="10" text-anchor="middle"><tspan x="1450" dy="0em">100%</tspan></text></svg></g><line class="visx-line visx-axis-line" x1="0.5" y1="0" x2="1450.5" y2="0" fill="transparent" shape-rendering="crispEdges" stroke="#222" stroke-width="0"></line></g><g class="visx-group visx-axis visx-axis-left" transform="translate(0, 0)"><g class="visx-group visx-axis-tick" transform="translate(0, 0)"><line class="visx-line" x1="0" y1="115" x2="-8" y2="115" fill="transparent" shape-rendering="crispEdges" stroke="#222" stroke-width="0" stroke-linecap="square"></line><svg x="-30" y="0" font-size="8" style="overflow:visible"><text transform="" x="-8" y="115" fill="#000" font-size="8" text-anchor="start"><tspan x="-8" dy="0em">0%</tspan></text></svg></g><g class="visx-group visx-axis-tick" transform="translate(0, 0)"><line class="visx-line" x1="0" y1="49.28571428571429" x2="-8" y2="49.28571428571429" fill="transparent" shape-rendering="crispEdges" stroke="#222" stroke-width="0" stroke-linecap="square"></line><svg x="-30" y="0" font-size="8" style="overflow:visible"><text transform="" x="-8" y="49.28571428571429" fill="#000" font-size="8" text-anchor="start"><tspan x="-8" dy="0em">200%</tspan></text></svg></g><line class="visx-line visx-axis-line" x1="0" y1="115.5" x2="0" y2="0.5" fill="transparent" shape-rendering="crispEdges" stroke="#222" stroke-width="0"></line></g><rect class="visx-bar" width="1450" height="115" fill="transparent"></rect><line class="visx-line" x1="652.5" y1="28" x2="652.5" y2="115" fill="transparent" shape-rendering="crispEdges" stroke="#0062D2" stroke-width="1" pointer-events="none" stroke-dasharray="5,2"></line><svg x="0" y="0" font-size="10px" style="overflow:visible"><text transform="" x="652.5" y="20" font-size="10px" fill="#fff" stroke="#fff" stroke-width="0.8em" text-anchor="middle"><tspan x="652.5" dy="0.355em">Optimal 45%</tspan></text></svg><svg x="0" y="0" font-size="10px" style="overflow:visible"><text transform="" x="652.5" y="20" font-size="10px" fill="#62677B" text-anchor="middle"><tspan x="652.5" dy="0.355em">Optimal 45%</tspan></text></svg></g></svg>