<?xml version="1.0"?><svg xmlns="http://www.w3.org/2000/svg" xmlns:xlink= "http://www.w3.org/1999/xlink" style="background: white;" width="1500" height="185"> <g style="color: black; font-size: 13px; font-family: sans-serif; transform: translate(18px, 25px);"><g><circle r="3" cx="-6" cy="-5" style="fill: #B6509E" /><text>Borrow APR, variable</text></g><g style="transform: translateX(150px);"><circle r="3" cx="-6" cy="-5" style="fill: rgb(231, 198, 223)" /><text>Borrow APR, stable</text></g><g style="transform: translateX(290px);"><circle r="3" cx="-6" cy="-5" style="fill: rgb(0, 98, 210)" /><text>Utilization Rate</text></g></g><g class="visx-group" transform="translate(40, 50)"><g class="visx-group visx-rows" transform="translate(0, 0)"><line class="visx-line" x1="0" y1="115" x2="1450" y2="115" fill="transparent" shape-rendering="crispEdges" stroke="#000" stroke-width="1" stroke-dasharray="3,3" pointer-events="none"></line><line class="visx-line" x1="0" y1="79.0625" x2="1450" y2="79.0625" fill="transparent" shape-rendering="crispEdges" stroke="#000" stroke-width="1" stroke-dasharray="3,3" pointer-events="none"></line><line class="visx-line" x1="0" y1="43.125" x2="1450" y2="43.125" fill="transparent" shape-rendering="crispEdges" stroke="#000" stroke-width="1" stroke-dasharray="3,3" pointer-events="none"></line><line class="visx-line" x1="0" y1="7.1875" x2="1450" y2="7.1875" fill="transparent" shape-rendering="crispEdges" stroke="#000" stroke-width="1" stroke-dasharray="3,3" pointer-events="none"></line></g><path class="visx-linepath" d="M0,20.933093684179514C2.4166666666666665,20.933093684179514,4.833333333333334,20.933093684179514,7.25,20.933093684179514C9.666666666666666,20.933093684179514,12.083333333333334,20.933093684179514,14.5,20.933093684179514C16.916666666666668,20.933093684179514,19.333333333333332,20.933093684179514,21.75,20.933093684179514C24.166666666666668,20.933093684179514,26.583333333333332,20.933093684179514,29,20.933093684179514C31.416666666666668,20.933093684179514,33.833333333333336,20.933093684179514,36.25,20.933093684179514C38.666666666666664,20.933093684179514,41.083333333333336,20.933093684179514,43.5,20.933093684179514C45.91666666666667,20.933093684179514,48.333333333333336,20.933093684179514,50.75000000000001,20.933093684179514C53.16666666666667,20.933093684179514,55.583333333333336,20.933093684179514,58,20.933093684179514C60.416666666666664,20.933093684179514,62.833333333333336,20.933093684179514,65.25,20.933093684179514C67.66666666666667,20.933093684179514,70.08333333333333,20.933093684179514,72.5,20.933093684179514C74.91666666666667,20.933093684179514,77.33333333333333,20.933093684179514,79.75,20.933093684179514C82.16666666666667,20.933093684179514,84.58333333333333,20.933093684179514,87,20.933093684179514C89.41666666666667,20.933093684179514,91.83333333333333,20.933093684179514,94.25,20.933093684179514C96.66666666666667,20.933093684179514,99.08333333333334,20.933093684179514,101.50000000000001,20.933093684179514C103.91666666666667,20.933093684179514,106.33333333333334,20.933093684179514,108.75,20.933093684179514C111.16666666666667,20.933093684179514,113.58333333333333,20.933093684179514,116,20.933093684179514C118.41666666666667,20.933093684179514,120.83333333333334,20.933093684179514,123.25000000000001,20.933093684179514C125.66666666666667,20.933093684179514,128.08333333333334,20.933093684179514,130.5,20.933093684179514C132.91666666666666,20.933093684179514,135.33333333333334,20.933093684179514,137.75,20.933093684179514C140.16666666666666,20.933093684179514,142.58333333333334,20.933093684179514,145,20.933093684179514C147.41666666666666,20.933093684179514,149.83333333333334,20.933093684179514,152.25,20.933093684179514C154.66666666666666,20.933093684179514,157.08333333333334,20.933093684179514,159.5,20.933093684179514C161.91666666666666,20.933093684179514,164.33333333333334,20.933093684179514,166.75,20.933093684179514C169.16666666666666,20.933093684179514,171.58333333333334,20.933093684179514,174,20.933093684179514C176.41666666666666,20.933093684179514,178.83333333333334,20.933093684179514,181.25,20.933093684179514C183.66666666666666,20.933093684179514,186.08333333333334,20.933093684179514,188.5,20.933093684179514C190.91666666666666,20.933093684179514,193.33333333333334,20.933093684179514,195.75,20.933093684179514C198.16666666666669,20.933093684179514,200.58333333333334,20.933093684179514,203.00000000000003,20.933093684179514C205.41666666666669,20.933093684179514,207.83333333333331,20.933093684179514,210.24999999999997,20.933093684179514C212.66666666666666,20.933093684179514,215.08333333333331,20.933093684179514,217.5,20.933093684179514C219.91666666666666,20.933093684179514,222.33333333333334,20.933093684179514,224.75,20.933093684179514C227.16666666666666,20.933093684179514,229.58333333333334,20.933093684179514,232,20.933093684179514C234.41666666666666,20.933093684179514,236.83333333333334,20.933093684179514,239.25,20.933093684179514C241.66666666666669,20.933093684179514,244.08333333333334,20.933093684179514,246.50000000000003,20.933093684179514C248.91666666666669,20.933093684179514,251.33333333333331,20.933093684179514,253.74999999999997,20.933093684179514C256.16666666666663,20.933093684179514,258.5833333333333,20.933093684179514,261,20.933093684179514C263.4166666666667,20.933093684179514,265.8333333333333,20.933093684179514,268.25,20.933093684179514C270.6666666666667,20.933093684179514,273.0833333333333,20.933093684179514,275.5,20.933093684179514C277.9166666666667,20.933093684179514,280.3333333333333,20.933093684179514,282.75,20.933093684179514C285.1666666666667,20.933093684179514,287.5833333333333,20.933093684179514,290,20.933093684179514C292.4166666666667,20.933093684179514,294.8333333333333,20.933093684179514,297.25,20.933093684179514C299.6666666666667,20.933093684179514,302.0833333333333,20.933093684179514,304.5,20.933093684179514C306.9166666666667,20.933093684179514,309.3333333333333,20.933093684179514,311.75,20.933093684179514C314.1666666666667,20.933093684179514,316.5833333333333,20.933093684179514,319,20.933093684179514C321.4166666666667,20.933093684179514,323.8333333333333,20.933093684179514,326.25,20.933093684179514C328.6666666666667,20.933093684179514,331.0833333333333,20.933093684179514,333.5,20.933093684179514C335.9166666666667,20.933093684179514,338.3333333333333,20.933093684179514,340.75,20.933093684179514C343.1666666666667,20.933093684179514,345.5833333333333,20.933093684179514,348,20.933093684179514C350.4166666666667,20.933093684179514,352.8333333333333,20.933093684179514,355.25,20.933093684179514C357.6666666666667,20.933093684179514,360.0833333333333,20.933093684179514,362.5,20.933093684179514C364.9166666666667,20.933093684179514,367.3333333333333,20.933093684179514,369.75,20.933093684179514C372.1666666666667,20.933093684179514,374.5833333333333,20.933093684179514,377,20.933093684179514C379.4166666666667,20.933093684179514,381.8333333333333,20.933093684179514,384.25,20.933093684179514C386.6666666666667,20.933093684179514,389.0833333333333,20.933093684179514,391.5,20.933093684179514C393.9166666666667,20.933093684179514,396.33333333333337,20.933093684179514,398.75000000000006,20.933093684179514C401.16666666666674,20.933093684179514,403.58333333333337,20.933093684179514,406.00000000000006,20.933093684179514C408.4166666666667,20.933093684179514,410.8333333333333,20.933093684179514,413.24999999999994,20.933093684179514C415.66666666666663,20.933093684179514,418.08333333333326,20.933093684179514,420.49999999999994,20.933093684179514C422.91666666666663,20.933093684179514,425.3333333333333,20.933093684179514,427.75,20.933093684179514C430.1666666666667,20.933093684179514,432.5833333333333,20.933093684179514,435,20.933093684179514C437.4166666666667,20.933093684179514,439.8333333333333,20.933093684179514,442.25,20.933093684179514C444.6666666666667,20.933093684179514,447.0833333333333,20.933093684179514,449.5,20.933093684179514C451.9166666666667,20.933093684179514,454.3333333333333,20.933093684179514,456.75,20.933093684179514C459.1666666666667,20.933093684179514,461.5833333333333,20.933093684179514,464,20.933093684179514C466.4166666666667,20.933093684179514,468.8333333333333,20.933093684179514,471.25,20.933093684179514C473.6666666666667,20.933093684179514,476.0833333333333,20.933093684179514,478.5,20.933093684179514C480.9166666666667,20.933093684179514,483.33333333333337,20.933093684179514,485.75000000000006,20.933093684179514C488.16666666666674,20.933093684179514,490.58333333333337,20.933093684179514,493.00000000000006,20.933093684179514C495.4166666666667,20.933093684179514,497.8333333333333,20.933093684179514,500.24999999999994,20.933093684179514C502.66666666666663,20.933093684179514,505.08333333333326,20.933093684179514,507.49999999999994,20.933093684179514C509.91666666666663,20.933093684179514,512.3333333333333,20.933093684179514,514.75,20.933093684179514C517.1666666666666,20.933093684179514,519.5833333333334,20.933093684179514,522,20.933093684179514C524.4166666666666,20.933093684179514,526.8333333333334,20.933093684179514,529.25,20.933093684179514C531.6666666666666,20.933093684179514,534.0833333333334,20.933093684179514,536.5,20.933093684179514C538.9166666666666,20.933093684179514,541.3333333333334,20.933093684179514,543.75,20.933093684179514C546.1666666666666,20.933093684179514,548.5833333333334,20.933093684179514,551,20.933093684179514C553.4166666666666,20.933093684179514,555.8333333333334,20.933093684179514,558.25,20.933093684179514C560.6666666666666,20.933093684179514,563.0833333333334,20.933093684179514,565.5,20.933093684179514C567.9166666666666,20.933093684179514,570.3333333333334,20.933093684179514,572.75,20.933093684179514C575.1666666666666,20.933093684179514,577.5833333333334,20.933093684179514,580,20.933093684179514C582.4166666666666,20.933093684179514,584.8333333333334,20.933093684179514,587.25,20.933093684179514C589.6666666666666,20.933093684179514,592.0833333333334,20.933093684179514,594.5,20.933093684179514C596.9166666666666,20.933093684179514,599.3333333333334,20.933093684179514,601.75,20.933093684179514C604.1666666666666,20.933093684179514,606.5833333333334,20.933093684179514,609,20.933093684179514C611.4166666666666,20.933093684179514,613.8333333333334,20.933093684179514,616.25,20.933093684179514C618.6666666666666,20.933093684179514,621.0833333333334,20.933093684179514,623.5,20.933093684179514C625.9166666666666,20.933093684179514,628.3333333333334,20.933093684179514,630.75,20.933093684179514C633.1666666666666,20.933093684179514,635.5833333333334,20.933093684179514,638,20.933093684179514C640.4166666666666,20.933093684179514,642.8333333333334,20.933093684179514,645.25,20.933093684179514C647.6666666666666,20.933093684179514,650.0833333333334,20.933093684179514,652.5,20.933093684179514C654.9166666666666,20.933093684179514,657.3333333333334,20.933093684179514,659.75,20.933093684179514C662.1666666666666,20.933093684179514,664.5833333333334,20.933093684179514,667,20.933093684179514C669.4166666666666,20.933093684179514,671.8333333333334,20.933093684179514,674.25,20.933093684179514C676.6666666666666,20.933093684179514,679.0833333333334,20.933093684179514,681.5,20.933093684179514C683.9166666666666,20.933093684179514,686.3333333333334,20.933093684179514,688.75,20.933093684179514C691.1666666666666,20.933093684179514,693.5833333333334,20.933093684179514,696,20.933093684179514C698.4166666666666,20.933093684179514,700.8333333333334,20.933093684179514,703.25,20.933093684179514C705.6666666666666,20.933093684179514,708.0833333333334,20.933093684179514,710.5,20.933093684179514C712.9166666666666,20.933093684179514,715.3333333333334,20.933093684179514,717.75,20.933093684179514C720.1666666666666,20.933093684179514,722.5833333333334,20.933093684179514,725,20.933093684179514C727.4166666666666,20.933093684179514,729.8333333333334,20.933093684179514,732.25,20.933093684179514C734.6666666666666,20.933093684179514,737.0833333333334,20.933093684179514,739.5,20.933093684179514C741.9166666666666,20.933093684179514,744.3333333333334,20.933093684179514,746.75,20.933093684179514C749.1666666666666,20.933093684179514,751.5833333333334,20.933093684179514,754,20.933093684179514C756.4166666666666,20.933093684179514,758.8333333333334,20.933093684179514,761.25,20.933093684179514C763.6666666666666,20.933093684179514,766.0833333333334,20.933093684179514,768.5,20.933093684179514C770.9166666666666,20.933093684179514,773.3333333333334,20.933093684179514,775.75,20.933093684179514C778.1666666666666,20.933093684179514,780.5833333333334,20.933093684179514,783,20.933093684179514C785.4166666666667,20.933093684179514,787.8333333333334,20.933093684179514,790.2500000000001,20.933093684179514C792.6666666666667,20.933093684179514,795.0833333333335,20.933093684179514,797.5000000000001,20.933093684179514C799.9166666666667,20.933093684179514,802.3333333333335,20.933093684179514,804.7500000000001,20.933093684179514C807.1666666666667,20.933093684179514,809.5833333333335,20.933093684179514,812.0000000000001,20.933093684179514C814.4166666666667,20.933093684179514,816.8333333333333,20.933093684179514,819.2499999999999,20.933093684179514C821.6666666666665,20.933093684179514,824.0833333333333,20.933093684179514,826.4999999999999,20.933093684179514C828.9166666666665,20.933093684179514,831.3333333333333,20.933093684179514,833.7499999999999,20.933093684179514C836.1666666666665,20.933093684179514,838.5833333333333,20.933093684179514,840.9999999999999,20.933093684179514C843.4166666666666,20.933093684179514,845.8333333333333,20.933093684179514,848.25,20.933093684179514C850.6666666666666,20.933093684179514,853.0833333333334,20.933093684179514,855.5,20.933093684179514C857.9166666666666,20.933093684179514,860.3333333333334,20.933093684179514,862.75,20.933093684179514C865.1666666666666,20.933093684179514,867.5833333333334,20.933093684179514,870,20.933093684179514C872.4166666666666,20.933093684179514,874.8333333333334,20.933093684179514,877.25,20.933093684179514C879.6666666666666,20.933093684179514,882.0833333333334,20.933093684179514,884.5,20.933093684179514C886.9166666666666,20.933093684179514,889.3333333333334,20.933093684179514,891.75,20.933093684179514C894.1666666666666,20.933093684179514,896.5833333333334,20.933093684179514,899,20.933093684179514C901.4166666666666,20.933093684179514,903.8333333333334,20.933093684179514,906.25,20.933093684179514C908.6666666666666,20.933093684179514,911.0833333333334,20.933093684179514,913.5,20.933093684179514C915.9166666666666,20.933093684179514,918.3333333333334,20.933093684179514,920.75,20.933093684179514C923.1666666666666,20.933093684179514,925.5833333333334,20.933093684179514,928,20.933093684179514C930.4166666666666,20.933093684179514,932.8333333333334,20.933093684179514,935.25,20.933093684179514C937.6666666666666,20.933093684179514,940.0833333333334,20.933093684179514,942.5,20.933093684179514C944.9166666666666,20.933093684179514,947.3333333333334,20.933093684179514,949.75,20.933093684179514C952.1666666666666,20.933093684179514,954.5833333333334,20.933093684179514,957,20.933093684179514C959.4166666666666,20.933093684179514,961.8333333333334,20.933093684179514,964.25,20.933093684179514C966.6666666666667,20.933093684179514,969.0833333333334,20.933093684179514,971.5000000000001,20.933093684179514C973.9166666666667,20.933093684179514,976.3333333333335,20.933093684179514,978.7500000000001,20.933093684179514C981.1666666666667,20.933093684179514,983.5833333333335,20.933093684179514,986.0000000000001,20.933093684179514C988.4166666666667,20.933093684179514,990.8333333333335,20.933093684179514,993.2500000000001,20.933093684179514C995.6666666666667,20.933093684179514,998.0833333333333,20.933093684179514,1000.4999999999999,20.933093684179514C1002.9166666666665,20.933093684179514,1005.3333333333333,20.933093684179514,1007.7499999999999,20.933093684179514C1010.1666666666665,20.933093684179514,1012.5833333333333,20.933093684179514,1014.9999999999999,20.933093684179514C1017.4166666666665,20.933093684179514,1019.8333333333333,20.933093684179514,1022.2499999999999,20.933093684179514C1024.6666666666665,20.933093684179514,1027.0833333333333,20.933093684179514,1029.5,20.933093684179514C1031.9166666666667,20.933093684179514,1034.3333333333333,20.933093684179514,1036.75,20.933093684179514C1039.1666666666667,20.933093684179514,1041.5833333333333,20.933093684179514,1044,20.933093684179514C1046.4166666666667,20.933093684179514,1048.8333333333333,20.933093684179514,1051.25,20.933093684179514C1053.6666666666667,20.933093684179514,1056.0833333333333,20.933093684179514,1058.5,20.933093684179514C1060.9166666666667,20.933093684179514,1063.3333333333333,20.933093684179514,1065.75,20.933093684179514C1068.1666666666667,20.933093684179514,1070.5833333333333,20.933093684179514,1073,20.933093684179514C1075.4166666666667,20.933093684179514,1077.8333333333333,20.933093684179514,1080.25,20.933093684179514C1082.6666666666667,20.933093684179514,1085.0833333333333,20.933093684179514,1087.5,20.933093684179514C1089.9166666666667,20.933093684179514,1092.3333333333333,20.933093684179514,1094.75,20.933093684179514C1097.1666666666667,20.933093684179514,1099.5833333333333,20.933093684179514,1102,20.933093684179514C1104.4166666666667,20.933093684179514,1106.8333333333333,20.933093684179514,1109.25,20.933093684179514C1111.6666666666667,20.933093684179514,1114.0833333333333,20.933093684179514,1116.5,20.933093684179514C1118.9166666666667,20.933093684179514,1121.3333333333333,20.933093684179514,1123.75,20.933093684179514C1126.1666666666667,20.933093684179514,1128.5833333333333,20.933093684179514,1131,20.933093684179514C1133.4166666666667,20.933093684179514,1135.8333333333333,20.933093684179514,1138.25,20.933093684179514C1140.6666666666667,20.933093684179514,1143.0833333333333,20.933093684179514,1145.5,20.933093684179514C1147.9166666666667,20.933093684179514,1150.3333333333333,20.933093684179514,1152.75,20.933093684179514C1155.1666666666667,20.933093684179514,1157.5833333333333,20.933093684179514,1160,20.933093684179514C1162.4166666666667,20.933093684179514,1164.8333333333333,20.933093684179514,1167.25,20.933093684179514C1169.6666666666667,20.933093684179514,1172.0833333333333,20.933093684179514,1174.5,20.933093684179514C1176.9166666666667,20.933093684179514,1179.3333333333333,20.933093684179514,1181.75,20.933093684179514C1184.1666666666667,20.933093684179514,1186.5833333333333,20.933093684179514,1189,20.933093684179514C1191.4166666666667,20.933093684179514,1193.8333333333333,20.933093684179514,1196.25,20.933093684179514C1198.6666666666667,20.933093684179514,1201.0833333333333,20.933093684179514,1203.5,20.933093684179514C1205.9166666666667,20.933093684179514,1208.3333333333333,20.933093684179514,1210.75,20.933093684179514C1213.1666666666667,20.933093684179514,1215.5833333333333,20.933093684179514,1218,20.933093684179514C1220.4166666666667,20.933093684179514,1222.8333333333333,20.933093684179514,1225.25,20.933093684179514C1227.6666666666667,20.933093684179514,1230.0833333333333,20.933093684179514,1232.5,20.933093684179514C1234.9166666666667,20.933093684179514,1237.3333333333333,20.933093684179514,1239.75,20.933093684179514C1242.1666666666667,20.933093684179514,1244.5833333333333,20.933093684179514,1247,20.933093684179514C1249.4166666666667,20.933093684179514,1251.8333333333333,20.933093684179514,1254.25,20.933093684179514C1256.6666666666667,20.933093684179514,1259.0833333333333,20.933093684179514,1261.5,20.933093684179514C1263.9166666666667,20.933093684179514,1266.3333333333333,20.933093684179514,1268.75,20.933093684179514C1271.1666666666667,20.933093684179514,1273.5833333333333,20.933093684179514,1276,20.933093684179514C1278.4166666666667,20.933093684179514,1280.8333333333333,20.933093684179514,1283.25,20.933093684179514C1285.6666666666667,20.933093684179514,1288.0833333333333,20.933093684179514,1290.5,20.933093684179514C1292.9166666666667,20.933093684179514,1295.3333333333333,20.933093684179514,1297.75,20.933093684179514C1300.1666666666667,20.933093684179514,1302.5833333333333,20.933093684179514,1305,20.933093684179514C1307.4166666666667,20.933093684179514,1309.8333333333333,20.933093684179514,1312.25,20.933093684179514C1314.6666666666667,20.933093684179514,1317.0833333333333,20.933093684179514,1319.5,20.933093684179514C1321.9166666666667,20.933093684179514,1324.3333333333333,20.933093684179514,1326.75,20.933093684179514C1329.1666666666667,20.933093684179514,1331.5833333333333,20.933093684179514,1334,20.933093684179514C1336.4166666666667,20.933093684179514,1338.8333333333333,20.933093684179514,1341.25,20.933093684179514C1343.6666666666667,20.933093684179514,1346.0833333333333,20.933093684179514,1348.5,20.933093684179514C1350.9166666666667,20.933093684179514,1353.3333333333333,20.933093684179514,1355.75,20.933093684179514C1358.1666666666667,20.933093684179514,1360.5833333333333,20.933093684179514,1363,20.933093684179514C1365.4166666666667,20.933093684179514,1367.8333333333333,20.933093684179514,1370.25,20.933093684179514C1372.6666666666667,20.933093684179514,1375.0833333333333,20.933093684179514,1377.5,20.933093684179514C1379.9166666666667,20.933093684179514,1382.3333333333333,20.933093684179514,1384.75,20.933093684179514C1387.1666666666667,20.933093684179514,1389.5833333333333,20.933093684179514,1392,20.933093684179514C1394.4166666666667,20.933093684179514,1396.8333333333333,20.933093684179514,1399.25,20.933093684179514C1401.6666666666667,20.933093684179514,1404.0833333333333,20.933093684179514,1406.5,20.933093684179514C1408.9166666666667,20.933093684179514,1411.3333333333333,20.933093684179514,1413.75,20.933093684179514C1416.1666666666667,20.933093684179514,1418.5833333333333,20.933093684179514,1421,20.933093684179514C1423.4166666666667,20.933093684179514,1425.8333333333333,20.933093684179514,1428.25,20.933093684179514C1430.6666666666667,20.933093684179514,1433.0833333333333,20.933093684179514,1435.5,20.933093684179514C1437.9166666666667,20.933093684179514,1440.3333333333333,20.933093684179514,1442.75,20.933093684179514C1445.1666666666667,20.933093684179514,1447.5833333333333,10.466546842089757,1450,0" fill="transparent" stroke-linecap="round" stroke="#B6509E" stroke-width="2"></path><path class="visx-linepath" d="M0,115C2.4166666666666665,115,4.833333333333334,115,7.25,115C9.666666666666666,115,12.083333333333334,115,14.5,115C16.916666666666668,115,19.333333333333332,115,21.75,115C24.166666666666668,115,26.583333333333332,115,29,115C31.416666666666668,115,33.833333333333336,115,36.25,115C38.666666666666664,115,41.083333333333336,115,43.5,115C45.91666666666667,115,48.333333333333336,115,50.75000000000001,115C53.16666666666667,115,55.583333333333336,115,58,115C60.416666666666664,115,62.833333333333336,115,65.25,115C67.66666666666667,115,70.08333333333333,115,72.5,115C74.91666666666667,115,77.33333333333333,115,79.75,115C82.16666666666667,115,84.58333333333333,115,87,115C89.41666666666667,115,91.83333333333333,115,94.25,115C96.66666666666667,115,99.08333333333334,115,101.50000000000001,115C103.91666666666667,115,106.33333333333334,115,108.75,115C111.16666666666667,115,113.58333333333333,115,116,115C118.41666666666667,115,120.83333333333334,115,123.25000000000001,115C125.66666666666667,115,128.08333333333334,115,130.5,115C132.91666666666666,115,135.33333333333334,115,137.75,115C140.16666666666666,115,142.58333333333334,115,145,115C147.41666666666666,115,149.83333333333334,115,152.25,115C154.66666666666666,115,157.08333333333334,115,159.5,115C161.91666666666666,115,164.33333333333334,115,166.75,115C169.16666666666666,115,171.58333333333334,115,174,115C176.41666666666666,115,178.83333333333334,115,181.25,115C183.66666666666666,115,186.08333333333334,115,188.5,115C190.91666666666666,115,193.33333333333334,115,195.75,115C198.16666666666669,115,200.58333333333334,115,203.00000000000003,115C205.41666666666669,115,207.83333333333331,115,210.24999999999997,115C212.66666666666666,115,215.08333333333331,115,217.5,115C219.91666666666666,115,222.33333333333334,115,224.75,115C227.16666666666666,115,229.58333333333334,115,232,115C234.41666666666666,115,236.83333333333334,115,239.25,115C241.66666666666669,115,244.08333333333334,115,246.50000000000003,115C248.91666666666669,115,251.33333333333331,115,253.74999999999997,115C256.16666666666663,115,258.5833333333333,115,261,115C263.4166666666667,115,265.8333333333333,115,268.25,115C270.6666666666667,115,273.0833333333333,115,275.5,115C277.9166666666667,115,280.3333333333333,115,282.75,115C285.1666666666667,115,287.5833333333333,115,290,115C292.4166666666667,115,294.8333333333333,115,297.25,115C299.6666666666667,115,302.0833333333333,115,304.5,115C306.9166666666667,115,309.3333333333333,115,311.75,115C314.1666666666667,115,316.5833333333333,115,319,115C321.4166666666667,115,323.8333333333333,115,326.25,115C328.6666666666667,115,331.0833333333333,115,333.5,115C335.9166666666667,115,338.3333333333333,115,340.75,115C343.1666666666667,115,345.5833333333333,115,348,115C350.4166666666667,115,352.8333333333333,115,355.25,115C357.6666666666667,115,360.0833333333333,115,362.5,115C364.9166666666667,115,367.3333333333333,115,369.75,115C372.1666666666667,115,374.5833333333333,115,377,115C379.4166666666667,115,381.8333333333333,115,384.25,115C386.6666666666667,115,389.0833333333333,115,391.5,115C393.9166666666667,115,396.33333333333337,115,398.75000000000006,115C401.16666666666674,115,403.58333333333337,115,406.00000000000006,115C408.4166666666667,115,410.8333333333333,115,413.24999999999994,115C415.66666666666663,115,418.08333333333326,115,420.49999999999994,115C422.91666666666663,115,425.3333333333333,115,427.75,115C430.1666666666667,115,432.5833333333333,115,435,115C437.4166666666667,115,439.8333333333333,115,442.25,115C444.6666666666667,115,447.0833333333333,115,449.5,115C451.9166666666667,115,454.3333333333333,115,456.75,115C459.1666666666667,115,461.5833333333333,115,464,115C466.4166666666667,115,468.8333333333333,115,471.25,115C473.6666666666667,115,476.0833333333333,115,478.5,115C480.9166666666667,115,483.33333333333337,115,485.75000000000006,115C488.16666666666674,115,490.58333333333337,115,493.00000000000006,115C495.4166666666667,115,497.8333333333333,115,500.24999999999994,115C502.66666666666663,115,505.08333333333326,115,507.49999999999994,115C509.91666666666663,115,512.3333333333333,115,514.75,115C517.1666666666666,115,519.5833333333334,115,522,115C524.4166666666666,115,526.8333333333334,115,529.25,115C531.6666666666666,115,534.0833333333334,115,536.5,115C538.9166666666666,115,541.3333333333334,115,543.75,115C546.1666666666666,115,548.5833333333334,115,551,115C553.4166666666666,115,555.8333333333334,115,558.25,115C560.6666666666666,115,563.0833333333334,115,565.5,115C567.9166666666666,115,570.3333333333334,115,572.75,115C575.1666666666666,115,577.5833333333334,115,580,115C582.4166666666666,115,584.8333333333334,115,587.25,115C589.6666666666666,115,592.0833333333334,115,594.5,115C596.9166666666666,115,599.3333333333334,115,601.75,115C604.1666666666666,115,606.5833333333334,115,609,115C611.4166666666666,115,613.8333333333334,115,616.25,115C618.6666666666666,115,621.0833333333334,115,623.5,115C625.9166666666666,115,628.3333333333334,115,630.75,115C633.1666666666666,115,635.5833333333334,115,638,115C640.4166666666666,115,642.8333333333334,115,645.25,115C647.6666666666666,115,650.0833333333334,115,652.5,115C654.9166666666666,115,657.3333333333334,115,659.75,115C662.1666666666666,115,664.5833333333334,115,667,115C669.4166666666666,115,671.8333333333334,115,674.25,115C676.6666666666666,115,679.0833333333334,115,681.5,115C683.9166666666666,115,686.3333333333334,115,688.75,115C691.1666666666666,115,693.5833333333334,115,696,115C698.4166666666666,115,700.8333333333334,115,703.25,115C705.6666666666666,115,708.0833333333334,115,710.5,115C712.9166666666666,115,715.3333333333334,115,717.75,115C720.1666666666666,115,722.5833333333334,115,725,115C727.4166666666666,115,729.8333333333334,115,732.25,115C734.6666666666666,115,737.0833333333334,115,739.5,115C741.9166666666666,115,744.3333333333334,115,746.75,115C749.1666666666666,115,751.5833333333334,115,754,115C756.4166666666666,115,758.8333333333334,115,761.25,115C763.6666666666666,115,766.0833333333334,115,768.5,115C770.9166666666666,115,773.3333333333334,115,775.75,115C778.1666666666666,115,780.5833333333334,115,783,115C785.4166666666667,115,787.8333333333334,115,790.2500000000001,115C792.6666666666667,115,795.0833333333335,115,797.5000000000001,115C799.9166666666667,115,802.3333333333335,115,804.7500000000001,115C807.1666666666667,115,809.5833333333335,115,812.0000000000001,115C814.4166666666667,115,816.8333333333333,115,819.2499999999999,115C821.6666666666665,115,824.0833333333333,115,826.4999999999999,115C828.9166666666665,115,831.3333333333333,115,833.7499999999999,115C836.1666666666665,115,838.5833333333333,115,840.9999999999999,115C843.4166666666666,115,845.8333333333333,115,848.25,115C850.6666666666666,115,853.0833333333334,115,855.5,115C857.9166666666666,115,860.3333333333334,115,862.75,115C865.1666666666666,115,867.5833333333334,115,870,115C872.4166666666666,115,874.8333333333334,115,877.25,115C879.6666666666666,115,882.0833333333334,115,884.5,115C886.9166666666666,115,889.3333333333334,115,891.75,115C894.1666666666666,115,896.5833333333334,115,899,115C901.4166666666666,115,903.8333333333334,115,906.25,115C908.6666666666666,115,911.0833333333334,115,913.5,115C915.9166666666666,115,918.3333333333334,115,920.75,115C923.1666666666666,115,925.5833333333334,115,928,115C930.4166666666666,115,932.8333333333334,115,935.25,115C937.6666666666666,115,940.0833333333334,115,942.5,115C944.9166666666666,115,947.3333333333334,115,949.75,115C952.1666666666666,115,954.5833333333334,115,957,115C959.4166666666666,115,961.8333333333334,115,964.25,115C966.6666666666667,115,969.0833333333334,115,971.5000000000001,115C973.9166666666667,115,976.3333333333335,115,978.7500000000001,115C981.1666666666667,115,983.5833333333335,115,986.0000000000001,115C988.4166666666667,115,990.8333333333335,115,993.2500000000001,115C995.6666666666667,115,998.0833333333333,115,1000.4999999999999,115C1002.9166666666665,115,1005.3333333333333,115,1007.7499999999999,115C1010.1666666666665,115,1012.5833333333333,115,1014.9999999999999,115C1017.4166666666665,115,1019.8333333333333,115,1022.2499999999999,115C1024.6666666666665,115,1027.0833333333333,115,1029.5,115C1031.9166666666667,115,1034.3333333333333,115,1036.75,115C1039.1666666666667,115,1041.5833333333333,115,1044,115C1046.4166666666667,115,1048.8333333333333,115,1051.25,115C1053.6666666666667,115,1056.0833333333333,115,1058.5,115C1060.9166666666667,115,1063.3333333333333,115,1065.75,115C1068.1666666666667,115,1070.5833333333333,115,1073,115C1075.4166666666667,115,1077.8333333333333,115,1080.25,115C1082.6666666666667,115,1085.0833333333333,115,1087.5,115C1089.9166666666667,115,1092.3333333333333,115,1094.75,115C1097.1666666666667,115,1099.5833333333333,115,1102,115C1104.4166666666667,115,1106.8333333333333,115,1109.25,115C1111.6666666666667,115,1114.0833333333333,115,1116.5,115C1118.9166666666667,115,1121.3333333333333,115,1123.75,115C1126.1666666666667,115,1128.5833333333333,115,1131,115C1133.4166666666667,115,1135.8333333333333,115,1138.25,115C1140.6666666666667,115,1143.0833333333333,115,1145.5,115C1147.9166666666667,115,1150.3333333333333,115,1152.75,115C1155.1666666666667,115,1157.5833333333333,115,1160,115C1162.4166666666667,115,1164.8333333333333,115,1167.25,115C1169.6666666666667,115,1172.0833333333333,115,1174.5,115C1176.9166666666667,115,1179.3333333333333,115,1181.75,115C1184.1666666666667,115,1186.5833333333333,115,1189,115C1191.4166666666667,115,1193.8333333333333,115,1196.25,115C1198.6666666666667,115,1201.0833333333333,115,1203.5,115C1205.9166666666667,115,1208.3333333333333,115,1210.75,115C1213.1666666666667,115,1215.5833333333333,115,1218,115C1220.4166666666667,115,1222.8333333333333,115,1225.25,115C1227.6666666666667,115,1230.0833333333333,115,1232.5,115C1234.9166666666667,115,1237.3333333333333,115,1239.75,115C1242.1666666666667,115,1244.5833333333333,115,1247,115C1249.4166666666667,115,1251.8333333333333,115,1254.25,115C1256.6666666666667,115,1259.0833333333333,115,1261.5,115C1263.9166666666667,115,1266.3333333333333,115,1268.75,115C1271.1666666666667,115,1273.5833333333333,115,1276,115C1278.4166666666667,115,1280.8333333333333,115,1283.25,115C1285.6666666666667,115,1288.0833333333333,115,1290.5,115C1292.9166666666667,115,1295.3333333333333,115,1297.75,115C1300.1666666666667,115,1302.5833333333333,115,1305,115C1307.4166666666667,115,1309.8333333333333,115,1312.25,115C1314.6666666666667,115,1317.0833333333333,115,1319.5,115C1321.9166666666667,115,1324.3333333333333,115,1326.75,115C1329.1666666666667,115,1331.5833333333333,115,1334,115C1336.4166666666667,115,1338.8333333333333,115,1341.25,115C1343.6666666666667,115,1346.0833333333333,115,1348.5,115C1350.9166666666667,115,1353.3333333333333,115,1355.75,115C1358.1666666666667,115,1360.5833333333333,115,1363,115C1365.4166666666667,115,1367.8333333333333,115,1370.25,115C1372.6666666666667,115,1375.0833333333333,115,1377.5,115C1379.9166666666667,115,1382.3333333333333,115,1384.75,115C1387.1666666666667,115,1389.5833333333333,115,1392,115C1394.4166666666667,115,1396.8333333333333,115,1399.25,115C1401.6666666666667,115,1404.0833333333333,115,1406.5,115C1408.9166666666667,115,1411.3333333333333,115,1413.75,115C1416.1666666666667,115,1418.5833333333333,115,1421,115C1423.4166666666667,115,1425.8333333333333,115,1428.25,115C1430.6666666666667,115,1433.0833333333333,115,1435.5,115C1437.9166666666667,115,1440.3333333333333,115,1442.75,115C1445.1666666666667,115,1447.5833333333333,57.49999999999999,1450,0" fill="transparent" stroke-linecap="round" stroke="#E7C6DF" stroke-width="2"></path><g class="visx-group visx-axis visx-axis-bottom" transform="translate(0, 115)"><g class="visx-group visx-axis-tick" transform="translate(0, 0)"><line class="visx-line" x1="0" y1="0" x2="0" y2="8" fill="transparent" shape-rendering="crispEdges" stroke="#000" stroke-width="0" stroke-linecap="square"></line><svg x="0" y="0" font-size="10" style="overflow:visible"><text transform="" x="0" y="18" fill="#000" font-size="10" text-anchor="middle"><tspan x="0" dy="0em">0%</tspan></text></svg></g><g class="visx-group visx-axis-tick" transform="translate(0, 0)"><line class="visx-line" x1="362.5" y1="0" x2="362.5" y2="8" fill="transparent" shape-rendering="crispEdges" stroke="#000" stroke-width="0" stroke-linecap="square"></line><svg x="0" y="0" font-size="10" style="overflow:visible"><text transform="" x="362.5" y="18" fill="#000" font-size="10" text-anchor="middle"><tspan x="362.5" dy="0em">25%</tspan></text></svg></g><g class="visx-group visx-axis-tick" transform="translate(0, 0)"><line class="visx-line" x1="725" y1="0" x2="725" y2="8" fill="transparent" shape-rendering="crispEdges" stroke="#000" stroke-width="0" stroke-linecap="square"></line><svg x="0" y="0" font-size="10" style="overflow:visible"><text transform="" x="725" y="18" fill="#000" font-size="10" text-anchor="middle"><tspan x="725" dy="0em">50%</tspan></text></svg></g><g class="visx-group visx-axis-tick" transform="translate(0, 0)"><line class="visx-line" x1="1087.5" y1="0" x2="1087.5" y2="8" fill="transparent" shape-rendering="crispEdges" stroke="#000" stroke-width="0" stroke-linecap="square"></line><svg x="0" y="0" font-size="10" style="overflow:visible"><text transform="" x="1087.5" y="18" fill="#000" font-size="10" text-anchor="middle"><tspan x="1087.5" dy="0em">75%</tspan></text></svg></g><g class="visx-group visx-axis-tick" transform="translate(0, 0)"><line class="visx-line" x1="1450" y1="0" x2="1450" y2="8" fill="transparent" shape-rendering="crispEdges" stroke="#000" stroke-width="0" stroke-linecap="square"></line><svg x="0" y="0" font-size="10" style="overflow:visible"><text transform="" x="1450" y="18" fill="#000" font-size="10" text-anchor="middle"><tspan x="1450" dy="0em">100%</tspan></text></svg></g><line class="visx-line visx-axis-line" x1="0.5" y1="0" x2="1450.5" y2="0" fill="transparent" shape-rendering="crispEdges" stroke="#222" stroke-width="0"></line></g><g class="visx-group visx-axis visx-axis-left" transform="translate(0, 0)"><g class="visx-group visx-axis-tick" transform="translate(0, 0)"><line class="visx-line" x1="0" y1="115" x2="-8" y2="115" fill="transparent" shape-rendering="crispEdges" stroke="#222" stroke-width="0" stroke-linecap="square"></line><svg x="-30" y="0" font-size="8" style="overflow:visible"><text transform="" x="-8" y="115" fill="#000" font-size="8" text-anchor="start"><tspan x="-8" dy="0em">0%</tspan></text></svg></g><g class="visx-group visx-axis-tick" transform="translate(0, 0)"><line class="visx-line" x1="0" y1="43.125" x2="-8" y2="43.125" fill="transparent" shape-rendering="crispEdges" stroke="#222" stroke-width="0" stroke-linecap="square"></line><svg x="-30" y="0" font-size="8" style="overflow:visible"><text transform="" x="-8" y="43.125" fill="#000" font-size="8" text-anchor="start"><tspan x="-8" dy="0em">10%</tspan></text></svg></g><line class="visx-line visx-axis-line" x1="0" y1="115.5" x2="0" y2="0.5" fill="transparent" shape-rendering="crispEdges" stroke="#222" stroke-width="0"></line></g><rect class="visx-bar" width="1450" height="115" fill="transparent"></rect><line class="visx-line" x1="1450" y1="28" x2="1450" y2="115" fill="transparent" shape-rendering="crispEdges" stroke="#0062D2" stroke-width="1" pointer-events="none" stroke-dasharray="5,2"></line><svg x="0" y="0" font-size="10px" style="overflow:visible"><text transform="" x="1450" y="20" font-size="10px" fill="#fff" stroke="#fff" stroke-width="0.8em" text-anchor="middle"><tspan x="1450" dy="0.355em">Optimal 100%</tspan></text></svg><svg x="0" y="0" font-size="10px" style="overflow:visible"><text transform="" x="1450" y="20" font-size="10px" fill="#62677B" text-anchor="middle"><tspan x="1450" dy="0.355em">Optimal 100%</tspan></text></svg></g></svg>