<?xml version="1.0"?><svg xmlns="http://www.w3.org/2000/svg" xmlns:xlink= "http://www.w3.org/1999/xlink" style="background: white;" width="1500" height="185"> <g style="color: black; font-size: 13px; font-family: sans-serif; transform: translate(18px, 25px);"><g><circle r="3" cx="-6" cy="-5" style="fill: #B6509E" /><text>Borrow APR, variable</text></g><g style="transform: translateX(150px);"><circle r="3" cx="-6" cy="-5" style="fill: rgb(231, 198, 223)" /><text>Borrow APR, stable</text></g><g style="transform: translateX(290px);"><circle r="3" cx="-6" cy="-5" style="fill: rgb(0, 98, 210)" /><text>Utilization Rate</text></g></g><g class="visx-group" transform="translate(40, 50)"><g class="visx-group visx-rows" transform="translate(0, 0)"><line class="visx-line" x1="0" y1="115" x2="1450" y2="115" fill="transparent" shape-rendering="crispEdges" stroke="#000" stroke-width="1" stroke-dasharray="3,3" pointer-events="none"></line><line class="visx-line" x1="0" y1="57.5" x2="1450" y2="57.5" fill="transparent" shape-rendering="crispEdges" stroke="#000" stroke-width="1" stroke-dasharray="3,3" pointer-events="none"></line><line class="visx-line" x1="0" y1="0" x2="1450" y2="0" fill="transparent" shape-rendering="crispEdges" stroke="#000" stroke-width="1" stroke-dasharray="3,3" pointer-events="none"></line></g><path class="visx-linepath" d="M0,113.8499999999425C2.4166666666666665,113.84041666663313,4.833333333333334,113.83083333332375,7.25,113.82125C9.666666666666666,113.81166666667626,12.083333333333334,113.80208333333334,14.5,113.7925C16.916666666666668,113.78291666666667,19.333333333333332,113.77333333333334,21.75,113.76375C24.166666666666668,113.75416666666666,26.583333333333332,113.74458333333334,29,113.735C31.416666666666668,113.72541666666666,33.833333333333336,113.71583333333332,36.25,113.70625C38.666666666666664,113.69666666666667,41.083333333333336,113.68708333333335,43.5,113.67750000000001C45.91666666666667,113.66791666666667,48.333333333333336,113.65833333333333,50.75000000000001,113.64874999999999C53.16666666666667,113.63916666666665,55.583333333333336,113.62958333333333,58,113.62C60.416666666666664,113.61041666666667,62.833333333333336,113.60083333333334,65.25,113.59125C67.66666666666667,113.58166666666666,70.08333333333333,113.57208333333334,72.5,113.5625C74.91666666666667,113.55291666666666,77.33333333333333,113.54333333333334,79.75,113.53375C82.16666666666667,113.52416666666666,84.58333333333333,113.51458333333332,87,113.505C89.41666666666667,113.49541666666667,91.83333333333333,113.48583333333333,94.25,113.47625000000001C96.66666666666667,113.46666666666667,99.08333333333334,113.45708333333334,101.50000000000001,113.4475C103.91666666666667,113.43791666666667,106.33333333333334,113.42833333333333,108.75,113.41874999999999C111.16666666666667,113.40916666666665,113.58333333333333,113.39958333333333,116,113.39C118.41666666666667,113.38041666666666,120.83333333333334,113.37083333333334,123.25000000000001,113.36125C125.66666666666667,113.35166666666667,128.08333333333334,113.34208333333335,130.5,113.33250000000001C132.91666666666666,113.32291666666667,135.33333333333334,113.31333333333333,137.75,113.30375C140.16666666666666,113.29416666666665,142.58333333333334,113.28458333333332,145,113.27499999999999C147.41666666666666,113.26541666666667,149.83333333333334,113.25583333333333,152.25,113.24625C154.66666666666666,113.23666666666668,157.08333333333334,113.22708333333334,159.5,113.2175C161.91666666666666,113.20791666666666,164.33333333333334,113.19833333333334,166.75,113.18875C169.16666666666666,113.17916666666666,171.58333333333334,113.16958333333332,174,113.16C176.41666666666666,113.15041666666667,178.83333333333334,113.14083333333333,181.25,113.13125000000001C183.66666666666666,113.12166666666668,186.08333333333334,113.11208333333335,188.5,113.1025C190.91666666666666,113.09291666666667,193.33333333333334,113.08333333333333,195.75,113.07374999999999C198.16666666666669,113.06416666666665,200.58333333333334,113.05458333333334,203.00000000000003,113.045C205.41666666666669,113.03541666666668,207.83333333333331,113.02583333333332,210.24999999999997,113.01625C212.66666666666666,113.00666666666666,215.08333333333331,112.99708333333335,217.5,112.98750000000001C219.91666666666666,112.97791666666667,222.33333333333334,112.96833333333333,224.75,112.95875C227.16666666666666,112.94916666666666,229.58333333333334,112.93958333333332,232,112.92999999999999C234.41666666666666,112.92041666666667,236.83333333333334,112.91083333333333,239.25,112.90125C241.66666666666669,112.89166666666667,244.08333333333334,112.88208333333334,246.50000000000003,112.8725C248.91666666666669,112.86291666666666,251.33333333333331,112.85333333333334,253.74999999999997,112.84375C256.16666666666663,112.83416666666666,258.5833333333333,112.82458333333334,261,112.815C263.4166666666667,112.80541666666666,265.8333333333333,112.79583333333332,268.25,112.78625C270.6666666666667,112.77666666666667,273.0833333333333,112.76708333333335,275.5,112.75750000000001C277.9166666666667,112.74791666666667,280.3333333333333,112.73833333333333,282.75,112.72874999999999C285.1666666666667,112.71916666666665,287.5833333333333,112.70958333333333,290,112.7C292.4166666666667,112.69041666666668,294.8333333333333,112.68083333333334,297.25,112.67125C299.6666666666667,112.66166666666666,302.0833333333333,112.65208333333334,304.5,112.6425C306.9166666666667,112.63291666666666,309.3333333333333,112.62333333333333,311.75,112.61375C314.1666666666667,112.60416666666666,316.5833333333333,112.59458333333332,319,112.585C321.4166666666667,112.57541666666667,323.8333333333333,112.56583333333333,326.25,112.55625C328.6666666666667,112.54666666666668,331.0833333333333,112.53708333333334,333.5,112.5275C335.9166666666667,112.51791666666666,338.3333333333333,112.50833333333334,340.75,112.49875C343.1666666666667,112.48916666666666,345.5833333333333,112.47958333333334,348,112.47C350.4166666666667,112.46041666666666,352.8333333333333,112.45083333333332,355.25,112.44125C357.6666666666667,112.43166666666667,360.0833333333333,112.42208333333335,362.5,112.41250000000001C364.9166666666667,112.40291666666667,367.3333333333333,112.39333333333333,369.75,112.38374999999999C372.1666666666667,112.37416666666665,374.5833333333333,112.36458333333333,377,112.355C379.4166666666667,112.34541666666668,381.8333333333333,112.33583333333334,384.25,112.32625C386.6666666666667,112.31666666666666,389.0833333333333,112.30708333333334,391.5,112.2975C393.9166666666667,112.28791666666666,396.33333333333337,112.27833333333334,398.75000000000006,112.26875C401.16666666666674,112.25916666666666,403.58333333333337,112.24958333333333,406.00000000000006,112.24C408.4166666666667,112.23041666666667,410.8333333333333,112.22083333333333,413.24999999999994,112.21125C415.66666666666663,112.20166666666667,418.08333333333326,112.19208333333334,420.49999999999994,112.1825C422.91666666666663,112.17291666666667,425.3333333333333,112.16333333333333,427.75,112.15374999999999C430.1666666666667,112.14416666666665,432.5833333333333,112.13458333333332,435,112.125C437.4166666666667,112.11541666666668,439.8333333333333,112.10583333333332,442.25,112.09625C444.6666666666667,112.08666666666667,447.0833333333333,112.07708333333335,449.5,112.06750000000001C451.9166666666667,112.05791666666667,454.3333333333333,112.04833333333333,456.75,112.03875C459.1666666666667,112.02916666666665,461.5833333333333,112.01958333333332,464,112.00999999999999C466.4166666666667,112.00041666666667,468.8333333333333,111.99083333333333,471.25,111.98125C473.6666666666667,111.97166666666668,476.0833333333333,111.96208333333334,478.5,111.9525C480.9166666666667,111.94291666666666,483.33333333333337,111.93333333333334,485.75000000000006,111.92375C488.16666666666674,111.91416666666666,490.58333333333337,111.90458333333333,493.00000000000006,111.895C495.4166666666667,111.88541666666666,497.8333333333333,111.87583333333332,500.24999999999994,111.86625C502.66666666666663,111.85666666666665,505.08333333333326,111.84708333333334,507.49999999999994,111.8375C509.91666666666663,111.82791666666667,512.3333333333333,111.81833333333333,514.75,111.80874999999999C517.1666666666666,111.79916666666665,519.5833333333334,111.78958333333333,522,111.78C524.4166666666666,111.77041666666668,526.8333333333334,111.76083333333334,529.25,111.75125C531.6666666666666,111.74166666666666,534.0833333333334,111.73208333333334,536.5,111.7225C538.9166666666666,111.71291666666666,541.3333333333334,111.70333333333333,543.75,111.69375C546.1666666666666,111.68416666666666,548.5833333333334,111.67458333333332,551,111.66499999999999C553.4166666666666,111.65541666666667,555.8333333333334,111.64583333333333,558.25,111.63625C560.6666666666666,111.62666666666668,563.0833333333334,111.61708333333333,565.5,111.6075C567.9166666666666,111.59791666666668,570.3333333333334,111.58833333333335,572.75,111.57875000000001C575.1666666666666,111.56916666666667,577.5833333333334,111.55958333333334,580,111.55C582.4166666666666,111.54041666666666,584.8333333333334,111.53083333333332,587.25,111.52125C589.6666666666666,111.51166666666667,592.0833333333334,111.50208333333335,594.5,111.4925C596.9166666666666,111.48291666666667,599.3333333333334,111.47333333333333,601.75,111.46374999999999C604.1666666666666,111.45416666666665,606.5833333333334,111.44458333333333,609,111.435C611.4166666666666,111.42541666666668,613.8333333333334,111.41583333333334,616.25,111.40625C618.6666666666666,111.39666666666666,621.0833333333334,111.38708333333332,623.5,111.3775C625.9166666666666,111.36791666666667,628.3333333333334,111.35833333333335,630.75,111.34875000000001C633.1666666666666,111.33916666666667,635.5833333333334,111.32958333333333,638,111.32C640.4166666666666,111.31041666666665,642.8333333333334,111.30083333333333,645.25,111.29125C647.6666666666666,111.28166666666668,650.0833333333334,111.27208333333334,652.5,111.2625C654.9166666666666,111.25291666666666,657.3333333333334,111.24333333333333,659.75,111.23374999999999C662.1666666666666,111.22416666666665,664.5833333333334,111.21458333333332,667,111.205C669.4166666666666,111.19541666666667,671.8333333333334,111.18583333333332,674.25,111.17625C676.6666666666666,111.16666666666667,679.0833333333334,111.15708333333333,681.5,111.14750000000001C683.9166666666666,111.13791666666668,686.3333333333334,111.12833333333334,688.75,111.11875C691.1666666666666,111.10916666666667,693.5833333333334,111.09958333333334,696,111.09C698.4166666666666,111.08041666666666,700.8333333333334,111.07083333333334,703.25,111.06125C705.6666666666666,111.05166666666666,708.0833333333334,111.04208333333334,710.5,111.0325C712.9166666666666,111.02291666666666,715.3333333333334,111.01333333333334,717.75,111.00375C720.1666666666666,110.99416666666666,722.5833333333334,110.98458333333332,725,110.975C727.4166666666666,110.96541666666667,729.8333333333334,110.95583333333333,732.25,110.94625C734.6666666666666,110.93666666666668,737.0833333333334,110.92708333333334,739.5,110.9175C741.9166666666666,110.90791666666667,744.3333333333334,110.89833333333334,746.75,110.88875C749.1666666666666,110.87916666666666,751.5833333333334,110.86958333333334,754,110.86C756.4166666666666,110.85041666666666,758.8333333333334,110.84083333333332,761.25,110.83125C763.6666666666666,110.82166666666667,766.0833333333334,110.81208333333333,768.5,110.80250000000001C770.9166666666666,110.79291666666668,773.3333333333334,110.78333333333335,775.75,110.77375C778.1666666666666,110.76416666666667,780.5833333333334,110.75458333333333,783,110.74499999999999C785.4166666666667,110.73541666666665,787.8333333333334,110.72583333333334,790.2500000000001,110.71625C792.6666666666667,110.70666666666668,795.0833333333335,110.69708333333332,797.5000000000001,110.6875C799.9166666666667,110.67791666666668,802.3333333333335,110.66833333333335,804.7500000000001,110.65875000000001C807.1666666666667,110.64916666666667,809.5833333333335,110.63958333333333,812.0000000000001,110.63C814.4166666666667,110.62041666666666,816.8333333333333,110.61083333333332,819.2499999999999,110.60125C821.6666666666665,110.59166666666665,824.0833333333333,110.58208333333333,826.4999999999999,110.5725C828.9166666666665,110.56291666666668,831.3333333333333,110.55333333333334,833.7499999999999,110.54375C836.1666666666665,110.53416666666666,838.5833333333333,110.52458333333334,840.9999999999999,110.515C843.4166666666666,110.50541666666666,845.8333333333333,110.49583333333334,848.25,110.48625C850.6666666666666,110.47666666666666,853.0833333333334,110.46708333333332,855.5,110.4575C857.9166666666666,110.44791666666667,860.3333333333334,110.43833333333335,862.75,110.42875000000001C865.1666666666666,110.41916666666667,867.5833333333334,110.40958333333333,870,110.39999999999999C872.4166666666666,110.39041666666665,874.8333333333334,110.38083333333333,877.25,110.37125C879.6666666666666,110.36166666666668,882.0833333333334,110.35208333333334,884.5,110.3425C886.9166666666666,110.33291666666666,889.3333333333334,110.32333333333334,891.75,110.31375C894.1666666666666,110.30416666666666,896.5833333333334,110.29458333333334,899,110.285C901.4166666666666,110.27541666666666,903.8333333333334,110.26583333333332,906.25,110.25625C908.6666666666666,110.24666666666667,911.0833333333334,110.23708333333333,913.5,110.2275C915.9166666666666,110.21791666666668,918.3333333333334,110.20833333333334,920.75,110.19875C923.1666666666666,110.18916666666667,925.5833333333334,110.17958333333334,928,110.17C930.4166666666666,110.16041666666666,932.8333333333334,110.15083333333334,935.25,110.14125C937.6666666666666,110.13166666666666,940.0833333333334,110.12208333333332,942.5,110.1125C944.9166666666666,110.10291666666667,947.3333333333334,110.09333333333335,949.75,110.08375000000001C952.1666666666666,110.07416666666667,954.5833333333334,110.06458333333333,957,110.05499999999999C959.4166666666666,110.04541666666665,961.8333333333334,110.03583333333333,964.25,110.02625C966.6666666666667,110.01666666666667,969.0833333333334,110.00708333333334,971.5000000000001,109.9975C973.9166666666667,109.98791666666666,976.3333333333335,109.97833333333334,978.7500000000001,109.96875C981.1666666666667,109.95916666666666,983.5833333333335,109.94958333333334,986.0000000000001,109.94C988.4166666666667,109.93041666666666,990.8333333333335,109.92083333333333,993.2500000000001,109.91125C995.6666666666667,109.90166666666667,998.0833333333333,109.89208333333333,1000.4999999999999,109.88250000000001C1002.9166666666665,109.87291666666667,1005.3333333333333,109.86333333333334,1007.7499999999999,109.85375C1010.1666666666665,109.84416666666667,1012.5833333333333,109.83458333333333,1014.9999999999999,109.82499999999999C1017.4166666666665,109.81541666666665,1019.8333333333333,109.80583333333333,1022.2499999999999,109.79625C1024.6666666666665,109.78666666666666,1027.0833333333333,109.77708333333334,1029.5,109.7675C1031.9166666666667,109.75791666666667,1034.3333333333333,109.74833333333335,1036.75,109.73875000000001C1039.1666666666667,109.72916666666667,1041.5833333333333,109.71958333333333,1044,109.71C1046.4166666666667,109.70041666666665,1048.8333333333333,109.69083333333332,1051.25,109.68124999999999C1053.6666666666667,109.67166666666667,1056.0833333333333,109.66208333333333,1058.5,109.6525C1060.9166666666667,109.64291666666668,1063.3333333333333,109.63333333333334,1065.75,109.62375C1068.1666666666667,109.61416666666666,1070.5833333333333,109.60458333333334,1073,109.595C1075.4166666666667,109.58541666666666,1077.8333333333333,109.57583333333332,1080.25,109.56625C1082.6666666666667,109.55666666666667,1085.0833333333333,109.54708333333333,1087.5,109.53750000000001C1089.9166666666667,109.52791666666668,1092.3333333333333,109.51833333333335,1094.75,109.50875C1097.1666666666667,109.49916666666667,1099.5833333333333,109.48958333333333,1102,109.47999999999999C1104.4166666666667,109.47041666666665,1106.8333333333333,109.46083333333333,1109.25,109.45125C1111.6666666666667,109.44166666666668,1114.0833333333333,109.43208333333332,1116.5,109.4225C1118.9166666666667,109.41291666666667,1121.3333333333333,109.40333333333335,1123.75,109.39375000000001C1126.1666666666667,109.38416666666667,1128.5833333333333,109.37458333333333,1131,109.365C1133.4166666666667,109.35541666666666,1135.8333333333333,109.34583333333332,1138.25,109.33624999999999C1140.6666666666667,109.32666666666667,1143.0833333333333,109.31708333333333,1145.5,109.3075C1147.9166666666667,109.29791666666668,1150.3333333333333,109.28833333333334,1152.75,109.27875C1155.1666666666667,109.26916666666666,1157.5833333333333,109.26916666666666,1160,109.25C1162.4166666666667,109.23083333333334,1164.8333333333333,107.71666666666665,1167.25,106.94999999999999C1169.6666666666667,106.18333333333332,1172.0833333333333,105.41666666666667,1174.5,104.65C1176.9166666666667,103.88333333333334,1179.3333333333333,103.11666666666667,1181.75,102.35000000000001C1184.1666666666667,101.58333333333334,1186.5833333333333,100.81666666666666,1189,100.05C1191.4166666666667,99.28333333333333,1193.8333333333333,98.51666666666667,1196.25,97.75C1198.6666666666667,96.98333333333333,1201.0833333333333,96.21666666666665,1203.5,95.44999999999999C1205.9166666666667,94.68333333333332,1208.3333333333333,93.91666666666667,1210.75,93.15C1213.1666666666667,92.38333333333334,1215.5833333333333,91.61666666666667,1218,90.85000000000001C1220.4166666666667,90.08333333333334,1222.8333333333333,89.31666666666666,1225.25,88.55C1227.6666666666667,87.78333333333333,1230.0833333333333,87.01666666666667,1232.5,86.25C1234.9166666666667,85.48333333333333,1237.3333333333333,84.71666666666667,1239.75,83.95C1242.1666666666667,83.18333333333334,1244.5833333333333,82.41666666666666,1247,81.64999999999999C1249.4166666666667,80.88333333333333,1251.8333333333333,80.11666666666666,1254.25,79.35C1256.6666666666667,78.58333333333333,1259.0833333333333,77.81666666666666,1261.5,77.05C1263.9166666666667,76.28333333333333,1266.3333333333333,75.51666666666667,1268.75,74.75C1271.1666666666667,73.98333333333333,1273.5833333333333,73.21666666666667,1276,72.45C1278.4166666666667,71.68333333333334,1280.8333333333333,70.91666666666666,1283.25,70.14999999999999C1285.6666666666667,69.38333333333333,1288.0833333333333,68.61666666666667,1290.5,67.85000000000001C1292.9166666666667,67.08333333333334,1295.3333333333333,66.31666666666668,1297.75,65.55000000000001C1300.1666666666667,64.78333333333335,1302.5833333333333,64.01666666666668,1305,63.25000000000001C1307.4166666666667,62.48333333333334,1309.8333333333333,61.71666666666667,1312.25,60.95C1314.6666666666667,60.18333333333334,1317.0833333333333,59.416666666666664,1319.5,58.65C1321.9166666666667,57.88333333333333,1324.3333333333333,57.11666666666667,1326.75,56.35C1329.1666666666667,55.583333333333336,1331.5833333333333,54.81666666666666,1334,54.05C1336.4166666666667,53.28333333333333,1338.8333333333333,52.51666666666666,1341.25,51.74999999999999C1343.6666666666667,50.98333333333333,1346.0833333333333,50.21666666666667,1348.5,49.45C1350.9166666666667,48.68333333333334,1353.3333333333333,47.91666666666667,1355.75,47.150000000000006C1358.1666666666667,46.38333333333334,1360.5833333333333,45.61666666666667,1363,44.85C1365.4166666666667,44.083333333333336,1367.8333333333333,43.31666666666666,1370.25,42.55C1372.6666666666667,41.78333333333333,1375.0833333333333,41.016666666666666,1377.5,40.25C1379.9166666666667,39.483333333333334,1382.3333333333333,38.71666666666666,1384.75,37.949999999999996C1387.1666666666667,37.18333333333333,1389.5833333333333,36.41666666666667,1392,35.650000000000006C1394.4166666666667,34.88333333333334,1396.8333333333333,34.11666666666667,1399.25,33.35C1401.6666666666667,32.583333333333336,1404.0833333333333,31.816666666666666,1406.5,31.05C1408.9166666666667,30.283333333333335,1411.3333333333333,29.516666666666666,1413.75,28.75C1416.1666666666667,27.983333333333334,1418.5833333333333,27.21666666666667,1421,26.45C1423.4166666666667,25.68333333333333,1425.8333333333333,24.916666666666664,1428.25,24.149999999999995C1430.6666666666667,23.383333333333326,1433.0833333333333,22.61666666666666,1435.5,21.849999999999994C1437.9166666666667,21.08333333333333,1440.3333333333333,20.31666666666667,1442.75,19.550000000000004C1445.1666666666667,18.78333333333334,1447.5833333333333,18.016666666666673,1450,17.250000000000004" fill="transparent" stroke-linecap="round" stroke="#B6509E" stroke-width="2"></path><path class="visx-linepath" d="M0,110.39999999999999C2.4166666666666665,110.39999999999999,4.833333333333334,110.39999999999999,7.25,110.39999999999999C9.666666666666666,110.39999999999999,12.083333333333334,110.39999999999999,14.5,110.39999999999999C16.916666666666668,110.39999999999999,19.333333333333332,110.39999999999999,21.75,110.39999999999999C24.166666666666668,110.39999999999999,26.583333333333332,110.39999999999999,29,110.39999999999999C31.416666666666668,110.39999999999999,33.833333333333336,110.39999999999999,36.25,110.39999999999999C38.666666666666664,110.39999999999999,41.083333333333336,110.39999999999999,43.5,110.39999999999999C45.91666666666667,110.39999999999999,48.333333333333336,110.39999999999999,50.75000000000001,110.39999999999999C53.16666666666667,110.39999999999999,55.583333333333336,110.39999999999999,58,110.39999999999999C60.416666666666664,110.39999999999999,62.833333333333336,110.39999999999999,65.25,110.39999999999999C67.66666666666667,110.39999999999999,70.08333333333333,110.39999999999999,72.5,110.39999999999999C74.91666666666667,110.39999999999999,77.33333333333333,110.39999999999999,79.75,110.39999999999999C82.16666666666667,110.39999999999999,84.58333333333333,110.39999999999999,87,110.39999999999999C89.41666666666667,110.39999999999999,91.83333333333333,110.39999999999999,94.25,110.39999999999999C96.66666666666667,110.39999999999999,99.08333333333334,110.39999999999999,101.50000000000001,110.39999999999999C103.91666666666667,110.39999999999999,106.33333333333334,110.39999999999999,108.75,110.39999999999999C111.16666666666667,110.39999999999999,113.58333333333333,110.39999999999999,116,110.39999999999999C118.41666666666667,110.39999999999999,120.83333333333334,110.39999999999999,123.25000000000001,110.39999999999999C125.66666666666667,110.39999999999999,128.08333333333334,110.39999999999999,130.5,110.39999999999999C132.91666666666666,110.39999999999999,135.33333333333334,110.39999999999999,137.75,110.39999999999999C140.16666666666666,110.39999999999999,142.58333333333334,110.39999999999999,145,110.39999999999999C147.41666666666666,110.39999999999999,149.83333333333334,110.39999999999999,152.25,110.39999999999999C154.66666666666666,110.39999999999999,157.08333333333334,110.39999999999999,159.5,110.39999999999999C161.91666666666666,110.39999999999999,164.33333333333334,110.39999999999999,166.75,110.39999999999999C169.16666666666666,110.39999999999999,171.58333333333334,110.39999999999999,174,110.39999999999999C176.41666666666666,110.39999999999999,178.83333333333334,110.39999999999999,181.25,110.39999999999999C183.66666666666666,110.39999999999999,186.08333333333334,110.39999999999999,188.5,110.39999999999999C190.91666666666666,110.39999999999999,193.33333333333334,110.39999999999999,195.75,110.39999999999999C198.16666666666669,110.39999999999999,200.58333333333334,110.39999999999999,203.00000000000003,110.39999999999999C205.41666666666669,110.39999999999999,207.83333333333331,110.39999999999999,210.24999999999997,110.39999999999999C212.66666666666666,110.39999999999999,215.08333333333331,110.39999999999999,217.5,110.39999999999999C219.91666666666666,110.39999999999999,222.33333333333334,110.39999999999999,224.75,110.39999999999999C227.16666666666666,110.39999999999999,229.58333333333334,110.39999999999999,232,110.39999999999999C234.41666666666666,110.39999999999999,236.83333333333334,110.39999999999999,239.25,110.39999999999999C241.66666666666669,110.39999999999999,244.08333333333334,110.39999999999999,246.50000000000003,110.39999999999999C248.91666666666669,110.39999999999999,251.33333333333331,110.39999999999999,253.74999999999997,110.39999999999999C256.16666666666663,110.39999999999999,258.5833333333333,110.39999999999999,261,110.39999999999999C263.4166666666667,110.39999999999999,265.8333333333333,110.39999999999999,268.25,110.39999999999999C270.6666666666667,110.39999999999999,273.0833333333333,110.39999999999999,275.5,110.39999999999999C277.9166666666667,110.39999999999999,280.3333333333333,110.39999999999999,282.75,110.39999999999999C285.1666666666667,110.39999999999999,287.5833333333333,110.39999999999999,290,110.39999999999999C292.4166666666667,110.39999999999999,294.8333333333333,110.39999999999999,297.25,110.39999999999999C299.6666666666667,110.39999999999999,302.0833333333333,110.39999999999999,304.5,110.39999999999999C306.9166666666667,110.39999999999999,309.3333333333333,110.39999999999999,311.75,110.39999999999999C314.1666666666667,110.39999999999999,316.5833333333333,110.39999999999999,319,110.39999999999999C321.4166666666667,110.39999999999999,323.8333333333333,110.39999999999999,326.25,110.39999999999999C328.6666666666667,110.39999999999999,331.0833333333333,110.39999999999999,333.5,110.39999999999999C335.9166666666667,110.39999999999999,338.3333333333333,110.39999999999999,340.75,110.39999999999999C343.1666666666667,110.39999999999999,345.5833333333333,110.39999999999999,348,110.39999999999999C350.4166666666667,110.39999999999999,352.8333333333333,110.39999999999999,355.25,110.39999999999999C357.6666666666667,110.39999999999999,360.0833333333333,110.39999999999999,362.5,110.39999999999999C364.9166666666667,110.39999999999999,367.3333333333333,110.39999999999999,369.75,110.39999999999999C372.1666666666667,110.39999999999999,374.5833333333333,110.39999999999999,377,110.39999999999999C379.4166666666667,110.39999999999999,381.8333333333333,110.39999999999999,384.25,110.39999999999999C386.6666666666667,110.39999999999999,389.0833333333333,110.39999999999999,391.5,110.39999999999999C393.9166666666667,110.39999999999999,396.33333333333337,110.39999999999999,398.75000000000006,110.39999999999999C401.16666666666674,110.39999999999999,403.58333333333337,110.39999999999999,406.00000000000006,110.39999999999999C408.4166666666667,110.39999999999999,410.8333333333333,110.39999999999999,413.24999999999994,110.39999999999999C415.66666666666663,110.39999999999999,418.08333333333326,110.39999999999999,420.49999999999994,110.39999999999999C422.91666666666663,110.39999999999999,425.3333333333333,110.39999999999999,427.75,110.39999999999999C430.1666666666667,110.39999999999999,432.5833333333333,110.39999999999999,435,110.39999999999999C437.4166666666667,110.39999999999999,439.8333333333333,110.39999999999999,442.25,110.39999999999999C444.6666666666667,110.39999999999999,447.0833333333333,110.39999999999999,449.5,110.39999999999999C451.9166666666667,110.39999999999999,454.3333333333333,110.39999999999999,456.75,110.39999999999999C459.1666666666667,110.39999999999999,461.5833333333333,110.39999999999999,464,110.39999999999999C466.4166666666667,110.39999999999999,468.8333333333333,110.39999999999999,471.25,110.39999999999999C473.6666666666667,110.39999999999999,476.0833333333333,110.39999999999999,478.5,110.39999999999999C480.9166666666667,110.39999999999999,483.33333333333337,110.39999999999999,485.75000000000006,110.39999999999999C488.16666666666674,110.39999999999999,490.58333333333337,110.39999999999999,493.00000000000006,110.39999999999999C495.4166666666667,110.39999999999999,497.8333333333333,110.39999999999999,500.24999999999994,110.39999999999999C502.66666666666663,110.39999999999999,505.08333333333326,110.39999999999999,507.49999999999994,110.39999999999999C509.91666666666663,110.39999999999999,512.3333333333333,110.39999999999999,514.75,110.39999999999999C517.1666666666666,110.39999999999999,519.5833333333334,110.39999999999999,522,110.39999999999999C524.4166666666666,110.39999999999999,526.8333333333334,110.39999999999999,529.25,110.39999999999999C531.6666666666666,110.39999999999999,534.0833333333334,110.39999999999999,536.5,110.39999999999999C538.9166666666666,110.39999999999999,541.3333333333334,110.39999999999999,543.75,110.39999999999999C546.1666666666666,110.39999999999999,548.5833333333334,110.39999999999999,551,110.39999999999999C553.4166666666666,110.39999999999999,555.8333333333334,110.39999999999999,558.25,110.39999999999999C560.6666666666666,110.39999999999999,563.0833333333334,110.39999999999999,565.5,110.39999999999999C567.9166666666666,110.39999999999999,570.3333333333334,110.39999999999999,572.75,110.39999999999999C575.1666666666666,110.39999999999999,577.5833333333334,110.39999999999999,580,110.39999999999999C582.4166666666666,110.39999999999999,584.8333333333334,110.39999999999999,587.25,110.39999999999999C589.6666666666666,110.39999999999999,592.0833333333334,110.39999999999999,594.5,110.39999999999999C596.9166666666666,110.39999999999999,599.3333333333334,110.39999999999999,601.75,110.39999999999999C604.1666666666666,110.39999999999999,606.5833333333334,110.39999999999999,609,110.39999999999999C611.4166666666666,110.39999999999999,613.8333333333334,110.39999999999999,616.25,110.39999999999999C618.6666666666666,110.39999999999999,621.0833333333334,110.39999999999999,623.5,110.39999999999999C625.9166666666666,110.39999999999999,628.3333333333334,110.39999999999999,630.75,110.39999999999999C633.1666666666666,110.39999999999999,635.5833333333334,110.39999999999999,638,110.39999999999999C640.4166666666666,110.39999999999999,642.8333333333334,110.39999999999999,645.25,110.39999999999999C647.6666666666666,110.39999999999999,650.0833333333334,110.39999999999999,652.5,110.39999999999999C654.9166666666666,110.39999999999999,657.3333333333334,110.39999999999999,659.75,110.39999999999999C662.1666666666666,110.39999999999999,664.5833333333334,110.39999999999999,667,110.39999999999999C669.4166666666666,110.39999999999999,671.8333333333334,110.39999999999999,674.25,110.39999999999999C676.6666666666666,110.39999999999999,679.0833333333334,110.39999999999999,681.5,110.39999999999999C683.9166666666666,110.39999999999999,686.3333333333334,110.39999999999999,688.75,110.39999999999999C691.1666666666666,110.39999999999999,693.5833333333334,110.39999999999999,696,110.39999999999999C698.4166666666666,110.39999999999999,700.8333333333334,110.39999999999999,703.25,110.39999999999999C705.6666666666666,110.39999999999999,708.0833333333334,110.39999999999999,710.5,110.39999999999999C712.9166666666666,110.39999999999999,715.3333333333334,110.39999999999999,717.75,110.39999999999999C720.1666666666666,110.39999999999999,722.5833333333334,110.39999999999999,725,110.39999999999999C727.4166666666666,110.39999999999999,729.8333333333334,110.39999999999999,732.25,110.39999999999999C734.6666666666666,110.39999999999999,737.0833333333334,110.39999999999999,739.5,110.39999999999999C741.9166666666666,110.39999999999999,744.3333333333334,110.39999999999999,746.75,110.39999999999999C749.1666666666666,110.39999999999999,751.5833333333334,110.39999999999999,754,110.39999999999999C756.4166666666666,110.39999999999999,758.8333333333334,110.39999999999999,761.25,110.39999999999999C763.6666666666666,110.39999999999999,766.0833333333334,110.39999999999999,768.5,110.39999999999999C770.9166666666666,110.39999999999999,773.3333333333334,110.39999999999999,775.75,110.39999999999999C778.1666666666666,110.39999999999999,780.5833333333334,110.39999999999999,783,110.39999999999999C785.4166666666667,110.39999999999999,787.8333333333334,110.39999999999999,790.2500000000001,110.39999999999999C792.6666666666667,110.39999999999999,795.0833333333335,110.39999999999999,797.5000000000001,110.39999999999999C799.9166666666667,110.39999999999999,802.3333333333335,110.39999999999999,804.7500000000001,110.39999999999999C807.1666666666667,110.39999999999999,809.5833333333335,110.39999999999999,812.0000000000001,110.39999999999999C814.4166666666667,110.39999999999999,816.8333333333333,110.39999999999999,819.2499999999999,110.39999999999999C821.6666666666665,110.39999999999999,824.0833333333333,110.39999999999999,826.4999999999999,110.39999999999999C828.9166666666665,110.39999999999999,831.3333333333333,110.39999999999999,833.7499999999999,110.39999999999999C836.1666666666665,110.39999999999999,838.5833333333333,110.39999999999999,840.9999999999999,110.39999999999999C843.4166666666666,110.39999999999999,845.8333333333333,110.39999999999999,848.25,110.39999999999999C850.6666666666666,110.39999999999999,853.0833333333334,110.39999999999999,855.5,110.39999999999999C857.9166666666666,110.39999999999999,860.3333333333334,110.39999999999999,862.75,110.39999999999999C865.1666666666666,110.39999999999999,867.5833333333334,110.39999999999999,870,110.39999999999999C872.4166666666666,110.39999999999999,874.8333333333334,110.39999999999999,877.25,110.39999999999999C879.6666666666666,110.39999999999999,882.0833333333334,110.39999999999999,884.5,110.39999999999999C886.9166666666666,110.39999999999999,889.3333333333334,110.39999999999999,891.75,110.39999999999999C894.1666666666666,110.39999999999999,896.5833333333334,110.39999999999999,899,110.39999999999999C901.4166666666666,110.39999999999999,903.8333333333334,110.39999999999999,906.25,110.39999999999999C908.6666666666666,110.39999999999999,911.0833333333334,110.39999999999999,913.5,110.39999999999999C915.9166666666666,110.39999999999999,918.3333333333334,110.39999999999999,920.75,110.39999999999999C923.1666666666666,110.39999999999999,925.5833333333334,110.39999999999999,928,110.39999999999999C930.4166666666666,110.39999999999999,932.8333333333334,110.39999999999999,935.25,110.39999999999999C937.6666666666666,110.39999999999999,940.0833333333334,110.39999999999999,942.5,110.39999999999999C944.9166666666666,110.39999999999999,947.3333333333334,110.39999999999999,949.75,110.39999999999999C952.1666666666666,110.39999999999999,954.5833333333334,110.39999999999999,957,110.39999999999999C959.4166666666666,110.39999999999999,961.8333333333334,110.39999999999999,964.25,110.39999999999999C966.6666666666667,110.39999999999999,969.0833333333334,110.39999999999999,971.5000000000001,110.39999999999999C973.9166666666667,110.39999999999999,976.3333333333335,110.39999999999999,978.7500000000001,110.39999999999999C981.1666666666667,110.39999999999999,983.5833333333335,110.39999999999999,986.0000000000001,110.39999999999999C988.4166666666667,110.39999999999999,990.8333333333335,110.39999999999999,993.2500000000001,110.39999999999999C995.6666666666667,110.39999999999999,998.0833333333333,110.39999999999999,1000.4999999999999,110.39999999999999C1002.9166666666665,110.39999999999999,1005.3333333333333,110.39999999999999,1007.7499999999999,110.39999999999999C1010.1666666666665,110.39999999999999,1012.5833333333333,110.39999999999999,1014.9999999999999,110.39999999999999C1017.4166666666665,110.39999999999999,1019.8333333333333,110.39999999999999,1022.2499999999999,110.39999999999999C1024.6666666666665,110.39999999999999,1027.0833333333333,110.39999999999999,1029.5,110.39999999999999C1031.9166666666667,110.39999999999999,1034.3333333333333,110.39999999999999,1036.75,110.39999999999999C1039.1666666666667,110.39999999999999,1041.5833333333333,110.39999999999999,1044,110.39999999999999C1046.4166666666667,110.39999999999999,1048.8333333333333,110.39999999999999,1051.25,110.39999999999999C1053.6666666666667,110.39999999999999,1056.0833333333333,110.39999999999999,1058.5,110.39999999999999C1060.9166666666667,110.39999999999999,1063.3333333333333,110.39999999999999,1065.75,110.39999999999999C1068.1666666666667,110.39999999999999,1070.5833333333333,110.39999999999999,1073,110.39999999999999C1075.4166666666667,110.39999999999999,1077.8333333333333,110.39999999999999,1080.25,110.39999999999999C1082.6666666666667,110.39999999999999,1085.0833333333333,110.39999999999999,1087.5,110.39999999999999C1089.9166666666667,110.39999999999999,1092.3333333333333,110.39999999999999,1094.75,110.39999999999999C1097.1666666666667,110.39999999999999,1099.5833333333333,110.39999999999999,1102,110.39999999999999C1104.4166666666667,110.39999999999999,1106.8333333333333,110.39999999999999,1109.25,110.39999999999999C1111.6666666666667,110.39999999999999,1114.0833333333333,110.39999999999999,1116.5,110.39999999999999C1118.9166666666667,110.39999999999999,1121.3333333333333,110.39999999999999,1123.75,110.39999999999999C1126.1666666666667,110.39999999999999,1128.5833333333333,110.39999999999999,1131,110.39999999999999C1133.4166666666667,110.39999999999999,1135.8333333333333,110.39999999999999,1138.25,110.39999999999999C1140.6666666666667,110.39999999999999,1143.0833333333333,110.39999999999999,1145.5,110.39999999999999C1147.9166666666667,110.39999999999999,1150.3333333333333,110.39999999999999,1152.75,110.39999999999999C1155.1666666666667,110.39999999999999,1157.5833333333333,110.39999999999999,1160,110.39999999999999C1162.4166666666667,110.39999999999999,1164.8333333333333,110.39999999999999,1167.25,110.39999999999999C1169.6666666666667,110.39999999999999,1172.0833333333333,110.39999999999999,1174.5,110.39999999999999C1176.9166666666667,110.39999999999999,1179.3333333333333,110.39999999999999,1181.75,110.39999999999999C1184.1666666666667,110.39999999999999,1186.5833333333333,110.39999999999999,1189,110.39999999999999C1191.4166666666667,110.39999999999999,1193.8333333333333,110.39999999999999,1196.25,110.39999999999999C1198.6666666666667,110.39999999999999,1201.0833333333333,110.39999999999999,1203.5,110.39999999999999C1205.9166666666667,110.39999999999999,1208.3333333333333,110.39999999999999,1210.75,110.39999999999999C1213.1666666666667,110.39999999999999,1215.5833333333333,110.39999999999999,1218,110.39999999999999C1220.4166666666667,110.39999999999999,1222.8333333333333,110.39999999999999,1225.25,110.39999999999999C1227.6666666666667,110.39999999999999,1230.0833333333333,110.39999999999999,1232.5,110.39999999999999C1234.9166666666667,110.39999999999999,1237.3333333333333,110.39999999999999,1239.75,110.39999999999999C1242.1666666666667,110.39999999999999,1244.5833333333333,110.39999999999999,1247,110.39999999999999C1249.4166666666667,110.39999999999999,1251.8333333333333,110.39999999999999,1254.25,110.39999999999999C1256.6666666666667,110.39999999999999,1259.0833333333333,110.39999999999999,1261.5,110.39999999999999C1263.9166666666667,110.39999999999999,1266.3333333333333,110.39999999999999,1268.75,110.39999999999999C1271.1666666666667,110.39999999999999,1273.5833333333333,110.39999999999999,1276,110.39999999999999C1278.4166666666667,110.39999999999999,1280.8333333333333,110.39999999999999,1283.25,110.39999999999999C1285.6666666666667,110.39999999999999,1288.0833333333333,110.39999999999999,1290.5,110.39999999999999C1292.9166666666667,110.39999999999999,1295.3333333333333,110.39999999999999,1297.75,110.39999999999999C1300.1666666666667,110.39999999999999,1302.5833333333333,110.39999999999999,1305,110.39999999999999C1307.4166666666667,110.39999999999999,1309.8333333333333,110.39999999999999,1312.25,110.39999999999999C1314.6666666666667,110.39999999999999,1317.0833333333333,110.39999999999999,1319.5,110.39999999999999C1321.9166666666667,110.39999999999999,1324.3333333333333,110.39999999999999,1326.75,110.39999999999999C1329.1666666666667,110.39999999999999,1331.5833333333333,110.39999999999999,1334,110.39999999999999C1336.4166666666667,110.39999999999999,1338.8333333333333,110.39999999999999,1341.25,110.39999999999999C1343.6666666666667,110.39999999999999,1346.0833333333333,110.39999999999999,1348.5,110.39999999999999C1350.9166666666667,110.39999999999999,1353.3333333333333,110.39999999999999,1355.75,110.39999999999999C1358.1666666666667,110.39999999999999,1360.5833333333333,110.39999999999999,1363,110.39999999999999C1365.4166666666667,110.39999999999999,1367.8333333333333,110.39999999999999,1370.25,110.39999999999999C1372.6666666666667,110.39999999999999,1375.0833333333333,110.39999999999999,1377.5,110.39999999999999C1379.9166666666667,110.39999999999999,1382.3333333333333,110.39999999999999,1384.75,110.39999999999999C1387.1666666666667,110.39999999999999,1389.5833333333333,110.39999999999999,1392,110.39999999999999C1394.4166666666667,110.39999999999999,1396.8333333333333,110.39999999999999,1399.25,110.39999999999999C1401.6666666666667,110.39999999999999,1404.0833333333333,110.39999999999999,1406.5,110.39999999999999C1408.9166666666667,110.39999999999999,1411.3333333333333,110.39999999999999,1413.75,110.39999999999999C1416.1666666666667,110.39999999999999,1418.5833333333333,110.39999999999999,1421,110.39999999999999C1423.4166666666667,110.39999999999999,1425.8333333333333,110.39999999999999,1428.25,110.39999999999999C1430.6666666666667,110.39999999999999,1433.0833333333333,110.39999999999999,1435.5,110.39999999999999C1437.9166666666667,110.39999999999999,1440.3333333333333,110.39999999999999,1442.75,110.39999999999999C1445.1666666666667,110.39999999999999,1447.5833333333333,110.39999999999999,1450,110.39999999999999" fill="transparent" stroke-linecap="round" stroke="#E7C6DF" stroke-width="2"></path><g class="visx-group visx-axis visx-axis-bottom" transform="translate(0, 115)"><g class="visx-group visx-axis-tick" transform="translate(0, 0)"><line class="visx-line" x1="0" y1="0" x2="0" y2="8" fill="transparent" shape-rendering="crispEdges" stroke="#000" stroke-width="0" stroke-linecap="square"></line><svg x="0" y="0" font-size="10" style="overflow:visible"><text transform="" x="0" y="18" fill="#000" font-size="10" text-anchor="middle"><tspan x="0" dy="0em">0%</tspan></text></svg></g><g class="visx-group visx-axis-tick" transform="translate(0, 0)"><line class="visx-line" x1="362.5" y1="0" x2="362.5" y2="8" fill="transparent" shape-rendering="crispEdges" stroke="#000" stroke-width="0" stroke-linecap="square"></line><svg x="0" y="0" font-size="10" style="overflow:visible"><text transform="" x="362.5" y="18" fill="#000" font-size="10" text-anchor="middle"><tspan x="362.5" dy="0em">25%</tspan></text></svg></g><g class="visx-group visx-axis-tick" transform="translate(0, 0)"><line class="visx-line" x1="725" y1="0" x2="725" y2="8" fill="transparent" shape-rendering="crispEdges" stroke="#000" stroke-width="0" stroke-linecap="square"></line><svg x="0" y="0" font-size="10" style="overflow:visible"><text transform="" x="725" y="18" fill="#000" font-size="10" text-anchor="middle"><tspan x="725" dy="0em">50%</tspan></text></svg></g><g class="visx-group visx-axis-tick" transform="translate(0, 0)"><line class="visx-line" x1="1087.5" y1="0" x2="1087.5" y2="8" fill="transparent" shape-rendering="crispEdges" stroke="#000" stroke-width="0" stroke-linecap="square"></line><svg x="0" y="0" font-size="10" style="overflow:visible"><text transform="" x="1087.5" y="18" fill="#000" font-size="10" text-anchor="middle"><tspan x="1087.5" dy="0em">75%</tspan></text></svg></g><g class="visx-group visx-axis-tick" transform="translate(0, 0)"><line class="visx-line" x1="1450" y1="0" x2="1450" y2="8" fill="transparent" shape-rendering="crispEdges" stroke="#000" stroke-width="0" stroke-linecap="square"></line><svg x="0" y="0" font-size="10" style="overflow:visible"><text transform="" x="1450" y="18" fill="#000" font-size="10" text-anchor="middle"><tspan x="1450" dy="0em">100%</tspan></text></svg></g><line class="visx-line visx-axis-line" x1="0.5" y1="0" x2="1450.5" y2="0" fill="transparent" shape-rendering="crispEdges" stroke="#222" stroke-width="0"></line></g><g class="visx-group visx-axis visx-axis-left" transform="translate(0, 0)"><g class="visx-group visx-axis-tick" transform="translate(0, 0)"><line class="visx-line" x1="0" y1="115" x2="-8" y2="115" fill="transparent" shape-rendering="crispEdges" stroke="#222" stroke-width="0" stroke-linecap="square"></line><svg x="-30" y="0" font-size="8" style="overflow:visible"><text transform="" x="-8" y="115" fill="#000" font-size="8" text-anchor="start"><tspan x="-8" dy="0em">0%</tspan></text></svg></g><g class="visx-group visx-axis-tick" transform="translate(0, 0)"><line class="visx-line" x1="0" y1="57.5" x2="-8" y2="57.5" fill="transparent" shape-rendering="crispEdges" stroke="#222" stroke-width="0" stroke-linecap="square"></line><svg x="-30" y="0" font-size="8" style="overflow:visible"><text transform="" x="-8" y="57.5" fill="#000" font-size="8" text-anchor="start"><tspan x="-8" dy="0em">50%</tspan></text></svg></g><g class="visx-group visx-axis-tick" transform="translate(0, 0)"><line class="visx-line" x1="0" y1="0" x2="-8" y2="0" fill="transparent" shape-rendering="crispEdges" stroke="#222" stroke-width="0" stroke-linecap="square"></line><svg x="-30" y="0" font-size="8" style="overflow:visible"><text transform="" x="-8" y="0" fill="#000" font-size="8" text-anchor="start"><tspan x="-8" dy="0em">100%</tspan></text></svg></g><line class="visx-line visx-axis-line" x1="0" y1="115.5" x2="0" y2="0.5" fill="transparent" shape-rendering="crispEdges" stroke="#222" stroke-width="0"></line></g><rect class="visx-bar" width="1450" height="115" fill="transparent"></rect><line class="visx-line" x1="1160" y1="28" x2="1160" y2="115" fill="transparent" shape-rendering="crispEdges" stroke="#0062D2" stroke-width="1" pointer-events="none" stroke-dasharray="5,2"></line><svg x="0" y="0" font-size="10px" style="overflow:visible"><text transform="" x="1160" y="20" font-size="10px" fill="#fff" stroke="#fff" stroke-width="0.8em" text-anchor="middle"><tspan x="1160" dy="0.355em">Optimal 80%</tspan></text></svg><svg x="0" y="0" font-size="10px" style="overflow:visible"><text transform="" x="1160" y="20" font-size="10px" fill="#62677B" text-anchor="middle"><tspan x="1160" dy="0.355em">Optimal 80%</tspan></text></svg></g></svg>