<?xml version="1.0"?><svg xmlns="http://www.w3.org/2000/svg" xmlns:xlink= "http://www.w3.org/1999/xlink" style="background: white;" width="1500" height="185"> <g style="color: black; font-size: 13px; font-family: sans-serif; transform: translate(18px, 25px);"><g><circle r="3" cx="-6" cy="-5" style="fill: #B6509E" /><text>Borrow APR, variable</text></g><g style="transform: translateX(150px);"><circle r="3" cx="-6" cy="-5" style="fill: rgb(231, 198, 223)" /><text>Borrow APR, stable</text></g><g style="transform: translateX(290px);"><circle r="3" cx="-6" cy="-5" style="fill: rgb(0, 98, 210)" /><text>Utilization Rate</text></g></g><g class="visx-group" transform="translate(40, 50)"><g class="visx-group visx-rows" transform="translate(0, 0)"><line class="visx-line" x1="0" y1="115" x2="1450" y2="115" fill="transparent" shape-rendering="crispEdges" stroke="#000" stroke-width="1" stroke-dasharray="3,3" pointer-events="none"></line><line class="visx-line" x1="0" y1="79.61538461538461" x2="1450" y2="79.61538461538461" fill="transparent" shape-rendering="crispEdges" stroke="#000" stroke-width="1" stroke-dasharray="3,3" pointer-events="none"></line><line class="visx-line" x1="0" y1="44.230769230769226" x2="1450" y2="44.230769230769226" fill="transparent" shape-rendering="crispEdges" stroke="#000" stroke-width="1" stroke-dasharray="3,3" pointer-events="none"></line><line class="visx-line" x1="0" y1="8.84615384615384" x2="1450" y2="8.84615384615384" fill="transparent" shape-rendering="crispEdges" stroke="#000" stroke-width="1" stroke-dasharray="3,3" pointer-events="none"></line></g><path class="visx-linepath" d="M0,97.30769230685816C2.4166666666666665,97.16866750602286,4.833333333333334,97.02964270518754,7.25,96.89061790414371C9.666666666666666,96.75159310309988,12.083333333333334,96.612568301778,14.5,96.47354350059514C16.916666666666668,96.33451869941229,19.333333333333332,96.1954938982294,21.75,96.05646909704654C24.166666666666668,95.91744429586369,26.583333333333332,95.77841949468082,29,95.63939469349796C31.416666666666668,95.5003698923151,33.833333333333336,95.36134509113224,36.25,95.22232028994938C38.666666666666664,95.08329548876652,41.083333333333336,94.94427068758365,43.5,94.8052458864008C45.91666666666667,94.66622108521793,48.333333333333336,94.52719628403507,50.75000000000001,94.3881714828522C53.16666666666667,94.24914668166934,55.583333333333336,94.11012188048647,58,93.97109707930362C60.416666666666664,93.83207227812076,62.833333333333336,93.69304747693789,65.25,93.55402267575504C67.66666666666667,93.41499787457218,70.08333333333333,93.2759730733893,72.5,93.13694827220644C74.91666666666667,92.99792347102358,77.33333333333333,92.85889866984071,79.75,92.71987386865786C82.16666666666667,92.580849067475,84.58333333333333,92.44182426629213,87,92.30279946510927C89.41666666666667,92.16377466392642,91.83333333333333,92.02474986274355,94.25,91.88572506156069C96.66666666666667,91.74670026037782,99.08333333333334,91.60767545919497,101.50000000000001,91.4686506580121C103.91666666666667,91.32962585682924,106.33333333333334,91.19060105564637,108.75,91.05157625446351C111.16666666666667,90.91255145328066,113.58333333333333,90.77352665209779,116,90.63450185091493C118.41666666666667,90.49547704973206,120.83333333333334,90.3564522485492,123.25000000000001,90.21742744736633C125.66666666666667,90.07840264618348,128.08333333333334,89.9393778450006,130.5,89.80035304381775C132.91666666666666,89.6613282426349,135.33333333333334,89.52230344145202,137.75,89.38327864026917C140.16666666666666,89.24425383908631,142.58333333333334,89.10522903790344,145,88.96620423672059C147.41666666666666,88.82717943553773,149.83333333333334,88.68815463435485,152.25,88.54912983317199C154.66666666666666,88.41010503198913,157.08333333333334,88.27108023080626,159.5,88.1320554296234C161.91666666666666,87.99303062844055,164.33333333333334,87.85400582725768,166.75,87.71498102607482C169.16666666666666,87.57595622489197,171.58333333333334,87.43693142370908,174,87.29790662252623C176.41666666666666,87.15888182134337,178.83333333333334,87.01985702016052,181.25,86.88083221897766C183.66666666666666,86.7418074177948,186.08333333333334,86.60278261661192,188.5,86.46375781542906C190.91666666666666,86.3247330142462,193.33333333333334,86.18570821306334,195.75,86.04668341188048C198.16666666666669,85.90765861069762,200.58333333333334,85.76863380951477,203.00000000000003,85.6296090083319C205.41666666666669,85.49058420714904,207.83333333333331,85.35155940596616,210.24999999999997,85.2125346047833C212.66666666666666,85.07350980360043,215.08333333333331,84.93448500241759,217.5,84.79546020123472C219.91666666666666,84.65643540005186,222.33333333333334,84.51741059886898,224.75,84.37838579768612C227.16666666666666,84.23936099650327,229.58333333333334,84.1003361953204,232,83.96131139413754C234.41666666666666,83.82228659295468,236.83333333333334,83.68326179177181,239.25,83.54423699058896C241.66666666666669,83.4052121894061,244.08333333333334,83.26618738822326,246.50000000000003,83.12716258704039C248.91666666666669,82.98813778585753,251.33333333333331,82.84911298467465,253.74999999999997,82.71008818349178C256.16666666666663,82.5710633823089,258.5833333333333,82.43203858112605,261,82.2930137799432C263.4166666666667,82.15398897876034,265.8333333333333,82.01496417757748,268.25,81.87593937639463C270.6666666666667,81.73691457521177,273.0833333333333,81.59788977402889,275.5,81.45886497284603C277.9166666666667,81.31984017166317,280.3333333333333,81.1808153704803,282.75,81.04179056929745C285.1666666666667,80.90276576811459,287.5833333333333,80.7637409669317,290,80.62471616574885C292.4166666666667,80.485691364566,294.8333333333333,80.34666656338312,297.25,80.20764176220027C299.6666666666667,80.06861696101741,302.0833333333333,79.92959215983454,304.5,79.79056735865169C306.9166666666667,79.65154255746883,309.3333333333333,79.51251775628596,311.75,79.3734929551031C314.1666666666667,79.23446815392025,316.5833333333333,79.09544335273736,319,78.9564185515545C321.4166666666667,78.81739375037165,323.8333333333333,78.67836894918878,326.25,78.53934414800592C328.6666666666667,78.40031934682307,331.0833333333333,78.26129454564021,333.5,78.12226974445736C335.9166666666667,77.9832449432745,338.3333333333333,77.84422014209161,340.75,77.70519534090874C343.1666666666667,77.56617053972587,345.5833333333333,77.42714573854302,348,77.28812093736016C350.4166666666667,77.1490961361773,352.8333333333333,77.01007133499444,355.25,76.87104653381158C357.6666666666667,76.73202173262872,360.0833333333333,76.59299693144585,362.5,76.453972130263C364.9166666666667,76.31494732908014,367.3333333333333,76.17592252789727,369.75,76.03689772671441C372.1666666666667,75.89787292553156,374.5833333333333,75.75884812434867,377,75.61982332316582C379.4166666666667,75.48079852198296,381.8333333333333,75.34177372080009,384.25,75.20274891961724C386.6666666666667,75.06372411843438,389.0833333333333,74.9246993172515,391.5,74.78567451606864C393.9166666666667,74.64664971488577,396.33333333333337,74.50762491370291,398.75000000000006,74.36860011252006C401.16666666666674,74.2295753113372,403.58333333333337,74.09055051015433,406.00000000000006,73.95152570897147C408.4166666666667,73.81250090778862,410.8333333333333,73.67347610660575,413.24999999999994,73.53445130542289C415.66666666666663,73.39542650424004,418.08333333333326,73.25640170305716,420.49999999999994,73.11737690187431C422.91666666666663,72.97835210069144,425.3333333333333,72.83932729950858,427.75,72.70030249832571C430.1666666666667,72.56127769714286,432.5833333333333,72.42225289595999,435,72.28322809477713C437.4166666666667,72.14420329359427,439.8333333333333,72.00517849241139,442.25,71.86615369122853C444.6666666666667,71.72712889004568,447.0833333333333,71.58810408886282,449.5,71.44907928767996C451.9166666666667,71.31005448649711,454.3333333333333,71.17102968531422,456.75,71.03200488413137C459.1666666666667,70.89298008294851,461.5833333333333,70.75395528176564,464,70.61493048058279C466.4166666666667,70.47590567939993,468.8333333333333,70.33688087821706,471.25,70.1978560770342C473.6666666666667,70.05883127585135,476.0833333333333,69.91980647466846,478.5,69.7807816734856C480.9166666666667,69.64175687230274,483.33333333333337,69.50273207111988,485.75000000000006,69.36370726993702C488.16666666666674,69.22468246875417,490.58333333333337,69.0856576675713,493.00000000000006,68.94663286638844C495.4166666666667,68.80760806520559,497.8333333333333,68.66858326402271,500.24999999999994,68.52955846283986C502.66666666666663,68.39053366165699,505.08333333333326,68.25150886047412,507.49999999999994,68.11248405929126C509.91666666666663,67.97345925810839,512.3333333333333,67.83443445692555,514.75,67.69540965574268C517.1666666666666,67.55638485455982,519.5833333333334,67.41736005337694,522,67.27833525219408C524.4166666666666,67.13931045101123,526.8333333333334,67.00028564982836,529.25,66.8612608486455C531.6666666666666,66.72223604746264,534.0833333333334,66.58321124627979,536.5,66.44418644509693C538.9166666666666,66.30516164391408,541.3333333333334,66.16613684273119,543.75,66.02711204154834C546.1666666666666,65.88808724036548,548.5833333333334,65.74906243918261,551,65.61003763799975C553.4166666666666,65.4710128368169,555.8333333333334,65.33198803563403,558.25,65.19296323445117C560.6666666666666,65.05393843326831,563.0833333333334,64.91491363208543,565.5,64.77588883090257C567.9166666666666,64.63686402971972,570.3333333333334,64.49783922853685,572.75,64.35881442735399C575.1666666666666,64.21978962617113,577.5833333333334,64.08076482498826,580,63.9417400238054C582.4166666666666,63.80271522262254,584.8333333333334,63.663690421439675,587.25,63.52466562025681C589.6666666666666,63.38564081907395,592.0833333333334,63.2466160178911,594.5,63.10759121670824C596.9166666666666,62.96856641552537,599.3333333333334,62.82954161434252,601.75,62.690516813159654C604.1666666666666,62.55149201197679,606.5833333333334,62.41246721079391,609,62.27344240961105C611.4166666666666,62.13441760842819,613.8333333333334,61.99539280724534,616.25,61.856368006062475C618.6666666666666,61.71734320487961,621.0833333333334,61.57831840369675,623.5,61.439293602513885C625.9166666666666,61.30026880133102,628.3333333333334,61.16124400014816,630.75,61.022219198965296C633.1666666666666,60.88319439778243,635.5833333333334,60.74416959659958,638,60.60514479541672C640.4166666666666,60.46611999423386,642.8333333333334,60.327095193050994,645.25,60.18807039186813C647.6666666666666,60.04904559068527,650.0833333333334,59.910020789502404,652.5,59.77099598831954C654.9166666666666,59.63197118713668,657.3333333333334,59.49294638595382,659.75,59.35392158477096C662.1666666666666,59.214896783588095,664.5833333333334,59.07587198240522,667,58.936847181222355C669.4166666666666,58.79782238003949,671.8333333333334,58.658797578856635,674.25,58.51977277767378C676.6666666666666,58.38074797649092,679.0833333333334,58.24172317530806,681.5,58.102698374125204C683.9166666666666,57.96367357294235,686.3333333333334,57.82464877175949,688.75,57.68562397057663C691.1666666666666,57.546599169393765,693.5833333333334,57.40757436821089,696,57.268549567028025C698.4166666666666,57.12952476584516,700.8333333333334,56.9904999646623,703.25,56.851475163479435C705.6666666666666,56.71245036229657,708.0833333333334,56.573425561113716,710.5,56.43440075993085C712.9166666666666,56.29537595874799,715.3333333333334,56.156351157565126,717.75,56.01732635638226C720.1666666666666,55.8783015551994,722.5833333333334,55.73927675401655,725,55.60025195283369C727.4166666666666,55.461227151650824,729.8333333333334,55.32220235046795,732.25,55.183177549285084C734.6666666666666,55.04415274810222,737.0833333333334,54.90512794691937,739.5,54.76610314573651C741.9166666666666,54.627078344553645,744.3333333333334,54.48805354337078,746.75,54.34902874218792C749.1666666666666,54.210003941005056,751.5833333333334,54.07097913982219,754,53.93195433863933C756.4166666666666,53.792929537456466,758.8333333333334,53.65390473627361,761.25,53.51487993509075C763.6666666666666,53.37585513390788,766.0833333333334,53.23683033272502,768.5,53.09780553154216C770.9166666666666,52.958780730359294,773.3333333333334,52.819755929176445,775.75,52.68073112799358C778.1666666666666,52.54170632681072,780.5833333333334,52.40268152562784,783,52.26365672444498C785.4166666666667,52.124631923262115,787.8333333333334,51.985607122079266,790.2500000000001,51.8465823208964C792.6666666666667,51.70755751971354,795.0833333333335,51.568532718530676,797.5000000000001,51.42950791734781C799.9166666666667,51.29048311616495,802.3333333333335,51.15145831498209,804.7500000000001,51.01243351379922C807.1666666666667,50.87340871261636,809.5833333333335,50.734383911433504,812.0000000000001,50.59535911025064C814.4166666666667,50.45633430906778,816.8333333333333,50.31730950788491,819.2499999999999,50.17828470670205C821.6666666666665,50.03925990551919,824.0833333333333,49.90023510433634,826.4999999999999,49.761210303153476C828.9166666666665,49.62218550197061,831.3333333333333,49.48316070078775,833.7499999999999,49.344135899604886C836.1666666666665,49.20511109842202,838.5833333333333,49.06608629723916,840.9999999999999,48.9270614960563C843.4166666666666,48.78803669487343,845.8333333333333,48.64901189369057,848.25,48.50998709250771C850.6666666666666,48.370962291324844,853.0833333333334,48.23193749014199,855.5,48.092912688959125C857.9166666666666,47.95388788777626,860.3333333333334,47.8148630865934,862.75,47.675838285410535C865.1666666666666,47.53681348422767,867.5833333333334,47.39778868304481,870,47.258763881861945C872.4166666666666,47.11973908067908,874.8333333333334,46.98071427949623,877.25,46.84168947831337C879.6666666666666,46.70266467713051,882.0833333333334,46.56363987594764,884.5,46.42461507476478C886.9166666666666,46.28559027358192,889.3333333333334,46.14656547239907,891.75,46.007540671216205C894.1666666666666,45.86851587003334,896.5833333333334,45.729491068850464,899,45.5904662676676C901.4166666666666,45.45144146648474,903.8333333333334,45.31241666530189,906.25,45.173391864119026C908.6666666666666,45.03436706293616,911.0833333333334,44.89534226175329,913.5,44.75631746057043C915.9166666666666,44.617292659387566,918.3333333333334,44.4782678582047,920.75,44.33924305702184C923.1666666666666,44.200218255838976,925.5833333333334,44.06119345465613,928,43.922168653473264C930.4166666666666,43.7831438522904,932.8333333333334,43.64411905110754,935.25,43.505094249924674C937.6666666666666,43.36606944874181,940.0833333333334,43.22704464755896,942.5,43.0880198463761C944.9166666666666,42.948995045193236,947.3333333333334,42.80997024401037,949.75,42.67094544282751C952.1666666666666,42.531920641644646,954.5833333333334,42.39289584046178,957,42.25387103927892C959.4166666666666,42.11484623809606,961.8333333333334,41.975821436913186,964.25,41.83679663573032C966.6666666666667,41.69777183454746,969.0833333333334,41.5587470333646,971.5000000000001,41.41972223218173C973.9166666666667,41.28069743099887,976.3333333333335,41.14167262981601,978.7500000000001,41.002647828633144C981.1666666666667,40.86362302745028,983.5833333333335,40.724598226267425,986.0000000000001,40.58557342508457C988.4166666666667,40.44654862390171,990.8333333333335,40.307523822718856,993.2500000000001,40.16849902153599C995.6666666666667,40.02947422035314,998.0833333333333,39.89044941917027,1000.4999999999999,39.751424617987404C1002.9166666666665,39.61239981680454,1005.3333333333333,39.473375015621684,1007.7499999999999,39.33435021443882C1010.1666666666665,39.19532541325596,1012.5833333333333,39.05630061207309,1014.9999999999999,38.917275810890224C1017.4166666666665,38.77825100970736,1019.8333333333333,38.63922620852449,1022.2499999999999,38.50020140734163C1024.6666666666665,38.361176606158764,1027.0833333333333,38.22215180497591,1029.5,38.08312700379305C1031.9166666666667,37.944102202610196,1034.3333333333333,37.80507740142734,1036.75,37.66605260024448C1039.1666666666667,37.527027799061614,1041.5833333333333,37.388002997878736,1044,37.24897819669587C1046.4166666666667,37.10995339551301,1048.8333333333333,36.97092859433016,1051.25,36.8319037931473C1053.6666666666667,36.692878991964434,1056.0833333333333,36.55385419078158,1058.5,36.414829389598715C1060.9166666666667,36.27580458841585,1063.3333333333333,36.13677978723298,1065.75,35.99775498605012C1068.1666666666667,35.858730184867255,1070.5833333333333,35.7197053836844,1073,35.580680582501536C1075.4166666666667,35.44165578131867,1077.8333333333333,35.30263098013581,1080.25,35.163606178952946C1082.6666666666667,35.02458137777008,1085.0833333333333,34.88555657658722,1087.5,34.74653177540436C1089.9166666666667,34.607506974221494,1092.3333333333333,34.46848217303863,1094.75,34.32945737185577C1097.1666666666667,34.190432570672904,1099.5833333333333,34.05140776949005,1102,33.91238296830719C1104.4166666666667,33.773358167124336,1106.8333333333333,33.63433336594148,1109.25,33.495308564758616C1111.6666666666667,33.35628376357575,1114.0833333333333,33.21725896239288,1116.5,33.07823416121002C1118.9166666666667,32.93920936002716,1121.3333333333333,32.80018455884431,1123.75,32.661159757661444C1126.1666666666667,32.52213495647858,1128.5833333333333,32.383110155295704,1131,32.24408535411284C1133.4166666666667,32.10506055292998,1135.8333333333333,31.96603575174711,1138.25,31.82701095056425C1140.6666666666667,31.68798614938139,1143.0833333333333,31.54896134819854,1145.5,31.409936547015676C1147.9166666666667,31.270911745832812,1150.3333333333333,31.131886944649935,1152.75,30.99286214346707C1155.1666666666667,30.85383734228421,1157.5833333333333,30.714812541101356,1160,30.575787739918496C1162.4166666666667,30.436762938735637,1164.8333333333333,30.297738137552777,1167.25,30.158713336369917C1169.6666666666667,30.019688535187058,1172.0833333333333,29.8806637340042,1174.5,29.74163893282134C1176.9166666666667,29.602614131638475,1179.3333333333333,29.463589330455605,1181.75,29.324564529272738C1184.1666666666667,29.18553972808987,1186.5833333333333,29.046514926907008,1189,28.907490125724145C1191.4166666666667,28.768465324541282,1193.8333333333333,28.629440523358433,1196.25,28.49041572217557C1198.6666666666667,28.351390920992706,1201.0833333333333,28.21236611980983,1203.5,28.073341318626966C1205.9166666666667,27.934316517444103,1208.3333333333333,27.79529171626125,1210.75,27.65626691507839C1213.1666666666667,27.51724211389553,1215.5833333333333,27.37821731271267,1218,27.23919251152981C1220.4166666666667,27.100167710346952,1222.8333333333333,26.961142909164096,1225.25,26.822118107981233C1227.6666666666667,26.68309330679837,1230.0833333333333,26.544068505615506,1232.5,26.405043704432643C1234.9166666666667,26.26601890324978,1237.3333333333333,26.126994102066917,1239.75,25.987969300884053C1242.1666666666667,25.84894449970119,1244.5833333333333,25.709919698518327,1247,25.570894897335464C1249.4166666666667,25.4318700961526,1251.8333333333333,25.292845294969737,1254.25,25.153820493786874C1256.6666666666667,25.01479569260401,1259.0833333333333,24.87577089142116,1261.5,24.736746090238295C1263.9166666666667,24.597721289055432,1266.3333333333333,24.458696487872558,1268.75,24.319671686689695C1271.1666666666667,24.18064688550683,1273.5833333333333,24.041622084323976,1276,23.902597283141116C1278.4166666666667,23.763572481958256,1280.8333333333333,23.624547680775397,1283.25,23.485522879592537C1285.6666666666667,23.346498078409677,1288.0833333333333,23.207473277226825,1290.5,23.06844847604396C1292.9166666666667,22.9294236748611,1295.3333333333333,22.790398873678225,1297.75,22.651374072495358C1300.1666666666667,22.51234927131249,1302.5833333333333,22.37332447012963,1305,22.23429966894677C1307.4166666666667,22.095274867763905,1309.8333333333333,21.956250066581052,1312.25,21.81722526539819C1314.6666666666667,21.678200464215326,1317.0833333333333,21.539175663032452,1319.5,21.40015086184959C1321.9166666666667,21.261126060666726,1324.3333333333333,21.12210125948387,1326.75,20.98307645830101C1329.1666666666667,20.84405165711815,1331.5833333333333,20.705026855935294,1334,20.566002054752435C1336.4166666666667,20.426977253569575,1338.8333333333333,20.28795245238672,1341.25,20.148927651203856C1343.6666666666667,20.009902850020993,1346.0833333333333,19.870878048838133,1348.5,19.731853247655266C1350.9166666666667,19.5928284464724,1353.3333333333333,19.453803645289526,1355.75,19.314778844106662C1358.1666666666667,19.1757540429238,1360.5833333333333,19.03672924174095,1363,18.897704440558087C1365.4166666666667,18.758679639375224,1367.8333333333333,18.619654838192357,1370.25,18.480630037009494C1372.6666666666667,18.34160523582663,1375.0833333333333,18.063555633460904,1377.5,18.063555633460904C1379.9166666666667,18.063555633460904,1382.3333333333333,18.063555633460904,1384.75,18.063555633460904C1387.1666666666667,18.063555633460904,1389.5833333333333,18.063555633460904,1392,18.063555633460904C1394.4166666666667,18.063555633460904,1396.8333333333333,18.063555633460904,1399.25,18.063555633460904C1401.6666666666667,18.063555633460904,1404.0833333333333,18.063555633460904,1406.5,18.063555633460904C1408.9166666666667,18.063555633460904,1411.3333333333333,18.063555633460904,1413.75,18.063555633460904C1416.1666666666667,18.063555633460904,1418.5833333333333,18.063555633460904,1421,18.063555633460904C1423.4166666666667,18.063555633460904,1425.8333333333333,18.063555633460904,1428.25,18.063555633460904C1430.6666666666667,18.063555633460904,1433.0833333333333,18.063555633460904,1435.5,18.063555633460904C1437.9166666666667,18.063555633460904,1440.3333333333333,18.063555633460904,1442.75,18.063555633460904C1445.1666666666667,18.063555633460904,1447.5833333333333,18.063555633460904,1450,18.063555633460904" fill="transparent" stroke-linecap="round" stroke="#B6509E" stroke-width="2"></path><path class="visx-linepath" d="M0,35.7558633257686C2.4166666666666665,35.7558633257686,4.833333333333334,35.7558633257686,7.25,35.7558633257686C9.666666666666666,35.7558633257686,12.083333333333334,35.7558633257686,14.5,35.7558633257686C16.916666666666668,35.7558633257686,19.333333333333332,35.7558633257686,21.75,35.7558633257686C24.166666666666668,35.7558633257686,26.583333333333332,35.7558633257686,29,35.7558633257686C31.416666666666668,35.7558633257686,33.833333333333336,35.7558633257686,36.25,35.7558633257686C38.666666666666664,35.7558633257686,41.083333333333336,35.7558633257686,43.5,35.7558633257686C45.91666666666667,35.7558633257686,48.333333333333336,35.7558633257686,50.75000000000001,35.7558633257686C53.16666666666667,35.7558633257686,55.583333333333336,35.7558633257686,58,35.7558633257686C60.416666666666664,35.7558633257686,62.833333333333336,35.7558633257686,65.25,35.7558633257686C67.66666666666667,35.7558633257686,70.08333333333333,35.7558633257686,72.5,35.7558633257686C74.91666666666667,35.7558633257686,77.33333333333333,35.7558633257686,79.75,35.7558633257686C82.16666666666667,35.7558633257686,84.58333333333333,35.7558633257686,87,35.7558633257686C89.41666666666667,35.7558633257686,91.83333333333333,35.7558633257686,94.25,35.7558633257686C96.66666666666667,35.7558633257686,99.08333333333334,35.7558633257686,101.50000000000001,35.7558633257686C103.91666666666667,35.7558633257686,106.33333333333334,35.7558633257686,108.75,35.7558633257686C111.16666666666667,35.7558633257686,113.58333333333333,35.7558633257686,116,35.7558633257686C118.41666666666667,35.7558633257686,120.83333333333334,35.7558633257686,123.25000000000001,35.7558633257686C125.66666666666667,35.7558633257686,128.08333333333334,35.7558633257686,130.5,35.7558633257686C132.91666666666666,35.7558633257686,135.33333333333334,35.7558633257686,137.75,35.7558633257686C140.16666666666666,35.7558633257686,142.58333333333334,35.7558633257686,145,35.7558633257686C147.41666666666666,35.7558633257686,149.83333333333334,35.7558633257686,152.25,35.7558633257686C154.66666666666666,35.7558633257686,157.08333333333334,35.7558633257686,159.5,35.7558633257686C161.91666666666666,35.7558633257686,164.33333333333334,35.7558633257686,166.75,35.7558633257686C169.16666666666666,35.7558633257686,171.58333333333334,35.7558633257686,174,35.7558633257686C176.41666666666666,35.7558633257686,178.83333333333334,35.7558633257686,181.25,35.7558633257686C183.66666666666666,35.7558633257686,186.08333333333334,35.7558633257686,188.5,35.7558633257686C190.91666666666666,35.7558633257686,193.33333333333334,35.7558633257686,195.75,35.7558633257686C198.16666666666669,35.7558633257686,200.58333333333334,35.7558633257686,203.00000000000003,35.7558633257686C205.41666666666669,35.7558633257686,207.83333333333331,35.7558633257686,210.24999999999997,35.7558633257686C212.66666666666666,35.7558633257686,215.08333333333331,35.7558633257686,217.5,35.7558633257686C219.91666666666666,35.7558633257686,222.33333333333334,35.7558633257686,224.75,35.7558633257686C227.16666666666666,35.7558633257686,229.58333333333334,35.7558633257686,232,35.7558633257686C234.41666666666666,35.7558633257686,236.83333333333334,35.7558633257686,239.25,35.7558633257686C241.66666666666669,35.7558633257686,244.08333333333334,35.7558633257686,246.50000000000003,35.7558633257686C248.91666666666669,35.7558633257686,251.33333333333331,35.7558633257686,253.74999999999997,35.7558633257686C256.16666666666663,35.7558633257686,258.5833333333333,35.7558633257686,261,35.7558633257686C263.4166666666667,35.7558633257686,265.8333333333333,35.7558633257686,268.25,35.7558633257686C270.6666666666667,35.7558633257686,273.0833333333333,35.7558633257686,275.5,35.7558633257686C277.9166666666667,35.7558633257686,280.3333333333333,35.7558633257686,282.75,35.7558633257686C285.1666666666667,35.7558633257686,287.5833333333333,35.7558633257686,290,35.7558633257686C292.4166666666667,35.7558633257686,294.8333333333333,35.7558633257686,297.25,35.7558633257686C299.6666666666667,35.7558633257686,302.0833333333333,35.7558633257686,304.5,35.7558633257686C306.9166666666667,35.7558633257686,309.3333333333333,35.7558633257686,311.75,35.7558633257686C314.1666666666667,35.7558633257686,316.5833333333333,35.7558633257686,319,35.7558633257686C321.4166666666667,35.7558633257686,323.8333333333333,35.7558633257686,326.25,35.7558633257686C328.6666666666667,35.7558633257686,331.0833333333333,35.7558633257686,333.5,35.7558633257686C335.9166666666667,35.7558633257686,338.3333333333333,35.7558633257686,340.75,35.7558633257686C343.1666666666667,35.7558633257686,345.5833333333333,35.7558633257686,348,35.7558633257686C350.4166666666667,35.7558633257686,352.8333333333333,35.7558633257686,355.25,35.7558633257686C357.6666666666667,35.7558633257686,360.0833333333333,35.7558633257686,362.5,35.7558633257686C364.9166666666667,35.7558633257686,367.3333333333333,35.7558633257686,369.75,35.7558633257686C372.1666666666667,35.7558633257686,374.5833333333333,35.7558633257686,377,35.7558633257686C379.4166666666667,35.7558633257686,381.8333333333333,35.7558633257686,384.25,35.7558633257686C386.6666666666667,35.7558633257686,389.0833333333333,35.7558633257686,391.5,35.7558633257686C393.9166666666667,35.7558633257686,396.33333333333337,35.7558633257686,398.75000000000006,35.7558633257686C401.16666666666674,35.7558633257686,403.58333333333337,35.7558633257686,406.00000000000006,35.7558633257686C408.4166666666667,35.7558633257686,410.8333333333333,35.7558633257686,413.24999999999994,35.7558633257686C415.66666666666663,35.7558633257686,418.08333333333326,35.7558633257686,420.49999999999994,35.7558633257686C422.91666666666663,35.7558633257686,425.3333333333333,35.7558633257686,427.75,35.7558633257686C430.1666666666667,35.7558633257686,432.5833333333333,35.7558633257686,435,35.7558633257686C437.4166666666667,35.7558633257686,439.8333333333333,35.7558633257686,442.25,35.7558633257686C444.6666666666667,35.7558633257686,447.0833333333333,35.7558633257686,449.5,35.7558633257686C451.9166666666667,35.7558633257686,454.3333333333333,35.7558633257686,456.75,35.7558633257686C459.1666666666667,35.7558633257686,461.5833333333333,35.7558633257686,464,35.7558633257686C466.4166666666667,35.7558633257686,468.8333333333333,35.7558633257686,471.25,35.7558633257686C473.6666666666667,35.7558633257686,476.0833333333333,35.7558633257686,478.5,35.7558633257686C480.9166666666667,35.7558633257686,483.33333333333337,35.7558633257686,485.75000000000006,35.7558633257686C488.16666666666674,35.7558633257686,490.58333333333337,35.7558633257686,493.00000000000006,35.7558633257686C495.4166666666667,35.7558633257686,497.8333333333333,35.7558633257686,500.24999999999994,35.7558633257686C502.66666666666663,35.7558633257686,505.08333333333326,35.7558633257686,507.49999999999994,35.7558633257686C509.91666666666663,35.7558633257686,512.3333333333333,35.7558633257686,514.75,35.7558633257686C517.1666666666666,35.7558633257686,519.5833333333334,35.7558633257686,522,35.7558633257686C524.4166666666666,35.7558633257686,526.8333333333334,35.7558633257686,529.25,35.7558633257686C531.6666666666666,35.7558633257686,534.0833333333334,35.7558633257686,536.5,35.7558633257686C538.9166666666666,35.7558633257686,541.3333333333334,35.7558633257686,543.75,35.7558633257686C546.1666666666666,35.7558633257686,548.5833333333334,35.7558633257686,551,35.7558633257686C553.4166666666666,35.7558633257686,555.8333333333334,35.7558633257686,558.25,35.7558633257686C560.6666666666666,35.7558633257686,563.0833333333334,35.7558633257686,565.5,35.7558633257686C567.9166666666666,35.7558633257686,570.3333333333334,35.7558633257686,572.75,35.7558633257686C575.1666666666666,35.7558633257686,577.5833333333334,35.7558633257686,580,35.7558633257686C582.4166666666666,35.7558633257686,584.8333333333334,35.7558633257686,587.25,35.7558633257686C589.6666666666666,35.7558633257686,592.0833333333334,35.7558633257686,594.5,35.7558633257686C596.9166666666666,35.7558633257686,599.3333333333334,35.7558633257686,601.75,35.7558633257686C604.1666666666666,35.7558633257686,606.5833333333334,35.7558633257686,609,35.7558633257686C611.4166666666666,35.7558633257686,613.8333333333334,35.7558633257686,616.25,35.7558633257686C618.6666666666666,35.7558633257686,621.0833333333334,35.7558633257686,623.5,35.7558633257686C625.9166666666666,35.7558633257686,628.3333333333334,35.7558633257686,630.75,35.7558633257686C633.1666666666666,35.7558633257686,635.5833333333334,35.7558633257686,638,35.7558633257686C640.4166666666666,35.7558633257686,642.8333333333334,35.7558633257686,645.25,35.7558633257686C647.6666666666666,35.7558633257686,650.0833333333334,35.7558633257686,652.5,35.7558633257686C654.9166666666666,35.7558633257686,657.3333333333334,35.7558633257686,659.75,35.7558633257686C662.1666666666666,35.7558633257686,664.5833333333334,35.7558633257686,667,35.7558633257686C669.4166666666666,35.7558633257686,671.8333333333334,35.7558633257686,674.25,35.7558633257686C676.6666666666666,35.7558633257686,679.0833333333334,35.7558633257686,681.5,35.7558633257686C683.9166666666666,35.7558633257686,686.3333333333334,35.7558633257686,688.75,35.7558633257686C691.1666666666666,35.7558633257686,693.5833333333334,35.7558633257686,696,35.7558633257686C698.4166666666666,35.7558633257686,700.8333333333334,35.7558633257686,703.25,35.7558633257686C705.6666666666666,35.7558633257686,708.0833333333334,35.7558633257686,710.5,35.7558633257686C712.9166666666666,35.7558633257686,715.3333333333334,35.7558633257686,717.75,35.7558633257686C720.1666666666666,35.7558633257686,722.5833333333334,35.7558633257686,725,35.7558633257686C727.4166666666666,35.7558633257686,729.8333333333334,35.7558633257686,732.25,35.7558633257686C734.6666666666666,35.7558633257686,737.0833333333334,35.7558633257686,739.5,35.7558633257686C741.9166666666666,35.7558633257686,744.3333333333334,35.7558633257686,746.75,35.7558633257686C749.1666666666666,35.7558633257686,751.5833333333334,35.7558633257686,754,35.7558633257686C756.4166666666666,35.7558633257686,758.8333333333334,35.7558633257686,761.25,35.7558633257686C763.6666666666666,35.7558633257686,766.0833333333334,35.7558633257686,768.5,35.7558633257686C770.9166666666666,35.7558633257686,773.3333333333334,35.7558633257686,775.75,35.7558633257686C778.1666666666666,35.7558633257686,780.5833333333334,35.7558633257686,783,35.7558633257686C785.4166666666667,35.7558633257686,787.8333333333334,35.7558633257686,790.2500000000001,35.7558633257686C792.6666666666667,35.7558633257686,795.0833333333335,35.7558633257686,797.5000000000001,35.7558633257686C799.9166666666667,35.7558633257686,802.3333333333335,35.7558633257686,804.7500000000001,35.7558633257686C807.1666666666667,35.7558633257686,809.5833333333335,35.7558633257686,812.0000000000001,35.7558633257686C814.4166666666667,35.7558633257686,816.8333333333333,35.7558633257686,819.2499999999999,35.7558633257686C821.6666666666665,35.7558633257686,824.0833333333333,35.7558633257686,826.4999999999999,35.7558633257686C828.9166666666665,35.7558633257686,831.3333333333333,35.7558633257686,833.7499999999999,35.7558633257686C836.1666666666665,35.7558633257686,838.5833333333333,35.7558633257686,840.9999999999999,35.7558633257686C843.4166666666666,35.7558633257686,845.8333333333333,35.7558633257686,848.25,35.7558633257686C850.6666666666666,35.7558633257686,853.0833333333334,35.7558633257686,855.5,35.7558633257686C857.9166666666666,35.7558633257686,860.3333333333334,35.7558633257686,862.75,35.7558633257686C865.1666666666666,35.7558633257686,867.5833333333334,35.7558633257686,870,35.7558633257686C872.4166666666666,35.7558633257686,874.8333333333334,35.7558633257686,877.25,35.7558633257686C879.6666666666666,35.7558633257686,882.0833333333334,35.7558633257686,884.5,35.7558633257686C886.9166666666666,35.7558633257686,889.3333333333334,35.7558633257686,891.75,35.7558633257686C894.1666666666666,35.7558633257686,896.5833333333334,35.7558633257686,899,35.7558633257686C901.4166666666666,35.7558633257686,903.8333333333334,35.7558633257686,906.25,35.7558633257686C908.6666666666666,35.7558633257686,911.0833333333334,35.7558633257686,913.5,35.7558633257686C915.9166666666666,35.7558633257686,918.3333333333334,35.7558633257686,920.75,35.7558633257686C923.1666666666666,35.7558633257686,925.5833333333334,35.7558633257686,928,35.7558633257686C930.4166666666666,35.7558633257686,932.8333333333334,35.7558633257686,935.25,35.7558633257686C937.6666666666666,35.7558633257686,940.0833333333334,35.7558633257686,942.5,35.7558633257686C944.9166666666666,35.7558633257686,947.3333333333334,35.7558633257686,949.75,35.7558633257686C952.1666666666666,35.7558633257686,954.5833333333334,35.7558633257686,957,35.7558633257686C959.4166666666666,35.7558633257686,961.8333333333334,35.7558633257686,964.25,35.7558633257686C966.6666666666667,35.7558633257686,969.0833333333334,35.7558633257686,971.5000000000001,35.7558633257686C973.9166666666667,35.7558633257686,976.3333333333335,35.7558633257686,978.7500000000001,35.7558633257686C981.1666666666667,35.7558633257686,983.5833333333335,35.7558633257686,986.0000000000001,35.7558633257686C988.4166666666667,35.7558633257686,990.8333333333335,35.7558633257686,993.2500000000001,35.7558633257686C995.6666666666667,35.7558633257686,998.0833333333333,35.7558633257686,1000.4999999999999,35.7558633257686C1002.9166666666665,35.7558633257686,1005.3333333333333,35.7558633257686,1007.7499999999999,35.7558633257686C1010.1666666666665,35.7558633257686,1012.5833333333333,35.7558633257686,1014.9999999999999,35.7558633257686C1017.4166666666665,35.7558633257686,1019.8333333333333,35.7558633257686,1022.2499999999999,35.7558633257686C1024.6666666666665,35.7558633257686,1027.0833333333333,35.7558633257686,1029.5,35.7558633257686C1031.9166666666667,35.7558633257686,1034.3333333333333,35.7558633257686,1036.75,35.7558633257686C1039.1666666666667,35.7558633257686,1041.5833333333333,35.7558633257686,1044,35.7558633257686C1046.4166666666667,35.7558633257686,1048.8333333333333,35.7558633257686,1051.25,35.7558633257686C1053.6666666666667,35.7558633257686,1056.0833333333333,35.7558633257686,1058.5,35.7558633257686C1060.9166666666667,35.7558633257686,1063.3333333333333,35.7558633257686,1065.75,35.7558633257686C1068.1666666666667,35.7558633257686,1070.5833333333333,35.7558633257686,1073,35.7558633257686C1075.4166666666667,35.7558633257686,1077.8333333333333,35.7558633257686,1080.25,35.7558633257686C1082.6666666666667,35.7558633257686,1085.0833333333333,35.7558633257686,1087.5,35.7558633257686C1089.9166666666667,35.7558633257686,1092.3333333333333,35.7558633257686,1094.75,35.7558633257686C1097.1666666666667,35.7558633257686,1099.5833333333333,35.7558633257686,1102,35.7558633257686C1104.4166666666667,35.7558633257686,1106.8333333333333,35.7558633257686,1109.25,35.7558633257686C1111.6666666666667,35.7558633257686,1114.0833333333333,35.7558633257686,1116.5,35.7558633257686C1118.9166666666667,35.7558633257686,1121.3333333333333,35.7558633257686,1123.75,35.7558633257686C1126.1666666666667,35.7558633257686,1128.5833333333333,35.7558633257686,1131,35.7558633257686C1133.4166666666667,35.7558633257686,1135.8333333333333,35.7558633257686,1138.25,35.7558633257686C1140.6666666666667,35.7558633257686,1143.0833333333333,35.7558633257686,1145.5,35.7558633257686C1147.9166666666667,35.7558633257686,1150.3333333333333,35.7558633257686,1152.75,35.7558633257686C1155.1666666666667,35.7558633257686,1157.5833333333333,35.7558633257686,1160,35.7558633257686C1162.4166666666667,35.7558633257686,1164.8333333333333,35.7558633257686,1167.25,35.7558633257686C1169.6666666666667,35.7558633257686,1172.0833333333333,35.7558633257686,1174.5,35.7558633257686C1176.9166666666667,35.7558633257686,1179.3333333333333,35.7558633257686,1181.75,35.7558633257686C1184.1666666666667,35.7558633257686,1186.5833333333333,35.7558633257686,1189,35.7558633257686C1191.4166666666667,35.7558633257686,1193.8333333333333,35.7558633257686,1196.25,35.7558633257686C1198.6666666666667,35.7558633257686,1201.0833333333333,35.7558633257686,1203.5,35.7558633257686C1205.9166666666667,35.7558633257686,1208.3333333333333,35.7558633257686,1210.75,35.7558633257686C1213.1666666666667,35.7558633257686,1215.5833333333333,35.7558633257686,1218,35.7558633257686C1220.4166666666667,35.7558633257686,1222.8333333333333,35.7558633257686,1225.25,35.7558633257686C1227.6666666666667,35.7558633257686,1230.0833333333333,35.7558633257686,1232.5,35.7558633257686C1234.9166666666667,35.7558633257686,1237.3333333333333,35.7558633257686,1239.75,35.7558633257686C1242.1666666666667,35.7558633257686,1244.5833333333333,35.7558633257686,1247,35.7558633257686C1249.4166666666667,35.7558633257686,1251.8333333333333,35.7558633257686,1254.25,35.7558633257686C1256.6666666666667,35.7558633257686,1259.0833333333333,35.7558633257686,1261.5,35.7558633257686C1263.9166666666667,35.7558633257686,1266.3333333333333,35.7558633257686,1268.75,35.7558633257686C1271.1666666666667,35.7558633257686,1273.5833333333333,35.7558633257686,1276,35.7558633257686C1278.4166666666667,35.7558633257686,1280.8333333333333,35.7558633257686,1283.25,35.7558633257686C1285.6666666666667,35.7558633257686,1288.0833333333333,35.7558633257686,1290.5,35.7558633257686C1292.9166666666667,35.7558633257686,1295.3333333333333,35.7558633257686,1297.75,35.7558633257686C1300.1666666666667,35.7558633257686,1302.5833333333333,35.7558633257686,1305,35.7558633257686C1307.4166666666667,35.7558633257686,1309.8333333333333,35.7558633257686,1312.25,35.7558633257686C1314.6666666666667,35.7558633257686,1317.0833333333333,35.7558633257686,1319.5,35.7558633257686C1321.9166666666667,35.7558633257686,1324.3333333333333,35.7558633257686,1326.75,35.7558633257686C1329.1666666666667,35.7558633257686,1331.5833333333333,35.7558633257686,1334,35.7558633257686C1336.4166666666667,35.7558633257686,1338.8333333333333,35.7558633257686,1341.25,35.7558633257686C1343.6666666666667,35.7558633257686,1346.0833333333333,35.7558633257686,1348.5,35.7558633257686C1350.9166666666667,35.7558633257686,1353.3333333333333,35.7558633257686,1355.75,35.7558633257686C1358.1666666666667,35.7558633257686,1360.5833333333333,35.7558633257686,1363,35.7558633257686C1365.4166666666667,35.7558633257686,1367.8333333333333,35.7558633257686,1370.25,35.7558633257686C1372.6666666666667,35.7558633257686,1375.0833333333333,35.7558633257686,1377.5,35.7558633257686C1379.9166666666667,35.7558633257686,1382.3333333333333,35.7558633257686,1384.75,35.7558633257686C1387.1666666666667,35.7558633257686,1389.5833333333333,35.7558633257686,1392,35.7558633257686C1394.4166666666667,35.7558633257686,1396.8333333333333,35.7558633257686,1399.25,35.7558633257686C1401.6666666666667,35.7558633257686,1404.0833333333333,35.7558633257686,1406.5,35.7558633257686C1408.9166666666667,35.7558633257686,1411.3333333333333,35.7558633257686,1413.75,35.7558633257686C1416.1666666666667,35.7558633257686,1418.5833333333333,35.7558633257686,1421,35.7558633257686C1423.4166666666667,35.7558633257686,1425.8333333333333,35.7558633257686,1428.25,35.7558633257686C1430.6666666666667,35.7558633257686,1433.0833333333333,35.7558633257686,1435.5,35.7558633257686C1437.9166666666667,35.7558633257686,1440.3333333333333,35.7558633257686,1442.75,35.7558633257686C1445.1666666666667,35.7558633257686,1447.5833333333333,35.7558633257686,1450,35.7558633257686" fill="transparent" stroke-linecap="round" stroke="#E7C6DF" stroke-width="2"></path><g class="visx-group visx-axis visx-axis-bottom" transform="translate(0, 115)"><g class="visx-group visx-axis-tick" transform="translate(0, 0)"><line class="visx-line" x1="0" y1="0" x2="0" y2="8" fill="transparent" shape-rendering="crispEdges" stroke="#000" stroke-width="0" stroke-linecap="square"></line><svg x="0" y="0" font-size="10" style="overflow:visible"><text transform="" x="0" y="18" fill="#000" font-size="10" text-anchor="middle"><tspan x="0" dy="0em">0%</tspan></text></svg></g><g class="visx-group visx-axis-tick" transform="translate(0, 0)"><line class="visx-line" x1="362.5" y1="0" x2="362.5" y2="8" fill="transparent" shape-rendering="crispEdges" stroke="#000" stroke-width="0" stroke-linecap="square"></line><svg x="0" y="0" font-size="10" style="overflow:visible"><text transform="" x="362.5" y="18" fill="#000" font-size="10" text-anchor="middle"><tspan x="362.5" dy="0em">25%</tspan></text></svg></g><g class="visx-group visx-axis-tick" transform="translate(0, 0)"><line class="visx-line" x1="725" y1="0" x2="725" y2="8" fill="transparent" shape-rendering="crispEdges" stroke="#000" stroke-width="0" stroke-linecap="square"></line><svg x="0" y="0" font-size="10" style="overflow:visible"><text transform="" x="725" y="18" fill="#000" font-size="10" text-anchor="middle"><tspan x="725" dy="0em">50%</tspan></text></svg></g><g class="visx-group visx-axis-tick" transform="translate(0, 0)"><line class="visx-line" x1="1087.5" y1="0" x2="1087.5" y2="8" fill="transparent" shape-rendering="crispEdges" stroke="#000" stroke-width="0" stroke-linecap="square"></line><svg x="0" y="0" font-size="10" style="overflow:visible"><text transform="" x="1087.5" y="18" fill="#000" font-size="10" text-anchor="middle"><tspan x="1087.5" dy="0em">75%</tspan></text></svg></g><g class="visx-group visx-axis-tick" transform="translate(0, 0)"><line class="visx-line" x1="1450" y1="0" x2="1450" y2="8" fill="transparent" shape-rendering="crispEdges" stroke="#000" stroke-width="0" stroke-linecap="square"></line><svg x="0" y="0" font-size="10" style="overflow:visible"><text transform="" x="1450" y="18" fill="#000" font-size="10" text-anchor="middle"><tspan x="1450" dy="0em">100%</tspan></text></svg></g><line class="visx-line visx-axis-line" x1="0.5" y1="0" x2="1450.5" y2="0" fill="transparent" shape-rendering="crispEdges" stroke="#222" stroke-width="0"></line></g><g class="visx-group visx-axis visx-axis-left" transform="translate(0, 0)"><g class="visx-group visx-axis-tick" transform="translate(0, 0)"><line class="visx-line" x1="0" y1="115" x2="-8" y2="115" fill="transparent" shape-rendering="crispEdges" stroke="#222" stroke-width="0" stroke-linecap="square"></line><svg x="-30" y="0" font-size="8" style="overflow:visible"><text transform="" x="-8" y="115" fill="#000" font-size="8" text-anchor="start"><tspan x="-8" dy="0em">0%</tspan></text></svg></g><g class="visx-group visx-axis-tick" transform="translate(0, 0)"><line class="visx-line" x1="0" y1="26.538461538461533" x2="-8" y2="26.538461538461533" fill="transparent" shape-rendering="crispEdges" stroke="#222" stroke-width="0" stroke-linecap="square"></line><svg x="-30" y="0" font-size="8" style="overflow:visible"><text transform="" x="-8" y="26.538461538461533" fill="#000" font-size="8" text-anchor="start"><tspan x="-8" dy="0em">5%</tspan></text></svg></g><line class="visx-line visx-axis-line" x1="0" y1="115.5" x2="0" y2="0.5" fill="transparent" shape-rendering="crispEdges" stroke="#222" stroke-width="0"></line></g><rect class="visx-bar" width="1450" height="115" fill="transparent"></rect><line class="visx-line" x1="1377.5" y1="28" x2="1377.5" y2="115" fill="transparent" shape-rendering="crispEdges" stroke="#0062D2" stroke-width="1" pointer-events="none" stroke-dasharray="5,2"></line><svg x="0" y="0" font-size="10px" style="overflow:visible"><text transform="" x="1377.5" y="20" font-size="10px" fill="#fff" stroke="#fff" stroke-width="0.8em" text-anchor="middle"><tspan x="1377.5" dy="0.355em">Optimal 95%</tspan></text></svg><svg x="0" y="0" font-size="10px" style="overflow:visible"><text transform="" x="1377.5" y="20" font-size="10px" fill="#62677B" text-anchor="middle"><tspan x="1377.5" dy="0.355em">Optimal 95%</tspan></text></svg></g></svg>