<?xml version="1.0"?><svg xmlns="http://www.w3.org/2000/svg" xmlns:xlink= "http://www.w3.org/1999/xlink" style="background: white;" width="1500" height="185"> <g style="color: black; font-size: 13px; font-family: sans-serif; transform: translate(18px, 25px);"><g><circle r="3" cx="-6" cy="-5" style="fill: #B6509E" /><text>Borrow APR, variable</text></g><g style="transform: translateX(150px);"><circle r="3" cx="-6" cy="-5" style="fill: rgb(231, 198, 223)" /><text>Borrow APR, stable</text></g><g style="transform: translateX(290px);"><circle r="3" cx="-6" cy="-5" style="fill: rgb(0, 98, 210)" /><text>Utilization Rate</text></g></g><g class="visx-group" transform="translate(40, 50)"><g class="visx-group visx-rows" transform="translate(0, 0)"><line class="visx-line" x1="0" y1="115" x2="1450" y2="115" fill="transparent" shape-rendering="crispEdges" stroke="#000" stroke-width="1" stroke-dasharray="3,3" pointer-events="none"></line><line class="visx-line" x1="0" y1="83.05555555555556" x2="1450" y2="83.05555555555556" fill="transparent" shape-rendering="crispEdges" stroke="#000" stroke-width="1" stroke-dasharray="3,3" pointer-events="none"></line><line class="visx-line" x1="0" y1="51.11111111111111" x2="1450" y2="51.11111111111111" fill="transparent" shape-rendering="crispEdges" stroke="#000" stroke-width="1" stroke-dasharray="3,3" pointer-events="none"></line><line class="visx-line" x1="0" y1="19.16666666666666" x2="1450" y2="19.16666666666666" fill="transparent" shape-rendering="crispEdges" stroke="#000" stroke-width="1" stroke-dasharray="3,3" pointer-events="none"></line></g><path class="visx-linepath" d="M0,20.176107617965148C2.4166666666666665,20.176107617965148,4.833333333333334,20.176107617965148,7.25,20.176107617965148C9.666666666666666,20.176107617965148,12.083333333333334,20.176107617965148,14.5,20.176107617965148C16.916666666666668,20.176107617965148,19.333333333333332,20.176107617965148,21.75,20.176107617965148C24.166666666666668,20.176107617965148,26.583333333333332,20.176107617965148,29,20.176107617965148C31.416666666666668,20.176107617965148,33.833333333333336,20.176107617965148,36.25,20.176107617965148C38.666666666666664,20.176107617965148,41.083333333333336,20.176107617965148,43.5,20.176107617965148C45.91666666666667,20.176107617965148,48.333333333333336,20.176107617965148,50.75000000000001,20.176107617965148C53.16666666666667,20.176107617965148,55.583333333333336,20.176107617965148,58,20.176107617965148C60.416666666666664,20.176107617965148,62.833333333333336,20.176107617965148,65.25,20.176107617965148C67.66666666666667,20.176107617965148,70.08333333333333,20.176107617965148,72.5,20.176107617965148C74.91666666666667,20.176107617965148,77.33333333333333,20.176107617965148,79.75,20.176107617965148C82.16666666666667,20.176107617965148,84.58333333333333,20.176107617965148,87,20.176107617965148C89.41666666666667,20.176107617965148,91.83333333333333,20.176107617965148,94.25,20.176107617965148C96.66666666666667,20.176107617965148,99.08333333333334,20.176107617965148,101.50000000000001,20.176107617965148C103.91666666666667,20.176107617965148,106.33333333333334,20.176107617965148,108.75,20.176107617965148C111.16666666666667,20.176107617965148,113.58333333333333,20.176107617965148,116,20.176107617965148C118.41666666666667,20.176107617965148,120.83333333333334,20.176107617965148,123.25000000000001,20.176107617965148C125.66666666666667,20.176107617965148,128.08333333333334,20.176107617965148,130.5,20.176107617965148C132.91666666666666,20.176107617965148,135.33333333333334,20.176107617965148,137.75,20.176107617965148C140.16666666666666,20.176107617965148,142.58333333333334,20.176107617965148,145,20.176107617965148C147.41666666666666,20.176107617965148,149.83333333333334,20.176107617965148,152.25,20.176107617965148C154.66666666666666,20.176107617965148,157.08333333333334,20.176107617965148,159.5,20.176107617965148C161.91666666666666,20.176107617965148,164.33333333333334,20.176107617965148,166.75,20.176107617965148C169.16666666666666,20.176107617965148,171.58333333333334,20.176107617965148,174,20.176107617965148C176.41666666666666,20.176107617965148,178.83333333333334,20.176107617965148,181.25,20.176107617965148C183.66666666666666,20.176107617965148,186.08333333333334,20.176107617965148,188.5,20.176107617965148C190.91666666666666,20.176107617965148,193.33333333333334,20.176107617965148,195.75,20.176107617965148C198.16666666666669,20.176107617965148,200.58333333333334,20.176107617965148,203.00000000000003,20.176107617965148C205.41666666666669,20.176107617965148,207.83333333333331,20.176107617965148,210.24999999999997,20.176107617965148C212.66666666666666,20.176107617965148,215.08333333333331,20.176107617965148,217.5,20.176107617965148C219.91666666666666,20.176107617965148,222.33333333333334,20.176107617965148,224.75,20.176107617965148C227.16666666666666,20.176107617965148,229.58333333333334,20.176107617965148,232,20.176107617965148C234.41666666666666,20.176107617965148,236.83333333333334,20.176107617965148,239.25,20.176107617965148C241.66666666666669,20.176107617965148,244.08333333333334,20.176107617965148,246.50000000000003,20.176107617965148C248.91666666666669,20.176107617965148,251.33333333333331,20.176107617965148,253.74999999999997,20.176107617965148C256.16666666666663,20.176107617965148,258.5833333333333,20.176107617965148,261,20.176107617965148C263.4166666666667,20.176107617965148,265.8333333333333,20.176107617965148,268.25,20.176107617965148C270.6666666666667,20.176107617965148,273.0833333333333,20.176107617965148,275.5,20.176107617965148C277.9166666666667,20.176107617965148,280.3333333333333,20.176107617965148,282.75,20.176107617965148C285.1666666666667,20.176107617965148,287.5833333333333,20.176107617965148,290,20.176107617965148C292.4166666666667,20.176107617965148,294.8333333333333,20.176107617965148,297.25,20.176107617965148C299.6666666666667,20.176107617965148,302.0833333333333,20.176107617965148,304.5,20.176107617965148C306.9166666666667,20.176107617965148,309.3333333333333,20.176107617965148,311.75,20.176107617965148C314.1666666666667,20.176107617965148,316.5833333333333,20.176107617965148,319,20.176107617965148C321.4166666666667,20.176107617965148,323.8333333333333,20.176107617965148,326.25,20.176107617965148C328.6666666666667,20.176107617965148,331.0833333333333,20.176107617965148,333.5,20.176107617965148C335.9166666666667,20.176107617965148,338.3333333333333,20.176107617965148,340.75,20.176107617965148C343.1666666666667,20.176107617965148,345.5833333333333,20.176107617965148,348,20.176107617965148C350.4166666666667,20.176107617965148,352.8333333333333,20.176107617965148,355.25,20.176107617965148C357.6666666666667,20.176107617965148,360.0833333333333,20.176107617965148,362.5,20.176107617965148C364.9166666666667,20.176107617965148,367.3333333333333,20.176107617965148,369.75,20.176107617965148C372.1666666666667,20.176107617965148,374.5833333333333,20.176107617965148,377,20.176107617965148C379.4166666666667,20.176107617965148,381.8333333333333,20.176107617965148,384.25,20.176107617965148C386.6666666666667,20.176107617965148,389.0833333333333,20.176107617965148,391.5,20.176107617965148C393.9166666666667,20.176107617965148,396.33333333333337,20.176107617965148,398.75000000000006,20.176107617965148C401.16666666666674,20.176107617965148,403.58333333333337,20.176107617965148,406.00000000000006,20.176107617965148C408.4166666666667,20.176107617965148,410.8333333333333,20.176107617965148,413.24999999999994,20.176107617965148C415.66666666666663,20.176107617965148,418.08333333333326,20.176107617965148,420.49999999999994,20.176107617965148C422.91666666666663,20.176107617965148,425.3333333333333,20.176107617965148,427.75,20.176107617965148C430.1666666666667,20.176107617965148,432.5833333333333,20.176107617965148,435,20.176107617965148C437.4166666666667,20.176107617965148,439.8333333333333,20.176107617965148,442.25,20.176107617965148C444.6666666666667,20.176107617965148,447.0833333333333,20.176107617965148,449.5,20.176107617965148C451.9166666666667,20.176107617965148,454.3333333333333,20.176107617965148,456.75,20.176107617965148C459.1666666666667,20.176107617965148,461.5833333333333,20.176107617965148,464,20.176107617965148C466.4166666666667,20.176107617965148,468.8333333333333,20.176107617965148,471.25,20.176107617965148C473.6666666666667,20.176107617965148,476.0833333333333,20.176107617965148,478.5,20.176107617965148C480.9166666666667,20.176107617965148,483.33333333333337,20.176107617965148,485.75000000000006,20.176107617965148C488.16666666666674,20.176107617965148,490.58333333333337,20.176107617965148,493.00000000000006,20.176107617965148C495.4166666666667,20.176107617965148,497.8333333333333,20.176107617965148,500.24999999999994,20.176107617965148C502.66666666666663,20.176107617965148,505.08333333333326,20.176107617965148,507.49999999999994,20.176107617965148C509.91666666666663,20.176107617965148,512.3333333333333,20.176107617965148,514.75,20.176107617965148C517.1666666666666,20.176107617965148,519.5833333333334,20.176107617965148,522,20.176107617965148C524.4166666666666,20.176107617965148,526.8333333333334,20.176107617965148,529.25,20.176107617965148C531.6666666666666,20.176107617965148,534.0833333333334,20.176107617965148,536.5,20.176107617965148C538.9166666666666,20.176107617965148,541.3333333333334,20.176107617965148,543.75,20.176107617965148C546.1666666666666,20.176107617965148,548.5833333333334,20.176107617965148,551,20.176107617965148C553.4166666666666,20.176107617965148,555.8333333333334,20.176107617965148,558.25,20.176107617965148C560.6666666666666,20.176107617965148,563.0833333333334,20.176107617965148,565.5,20.176107617965148C567.9166666666666,20.176107617965148,570.3333333333334,20.176107617965148,572.75,20.176107617965148C575.1666666666666,20.176107617965148,577.5833333333334,20.176107617965148,580,20.176107617965148C582.4166666666666,20.176107617965148,584.8333333333334,20.176107617965148,587.25,20.176107617965148C589.6666666666666,20.176107617965148,592.0833333333334,20.176107617965148,594.5,20.176107617965148C596.9166666666666,20.176107617965148,599.3333333333334,20.176107617965148,601.75,20.176107617965148C604.1666666666666,20.176107617965148,606.5833333333334,20.176107617965148,609,20.176107617965148C611.4166666666666,20.176107617965148,613.8333333333334,20.176107617965148,616.25,20.176107617965148C618.6666666666666,20.176107617965148,621.0833333333334,20.176107617965148,623.5,20.176107617965148C625.9166666666666,20.176107617965148,628.3333333333334,20.176107617965148,630.75,20.176107617965148C633.1666666666666,20.176107617965148,635.5833333333334,20.176107617965148,638,20.176107617965148C640.4166666666666,20.176107617965148,642.8333333333334,20.176107617965148,645.25,20.176107617965148C647.6666666666666,20.176107617965148,650.0833333333334,20.176107617965148,652.5,20.176107617965148C654.9166666666666,20.176107617965148,657.3333333333334,20.176107617965148,659.75,20.176107617965148C662.1666666666666,20.176107617965148,664.5833333333334,20.176107617965148,667,20.176107617965148C669.4166666666666,20.176107617965148,671.8333333333334,20.176107617965148,674.25,20.176107617965148C676.6666666666666,20.176107617965148,679.0833333333334,20.176107617965148,681.5,20.176107617965148C683.9166666666666,20.176107617965148,686.3333333333334,20.176107617965148,688.75,20.176107617965148C691.1666666666666,20.176107617965148,693.5833333333334,20.176107617965148,696,20.176107617965148C698.4166666666666,20.176107617965148,700.8333333333334,20.176107617965148,703.25,20.176107617965148C705.6666666666666,20.176107617965148,708.0833333333334,20.176107617965148,710.5,20.176107617965148C712.9166666666666,20.176107617965148,715.3333333333334,20.176107617965148,717.75,20.176107617965148C720.1666666666666,20.176107617965148,722.5833333333334,20.176107617965148,725,20.176107617965148C727.4166666666666,20.176107617965148,729.8333333333334,20.176107617965148,732.25,20.176107617965148C734.6666666666666,20.176107617965148,737.0833333333334,20.176107617965148,739.5,20.176107617965148C741.9166666666666,20.176107617965148,744.3333333333334,20.176107617965148,746.75,20.176107617965148C749.1666666666666,20.176107617965148,751.5833333333334,20.176107617965148,754,20.176107617965148C756.4166666666666,20.176107617965148,758.8333333333334,20.176107617965148,761.25,20.176107617965148C763.6666666666666,20.176107617965148,766.0833333333334,20.176107617965148,768.5,20.176107617965148C770.9166666666666,20.176107617965148,773.3333333333334,20.176107617965148,775.75,20.176107617965148C778.1666666666666,20.176107617965148,780.5833333333334,20.176107617965148,783,20.176107617965148C785.4166666666667,20.176107617965148,787.8333333333334,20.176107617965148,790.2500000000001,20.176107617965148C792.6666666666667,20.176107617965148,795.0833333333335,20.176107617965148,797.5000000000001,20.176107617965148C799.9166666666667,20.176107617965148,802.3333333333335,20.176107617965148,804.7500000000001,20.176107617965148C807.1666666666667,20.176107617965148,809.5833333333335,20.176107617965148,812.0000000000001,20.176107617965148C814.4166666666667,20.176107617965148,816.8333333333333,20.176107617965148,819.2499999999999,20.176107617965148C821.6666666666665,20.176107617965148,824.0833333333333,20.176107617965148,826.4999999999999,20.176107617965148C828.9166666666665,20.176107617965148,831.3333333333333,20.176107617965148,833.7499999999999,20.176107617965148C836.1666666666665,20.176107617965148,838.5833333333333,20.176107617965148,840.9999999999999,20.176107617965148C843.4166666666666,20.176107617965148,845.8333333333333,20.176107617965148,848.25,20.176107617965148C850.6666666666666,20.176107617965148,853.0833333333334,20.176107617965148,855.5,20.176107617965148C857.9166666666666,20.176107617965148,860.3333333333334,20.176107617965148,862.75,20.176107617965148C865.1666666666666,20.176107617965148,867.5833333333334,20.176107617965148,870,20.176107617965148C872.4166666666666,20.176107617965148,874.8333333333334,20.176107617965148,877.25,20.176107617965148C879.6666666666666,20.176107617965148,882.0833333333334,20.176107617965148,884.5,20.176107617965148C886.9166666666666,20.176107617965148,889.3333333333334,20.176107617965148,891.75,20.176107617965148C894.1666666666666,20.176107617965148,896.5833333333334,20.176107617965148,899,20.176107617965148C901.4166666666666,20.176107617965148,903.8333333333334,20.176107617965148,906.25,20.176107617965148C908.6666666666666,20.176107617965148,911.0833333333334,20.176107617965148,913.5,20.176107617965148C915.9166666666666,20.176107617965148,918.3333333333334,20.176107617965148,920.75,20.176107617965148C923.1666666666666,20.176107617965148,925.5833333333334,20.176107617965148,928,20.176107617965148C930.4166666666666,20.176107617965148,932.8333333333334,20.176107617965148,935.25,20.176107617965148C937.6666666666666,20.176107617965148,940.0833333333334,20.176107617965148,942.5,20.176107617965148C944.9166666666666,20.176107617965148,947.3333333333334,20.176107617965148,949.75,20.176107617965148C952.1666666666666,20.176107617965148,954.5833333333334,20.176107617965148,957,20.176107617965148C959.4166666666666,20.176107617965148,961.8333333333334,20.176107617965148,964.25,20.176107617965148C966.6666666666667,20.176107617965148,969.0833333333334,20.176107617965148,971.5000000000001,20.176107617965148C973.9166666666667,20.176107617965148,976.3333333333335,20.176107617965148,978.7500000000001,20.176107617965148C981.1666666666667,20.176107617965148,983.5833333333335,20.176107617965148,986.0000000000001,20.176107617965148C988.4166666666667,20.176107617965148,990.8333333333335,20.176107617965148,993.2500000000001,20.176107617965148C995.6666666666667,20.176107617965148,998.0833333333333,20.176107617965148,1000.4999999999999,20.176107617965148C1002.9166666666665,20.176107617965148,1005.3333333333333,20.176107617965148,1007.7499999999999,20.176107617965148C1010.1666666666665,20.176107617965148,1012.5833333333333,20.176107617965148,1014.9999999999999,20.176107617965148C1017.4166666666665,20.176107617965148,1019.8333333333333,20.176107617965148,1022.2499999999999,20.176107617965148C1024.6666666666665,20.176107617965148,1027.0833333333333,20.176107617965148,1029.5,20.176107617965148C1031.9166666666667,20.176107617965148,1034.3333333333333,20.176107617965148,1036.75,20.176107617965148C1039.1666666666667,20.176107617965148,1041.5833333333333,20.176107617965148,1044,20.176107617965148C1046.4166666666667,20.176107617965148,1048.8333333333333,20.176107617965148,1051.25,20.176107617965148C1053.6666666666667,20.176107617965148,1056.0833333333333,20.176107617965148,1058.5,20.176107617965148C1060.9166666666667,20.176107617965148,1063.3333333333333,20.176107617965148,1065.75,20.176107617965148C1068.1666666666667,20.176107617965148,1070.5833333333333,20.176107617965148,1073,20.176107617965148C1075.4166666666667,20.176107617965148,1077.8333333333333,20.176107617965148,1080.25,20.176107617965148C1082.6666666666667,20.176107617965148,1085.0833333333333,20.176107617965148,1087.5,20.176107617965148C1089.9166666666667,20.176107617965148,1092.3333333333333,20.176107617965148,1094.75,20.176107617965148C1097.1666666666667,20.176107617965148,1099.5833333333333,20.176107617965148,1102,20.176107617965148C1104.4166666666667,20.176107617965148,1106.8333333333333,20.176107617965148,1109.25,20.176107617965148C1111.6666666666667,20.176107617965148,1114.0833333333333,20.176107617965148,1116.5,20.176107617965148C1118.9166666666667,20.176107617965148,1121.3333333333333,20.176107617965148,1123.75,20.176107617965148C1126.1666666666667,20.176107617965148,1128.5833333333333,20.176107617965148,1131,20.176107617965148C1133.4166666666667,20.176107617965148,1135.8333333333333,20.176107617965148,1138.25,20.176107617965148C1140.6666666666667,20.176107617965148,1143.0833333333333,20.176107617965148,1145.5,20.176107617965148C1147.9166666666667,20.176107617965148,1150.3333333333333,20.176107617965148,1152.75,20.176107617965148C1155.1666666666667,20.176107617965148,1157.5833333333333,20.176107617965148,1160,20.176107617965148C1162.4166666666667,20.176107617965148,1164.8333333333333,20.176107617965148,1167.25,20.176107617965148C1169.6666666666667,20.176107617965148,1172.0833333333333,20.176107617965148,1174.5,20.176107617965148C1176.9166666666667,20.176107617965148,1179.3333333333333,20.176107617965148,1181.75,20.176107617965148C1184.1666666666667,20.176107617965148,1186.5833333333333,20.176107617965148,1189,20.176107617965148C1191.4166666666667,20.176107617965148,1193.8333333333333,20.176107617965148,1196.25,20.176107617965148C1198.6666666666667,20.176107617965148,1201.0833333333333,20.176107617965148,1203.5,20.176107617965148C1205.9166666666667,20.176107617965148,1208.3333333333333,20.176107617965148,1210.75,20.176107617965148C1213.1666666666667,20.176107617965148,1215.5833333333333,20.176107617965148,1218,20.176107617965148C1220.4166666666667,20.176107617965148,1222.8333333333333,20.176107617965148,1225.25,20.176107617965148C1227.6666666666667,20.176107617965148,1230.0833333333333,20.176107617965148,1232.5,20.176107617965148C1234.9166666666667,20.176107617965148,1237.3333333333333,20.176107617965148,1239.75,20.176107617965148C1242.1666666666667,20.176107617965148,1244.5833333333333,20.176107617965148,1247,20.176107617965148C1249.4166666666667,20.176107617965148,1251.8333333333333,20.176107617965148,1254.25,20.176107617965148C1256.6666666666667,20.176107617965148,1259.0833333333333,20.176107617965148,1261.5,20.176107617965148C1263.9166666666667,20.176107617965148,1266.3333333333333,20.176107617965148,1268.75,20.176107617965148C1271.1666666666667,20.176107617965148,1273.5833333333333,20.176107617965148,1276,20.176107617965148C1278.4166666666667,20.176107617965148,1280.8333333333333,20.176107617965148,1283.25,20.176107617965148C1285.6666666666667,20.176107617965148,1288.0833333333333,20.176107617965148,1290.5,20.176107617965148C1292.9166666666667,20.176107617965148,1295.3333333333333,20.176107617965148,1297.75,20.176107617965148C1300.1666666666667,20.176107617965148,1302.5833333333333,20.176107617965148,1305,20.176107617965148C1307.4166666666667,20.176107617965148,1309.8333333333333,20.176107617965148,1312.25,20.176107617965148C1314.6666666666667,20.176107617965148,1317.0833333333333,20.176107617965148,1319.5,20.176107617965148C1321.9166666666667,20.176107617965148,1324.3333333333333,20.176107617965148,1326.75,20.176107617965148C1329.1666666666667,20.176107617965148,1331.5833333333333,20.176107617965148,1334,20.176107617965148C1336.4166666666667,20.176107617965148,1338.8333333333333,20.176107617965148,1341.25,20.176107617965148C1343.6666666666667,20.176107617965148,1346.0833333333333,20.176107617965148,1348.5,20.176107617965148C1350.9166666666667,20.176107617965148,1353.3333333333333,20.176107617965148,1355.75,20.176107617965148C1358.1666666666667,20.176107617965148,1360.5833333333333,20.176107617965148,1363,20.176107617965148C1365.4166666666667,20.176107617965148,1367.8333333333333,20.176107617965148,1370.25,20.176107617965148C1372.6666666666667,20.176107617965148,1375.0833333333333,20.176107617965148,1377.5,20.176107617965148C1379.9166666666667,20.176107617965148,1382.3333333333333,20.176107617965148,1384.75,20.176107617965148C1387.1666666666667,20.176107617965148,1389.5833333333333,20.176107617965148,1392,20.176107617965148C1394.4166666666667,20.176107617965148,1396.8333333333333,20.176107617965148,1399.25,20.176107617965148C1401.6666666666667,20.176107617965148,1404.0833333333333,20.176107617965148,1406.5,20.176107617965148C1408.9166666666667,20.176107617965148,1411.3333333333333,20.176107617965148,1413.75,20.176107617965148C1416.1666666666667,20.176107617965148,1418.5833333333333,20.176107617965148,1421,20.176107617965148C1423.4166666666667,20.176107617965148,1425.8333333333333,20.176107617965148,1428.25,20.176107617965148C1430.6666666666667,20.176107617965148,1433.0833333333333,20.176107617965148,1435.5,20.176107617965148C1437.9166666666667,20.176107617965148,1440.3333333333333,20.176107617965148,1442.75,20.176107617965148C1445.1666666666667,20.176107617965148,1447.5833333333333,10.088053808982574,1450,0" fill="transparent" stroke-linecap="round" stroke="#B6509E" stroke-width="2"></path><path class="visx-linepath" d="M0,115C2.4166666666666665,115,4.833333333333334,115,7.25,115C9.666666666666666,115,12.083333333333334,115,14.5,115C16.916666666666668,115,19.333333333333332,115,21.75,115C24.166666666666668,115,26.583333333333332,115,29,115C31.416666666666668,115,33.833333333333336,115,36.25,115C38.666666666666664,115,41.083333333333336,115,43.5,115C45.91666666666667,115,48.333333333333336,115,50.75000000000001,115C53.16666666666667,115,55.583333333333336,115,58,115C60.416666666666664,115,62.833333333333336,115,65.25,115C67.66666666666667,115,70.08333333333333,115,72.5,115C74.91666666666667,115,77.33333333333333,115,79.75,115C82.16666666666667,115,84.58333333333333,115,87,115C89.41666666666667,115,91.83333333333333,115,94.25,115C96.66666666666667,115,99.08333333333334,115,101.50000000000001,115C103.91666666666667,115,106.33333333333334,115,108.75,115C111.16666666666667,115,113.58333333333333,115,116,115C118.41666666666667,115,120.83333333333334,115,123.25000000000001,115C125.66666666666667,115,128.08333333333334,115,130.5,115C132.91666666666666,115,135.33333333333334,115,137.75,115C140.16666666666666,115,142.58333333333334,115,145,115C147.41666666666666,115,149.83333333333334,115,152.25,115C154.66666666666666,115,157.08333333333334,115,159.5,115C161.91666666666666,115,164.33333333333334,115,166.75,115C169.16666666666666,115,171.58333333333334,115,174,115C176.41666666666666,115,178.83333333333334,115,181.25,115C183.66666666666666,115,186.08333333333334,115,188.5,115C190.91666666666666,115,193.33333333333334,115,195.75,115C198.16666666666669,115,200.58333333333334,115,203.00000000000003,115C205.41666666666669,115,207.83333333333331,115,210.24999999999997,115C212.66666666666666,115,215.08333333333331,115,217.5,115C219.91666666666666,115,222.33333333333334,115,224.75,115C227.16666666666666,115,229.58333333333334,115,232,115C234.41666666666666,115,236.83333333333334,115,239.25,115C241.66666666666669,115,244.08333333333334,115,246.50000000000003,115C248.91666666666669,115,251.33333333333331,115,253.74999999999997,115C256.16666666666663,115,258.5833333333333,115,261,115C263.4166666666667,115,265.8333333333333,115,268.25,115C270.6666666666667,115,273.0833333333333,115,275.5,115C277.9166666666667,115,280.3333333333333,115,282.75,115C285.1666666666667,115,287.5833333333333,115,290,115C292.4166666666667,115,294.8333333333333,115,297.25,115C299.6666666666667,115,302.0833333333333,115,304.5,115C306.9166666666667,115,309.3333333333333,115,311.75,115C314.1666666666667,115,316.5833333333333,115,319,115C321.4166666666667,115,323.8333333333333,115,326.25,115C328.6666666666667,115,331.0833333333333,115,333.5,115C335.9166666666667,115,338.3333333333333,115,340.75,115C343.1666666666667,115,345.5833333333333,115,348,115C350.4166666666667,115,352.8333333333333,115,355.25,115C357.6666666666667,115,360.0833333333333,115,362.5,115C364.9166666666667,115,367.3333333333333,115,369.75,115C372.1666666666667,115,374.5833333333333,115,377,115C379.4166666666667,115,381.8333333333333,115,384.25,115C386.6666666666667,115,389.0833333333333,115,391.5,115C393.9166666666667,115,396.33333333333337,115,398.75000000000006,115C401.16666666666674,115,403.58333333333337,115,406.00000000000006,115C408.4166666666667,115,410.8333333333333,115,413.24999999999994,115C415.66666666666663,115,418.08333333333326,115,420.49999999999994,115C422.91666666666663,115,425.3333333333333,115,427.75,115C430.1666666666667,115,432.5833333333333,115,435,115C437.4166666666667,115,439.8333333333333,115,442.25,115C444.6666666666667,115,447.0833333333333,115,449.5,115C451.9166666666667,115,454.3333333333333,115,456.75,115C459.1666666666667,115,461.5833333333333,115,464,115C466.4166666666667,115,468.8333333333333,115,471.25,115C473.6666666666667,115,476.0833333333333,115,478.5,115C480.9166666666667,115,483.33333333333337,115,485.75000000000006,115C488.16666666666674,115,490.58333333333337,115,493.00000000000006,115C495.4166666666667,115,497.8333333333333,115,500.24999999999994,115C502.66666666666663,115,505.08333333333326,115,507.49999999999994,115C509.91666666666663,115,512.3333333333333,115,514.75,115C517.1666666666666,115,519.5833333333334,115,522,115C524.4166666666666,115,526.8333333333334,115,529.25,115C531.6666666666666,115,534.0833333333334,115,536.5,115C538.9166666666666,115,541.3333333333334,115,543.75,115C546.1666666666666,115,548.5833333333334,115,551,115C553.4166666666666,115,555.8333333333334,115,558.25,115C560.6666666666666,115,563.0833333333334,115,565.5,115C567.9166666666666,115,570.3333333333334,115,572.75,115C575.1666666666666,115,577.5833333333334,115,580,115C582.4166666666666,115,584.8333333333334,115,587.25,115C589.6666666666666,115,592.0833333333334,115,594.5,115C596.9166666666666,115,599.3333333333334,115,601.75,115C604.1666666666666,115,606.5833333333334,115,609,115C611.4166666666666,115,613.8333333333334,115,616.25,115C618.6666666666666,115,621.0833333333334,115,623.5,115C625.9166666666666,115,628.3333333333334,115,630.75,115C633.1666666666666,115,635.5833333333334,115,638,115C640.4166666666666,115,642.8333333333334,115,645.25,115C647.6666666666666,115,650.0833333333334,115,652.5,115C654.9166666666666,115,657.3333333333334,115,659.75,115C662.1666666666666,115,664.5833333333334,115,667,115C669.4166666666666,115,671.8333333333334,115,674.25,115C676.6666666666666,115,679.0833333333334,115,681.5,115C683.9166666666666,115,686.3333333333334,115,688.75,115C691.1666666666666,115,693.5833333333334,115,696,115C698.4166666666666,115,700.8333333333334,115,703.25,115C705.6666666666666,115,708.0833333333334,115,710.5,115C712.9166666666666,115,715.3333333333334,115,717.75,115C720.1666666666666,115,722.5833333333334,115,725,115C727.4166666666666,115,729.8333333333334,115,732.25,115C734.6666666666666,115,737.0833333333334,115,739.5,115C741.9166666666666,115,744.3333333333334,115,746.75,115C749.1666666666666,115,751.5833333333334,115,754,115C756.4166666666666,115,758.8333333333334,115,761.25,115C763.6666666666666,115,766.0833333333334,115,768.5,115C770.9166666666666,115,773.3333333333334,115,775.75,115C778.1666666666666,115,780.5833333333334,115,783,115C785.4166666666667,115,787.8333333333334,115,790.2500000000001,115C792.6666666666667,115,795.0833333333335,115,797.5000000000001,115C799.9166666666667,115,802.3333333333335,115,804.7500000000001,115C807.1666666666667,115,809.5833333333335,115,812.0000000000001,115C814.4166666666667,115,816.8333333333333,115,819.2499999999999,115C821.6666666666665,115,824.0833333333333,115,826.4999999999999,115C828.9166666666665,115,831.3333333333333,115,833.7499999999999,115C836.1666666666665,115,838.5833333333333,115,840.9999999999999,115C843.4166666666666,115,845.8333333333333,115,848.25,115C850.6666666666666,115,853.0833333333334,115,855.5,115C857.9166666666666,115,860.3333333333334,115,862.75,115C865.1666666666666,115,867.5833333333334,115,870,115C872.4166666666666,115,874.8333333333334,115,877.25,115C879.6666666666666,115,882.0833333333334,115,884.5,115C886.9166666666666,115,889.3333333333334,115,891.75,115C894.1666666666666,115,896.5833333333334,115,899,115C901.4166666666666,115,903.8333333333334,115,906.25,115C908.6666666666666,115,911.0833333333334,115,913.5,115C915.9166666666666,115,918.3333333333334,115,920.75,115C923.1666666666666,115,925.5833333333334,115,928,115C930.4166666666666,115,932.8333333333334,115,935.25,115C937.6666666666666,115,940.0833333333334,115,942.5,115C944.9166666666666,115,947.3333333333334,115,949.75,115C952.1666666666666,115,954.5833333333334,115,957,115C959.4166666666666,115,961.8333333333334,115,964.25,115C966.6666666666667,115,969.0833333333334,115,971.5000000000001,115C973.9166666666667,115,976.3333333333335,115,978.7500000000001,115C981.1666666666667,115,983.5833333333335,115,986.0000000000001,115C988.4166666666667,115,990.8333333333335,115,993.2500000000001,115C995.6666666666667,115,998.0833333333333,115,1000.4999999999999,115C1002.9166666666665,115,1005.3333333333333,115,1007.7499999999999,115C1010.1666666666665,115,1012.5833333333333,115,1014.9999999999999,115C1017.4166666666665,115,1019.8333333333333,115,1022.2499999999999,115C1024.6666666666665,115,1027.0833333333333,115,1029.5,115C1031.9166666666667,115,1034.3333333333333,115,1036.75,115C1039.1666666666667,115,1041.5833333333333,115,1044,115C1046.4166666666667,115,1048.8333333333333,115,1051.25,115C1053.6666666666667,115,1056.0833333333333,115,1058.5,115C1060.9166666666667,115,1063.3333333333333,115,1065.75,115C1068.1666666666667,115,1070.5833333333333,115,1073,115C1075.4166666666667,115,1077.8333333333333,115,1080.25,115C1082.6666666666667,115,1085.0833333333333,115,1087.5,115C1089.9166666666667,115,1092.3333333333333,115,1094.75,115C1097.1666666666667,115,1099.5833333333333,115,1102,115C1104.4166666666667,115,1106.8333333333333,115,1109.25,115C1111.6666666666667,115,1114.0833333333333,115,1116.5,115C1118.9166666666667,115,1121.3333333333333,115,1123.75,115C1126.1666666666667,115,1128.5833333333333,115,1131,115C1133.4166666666667,115,1135.8333333333333,115,1138.25,115C1140.6666666666667,115,1143.0833333333333,115,1145.5,115C1147.9166666666667,115,1150.3333333333333,115,1152.75,115C1155.1666666666667,115,1157.5833333333333,115,1160,115C1162.4166666666667,115,1164.8333333333333,115,1167.25,115C1169.6666666666667,115,1172.0833333333333,115,1174.5,115C1176.9166666666667,115,1179.3333333333333,115,1181.75,115C1184.1666666666667,115,1186.5833333333333,115,1189,115C1191.4166666666667,115,1193.8333333333333,115,1196.25,115C1198.6666666666667,115,1201.0833333333333,115,1203.5,115C1205.9166666666667,115,1208.3333333333333,115,1210.75,115C1213.1666666666667,115,1215.5833333333333,115,1218,115C1220.4166666666667,115,1222.8333333333333,115,1225.25,115C1227.6666666666667,115,1230.0833333333333,115,1232.5,115C1234.9166666666667,115,1237.3333333333333,115,1239.75,115C1242.1666666666667,115,1244.5833333333333,115,1247,115C1249.4166666666667,115,1251.8333333333333,115,1254.25,115C1256.6666666666667,115,1259.0833333333333,115,1261.5,115C1263.9166666666667,115,1266.3333333333333,115,1268.75,115C1271.1666666666667,115,1273.5833333333333,115,1276,115C1278.4166666666667,115,1280.8333333333333,115,1283.25,115C1285.6666666666667,115,1288.0833333333333,115,1290.5,115C1292.9166666666667,115,1295.3333333333333,115,1297.75,115C1300.1666666666667,115,1302.5833333333333,115,1305,115C1307.4166666666667,115,1309.8333333333333,115,1312.25,115C1314.6666666666667,115,1317.0833333333333,115,1319.5,115C1321.9166666666667,115,1324.3333333333333,115,1326.75,115C1329.1666666666667,115,1331.5833333333333,115,1334,115C1336.4166666666667,115,1338.8333333333333,115,1341.25,115C1343.6666666666667,115,1346.0833333333333,115,1348.5,115C1350.9166666666667,115,1353.3333333333333,115,1355.75,115C1358.1666666666667,115,1360.5833333333333,115,1363,115C1365.4166666666667,115,1367.8333333333333,115,1370.25,115C1372.6666666666667,115,1375.0833333333333,115,1377.5,115C1379.9166666666667,115,1382.3333333333333,115,1384.75,115C1387.1666666666667,115,1389.5833333333333,115,1392,115C1394.4166666666667,115,1396.8333333333333,115,1399.25,115C1401.6666666666667,115,1404.0833333333333,115,1406.5,115C1408.9166666666667,115,1411.3333333333333,115,1413.75,115C1416.1666666666667,115,1418.5833333333333,115,1421,115C1423.4166666666667,115,1425.8333333333333,115,1428.25,115C1430.6666666666667,115,1433.0833333333333,115,1435.5,115C1437.9166666666667,115,1440.3333333333333,115,1442.75,115C1445.1666666666667,115,1447.5833333333333,57.49999999999999,1450,0" fill="transparent" stroke-linecap="round" stroke="#E7C6DF" stroke-width="2"></path><g class="visx-group visx-axis visx-axis-bottom" transform="translate(0, 115)"><g class="visx-group visx-axis-tick" transform="translate(0, 0)"><line class="visx-line" x1="0" y1="0" x2="0" y2="8" fill="transparent" shape-rendering="crispEdges" stroke="#000" stroke-width="0" stroke-linecap="square"></line><svg x="0" y="0" font-size="10" style="overflow:visible"><text transform="" x="0" y="18" fill="#000" font-size="10" text-anchor="middle"><tspan x="0" dy="0em">0%</tspan></text></svg></g><g class="visx-group visx-axis-tick" transform="translate(0, 0)"><line class="visx-line" x1="362.5" y1="0" x2="362.5" y2="8" fill="transparent" shape-rendering="crispEdges" stroke="#000" stroke-width="0" stroke-linecap="square"></line><svg x="0" y="0" font-size="10" style="overflow:visible"><text transform="" x="362.5" y="18" fill="#000" font-size="10" text-anchor="middle"><tspan x="362.5" dy="0em">25%</tspan></text></svg></g><g class="visx-group visx-axis-tick" transform="translate(0, 0)"><line class="visx-line" x1="725" y1="0" x2="725" y2="8" fill="transparent" shape-rendering="crispEdges" stroke="#000" stroke-width="0" stroke-linecap="square"></line><svg x="0" y="0" font-size="10" style="overflow:visible"><text transform="" x="725" y="18" fill="#000" font-size="10" text-anchor="middle"><tspan x="725" dy="0em">50%</tspan></text></svg></g><g class="visx-group visx-axis-tick" transform="translate(0, 0)"><line class="visx-line" x1="1087.5" y1="0" x2="1087.5" y2="8" fill="transparent" shape-rendering="crispEdges" stroke="#000" stroke-width="0" stroke-linecap="square"></line><svg x="0" y="0" font-size="10" style="overflow:visible"><text transform="" x="1087.5" y="18" fill="#000" font-size="10" text-anchor="middle"><tspan x="1087.5" dy="0em">75%</tspan></text></svg></g><g class="visx-group visx-axis-tick" transform="translate(0, 0)"><line class="visx-line" x1="1450" y1="0" x2="1450" y2="8" fill="transparent" shape-rendering="crispEdges" stroke="#000" stroke-width="0" stroke-linecap="square"></line><svg x="0" y="0" font-size="10" style="overflow:visible"><text transform="" x="1450" y="18" fill="#000" font-size="10" text-anchor="middle"><tspan x="1450" dy="0em">100%</tspan></text></svg></g><line class="visx-line visx-axis-line" x1="0.5" y1="0" x2="1450.5" y2="0" fill="transparent" shape-rendering="crispEdges" stroke="#222" stroke-width="0"></line></g><g class="visx-group visx-axis visx-axis-left" transform="translate(0, 0)"><g class="visx-group visx-axis-tick" transform="translate(0, 0)"><line class="visx-line" x1="0" y1="115" x2="-8" y2="115" fill="transparent" shape-rendering="crispEdges" stroke="#222" stroke-width="0" stroke-linecap="square"></line><svg x="-30" y="0" font-size="8" style="overflow:visible"><text transform="" x="-8" y="115" fill="#000" font-size="8" text-anchor="start"><tspan x="-8" dy="0em">0%</tspan></text></svg></g><g class="visx-group visx-axis-tick" transform="translate(0, 0)"><line class="visx-line" x1="0" y1="51.11111111111111" x2="-8" y2="51.11111111111111" fill="transparent" shape-rendering="crispEdges" stroke="#222" stroke-width="0" stroke-linecap="square"></line><svg x="-30" y="0" font-size="8" style="overflow:visible"><text transform="" x="-8" y="51.11111111111111" fill="#000" font-size="8" text-anchor="start"><tspan x="-8" dy="0em">10%</tspan></text></svg></g><line class="visx-line visx-axis-line" x1="0" y1="115.5" x2="0" y2="0.5" fill="transparent" shape-rendering="crispEdges" stroke="#222" stroke-width="0"></line></g><rect class="visx-bar" width="1450" height="115" fill="transparent"></rect><line class="visx-line" x1="1450" y1="28" x2="1450" y2="115" fill="transparent" shape-rendering="crispEdges" stroke="#0062D2" stroke-width="1" pointer-events="none" stroke-dasharray="5,2"></line><svg x="0" y="0" font-size="10px" style="overflow:visible"><text transform="" x="1450" y="20" font-size="10px" fill="#fff" stroke="#fff" stroke-width="0.8em" text-anchor="middle"><tspan x="1450" dy="0.355em">Optimal 100%</tspan></text></svg><svg x="0" y="0" font-size="10px" style="overflow:visible"><text transform="" x="1450" y="20" font-size="10px" fill="#62677B" text-anchor="middle"><tspan x="1450" dy="0.355em">Optimal 100%</tspan></text></svg></g></svg>