<?xml version="1.0"?><svg xmlns="http://www.w3.org/2000/svg" xmlns:xlink= "http://www.w3.org/1999/xlink" style="background: white;" width="1500" height="185"> <g style="color: black; font-size: 13px; font-family: sans-serif; transform: translate(18px, 25px);"><g><circle r="3" cx="-6" cy="-5" style="fill: #B6509E" /><text>Borrow APR, variable</text></g><g style="transform: translateX(150px);"><circle r="3" cx="-6" cy="-5" style="fill: rgb(231, 198, 223)" /><text>Borrow APR, stable</text></g><g style="transform: translateX(290px);"><circle r="3" cx="-6" cy="-5" style="fill: rgb(0, 98, 210)" /><text>Utilization Rate</text></g></g><g class="visx-group" transform="translate(40, 50)"><g class="visx-group visx-rows" transform="translate(0, 0)"><line class="visx-line" x1="0" y1="115" x2="1450" y2="115" fill="transparent" shape-rendering="crispEdges" stroke="#000" stroke-width="1" stroke-dasharray="3,3" pointer-events="none"></line><line class="visx-line" x1="0" y1="73.92857142857142" x2="1450" y2="73.92857142857142" fill="transparent" shape-rendering="crispEdges" stroke="#000" stroke-width="1" stroke-dasharray="3,3" pointer-events="none"></line><line class="visx-line" x1="0" y1="32.857142857142854" x2="1450" y2="32.857142857142854" fill="transparent" shape-rendering="crispEdges" stroke="#000" stroke-width="1" stroke-dasharray="3,3" pointer-events="none"></line></g><path class="visx-linepath" d="M0,114.17857142854587C2.4166666666666665,114.17431216929725,4.833333333333334,114.17005291004864,7.25,114.16579365079365C9.666666666666666,114.16153439153865,12.083333333333334,114.15727513227513,14.5,114.15301587301587C16.916666666666668,114.14875661375662,19.333333333333332,114.14449735449735,21.75,114.14023809523809C24.166666666666668,114.13597883597883,26.583333333333332,114.13171957671958,29,114.12746031746032C31.416666666666668,114.12320105820106,33.833333333333336,114.1189417989418,36.25,114.11468253968255C38.666666666666664,114.11042328042329,41.083333333333336,114.10616402116402,43.5,114.10190476190476C45.91666666666667,114.0976455026455,48.333333333333336,114.09338624338625,50.75000000000001,114.08912698412699C53.16666666666667,114.08486772486773,55.583333333333336,114.08060846560846,58,114.0763492063492C60.416666666666664,114.07208994708995,62.833333333333336,114.06783068783069,65.25,114.06357142857144C67.66666666666667,114.05931216931218,70.08333333333333,114.05505291005291,72.5,114.05079365079365C74.91666666666667,114.0465343915344,77.33333333333333,114.04227513227514,79.75,114.03801587301588C82.16666666666667,114.03375661375662,84.58333333333333,114.02949735449735,87,114.0252380952381C89.41666666666667,114.02097883597884,91.83333333333333,114.01671957671958,94.25,114.01246031746032C96.66666666666667,114.00820105820107,99.08333333333334,114.0039417989418,101.50000000000001,113.99968253968254C103.91666666666667,113.99542328042328,106.33333333333334,113.99116402116401,108.75,113.98690476190475C111.16666666666667,113.9826455026455,113.58333333333333,113.97838624338624,116,113.97412698412698C118.41666666666667,113.96986772486773,120.83333333333334,113.96560846560845,123.25000000000001,113.9613492063492C125.66666666666667,113.95708994708994,128.08333333333334,113.95283068783068,130.5,113.94857142857143C132.91666666666666,113.94431216931217,135.33333333333334,113.9400529100529,137.75,113.93579365079364C140.16666666666666,113.93153439153438,142.58333333333334,113.92727513227513,145,113.92301587301587C147.41666666666666,113.91875661375661,149.83333333333334,113.91449735449734,152.25,113.91023809523809C154.66666666666666,113.90597883597883,157.08333333333334,113.90171957671957,159.5,113.89746031746031C161.91666666666666,113.89320105820106,164.33333333333334,113.8889417989418,166.75,113.88468253968254C169.16666666666666,113.88042328042329,171.58333333333334,113.87616402116402,174,113.87190476190476C176.41666666666666,113.8676455026455,178.83333333333334,113.86338624338624,181.25,113.85912698412699C183.66666666666666,113.85486772486773,186.08333333333334,113.85060846560846,188.5,113.8463492063492C190.91666666666666,113.84208994708995,193.33333333333334,113.83783068783069,195.75,113.83357142857143C198.16666666666669,113.82931216931217,200.58333333333334,113.8250529100529,203.00000000000003,113.82079365079365C205.41666666666669,113.81653439153439,207.83333333333331,113.81227513227513,210.24999999999997,113.80801587301588C212.66666666666666,113.80375661375662,215.08333333333331,113.79949735449735,217.5,113.79523809523809C219.91666666666666,113.79097883597883,222.33333333333334,113.78671957671958,224.75,113.78246031746032C227.16666666666666,113.77820105820106,229.58333333333334,113.7739417989418,232,113.76968253968255C234.41666666666666,113.76542328042329,236.83333333333334,113.76116402116402,239.25,113.75690476190476C241.66666666666669,113.7526455026455,244.08333333333334,113.74838624338625,246.50000000000003,113.74412698412699C248.91666666666669,113.73986772486774,251.33333333333331,113.73560846560846,253.74999999999997,113.73134920634921C256.16666666666663,113.72708994708995,258.5833333333333,113.7228306878307,261,113.71857142857144C263.4166666666667,113.71431216931218,265.8333333333333,113.71005291005291,268.25,113.70579365079365C270.6666666666667,113.7015343915344,273.0833333333333,113.69727513227514,275.5,113.69301587301588C277.9166666666667,113.68875661375662,280.3333333333333,113.68449735449735,282.75,113.6802380952381C285.1666666666667,113.67597883597884,287.5833333333333,113.67171957671957,290,113.66746031746031C292.4166666666667,113.66320105820105,294.8333333333333,113.6589417989418,297.25,113.65468253968254C299.6666666666667,113.65042328042328,302.0833333333333,113.64616402116401,304.5,113.64190476190475C306.9166666666667,113.6376455026455,309.3333333333333,113.63338624338624,311.75,113.62912698412698C314.1666666666667,113.62486772486773,316.5833333333333,113.62060846560846,319,113.6163492063492C321.4166666666667,113.61208994708994,323.8333333333333,113.60783068783068,326.25,113.60357142857143C328.6666666666667,113.59931216931217,331.0833333333333,113.5950529100529,333.5,113.59079365079364C335.9166666666667,113.58653439153439,338.3333333333333,113.58227513227513,340.75,113.57801587301587C343.1666666666667,113.57375661375661,345.5833333333333,113.56949735449734,348,113.56523809523809C350.4166666666667,113.56097883597883,352.8333333333333,113.55671957671957,355.25,113.55246031746032C357.6666666666667,113.54820105820106,360.0833333333333,113.5439417989418,362.5,113.53968253968254C364.9166666666667,113.53542328042329,367.3333333333333,113.53116402116402,369.75,113.52690476190476C372.1666666666667,113.5226455026455,374.5833333333333,113.51838624338625,377,113.51412698412699C379.4166666666667,113.50986772486773,381.8333333333333,113.50560846560846,384.25,113.5013492063492C386.6666666666667,113.49708994708995,389.0833333333333,113.49283068783069,391.5,113.48857142857143C393.9166666666667,113.48431216931218,396.33333333333337,113.4800529100529,398.75000000000006,113.47579365079365C401.16666666666674,113.47153439153439,403.58333333333337,113.46727513227513,406.00000000000006,113.46301587301588C408.4166666666667,113.45875661375662,410.8333333333333,113.45449735449735,413.24999999999994,113.45023809523809C415.66666666666663,113.44597883597883,418.08333333333326,113.44171957671958,420.49999999999994,113.43746031746032C422.91666666666663,113.43320105820106,425.3333333333333,113.4289417989418,427.75,113.42468253968255C430.1666666666667,113.4204232804233,432.5833333333333,113.41616402116402,435,113.41190476190476C437.4166666666667,113.40764550264551,439.8333333333333,113.40338624338625,442.25,113.399126984127C444.6666666666667,113.39486772486774,447.0833333333333,113.39060846560847,449.5,113.38634920634921C451.9166666666667,113.38208994708995,454.3333333333333,113.37783068783068,456.75,113.37357142857142C459.1666666666667,113.36931216931217,461.5833333333333,113.36505291005291,464,113.36079365079365C466.4166666666667,113.3565343915344,468.8333333333333,113.35227513227512,471.25,113.34801587301587C473.6666666666667,113.34375661375661,476.0833333333333,113.33949735449735,478.5,113.3352380952381C480.9166666666667,113.33097883597884,483.33333333333337,113.32671957671957,485.75000000000006,113.32246031746031C488.16666666666674,113.31820105820105,490.58333333333337,113.3139417989418,493.00000000000006,113.30968253968254C495.4166666666667,113.30542328042328,497.8333333333333,113.30116402116401,500.24999999999994,113.29690476190476C502.66666666666663,113.2926455026455,505.08333333333326,113.28838624338624,507.49999999999994,113.28412698412698C509.91666666666663,113.27986772486773,512.3333333333333,113.27560846560846,514.75,113.2713492063492C517.1666666666666,113.26708994708994,519.5833333333334,113.26283068783069,522,113.25857142857143C524.4166666666666,113.25431216931217,526.8333333333334,113.2500529100529,529.25,113.24579365079364C531.6666666666666,113.24153439153439,534.0833333333334,113.23727513227513,536.5,113.23301587301587C538.9166666666666,113.22875661375662,541.3333333333334,113.22449735449734,543.75,113.22023809523809C546.1666666666666,113.21597883597883,548.5833333333334,113.21171957671957,551,113.20746031746032C553.4166666666666,113.20320105820106,555.8333333333334,113.1989417989418,558.25,113.19468253968255C560.6666666666666,113.19042328042329,563.0833333333334,113.18616402116402,565.5,113.18190476190476C567.9166666666666,113.1776455026455,570.3333333333334,113.17338624338625,572.75,113.16912698412699C575.1666666666666,113.16486772486773,577.5833333333334,113.16060846560846,580,113.1563492063492C582.4166666666666,113.15208994708995,584.8333333333334,113.14783068783069,587.25,113.14357142857143C589.6666666666666,113.13931216931218,592.0833333333334,113.1350529100529,594.5,113.13079365079365C596.9166666666666,113.12653439153439,599.3333333333334,113.12227513227513,601.75,113.11801587301588C604.1666666666666,113.11375661375662,606.5833333333334,113.10949735449735,609,113.1052380952381C611.4166666666666,113.10097883597884,613.8333333333334,113.09671957671958,616.25,113.09246031746032C618.6666666666666,113.08820105820107,621.0833333333334,113.08394179894181,623.5,113.07968253968255C625.9166666666666,113.0754232804233,628.3333333333334,113.07116402116402,630.75,113.06690476190477C633.1666666666666,113.06264550264551,635.5833333333334,113.05838624338624,638,113.05412698412698C640.4166666666666,113.04986772486772,642.8333333333334,113.04560846560845,645.25,113.0413492063492C647.6666666666666,113.03708994708994,650.0833333333334,113.03283068783068,652.5,113.02857142857142C654.9166666666666,113.02431216931217,657.3333333333334,113.0200529100529,659.75,113.01579365079364C662.1666666666666,113.01153439153438,664.5833333333334,113.00727513227513,667,113.00301587301587C669.4166666666666,112.99875661375661,671.8333333333334,112.99449735449735,674.25,112.9902380952381C676.6666666666666,112.98597883597884,679.0833333333334,112.98171957671957,681.5,112.97746031746031C683.9166666666666,112.97320105820106,686.3333333333334,112.9689417989418,688.75,112.96468253968254C691.1666666666666,112.96042328042329,693.5833333333334,112.95616402116401,696,112.95190476190476C698.4166666666666,112.9476455026455,700.8333333333334,112.94338624338624,703.25,112.93912698412699C705.6666666666666,112.93486772486773,708.0833333333334,112.93060846560846,710.5,112.9263492063492C712.9166666666666,112.92208994708994,715.3333333333334,112.91783068783069,717.75,112.91357142857143C720.1666666666666,112.90931216931217,722.5833333333334,112.9050529100529,725,112.90079365079364C727.4166666666666,112.89653439153439,729.8333333333334,112.89227513227513,732.25,112.88801587301587C734.6666666666666,112.88375661375662,737.0833333333334,112.87949735449736,739.5,112.8752380952381C741.9166666666666,112.87097883597885,744.3333333333334,112.86671957671958,746.75,112.86246031746032C749.1666666666666,112.85820105820106,751.5833333333334,112.8539417989418,754,112.84968253968255C756.4166666666666,112.84542328042329,758.8333333333334,112.84116402116402,761.25,112.83690476190476C763.6666666666666,112.8326455026455,766.0833333333334,112.82838624338625,768.5,112.82412698412699C770.9166666666666,112.81986772486773,773.3333333333334,112.81560846560846,775.75,112.8113492063492C778.1666666666666,112.80708994708995,780.5833333333334,112.80283068783069,783,112.79857142857144C785.4166666666667,112.79431216931218,787.8333333333334,112.7900529100529,790.2500000000001,112.78579365079365C792.6666666666667,112.7815343915344,795.0833333333335,112.77727513227514,797.5000000000001,112.77301587301588C799.9166666666667,112.76875661375662,802.3333333333335,112.76449735449735,804.7500000000001,112.7602380952381C807.1666666666667,112.75597883597884,809.5833333333335,112.75171957671958,812.0000000000001,112.74746031746032C814.4166666666667,112.74320105820107,816.8333333333333,112.7389417989418,819.2499999999999,112.73468253968254C821.6666666666665,112.73042328042328,824.0833333333333,112.72616402116401,826.4999999999999,112.72190476190475C828.9166666666665,112.7176455026455,831.3333333333333,112.71338624338624,833.7499999999999,112.70912698412698C836.1666666666665,112.70486772486773,838.5833333333333,112.70060846560845,840.9999999999999,112.6963492063492C843.4166666666666,112.69208994708994,845.8333333333333,112.68783068783068,848.25,112.68357142857143C850.6666666666666,112.67931216931217,853.0833333333334,112.6750529100529,855.5,112.67079365079364C857.9166666666666,112.66653439153438,860.3333333333334,112.66227513227513,862.75,112.65801587301587C865.1666666666666,112.65375661375661,867.5833333333334,112.64949735449736,870,112.6452380952381C872.4166666666666,112.64097883597884,874.8333333333334,112.63671957671957,877.25,112.63246031746031C879.6666666666666,112.62820105820106,882.0833333333334,112.6239417989418,884.5,112.61968253968254C886.9166666666666,112.61542328042329,889.3333333333334,112.61116402116402,891.75,112.60690476190476C894.1666666666666,112.6026455026455,896.5833333333334,112.59838624338624,899,112.59412698412699C901.4166666666666,112.58986772486773,903.8333333333334,112.58560846560846,906.25,112.5813492063492C908.6666666666666,112.57708994708995,911.0833333333334,112.57283068783069,913.5,112.56857142857143C915.9166666666666,112.56431216931217,918.3333333333334,112.5600529100529,920.75,112.55579365079365C923.1666666666666,112.55153439153439,925.5833333333334,112.54727513227513,928,112.54301587301588C930.4166666666666,112.53875661375662,932.8333333333334,112.53449735449736,935.25,112.5302380952381C937.6666666666666,112.52597883597885,940.0833333333334,112.52171957671958,942.5,112.51746031746032C944.9166666666666,112.51320105820106,947.3333333333334,112.5089417989418,949.75,112.50468253968255C952.1666666666666,112.50042328042329,954.5833333333334,112.49616402116402,957,112.49190476190476C959.4166666666666,112.4876455026455,961.8333333333334,112.48338624338625,964.25,112.47912698412699C966.6666666666667,112.47486772486774,969.0833333333334,112.47060846560846,971.5000000000001,112.46634920634921C973.9166666666667,112.46208994708995,976.3333333333335,112.4578306878307,978.7500000000001,112.45357142857144C981.1666666666667,112.44931216931218,983.5833333333335,112.44505291005291,986.0000000000001,112.44079365079365C988.4166666666667,112.4365343915344,990.8333333333335,112.43227513227512,993.2500000000001,112.42801587301587C995.6666666666667,112.42375661375661,998.0833333333333,112.41949735449735,1000.4999999999999,112.4152380952381C1002.9166666666665,112.41097883597884,1005.3333333333333,112.40671957671957,1007.7499999999999,112.40246031746031C1010.1666666666665,112.39820105820105,1012.5833333333333,112.3939417989418,1014.9999999999999,112.38968253968254C1017.4166666666665,112.38542328042328,1019.8333333333333,112.38116402116401,1022.2499999999999,112.37690476190475C1024.6666666666665,112.3726455026455,1027.0833333333333,112.36838624338624,1029.5,112.36412698412698C1031.9166666666667,112.35986772486773,1034.3333333333333,112.35560846560846,1036.75,112.3513492063492C1039.1666666666667,112.34708994708994,1041.5833333333333,112.34283068783068,1044,112.33857142857143C1046.4166666666667,112.33431216931217,1048.8333333333333,112.3300529100529,1051.25,112.32579365079364C1053.6666666666667,112.32153439153439,1056.0833333333333,112.31727513227513,1058.5,112.31301587301587C1060.9166666666667,112.30875661375661,1063.3333333333333,112.30449735449736,1065.75,112.3002380952381C1068.1666666666667,112.29597883597884,1070.5833333333333,112.29171957671957,1073,112.28746031746032C1075.4166666666667,112.28320105820106,1077.8333333333333,112.2789417989418,1080.25,112.27468253968254C1082.6666666666667,112.27042328042329,1085.0833333333333,112.26616402116402,1087.5,112.26190476190476C1089.9166666666667,112.2576455026455,1092.3333333333333,112.25338624338625,1094.75,112.24912698412699C1097.1666666666667,112.24486772486773,1099.5833333333333,112.24060846560846,1102,112.2363492063492C1104.4166666666667,112.23208994708995,1106.8333333333333,112.22783068783069,1109.25,112.22357142857143C1111.6666666666667,112.21931216931218,1114.0833333333333,112.2150529100529,1116.5,112.21079365079365C1118.9166666666667,112.20653439153439,1121.3333333333333,112.20227513227513,1123.75,112.19801587301588C1126.1666666666667,112.19375661375662,1128.5833333333333,112.18949735449736,1131,112.1852380952381C1133.4166666666667,112.18097883597885,1135.8333333333333,112.17671957671958,1138.25,112.17246031746032C1140.6666666666667,112.16820105820106,1143.0833333333333,112.1639417989418,1145.5,112.15968253968255C1147.9166666666667,112.15542328042329,1150.3333333333333,112.15116402116402,1152.75,112.14690476190476C1155.1666666666667,112.14264550264551,1157.5833333333333,112.13838624338625,1160,112.134126984127C1162.4166666666667,112.12986772486774,1164.8333333333333,112.12560846560847,1167.25,112.12134920634921C1169.6666666666667,112.11708994708995,1172.0833333333333,112.11283068783068,1174.5,112.10857142857142C1176.9166666666667,112.10431216931217,1179.3333333333333,112.1000529100529,1181.75,112.09579365079364C1184.1666666666667,112.09153439153438,1186.5833333333333,112.08727513227512,1189,112.08301587301587C1191.4166666666667,112.07875661375661,1193.8333333333333,112.07449735449735,1196.25,112.0702380952381C1198.6666666666667,112.06597883597884,1201.0833333333333,112.06171957671957,1203.5,112.05746031746031C1205.9166666666667,112.05320105820105,1208.3333333333333,112.0489417989418,1210.75,112.04468253968254C1213.1666666666667,112.04042328042328,1215.5833333333333,112.03616402116401,1218,112.03190476190476C1220.4166666666667,112.0276455026455,1222.8333333333333,112.02338624338624,1225.25,112.01912698412698C1227.6666666666667,112.01486772486773,1230.0833333333333,112.01060846560846,1232.5,112.0063492063492C1234.9166666666667,112.00208994708994,1237.3333333333333,111.99783068783069,1239.75,111.99357142857143C1242.1666666666667,111.98931216931217,1244.5833333333333,111.98505291005291,1247,111.98079365079366C1249.4166666666667,111.9765343915344,1251.8333333333333,111.97227513227513,1254.25,111.96801587301587C1256.6666666666667,111.96375661375662,1259.0833333333333,111.95949735449736,1261.5,111.9552380952381C1263.9166666666667,111.95097883597884,1266.3333333333333,111.94671957671957,1268.75,111.94246031746032C1271.1666666666667,111.93820105820106,1273.5833333333333,111.9339417989418,1276,111.92968253968255C1278.4166666666667,111.92542328042329,1280.8333333333333,111.92116402116402,1283.25,111.91690476190476C1285.6666666666667,111.9126455026455,1288.0833333333333,111.90838624338625,1290.5,111.90412698412699C1292.9166666666667,111.89986772486773,1295.3333333333333,111.89560846560846,1297.75,111.8913492063492C1300.1666666666667,111.88708994708995,1302.5833333333333,111.88708994708995,1305,111.87857142857143C1307.4166666666667,111.87005291005292,1309.8333333333333,108.59285714285713,1312.25,106.94999999999999C1314.6666666666667,105.30714285714285,1317.0833333333333,103.66428571428571,1319.5,102.02142857142857C1321.9166666666667,100.37857142857143,1324.3333333333333,98.73571428571428,1326.75,97.09285714285714C1329.1666666666667,95.45,1331.5833333333333,93.80714285714285,1334,92.16428571428571C1336.4166666666667,90.52142857142857,1338.8333333333333,88.87857142857142,1341.25,87.23571428571428C1343.6666666666667,85.59285714285714,1346.0833333333333,83.95,1348.5,82.30714285714286C1350.9166666666667,80.66428571428573,1353.3333333333333,79.02142857142857,1355.75,77.37857142857142C1358.1666666666667,75.73571428571427,1360.5833333333333,74.09285714285713,1363,72.44999999999999C1365.4166666666667,70.80714285714285,1367.8333333333333,69.16428571428571,1370.25,67.52142857142857C1372.6666666666667,65.87857142857143,1375.0833333333333,64.23571428571428,1377.5,62.59285714285714C1379.9166666666667,60.95,1382.3333333333333,59.30714285714286,1384.75,57.66428571428572C1387.1666666666667,56.02142857142858,1389.5833333333333,54.37857142857144,1392,52.735714285714295C1394.4166666666667,51.09285714285715,1396.8333333333333,49.45,1399.25,47.80714285714286C1401.6666666666667,46.16428571428571,1404.0833333333333,44.52142857142857,1406.5,42.87857142857143C1408.9166666666667,41.235714285714295,1411.3333333333333,39.592857142857156,1413.75,37.95000000000001C1416.1666666666667,36.307142857142864,1418.5833333333333,34.66428571428572,1421,33.02142857142857C1423.4166666666667,31.378571428571426,1425.8333333333333,29.735714285714277,1428.25,28.092857142857135C1430.6666666666667,26.449999999999992,1433.0833333333333,24.807142857142853,1435.5,23.16428571428571C1437.9166666666667,21.52142857142857,1440.3333333333333,19.87857142857143,1442.75,18.235714285714288C1445.1666666666667,16.592857142857145,1447.5833333333333,14.950000000000005,1450,13.307142857142864" fill="transparent" stroke-linecap="round" stroke="#B6509E" stroke-width="2"></path><path class="visx-linepath" d="M0,112.7C2.4166666666666665,112.7,4.833333333333334,112.7,7.25,112.7C9.666666666666666,112.7,12.083333333333334,112.7,14.5,112.7C16.916666666666668,112.7,19.333333333333332,112.7,21.75,112.7C24.166666666666668,112.7,26.583333333333332,112.7,29,112.7C31.416666666666668,112.7,33.833333333333336,112.7,36.25,112.7C38.666666666666664,112.7,41.083333333333336,112.7,43.5,112.7C45.91666666666667,112.7,48.333333333333336,112.7,50.75000000000001,112.7C53.16666666666667,112.7,55.583333333333336,112.7,58,112.7C60.416666666666664,112.7,62.833333333333336,112.7,65.25,112.7C67.66666666666667,112.7,70.08333333333333,112.7,72.5,112.7C74.91666666666667,112.7,77.33333333333333,112.7,79.75,112.7C82.16666666666667,112.7,84.58333333333333,112.7,87,112.7C89.41666666666667,112.7,91.83333333333333,112.7,94.25,112.7C96.66666666666667,112.7,99.08333333333334,112.7,101.50000000000001,112.7C103.91666666666667,112.7,106.33333333333334,112.7,108.75,112.7C111.16666666666667,112.7,113.58333333333333,112.7,116,112.7C118.41666666666667,112.7,120.83333333333334,112.7,123.25000000000001,112.7C125.66666666666667,112.7,128.08333333333334,112.7,130.5,112.7C132.91666666666666,112.7,135.33333333333334,112.7,137.75,112.7C140.16666666666666,112.7,142.58333333333334,112.7,145,112.7C147.41666666666666,112.7,149.83333333333334,112.7,152.25,112.7C154.66666666666666,112.7,157.08333333333334,112.7,159.5,112.7C161.91666666666666,112.7,164.33333333333334,112.7,166.75,112.7C169.16666666666666,112.7,171.58333333333334,112.7,174,112.7C176.41666666666666,112.7,178.83333333333334,112.7,181.25,112.7C183.66666666666666,112.7,186.08333333333334,112.7,188.5,112.7C190.91666666666666,112.7,193.33333333333334,112.7,195.75,112.7C198.16666666666669,112.7,200.58333333333334,112.7,203.00000000000003,112.7C205.41666666666669,112.7,207.83333333333331,112.7,210.24999999999997,112.7C212.66666666666666,112.7,215.08333333333331,112.7,217.5,112.7C219.91666666666666,112.7,222.33333333333334,112.7,224.75,112.7C227.16666666666666,112.7,229.58333333333334,112.7,232,112.7C234.41666666666666,112.7,236.83333333333334,112.7,239.25,112.7C241.66666666666669,112.7,244.08333333333334,112.7,246.50000000000003,112.7C248.91666666666669,112.7,251.33333333333331,112.7,253.74999999999997,112.7C256.16666666666663,112.7,258.5833333333333,112.7,261,112.7C263.4166666666667,112.7,265.8333333333333,112.7,268.25,112.7C270.6666666666667,112.7,273.0833333333333,112.7,275.5,112.7C277.9166666666667,112.7,280.3333333333333,112.7,282.75,112.7C285.1666666666667,112.7,287.5833333333333,112.7,290,112.7C292.4166666666667,112.7,294.8333333333333,112.7,297.25,112.7C299.6666666666667,112.7,302.0833333333333,112.7,304.5,112.7C306.9166666666667,112.7,309.3333333333333,112.7,311.75,112.7C314.1666666666667,112.7,316.5833333333333,112.7,319,112.7C321.4166666666667,112.7,323.8333333333333,112.7,326.25,112.7C328.6666666666667,112.7,331.0833333333333,112.7,333.5,112.7C335.9166666666667,112.7,338.3333333333333,112.7,340.75,112.7C343.1666666666667,112.7,345.5833333333333,112.7,348,112.7C350.4166666666667,112.7,352.8333333333333,112.7,355.25,112.7C357.6666666666667,112.7,360.0833333333333,112.7,362.5,112.7C364.9166666666667,112.7,367.3333333333333,112.7,369.75,112.7C372.1666666666667,112.7,374.5833333333333,112.7,377,112.7C379.4166666666667,112.7,381.8333333333333,112.7,384.25,112.7C386.6666666666667,112.7,389.0833333333333,112.7,391.5,112.7C393.9166666666667,112.7,396.33333333333337,112.7,398.75000000000006,112.7C401.16666666666674,112.7,403.58333333333337,112.7,406.00000000000006,112.7C408.4166666666667,112.7,410.8333333333333,112.7,413.24999999999994,112.7C415.66666666666663,112.7,418.08333333333326,112.7,420.49999999999994,112.7C422.91666666666663,112.7,425.3333333333333,112.7,427.75,112.7C430.1666666666667,112.7,432.5833333333333,112.7,435,112.7C437.4166666666667,112.7,439.8333333333333,112.7,442.25,112.7C444.6666666666667,112.7,447.0833333333333,112.7,449.5,112.7C451.9166666666667,112.7,454.3333333333333,112.7,456.75,112.7C459.1666666666667,112.7,461.5833333333333,112.7,464,112.7C466.4166666666667,112.7,468.8333333333333,112.7,471.25,112.7C473.6666666666667,112.7,476.0833333333333,112.7,478.5,112.7C480.9166666666667,112.7,483.33333333333337,112.7,485.75000000000006,112.7C488.16666666666674,112.7,490.58333333333337,112.7,493.00000000000006,112.7C495.4166666666667,112.7,497.8333333333333,112.7,500.24999999999994,112.7C502.66666666666663,112.7,505.08333333333326,112.7,507.49999999999994,112.7C509.91666666666663,112.7,512.3333333333333,112.7,514.75,112.7C517.1666666666666,112.7,519.5833333333334,112.7,522,112.7C524.4166666666666,112.7,526.8333333333334,112.7,529.25,112.7C531.6666666666666,112.7,534.0833333333334,112.7,536.5,112.7C538.9166666666666,112.7,541.3333333333334,112.7,543.75,112.7C546.1666666666666,112.7,548.5833333333334,112.7,551,112.7C553.4166666666666,112.7,555.8333333333334,112.7,558.25,112.7C560.6666666666666,112.7,563.0833333333334,112.7,565.5,112.7C567.9166666666666,112.7,570.3333333333334,112.7,572.75,112.7C575.1666666666666,112.7,577.5833333333334,112.7,580,112.7C582.4166666666666,112.7,584.8333333333334,112.7,587.25,112.7C589.6666666666666,112.7,592.0833333333334,112.7,594.5,112.7C596.9166666666666,112.7,599.3333333333334,112.7,601.75,112.7C604.1666666666666,112.7,606.5833333333334,112.7,609,112.7C611.4166666666666,112.7,613.8333333333334,112.7,616.25,112.7C618.6666666666666,112.7,621.0833333333334,112.7,623.5,112.7C625.9166666666666,112.7,628.3333333333334,112.7,630.75,112.7C633.1666666666666,112.7,635.5833333333334,112.7,638,112.7C640.4166666666666,112.7,642.8333333333334,112.7,645.25,112.7C647.6666666666666,112.7,650.0833333333334,112.7,652.5,112.7C654.9166666666666,112.7,657.3333333333334,112.7,659.75,112.7C662.1666666666666,112.7,664.5833333333334,112.7,667,112.7C669.4166666666666,112.7,671.8333333333334,112.7,674.25,112.7C676.6666666666666,112.7,679.0833333333334,112.7,681.5,112.7C683.9166666666666,112.7,686.3333333333334,112.7,688.75,112.7C691.1666666666666,112.7,693.5833333333334,112.7,696,112.7C698.4166666666666,112.7,700.8333333333334,112.7,703.25,112.7C705.6666666666666,112.7,708.0833333333334,112.7,710.5,112.7C712.9166666666666,112.7,715.3333333333334,112.7,717.75,112.7C720.1666666666666,112.7,722.5833333333334,112.7,725,112.7C727.4166666666666,112.7,729.8333333333334,112.7,732.25,112.7C734.6666666666666,112.7,737.0833333333334,112.7,739.5,112.7C741.9166666666666,112.7,744.3333333333334,112.7,746.75,112.7C749.1666666666666,112.7,751.5833333333334,112.7,754,112.7C756.4166666666666,112.7,758.8333333333334,112.7,761.25,112.7C763.6666666666666,112.7,766.0833333333334,112.7,768.5,112.7C770.9166666666666,112.7,773.3333333333334,112.7,775.75,112.7C778.1666666666666,112.7,780.5833333333334,112.7,783,112.7C785.4166666666667,112.7,787.8333333333334,112.7,790.2500000000001,112.7C792.6666666666667,112.7,795.0833333333335,112.7,797.5000000000001,112.7C799.9166666666667,112.7,802.3333333333335,112.7,804.7500000000001,112.7C807.1666666666667,112.7,809.5833333333335,112.7,812.0000000000001,112.7C814.4166666666667,112.7,816.8333333333333,112.7,819.2499999999999,112.7C821.6666666666665,112.7,824.0833333333333,112.7,826.4999999999999,112.7C828.9166666666665,112.7,831.3333333333333,112.7,833.7499999999999,112.7C836.1666666666665,112.7,838.5833333333333,112.7,840.9999999999999,112.7C843.4166666666666,112.7,845.8333333333333,112.7,848.25,112.7C850.6666666666666,112.7,853.0833333333334,112.7,855.5,112.7C857.9166666666666,112.7,860.3333333333334,112.7,862.75,112.7C865.1666666666666,112.7,867.5833333333334,112.7,870,112.7C872.4166666666666,112.7,874.8333333333334,112.7,877.25,112.7C879.6666666666666,112.7,882.0833333333334,112.7,884.5,112.7C886.9166666666666,112.7,889.3333333333334,112.7,891.75,112.7C894.1666666666666,112.7,896.5833333333334,112.7,899,112.7C901.4166666666666,112.7,903.8333333333334,112.7,906.25,112.7C908.6666666666666,112.7,911.0833333333334,112.7,913.5,112.7C915.9166666666666,112.7,918.3333333333334,112.7,920.75,112.7C923.1666666666666,112.7,925.5833333333334,112.7,928,112.7C930.4166666666666,112.7,932.8333333333334,112.7,935.25,112.7C937.6666666666666,112.7,940.0833333333334,112.7,942.5,112.7C944.9166666666666,112.7,947.3333333333334,112.7,949.75,112.7C952.1666666666666,112.7,954.5833333333334,112.7,957,112.7C959.4166666666666,112.7,961.8333333333334,112.7,964.25,112.7C966.6666666666667,112.7,969.0833333333334,112.7,971.5000000000001,112.7C973.9166666666667,112.7,976.3333333333335,112.7,978.7500000000001,112.7C981.1666666666667,112.7,983.5833333333335,112.7,986.0000000000001,112.7C988.4166666666667,112.7,990.8333333333335,112.7,993.2500000000001,112.7C995.6666666666667,112.7,998.0833333333333,112.7,1000.4999999999999,112.7C1002.9166666666665,112.7,1005.3333333333333,112.7,1007.7499999999999,112.7C1010.1666666666665,112.7,1012.5833333333333,112.7,1014.9999999999999,112.7C1017.4166666666665,112.7,1019.8333333333333,112.7,1022.2499999999999,112.7C1024.6666666666665,112.7,1027.0833333333333,112.7,1029.5,112.7C1031.9166666666667,112.7,1034.3333333333333,112.7,1036.75,112.7C1039.1666666666667,112.7,1041.5833333333333,112.7,1044,112.7C1046.4166666666667,112.7,1048.8333333333333,112.7,1051.25,112.7C1053.6666666666667,112.7,1056.0833333333333,112.7,1058.5,112.7C1060.9166666666667,112.7,1063.3333333333333,112.7,1065.75,112.7C1068.1666666666667,112.7,1070.5833333333333,112.7,1073,112.7C1075.4166666666667,112.7,1077.8333333333333,112.7,1080.25,112.7C1082.6666666666667,112.7,1085.0833333333333,112.7,1087.5,112.7C1089.9166666666667,112.7,1092.3333333333333,112.7,1094.75,112.7C1097.1666666666667,112.7,1099.5833333333333,112.7,1102,112.7C1104.4166666666667,112.7,1106.8333333333333,112.7,1109.25,112.7C1111.6666666666667,112.7,1114.0833333333333,112.7,1116.5,112.7C1118.9166666666667,112.7,1121.3333333333333,112.7,1123.75,112.7C1126.1666666666667,112.7,1128.5833333333333,112.7,1131,112.7C1133.4166666666667,112.7,1135.8333333333333,112.7,1138.25,112.7C1140.6666666666667,112.7,1143.0833333333333,112.7,1145.5,112.7C1147.9166666666667,112.7,1150.3333333333333,112.7,1152.75,112.7C1155.1666666666667,112.7,1157.5833333333333,112.7,1160,112.7C1162.4166666666667,112.7,1164.8333333333333,112.7,1167.25,112.7C1169.6666666666667,112.7,1172.0833333333333,112.7,1174.5,112.7C1176.9166666666667,112.7,1179.3333333333333,112.7,1181.75,112.7C1184.1666666666667,112.7,1186.5833333333333,112.7,1189,112.7C1191.4166666666667,112.7,1193.8333333333333,112.7,1196.25,112.7C1198.6666666666667,112.7,1201.0833333333333,112.7,1203.5,112.7C1205.9166666666667,112.7,1208.3333333333333,112.7,1210.75,112.7C1213.1666666666667,112.7,1215.5833333333333,112.7,1218,112.7C1220.4166666666667,112.7,1222.8333333333333,112.7,1225.25,112.7C1227.6666666666667,112.7,1230.0833333333333,112.7,1232.5,112.7C1234.9166666666667,112.7,1237.3333333333333,112.7,1239.75,112.7C1242.1666666666667,112.7,1244.5833333333333,112.7,1247,112.7C1249.4166666666667,112.7,1251.8333333333333,112.7,1254.25,112.7C1256.6666666666667,112.7,1259.0833333333333,112.7,1261.5,112.7C1263.9166666666667,112.7,1266.3333333333333,112.7,1268.75,112.7C1271.1666666666667,112.7,1273.5833333333333,112.7,1276,112.7C1278.4166666666667,112.7,1280.8333333333333,112.7,1283.25,112.7C1285.6666666666667,112.7,1288.0833333333333,112.7,1290.5,112.7C1292.9166666666667,112.7,1295.3333333333333,112.7,1297.75,112.7C1300.1666666666667,112.7,1302.5833333333333,112.7,1305,112.7C1307.4166666666667,112.7,1309.8333333333333,112.7,1312.25,112.7C1314.6666666666667,112.7,1317.0833333333333,112.7,1319.5,112.7C1321.9166666666667,112.7,1324.3333333333333,112.7,1326.75,112.7C1329.1666666666667,112.7,1331.5833333333333,112.7,1334,112.7C1336.4166666666667,112.7,1338.8333333333333,112.7,1341.25,112.7C1343.6666666666667,112.7,1346.0833333333333,112.7,1348.5,112.7C1350.9166666666667,112.7,1353.3333333333333,112.7,1355.75,112.7C1358.1666666666667,112.7,1360.5833333333333,112.7,1363,112.7C1365.4166666666667,112.7,1367.8333333333333,112.7,1370.25,112.7C1372.6666666666667,112.7,1375.0833333333333,112.7,1377.5,112.7C1379.9166666666667,112.7,1382.3333333333333,112.7,1384.75,112.7C1387.1666666666667,112.7,1389.5833333333333,112.7,1392,112.7C1394.4166666666667,112.7,1396.8333333333333,112.7,1399.25,112.7C1401.6666666666667,112.7,1404.0833333333333,112.7,1406.5,112.7C1408.9166666666667,112.7,1411.3333333333333,112.7,1413.75,112.7C1416.1666666666667,112.7,1418.5833333333333,112.7,1421,112.7C1423.4166666666667,112.7,1425.8333333333333,112.7,1428.25,112.7C1430.6666666666667,112.7,1433.0833333333333,112.7,1435.5,112.7C1437.9166666666667,112.7,1440.3333333333333,112.7,1442.75,112.7C1445.1666666666667,112.7,1447.5833333333333,112.7,1450,112.7" fill="transparent" stroke-linecap="round" stroke="#E7C6DF" stroke-width="2"></path><g class="visx-group visx-axis visx-axis-bottom" transform="translate(0, 115)"><g class="visx-group visx-axis-tick" transform="translate(0, 0)"><line class="visx-line" x1="0" y1="0" x2="0" y2="8" fill="transparent" shape-rendering="crispEdges" stroke="#000" stroke-width="0" stroke-linecap="square"></line><svg x="0" y="0" font-size="10" style="overflow:visible"><text transform="" x="0" y="18" fill="#000" font-size="10" text-anchor="middle"><tspan x="0" dy="0em">0%</tspan></text></svg></g><g class="visx-group visx-axis-tick" transform="translate(0, 0)"><line class="visx-line" x1="362.5" y1="0" x2="362.5" y2="8" fill="transparent" shape-rendering="crispEdges" stroke="#000" stroke-width="0" stroke-linecap="square"></line><svg x="0" y="0" font-size="10" style="overflow:visible"><text transform="" x="362.5" y="18" fill="#000" font-size="10" text-anchor="middle"><tspan x="362.5" dy="0em">25%</tspan></text></svg></g><g class="visx-group visx-axis-tick" transform="translate(0, 0)"><line class="visx-line" x1="725" y1="0" x2="725" y2="8" fill="transparent" shape-rendering="crispEdges" stroke="#000" stroke-width="0" stroke-linecap="square"></line><svg x="0" y="0" font-size="10" style="overflow:visible"><text transform="" x="725" y="18" fill="#000" font-size="10" text-anchor="middle"><tspan x="725" dy="0em">50%</tspan></text></svg></g><g class="visx-group visx-axis-tick" transform="translate(0, 0)"><line class="visx-line" x1="1087.5" y1="0" x2="1087.5" y2="8" fill="transparent" shape-rendering="crispEdges" stroke="#000" stroke-width="0" stroke-linecap="square"></line><svg x="0" y="0" font-size="10" style="overflow:visible"><text transform="" x="1087.5" y="18" fill="#000" font-size="10" text-anchor="middle"><tspan x="1087.5" dy="0em">75%</tspan></text></svg></g><g class="visx-group visx-axis-tick" transform="translate(0, 0)"><line class="visx-line" x1="1450" y1="0" x2="1450" y2="8" fill="transparent" shape-rendering="crispEdges" stroke="#000" stroke-width="0" stroke-linecap="square"></line><svg x="0" y="0" font-size="10" style="overflow:visible"><text transform="" x="1450" y="18" fill="#000" font-size="10" text-anchor="middle"><tspan x="1450" dy="0em">100%</tspan></text></svg></g><line class="visx-line visx-axis-line" x1="0.5" y1="0" x2="1450.5" y2="0" fill="transparent" shape-rendering="crispEdges" stroke="#222" stroke-width="0"></line></g><g class="visx-group visx-axis visx-axis-left" transform="translate(0, 0)"><g class="visx-group visx-axis-tick" transform="translate(0, 0)"><line class="visx-line" x1="0" y1="115" x2="-8" y2="115" fill="transparent" shape-rendering="crispEdges" stroke="#222" stroke-width="0" stroke-linecap="square"></line><svg x="-30" y="0" font-size="8" style="overflow:visible"><text transform="" x="-8" y="115" fill="#000" font-size="8" text-anchor="start"><tspan x="-8" dy="0em">0%</tspan></text></svg></g><g class="visx-group visx-axis-tick" transform="translate(0, 0)"><line class="visx-line" x1="0" y1="73.92857142857142" x2="-8" y2="73.92857142857142" fill="transparent" shape-rendering="crispEdges" stroke="#222" stroke-width="0" stroke-linecap="square"></line><svg x="-30" y="0" font-size="8" style="overflow:visible"><text transform="" x="-8" y="73.92857142857142" fill="#000" font-size="8" text-anchor="start"><tspan x="-8" dy="0em">50%</tspan></text></svg></g><g class="visx-group visx-axis-tick" transform="translate(0, 0)"><line class="visx-line" x1="0" y1="32.857142857142854" x2="-8" y2="32.857142857142854" fill="transparent" shape-rendering="crispEdges" stroke="#222" stroke-width="0" stroke-linecap="square"></line><svg x="-30" y="0" font-size="8" style="overflow:visible"><text transform="" x="-8" y="32.857142857142854" fill="#000" font-size="8" text-anchor="start"><tspan x="-8" dy="0em">100%</tspan></text></svg></g><line class="visx-line visx-axis-line" x1="0" y1="115.5" x2="0" y2="0.5" fill="transparent" shape-rendering="crispEdges" stroke="#222" stroke-width="0"></line></g><rect class="visx-bar" width="1450" height="115" fill="transparent"></rect><line class="visx-line" x1="1305" y1="28" x2="1305" y2="115" fill="transparent" shape-rendering="crispEdges" stroke="#0062D2" stroke-width="1" pointer-events="none" stroke-dasharray="5,2"></line><svg x="0" y="0" font-size="10px" style="overflow:visible"><text transform="" x="1305" y="20" font-size="10px" fill="#fff" stroke="#fff" stroke-width="0.8em" text-anchor="middle"><tspan x="1305" dy="0.355em">Optimal 90%</tspan></text></svg><svg x="0" y="0" font-size="10px" style="overflow:visible"><text transform="" x="1305" y="20" font-size="10px" fill="#62677B" text-anchor="middle"><tspan x="1305" dy="0.355em">Optimal 90%</tspan></text></svg></g></svg>