<?xml version="1.0"?><svg xmlns="http://www.w3.org/2000/svg" xmlns:xlink= "http://www.w3.org/1999/xlink" style="background: white;" width="1500" height="185"> <g style="color: black; font-size: 13px; font-family: sans-serif; transform: translate(18px, 25px);"><g><circle r="3" cx="-6" cy="-5" style="fill: #B6509E" /><text>Borrow APR, variable</text></g><g style="transform: translateX(150px);"><circle r="3" cx="-6" cy="-5" style="fill: rgb(231, 198, 223)" /><text>Borrow APR, stable</text></g><g style="transform: translateX(290px);"><circle r="3" cx="-6" cy="-5" style="fill: rgb(0, 98, 210)" /><text>Utilization Rate</text></g></g><g class="visx-group" transform="translate(40, 50)"><g class="visx-group visx-rows" transform="translate(0, 0)"><line class="visx-line" x1="0" y1="115" x2="1450" y2="115" fill="transparent" shape-rendering="crispEdges" stroke="#000" stroke-width="1" stroke-dasharray="3,3" pointer-events="none"></line><line class="visx-line" x1="0" y1="69" x2="1450" y2="69" fill="transparent" shape-rendering="crispEdges" stroke="#000" stroke-width="1" stroke-dasharray="3,3" pointer-events="none"></line><line class="visx-line" x1="0" y1="22.999999999999996" x2="1450" y2="22.999999999999996" fill="transparent" shape-rendering="crispEdges" stroke="#000" stroke-width="1" stroke-dasharray="3,3" pointer-events="none"></line></g><path class="visx-linepath" d="M0,114.99999999891561C2.4166666666666665,114.81926775782972,4.833333333333334,114.63853551674383,7.25,114.45780327538684C9.666666666666666,114.27707103402985,12.083333333333334,114.0963387923114,14.5,113.91560655077367C16.916666666666668,113.73487430923595,19.333333333333332,113.55414206769824,21.75,113.37340982616051C24.166666666666668,113.19267758462279,26.583333333333332,113.01194534308507,29,112.83121310154735C31.416666666666668,112.65048086000962,33.833333333333336,112.4697486184719,36.25,112.28901637693419C38.666666666666664,112.10828413539647,41.083333333333336,111.92755189385876,43.5,111.74681965232104C45.91666666666667,111.56608741078331,48.333333333333336,111.38535516924559,50.75000000000001,111.20462292770786C53.16666666666667,111.02389068617013,55.583333333333336,110.84315844463241,58,110.6624262030947C60.416666666666664,110.48169396155697,62.833333333333336,110.30096172001926,65.25,110.12022947848155C67.66666666666667,109.93949723694384,70.08333333333333,109.75876499540611,72.5,109.57803275386838C74.91666666666667,109.39730051233066,77.33333333333333,109.21656827079293,79.75,109.03583602925521C82.16666666666667,108.85510378771748,84.58333333333333,108.67437154617977,87,108.49363930464206C89.41666666666667,108.31290706310435,91.83333333333333,108.13217482156662,94.25,107.9514425800289C96.66666666666667,107.77071033849117,99.08333333333334,107.58997809695346,101.50000000000001,107.40924585541573C103.91666666666667,107.22851361387801,106.33333333333334,107.04778137234028,108.75,106.86704913080256C111.16666666666667,106.68631688926483,113.58333333333333,106.50558464772712,116,106.32485240618941C118.41666666666667,106.14412016465168,120.83333333333334,105.96338792311397,123.25000000000001,105.78265568157624C125.66666666666667,105.60192344003852,128.08333333333334,105.42119119850081,130.5,105.24045895696308C132.91666666666666,105.05972671542536,135.33333333333334,104.87899447388764,137.75,104.69826223234992C140.16666666666666,104.51752999081219,142.58333333333334,104.33679774927448,145,104.15606550773676C147.41666666666666,103.97533326619903,149.83333333333334,103.79460102466132,152.25,103.61386878312359C154.66666666666666,103.43313654158587,157.08333333333334,103.25240430004816,159.5,103.07167205851043C161.91666666666666,102.8909398169727,164.33333333333334,102.71020757543499,166.75,102.52947533389727C169.16666666666666,102.34874309235954,171.58333333333334,102.16801085082183,174,101.9872786092841C176.41666666666666,101.80654636774638,178.83333333333334,101.62581412620865,181.25,101.44508188467094C183.66666666666666,101.26434964313323,186.08333333333334,101.08361740159552,188.5,100.90288516005779C190.91666666666666,100.72215291852007,193.33333333333334,100.54142067698234,195.75,100.36068843544462C198.16666666666669,100.17995619390689,200.58333333333334,99.99922395236918,203.00000000000003,99.81849171083145C205.41666666666669,99.63775946929374,207.83333333333331,99.45702722775602,210.24999999999997,99.2762949862183C212.66666666666666,99.09556274468058,215.08333333333331,98.91483050314287,217.5,98.73409826160514C219.91666666666666,98.55336602006741,222.33333333333334,98.3726337785297,224.75,98.19190153699198C227.16666666666666,98.01116929545425,229.58333333333334,97.83043705391654,232,97.64970481237881C234.41666666666666,97.46897257084109,236.83333333333334,97.28824032930338,239.25,97.10750808776565C241.66666666666669,96.92677584622793,244.08333333333334,96.74604360469021,246.50000000000003,96.56531136315249C248.91666666666669,96.38457912161478,251.33333333333331,96.20384688007707,253.74999999999997,96.02311463853934C256.16666666666663,95.84238239700161,258.5833333333333,95.66165015546387,261,95.48091791392615C263.4166666666667,95.30018567238842,265.8333333333333,95.11945343085071,268.25,94.938721189313C270.6666666666667,94.75798894777529,273.0833333333333,94.57725670623756,275.5,94.39652446469984C277.9166666666667,94.21579222316211,280.3333333333333,94.0350599816244,282.75,93.85432774008667C285.1666666666667,93.67359549854895,287.5833333333333,93.49286325701124,290,93.31213101547351C292.4166666666667,93.13139877393579,294.8333333333333,92.95066653239807,297.25,92.76993429086035C299.6666666666667,92.58920204932262,302.0833333333333,92.4084698077849,304.5,92.22773756624719C306.9166666666667,92.04700532470947,309.3333333333333,91.86627308317176,311.75,91.68554084163404C314.1666666666667,91.50480860009631,316.5833333333333,91.32407635855859,319,91.14334411702086C321.4166666666667,90.96261187548313,323.8333333333333,90.78187963394541,326.25,90.6011473924077C328.6666666666667,90.42041515086999,331.0833333333333,90.23968290933226,333.5,90.05895066779455C335.9166666666667,89.87821842625684,338.3333333333333,89.69748618471911,340.75,89.51675394318139C343.1666666666667,89.33602170164366,345.5833333333333,89.15528946010593,348,88.97455721856821C350.4166666666667,88.79382497703048,352.8333333333333,88.61309273549276,355.25,88.43236049395504C357.6666666666667,88.25162825241733,360.0833333333333,88.07089601087961,362.5,87.8901637693419C364.9166666666667,87.70943152780418,367.3333333333333,87.52869928626646,369.75,87.34796704472873C372.1666666666667,87.16723480319101,374.5833333333333,86.9865025616533,377,86.80577032011557C379.4166666666667,86.62503807857784,381.8333333333333,86.44430583704012,384.25,86.2635735955024C386.6666666666667,86.08284135396467,389.0833333333333,85.90210911242696,391.5,85.72137687088924C393.9166666666667,85.54064462935152,396.33333333333337,85.35991238781381,398.75000000000006,85.17918014627608C401.16666666666674,84.99844790473836,403.58333333333337,84.81771566320064,406.00000000000006,84.63698342166292C408.4166666666667,84.4562511801252,410.8333333333333,84.27551893858748,413.24999999999994,84.09478669704976C415.66666666666663,83.91405445551203,418.08333333333326,83.73332221397432,420.49999999999994,83.55258997243659C422.91666666666663,83.37185773089887,425.3333333333333,83.19112548936116,427.75,83.01039324782343C430.1666666666667,82.82966100628572,432.5833333333333,82.648928764748,435,82.46819652321028C437.4166666666667,82.28746428167256,439.8333333333333,82.10673204013483,442.25,81.9259997985971C444.6666666666667,81.74526755705938,447.0833333333333,81.56453531552167,449.5,81.38380307398394C451.9166666666667,81.20307083244622,454.3333333333333,81.02233859090849,456.75,80.84160634937078C459.1666666666667,80.66087410783307,461.5833333333333,80.48014186629536,464,80.29940962475763C466.4166666666667,80.1186773832199,468.8333333333333,79.93794514168218,471.25,79.75721290014445C473.6666666666667,79.57648065860673,476.0833333333333,79.39574841706903,478.5,79.2150161755313C480.9166666666667,79.03428393399358,483.33333333333337,78.85355169245585,485.75000000000006,78.67281945091813C488.16666666666674,78.4920872093804,490.58333333333337,78.3113549678427,493.00000000000006,78.13062272630498C495.4166666666667,77.94989048476725,497.8333333333333,77.76915824322953,500.24999999999994,77.5884260016918C502.66666666666663,77.40769376015407,505.08333333333326,77.22696151861636,507.49999999999994,77.04622927707865C509.91666666666663,76.86549703554093,512.3333333333333,76.68476479400321,514.75,76.50403255246549C517.1666666666666,76.32330031092776,519.5833333333334,76.14256806939005,522,75.96183582785233C524.4166666666666,75.7811035863146,526.8333333333334,75.60037134477687,529.25,75.41963910323915C531.6666666666666,75.23890686170142,534.0833333333334,75.05817462016371,536.5,74.877442378626C538.9166666666666,74.69671013708829,541.3333333333334,74.51597789555056,543.75,74.33524565401284C546.1666666666666,74.15451341247511,548.5833333333334,73.9737811709374,551,73.79304892939967C553.4166666666666,73.61231668786195,555.8333333333334,73.43158444632424,558.25,73.25085220478651C560.6666666666666,73.07011996324879,563.0833333333334,72.88938772171107,565.5,72.70865548017335C567.9166666666666,72.52792323863562,570.3333333333334,72.34719099709791,572.75,72.16645875556019C575.1666666666666,71.98572651402246,577.5833333333334,71.80499427248475,580,71.62426203094702C582.4166666666666,71.4435297894093,584.8333333333334,71.26279754787159,587.25,71.08206530633386C589.6666666666666,70.90133306479613,592.0833333333334,70.72060082325842,594.5,70.5398685817207C596.9166666666666,70.35913634018297,599.3333333333334,70.17840409864525,601.75,69.99767185710753C604.1666666666666,69.81693961556982,606.5833333333334,69.6362073740321,609,69.45547513249439C611.4166666666666,69.27474289095667,613.8333333333334,69.09401064941895,616.25,68.91327840788122C618.6666666666666,68.7325461663435,621.0833333333334,68.55181392480577,623.5,68.37108168326805C625.9166666666666,68.19034944173032,628.3333333333334,68.0096172001926,630.75,67.82888495865488C633.1666666666666,67.64815271711717,635.5833333333334,67.46742047557944,638,67.28668823404173C640.4166666666666,67.10595599250402,642.8333333333334,66.9252237509663,645.25,66.74449150942857C647.6666666666666,66.56375926789084,650.0833333333334,66.38302702635312,652.5,66.2022947848154C654.9166666666666,66.02156254327767,657.3333333333334,65.84083030173996,659.75,65.66009806020224C662.1666666666666,65.47936581866453,664.5833333333334,65.29863357712681,667,65.11790133558908C669.4166666666666,64.93716909405136,671.8333333333334,64.75643685251364,674.25,64.57570461097592C676.6666666666666,64.3949723694382,679.0833333333334,64.21424012790048,681.5,64.03350788636276C683.9166666666666,63.85277564482504,686.3333333333334,63.67204340328731,688.75,63.49131116174959C691.1666666666666,63.310578920211874,693.5833333333334,63.12984667867415,696,62.94911443713643C698.4166666666666,62.76838219559871,700.8333333333334,62.58764995406098,703.25,62.40691771252326C705.6666666666666,62.22618547098554,708.0833333333334,62.045453229447816,710.5,61.8647209879101C712.9166666666666,61.68398874637238,715.3333333333334,61.50325650483466,717.75,61.32252426329694C720.1666666666666,61.14179202175922,722.5833333333334,60.96105978022151,725,60.78032753868379C727.4166666666666,60.599595297146074,729.8333333333334,60.41886305560834,732.25,60.23813081407062C734.6666666666666,60.057398572532904,737.0833333333334,59.87666633099518,739.5,59.69593408945746C741.9166666666666,59.51520184791974,744.3333333333334,59.33446960638201,746.75,59.15373736484429C749.1666666666666,58.97300512330657,751.5833333333334,58.792272881768845,754,58.61154064023113C756.4166666666666,58.43080839869341,758.8333333333334,58.25007615715569,761.25,58.06934391561797C763.6666666666666,57.88861167408025,766.0833333333334,57.707879432542526,768.5,57.52714719100481C770.9166666666666,57.34641494946709,773.3333333333334,57.16568270792936,775.75,56.984950466391645C778.1666666666666,56.804218224853926,780.5833333333334,56.62348598331621,783,56.44275374177849C785.4166666666667,56.26202150024077,787.8333333333334,56.08128925870305,790.2500000000001,55.900557017165326C792.6666666666667,55.71982477562761,795.0833333333335,55.539092534089875,797.5000000000001,55.358360292552156C799.9166666666667,55.17762805101444,802.3333333333335,54.99689580947672,804.7500000000001,54.816163567939C807.1666666666667,54.63543132640128,809.5833333333335,54.45469908486356,812.0000000000001,54.27396684332584C814.4166666666667,54.09323460178812,816.8333333333333,53.91250236025039,819.2499999999999,53.731770118712674C821.6666666666665,53.55103787717495,824.0833333333333,53.37030563563722,826.4999999999999,53.189573394099504C828.9166666666665,53.008841152561786,831.3333333333333,52.82810891102406,833.7499999999999,52.64737666948634C836.1666666666665,52.46664442794862,838.5833333333333,52.285912186410904,840.9999999999999,52.105179944873186C843.4166666666666,51.92444770333547,845.8333333333333,51.74371546179776,848.25,51.56298322026004C850.6666666666666,51.38225097872232,853.0833333333334,51.20151873718457,855.5,51.02078649564685C857.9166666666666,50.840054254109134,860.3333333333334,50.65932201257142,862.75,50.478589771033704C865.1666666666666,50.297857529495985,867.5833333333334,50.11712528795825,870,49.936393046420534C872.4166666666666,49.755660804882815,874.8333333333334,49.57492856334509,877.25,49.39419632180737C879.6666666666666,49.21346408026965,882.0833333333334,49.032731838731934,884.5,48.851999597194215C886.9166666666666,48.6712673556565,889.3333333333334,48.49053511411877,891.75,48.30980287258105C894.1666666666666,48.129070631043334,896.5833333333334,47.948338389505615,899,47.767606147967896C901.4166666666666,47.58687390643018,903.8333333333334,47.40614166489246,906.25,47.22540942335473C908.6666666666666,47.04467718181701,911.0833333333334,46.863944940279275,913.5,46.683212698741556C915.9166666666666,46.50248045720384,918.3333333333334,46.32174821566612,920.75,46.1410159741284C923.1666666666666,45.96028373259068,925.5833333333334,45.77955149105296,928,45.598819249515245C930.4166666666666,45.418087007977526,932.8333333333334,45.2373547664398,935.25,45.05662252490208C937.6666666666666,44.87589028336436,940.0833333333334,44.69515804182663,942.5,44.51442580028891C944.9166666666666,44.33369355875119,947.3333333333334,44.15296131721347,949.75,43.97222907567575C952.1666666666666,43.79149683413803,954.5833333333334,43.61076459260031,957,43.43003235106259C959.4166666666666,43.249300109524874,961.8333333333334,43.06856786798715,964.25,42.88783562644943C966.6666666666667,42.707103384911704,969.0833333333334,42.526371143373986,971.5000000000001,42.34563890183627C973.9166666666667,42.16490666029855,976.3333333333335,41.98417441876083,978.7500000000001,41.80344217722311C981.1666666666667,41.62270993568539,983.5833333333335,41.44197769414767,986.0000000000001,41.26124545260994C988.4166666666667,41.080513211072216,990.8333333333335,40.89978096953449,993.2500000000001,40.719048727996764C995.6666666666667,40.538316486459046,998.0833333333333,40.35758424492133,1000.4999999999999,40.176852003383615C1002.9166666666665,39.9961197618459,1005.3333333333333,39.81538752030818,1007.7499999999999,39.63465527877046C1010.1666666666665,39.45392303723274,1012.5833333333333,39.27319079569502,1014.9999999999999,39.092458554157304C1017.4166666666665,38.911726312619585,1019.8333333333333,38.730994071081845,1022.2499999999999,38.55026182954413C1024.6666666666665,38.3695295880064,1027.0833333333333,38.188797346468704,1029.5,38.00806510493098C1031.9166666666667,37.82733286339326,1034.3333333333333,37.64660062185551,1036.75,37.465868380317794C1039.1666666666667,37.285136138780075,1041.5833333333333,37.10440389724236,1044,36.923671655704645C1046.4166666666667,36.742939414166926,1048.8333333333333,36.56220717262921,1051.25,36.38147493109149C1053.6666666666667,36.20074268955377,1056.0833333333333,36.02001044801603,1058.5,35.83927820647831C1060.9166666666667,35.65854596494059,1063.3333333333333,35.477813723402875,1065.75,35.297081481865156C1068.1666666666667,35.11634924032744,1070.5833333333333,34.93561699878971,1073,34.75488475725199C1075.4166666666667,34.574152515714275,1077.8333333333333,34.393420274176556,1080.25,34.21268803263884C1082.6666666666667,34.03195579110112,1085.0833333333333,33.85122354956339,1087.5,33.670491308025674C1089.9166666666667,33.489759066487956,1092.3333333333333,33.30902682495024,1094.75,33.12829458341252C1097.1666666666667,32.9475623418748,1099.5833333333333,32.76683010033708,1102,32.586097858799356C1104.4166666666667,32.40536561726163,1106.8333333333333,32.2246333757239,1109.25,32.04390113418618C1111.6666666666667,31.863168892648456,1114.0833333333333,31.68243665111074,1116.5,31.501704409573023C1118.9166666666667,31.320972168035304,1121.3333333333333,31.140239926497575,1123.75,30.959507684959856C1126.1666666666667,30.778775443422138,1128.5833333333333,30.598043201884423,1131,30.417310960346704C1133.4166666666667,30.236578718808985,1135.8333333333333,30.055846477271256,1138.25,29.875114235733538C1140.6666666666667,29.69438199419582,1143.0833333333333,29.513649752658107,1145.5,29.332917511120385C1147.9166666666667,29.152185269582663,1150.3333333333333,28.97145302804493,1152.75,28.790720786507205C1155.1666666666667,28.60998854496948,1157.5833333333333,28.429256303431757,1160,28.248524061894038C1162.4166666666667,28.06779182035632,1164.8333333333333,27.887059578818604,1167.25,27.706327337280886C1169.6666666666667,27.525595095743167,1172.0833333333333,27.344862854205438,1174.5,27.16413061266772C1176.9166666666667,26.98339837113,1179.3333333333333,26.802666129592286,1181.75,26.621933888054567C1184.1666666666667,26.44120164651685,1186.5833333333333,26.26046940497912,1189,26.0797371634414C1191.4166666666667,25.899004921903682,1193.8333333333333,25.71827268036597,1196.25,25.53754043882825C1198.6666666666667,25.356808197290526,1201.0833333333333,25.17607595575279,1203.5,24.995343714215068C1205.9166666666667,24.814611472677345,1208.3333333333333,24.633879231139634,1210.75,24.453146989601915C1213.1666666666667,24.272414748064197,1215.5833333333333,24.091682506526485,1218,23.910950264988763C1220.4166666666667,23.73021802345104,1222.8333333333333,23.549485781913308,1225.25,23.368753540375586C1227.6666666666667,23.188021298837864,1230.0833333333333,23.007289057300152,1232.5,22.82655681576243C1234.9166666666667,22.645824574224708,1237.3333333333333,22.465092332686975,1239.75,22.284360091149253C1242.1666666666667,22.10362784961153,1244.5833333333333,21.92289560807382,1247,21.7421633665361C1249.4166666666667,21.561431124998382,1251.8333333333333,21.380698883460653,1254.25,21.199966641922934C1256.6666666666667,21.019234400385216,1259.0833333333333,20.838502158847497,1261.5,20.65776991730978C1263.9166666666667,20.47703767577206,1266.3333333333333,20.29630543423435,1268.75,20.115573192696626C1271.1666666666667,19.934840951158904,1273.5833333333333,19.75410870962117,1276,19.57337646808345C1278.4166666666667,19.392644226545727,1280.8333333333333,19.211911985008015,1283.25,19.031179743470297C1285.6666666666667,18.850447501932578,1288.0833333333333,18.66971526039485,1290.5,18.48898301885713C1292.9166666666667,18.30825077731941,1295.3333333333333,18.127518535781697,1297.75,17.946786294243974C1300.1666666666667,17.766054052706252,1302.5833333333333,17.58532181116852,1305,17.404589569630797C1307.4166666666667,17.223857328093075,1309.8333333333333,17.043125086555364,1312.25,16.862392845017645C1314.6666666666667,16.681660603479926,1317.0833333333333,16.50092836194221,1319.5,16.32019612040449C1321.9166666666667,16.139463878866767,1324.3333333333333,15.958731637329034,1326.75,15.777999395791312C1329.1666666666667,15.59726715425359,1331.5833333333333,15.41653491271588,1334,15.23580267117816C1336.4166666666667,15.05507042964044,1338.8333333333333,14.874338188102714,1341.25,14.693605946564993C1343.6666666666667,14.512873705027273,1346.0833333333333,14.332141463489561,1348.5,14.15140922195184C1350.9166666666667,13.970676980414117,1353.3333333333333,13.789944738876384,1355.75,13.609212497338662C1358.1666666666667,13.42848025580094,1360.5833333333333,13.247748014263228,1363,13.067015772725508C1365.4166666666667,12.886283531187788,1367.8333333333333,12.705551289650062,1370.25,12.524819048112342C1372.6666666666667,12.344086806574621,1375.0833333333333,11.98262232349919,1377.5,11.98262232349919C1379.9166666666667,11.98262232349919,1382.3333333333333,11.98262232349919,1384.75,11.98262232349919C1387.1666666666667,11.98262232349919,1389.5833333333333,11.98262232349919,1392,11.98262232349919C1394.4166666666667,11.98262232349919,1396.8333333333333,11.98262232349919,1399.25,11.98262232349919C1401.6666666666667,11.98262232349919,1404.0833333333333,11.98262232349919,1406.5,11.98262232349919C1408.9166666666667,11.98262232349919,1411.3333333333333,11.98262232349919,1413.75,11.98262232349919C1416.1666666666667,11.98262232349919,1418.5833333333333,11.98262232349919,1421,11.98262232349919C1423.4166666666667,11.98262232349919,1425.8333333333333,11.98262232349919,1428.25,11.98262232349919C1430.6666666666667,11.98262232349919,1433.0833333333333,11.98262232349919,1435.5,11.98262232349919C1437.9166666666667,11.98262232349919,1440.3333333333333,11.98262232349919,1442.75,11.98262232349919C1445.1666666666667,11.98262232349919,1447.5833333333333,11.98262232349919,1450,11.98262232349919" fill="transparent" stroke-linecap="round" stroke="#B6509E" stroke-width="2"></path><path class="visx-linepath" d="M0,11.98262232349919C2.4166666666666665,11.98262232349919,4.833333333333334,11.98262232349919,7.25,11.98262232349919C9.666666666666666,11.98262232349919,12.083333333333334,11.98262232349919,14.5,11.98262232349919C16.916666666666668,11.98262232349919,19.333333333333332,11.98262232349919,21.75,11.98262232349919C24.166666666666668,11.98262232349919,26.583333333333332,11.98262232349919,29,11.98262232349919C31.416666666666668,11.98262232349919,33.833333333333336,11.98262232349919,36.25,11.98262232349919C38.666666666666664,11.98262232349919,41.083333333333336,11.98262232349919,43.5,11.98262232349919C45.91666666666667,11.98262232349919,48.333333333333336,11.98262232349919,50.75000000000001,11.98262232349919C53.16666666666667,11.98262232349919,55.583333333333336,11.98262232349919,58,11.98262232349919C60.416666666666664,11.98262232349919,62.833333333333336,11.98262232349919,65.25,11.98262232349919C67.66666666666667,11.98262232349919,70.08333333333333,11.98262232349919,72.5,11.98262232349919C74.91666666666667,11.98262232349919,77.33333333333333,11.98262232349919,79.75,11.98262232349919C82.16666666666667,11.98262232349919,84.58333333333333,11.98262232349919,87,11.98262232349919C89.41666666666667,11.98262232349919,91.83333333333333,11.98262232349919,94.25,11.98262232349919C96.66666666666667,11.98262232349919,99.08333333333334,11.98262232349919,101.50000000000001,11.98262232349919C103.91666666666667,11.98262232349919,106.33333333333334,11.98262232349919,108.75,11.98262232349919C111.16666666666667,11.98262232349919,113.58333333333333,11.98262232349919,116,11.98262232349919C118.41666666666667,11.98262232349919,120.83333333333334,11.98262232349919,123.25000000000001,11.98262232349919C125.66666666666667,11.98262232349919,128.08333333333334,11.98262232349919,130.5,11.98262232349919C132.91666666666666,11.98262232349919,135.33333333333334,11.98262232349919,137.75,11.98262232349919C140.16666666666666,11.98262232349919,142.58333333333334,11.98262232349919,145,11.98262232349919C147.41666666666666,11.98262232349919,149.83333333333334,11.98262232349919,152.25,11.98262232349919C154.66666666666666,11.98262232349919,157.08333333333334,11.98262232349919,159.5,11.98262232349919C161.91666666666666,11.98262232349919,164.33333333333334,11.98262232349919,166.75,11.98262232349919C169.16666666666666,11.98262232349919,171.58333333333334,11.98262232349919,174,11.98262232349919C176.41666666666666,11.98262232349919,178.83333333333334,11.98262232349919,181.25,11.98262232349919C183.66666666666666,11.98262232349919,186.08333333333334,11.98262232349919,188.5,11.98262232349919C190.91666666666666,11.98262232349919,193.33333333333334,11.98262232349919,195.75,11.98262232349919C198.16666666666669,11.98262232349919,200.58333333333334,11.98262232349919,203.00000000000003,11.98262232349919C205.41666666666669,11.98262232349919,207.83333333333331,11.98262232349919,210.24999999999997,11.98262232349919C212.66666666666666,11.98262232349919,215.08333333333331,11.98262232349919,217.5,11.98262232349919C219.91666666666666,11.98262232349919,222.33333333333334,11.98262232349919,224.75,11.98262232349919C227.16666666666666,11.98262232349919,229.58333333333334,11.98262232349919,232,11.98262232349919C234.41666666666666,11.98262232349919,236.83333333333334,11.98262232349919,239.25,11.98262232349919C241.66666666666669,11.98262232349919,244.08333333333334,11.98262232349919,246.50000000000003,11.98262232349919C248.91666666666669,11.98262232349919,251.33333333333331,11.98262232349919,253.74999999999997,11.98262232349919C256.16666666666663,11.98262232349919,258.5833333333333,11.98262232349919,261,11.98262232349919C263.4166666666667,11.98262232349919,265.8333333333333,11.98262232349919,268.25,11.98262232349919C270.6666666666667,11.98262232349919,273.0833333333333,11.98262232349919,275.5,11.98262232349919C277.9166666666667,11.98262232349919,280.3333333333333,11.98262232349919,282.75,11.98262232349919C285.1666666666667,11.98262232349919,287.5833333333333,11.98262232349919,290,11.98262232349919C292.4166666666667,11.98262232349919,294.8333333333333,11.98262232349919,297.25,11.98262232349919C299.6666666666667,11.98262232349919,302.0833333333333,11.98262232349919,304.5,11.98262232349919C306.9166666666667,11.98262232349919,309.3333333333333,11.98262232349919,311.75,11.98262232349919C314.1666666666667,11.98262232349919,316.5833333333333,11.98262232349919,319,11.98262232349919C321.4166666666667,11.98262232349919,323.8333333333333,11.98262232349919,326.25,11.98262232349919C328.6666666666667,11.98262232349919,331.0833333333333,11.98262232349919,333.5,11.98262232349919C335.9166666666667,11.98262232349919,338.3333333333333,11.98262232349919,340.75,11.98262232349919C343.1666666666667,11.98262232349919,345.5833333333333,11.98262232349919,348,11.98262232349919C350.4166666666667,11.98262232349919,352.8333333333333,11.98262232349919,355.25,11.98262232349919C357.6666666666667,11.98262232349919,360.0833333333333,11.98262232349919,362.5,11.98262232349919C364.9166666666667,11.98262232349919,367.3333333333333,11.98262232349919,369.75,11.98262232349919C372.1666666666667,11.98262232349919,374.5833333333333,11.98262232349919,377,11.98262232349919C379.4166666666667,11.98262232349919,381.8333333333333,11.98262232349919,384.25,11.98262232349919C386.6666666666667,11.98262232349919,389.0833333333333,11.98262232349919,391.5,11.98262232349919C393.9166666666667,11.98262232349919,396.33333333333337,11.98262232349919,398.75000000000006,11.98262232349919C401.16666666666674,11.98262232349919,403.58333333333337,11.98262232349919,406.00000000000006,11.98262232349919C408.4166666666667,11.98262232349919,410.8333333333333,11.98262232349919,413.24999999999994,11.98262232349919C415.66666666666663,11.98262232349919,418.08333333333326,11.98262232349919,420.49999999999994,11.98262232349919C422.91666666666663,11.98262232349919,425.3333333333333,11.98262232349919,427.75,11.98262232349919C430.1666666666667,11.98262232349919,432.5833333333333,11.98262232349919,435,11.98262232349919C437.4166666666667,11.98262232349919,439.8333333333333,11.98262232349919,442.25,11.98262232349919C444.6666666666667,11.98262232349919,447.0833333333333,11.98262232349919,449.5,11.98262232349919C451.9166666666667,11.98262232349919,454.3333333333333,11.98262232349919,456.75,11.98262232349919C459.1666666666667,11.98262232349919,461.5833333333333,11.98262232349919,464,11.98262232349919C466.4166666666667,11.98262232349919,468.8333333333333,11.98262232349919,471.25,11.98262232349919C473.6666666666667,11.98262232349919,476.0833333333333,11.98262232349919,478.5,11.98262232349919C480.9166666666667,11.98262232349919,483.33333333333337,11.98262232349919,485.75000000000006,11.98262232349919C488.16666666666674,11.98262232349919,490.58333333333337,11.98262232349919,493.00000000000006,11.98262232349919C495.4166666666667,11.98262232349919,497.8333333333333,11.98262232349919,500.24999999999994,11.98262232349919C502.66666666666663,11.98262232349919,505.08333333333326,11.98262232349919,507.49999999999994,11.98262232349919C509.91666666666663,11.98262232349919,512.3333333333333,11.98262232349919,514.75,11.98262232349919C517.1666666666666,11.98262232349919,519.5833333333334,11.98262232349919,522,11.98262232349919C524.4166666666666,11.98262232349919,526.8333333333334,11.98262232349919,529.25,11.98262232349919C531.6666666666666,11.98262232349919,534.0833333333334,11.98262232349919,536.5,11.98262232349919C538.9166666666666,11.98262232349919,541.3333333333334,11.98262232349919,543.75,11.98262232349919C546.1666666666666,11.98262232349919,548.5833333333334,11.98262232349919,551,11.98262232349919C553.4166666666666,11.98262232349919,555.8333333333334,11.98262232349919,558.25,11.98262232349919C560.6666666666666,11.98262232349919,563.0833333333334,11.98262232349919,565.5,11.98262232349919C567.9166666666666,11.98262232349919,570.3333333333334,11.98262232349919,572.75,11.98262232349919C575.1666666666666,11.98262232349919,577.5833333333334,11.98262232349919,580,11.98262232349919C582.4166666666666,11.98262232349919,584.8333333333334,11.98262232349919,587.25,11.98262232349919C589.6666666666666,11.98262232349919,592.0833333333334,11.98262232349919,594.5,11.98262232349919C596.9166666666666,11.98262232349919,599.3333333333334,11.98262232349919,601.75,11.98262232349919C604.1666666666666,11.98262232349919,606.5833333333334,11.98262232349919,609,11.98262232349919C611.4166666666666,11.98262232349919,613.8333333333334,11.98262232349919,616.25,11.98262232349919C618.6666666666666,11.98262232349919,621.0833333333334,11.98262232349919,623.5,11.98262232349919C625.9166666666666,11.98262232349919,628.3333333333334,11.98262232349919,630.75,11.98262232349919C633.1666666666666,11.98262232349919,635.5833333333334,11.98262232349919,638,11.98262232349919C640.4166666666666,11.98262232349919,642.8333333333334,11.98262232349919,645.25,11.98262232349919C647.6666666666666,11.98262232349919,650.0833333333334,11.98262232349919,652.5,11.98262232349919C654.9166666666666,11.98262232349919,657.3333333333334,11.98262232349919,659.75,11.98262232349919C662.1666666666666,11.98262232349919,664.5833333333334,11.98262232349919,667,11.98262232349919C669.4166666666666,11.98262232349919,671.8333333333334,11.98262232349919,674.25,11.98262232349919C676.6666666666666,11.98262232349919,679.0833333333334,11.98262232349919,681.5,11.98262232349919C683.9166666666666,11.98262232349919,686.3333333333334,11.98262232349919,688.75,11.98262232349919C691.1666666666666,11.98262232349919,693.5833333333334,11.98262232349919,696,11.98262232349919C698.4166666666666,11.98262232349919,700.8333333333334,11.98262232349919,703.25,11.98262232349919C705.6666666666666,11.98262232349919,708.0833333333334,11.98262232349919,710.5,11.98262232349919C712.9166666666666,11.98262232349919,715.3333333333334,11.98262232349919,717.75,11.98262232349919C720.1666666666666,11.98262232349919,722.5833333333334,11.98262232349919,725,11.98262232349919C727.4166666666666,11.98262232349919,729.8333333333334,11.98262232349919,732.25,11.98262232349919C734.6666666666666,11.98262232349919,737.0833333333334,11.98262232349919,739.5,11.98262232349919C741.9166666666666,11.98262232349919,744.3333333333334,11.98262232349919,746.75,11.98262232349919C749.1666666666666,11.98262232349919,751.5833333333334,11.98262232349919,754,11.98262232349919C756.4166666666666,11.98262232349919,758.8333333333334,11.98262232349919,761.25,11.98262232349919C763.6666666666666,11.98262232349919,766.0833333333334,11.98262232349919,768.5,11.98262232349919C770.9166666666666,11.98262232349919,773.3333333333334,11.98262232349919,775.75,11.98262232349919C778.1666666666666,11.98262232349919,780.5833333333334,11.98262232349919,783,11.98262232349919C785.4166666666667,11.98262232349919,787.8333333333334,11.98262232349919,790.2500000000001,11.98262232349919C792.6666666666667,11.98262232349919,795.0833333333335,11.98262232349919,797.5000000000001,11.98262232349919C799.9166666666667,11.98262232349919,802.3333333333335,11.98262232349919,804.7500000000001,11.98262232349919C807.1666666666667,11.98262232349919,809.5833333333335,11.98262232349919,812.0000000000001,11.98262232349919C814.4166666666667,11.98262232349919,816.8333333333333,11.98262232349919,819.2499999999999,11.98262232349919C821.6666666666665,11.98262232349919,824.0833333333333,11.98262232349919,826.4999999999999,11.98262232349919C828.9166666666665,11.98262232349919,831.3333333333333,11.98262232349919,833.7499999999999,11.98262232349919C836.1666666666665,11.98262232349919,838.5833333333333,11.98262232349919,840.9999999999999,11.98262232349919C843.4166666666666,11.98262232349919,845.8333333333333,11.98262232349919,848.25,11.98262232349919C850.6666666666666,11.98262232349919,853.0833333333334,11.98262232349919,855.5,11.98262232349919C857.9166666666666,11.98262232349919,860.3333333333334,11.98262232349919,862.75,11.98262232349919C865.1666666666666,11.98262232349919,867.5833333333334,11.98262232349919,870,11.98262232349919C872.4166666666666,11.98262232349919,874.8333333333334,11.98262232349919,877.25,11.98262232349919C879.6666666666666,11.98262232349919,882.0833333333334,11.98262232349919,884.5,11.98262232349919C886.9166666666666,11.98262232349919,889.3333333333334,11.98262232349919,891.75,11.98262232349919C894.1666666666666,11.98262232349919,896.5833333333334,11.98262232349919,899,11.98262232349919C901.4166666666666,11.98262232349919,903.8333333333334,11.98262232349919,906.25,11.98262232349919C908.6666666666666,11.98262232349919,911.0833333333334,11.98262232349919,913.5,11.98262232349919C915.9166666666666,11.98262232349919,918.3333333333334,11.98262232349919,920.75,11.98262232349919C923.1666666666666,11.98262232349919,925.5833333333334,11.98262232349919,928,11.98262232349919C930.4166666666666,11.98262232349919,932.8333333333334,11.98262232349919,935.25,11.98262232349919C937.6666666666666,11.98262232349919,940.0833333333334,11.98262232349919,942.5,11.98262232349919C944.9166666666666,11.98262232349919,947.3333333333334,11.98262232349919,949.75,11.98262232349919C952.1666666666666,11.98262232349919,954.5833333333334,11.98262232349919,957,11.98262232349919C959.4166666666666,11.98262232349919,961.8333333333334,11.98262232349919,964.25,11.98262232349919C966.6666666666667,11.98262232349919,969.0833333333334,11.98262232349919,971.5000000000001,11.98262232349919C973.9166666666667,11.98262232349919,976.3333333333335,11.98262232349919,978.7500000000001,11.98262232349919C981.1666666666667,11.98262232349919,983.5833333333335,11.98262232349919,986.0000000000001,11.98262232349919C988.4166666666667,11.98262232349919,990.8333333333335,11.98262232349919,993.2500000000001,11.98262232349919C995.6666666666667,11.98262232349919,998.0833333333333,11.98262232349919,1000.4999999999999,11.98262232349919C1002.9166666666665,11.98262232349919,1005.3333333333333,11.98262232349919,1007.7499999999999,11.98262232349919C1010.1666666666665,11.98262232349919,1012.5833333333333,11.98262232349919,1014.9999999999999,11.98262232349919C1017.4166666666665,11.98262232349919,1019.8333333333333,11.98262232349919,1022.2499999999999,11.98262232349919C1024.6666666666665,11.98262232349919,1027.0833333333333,11.98262232349919,1029.5,11.98262232349919C1031.9166666666667,11.98262232349919,1034.3333333333333,11.98262232349919,1036.75,11.98262232349919C1039.1666666666667,11.98262232349919,1041.5833333333333,11.98262232349919,1044,11.98262232349919C1046.4166666666667,11.98262232349919,1048.8333333333333,11.98262232349919,1051.25,11.98262232349919C1053.6666666666667,11.98262232349919,1056.0833333333333,11.98262232349919,1058.5,11.98262232349919C1060.9166666666667,11.98262232349919,1063.3333333333333,11.98262232349919,1065.75,11.98262232349919C1068.1666666666667,11.98262232349919,1070.5833333333333,11.98262232349919,1073,11.98262232349919C1075.4166666666667,11.98262232349919,1077.8333333333333,11.98262232349919,1080.25,11.98262232349919C1082.6666666666667,11.98262232349919,1085.0833333333333,11.98262232349919,1087.5,11.98262232349919C1089.9166666666667,11.98262232349919,1092.3333333333333,11.98262232349919,1094.75,11.98262232349919C1097.1666666666667,11.98262232349919,1099.5833333333333,11.98262232349919,1102,11.98262232349919C1104.4166666666667,11.98262232349919,1106.8333333333333,11.98262232349919,1109.25,11.98262232349919C1111.6666666666667,11.98262232349919,1114.0833333333333,11.98262232349919,1116.5,11.98262232349919C1118.9166666666667,11.98262232349919,1121.3333333333333,11.98262232349919,1123.75,11.98262232349919C1126.1666666666667,11.98262232349919,1128.5833333333333,11.98262232349919,1131,11.98262232349919C1133.4166666666667,11.98262232349919,1135.8333333333333,11.98262232349919,1138.25,11.98262232349919C1140.6666666666667,11.98262232349919,1143.0833333333333,11.98262232349919,1145.5,11.98262232349919C1147.9166666666667,11.98262232349919,1150.3333333333333,11.98262232349919,1152.75,11.98262232349919C1155.1666666666667,11.98262232349919,1157.5833333333333,11.98262232349919,1160,11.98262232349919C1162.4166666666667,11.98262232349919,1164.8333333333333,11.98262232349919,1167.25,11.98262232349919C1169.6666666666667,11.98262232349919,1172.0833333333333,11.98262232349919,1174.5,11.98262232349919C1176.9166666666667,11.98262232349919,1179.3333333333333,11.98262232349919,1181.75,11.98262232349919C1184.1666666666667,11.98262232349919,1186.5833333333333,11.98262232349919,1189,11.98262232349919C1191.4166666666667,11.98262232349919,1193.8333333333333,11.98262232349919,1196.25,11.98262232349919C1198.6666666666667,11.98262232349919,1201.0833333333333,11.98262232349919,1203.5,11.98262232349919C1205.9166666666667,11.98262232349919,1208.3333333333333,11.98262232349919,1210.75,11.98262232349919C1213.1666666666667,11.98262232349919,1215.5833333333333,11.98262232349919,1218,11.98262232349919C1220.4166666666667,11.98262232349919,1222.8333333333333,11.98262232349919,1225.25,11.98262232349919C1227.6666666666667,11.98262232349919,1230.0833333333333,11.98262232349919,1232.5,11.98262232349919C1234.9166666666667,11.98262232349919,1237.3333333333333,11.98262232349919,1239.75,11.98262232349919C1242.1666666666667,11.98262232349919,1244.5833333333333,11.98262232349919,1247,11.98262232349919C1249.4166666666667,11.98262232349919,1251.8333333333333,11.98262232349919,1254.25,11.98262232349919C1256.6666666666667,11.98262232349919,1259.0833333333333,11.98262232349919,1261.5,11.98262232349919C1263.9166666666667,11.98262232349919,1266.3333333333333,11.98262232349919,1268.75,11.98262232349919C1271.1666666666667,11.98262232349919,1273.5833333333333,11.98262232349919,1276,11.98262232349919C1278.4166666666667,11.98262232349919,1280.8333333333333,11.98262232349919,1283.25,11.98262232349919C1285.6666666666667,11.98262232349919,1288.0833333333333,11.98262232349919,1290.5,11.98262232349919C1292.9166666666667,11.98262232349919,1295.3333333333333,11.98262232349919,1297.75,11.98262232349919C1300.1666666666667,11.98262232349919,1302.5833333333333,11.98262232349919,1305,11.98262232349919C1307.4166666666667,11.98262232349919,1309.8333333333333,11.98262232349919,1312.25,11.98262232349919C1314.6666666666667,11.98262232349919,1317.0833333333333,11.98262232349919,1319.5,11.98262232349919C1321.9166666666667,11.98262232349919,1324.3333333333333,11.98262232349919,1326.75,11.98262232349919C1329.1666666666667,11.98262232349919,1331.5833333333333,11.98262232349919,1334,11.98262232349919C1336.4166666666667,11.98262232349919,1338.8333333333333,11.98262232349919,1341.25,11.98262232349919C1343.6666666666667,11.98262232349919,1346.0833333333333,11.98262232349919,1348.5,11.98262232349919C1350.9166666666667,11.98262232349919,1353.3333333333333,11.98262232349919,1355.75,11.98262232349919C1358.1666666666667,11.98262232349919,1360.5833333333333,11.98262232349919,1363,11.98262232349919C1365.4166666666667,11.98262232349919,1367.8333333333333,11.98262232349919,1370.25,11.98262232349919C1372.6666666666667,11.98262232349919,1375.0833333333333,11.98262232349919,1377.5,11.98262232349919C1379.9166666666667,11.98262232349919,1382.3333333333333,11.98262232349919,1384.75,11.98262232349919C1387.1666666666667,11.98262232349919,1389.5833333333333,11.98262232349919,1392,11.98262232349919C1394.4166666666667,11.98262232349919,1396.8333333333333,11.98262232349919,1399.25,11.98262232349919C1401.6666666666667,11.98262232349919,1404.0833333333333,11.98262232349919,1406.5,11.98262232349919C1408.9166666666667,11.98262232349919,1411.3333333333333,11.98262232349919,1413.75,11.98262232349919C1416.1666666666667,11.98262232349919,1418.5833333333333,11.98262232349919,1421,11.98262232349919C1423.4166666666667,11.98262232349919,1425.8333333333333,11.98262232349919,1428.25,11.98262232349919C1430.6666666666667,11.98262232349919,1433.0833333333333,11.98262232349919,1435.5,11.98262232349919C1437.9166666666667,11.98262232349919,1440.3333333333333,11.98262232349919,1442.75,11.98262232349919C1445.1666666666667,11.98262232349919,1447.5833333333333,11.98262232349919,1450,11.98262232349919" fill="transparent" stroke-linecap="round" stroke="#E7C6DF" stroke-width="2"></path><g class="visx-group visx-axis visx-axis-bottom" transform="translate(0, 115)"><g class="visx-group visx-axis-tick" transform="translate(0, 0)"><line class="visx-line" x1="0" y1="0" x2="0" y2="8" fill="transparent" shape-rendering="crispEdges" stroke="#000" stroke-width="0" stroke-linecap="square"></line><svg x="0" y="0" font-size="10" style="overflow:visible"><text transform="" x="0" y="18" fill="#000" font-size="10" text-anchor="middle"><tspan x="0" dy="0em">0%</tspan></text></svg></g><g class="visx-group visx-axis-tick" transform="translate(0, 0)"><line class="visx-line" x1="362.5" y1="0" x2="362.5" y2="8" fill="transparent" shape-rendering="crispEdges" stroke="#000" stroke-width="0" stroke-linecap="square"></line><svg x="0" y="0" font-size="10" style="overflow:visible"><text transform="" x="362.5" y="18" fill="#000" font-size="10" text-anchor="middle"><tspan x="362.5" dy="0em">25%</tspan></text></svg></g><g class="visx-group visx-axis-tick" transform="translate(0, 0)"><line class="visx-line" x1="725" y1="0" x2="725" y2="8" fill="transparent" shape-rendering="crispEdges" stroke="#000" stroke-width="0" stroke-linecap="square"></line><svg x="0" y="0" font-size="10" style="overflow:visible"><text transform="" x="725" y="18" fill="#000" font-size="10" text-anchor="middle"><tspan x="725" dy="0em">50%</tspan></text></svg></g><g class="visx-group visx-axis-tick" transform="translate(0, 0)"><line class="visx-line" x1="1087.5" y1="0" x2="1087.5" y2="8" fill="transparent" shape-rendering="crispEdges" stroke="#000" stroke-width="0" stroke-linecap="square"></line><svg x="0" y="0" font-size="10" style="overflow:visible"><text transform="" x="1087.5" y="18" fill="#000" font-size="10" text-anchor="middle"><tspan x="1087.5" dy="0em">75%</tspan></text></svg></g><g class="visx-group visx-axis-tick" transform="translate(0, 0)"><line class="visx-line" x1="1450" y1="0" x2="1450" y2="8" fill="transparent" shape-rendering="crispEdges" stroke="#000" stroke-width="0" stroke-linecap="square"></line><svg x="0" y="0" font-size="10" style="overflow:visible"><text transform="" x="1450" y="18" fill="#000" font-size="10" text-anchor="middle"><tspan x="1450" dy="0em">100%</tspan></text></svg></g><line class="visx-line visx-axis-line" x1="0.5" y1="0" x2="1450.5" y2="0" fill="transparent" shape-rendering="crispEdges" stroke="#222" stroke-width="0"></line></g><g class="visx-group visx-axis visx-axis-left" transform="translate(0, 0)"><g class="visx-group visx-axis-tick" transform="translate(0, 0)"><line class="visx-line" x1="0" y1="115" x2="-8" y2="115" fill="transparent" shape-rendering="crispEdges" stroke="#222" stroke-width="0" stroke-linecap="square"></line><svg x="-30" y="0" font-size="8" style="overflow:visible"><text transform="" x="-8" y="115" fill="#000" font-size="8" text-anchor="start"><tspan x="-8" dy="0em">0%</tspan></text></svg></g><g class="visx-group visx-axis-tick" transform="translate(0, 0)"><line class="visx-line" x1="0" y1="69" x2="-8" y2="69" fill="transparent" shape-rendering="crispEdges" stroke="#222" stroke-width="0" stroke-linecap="square"></line><svg x="-30" y="0" font-size="8" style="overflow:visible"><text transform="" x="-8" y="69" fill="#000" font-size="8" text-anchor="start"><tspan x="-8" dy="0em">2%</tspan></text></svg></g><g class="visx-group visx-axis-tick" transform="translate(0, 0)"><line class="visx-line" x1="0" y1="22.999999999999996" x2="-8" y2="22.999999999999996" fill="transparent" shape-rendering="crispEdges" stroke="#222" stroke-width="0" stroke-linecap="square"></line><svg x="-30" y="0" font-size="8" style="overflow:visible"><text transform="" x="-8" y="22.999999999999996" fill="#000" font-size="8" text-anchor="start"><tspan x="-8" dy="0em">4%</tspan></text></svg></g><line class="visx-line visx-axis-line" x1="0" y1="115.5" x2="0" y2="0.5" fill="transparent" shape-rendering="crispEdges" stroke="#222" stroke-width="0"></line></g><rect class="visx-bar" width="1450" height="115" fill="transparent"></rect><line class="visx-line" x1="1377.5" y1="28" x2="1377.5" y2="115" fill="transparent" shape-rendering="crispEdges" stroke="#0062D2" stroke-width="1" pointer-events="none" stroke-dasharray="5,2"></line><svg x="0" y="0" font-size="10px" style="overflow:visible"><text transform="" x="1377.5" y="20" font-size="10px" fill="#fff" stroke="#fff" stroke-width="0.8em" text-anchor="middle"><tspan x="1377.5" dy="0.355em">Optimal 95%</tspan></text></svg><svg x="0" y="0" font-size="10px" style="overflow:visible"><text transform="" x="1377.5" y="20" font-size="10px" fill="#62677B" text-anchor="middle"><tspan x="1377.5" dy="0.355em">Optimal 95%</tspan></text></svg></g></svg>