<?xml version="1.0"?><svg xmlns="http://www.w3.org/2000/svg" xmlns:xlink= "http://www.w3.org/1999/xlink" style="background: white;" width="1500" height="185"> <g style="color: black; font-size: 13px; font-family: sans-serif; transform: translate(18px, 25px);"><g><circle r="3" cx="-6" cy="-5" style="fill: #B6509E" /><text>Borrow APR, variable</text></g><g style="transform: translateX(150px);"><circle r="3" cx="-6" cy="-5" style="fill: rgb(231, 198, 223)" /><text>Borrow APR, stable</text></g><g style="transform: translateX(290px);"><circle r="3" cx="-6" cy="-5" style="fill: rgb(0, 98, 210)" /><text>Utilization Rate</text></g></g><g class="visx-group" transform="translate(40, 50)"><g class="visx-group visx-rows" transform="translate(0, 0)"><line class="visx-line" x1="0" y1="115" x2="1450" y2="115" fill="transparent" shape-rendering="crispEdges" stroke="#000" stroke-width="1" stroke-dasharray="3,3" pointer-events="none"></line><line class="visx-line" x1="0" y1="86.25" x2="1450" y2="86.25" fill="transparent" shape-rendering="crispEdges" stroke="#000" stroke-width="1" stroke-dasharray="3,3" pointer-events="none"></line><line class="visx-line" x1="0" y1="57.5" x2="1450" y2="57.5" fill="transparent" shape-rendering="crispEdges" stroke="#000" stroke-width="1" stroke-dasharray="3,3" pointer-events="none"></line><line class="visx-line" x1="0" y1="28.75" x2="1450" y2="28.75" fill="transparent" shape-rendering="crispEdges" stroke="#000" stroke-width="1" stroke-dasharray="3,3" pointer-events="none"></line><line class="visx-line" x1="0" y1="0" x2="1450" y2="0" fill="transparent" shape-rendering="crispEdges" stroke="#000" stroke-width="1" stroke-dasharray="3,3" pointer-events="none"></line></g><path class="visx-linepath" d="M0,114.99999999958914C2.4166666666666665,114.93152358130087,4.833333333333334,114.86304716301258,7.25,114.7945707446216C9.666666666666666,114.72609432623061,12.083333333333334,114.65761790770266,14.5,114.58914148924319C16.916666666666668,114.52066507078372,19.333333333333332,114.45218865232425,21.75,114.38371223386478C24.166666666666668,114.31523581540532,26.583333333333332,114.24675939694586,29,114.1782829784864C31.416666666666668,114.10980656002693,33.833333333333336,114.04133014156744,36.25,113.97285372310797C38.666666666666664,113.9043773046485,41.083333333333336,113.83590088618904,43.5,113.76742446772957C45.91666666666667,113.6989480492701,48.333333333333336,113.63047163081063,50.75000000000001,113.56199521235116C53.16666666666667,113.4935187938917,55.583333333333336,113.42504237543223,58,113.35656595697276C60.416666666666664,113.28808953851329,62.833333333333336,113.21961312005382,65.25,113.15113670159435C67.66666666666667,113.08266028313489,70.08333333333333,113.01418386467543,72.5,112.94570744621596C74.91666666666667,112.8772310277565,77.33333333333333,112.80875460929703,79.75,112.74027819083756C82.16666666666667,112.67180177237809,84.58333333333333,112.60332535391862,87,112.53484893545915C89.41666666666667,112.46637251699968,91.83333333333333,112.3978960985402,94.25,112.32941968008073C96.66666666666667,112.26094326162126,99.08333333333334,112.1924668431618,101.50000000000001,112.12399042470233C103.91666666666667,112.05551400624286,106.33333333333334,111.98703758778339,108.75,111.91856116932392C111.16666666666667,111.85008475086445,113.58333333333333,111.78160833240499,116,111.71313191394552C118.41666666666667,111.64465549548605,120.83333333333334,111.5761790770266,123.25000000000001,111.50770265856713C125.66666666666667,111.43922624010766,128.08333333333334,111.37074982164819,130.5,111.30227340318872C132.91666666666666,111.23379698472925,135.33333333333334,111.16532056626978,137.75,111.09684414781032C140.16666666666666,111.02836772935085,142.58333333333334,110.95989131089138,145,110.89141489243191C147.41666666666666,110.82293847397244,149.83333333333334,110.75446205551297,152.25,110.6859856370535C154.66666666666666,110.61750921859404,157.08333333333334,110.54903280013455,159.5,110.48055638167509C161.91666666666666,110.41207996321562,164.33333333333334,110.34360354475616,166.75,110.2751271262967C169.16666666666666,110.20665070783723,171.58333333333334,110.13817428937776,174,110.06969787091829C176.41666666666666,110.00122145245882,178.83333333333334,109.93274503399935,181.25,109.86426861553988C183.66666666666666,109.79579219708042,186.08333333333334,109.72731577862095,188.5,109.65883936016148C190.91666666666666,109.59036294170201,193.33333333333334,109.52188652324254,195.75,109.45341010478307C198.16666666666669,109.3849336863236,200.58333333333334,109.31645726786414,203.00000000000003,109.24798084940467C205.41666666666669,109.1795044309452,207.83333333333331,109.11102801248573,210.24999999999997,109.04255159402626C212.66666666666666,108.9740751755668,215.08333333333331,108.90559875710733,217.5,108.83712233864786C219.91666666666666,108.76864592018839,222.33333333333334,108.70016950172892,224.75,108.63169308326945C227.16666666666666,108.56321666480999,229.58333333333334,108.49474024635052,232,108.42626382789105C234.41666666666666,108.35778740943158,236.83333333333334,108.28931099097211,239.25,108.22083457251264C241.66666666666669,108.15235815405318,244.08333333333334,108.0838817355937,246.50000000000003,108.01540531713424C248.91666666666669,107.94692889867477,251.33333333333331,107.8784524802153,253.74999999999997,107.80997606175583C256.16666666666663,107.74149964329636,258.5833333333333,107.6730232248369,261,107.60454680637743C263.4166666666667,107.53607038791796,265.8333333333333,107.4675939694585,268.25,107.39911755099904C270.6666666666667,107.33064113253957,273.0833333333333,107.2621647140801,275.5,107.19368829562063C277.9166666666667,107.12521187716116,280.3333333333333,107.0567354587017,282.75,106.98825904024223C285.1666666666667,106.91978262178276,287.5833333333333,106.85130620332328,290,106.78282978486381C292.4166666666667,106.71435336640434,294.8333333333333,106.64587694794487,297.25,106.5774005294854C299.6666666666667,106.50892411102593,302.0833333333333,106.44044769256647,304.5,106.371971274107C306.9166666666667,106.30349485564753,309.3333333333333,106.23501843718807,311.75,106.1665420187286C314.1666666666667,106.09806560026914,316.5833333333333,106.02958918180967,319,105.9611127633502C321.4166666666667,105.89263634489073,323.8333333333333,105.82415992643126,326.25,105.7556835079718C328.6666666666667,105.68720708951233,331.0833333333333,105.61873067105286,333.5,105.55025425259339C335.9166666666667,105.48177783413392,338.3333333333333,105.41330141567444,340.75,105.34482499721497C343.1666666666667,105.2763485787555,345.5833333333333,105.20787216029603,348,105.13939574183657C350.4166666666667,105.0709193233771,352.8333333333333,105.00244290491763,355.25,104.93396648645816C357.6666666666667,104.86549006799869,360.0833333333333,104.79701364953924,362.5,104.72853723107977C364.9166666666667,104.6600608126203,367.3333333333333,104.59158439416083,369.75,104.52310797570136C372.1666666666667,104.4546315572419,374.5833333333333,104.38615513878243,377,104.31767872032296C379.4166666666667,104.24920230186349,381.8333333333333,104.18072588340402,384.25,104.11224946494455C386.6666666666667,104.04377304648509,389.0833333333333,103.97529662802562,391.5,103.90682020956615C393.9166666666667,103.83834379110668,396.33333333333337,103.76986737264721,398.75000000000006,103.70139095418774C401.16666666666674,103.63291453572828,403.58333333333337,103.5644381172688,406.00000000000006,103.49596169880934C408.4166666666667,103.42748528034987,410.8333333333333,103.3590088618904,413.24999999999994,103.29053244343093C415.66666666666663,103.22205602497147,418.08333333333326,103.153579606512,420.49999999999994,103.08510318805253C422.91666666666663,103.01662676959306,425.3333333333333,102.94815035113359,427.75,102.87967393267412C430.1666666666667,102.81119751421465,432.5833333333333,102.74272109575519,435,102.67424467729572C437.4166666666667,102.60576825883625,439.8333333333333,102.53729184037678,442.25,102.46881542191731C444.6666666666667,102.40033900345784,447.0833333333333,102.33186258499838,449.5,102.26338616653891C451.9166666666667,102.19490974807944,454.3333333333333,102.12643332961999,456.75,102.05795691116052C459.1666666666667,101.98948049270105,461.5833333333333,101.92100407424157,464,101.8525276557821C466.4166666666667,101.78405123732263,468.8333333333333,101.71557481886316,471.25,101.64709840040369C473.6666666666667,101.57862198194422,476.0833333333333,101.51014556348476,478.5,101.44166914502529C480.9166666666667,101.37319272656582,483.33333333333337,101.30471630810635,485.75000000000006,101.23623988964688C488.16666666666674,101.16776347118741,490.58333333333337,101.09928705272795,493.00000000000006,101.03081063426848C495.4166666666667,100.96233421580901,497.8333333333333,100.89385779734955,500.24999999999994,100.82538137889009C502.66666666666663,100.75690496043062,505.08333333333326,100.68842854197115,507.49999999999994,100.61995212351168C509.91666666666663,100.55147570505221,512.3333333333333,100.48299928659274,514.75,100.41452286813328C517.1666666666666,100.3460464496738,519.5833333333334,100.27757003121434,522,100.20909361275487C524.4166666666666,100.1406171942954,526.8333333333334,100.07214077583593,529.25,100.00366435737646C531.6666666666666,99.935187938917,534.0833333333334,99.86671152045753,536.5,99.79823510199806C538.9166666666666,99.72975868353859,541.3333333333334,99.66128226507911,543.75,99.59280584661964C546.1666666666666,99.52432942816017,548.5833333333334,99.45585300970072,551,99.38737659124125C553.4166666666666,99.31890017278178,555.8333333333334,99.25042375432231,558.25,99.18194733586284C560.6666666666666,99.11347091740338,563.0833333333334,99.04499449894391,565.5,98.97651808048444C567.9166666666666,98.90804166202497,570.3333333333334,98.8395652435655,572.75,98.77108882510603C575.1666666666666,98.70261240664657,577.5833333333334,98.63413598818708,580,98.56565956972761C582.4166666666666,98.49718315126815,584.8333333333334,98.42870673280868,587.25,98.36023031434921C589.6666666666666,98.29175389588974,592.0833333333334,98.22327747743029,594.5,98.15480105897082C596.9166666666666,98.08632464051135,599.3333333333334,98.01784822205188,601.75,97.94937180359241C604.1666666666666,97.88089538513294,606.5833333333334,97.81241896667348,609,97.74394254821401C611.4166666666666,97.67546612975454,613.8333333333334,97.60698971129507,616.25,97.5385132928356C618.6666666666666,97.47003687437613,621.0833333333334,97.40156045591667,623.5,97.3330840374572C625.9166666666666,97.26460761899773,628.3333333333334,97.19613120053826,630.75,97.12765478207879C633.1666666666666,97.05917836361932,635.5833333333334,96.99070194515986,638,96.92222552670039C640.4166666666666,96.85374910824092,642.8333333333334,96.78527268978146,645.25,96.716796271322C647.6666666666666,96.64831985286253,650.0833333333334,96.57984343440306,652.5,96.51136701594359C654.9166666666666,96.44289059748412,657.3333333333334,96.37441417902465,659.75,96.30593776056519C662.1666666666666,96.23746134210572,664.5833333333334,96.16898492364625,667,96.10050850518678C669.4166666666666,96.03203208672731,671.8333333333334,95.96355566826783,674.25,95.89507924980836C676.6666666666666,95.8266028313489,679.0833333333334,95.75812641288942,681.5,95.68964999442996C683.9166666666666,95.62117357597049,686.3333333333334,95.55269715751102,688.75,95.48422073905155C691.1666666666666,95.41574432059208,693.5833333333334,95.34726790213263,696,95.27879148367316C698.4166666666666,95.21031506521369,700.8333333333334,95.14183864675422,703.25,95.07336222829476C705.6666666666666,95.00488580983529,708.0833333333334,94.93640939137582,710.5,94.86793297291635C712.9166666666666,94.79945655445688,715.3333333333334,94.7309801359974,717.75,94.66250371753793C720.1666666666666,94.59402729907846,722.5833333333334,94.525550880619,725,94.45707446215953C727.4166666666666,94.38859804370006,729.8333333333334,94.32012162524059,732.25,94.25164520678112C734.6666666666666,94.18316878832165,737.0833333333334,94.1146923698622,739.5,94.04621595140273C741.9166666666666,93.97773953294326,744.3333333333334,93.90926311448379,746.75,93.84078669602432C749.1666666666666,93.77231027756486,751.5833333333334,93.70383385910539,754,93.63535744064592C756.4166666666666,93.56688102218645,758.8333333333334,93.49840460372698,761.25,93.42992818526751C763.6666666666666,93.36145176680805,766.0833333333334,93.29297534834858,768.5,93.22449892988911C770.9166666666666,93.15602251142964,773.3333333333334,93.08754609297017,775.75,93.0190696745107C778.1666666666666,92.95059325605123,780.5833333333334,92.88211683759177,783,92.8136404191323C785.4166666666667,92.74516400067283,787.8333333333334,92.67668758221336,790.2500000000001,92.6082111637539C792.6666666666667,92.53973474529442,795.0833333333335,92.47125832683496,797.5000000000001,92.40278190837549C799.9166666666667,92.33430548991602,802.3333333333335,92.26582907145655,804.7500000000001,92.19735265299708C807.1666666666667,92.12887623453761,809.5833333333335,92.06039981607815,812.0000000000001,91.99192339761868C814.4166666666667,91.92344697915921,816.8333333333333,91.85497056069974,819.2499999999999,91.78649414224027C821.6666666666665,91.7180177237808,824.0833333333333,91.64954130532134,826.4999999999999,91.58106488686187C828.9166666666665,91.5125884684024,831.3333333333333,91.44411204994293,833.7499999999999,91.37563563148346C836.1666666666665,91.307159213024,838.5833333333333,91.23868279456453,840.9999999999999,91.17020637610506C843.4166666666666,91.10172995764559,845.8333333333333,91.03325353918612,848.25,90.96477712072665C850.6666666666666,90.89630070226718,853.0833333333334,90.82782428380771,855.5,90.75934786534825C857.9166666666666,90.69087144688878,860.3333333333334,90.62239502842931,862.75,90.55391860996984C865.1666666666666,90.48544219151037,867.5833333333334,90.4169657730509,870,90.34848935459144C872.4166666666666,90.28001293613197,874.8333333333334,90.2115365176725,877.25,90.14306009921303C879.6666666666666,90.07458368075356,882.0833333333334,90.00610726229411,884.5,89.93763084383464C886.9166666666666,89.86915442537517,889.3333333333334,89.8006780069157,891.75,89.73220158845623C894.1666666666666,89.66372516999677,896.5833333333334,89.5952487515373,899,89.52677233307783C901.4166666666666,89.45829591461836,903.8333333333334,89.38981949615888,906.25,89.32134307769941C908.6666666666666,89.25286665923994,911.0833333333334,89.18439024078047,913.5,89.115913822321C915.9166666666666,89.04743740386154,918.3333333333334,88.97896098540207,920.75,88.9104845669426C923.1666666666666,88.84200814848313,925.5833333333334,88.77353173002368,928,88.70505531156421C930.4166666666666,88.63657889310474,932.8333333333334,88.56810247464527,935.25,88.4996260561858C937.6666666666666,88.43114963772634,940.0833333333334,88.36267321926687,942.5,88.2941968008074C944.9166666666666,88.22572038234793,947.3333333333334,88.15724396388846,949.75,88.088767545429C952.1666666666666,88.02029112696952,954.5833333333334,87.95181470851006,957,87.88333829005059C959.4166666666666,87.81486187159112,961.8333333333334,87.74638545313165,964.25,87.67790903467218C966.6666666666667,87.60943261621271,969.0833333333334,87.54095619775323,971.5000000000001,87.47247977929376C973.9166666666667,87.4040033608343,976.3333333333335,87.33552694237484,978.7500000000001,87.26705052391537C981.1666666666667,87.1985741054559,983.5833333333335,87.13009768699644,986.0000000000001,87.06162126853697C988.4166666666667,86.9931448500775,990.8333333333335,86.92466843161803,993.2500000000001,86.85619201315856C995.6666666666667,86.7877155946991,998.0833333333333,86.71923917623963,1000.4999999999999,86.65076275778016C1002.9166666666665,86.58228633932069,1005.3333333333333,86.51380992086122,1007.7499999999999,86.44533350240175C1010.1666666666665,86.37685708394228,1012.5833333333333,86.30838066548282,1014.9999999999999,86.23990424702335C1017.4166666666665,86.17142782856388,1019.8333333333333,86.10295141010441,1022.2499999999999,86.03447499164494C1024.6666666666665,85.96599857318547,1027.0833333333333,85.89752215472602,1029.5,85.82904573626655C1031.9166666666667,85.76056931780708,1034.3333333333333,85.69209289934761,1036.75,85.62361648088815C1039.1666666666667,85.55514006242868,1041.5833333333333,85.4866636439692,1044,85.41818722550973C1046.4166666666667,85.34971080705026,1048.8333333333333,85.28123438859079,1051.25,85.21275797013132C1053.6666666666667,85.14428155167185,1056.0833333333333,85.07580513321238,1058.5,85.00732871475292C1060.9166666666667,84.93885229629345,1063.3333333333333,84.87037587783398,1065.75,84.80189945937451C1068.1666666666667,84.73342304091504,1070.5833333333333,84.66494662245559,1073,84.59647020399612C1075.4166666666667,84.52799378553665,1077.8333333333333,84.45951736707718,1080.25,84.39104094861771C1082.6666666666667,84.32256453015825,1085.0833333333333,84.25408811169876,1087.5,84.1856116932393C1089.9166666666667,84.11713527477983,1092.3333333333333,84.04865885632036,1094.75,83.98018243786089C1097.1666666666667,83.91170601940142,1099.5833333333333,83.84322960094195,1102,83.77475318248248C1104.4166666666667,83.70627676402302,1106.8333333333333,83.63780034556355,1109.25,83.56932392710408C1111.6666666666667,83.50084750864461,1114.0833333333333,83.43237109018514,1116.5,83.36389467172567C1118.9166666666667,83.2954182532662,1121.3333333333333,83.22694183480675,1123.75,83.15846541634728C1126.1666666666667,83.08998899788782,1128.5833333333333,83.02151257942835,1131,82.95303616096888C1133.4166666666667,82.88455974250941,1135.8333333333333,82.81608332404994,1138.25,82.74760690559047C1140.6666666666667,82.679130487131,1143.0833333333333,82.61065406867154,1145.5,82.54217765021207C1147.9166666666667,82.4737012317526,1150.3333333333333,82.40522481329313,1152.75,82.33674839483366C1155.1666666666667,82.2682719763742,1157.5833333333333,82.19979555791471,1160,82.13131913945524C1162.4166666666667,82.06284272099577,1164.8333333333333,81.99436630253632,1167.25,81.92588988407685C1169.6666666666667,81.85741346561738,1172.0833333333333,81.78893704715792,1174.5,81.72046062869845C1176.9166666666667,81.65198421023898,1179.3333333333333,81.58350779177951,1181.75,81.51503137332004C1184.1666666666667,81.44655495486057,1186.5833333333333,81.3780785364011,1189,81.30960211794164C1191.4166666666667,81.24112569948217,1193.8333333333333,81.1726492810227,1196.25,81.10417286256323C1198.6666666666667,81.03569644410376,1201.0833333333333,80.9672200256443,1203.5,80.89874360718483C1205.9166666666667,80.83026718872536,1208.3333333333333,80.76179077026589,1210.75,80.69331435180642C1213.1666666666667,80.62483793334695,1215.5833333333333,80.55636151488748,1218,80.48788509642802C1220.4166666666667,80.41940867796855,1222.8333333333333,80.35093225950908,1225.25,80.28245584104961C1227.6666666666667,80.21397942259014,1230.0833333333333,80.14550300413067,1232.5,80.0770265856712C1234.9166666666667,80.00855016721174,1237.3333333333333,79.94007374875227,1239.75,79.8715973302928C1242.1666666666667,79.80312091183333,1244.5833333333333,79.73464449337386,1247,79.6661680749144C1249.4166666666667,79.59769165645493,1251.8333333333333,79.52921523799546,1254.25,79.46073881953599C1256.6666666666667,79.39226240107652,1259.0833333333333,79.32378598261705,1261.5,79.25530956415759C1263.9166666666667,79.18683314569812,1266.3333333333333,79.11835672723865,1268.75,79.04988030877918C1271.1666666666667,78.98140389031971,1273.5833333333333,78.91292747186024,1276,78.84445105340077C1278.4166666666667,78.7759746349413,1280.8333333333333,78.70749821648184,1283.25,78.63902179802237C1285.6666666666667,78.5705453795629,1288.0833333333333,78.50206896110343,1290.5,78.43359254264396C1292.9166666666667,78.3651161241845,1295.3333333333333,78.29663970572503,1297.75,78.22816328726556C1300.1666666666667,78.15968686880609,1302.5833333333333,78.09121045034662,1305,78.02273403188715C1307.4166666666667,77.95425761342769,1309.8333333333333,77.88578119496823,1312.25,77.81730477650876C1314.6666666666667,77.7488283580493,1317.0833333333333,77.68035193958983,1319.5,77.61187552113036C1321.9166666666667,77.54339910267089,1324.3333333333333,77.47492268421142,1326.75,77.40644626575195C1329.1666666666667,77.33796984729248,1331.5833333333333,77.26949342883302,1334,77.20101701037355C1336.4166666666667,77.13254059191408,1338.8333333333333,77.06406417345461,1341.25,76.99558775499514C1343.6666666666667,76.92711133653567,1346.0833333333333,76.85863491807619,1348.5,76.79015849961672C1350.9166666666667,76.72168208115725,1353.3333333333333,76.6532056626978,1355.75,76.58472924423833C1358.1666666666667,76.51625282577886,1360.5833333333333,76.4477764073194,1363,76.37929998885993C1365.4166666666667,76.31082357040046,1367.8333333333333,76.24234715194099,1370.25,76.17387073348152C1372.6666666666667,76.10539431502205,1375.0833333333333,76.10539431502205,1377.5,75.96844147810312C1379.9166666666667,75.83148864118418,1382.3333333333333,72.13510814476979,1384.75,70.21844147810312C1387.1666666666667,68.30177481143645,1389.5833333333333,66.38510814476977,1392,64.4684414781031C1394.4166666666667,62.55177481143644,1396.8333333333333,60.63510814476979,1399.25,58.718441478103124C1401.6666666666667,56.80177481143646,1404.0833333333333,54.885108144769774,1406.5,52.96844147810311C1408.9166666666667,51.051774811436445,1411.3333333333333,49.13510814476978,1413.75,47.21844147810312C1416.1666666666667,45.30177481143645,1418.5833333333333,43.385108144769774,1421,41.46844147810311C1423.4166666666667,39.551774811436445,1425.8333333333333,37.63510814476978,1428.25,35.71844147810312C1430.6666666666667,33.80177481143645,1433.0833333333333,31.885108144769795,1435.5,29.968441478103127C1437.9166666666667,28.05177481143646,1440.3333333333333,26.135108144769777,1442.75,24.21844147810311C1445.1666666666667,22.30177481143644,1447.5833333333333,20.385108144769777,1450,18.468441478103117" fill="transparent" stroke-linecap="round" stroke="#B6509E" stroke-width="2"></path><path class="visx-linepath" d="M0,75.96844147810312C2.4166666666666665,75.96844147810312,4.833333333333334,75.96844147810312,7.25,75.96844147810312C9.666666666666666,75.96844147810312,12.083333333333334,75.96844147810312,14.5,75.96844147810312C16.916666666666668,75.96844147810312,19.333333333333332,75.96844147810312,21.75,75.96844147810312C24.166666666666668,75.96844147810312,26.583333333333332,75.96844147810312,29,75.96844147810312C31.416666666666668,75.96844147810312,33.833333333333336,75.96844147810312,36.25,75.96844147810312C38.666666666666664,75.96844147810312,41.083333333333336,75.96844147810312,43.5,75.96844147810312C45.91666666666667,75.96844147810312,48.333333333333336,75.96844147810312,50.75000000000001,75.96844147810312C53.16666666666667,75.96844147810312,55.583333333333336,75.96844147810312,58,75.96844147810312C60.416666666666664,75.96844147810312,62.833333333333336,75.96844147810312,65.25,75.96844147810312C67.66666666666667,75.96844147810312,70.08333333333333,75.96844147810312,72.5,75.96844147810312C74.91666666666667,75.96844147810312,77.33333333333333,75.96844147810312,79.75,75.96844147810312C82.16666666666667,75.96844147810312,84.58333333333333,75.96844147810312,87,75.96844147810312C89.41666666666667,75.96844147810312,91.83333333333333,75.96844147810312,94.25,75.96844147810312C96.66666666666667,75.96844147810312,99.08333333333334,75.96844147810312,101.50000000000001,75.96844147810312C103.91666666666667,75.96844147810312,106.33333333333334,75.96844147810312,108.75,75.96844147810312C111.16666666666667,75.96844147810312,113.58333333333333,75.96844147810312,116,75.96844147810312C118.41666666666667,75.96844147810312,120.83333333333334,75.96844147810312,123.25000000000001,75.96844147810312C125.66666666666667,75.96844147810312,128.08333333333334,75.96844147810312,130.5,75.96844147810312C132.91666666666666,75.96844147810312,135.33333333333334,75.96844147810312,137.75,75.96844147810312C140.16666666666666,75.96844147810312,142.58333333333334,75.96844147810312,145,75.96844147810312C147.41666666666666,75.96844147810312,149.83333333333334,75.96844147810312,152.25,75.96844147810312C154.66666666666666,75.96844147810312,157.08333333333334,75.96844147810312,159.5,75.96844147810312C161.91666666666666,75.96844147810312,164.33333333333334,75.96844147810312,166.75,75.96844147810312C169.16666666666666,75.96844147810312,171.58333333333334,75.96844147810312,174,75.96844147810312C176.41666666666666,75.96844147810312,178.83333333333334,75.96844147810312,181.25,75.96844147810312C183.66666666666666,75.96844147810312,186.08333333333334,75.96844147810312,188.5,75.96844147810312C190.91666666666666,75.96844147810312,193.33333333333334,75.96844147810312,195.75,75.96844147810312C198.16666666666669,75.96844147810312,200.58333333333334,75.96844147810312,203.00000000000003,75.96844147810312C205.41666666666669,75.96844147810312,207.83333333333331,75.96844147810312,210.24999999999997,75.96844147810312C212.66666666666666,75.96844147810312,215.08333333333331,75.96844147810312,217.5,75.96844147810312C219.91666666666666,75.96844147810312,222.33333333333334,75.96844147810312,224.75,75.96844147810312C227.16666666666666,75.96844147810312,229.58333333333334,75.96844147810312,232,75.96844147810312C234.41666666666666,75.96844147810312,236.83333333333334,75.96844147810312,239.25,75.96844147810312C241.66666666666669,75.96844147810312,244.08333333333334,75.96844147810312,246.50000000000003,75.96844147810312C248.91666666666669,75.96844147810312,251.33333333333331,75.96844147810312,253.74999999999997,75.96844147810312C256.16666666666663,75.96844147810312,258.5833333333333,75.96844147810312,261,75.96844147810312C263.4166666666667,75.96844147810312,265.8333333333333,75.96844147810312,268.25,75.96844147810312C270.6666666666667,75.96844147810312,273.0833333333333,75.96844147810312,275.5,75.96844147810312C277.9166666666667,75.96844147810312,280.3333333333333,75.96844147810312,282.75,75.96844147810312C285.1666666666667,75.96844147810312,287.5833333333333,75.96844147810312,290,75.96844147810312C292.4166666666667,75.96844147810312,294.8333333333333,75.96844147810312,297.25,75.96844147810312C299.6666666666667,75.96844147810312,302.0833333333333,75.96844147810312,304.5,75.96844147810312C306.9166666666667,75.96844147810312,309.3333333333333,75.96844147810312,311.75,75.96844147810312C314.1666666666667,75.96844147810312,316.5833333333333,75.96844147810312,319,75.96844147810312C321.4166666666667,75.96844147810312,323.8333333333333,75.96844147810312,326.25,75.96844147810312C328.6666666666667,75.96844147810312,331.0833333333333,75.96844147810312,333.5,75.96844147810312C335.9166666666667,75.96844147810312,338.3333333333333,75.96844147810312,340.75,75.96844147810312C343.1666666666667,75.96844147810312,345.5833333333333,75.96844147810312,348,75.96844147810312C350.4166666666667,75.96844147810312,352.8333333333333,75.96844147810312,355.25,75.96844147810312C357.6666666666667,75.96844147810312,360.0833333333333,75.96844147810312,362.5,75.96844147810312C364.9166666666667,75.96844147810312,367.3333333333333,75.96844147810312,369.75,75.96844147810312C372.1666666666667,75.96844147810312,374.5833333333333,75.96844147810312,377,75.96844147810312C379.4166666666667,75.96844147810312,381.8333333333333,75.96844147810312,384.25,75.96844147810312C386.6666666666667,75.96844147810312,389.0833333333333,75.96844147810312,391.5,75.96844147810312C393.9166666666667,75.96844147810312,396.33333333333337,75.96844147810312,398.75000000000006,75.96844147810312C401.16666666666674,75.96844147810312,403.58333333333337,75.96844147810312,406.00000000000006,75.96844147810312C408.4166666666667,75.96844147810312,410.8333333333333,75.96844147810312,413.24999999999994,75.96844147810312C415.66666666666663,75.96844147810312,418.08333333333326,75.96844147810312,420.49999999999994,75.96844147810312C422.91666666666663,75.96844147810312,425.3333333333333,75.96844147810312,427.75,75.96844147810312C430.1666666666667,75.96844147810312,432.5833333333333,75.96844147810312,435,75.96844147810312C437.4166666666667,75.96844147810312,439.8333333333333,75.96844147810312,442.25,75.96844147810312C444.6666666666667,75.96844147810312,447.0833333333333,75.96844147810312,449.5,75.96844147810312C451.9166666666667,75.96844147810312,454.3333333333333,75.96844147810312,456.75,75.96844147810312C459.1666666666667,75.96844147810312,461.5833333333333,75.96844147810312,464,75.96844147810312C466.4166666666667,75.96844147810312,468.8333333333333,75.96844147810312,471.25,75.96844147810312C473.6666666666667,75.96844147810312,476.0833333333333,75.96844147810312,478.5,75.96844147810312C480.9166666666667,75.96844147810312,483.33333333333337,75.96844147810312,485.75000000000006,75.96844147810312C488.16666666666674,75.96844147810312,490.58333333333337,75.96844147810312,493.00000000000006,75.96844147810312C495.4166666666667,75.96844147810312,497.8333333333333,75.96844147810312,500.24999999999994,75.96844147810312C502.66666666666663,75.96844147810312,505.08333333333326,75.96844147810312,507.49999999999994,75.96844147810312C509.91666666666663,75.96844147810312,512.3333333333333,75.96844147810312,514.75,75.96844147810312C517.1666666666666,75.96844147810312,519.5833333333334,75.96844147810312,522,75.96844147810312C524.4166666666666,75.96844147810312,526.8333333333334,75.96844147810312,529.25,75.96844147810312C531.6666666666666,75.96844147810312,534.0833333333334,75.96844147810312,536.5,75.96844147810312C538.9166666666666,75.96844147810312,541.3333333333334,75.96844147810312,543.75,75.96844147810312C546.1666666666666,75.96844147810312,548.5833333333334,75.96844147810312,551,75.96844147810312C553.4166666666666,75.96844147810312,555.8333333333334,75.96844147810312,558.25,75.96844147810312C560.6666666666666,75.96844147810312,563.0833333333334,75.96844147810312,565.5,75.96844147810312C567.9166666666666,75.96844147810312,570.3333333333334,75.96844147810312,572.75,75.96844147810312C575.1666666666666,75.96844147810312,577.5833333333334,75.96844147810312,580,75.96844147810312C582.4166666666666,75.96844147810312,584.8333333333334,75.96844147810312,587.25,75.96844147810312C589.6666666666666,75.96844147810312,592.0833333333334,75.96844147810312,594.5,75.96844147810312C596.9166666666666,75.96844147810312,599.3333333333334,75.96844147810312,601.75,75.96844147810312C604.1666666666666,75.96844147810312,606.5833333333334,75.96844147810312,609,75.96844147810312C611.4166666666666,75.96844147810312,613.8333333333334,75.96844147810312,616.25,75.96844147810312C618.6666666666666,75.96844147810312,621.0833333333334,75.96844147810312,623.5,75.96844147810312C625.9166666666666,75.96844147810312,628.3333333333334,75.96844147810312,630.75,75.96844147810312C633.1666666666666,75.96844147810312,635.5833333333334,75.96844147810312,638,75.96844147810312C640.4166666666666,75.96844147810312,642.8333333333334,75.96844147810312,645.25,75.96844147810312C647.6666666666666,75.96844147810312,650.0833333333334,75.96844147810312,652.5,75.96844147810312C654.9166666666666,75.96844147810312,657.3333333333334,75.96844147810312,659.75,75.96844147810312C662.1666666666666,75.96844147810312,664.5833333333334,75.96844147810312,667,75.96844147810312C669.4166666666666,75.96844147810312,671.8333333333334,75.96844147810312,674.25,75.96844147810312C676.6666666666666,75.96844147810312,679.0833333333334,75.96844147810312,681.5,75.96844147810312C683.9166666666666,75.96844147810312,686.3333333333334,75.96844147810312,688.75,75.96844147810312C691.1666666666666,75.96844147810312,693.5833333333334,75.96844147810312,696,75.96844147810312C698.4166666666666,75.96844147810312,700.8333333333334,75.96844147810312,703.25,75.96844147810312C705.6666666666666,75.96844147810312,708.0833333333334,75.96844147810312,710.5,75.96844147810312C712.9166666666666,75.96844147810312,715.3333333333334,75.96844147810312,717.75,75.96844147810312C720.1666666666666,75.96844147810312,722.5833333333334,75.96844147810312,725,75.96844147810312C727.4166666666666,75.96844147810312,729.8333333333334,75.96844147810312,732.25,75.96844147810312C734.6666666666666,75.96844147810312,737.0833333333334,75.96844147810312,739.5,75.96844147810312C741.9166666666666,75.96844147810312,744.3333333333334,75.96844147810312,746.75,75.96844147810312C749.1666666666666,75.96844147810312,751.5833333333334,75.96844147810312,754,75.96844147810312C756.4166666666666,75.96844147810312,758.8333333333334,75.96844147810312,761.25,75.96844147810312C763.6666666666666,75.96844147810312,766.0833333333334,75.96844147810312,768.5,75.96844147810312C770.9166666666666,75.96844147810312,773.3333333333334,75.96844147810312,775.75,75.96844147810312C778.1666666666666,75.96844147810312,780.5833333333334,75.96844147810312,783,75.96844147810312C785.4166666666667,75.96844147810312,787.8333333333334,75.96844147810312,790.2500000000001,75.96844147810312C792.6666666666667,75.96844147810312,795.0833333333335,75.96844147810312,797.5000000000001,75.96844147810312C799.9166666666667,75.96844147810312,802.3333333333335,75.96844147810312,804.7500000000001,75.96844147810312C807.1666666666667,75.96844147810312,809.5833333333335,75.96844147810312,812.0000000000001,75.96844147810312C814.4166666666667,75.96844147810312,816.8333333333333,75.96844147810312,819.2499999999999,75.96844147810312C821.6666666666665,75.96844147810312,824.0833333333333,75.96844147810312,826.4999999999999,75.96844147810312C828.9166666666665,75.96844147810312,831.3333333333333,75.96844147810312,833.7499999999999,75.96844147810312C836.1666666666665,75.96844147810312,838.5833333333333,75.96844147810312,840.9999999999999,75.96844147810312C843.4166666666666,75.96844147810312,845.8333333333333,75.96844147810312,848.25,75.96844147810312C850.6666666666666,75.96844147810312,853.0833333333334,75.96844147810312,855.5,75.96844147810312C857.9166666666666,75.96844147810312,860.3333333333334,75.96844147810312,862.75,75.96844147810312C865.1666666666666,75.96844147810312,867.5833333333334,75.96844147810312,870,75.96844147810312C872.4166666666666,75.96844147810312,874.8333333333334,75.96844147810312,877.25,75.96844147810312C879.6666666666666,75.96844147810312,882.0833333333334,75.96844147810312,884.5,75.96844147810312C886.9166666666666,75.96844147810312,889.3333333333334,75.96844147810312,891.75,75.96844147810312C894.1666666666666,75.96844147810312,896.5833333333334,75.96844147810312,899,75.96844147810312C901.4166666666666,75.96844147810312,903.8333333333334,75.96844147810312,906.25,75.96844147810312C908.6666666666666,75.96844147810312,911.0833333333334,75.96844147810312,913.5,75.96844147810312C915.9166666666666,75.96844147810312,918.3333333333334,75.96844147810312,920.75,75.96844147810312C923.1666666666666,75.96844147810312,925.5833333333334,75.96844147810312,928,75.96844147810312C930.4166666666666,75.96844147810312,932.8333333333334,75.96844147810312,935.25,75.96844147810312C937.6666666666666,75.96844147810312,940.0833333333334,75.96844147810312,942.5,75.96844147810312C944.9166666666666,75.96844147810312,947.3333333333334,75.96844147810312,949.75,75.96844147810312C952.1666666666666,75.96844147810312,954.5833333333334,75.96844147810312,957,75.96844147810312C959.4166666666666,75.96844147810312,961.8333333333334,75.96844147810312,964.25,75.96844147810312C966.6666666666667,75.96844147810312,969.0833333333334,75.96844147810312,971.5000000000001,75.96844147810312C973.9166666666667,75.96844147810312,976.3333333333335,75.96844147810312,978.7500000000001,75.96844147810312C981.1666666666667,75.96844147810312,983.5833333333335,75.96844147810312,986.0000000000001,75.96844147810312C988.4166666666667,75.96844147810312,990.8333333333335,75.96844147810312,993.2500000000001,75.96844147810312C995.6666666666667,75.96844147810312,998.0833333333333,75.96844147810312,1000.4999999999999,75.96844147810312C1002.9166666666665,75.96844147810312,1005.3333333333333,75.96844147810312,1007.7499999999999,75.96844147810312C1010.1666666666665,75.96844147810312,1012.5833333333333,75.96844147810312,1014.9999999999999,75.96844147810312C1017.4166666666665,75.96844147810312,1019.8333333333333,75.96844147810312,1022.2499999999999,75.96844147810312C1024.6666666666665,75.96844147810312,1027.0833333333333,75.96844147810312,1029.5,75.96844147810312C1031.9166666666667,75.96844147810312,1034.3333333333333,75.96844147810312,1036.75,75.96844147810312C1039.1666666666667,75.96844147810312,1041.5833333333333,75.96844147810312,1044,75.96844147810312C1046.4166666666667,75.96844147810312,1048.8333333333333,75.96844147810312,1051.25,75.96844147810312C1053.6666666666667,75.96844147810312,1056.0833333333333,75.96844147810312,1058.5,75.96844147810312C1060.9166666666667,75.96844147810312,1063.3333333333333,75.96844147810312,1065.75,75.96844147810312C1068.1666666666667,75.96844147810312,1070.5833333333333,75.96844147810312,1073,75.96844147810312C1075.4166666666667,75.96844147810312,1077.8333333333333,75.96844147810312,1080.25,75.96844147810312C1082.6666666666667,75.96844147810312,1085.0833333333333,75.96844147810312,1087.5,75.96844147810312C1089.9166666666667,75.96844147810312,1092.3333333333333,75.96844147810312,1094.75,75.96844147810312C1097.1666666666667,75.96844147810312,1099.5833333333333,75.96844147810312,1102,75.96844147810312C1104.4166666666667,75.96844147810312,1106.8333333333333,75.96844147810312,1109.25,75.96844147810312C1111.6666666666667,75.96844147810312,1114.0833333333333,75.96844147810312,1116.5,75.96844147810312C1118.9166666666667,75.96844147810312,1121.3333333333333,75.96844147810312,1123.75,75.96844147810312C1126.1666666666667,75.96844147810312,1128.5833333333333,75.96844147810312,1131,75.96844147810312C1133.4166666666667,75.96844147810312,1135.8333333333333,75.96844147810312,1138.25,75.96844147810312C1140.6666666666667,75.96844147810312,1143.0833333333333,75.96844147810312,1145.5,75.96844147810312C1147.9166666666667,75.96844147810312,1150.3333333333333,75.96844147810312,1152.75,75.96844147810312C1155.1666666666667,75.96844147810312,1157.5833333333333,75.96844147810312,1160,75.96844147810312C1162.4166666666667,75.96844147810312,1164.8333333333333,75.96844147810312,1167.25,75.96844147810312C1169.6666666666667,75.96844147810312,1172.0833333333333,75.96844147810312,1174.5,75.96844147810312C1176.9166666666667,75.96844147810312,1179.3333333333333,75.96844147810312,1181.75,75.96844147810312C1184.1666666666667,75.96844147810312,1186.5833333333333,75.96844147810312,1189,75.96844147810312C1191.4166666666667,75.96844147810312,1193.8333333333333,75.96844147810312,1196.25,75.96844147810312C1198.6666666666667,75.96844147810312,1201.0833333333333,75.96844147810312,1203.5,75.96844147810312C1205.9166666666667,75.96844147810312,1208.3333333333333,75.96844147810312,1210.75,75.96844147810312C1213.1666666666667,75.96844147810312,1215.5833333333333,75.96844147810312,1218,75.96844147810312C1220.4166666666667,75.96844147810312,1222.8333333333333,75.96844147810312,1225.25,75.96844147810312C1227.6666666666667,75.96844147810312,1230.0833333333333,75.96844147810312,1232.5,75.96844147810312C1234.9166666666667,75.96844147810312,1237.3333333333333,75.96844147810312,1239.75,75.96844147810312C1242.1666666666667,75.96844147810312,1244.5833333333333,75.96844147810312,1247,75.96844147810312C1249.4166666666667,75.96844147810312,1251.8333333333333,75.96844147810312,1254.25,75.96844147810312C1256.6666666666667,75.96844147810312,1259.0833333333333,75.96844147810312,1261.5,75.96844147810312C1263.9166666666667,75.96844147810312,1266.3333333333333,75.96844147810312,1268.75,75.96844147810312C1271.1666666666667,75.96844147810312,1273.5833333333333,75.96844147810312,1276,75.96844147810312C1278.4166666666667,75.96844147810312,1280.8333333333333,75.96844147810312,1283.25,75.96844147810312C1285.6666666666667,75.96844147810312,1288.0833333333333,75.96844147810312,1290.5,75.96844147810312C1292.9166666666667,75.96844147810312,1295.3333333333333,75.96844147810312,1297.75,75.96844147810312C1300.1666666666667,75.96844147810312,1302.5833333333333,75.96844147810312,1305,75.96844147810312C1307.4166666666667,75.96844147810312,1309.8333333333333,75.96844147810312,1312.25,75.96844147810312C1314.6666666666667,75.96844147810312,1317.0833333333333,75.96844147810312,1319.5,75.96844147810312C1321.9166666666667,75.96844147810312,1324.3333333333333,75.96844147810312,1326.75,75.96844147810312C1329.1666666666667,75.96844147810312,1331.5833333333333,75.96844147810312,1334,75.96844147810312C1336.4166666666667,75.96844147810312,1338.8333333333333,75.96844147810312,1341.25,75.96844147810312C1343.6666666666667,75.96844147810312,1346.0833333333333,75.96844147810312,1348.5,75.96844147810312C1350.9166666666667,75.96844147810312,1353.3333333333333,75.96844147810312,1355.75,75.96844147810312C1358.1666666666667,75.96844147810312,1360.5833333333333,75.96844147810312,1363,75.96844147810312C1365.4166666666667,75.96844147810312,1367.8333333333333,75.96844147810312,1370.25,75.96844147810312C1372.6666666666667,75.96844147810312,1375.0833333333333,75.96844147810312,1377.5,75.96844147810312C1379.9166666666667,75.96844147810312,1382.3333333333333,75.96844147810312,1384.75,75.96844147810312C1387.1666666666667,75.96844147810312,1389.5833333333333,75.96844147810312,1392,75.96844147810312C1394.4166666666667,75.96844147810312,1396.8333333333333,75.96844147810312,1399.25,75.96844147810312C1401.6666666666667,75.96844147810312,1404.0833333333333,75.96844147810312,1406.5,75.96844147810312C1408.9166666666667,75.96844147810312,1411.3333333333333,75.96844147810312,1413.75,75.96844147810312C1416.1666666666667,75.96844147810312,1418.5833333333333,75.96844147810312,1421,75.96844147810312C1423.4166666666667,75.96844147810312,1425.8333333333333,75.96844147810312,1428.25,75.96844147810312C1430.6666666666667,75.96844147810312,1433.0833333333333,75.96844147810312,1435.5,75.96844147810312C1437.9166666666667,75.96844147810312,1440.3333333333333,75.96844147810312,1442.75,75.96844147810312C1445.1666666666667,75.96844147810312,1447.5833333333333,75.96844147810312,1450,75.96844147810312" fill="transparent" stroke-linecap="round" stroke="#E7C6DF" stroke-width="2"></path><g class="visx-group visx-axis visx-axis-bottom" transform="translate(0, 115)"><g class="visx-group visx-axis-tick" transform="translate(0, 0)"><line class="visx-line" x1="0" y1="0" x2="0" y2="8" fill="transparent" shape-rendering="crispEdges" stroke="#000" stroke-width="0" stroke-linecap="square"></line><svg x="0" y="0" font-size="10" style="overflow:visible"><text transform="" x="0" y="18" fill="#000" font-size="10" text-anchor="middle"><tspan x="0" dy="0em">0%</tspan></text></svg></g><g class="visx-group visx-axis-tick" transform="translate(0, 0)"><line class="visx-line" x1="362.5" y1="0" x2="362.5" y2="8" fill="transparent" shape-rendering="crispEdges" stroke="#000" stroke-width="0" stroke-linecap="square"></line><svg x="0" y="0" font-size="10" style="overflow:visible"><text transform="" x="362.5" y="18" fill="#000" font-size="10" text-anchor="middle"><tspan x="362.5" dy="0em">25%</tspan></text></svg></g><g class="visx-group visx-axis-tick" transform="translate(0, 0)"><line class="visx-line" x1="725" y1="0" x2="725" y2="8" fill="transparent" shape-rendering="crispEdges" stroke="#000" stroke-width="0" stroke-linecap="square"></line><svg x="0" y="0" font-size="10" style="overflow:visible"><text transform="" x="725" y="18" fill="#000" font-size="10" text-anchor="middle"><tspan x="725" dy="0em">50%</tspan></text></svg></g><g class="visx-group visx-axis-tick" transform="translate(0, 0)"><line class="visx-line" x1="1087.5" y1="0" x2="1087.5" y2="8" fill="transparent" shape-rendering="crispEdges" stroke="#000" stroke-width="0" stroke-linecap="square"></line><svg x="0" y="0" font-size="10" style="overflow:visible"><text transform="" x="1087.5" y="18" fill="#000" font-size="10" text-anchor="middle"><tspan x="1087.5" dy="0em">75%</tspan></text></svg></g><g class="visx-group visx-axis-tick" transform="translate(0, 0)"><line class="visx-line" x1="1450" y1="0" x2="1450" y2="8" fill="transparent" shape-rendering="crispEdges" stroke="#000" stroke-width="0" stroke-linecap="square"></line><svg x="0" y="0" font-size="10" style="overflow:visible"><text transform="" x="1450" y="18" fill="#000" font-size="10" text-anchor="middle"><tspan x="1450" dy="0em">100%</tspan></text></svg></g><line class="visx-line visx-axis-line" x1="0.5" y1="0" x2="1450.5" y2="0" fill="transparent" shape-rendering="crispEdges" stroke="#222" stroke-width="0"></line></g><g class="visx-group visx-axis visx-axis-left" transform="translate(0, 0)"><g class="visx-group visx-axis-tick" transform="translate(0, 0)"><line class="visx-line" x1="0" y1="115" x2="-8" y2="115" fill="transparent" shape-rendering="crispEdges" stroke="#222" stroke-width="0" stroke-linecap="square"></line><svg x="-30" y="0" font-size="8" style="overflow:visible"><text transform="" x="-8" y="115" fill="#000" font-size="8" text-anchor="start"><tspan x="-8" dy="0em">0%</tspan></text></svg></g><g class="visx-group visx-axis-tick" transform="translate(0, 0)"><line class="visx-line" x1="0" y1="57.5" x2="-8" y2="57.5" fill="transparent" shape-rendering="crispEdges" stroke="#222" stroke-width="0" stroke-linecap="square"></line><svg x="-30" y="0" font-size="8" style="overflow:visible"><text transform="" x="-8" y="57.5" fill="#000" font-size="8" text-anchor="start"><tspan x="-8" dy="0em">20%</tspan></text></svg></g><g class="visx-group visx-axis-tick" transform="translate(0, 0)"><line class="visx-line" x1="0" y1="0" x2="-8" y2="0" fill="transparent" shape-rendering="crispEdges" stroke="#222" stroke-width="0" stroke-linecap="square"></line><svg x="-30" y="0" font-size="8" style="overflow:visible"><text transform="" x="-8" y="0" fill="#000" font-size="8" text-anchor="start"><tspan x="-8" dy="0em">40%</tspan></text></svg></g><line class="visx-line visx-axis-line" x1="0" y1="115.5" x2="0" y2="0.5" fill="transparent" shape-rendering="crispEdges" stroke="#222" stroke-width="0"></line></g><rect class="visx-bar" width="1450" height="115" fill="transparent"></rect><line class="visx-line" x1="1377.5" y1="28" x2="1377.5" y2="115" fill="transparent" shape-rendering="crispEdges" stroke="#0062D2" stroke-width="1" pointer-events="none" stroke-dasharray="5,2"></line><svg x="0" y="0" font-size="10px" style="overflow:visible"><text transform="" x="1377.5" y="20" font-size="10px" fill="#fff" stroke="#fff" stroke-width="0.8em" text-anchor="middle"><tspan x="1377.5" dy="0.355em">Optimal 95%</tspan></text></svg><svg x="0" y="0" font-size="10px" style="overflow:visible"><text transform="" x="1377.5" y="20" font-size="10px" fill="#62677B" text-anchor="middle"><tspan x="1377.5" dy="0.355em">Optimal 95%</tspan></text></svg></g></svg>