<?xml version="1.0"?><svg xmlns="http://www.w3.org/2000/svg" xmlns:xlink= "http://www.w3.org/1999/xlink" style="background: white;" width="1500" height="185"> <g style="color: black; font-size: 13px; font-family: sans-serif; transform: translate(18px, 25px);"><g><circle r="3" cx="-6" cy="-5" style="fill: #B6509E" /><text>Borrow APR, variable</text></g><g style="transform: translateX(150px);"><circle r="3" cx="-6" cy="-5" style="fill: rgb(231, 198, 223)" /><text>Borrow APR, stable</text></g><g style="transform: translateX(290px);"><circle r="3" cx="-6" cy="-5" style="fill: rgb(0, 98, 210)" /><text>Utilization Rate</text></g></g><g class="visx-group" transform="translate(40, 50)"><g class="visx-group visx-rows" transform="translate(0, 0)"><line class="visx-line" x1="0" y1="115" x2="1450" y2="115" fill="transparent" shape-rendering="crispEdges" stroke="#000" stroke-width="1" stroke-dasharray="3,3" pointer-events="none"></line><line class="visx-line" x1="0" y1="73.92857142857142" x2="1450" y2="73.92857142857142" fill="transparent" shape-rendering="crispEdges" stroke="#000" stroke-width="1" stroke-dasharray="3,3" pointer-events="none"></line><line class="visx-line" x1="0" y1="32.857142857142854" x2="1450" y2="32.857142857142854" fill="transparent" shape-rendering="crispEdges" stroke="#000" stroke-width="1" stroke-dasharray="3,3" pointer-events="none"></line></g><path class="visx-linepath" d="M0,114.99999999980635C2.4166666666666665,114.96772638532673,4.833333333333334,114.93545277084712,7.25,114.90317915631908C9.666666666666666,114.87090554179105,12.083333333333334,114.83863192719846,14.5,114.80635831263815C16.916666666666668,114.77408469807784,19.333333333333332,114.74181108351755,21.75,114.70953746895724C24.166666666666668,114.67726385439693,26.583333333333332,114.64499023983662,29,114.6127166252763C31.416666666666668,114.580443010716,33.833333333333336,114.5481693961557,36.25,114.51589578159539C38.666666666666664,114.48362216703508,41.083333333333336,114.45134855247478,43.5,114.41907493791447C45.91666666666667,114.38680132335416,48.333333333333336,114.35452770879385,50.75000000000001,114.32225409423354C53.16666666666667,114.28998047967323,55.583333333333336,114.25770686511294,58,114.22543325055263C60.416666666666664,114.19315963599232,62.833333333333336,114.160886021432,65.25,114.1286124068717C67.66666666666667,114.09633879231139,70.08333333333333,114.06406517775109,72.5,114.03179156319078C74.91666666666667,113.99951794863047,77.33333333333333,113.96724433407017,79.75,113.93497071950986C82.16666666666667,113.90269710494955,84.58333333333333,113.87042349038924,87,113.83814987582893C89.41666666666667,113.80587626126862,91.83333333333333,113.77360264670833,94.25,113.74132903214802C96.66666666666667,113.7090554175877,99.08333333333334,113.6767818030274,101.50000000000001,113.64450818846709C103.91666666666667,113.61223457390678,106.33333333333334,113.57996095934648,108.75,113.54768734478617C111.16666666666667,113.51541373022586,113.58333333333333,113.48314011566556,116,113.45086650110525C118.41666666666667,113.41859288654494,120.83333333333334,113.38631927198463,123.25000000000001,113.35404565742432C125.66666666666667,113.32177204286401,128.08333333333334,113.28949842830372,130.5,113.2572248137434C132.91666666666666,113.2249511991831,135.33333333333334,113.19267758462279,137.75,113.16040397006248C140.16666666666666,113.12813035550217,142.58333333333334,113.09585674094187,145,113.06358312638156C147.41666666666666,113.03130951182125,149.83333333333334,112.99903589726095,152.25,112.96676228270064C154.66666666666666,112.93448866814033,157.08333333333334,112.90221505358002,159.5,112.86994143901971C161.91666666666666,112.8376678244594,164.33333333333334,112.8053942098991,166.75,112.7731205953388C169.16666666666666,112.74084698077849,171.58333333333334,112.70857336621818,174,112.67629975165787C176.41666666666666,112.64402613709755,178.83333333333334,112.61175252253726,181.25,112.57947890797695C183.66666666666666,112.54720529341664,186.08333333333334,112.51493167885634,188.5,112.48265806429603C190.91666666666666,112.45038444973572,193.33333333333334,112.41811083517541,195.75,112.3858372206151C198.16666666666669,112.35356360605479,200.58333333333334,112.3212899914945,203.00000000000003,112.28901637693419C205.41666666666669,112.25674276237388,207.83333333333331,112.22446914781358,210.24999999999997,112.19219553325327C212.66666666666666,112.15992191869296,215.08333333333331,112.12764830413265,217.5,112.09537468957234C219.91666666666666,112.06310107501203,222.33333333333334,112.03082746045175,224.75,111.99855384589144C227.16666666666666,111.96628023133113,229.58333333333334,111.93400661677082,232,111.9017330022105C234.41666666666666,111.8694593876502,236.83333333333334,111.8371857730899,239.25,111.80491215852959C241.66666666666669,111.77263854396928,244.08333333333334,111.74036492940897,246.50000000000003,111.70809131484866C248.91666666666669,111.67581770028835,251.33333333333331,111.64354408572805,253.74999999999997,111.61127047116774C256.16666666666663,111.57899685660743,258.5833333333333,111.54672324204714,261,111.51444962748683C263.4166666666667,111.48217601292652,265.8333333333333,111.4499023983662,268.25,111.4176287838059C270.6666666666667,111.38535516924559,273.0833333333333,111.35308155468529,275.5,111.32080794012498C277.9166666666667,111.28853432556467,280.3333333333333,111.25626071100436,282.75,111.22398709644405C285.1666666666667,111.19171348188374,287.5833333333333,111.15943986732344,290,111.12716625276313C292.4166666666667,111.09489263820282,294.8333333333333,111.06261902364253,297.25,111.03034540908222C299.6666666666667,110.9980717945219,302.0833333333333,110.9657981799616,304.5,110.93352456540129C306.9166666666667,110.90125095084097,309.3333333333333,110.86897733628068,311.75,110.83670372172037C314.1666666666667,110.80443010716006,316.5833333333333,110.77215649259975,319,110.73988287803944C321.4166666666667,110.70760926347913,323.8333333333333,110.67533564891883,326.25,110.64306203435852C328.6666666666667,110.61078841979821,331.0833333333333,110.57851480523792,333.5,110.5462411906776C335.9166666666667,110.5139675761173,338.3333333333333,110.48169396155699,340.75,110.44942034699667C343.1666666666667,110.41714673243636,345.5833333333333,110.38487311787607,348,110.35259950331576C350.4166666666667,110.32032588875545,352.8333333333333,110.28805227419514,355.25,110.25577865963483C357.6666666666667,110.22350504507452,360.0833333333333,110.19123143051422,362.5,110.15895781595391C364.9166666666667,110.1266842013936,367.3333333333333,110.0944105868333,369.75,110.062136972273C372.1666666666667,110.02986335771269,374.5833333333333,109.99758974315237,377,109.96531612859206C379.4166666666667,109.93304251403175,381.8333333333333,109.90076889947146,384.25,109.86849528491115C386.6666666666667,109.83622167035084,389.0833333333333,109.80394805579053,391.5,109.77167444123022C393.9166666666667,109.73940082666991,396.33333333333337,109.70712721210961,398.75000000000006,109.6748535975493C401.16666666666674,109.64257998298899,403.58333333333337,109.6103063684287,406.00000000000006,109.57803275386838C408.4166666666667,109.54575913930807,410.8333333333333,109.51348552474776,413.24999999999994,109.48121191018745C415.66666666666663,109.44893829562714,418.08333333333326,109.41666468106685,420.49999999999994,109.38439106650654C422.91666666666663,109.35211745194623,425.3333333333333,109.31984383738592,427.75,109.28757022282561C430.1666666666667,109.2552966082653,432.5833333333333,109.223022993705,435,109.19074937914469C437.4166666666667,109.15847576458438,439.8333333333333,109.12620215002408,442.25,109.09392853546377C444.6666666666667,109.06165492090346,447.0833333333333,109.02938130634315,449.5,108.99710769178284C451.9166666666667,108.96483407722253,454.3333333333333,108.93256046266224,456.75,108.90028684810193C459.1666666666667,108.86801323354162,461.5833333333333,108.83573961898131,464,108.803466004421C466.4166666666667,108.77119238986069,468.8333333333333,108.73891877530039,471.25,108.70664516074008C473.6666666666667,108.67437154617977,476.0833333333333,108.64209793161947,478.5,108.60982431705916C480.9166666666667,108.57755070249885,483.33333333333337,108.54527708793854,485.75000000000006,108.51300347337823C488.16666666666674,108.48072985881792,490.58333333333337,108.44845624425763,493.00000000000006,108.41618262969732C495.4166666666667,108.38390901513701,497.8333333333333,108.3516354005767,500.24999999999994,108.31936178601639C502.66666666666663,108.28708817145608,505.08333333333326,108.25481455689578,507.49999999999994,108.22254094233547C509.91666666666663,108.19026732777516,512.3333333333333,108.15799371321486,514.75,108.12572009865455C517.1666666666666,108.09344648409424,519.5833333333334,108.06117286953393,522,108.02889925497362C524.4166666666666,107.99662564041331,526.8333333333334,107.96435202585302,529.25,107.93207841129271C531.6666666666666,107.8998047967324,534.0833333333334,107.86753118217209,536.5,107.83525756761178C538.9166666666666,107.80298395305147,541.3333333333334,107.77071033849117,543.75,107.73843672393086C546.1666666666666,107.70616310937055,548.5833333333334,107.67388949481025,551,107.64161588024994C553.4166666666666,107.60934226568963,555.8333333333334,107.57706865112932,558.25,107.54479503656901C560.6666666666666,107.5125214220087,563.0833333333334,107.48024780744841,565.5,107.4479741928881C567.9166666666666,107.41570057832779,570.3333333333334,107.38342696376748,572.75,107.35115334920717C575.1666666666666,107.31887973464686,577.5833333333334,107.28660612008656,580,107.25433250552625C582.4166666666666,107.22205889096594,584.8333333333334,107.18978527640564,587.25,107.15751166184533C589.6666666666666,107.12523804728502,592.0833333333334,107.09296443272471,594.5,107.0606908181644C596.9166666666666,107.02841720360409,599.3333333333334,106.9961435890438,601.75,106.96386997448349C604.1666666666666,106.93159635992318,606.5833333333334,106.89932274536287,609,106.86704913080256C611.4166666666666,106.83477551624225,613.8333333333334,106.80250190168195,616.25,106.77022828712164C618.6666666666666,106.73795467256133,621.0833333333334,106.70568105800103,623.5,106.67340744344072C625.9166666666666,106.64113382888041,628.3333333333334,106.6088602143201,630.75,106.57658659975979C633.1666666666666,106.54431298519948,635.5833333333334,106.51203937063919,638,106.47976575607888C640.4166666666666,106.44749214151857,642.8333333333334,106.41521852695826,645.25,106.38294491239795C647.6666666666666,106.35067129783764,650.0833333333334,106.31839768327734,652.5,106.28612406871703C654.9166666666666,106.25385045415672,657.3333333333334,106.22157683959644,659.75,106.18930322503613C662.1666666666666,106.15702961047582,664.5833333333334,106.1247559959155,667,106.0924823813552C669.4166666666666,106.06020876679489,671.8333333333334,106.02793515223459,674.25,105.99566153767428C676.6666666666666,105.96338792311397,679.0833333333334,105.93111430855366,681.5,105.89884069399335C683.9166666666666,105.86656707943304,686.3333333333334,105.83429346487274,688.75,105.80201985031243C691.1666666666666,105.76974623575212,693.5833333333334,105.73747262119183,696,105.70519900663152C698.4166666666666,105.6729253920712,700.8333333333334,105.6406517775109,703.25,105.60837816295059C705.6666666666666,105.57610454839028,708.0833333333334,105.54383093382998,710.5,105.51155731926967C712.9166666666666,105.47928370470936,715.3333333333334,105.44701009014905,717.75,105.41473647558874C720.1666666666666,105.38246286102843,722.5833333333334,105.35018924646813,725,105.31791563190782C727.4166666666666,105.28564201734751,729.8333333333334,105.25336840278722,732.25,105.2210947882269C734.6666666666666,105.1888211736666,737.0833333333334,105.15654755910629,739.5,105.12427394454598C741.9166666666666,105.09200032998567,744.3333333333334,105.05972671542537,746.75,105.02745310086506C749.1666666666666,104.99517948630475,751.5833333333334,104.96290587174444,754,104.93063225718413C756.4166666666666,104.89835864262382,758.8333333333334,104.86608502806352,761.25,104.83381141350321C763.6666666666666,104.8015377989429,766.0833333333334,104.7692641843826,768.5,104.7369905698223C770.9166666666666,104.70471695526199,773.3333333333334,104.67244334070168,775.75,104.64016972614137C778.1666666666666,104.60789611158106,780.5833333333334,104.57562249702076,783,104.54334888246045C785.4166666666667,104.51107526790014,787.8333333333334,104.47880165333983,790.2500000000001,104.44652803877952C792.6666666666667,104.41425442421921,795.0833333333335,104.38198080965891,797.5000000000001,104.3497071950986C799.9166666666667,104.31743358053829,802.3333333333335,104.285159965978,804.7500000000001,104.25288635141769C807.1666666666667,104.22061273685738,809.5833333333335,104.18833912229707,812.0000000000001,104.15606550773676C814.4166666666667,104.12379189317645,816.8333333333333,104.09151827861615,819.2499999999999,104.05924466405584C821.6666666666665,104.02697104949553,824.0833333333333,103.99469743493522,826.4999999999999,103.96242382037491C828.9166666666665,103.9301502058146,831.3333333333333,103.8978765912543,833.7499999999999,103.86560297669399C836.1666666666665,103.83332936213368,838.5833333333333,103.80105574757339,840.9999999999999,103.76878213301308C843.4166666666666,103.73650851845277,845.8333333333333,103.70423490389246,848.25,103.67196128933215C850.6666666666666,103.63968767477184,853.0833333333334,103.60741406021154,855.5,103.57514044565123C857.9166666666666,103.54286683109092,860.3333333333334,103.51059321653061,862.75,103.4783196019703C865.1666666666666,103.44604598740999,867.5833333333334,103.41377237284969,870,103.38149875828938C872.4166666666666,103.34922514372907,874.8333333333334,103.31695152916878,877.25,103.28467791460847C879.6666666666666,103.25240430004816,882.0833333333334,103.22013068548785,884.5,103.18785707092754C886.9166666666666,103.15558345636722,889.3333333333334,103.12330984180693,891.75,103.09103622724662C894.1666666666666,103.05876261268631,896.5833333333334,103.026488998126,899,102.99421538356569C901.4166666666666,102.96194176900538,903.8333333333334,102.92966815444508,906.25,102.89739453988477C908.6666666666666,102.86512092532446,911.0833333333334,102.83284731076417,913.5,102.80057369620386C915.9166666666666,102.76830008164355,918.3333333333334,102.73602646708324,920.75,102.70375285252292C923.1666666666666,102.67147923796261,925.5833333333334,102.63920562340232,928,102.60693200884201C930.4166666666666,102.5746583942817,932.8333333333334,102.54238477972139,935.25,102.51011116516108C937.6666666666666,102.47783755060077,940.0833333333334,102.44556393604047,942.5,102.41329032148016C944.9166666666666,102.38101670691985,947.3333333333334,102.34874309235956,949.75,102.31646947779925C952.1666666666666,102.28419586323893,954.5833333333334,102.25192224867862,957,102.21964863411831C959.4166666666666,102.187375019558,961.8333333333334,102.15510140499771,964.25,102.1228277904374C966.6666666666667,102.09055417587709,969.0833333333334,102.05828056131678,971.5000000000001,102.02600694675647C973.9166666666667,101.99373333219616,976.3333333333335,101.96145971763586,978.7500000000001,101.92918610307555C981.1666666666667,101.89691248851524,983.5833333333335,101.86463887395495,986.0000000000001,101.83236525939463C988.4166666666667,101.80009164483432,990.8333333333335,101.76781803027401,993.2500000000001,101.7355444157137C995.6666666666667,101.7032708011534,998.0833333333333,101.6709971865931,1000.4999999999999,101.63872357203279C1002.9166666666665,101.60644995747248,1005.3333333333333,101.57417634291217,1007.7499999999999,101.54190272835186C1010.1666666666665,101.50962911379155,1012.5833333333333,101.47735549923125,1014.9999999999999,101.44508188467094C1017.4166666666665,101.41280827011063,1019.8333333333333,101.38053465555033,1022.2499999999999,101.34826104099002C1024.6666666666665,101.31598742642971,1027.0833333333333,101.2837138118694,1029.5,101.2514401973091C1031.9166666666667,101.21916658274878,1034.3333333333333,101.18689296818849,1036.75,101.15461935362818C1039.1666666666667,101.12234573906787,1041.5833333333333,101.09007212450756,1044,101.05779850994725C1046.4166666666667,101.02552489538694,1048.8333333333333,100.99325128082664,1051.25,100.96097766626633C1053.6666666666667,100.92870405170602,1056.0833333333333,100.89643043714572,1058.5,100.86415682258541C1060.9166666666667,100.8318832080251,1063.3333333333333,100.7996095934648,1065.75,100.76733597890448C1068.1666666666667,100.73506236434417,1070.5833333333333,100.70278874978388,1073,100.67051513522357C1075.4166666666667,100.63824152066326,1077.8333333333333,100.60596790610296,1080.25,100.57369429154265C1082.6666666666667,100.54142067698234,1085.0833333333333,100.50914706242203,1087.5,100.47687344786172C1089.9166666666667,100.44459983330141,1092.3333333333333,100.41232621874113,1094.75,100.38005260418082C1097.1666666666667,100.34777898962051,1099.5833333333333,100.31550537506018,1102,100.28323176049987C1104.4166666666667,100.25095814593956,1106.8333333333333,100.21868453137928,1109.25,100.18641091681897C1111.6666666666667,100.15413730225866,1114.0833333333333,100.12186368769834,1116.5,100.08959007313803C1118.9166666666667,100.05731645857772,1121.3333333333333,100.02504284401743,1123.75,99.99276922945712C1126.1666666666667,99.96049561489681,1128.5833333333333,99.9282220003365,1131,99.8959483857762C1133.4166666666667,99.86367477121588,1135.8333333333333,99.83140115665559,1138.25,99.79912754209528C1140.6666666666667,99.76685392753497,1143.0833333333333,99.73458031297467,1145.5,99.70230669841436C1147.9166666666667,99.67003308385405,1150.3333333333333,99.63775946929374,1152.75,99.60548585473343C1155.1666666666667,99.57321224017312,1157.5833333333333,99.54093862561281,1160,99.5086650110525C1162.4166666666667,99.47639139649219,1164.8333333333333,99.44411778193191,1167.25,99.4118441673716C1169.6666666666667,99.37957055281129,1172.0833333333333,99.34729693825096,1174.5,99.31502332369065C1176.9166666666667,99.28274970913034,1179.3333333333333,99.25047609457006,1181.75,99.21820248000975C1184.1666666666667,99.18592886544944,1186.5833333333333,99.15365525088913,1189,99.12138163632882C1191.4166666666667,99.08910802176851,1193.8333333333333,99.05683440720821,1196.25,99.0245607926479C1198.6666666666667,98.9922871780876,1201.0833333333333,98.9600135635273,1203.5,98.92773994896699C1205.9166666666667,98.89546633440668,1208.3333333333333,98.86319271984637,1210.75,98.83091910528606C1213.1666666666667,98.79864549072575,1215.5833333333333,98.76637187616545,1218,98.73409826160514C1220.4166666666667,98.70182464704483,1222.8333333333333,98.66955103248452,1225.25,98.63727741792421C1227.6666666666667,98.6050038033639,1230.0833333333333,98.5727301888036,1232.5,98.5404565742433C1234.9166666666667,98.50818295968298,1237.3333333333333,98.47590934512269,1239.75,98.44363573056238C1242.1666666666667,98.41136211600207,1244.5833333333333,98.37908850144176,1247,98.34681488688145C1249.4166666666667,98.31454127232114,1251.8333333333333,98.28226765776084,1254.25,98.24999404320053C1256.6666666666667,98.21772042864022,1259.0833333333333,98.18544681407991,1261.5,98.1531731995196C1263.9166666666667,98.12089958495929,1266.3333333333333,98.088625970399,1268.75,98.05635235583868C1271.1666666666667,98.02407874127837,1273.5833333333333,97.99180512671808,1276,97.95953151215777C1278.4166666666667,97.92725789759746,1280.8333333333333,97.89498428303715,1283.25,97.86271066847684C1285.6666666666667,97.83043705391653,1288.0833333333333,97.79816343935623,1290.5,97.76588982479592C1292.9166666666667,97.73361621023561,1295.3333333333333,97.7013425956753,1297.75,97.66906898111499C1300.1666666666667,97.63679536655468,1302.5833333333333,97.60452175199438,1305,97.57224813743407C1307.4166666666667,97.53997452287376,1309.8333333333333,97.50770090831347,1312.25,97.47542729375316C1314.6666666666667,97.44315367919285,1317.0833333333333,97.41088006463254,1319.5,97.37860645007223C1321.9166666666667,97.34633283551192,1324.3333333333333,97.31405922095162,1326.75,97.28178560639131C1329.1666666666667,97.249511991831,1331.5833333333333,97.21723837727069,1334,97.18496476271038C1336.4166666666667,97.15269114815007,1338.8333333333333,97.12041753358977,1341.25,97.08814391902946C1343.6666666666667,97.05587030446915,1346.0833333333333,97.02359668990886,1348.5,96.99132307534855C1350.9166666666667,96.95904946078824,1353.3333333333333,96.92677584622793,1355.75,96.89450223166762C1358.1666666666667,96.8622286171073,1360.5833333333333,96.82995500254701,1363,96.7976813879867C1365.4166666666667,96.76540777342639,1367.8333333333333,96.73313415886608,1370.25,96.70086054430577C1372.6666666666667,96.66858692974546,1375.0833333333333,96.66858692974546,1377.5,96.60403970062485C1379.9166666666667,96.53949247150425,1382.3333333333333,91.12784922443439,1384.75,88.38975398633914C1387.1666666666667,85.6516587482439,1389.5833333333333,82.91356351014866,1392,80.17546827205342C1394.4166666666667,77.43737303395818,1396.8333333333333,74.69927779586295,1399.25,71.96118255776771C1401.6666666666667,69.22308731967247,1404.0833333333333,66.48499208157723,1406.5,63.746896843482C1408.9166666666667,61.00880160538676,1411.3333333333333,58.27070636729151,1413.75,55.532611129196276C1416.1666666666667,52.79451589110104,1418.5833333333333,50.05642065300581,1421,47.318325414910575C1423.4166666666667,44.58023017681534,1425.8333333333333,41.84213493872011,1428.25,39.10403970062487C1430.6666666666667,36.365944462529626,1433.0833333333333,33.62784922443437,1435.5,30.88975398633913C1437.9166666666667,28.15165874824389,1440.3333333333333,25.413563510148666,1442.75,22.675468272053433C1445.1666666666667,19.9373730339582,1447.5833333333333,17.199277795862958,1450,14.46118255776772" fill="transparent" stroke-linecap="round" stroke="#B6509E" stroke-width="2"></path><path class="visx-linepath" d="M0,96.60403970062485C2.4166666666666665,96.60403970062485,4.833333333333334,96.60403970062485,7.25,96.60403970062485C9.666666666666666,96.60403970062485,12.083333333333334,96.60403970062485,14.5,96.60403970062485C16.916666666666668,96.60403970062485,19.333333333333332,96.60403970062485,21.75,96.60403970062485C24.166666666666668,96.60403970062485,26.583333333333332,96.60403970062485,29,96.60403970062485C31.416666666666668,96.60403970062485,33.833333333333336,96.60403970062485,36.25,96.60403970062485C38.666666666666664,96.60403970062485,41.083333333333336,96.60403970062485,43.5,96.60403970062485C45.91666666666667,96.60403970062485,48.333333333333336,96.60403970062485,50.75000000000001,96.60403970062485C53.16666666666667,96.60403970062485,55.583333333333336,96.60403970062485,58,96.60403970062485C60.416666666666664,96.60403970062485,62.833333333333336,96.60403970062485,65.25,96.60403970062485C67.66666666666667,96.60403970062485,70.08333333333333,96.60403970062485,72.5,96.60403970062485C74.91666666666667,96.60403970062485,77.33333333333333,96.60403970062485,79.75,96.60403970062485C82.16666666666667,96.60403970062485,84.58333333333333,96.60403970062485,87,96.60403970062485C89.41666666666667,96.60403970062485,91.83333333333333,96.60403970062485,94.25,96.60403970062485C96.66666666666667,96.60403970062485,99.08333333333334,96.60403970062485,101.50000000000001,96.60403970062485C103.91666666666667,96.60403970062485,106.33333333333334,96.60403970062485,108.75,96.60403970062485C111.16666666666667,96.60403970062485,113.58333333333333,96.60403970062485,116,96.60403970062485C118.41666666666667,96.60403970062485,120.83333333333334,96.60403970062485,123.25000000000001,96.60403970062485C125.66666666666667,96.60403970062485,128.08333333333334,96.60403970062485,130.5,96.60403970062485C132.91666666666666,96.60403970062485,135.33333333333334,96.60403970062485,137.75,96.60403970062485C140.16666666666666,96.60403970062485,142.58333333333334,96.60403970062485,145,96.60403970062485C147.41666666666666,96.60403970062485,149.83333333333334,96.60403970062485,152.25,96.60403970062485C154.66666666666666,96.60403970062485,157.08333333333334,96.60403970062485,159.5,96.60403970062485C161.91666666666666,96.60403970062485,164.33333333333334,96.60403970062485,166.75,96.60403970062485C169.16666666666666,96.60403970062485,171.58333333333334,96.60403970062485,174,96.60403970062485C176.41666666666666,96.60403970062485,178.83333333333334,96.60403970062485,181.25,96.60403970062485C183.66666666666666,96.60403970062485,186.08333333333334,96.60403970062485,188.5,96.60403970062485C190.91666666666666,96.60403970062485,193.33333333333334,96.60403970062485,195.75,96.60403970062485C198.16666666666669,96.60403970062485,200.58333333333334,96.60403970062485,203.00000000000003,96.60403970062485C205.41666666666669,96.60403970062485,207.83333333333331,96.60403970062485,210.24999999999997,96.60403970062485C212.66666666666666,96.60403970062485,215.08333333333331,96.60403970062485,217.5,96.60403970062485C219.91666666666666,96.60403970062485,222.33333333333334,96.60403970062485,224.75,96.60403970062485C227.16666666666666,96.60403970062485,229.58333333333334,96.60403970062485,232,96.60403970062485C234.41666666666666,96.60403970062485,236.83333333333334,96.60403970062485,239.25,96.60403970062485C241.66666666666669,96.60403970062485,244.08333333333334,96.60403970062485,246.50000000000003,96.60403970062485C248.91666666666669,96.60403970062485,251.33333333333331,96.60403970062485,253.74999999999997,96.60403970062485C256.16666666666663,96.60403970062485,258.5833333333333,96.60403970062485,261,96.60403970062485C263.4166666666667,96.60403970062485,265.8333333333333,96.60403970062485,268.25,96.60403970062485C270.6666666666667,96.60403970062485,273.0833333333333,96.60403970062485,275.5,96.60403970062485C277.9166666666667,96.60403970062485,280.3333333333333,96.60403970062485,282.75,96.60403970062485C285.1666666666667,96.60403970062485,287.5833333333333,96.60403970062485,290,96.60403970062485C292.4166666666667,96.60403970062485,294.8333333333333,96.60403970062485,297.25,96.60403970062485C299.6666666666667,96.60403970062485,302.0833333333333,96.60403970062485,304.5,96.60403970062485C306.9166666666667,96.60403970062485,309.3333333333333,96.60403970062485,311.75,96.60403970062485C314.1666666666667,96.60403970062485,316.5833333333333,96.60403970062485,319,96.60403970062485C321.4166666666667,96.60403970062485,323.8333333333333,96.60403970062485,326.25,96.60403970062485C328.6666666666667,96.60403970062485,331.0833333333333,96.60403970062485,333.5,96.60403970062485C335.9166666666667,96.60403970062485,338.3333333333333,96.60403970062485,340.75,96.60403970062485C343.1666666666667,96.60403970062485,345.5833333333333,96.60403970062485,348,96.60403970062485C350.4166666666667,96.60403970062485,352.8333333333333,96.60403970062485,355.25,96.60403970062485C357.6666666666667,96.60403970062485,360.0833333333333,96.60403970062485,362.5,96.60403970062485C364.9166666666667,96.60403970062485,367.3333333333333,96.60403970062485,369.75,96.60403970062485C372.1666666666667,96.60403970062485,374.5833333333333,96.60403970062485,377,96.60403970062485C379.4166666666667,96.60403970062485,381.8333333333333,96.60403970062485,384.25,96.60403970062485C386.6666666666667,96.60403970062485,389.0833333333333,96.60403970062485,391.5,96.60403970062485C393.9166666666667,96.60403970062485,396.33333333333337,96.60403970062485,398.75000000000006,96.60403970062485C401.16666666666674,96.60403970062485,403.58333333333337,96.60403970062485,406.00000000000006,96.60403970062485C408.4166666666667,96.60403970062485,410.8333333333333,96.60403970062485,413.24999999999994,96.60403970062485C415.66666666666663,96.60403970062485,418.08333333333326,96.60403970062485,420.49999999999994,96.60403970062485C422.91666666666663,96.60403970062485,425.3333333333333,96.60403970062485,427.75,96.60403970062485C430.1666666666667,96.60403970062485,432.5833333333333,96.60403970062485,435,96.60403970062485C437.4166666666667,96.60403970062485,439.8333333333333,96.60403970062485,442.25,96.60403970062485C444.6666666666667,96.60403970062485,447.0833333333333,96.60403970062485,449.5,96.60403970062485C451.9166666666667,96.60403970062485,454.3333333333333,96.60403970062485,456.75,96.60403970062485C459.1666666666667,96.60403970062485,461.5833333333333,96.60403970062485,464,96.60403970062485C466.4166666666667,96.60403970062485,468.8333333333333,96.60403970062485,471.25,96.60403970062485C473.6666666666667,96.60403970062485,476.0833333333333,96.60403970062485,478.5,96.60403970062485C480.9166666666667,96.60403970062485,483.33333333333337,96.60403970062485,485.75000000000006,96.60403970062485C488.16666666666674,96.60403970062485,490.58333333333337,96.60403970062485,493.00000000000006,96.60403970062485C495.4166666666667,96.60403970062485,497.8333333333333,96.60403970062485,500.24999999999994,96.60403970062485C502.66666666666663,96.60403970062485,505.08333333333326,96.60403970062485,507.49999999999994,96.60403970062485C509.91666666666663,96.60403970062485,512.3333333333333,96.60403970062485,514.75,96.60403970062485C517.1666666666666,96.60403970062485,519.5833333333334,96.60403970062485,522,96.60403970062485C524.4166666666666,96.60403970062485,526.8333333333334,96.60403970062485,529.25,96.60403970062485C531.6666666666666,96.60403970062485,534.0833333333334,96.60403970062485,536.5,96.60403970062485C538.9166666666666,96.60403970062485,541.3333333333334,96.60403970062485,543.75,96.60403970062485C546.1666666666666,96.60403970062485,548.5833333333334,96.60403970062485,551,96.60403970062485C553.4166666666666,96.60403970062485,555.8333333333334,96.60403970062485,558.25,96.60403970062485C560.6666666666666,96.60403970062485,563.0833333333334,96.60403970062485,565.5,96.60403970062485C567.9166666666666,96.60403970062485,570.3333333333334,96.60403970062485,572.75,96.60403970062485C575.1666666666666,96.60403970062485,577.5833333333334,96.60403970062485,580,96.60403970062485C582.4166666666666,96.60403970062485,584.8333333333334,96.60403970062485,587.25,96.60403970062485C589.6666666666666,96.60403970062485,592.0833333333334,96.60403970062485,594.5,96.60403970062485C596.9166666666666,96.60403970062485,599.3333333333334,96.60403970062485,601.75,96.60403970062485C604.1666666666666,96.60403970062485,606.5833333333334,96.60403970062485,609,96.60403970062485C611.4166666666666,96.60403970062485,613.8333333333334,96.60403970062485,616.25,96.60403970062485C618.6666666666666,96.60403970062485,621.0833333333334,96.60403970062485,623.5,96.60403970062485C625.9166666666666,96.60403970062485,628.3333333333334,96.60403970062485,630.75,96.60403970062485C633.1666666666666,96.60403970062485,635.5833333333334,96.60403970062485,638,96.60403970062485C640.4166666666666,96.60403970062485,642.8333333333334,96.60403970062485,645.25,96.60403970062485C647.6666666666666,96.60403970062485,650.0833333333334,96.60403970062485,652.5,96.60403970062485C654.9166666666666,96.60403970062485,657.3333333333334,96.60403970062485,659.75,96.60403970062485C662.1666666666666,96.60403970062485,664.5833333333334,96.60403970062485,667,96.60403970062485C669.4166666666666,96.60403970062485,671.8333333333334,96.60403970062485,674.25,96.60403970062485C676.6666666666666,96.60403970062485,679.0833333333334,96.60403970062485,681.5,96.60403970062485C683.9166666666666,96.60403970062485,686.3333333333334,96.60403970062485,688.75,96.60403970062485C691.1666666666666,96.60403970062485,693.5833333333334,96.60403970062485,696,96.60403970062485C698.4166666666666,96.60403970062485,700.8333333333334,96.60403970062485,703.25,96.60403970062485C705.6666666666666,96.60403970062485,708.0833333333334,96.60403970062485,710.5,96.60403970062485C712.9166666666666,96.60403970062485,715.3333333333334,96.60403970062485,717.75,96.60403970062485C720.1666666666666,96.60403970062485,722.5833333333334,96.60403970062485,725,96.60403970062485C727.4166666666666,96.60403970062485,729.8333333333334,96.60403970062485,732.25,96.60403970062485C734.6666666666666,96.60403970062485,737.0833333333334,96.60403970062485,739.5,96.60403970062485C741.9166666666666,96.60403970062485,744.3333333333334,96.60403970062485,746.75,96.60403970062485C749.1666666666666,96.60403970062485,751.5833333333334,96.60403970062485,754,96.60403970062485C756.4166666666666,96.60403970062485,758.8333333333334,96.60403970062485,761.25,96.60403970062485C763.6666666666666,96.60403970062485,766.0833333333334,96.60403970062485,768.5,96.60403970062485C770.9166666666666,96.60403970062485,773.3333333333334,96.60403970062485,775.75,96.60403970062485C778.1666666666666,96.60403970062485,780.5833333333334,96.60403970062485,783,96.60403970062485C785.4166666666667,96.60403970062485,787.8333333333334,96.60403970062485,790.2500000000001,96.60403970062485C792.6666666666667,96.60403970062485,795.0833333333335,96.60403970062485,797.5000000000001,96.60403970062485C799.9166666666667,96.60403970062485,802.3333333333335,96.60403970062485,804.7500000000001,96.60403970062485C807.1666666666667,96.60403970062485,809.5833333333335,96.60403970062485,812.0000000000001,96.60403970062485C814.4166666666667,96.60403970062485,816.8333333333333,96.60403970062485,819.2499999999999,96.60403970062485C821.6666666666665,96.60403970062485,824.0833333333333,96.60403970062485,826.4999999999999,96.60403970062485C828.9166666666665,96.60403970062485,831.3333333333333,96.60403970062485,833.7499999999999,96.60403970062485C836.1666666666665,96.60403970062485,838.5833333333333,96.60403970062485,840.9999999999999,96.60403970062485C843.4166666666666,96.60403970062485,845.8333333333333,96.60403970062485,848.25,96.60403970062485C850.6666666666666,96.60403970062485,853.0833333333334,96.60403970062485,855.5,96.60403970062485C857.9166666666666,96.60403970062485,860.3333333333334,96.60403970062485,862.75,96.60403970062485C865.1666666666666,96.60403970062485,867.5833333333334,96.60403970062485,870,96.60403970062485C872.4166666666666,96.60403970062485,874.8333333333334,96.60403970062485,877.25,96.60403970062485C879.6666666666666,96.60403970062485,882.0833333333334,96.60403970062485,884.5,96.60403970062485C886.9166666666666,96.60403970062485,889.3333333333334,96.60403970062485,891.75,96.60403970062485C894.1666666666666,96.60403970062485,896.5833333333334,96.60403970062485,899,96.60403970062485C901.4166666666666,96.60403970062485,903.8333333333334,96.60403970062485,906.25,96.60403970062485C908.6666666666666,96.60403970062485,911.0833333333334,96.60403970062485,913.5,96.60403970062485C915.9166666666666,96.60403970062485,918.3333333333334,96.60403970062485,920.75,96.60403970062485C923.1666666666666,96.60403970062485,925.5833333333334,96.60403970062485,928,96.60403970062485C930.4166666666666,96.60403970062485,932.8333333333334,96.60403970062485,935.25,96.60403970062485C937.6666666666666,96.60403970062485,940.0833333333334,96.60403970062485,942.5,96.60403970062485C944.9166666666666,96.60403970062485,947.3333333333334,96.60403970062485,949.75,96.60403970062485C952.1666666666666,96.60403970062485,954.5833333333334,96.60403970062485,957,96.60403970062485C959.4166666666666,96.60403970062485,961.8333333333334,96.60403970062485,964.25,96.60403970062485C966.6666666666667,96.60403970062485,969.0833333333334,96.60403970062485,971.5000000000001,96.60403970062485C973.9166666666667,96.60403970062485,976.3333333333335,96.60403970062485,978.7500000000001,96.60403970062485C981.1666666666667,96.60403970062485,983.5833333333335,96.60403970062485,986.0000000000001,96.60403970062485C988.4166666666667,96.60403970062485,990.8333333333335,96.60403970062485,993.2500000000001,96.60403970062485C995.6666666666667,96.60403970062485,998.0833333333333,96.60403970062485,1000.4999999999999,96.60403970062485C1002.9166666666665,96.60403970062485,1005.3333333333333,96.60403970062485,1007.7499999999999,96.60403970062485C1010.1666666666665,96.60403970062485,1012.5833333333333,96.60403970062485,1014.9999999999999,96.60403970062485C1017.4166666666665,96.60403970062485,1019.8333333333333,96.60403970062485,1022.2499999999999,96.60403970062485C1024.6666666666665,96.60403970062485,1027.0833333333333,96.60403970062485,1029.5,96.60403970062485C1031.9166666666667,96.60403970062485,1034.3333333333333,96.60403970062485,1036.75,96.60403970062485C1039.1666666666667,96.60403970062485,1041.5833333333333,96.60403970062485,1044,96.60403970062485C1046.4166666666667,96.60403970062485,1048.8333333333333,96.60403970062485,1051.25,96.60403970062485C1053.6666666666667,96.60403970062485,1056.0833333333333,96.60403970062485,1058.5,96.60403970062485C1060.9166666666667,96.60403970062485,1063.3333333333333,96.60403970062485,1065.75,96.60403970062485C1068.1666666666667,96.60403970062485,1070.5833333333333,96.60403970062485,1073,96.60403970062485C1075.4166666666667,96.60403970062485,1077.8333333333333,96.60403970062485,1080.25,96.60403970062485C1082.6666666666667,96.60403970062485,1085.0833333333333,96.60403970062485,1087.5,96.60403970062485C1089.9166666666667,96.60403970062485,1092.3333333333333,96.60403970062485,1094.75,96.60403970062485C1097.1666666666667,96.60403970062485,1099.5833333333333,96.60403970062485,1102,96.60403970062485C1104.4166666666667,96.60403970062485,1106.8333333333333,96.60403970062485,1109.25,96.60403970062485C1111.6666666666667,96.60403970062485,1114.0833333333333,96.60403970062485,1116.5,96.60403970062485C1118.9166666666667,96.60403970062485,1121.3333333333333,96.60403970062485,1123.75,96.60403970062485C1126.1666666666667,96.60403970062485,1128.5833333333333,96.60403970062485,1131,96.60403970062485C1133.4166666666667,96.60403970062485,1135.8333333333333,96.60403970062485,1138.25,96.60403970062485C1140.6666666666667,96.60403970062485,1143.0833333333333,96.60403970062485,1145.5,96.60403970062485C1147.9166666666667,96.60403970062485,1150.3333333333333,96.60403970062485,1152.75,96.60403970062485C1155.1666666666667,96.60403970062485,1157.5833333333333,96.60403970062485,1160,96.60403970062485C1162.4166666666667,96.60403970062485,1164.8333333333333,96.60403970062485,1167.25,96.60403970062485C1169.6666666666667,96.60403970062485,1172.0833333333333,96.60403970062485,1174.5,96.60403970062485C1176.9166666666667,96.60403970062485,1179.3333333333333,96.60403970062485,1181.75,96.60403970062485C1184.1666666666667,96.60403970062485,1186.5833333333333,96.60403970062485,1189,96.60403970062485C1191.4166666666667,96.60403970062485,1193.8333333333333,96.60403970062485,1196.25,96.60403970062485C1198.6666666666667,96.60403970062485,1201.0833333333333,96.60403970062485,1203.5,96.60403970062485C1205.9166666666667,96.60403970062485,1208.3333333333333,96.60403970062485,1210.75,96.60403970062485C1213.1666666666667,96.60403970062485,1215.5833333333333,96.60403970062485,1218,96.60403970062485C1220.4166666666667,96.60403970062485,1222.8333333333333,96.60403970062485,1225.25,96.60403970062485C1227.6666666666667,96.60403970062485,1230.0833333333333,96.60403970062485,1232.5,96.60403970062485C1234.9166666666667,96.60403970062485,1237.3333333333333,96.60403970062485,1239.75,96.60403970062485C1242.1666666666667,96.60403970062485,1244.5833333333333,96.60403970062485,1247,96.60403970062485C1249.4166666666667,96.60403970062485,1251.8333333333333,96.60403970062485,1254.25,96.60403970062485C1256.6666666666667,96.60403970062485,1259.0833333333333,96.60403970062485,1261.5,96.60403970062485C1263.9166666666667,96.60403970062485,1266.3333333333333,96.60403970062485,1268.75,96.60403970062485C1271.1666666666667,96.60403970062485,1273.5833333333333,96.60403970062485,1276,96.60403970062485C1278.4166666666667,96.60403970062485,1280.8333333333333,96.60403970062485,1283.25,96.60403970062485C1285.6666666666667,96.60403970062485,1288.0833333333333,96.60403970062485,1290.5,96.60403970062485C1292.9166666666667,96.60403970062485,1295.3333333333333,96.60403970062485,1297.75,96.60403970062485C1300.1666666666667,96.60403970062485,1302.5833333333333,96.60403970062485,1305,96.60403970062485C1307.4166666666667,96.60403970062485,1309.8333333333333,96.60403970062485,1312.25,96.60403970062485C1314.6666666666667,96.60403970062485,1317.0833333333333,96.60403970062485,1319.5,96.60403970062485C1321.9166666666667,96.60403970062485,1324.3333333333333,96.60403970062485,1326.75,96.60403970062485C1329.1666666666667,96.60403970062485,1331.5833333333333,96.60403970062485,1334,96.60403970062485C1336.4166666666667,96.60403970062485,1338.8333333333333,96.60403970062485,1341.25,96.60403970062485C1343.6666666666667,96.60403970062485,1346.0833333333333,96.60403970062485,1348.5,96.60403970062485C1350.9166666666667,96.60403970062485,1353.3333333333333,96.60403970062485,1355.75,96.60403970062485C1358.1666666666667,96.60403970062485,1360.5833333333333,96.60403970062485,1363,96.60403970062485C1365.4166666666667,96.60403970062485,1367.8333333333333,96.60403970062485,1370.25,96.60403970062485C1372.6666666666667,96.60403970062485,1375.0833333333333,96.60403970062485,1377.5,96.60403970062485C1379.9166666666667,96.60403970062485,1382.3333333333333,96.60403970062485,1384.75,96.60403970062485C1387.1666666666667,96.60403970062485,1389.5833333333333,96.60403970062485,1392,96.60403970062485C1394.4166666666667,96.60403970062485,1396.8333333333333,96.60403970062485,1399.25,96.60403970062485C1401.6666666666667,96.60403970062485,1404.0833333333333,96.60403970062485,1406.5,96.60403970062485C1408.9166666666667,96.60403970062485,1411.3333333333333,96.60403970062485,1413.75,96.60403970062485C1416.1666666666667,96.60403970062485,1418.5833333333333,96.60403970062485,1421,96.60403970062485C1423.4166666666667,96.60403970062485,1425.8333333333333,96.60403970062485,1428.25,96.60403970062485C1430.6666666666667,96.60403970062485,1433.0833333333333,96.60403970062485,1435.5,96.60403970062485C1437.9166666666667,96.60403970062485,1440.3333333333333,96.60403970062485,1442.75,96.60403970062485C1445.1666666666667,96.60403970062485,1447.5833333333333,96.60403970062485,1450,96.60403970062485" fill="transparent" stroke-linecap="round" stroke="#E7C6DF" stroke-width="2"></path><g class="visx-group visx-axis visx-axis-bottom" transform="translate(0, 115)"><g class="visx-group visx-axis-tick" transform="translate(0, 0)"><line class="visx-line" x1="0" y1="0" x2="0" y2="8" fill="transparent" shape-rendering="crispEdges" stroke="#000" stroke-width="0" stroke-linecap="square"></line><svg x="0" y="0" font-size="10" style="overflow:visible"><text transform="" x="0" y="18" fill="#000" font-size="10" text-anchor="middle"><tspan x="0" dy="0em">0%</tspan></text></svg></g><g class="visx-group visx-axis-tick" transform="translate(0, 0)"><line class="visx-line" x1="362.5" y1="0" x2="362.5" y2="8" fill="transparent" shape-rendering="crispEdges" stroke="#000" stroke-width="0" stroke-linecap="square"></line><svg x="0" y="0" font-size="10" style="overflow:visible"><text transform="" x="362.5" y="18" fill="#000" font-size="10" text-anchor="middle"><tspan x="362.5" dy="0em">25%</tspan></text></svg></g><g class="visx-group visx-axis-tick" transform="translate(0, 0)"><line class="visx-line" x1="725" y1="0" x2="725" y2="8" fill="transparent" shape-rendering="crispEdges" stroke="#000" stroke-width="0" stroke-linecap="square"></line><svg x="0" y="0" font-size="10" style="overflow:visible"><text transform="" x="725" y="18" fill="#000" font-size="10" text-anchor="middle"><tspan x="725" dy="0em">50%</tspan></text></svg></g><g class="visx-group visx-axis-tick" transform="translate(0, 0)"><line class="visx-line" x1="1087.5" y1="0" x2="1087.5" y2="8" fill="transparent" shape-rendering="crispEdges" stroke="#000" stroke-width="0" stroke-linecap="square"></line><svg x="0" y="0" font-size="10" style="overflow:visible"><text transform="" x="1087.5" y="18" fill="#000" font-size="10" text-anchor="middle"><tspan x="1087.5" dy="0em">75%</tspan></text></svg></g><g class="visx-group visx-axis-tick" transform="translate(0, 0)"><line class="visx-line" x1="1450" y1="0" x2="1450" y2="8" fill="transparent" shape-rendering="crispEdges" stroke="#000" stroke-width="0" stroke-linecap="square"></line><svg x="0" y="0" font-size="10" style="overflow:visible"><text transform="" x="1450" y="18" fill="#000" font-size="10" text-anchor="middle"><tspan x="1450" dy="0em">100%</tspan></text></svg></g><line class="visx-line visx-axis-line" x1="0.5" y1="0" x2="1450.5" y2="0" fill="transparent" shape-rendering="crispEdges" stroke="#222" stroke-width="0"></line></g><g class="visx-group visx-axis visx-axis-left" transform="translate(0, 0)"><g class="visx-group visx-axis-tick" transform="translate(0, 0)"><line class="visx-line" x1="0" y1="115" x2="-8" y2="115" fill="transparent" shape-rendering="crispEdges" stroke="#222" stroke-width="0" stroke-linecap="square"></line><svg x="-30" y="0" font-size="8" style="overflow:visible"><text transform="" x="-8" y="115" fill="#000" font-size="8" text-anchor="start"><tspan x="-8" dy="0em">0%</tspan></text></svg></g><g class="visx-group visx-axis-tick" transform="translate(0, 0)"><line class="visx-line" x1="0" y1="73.92857142857142" x2="-8" y2="73.92857142857142" fill="transparent" shape-rendering="crispEdges" stroke="#222" stroke-width="0" stroke-linecap="square"></line><svg x="-30" y="0" font-size="8" style="overflow:visible"><text transform="" x="-8" y="73.92857142857142" fill="#000" font-size="8" text-anchor="start"><tspan x="-8" dy="0em">10%</tspan></text></svg></g><g class="visx-group visx-axis-tick" transform="translate(0, 0)"><line class="visx-line" x1="0" y1="32.857142857142854" x2="-8" y2="32.857142857142854" fill="transparent" shape-rendering="crispEdges" stroke="#222" stroke-width="0" stroke-linecap="square"></line><svg x="-30" y="0" font-size="8" style="overflow:visible"><text transform="" x="-8" y="32.857142857142854" fill="#000" font-size="8" text-anchor="start"><tspan x="-8" dy="0em">20%</tspan></text></svg></g><line class="visx-line visx-axis-line" x1="0" y1="115.5" x2="0" y2="0.5" fill="transparent" shape-rendering="crispEdges" stroke="#222" stroke-width="0"></line></g><rect class="visx-bar" width="1450" height="115" fill="transparent"></rect><line class="visx-line" x1="1377.5" y1="28" x2="1377.5" y2="115" fill="transparent" shape-rendering="crispEdges" stroke="#0062D2" stroke-width="1" pointer-events="none" stroke-dasharray="5,2"></line><svg x="0" y="0" font-size="10px" style="overflow:visible"><text transform="" x="1377.5" y="20" font-size="10px" fill="#fff" stroke="#fff" stroke-width="0.8em" text-anchor="middle"><tspan x="1377.5" dy="0.355em">Optimal 95%</tspan></text></svg><svg x="0" y="0" font-size="10px" style="overflow:visible"><text transform="" x="1377.5" y="20" font-size="10px" fill="#62677B" text-anchor="middle"><tspan x="1377.5" dy="0.355em">Optimal 95%</tspan></text></svg></g></svg>